<?xml version="1.0" encoding="utf-8"?>
<!-- Generator: Adobe Illustrator 19.0.0, SVG Export Plug-In . SVG Version: 6.00 Build 0)  -->
<svg version="1.1" id="Capa_1" xmlns="http://www.w3.org/2000/svg" xmlns:xlink="http://www.w3.org/1999/xlink" x="0px" y="0px"
	 viewBox="-155 247 75.4 80.4" style="enable-background:new -155 247 75.4 80.4;" xml:space="preserve">
<style type="text/css">
	.st0{fill:#FFFFFF;}
</style>
<g>
	<title>Layer 1</title>
	<path id="svg_11" class="st0" d="M-105.1,276.7c2.1,3.8,9.1,9.7,15.9,6.1c6.8-3.7,4.7-8.5,0.9-14.8c-2.2-3.7-5.5-6.6-9.5-8.2
		C-107.9,257.3-107.2,272.9-105.1,276.7z"/>
	<path id="svg_12" class="st0" d="M-112.2,260c1.9,7.5-0.8,13.1-5.2,15.8c-4.4,2.7-9.7-3.2-13.3-7.3c-3.6-4.2-3.4-8-3.3-13.2
		c0.1-5.1,5.2-5.5,5.2-5.5C-126,248.9-114.1,252.4-112.2,260z"/>
	<path id="svg_13" class="st0" d="M-131.5,285.6c-5.6,3.4-12.7,2.9-17.7-1.4c-6.5-10.2-3.2-16.8-3.2-16.8c1.7-6.3,7.7-4.9,7.7-4.9
		C-134.9,262.7-122.7,280.6-131.5,285.6z"/>
	<path id="svg_14" class="st0" d="M-131.9,317.8c4.9-5.7,4-15.4,4-15.4s-1.4-7.4-7.8-8.5c-6.4-1.1-11.7-2.4-12.8,4.2
		c0,0-2.1,11.1,9.3,20.2C-139.2,318.3-135.4,321.9-131.9,317.8z"/>
	<path id="svg_15" class="st0" d="M-82.2,301.7c3.4-4.4,3.4-8.4,0.6-12.2c-2.9-3.8-7.6-3.4-12.3-2.8c-4.4,0.5-11.5-1.3-11.5-1.3
		c-4.3-0.8-10.8-5.5-15.7-1.9c-6.3,4.6-3.7,9.7-3.6,16.4c0,3.1-0.2,6.2-0.6,9.3c-2,5.8-3.9,11-1,14.9s7.4,3.8,11.4,2.4
		C-100.8,321.6-82.2,301.7-82.2,301.7z"/>
</g>
</svg>
