<svg width="500" height="500" xmlns="http://www.w3.org/2000/svg" data-name="Capa 1">
 <defs>
  <clipPath id="clip-path">
   <circle id="svg_1" fill="#f6f6f5" r="247.8" cy="250" cx="-280.09" class="cls-1"/>
  </clipPath>
  <clipPath id="clip-path-2">
   <circle id="svg_2" fill="none" r="248.3" cy="249.5" cx="250.7" class="cls-2"/>
  </clipPath>
 </defs>
 <g>
  <title>Layer 1</title>
  <g id="svg_6" clip-path="url(#clip-path-2)" class="cls-5">
   <rect id="svg_7" opacity="0.66" fill="#c17e4d" height="500" width="500" y="1.2" class="cls-6"/>
   <path id="svg_8" fill="#fff" d="m143.58,192.84s0.92,19.69 2.46,32.31s10.15,21.23 10.15,21.23c0.31,5.23 6.77,31.38 6.77,31.38c2.77,15.08 18.16,26.47 18.16,26.47l-4,45.84s-1.85,-0.3 -8.92,0.93s-7.7,20.92 -7.7,20.92c-6.15,7.08 -8,19.69 -8,19.69s-99.39,42.47 -118.77,52s-42.43,26.78 -42.43,26.78l0,29.94l517.46,0l0,-29.94c-11.77,-19.39 -79,-44.31 -79,-44.31l-83.7,-34.47s-7.69,-14.46 -9.23,-18.77s0,-12.92 -4.31,-18.77s-9.85,-2.46 -9.85,-2.46s0.93,-36 0.93,-43.08a15.19,15.19 0 0 1 4,-10.77c11.4,-11.38 16.91,-50.76 16.91,-50.76s2.46,1.54 7.08,-7.69s6.15,-35.39 6.77,-45.85s-8.31,-4.61 -8.31,-4.61s0.92,-67.7 0,-87.7s-14.77,-33.85 -21.54,-41.23s-27.08,-19.4 -32.31,-24.32s2.46,-9.85 8.62,-16.31s-4,-5.85 -4,-5.85s-11.39,-0.3 -48,7.7s-52.62,17.86 -76.93,36s-23.7,50.15 -23.7,50.15l0,70.47l0.14,7.9s-4.54,-2 -7,-0.88c-1.82,0.88 -1.75,8.06 -1.75,8.06z" class="cls-4"/>
  </g>
 </g>
</svg>