<svg xmlns="http://www.w3.org/2000/svg" viewBox="0 0 589 82"><defs><style>.cls-1{fill:#fff;}</style></defs><g id="Capa_2" data-name="Capa 2"><path class="cls-1" d="M286.91,59.58c-.72-.4-1.08-.88-1.08-1.43V33a4.06,4.06,0,0,0-1.27-3,4.2,4.2,0,0,0-3.07-1.25h-5.31a3.86,3.86,0,0,0-2.73,1.07,3.7,3.7,0,0,0-1.13,2.82,3.56,3.56,0,0,0,.85,2.35,3.61,3.61,0,0,0,2.4,1.23v5l-.91-.77a6.67,6.67,0,0,0-1.16-.77,7.08,7.08,0,0,0-1.62-.58,9.6,9.6,0,0,0-2.3-.23,11.85,11.85,0,0,0-5,1,10.74,10.74,0,0,0-3.79,2.89,13.52,13.52,0,0,0-2.45,4.52,19,19,0,0,0-.87,5.93,20.37,20.37,0,0,0,.8,5.94,13.43,13.43,0,0,0,2.29,4.55,10.24,10.24,0,0,0,3.61,2.91,10.65,10.65,0,0,0,4.69,1,9.06,9.06,0,0,0,3.15-.49,8.39,8.39,0,0,0,2.19-1.18,6.47,6.47,0,0,0,1.44-1.48,7.19,7.19,0,0,0,.8-1.46v1.44a2.19,2.19,0,0,0,.18.84,2.36,2.36,0,0,0,.6.82,3.29,3.29,0,0,0,1.08.64,4.7,4.7,0,0,0,1.65.25h4.69a4,4,0,0,0,2.81-1.28A3.94,3.94,0,0,0,288.56,63,4,4,0,0,0,286.91,59.58ZM270.28,48.35a3.08,3.08,0,0,1,3.07-1.05.87.87,0,0,1,.59,1.06,2.94,2.94,0,0,1-1.11,2c-.74.53-1.85,1.29-2.42.7A2.17,2.17,0,0,1,270.28,48.35Zm-4.14.45a3.43,3.43,0,0,1,1.86-1c1.72,0,.92,2.41.43,3s-1.87,1.23-2.79.41S265.27,49.66,266.14,48.8Zm3.58,10.25a1.56,1.56,0,0,1-1.92,0c-2-1.29-4.11-5.09-4.11-5.09a1.53,1.53,0,0,1,.45-2c.62-.51,1.35-.27,2.08,0a6.92,6.92,0,0,0,1.89.19c.72,0,1.95-.5,2.58.25.79,1,.16,1.67-.15,2.74a11,11,0,0,0-.32,1.5C270.27,57.64,270.34,58.54,269.72,59.05Zm2.28-.48a.78.78,0,0,1-1.13-.33,3.82,3.82,0,0,1,0-2.59,1.93,1.93,0,0,1,1.61-1.08c1.05,0,2,0,1.84,1.11A3.84,3.84,0,0,1,272,58.57Zm3.1-5.07a2.48,2.48,0,0,1-2.87-.4c-1.18-1.1,1.53-3.52,3.1-3.2a1,1,0,0,1,1,1S276.58,52.11,275.1,53.5Z"/><path class="cls-1" d="M289.57,52.57a15.72,15.72,0,0,1,.89-5.24A13.56,13.56,0,0,1,293,42.87a12.13,12.13,0,0,1,4.11-3.1,12.76,12.76,0,0,1,5.57-1.16,13.05,13.05,0,0,1,4.64.78,10.75,10.75,0,0,1,3.58,2.19A14.54,14.54,0,0,1,313.55,45a9.72,9.72,0,0,1,1.18,4.74,4.47,4.47,0,0,1-4.54,4.53H299.71v.31a4.75,4.75,0,0,0,2,3.1,5.55,5.55,0,0,0,2.78.78,8,8,0,0,0,1.59-.15,10.8,10.8,0,0,0,1.36-.38c.42-.15.79-.29,1.13-.4a2.89,2.89,0,0,1,1-.18,3.83,3.83,0,0,1,1.56.33,5.06,5.06,0,0,1,1.36.86,3.74,3.74,0,0,1,1,1.31,4.1,4.1,0,0,1,.35,1.74,3.79,3.79,0,0,1-.78,2.34,6,6,0,0,1-2.12,1.71,11.8,11.8,0,0,1-3.17,1,21.85,21.85,0,0,1-4,.35,14.51,14.51,0,0,1-6.28-1.26A13.13,13.13,0,0,1,293,62.45a13,13,0,0,1-2.57-4.61A17,17,0,0,1,289.57,52.57ZM304.7,50a16.67,16.67,0,0,0-.08-1.69,5.48,5.48,0,0,0-.3-1.34,2.44,2.44,0,0,0-.65-1,1.93,1.93,0,0,0-1.29-.38,1.87,1.87,0,0,0-1.79,1.34,12.75,12.75,0,0,0-.68,3.05Z"/><path class="cls-1" d="M458.73,48.14a14.24,14.24,0,0,0-3.32-4.67,14.62,14.62,0,0,0-5-3,17.65,17.65,0,0,0-12.16,0,14.78,14.78,0,0,0-4.93,3A14.24,14.24,0,0,0,430,48.14a14.87,14.87,0,0,0-1.21,6.06,14.67,14.67,0,0,0,1.21,6,13.56,13.56,0,0,0,3.35,4.6,14.76,14.76,0,0,0,5,2.92,18.54,18.54,0,0,0,12.13,0,14.43,14.43,0,0,0,4.93-2.92,13.75,13.75,0,0,0,3.32-4.6,14.51,14.51,0,0,0,1.21-6A14.71,14.71,0,0,0,458.73,48.14Zm-14.24,1.57a3.08,3.08,0,0,1,3.07-1.05.87.87,0,0,1,.59,1.06,2.94,2.94,0,0,1-1.11,2c-.75.54-1.85,1.29-2.42.7A2.17,2.17,0,0,1,444.49,49.71Zm-4.14.45a3.43,3.43,0,0,1,1.86-1c1.72,0,.92,2.41.43,3s-1.87,1.23-2.79.41S439.48,51,440.35,50.16Zm3.58,10.26a1.57,1.57,0,0,1-1.92,0c-2-1.29-4.11-5.09-4.11-5.09a1.54,1.54,0,0,1,.44-2c.63-.51,1.36-.27,2.09,0a6.92,6.92,0,0,0,1.89.19c.72,0,1.95-.5,2.58.25.79,1,.16,1.68-.15,2.74a10.93,10.93,0,0,0-.32,1.51C444.48,59,444.55,59.9,443.93,60.42Zm2.28-.49a.78.78,0,0,1-1.13-.33,3.83,3.83,0,0,1,0-2.59,1.93,1.93,0,0,1,1.61-1.08c1,0,1.95,0,1.83,1.12A3.81,3.81,0,0,1,446.21,59.93Zm3.1-5.07a2.48,2.48,0,0,1-2.87-.4c-1.18-1.1,1.53-3.52,3.1-3.19a1,1,0,0,1,1,1S450.79,53.47,449.31,54.86Z"/><path class="cls-1" d="M330,42.2A29.68,29.68,0,0,1,332,31a26.87,26.87,0,0,1,5.59-8.72,26.25,26.25,0,0,1,8.26-5.74,25,25,0,0,1,10.21-2.09,34.39,34.39,0,0,1,3.61.22c1.39.14,2.86.37,4.4.68a33.27,33.27,0,0,1,4.54,1.26,18.83,18.83,0,0,1,4,1.95,10.58,10.58,0,0,1,2.92,2.81,8.32,8.32,0,0,1,1.16,4.77c0,3.27-.73,5.45-2.2,6.56a7.59,7.59,0,0,1-4.65,1.66,7,7,0,0,1-3.68-1.05,6.77,6.77,0,0,1-2.67-3A4.27,4.27,0,0,0,361.32,28a11.16,11.16,0,0,0-2.34-.47c-.79-.07-1.53-.11-2.2-.11a10.81,10.81,0,0,0-8.33,3.39q-3.13,3.39-3.14,10.46a24.19,24.19,0,0,0,.9,7,13.63,13.63,0,0,0,2.56,5,10.76,10.76,0,0,0,3.93,2.92,12.45,12.45,0,0,0,4.95,1,17.69,17.69,0,0,0,3.46-.36,3.62,3.62,0,0,0,2.52-1.51,6.38,6.38,0,0,1,2.45-3.76,7.06,7.06,0,0,1,4.26-1.37,6.74,6.74,0,0,1,2.74.58,7.39,7.39,0,0,1,2.24,1.52,6.87,6.87,0,0,1,1.48,2.2,6.62,6.62,0,0,1,.54,2.63,9.94,9.94,0,0,1-3.25,7.79Q368.39,70,358.58,70h-1a8.63,8.63,0,0,1-1.12-.07,25.75,25.75,0,0,1-18.9-8A26.9,26.9,0,0,1,332,53.2,29.47,29.47,0,0,1,330,42.2Z"/><path class="cls-1" d="M379.8,55.65a14.53,14.53,0,0,1,1.13-5.85,13.68,13.68,0,0,1,7.71-7.44,16.2,16.2,0,0,1,11.37,0,13.61,13.61,0,0,1,7.74,7.44,14.54,14.54,0,0,1,1.14,5.85,14.32,14.32,0,0,1-1.14,5.82,13.25,13.25,0,0,1-3.1,4.44A13.79,13.79,0,0,1,400,68.73a16.92,16.92,0,0,1-11.35,0,14,14,0,0,1-4.63-2.82,13.19,13.19,0,0,1-3.13-4.44A14.32,14.32,0,0,1,379.8,55.65Zm10.18,0a5.7,5.7,0,0,0,1.31,4.08,4.12,4.12,0,0,0,3.08,1.36,4.06,4.06,0,0,0,3.05-1.36,5.78,5.78,0,0,0,1.28-4.08,6.18,6.18,0,0,0-1.28-4.16A3.93,3.93,0,0,0,394.37,50a4,4,0,0,0-3.08,1.49A6.08,6.08,0,0,0,390,55.65Z"/><path class="cls-1" d="M412,38.76a3.47,3.47,0,0,1-3.07-3.23,3.75,3.75,0,0,1,3.27-4.13h5.65A4.2,4.2,0,0,1,422,35.63V57.56a13.42,13.42,0,0,0,.13,2.09,1.89,1.89,0,0,0,.58,1.14,4.67,4.67,0,0,1,1.92,1.74,4.33,4.33,0,0,1,.65,2.49,4.85,4.85,0,0,1-.43,1.79,4,4,0,0,1-1,1.41,5.45,5.45,0,0,1-1.49.94,4.1,4.1,0,0,1-1.79.3,14.21,14.21,0,0,1-3.2-.66,6.7,6.7,0,0,1-2.75-1.74,8.86,8.86,0,0,1-1.94-3.37,17.56,17.56,0,0,1-.73-5.57Z"/><path class="cls-1" d="M476.14,60.23a3.7,3.7,0,0,1,2,1.21,4,4,0,0,1,.91,2.12,3.86,3.86,0,0,1-3.43,4.19h-8.72a3.86,3.86,0,0,1-2.22-.79,3.38,3.38,0,0,1-1.26-2,3.54,3.54,0,0,1,.3-2.85A3.8,3.8,0,0,1,466,60.33v-11a1.41,1.41,0,0,0-.4-1.11,3.8,3.8,0,0,1-2-1.48,3.91,3.91,0,0,1-.7-2.45,3.85,3.85,0,0,1,1.28-2.7,3.75,3.75,0,0,1,2.85-1H472a4.19,4.19,0,0,1,2.75.78,2.84,2.84,0,0,1,.93,2.3v1.21c.27-.41.57-.83.91-1.26a8.48,8.48,0,0,1,1.11-1.21A13.62,13.62,0,0,1,480,40.77a6.41,6.41,0,0,1,3.15-.8,6.71,6.71,0,0,1,3.46,1,7.42,7.42,0,0,1,2.85,3.66,9,9,0,0,1,3.1-3.31A8.44,8.44,0,0,1,497.36,40a8.7,8.7,0,0,1,2.85.48,6.36,6.36,0,0,1,2.49,1.61,8.11,8.11,0,0,1,1.79,3,14.49,14.49,0,0,1,.68,4.84V60.33a3.75,3.75,0,0,1,1.79,1,3.3,3.3,0,0,1,.94,1.82,3.46,3.46,0,0,1-.36,2.87,3.69,3.69,0,0,1-2.37,1.77h-5.84a4.23,4.23,0,0,1-4.19-4.24V51.81a3.79,3.79,0,0,0-.3-1.66,1.27,1.27,0,0,0-1.26-.6,2.07,2.07,0,0,0-1.54.58,3.62,3.62,0,0,0-.88,1.51,9.48,9.48,0,0,0-.4,2.24c-.07.88-.1,1.8-.1,2.77v3.58a3.86,3.86,0,0,1-.31,7.52h-5.54a4.23,4.23,0,0,1-4.24-4.24V51.81a3.49,3.49,0,0,0-.33-1.66,1.31,1.31,0,0,0-1.28-.6,1.92,1.92,0,0,0-1.61.68,4.45,4.45,0,0,0-.84,1.79,12.36,12.36,0,0,0-.32,2.52c0,.94-.05,1.86-.05,2.77Z"/><path class="cls-1" d="M522.11,66.84a9.87,9.87,0,0,1-1.56-1.51,4.82,4.82,0,0,1-4.43,2.47,4.6,4.6,0,0,1-1.87-.38,5.62,5.62,0,0,1-1.54-1,4.64,4.64,0,0,1-1.08-1.54,5.41,5.41,0,0,1-.46-1.91V37.34a3.37,3.37,0,0,1-2.24-1.21,3.54,3.54,0,0,1-.83-2.31,3.8,3.8,0,0,1,1.06-2.7A3.42,3.42,0,0,1,511.78,30H517a4.13,4.13,0,0,1,4.19,4.19v8.37a13.79,13.79,0,0,1,2.44-1.74,7.65,7.65,0,0,1,3.86-.83,10.43,10.43,0,0,1,8.29,4,14.13,14.13,0,0,1,2.32,4.49,18.51,18.51,0,0,1,.83,5.72,17.75,17.75,0,0,1-.9,5.83,13.89,13.89,0,0,1-2.5,4.46,10.8,10.8,0,0,1-8.44,3.88,8.3,8.3,0,0,1-3-.48A9,9,0,0,1,522.11,66.84ZM521,54.44a8.38,8.38,0,0,0,.23,1.91,5.41,5.41,0,0,0,.73,1.72,4.4,4.4,0,0,0,1.24,1.23,3.09,3.09,0,0,0,1.74.48,3.42,3.42,0,0,0,2.69-1.34,6,6,0,0,0,1.14-4,7.46,7.46,0,0,0-1-4.14,3.25,3.25,0,0,0-2.85-1.56,3.5,3.5,0,0,0-2.7,1.36A6.52,6.52,0,0,0,521,54.44Z"/><path class="cls-1" d="M549.79,40.62a4.23,4.23,0,0,1,4.29,4.29V60.28a4.85,4.85,0,0,1,2,1.14,3.19,3.19,0,0,1,.88,1.94,3.69,3.69,0,0,1-.63,2.82,3.77,3.77,0,0,1-2.44,1.57h-9.63a4.15,4.15,0,0,1-1.89-1,3.36,3.36,0,0,1-1-1.82,3.52,3.52,0,0,1,.33-2.87,3.86,3.86,0,0,1,2.29-1.82V48A3.68,3.68,0,0,1,542,47a4,4,0,0,1-1-2,3.13,3.13,0,0,1,0-1.49,4.12,4.12,0,0,1,.63-1.34,4.08,4.08,0,0,1,1-1,3.8,3.8,0,0,1,1.36-.56Zm-2.72-3.07a3.79,3.79,0,0,1,0-7.57h2.17a3.79,3.79,0,0,1,0,7.57Z"/><path class="cls-1" d="M558.67,60.33a7,7,0,0,1,1.46-4.63A9.46,9.46,0,0,1,563.66,53a15.18,15.18,0,0,1,4.26-1.18,30.88,30.88,0,0,1,3.6-.28h1.41V50.05a1.57,1.57,0,0,0-.83-1.51,3.7,3.7,0,0,0-1.84-.46,4.87,4.87,0,0,0-1.34.18c-.42.12-.84.25-1.26.4a10.49,10.49,0,0,1-1.31.38,6.34,6.34,0,0,1-1.38.15A3.87,3.87,0,0,1,562.19,48,3.77,3.77,0,0,1,561,45.21a3.47,3.47,0,0,1,.84-2.34,6.24,6.24,0,0,1,2.26-1.64,12.8,12.8,0,0,1,3.36-1,26,26,0,0,1,4-.3c3.73,0,6.6,1,8.6,2.9s3,4.74,3,8.44v7.61a1.73,1.73,0,0,0,.35,1.26,4.72,4.72,0,0,1,1.74,1.41,3.4,3.4,0,0,1,.68,2.07,4.05,4.05,0,0,1-1.13,2.93,3.78,3.78,0,0,1-2.8,1.16h-4.54a3.81,3.81,0,0,1-1.54-.31,3.26,3.26,0,0,1-1.11-.78,2.93,2.93,0,0,1-.6-1,2.49,2.49,0,0,1-.13-1l0-.76h-.2a6.06,6.06,0,0,1-.76,1.36,6.56,6.56,0,0,1-1.36,1.39,7.93,7.93,0,0,1-2.06,1.14,8.29,8.29,0,0,1-2.88.45,8.68,8.68,0,0,1-3.12-.56A7.35,7.35,0,0,1,561.08,66a8.2,8.2,0,0,1-1.76-2.49A7.61,7.61,0,0,1,558.67,60.33Zm9.73-1a2.29,2.29,0,0,0,.5,1.58,1.55,1.55,0,0,0,1.21.58,2.76,2.76,0,0,0,2-1.06,4.32,4.32,0,0,0,1-3.07V56h-.55a5.45,5.45,0,0,0-1.94.3,4,4,0,0,0-1.29.76,2.49,2.49,0,0,0-.7,1A3.46,3.46,0,0,0,568.4,59.28Z"/><path class="cls-1" d="M78.47,48.08a3.85,3.85,0,0,1-2.37-1.51,3.43,3.43,0,0,1-.65-2.72,3.23,3.23,0,0,1,.5-1.39,4.25,4.25,0,0,1,1-1.06,3.51,3.51,0,0,1,1.28-.6,6.26,6.26,0,0,1,1.49-.18h4.64a4.05,4.05,0,0,1,3,1.24,4.15,4.15,0,0,1,1.23,3v14a1.4,1.4,0,0,0,1.16,1.41,4.44,4.44,0,0,1,1.64,1.77,3.35,3.35,0,0,1,.33,2.32,3.4,3.4,0,0,1-1.41,2.52,5.21,5.21,0,0,1-3.08.86H82.61c-2.46,0-3.69-1-3.69-3.13V63.16a6.76,6.76,0,0,1-1.56,2.62A8.31,8.31,0,0,1,75,67.54a8.42,8.42,0,0,1-4,.81,10.16,10.16,0,0,1-3.08-.48,7,7,0,0,1-2.69-1.61,8.23,8.23,0,0,1-1.92-3.05,13.52,13.52,0,0,1-.73-4.79V48a3.61,3.61,0,0,1-2.17-1.26,3.54,3.54,0,0,1-.85-2.37,3.69,3.69,0,0,1,1.08-2.67,3.55,3.55,0,0,1,2.65-1.11h5.24a3.91,3.91,0,0,1,2.92,1.24,4.1,4.1,0,0,1,1.21,3V56.4a3.71,3.71,0,0,0,.46,2.17,1.65,1.65,0,0,0,1.41.6,2.76,2.76,0,0,0,1.74-.57,4.68,4.68,0,0,0,1.23-1.52,7.15,7.15,0,0,0,.73-2.22,14.25,14.25,0,0,0,.23-2.64Z"/><path class="cls-1" d="M93,53.93a15.71,15.71,0,0,1,.88-5.24,13.76,13.76,0,0,1,2.55-4.46,12.13,12.13,0,0,1,4.11-3.1A12.73,12.73,0,0,1,106.15,40a13.09,13.09,0,0,1,4.64.78,10.75,10.75,0,0,1,3.58,2.19A14.24,14.24,0,0,1,117,46.32a9.72,9.72,0,0,1,1.19,4.74,4.49,4.49,0,0,1-4.54,4.54H103.17v.3a4.76,4.76,0,0,0,2,3.1,5.52,5.52,0,0,0,2.77.78,8,8,0,0,0,1.59-.15,9.93,9.93,0,0,0,1.36-.38l1.14-.4a2.8,2.8,0,0,1,1-.18,3.9,3.9,0,0,1,1.56.33,5.06,5.06,0,0,1,1.36.86,3.87,3.87,0,0,1,1,1.31,4.26,4.26,0,0,1,.35,1.74,3.79,3.79,0,0,1-.78,2.34A6,6,0,0,1,114.29,67a11.87,11.87,0,0,1-3.18,1,21.66,21.66,0,0,1-4,.35,14.48,14.48,0,0,1-6.28-1.26,12.89,12.89,0,0,1-7-7.89A17.32,17.32,0,0,1,93,53.93Zm15.13-2.62a16.67,16.67,0,0,0-.08-1.69,5.3,5.3,0,0,0-.3-1.33,2.34,2.34,0,0,0-.66-1,2,2,0,0,0-3.07,1,12.75,12.75,0,0,0-.68,3.05Z"/><path class="cls-1" d="M121.73,37.4a3.53,3.53,0,0,1-2.17-1.11,3.57,3.57,0,0,1-.91-2.12,3.66,3.66,0,0,1,.81-2.75A3.72,3.72,0,0,1,121.93,30h5.65a4.23,4.23,0,0,1,4.23,4.24V56.2a12.28,12.28,0,0,0,.13,2.09,1.84,1.84,0,0,0,.58,1.14,4.65,4.65,0,0,1,1.91,1.74,4.32,4.32,0,0,1,.66,2.49,5.06,5.06,0,0,1-.43,1.79,4,4,0,0,1-1,1.41,5.4,5.4,0,0,1-1.48.94,4.12,4.12,0,0,1-1.79.3,14.1,14.1,0,0,1-3.2-.66,6.63,6.63,0,0,1-2.75-1.74,8.68,8.68,0,0,1-1.94-3.37,17.59,17.59,0,0,1-.73-5.58Z"/><path class="cls-1" d="M138.36,37.4a3.5,3.5,0,0,1-2.16-1.11,3.57,3.57,0,0,1-.91-2.12,3.66,3.66,0,0,1,.81-2.75A3.7,3.7,0,0,1,138.57,30h5.64a4.23,4.23,0,0,1,4.24,4.24V56.2a13.67,13.67,0,0,0,.12,2.09,2,2,0,0,0,.58,1.14,4.61,4.61,0,0,1,1.92,1.74,4.23,4.23,0,0,1,.65,2.49,4.84,4.84,0,0,1-.42,1.79,4.11,4.11,0,0,1-1,1.41,5.45,5.45,0,0,1-1.49.94,4.1,4.1,0,0,1-1.79.3,14.33,14.33,0,0,1-3.2-.66A6.6,6.6,0,0,1,141,65.7a8.82,8.82,0,0,1-1.95-3.37,17.88,17.88,0,0,1-.73-5.58Z"/><path class="cls-1" d="M162.92,40.62a4.22,4.22,0,0,1,4.28,4.29V60.28a4.79,4.79,0,0,1,2,1.14,3.25,3.25,0,0,1,.89,1.94A3.81,3.81,0,0,1,167,67.75h-9.63a4.15,4.15,0,0,1-1.89-1,3.35,3.35,0,0,1-1-1.82,3.48,3.48,0,0,1,.32-2.87,3.85,3.85,0,0,1,2.3-1.82V48A3.64,3.64,0,0,1,155.13,47a4,4,0,0,1-1-2,3.26,3.26,0,0,1,0-1.49,4.58,4.58,0,0,1,.63-1.34,4,4,0,0,1,1-1,3.66,3.66,0,0,1,1.36-.56Zm-2.73-3.07a3.79,3.79,0,0,1,0-7.57h2.17a3.79,3.79,0,0,1,0,7.57Z"/><path class="cls-1" d="M174.61,48.08a3.81,3.81,0,0,1-2.27-1.16,3.66,3.66,0,0,1-1-2.37,3.14,3.14,0,0,1,.22-1.43,4.94,4.94,0,0,1,.73-1.24,3,3,0,0,1,1.14-.85,4.3,4.3,0,0,1,1.54-.36,21.23,21.23,0,0,1-.05-3.33,4.87,4.87,0,0,1,.55-1.81A5.18,5.18,0,0,1,176.65,34a4.82,4.82,0,0,1,1.67-.93,4.68,4.68,0,0,1,1.94-.2,5.08,5.08,0,0,1,1.86.55,4.88,4.88,0,0,1,1.47,1.19,5,5,0,0,1,.9,1.66,16.79,16.79,0,0,1,.21,4.36,6.21,6.21,0,0,1,2,0,3.74,3.74,0,0,1,2.42,1.59,3.48,3.48,0,0,1,.61,2.8,3.73,3.73,0,0,1-.56,1.36,4,4,0,0,1-1,1,3.78,3.78,0,0,1-1.28.6,3.13,3.13,0,0,1-1.49,0h-.7v8.47a2.79,2.79,0,0,0,.4,1.57,1.91,1.91,0,0,0,1.16.8,4.39,4.39,0,0,1,1.69.66,4.49,4.49,0,0,1,1.28,1.21,4.41,4.41,0,0,1,.71,1.59,5.36,5.36,0,0,1,.1,1.79,4.14,4.14,0,0,1-.66,1.66,5.12,5.12,0,0,1-1.21,1.29,4.52,4.52,0,0,1-1.58.75,6.2,6.2,0,0,1-2.2.08,15.15,15.15,0,0,1-3.07-.76,11.21,11.21,0,0,1-3.25-1.74,8.83,8.83,0,0,1-2.47-3,9.69,9.69,0,0,1-1-4.62Z"/><path class="cls-1" d="M191.75,60.33a7,7,0,0,1,1.47-4.63A9.46,9.46,0,0,1,196.75,53,15.18,15.18,0,0,1,201,51.84a30.88,30.88,0,0,1,3.6-.28H206V50.05a1.57,1.57,0,0,0-.83-1.51,3.7,3.7,0,0,0-1.84-.46,4.87,4.87,0,0,0-1.34.18c-.42.12-.84.25-1.26.4a10.49,10.49,0,0,1-1.31.38,6.34,6.34,0,0,1-1.38.15A3.87,3.87,0,0,1,195.28,48a3.77,3.77,0,0,1-1.21-2.82,3.47,3.47,0,0,1,.84-2.34,6.24,6.24,0,0,1,2.26-1.64,12.8,12.8,0,0,1,3.36-1,26,26,0,0,1,4-.3c3.73,0,6.6,1,8.6,2.9s3,4.74,3,8.44v7.61a1.73,1.73,0,0,0,.35,1.26,4.8,4.8,0,0,1,1.74,1.41,3.4,3.4,0,0,1,.68,2.07,4,4,0,0,1-1.14,2.93A3.74,3.74,0,0,1,215,67.75h-4.54a3.81,3.81,0,0,1-1.54-.31,3.26,3.26,0,0,1-1.11-.78,2.78,2.78,0,0,1-.6-1,2.49,2.49,0,0,1-.13-1l0-.76h-.2a6.06,6.06,0,0,1-.76,1.36,6.56,6.56,0,0,1-1.36,1.39,7.93,7.93,0,0,1-2.06,1.14,8.29,8.29,0,0,1-2.88.45,8.68,8.68,0,0,1-3.12-.56A7.35,7.35,0,0,1,194.17,66a8,8,0,0,1-1.76-2.49A7.61,7.61,0,0,1,191.75,60.33Zm9.73-1a2.29,2.29,0,0,0,.51,1.58,1.53,1.53,0,0,0,1.21.58,2.76,2.76,0,0,0,2-1.06,4.32,4.32,0,0,0,1-3.07V56h-.55a5.45,5.45,0,0,0-1.94.3,4,4,0,0,0-1.29.76,2.49,2.49,0,0,0-.7,1A3.47,3.47,0,0,0,201.48,59.28Z"/><path class="cls-1" d="M231.53,68.35a20.42,20.42,0,0,1-3.15-.25,16.94,16.94,0,0,1-3.17-.81,12,12,0,0,1-2.75-1.38A5.78,5.78,0,0,1,220.64,64a5.37,5.37,0,0,1-.4-1.73,4.4,4.4,0,0,1,1.08-3.16A5.66,5.66,0,0,1,222.71,58a4.72,4.72,0,0,1,1.71-.45,4.81,4.81,0,0,1,1.69.2,4.53,4.53,0,0,1,1.54.83A4.69,4.69,0,0,1,228.81,60a1.17,1.17,0,0,0,.73.51,5.46,5.46,0,0,0,1.44.15,2.86,2.86,0,0,0,1.86-.43,1.42,1.42,0,0,0,.46-1.09,1.24,1.24,0,0,0-.61-1.16,10.8,10.8,0,0,0-1.81-.75l-1.82-.66a25.91,25.91,0,0,1-2.95-1.18,11.73,11.73,0,0,1-2.59-1.67,7.47,7.47,0,0,1-1.87-2.34,6.93,6.93,0,0,1-.7-3.23,6.71,6.71,0,0,1,1.1-4,8.37,8.37,0,0,1,2.8-2.49,12.41,12.41,0,0,1,3.66-1.32,19.87,19.87,0,0,1,3.73-.37,19.12,19.12,0,0,1,3.1.27,15.67,15.67,0,0,1,3,.84,8.37,8.37,0,0,1,2.47,1.48,4.92,4.92,0,0,1,1.46,2.25,4.51,4.51,0,0,1-2,4.58,3.79,3.79,0,0,1-1.68.76,5.08,5.08,0,0,1-1.74,0,4.92,4.92,0,0,1-1.64-.6,5,5,0,0,1-1.39-1.26,1,1,0,0,0-.48-.41,2,2,0,0,0-.83-.15,1.78,1.78,0,0,0-1.34.38,1.48,1.48,0,0,0-.32,1,1.57,1.57,0,0,0,.3,1,2.37,2.37,0,0,0,.81.68,5.57,5.57,0,0,0,1.13.48l1.19.35.35,0a28.76,28.76,0,0,1,3,1,10.93,10.93,0,0,1,2.75,1.51,7.87,7.87,0,0,1,2,2.29,6.31,6.31,0,0,1,.81,3.28,7.28,7.28,0,0,1-1,3.91,8.46,8.46,0,0,1-2.73,2.69,12.51,12.51,0,0,1-3.78,1.57A18.38,18.38,0,0,1,231.53,68.35Z"/><path class="cls-1" d="M52.44,56.85V25a5.52,5.52,0,0,0,3.82-1.8,5.3,5.3,0,0,0,1.37-4,5.55,5.55,0,0,0-1.58-3.64,5.07,5.07,0,0,0-3.54-1.55H37.65a4.64,4.64,0,0,0-2.13.5,6.3,6.3,0,0,0-1.69,1.27,5.29,5.29,0,0,0-1.12,1.76,4.85,4.85,0,0,0-.32,2.1,5.22,5.22,0,0,0,1.55,3.71A5.43,5.43,0,0,0,37.58,25v10.1H23.44V25a5.64,5.64,0,0,0,2.16-.54,4.91,4.91,0,0,0,1.7-1.26,6.08,6.08,0,0,0,1.08-1.8,5.08,5.08,0,0,0,.33-2.17,5.59,5.59,0,0,0-1.66-3.68,5,5,0,0,0-3.68-1.51H8.73A5.16,5.16,0,0,0,4.9,15.7a5.41,5.41,0,0,0-1.58,3.93,5.22,5.22,0,0,0,1.51,3.75A5.12,5.12,0,0,0,8.51,25V56.85a5.59,5.59,0,0,0-2.13.55,5.37,5.37,0,0,0-1.66,1.22,5.55,5.55,0,0,0-1.08,1.81,5.24,5.24,0,0,0-.32,2.2A5.35,5.35,0,0,0,5,66.27a5.21,5.21,0,0,0,3.72,1.48H23.44a5.77,5.77,0,0,0,2.13-.54,5.57,5.57,0,0,0,1.69-1.27,5.68,5.68,0,0,0,1.12-1.8A5,5,0,0,0,28.71,62a5.45,5.45,0,0,0-1.59-3.61,5.54,5.54,0,0,0-3.68-1.59V47.19H33.78c-.36-.59-.58-1-.58-1a1.87,1.87,0,0,1,.54-2.38c.76-.63,1.65-.33,2.53,0a8.25,8.25,0,0,0,2.28.23c.88,0,2.37-.61,3.13.29,1,1.16.2,2-.18,3.32a14.17,14.17,0,0,0-.38,1.83c.07,1.2.15,2.28-.6,2.91a1.89,1.89,0,0,1-2.32,0,5.22,5.22,0,0,1-.62-.46v4.87a5.77,5.77,0,0,0-2.13.54,6,6,0,0,0-1.69,1.23,4.78,4.78,0,0,0-1.09,1.8,5.58,5.58,0,0,0-.28,2.2A5,5,0,0,0,34,66.16a5.76,5.76,0,0,0,3.68,1.59H52.51a5.67,5.67,0,0,0,2.06-.54,5.57,5.57,0,0,0,1.69-1.27,5.24,5.24,0,0,0,1.08-1.8,5.56,5.56,0,0,0-1.29-5.7A5.49,5.49,0,0,0,52.44,56.85ZM38.94,42.34c-.59.64-2.26,1.5-3.38.5S35.11,41,36.17,40a4.19,4.19,0,0,1,2.25-1.19C40.5,38.71,39.54,41.69,38.94,42.34Zm2.4.33a2.63,2.63,0,0,1-.15-3.26C42,38,44.43,37.85,44.9,38.13a1,1,0,0,1,.71,1.28,3.52,3.52,0,0,1-1.33,2.4C43.37,42.46,42,43.38,41.34,42.67Zm1.95,9.12a1,1,0,0,1-1.38-.4A4.65,4.65,0,0,1,42,48.25a2.32,2.32,0,0,1,1.94-1.31c1.28.06,2.37,0,2.23,1.35A4.66,4.66,0,0,1,43.29,51.79ZM47,45.64a3,3,0,0,1-3.48-.48c-1.43-1.33,1.85-4.26,3.75-3.88a1.19,1.19,0,0,1,1.23,1.26S48.82,44,47,45.64Z"/></g></svg>