<svg id="Capa_1" data-name="Capa 1" xmlns="http://www.w3.org/2000/svg" viewBox="0 0 636 127"><defs><style>.cls-1{fill:#fff;}</style></defs><path class="cls-1" d="M9,108.74a4.1,4.1,0,0,0-2.41.67c-1.23.79-2,1.45-1.18,2.64s2.64.72,3.34.22S11,109.13,9,108.74Z"/><path class="cls-1" d="M15.29,109.49a1,1,0,0,1,.42,1.37,3.48,3.48,0,0,1-1.78,2c-1,.44-2.47,1-3,.21a2.56,2.56,0,0,1,.53-3.15C12.49,108.79,14.9,109.12,15.29,109.49Z"/><path class="cls-1" d="M16.93,113a1.18,1.18,0,0,1,.92,1.47s0,1.41-2.08,2.65a3,3,0,0,1-3.24-1.19C11.44,114.37,15.19,112.24,16.93,113Z"/><path class="cls-1" d="M10.9,122.23a4.55,4.55,0,0,0,3.45-2.76c.41-1.23-.64-1.43-1.85-1.75a2.27,2.27,0,0,0-2.13.85,4.59,4.59,0,0,0-.71,3A.94.94,0,0,0,10.9,122.23Z"/><path class="cls-1" d="M5.91,121.73a1.83,1.83,0,0,0,2.21.49c.86-.45,1-1.5,1.19-2.66a12.3,12.3,0,0,1,.75-1.67c.62-1.16,1.53-1.84.86-3.14-.54-1-2.1-.73-2.93-.94a8.35,8.35,0,0,1-2.15-.69c-.78-.47-1.57-.94-2.42-.5a1.81,1.81,0,0,0-1,2.17S3.87,119.73,5.91,121.73Z"/><path class="cls-1" d="M45.29,29.19a3.43,3.43,0,0,0-1.89.93c-.9.85-1.47,1.53-.57,2.37s2.31.18,2.81-.34S47,29.2,45.29,29.19Z"/><path class="cls-1" d="M50.66,28.81a.86.86,0,0,1,.56,1.08,2.92,2.92,0,0,1-1.16,1.95c-.76.52-1.88,1.24-2.44.64a2.16,2.16,0,0,1-.06-2.69A3.07,3.07,0,0,1,50.66,28.81Z"/><path class="cls-1" d="M52.57,31.47a1,1,0,0,1,1,1.07s.2,1.17-1.31,2.53a2.49,2.49,0,0,1-2.87-.48C48.23,33.46,51,31.11,52.57,31.47Z"/><path class="cls-1" d="M49,40.06a3.85,3.85,0,0,0,2.43-2.83c.14-1.08-.76-1.08-1.82-1.16a1.93,1.93,0,0,0-1.63,1,3.84,3.84,0,0,0-.11,2.59A.78.78,0,0,0,49,40.06Z"/><path class="cls-1" d="M44.8,40.43a1.55,1.55,0,0,0,1.91.06c.64-.5.59-1.4.57-2.39a9.45,9.45,0,0,1,.36-1.5c.34-1.06,1-1.76.22-2.74-.61-.77-1.86-.27-2.58-.32a6.78,6.78,0,0,1-1.88-.24c-.72-.27-1.45-.53-2.09,0a1.52,1.52,0,0,0-.5,1.95S42.8,39.09,44.8,40.43Z"/><path class="cls-1" d="M94.49,43.16a4.75,4.75,0,0,0-2.66,1.18c-1.28,1.11-2.12,2-.92,3.24s3.17.38,3.9-.31S96.86,43.26,94.49,43.16Z"/><path class="cls-1" d="M101.91,42.94a1.2,1.2,0,0,1,.72,1.52,4,4,0,0,1-1.71,2.63c-1.08.67-2.67,1.61-3.41.74a3,3,0,0,1,.08-3.72C98.57,42.61,101.41,42.59,101.91,42.94Z"/><path class="cls-1" d="M104.4,46.72a1.37,1.37,0,0,1,1.31,1.53s.21,1.63-2,3.41a3.42,3.42,0,0,1-3.92-.82C98.31,49.22,102.27,46.13,104.4,46.72Z"/><path class="cls-1" d="M99,58.37a5.3,5.3,0,0,0,3.51-3.77c.26-1.48-1-1.54-2.43-1.7a2.65,2.65,0,0,0-2.31,1.34,5.32,5.32,0,0,0-.31,3.57A1.09,1.09,0,0,0,99,58.37Z"/><path class="cls-1" d="M93.17,58.63a2.13,2.13,0,0,0,2.64.19c.91-.65.9-1.89.91-3.26a14.42,14.42,0,0,1,.59-2.05c.52-1.44,1.46-2.37.46-3.76-.79-1.1-2.54-.48-3.54-.59a9.62,9.62,0,0,1-2.59-.44c-1-.41-2-.81-2.87-.16a2.11,2.11,0,0,0-.8,2.67S90.49,56.68,93.17,58.63Z"/><path class="cls-1" d="M48.46,108a4.51,4.51,0,0,0-2.4,1.27c-1.12,1.12-1.84,2-.64,3.08s3,.15,3.6-.54S50.68,107.91,48.46,108Z"/><path class="cls-1" d="M55.36,107.29a1.11,1.11,0,0,1,.76,1.36,3.76,3.76,0,0,1-1.42,2.56c-1,.69-2.38,1.67-3.12.91a2.79,2.79,0,0,1-.17-3.47C52.22,107.19,54.86,107,55.36,107.29Z"/><path class="cls-1" d="M57.92,110.64A1.27,1.27,0,0,1,59.23,112s.3,1.51-1.6,3.3a3.2,3.2,0,0,1-3.71-.51C52.4,113.36,55.89,110.23,57.92,110.64Z"/><path class="cls-1" d="M53.64,121.83a5,5,0,0,0,3-3.73c.15-1.4-1-1.37-2.37-1.43a2.49,2.49,0,0,0-2.07,1.4,5,5,0,0,0,0,3.34A1,1,0,0,0,53.64,121.83Z"/><path class="cls-1" d="M48.23,122.45a2,2,0,0,0,2.46,0c.81-.67.72-1.82.65-3.1a13.34,13.34,0,0,1,.41-1.94c.4-1.37,1.2-2.3.18-3.53-.8-1-2.39-.29-3.32-.32a9.16,9.16,0,0,1-2.44-.24c-.94-.32-1.89-.64-2.69,0a2,2,0,0,0-.57,2.53S45.6,120.8,48.23,122.45Z"/><path class="cls-1" d="M120.7,14.57a4.8,4.8,0,0,0-2.83-1.12c-1.77-.11-3.05,0-3.08,1.85s2,2.73,3.09,2.75S122.36,16.47,120.7,14.57Z"/><path class="cls-1" d="M126.31,20.11a1.36,1.36,0,0,1-.6,1.74,4,4,0,0,1-3.2.76c-1.3-.3-3.16-.79-3.06-2a3.29,3.29,0,0,1,2.82-2.88C124.1,17.27,126.2,19.44,126.31,20.11Z"/><path class="cls-1" d="M125.33,25a1.56,1.56,0,0,1-.17,2.21s-1,1.45-4,1.18a3.68,3.68,0,0,1-2.28-3.67C119,22.28,124.2,22.89,125.33,25Z"/><path class="cls-1" d="M112.73,30a5.33,5.33,0,0,0,5.37-.26c1.3-1,.43-2-.52-3.22a2.63,2.63,0,0,0-2.69-.72A5.76,5.76,0,0,0,112,28.4,1.18,1.18,0,0,0,112.73,30Z"/><path class="cls-1" d="M108.24,25.75a2.28,2.28,0,0,0,1.8,2.18c1.15.18,2.06-.81,3.1-1.87a15.12,15.12,0,0,1,1.94-1.17c1.46-.73,2.84-.75,3.13-2.61.24-1.47-1.51-2.33-2.16-3.18a10.17,10.17,0,0,1-1.57-2.34c-.42-1.07-.84-2.16-2-2.34a2.23,2.23,0,0,0-2.56,1.49S107.73,22.14,108.24,25.75Z"/><path class="cls-1" d="M178.8,30.17a3.62,3.62,0,0,0-1.89-1.35c-1.29-.41-2.25-.59-2.62.8s1,2.4,1.78,2.6S179.68,31.88,178.8,30.17Z"/><path class="cls-1" d="M181.93,35.29a1,1,0,0,1-.76,1.18,3.09,3.09,0,0,1-2.51,0c-.9-.46-2.19-1.16-1.89-2.07a2.51,2.51,0,0,1,2.61-1.61C180.82,32.79,182,34.78,181.93,35.29Z"/><path class="cls-1" d="M180.32,38.73a1.2,1.2,0,0,1-.54,1.61s-1,.88-3.15.15a2.81,2.81,0,0,1-1-3.13C176.13,35.56,179.86,37,180.32,38.73Z"/><path class="cls-1" d="M170.06,40.15a4.08,4.08,0,0,0,4,.79c1.14-.48.67-1.38.2-2.48a2,2,0,0,0-1.86-1,4.39,4.39,0,0,0-2.59,1.38A.9.9,0,0,0,170.06,40.15Z"/><path class="cls-1" d="M167.53,36.16a1.73,1.73,0,0,0,.93,1.94c.82.35,1.67-.22,2.63-.82a12.41,12.41,0,0,1,1.66-.5c1.21-.28,2.23,0,2.8-1.37.44-1-.7-2-1-2.74a7.75,7.75,0,0,1-.74-2c-.11-.87-.23-1.75-1-2.1a1.69,1.69,0,0,0-2.17.63S167.81,33.39,167.53,36.16Z"/><path class="cls-1" d="M142.39,44.52a2.71,2.71,0,0,0-1.43-1c-1-.31-1.72-.45-2,.61s.77,1.82,1.36,2S143.06,45.83,142.39,44.52Z"/><path class="cls-1" d="M144.78,48.42a.79.79,0,0,1-.58.9,2.35,2.35,0,0,1-1.91,0c-.69-.35-1.67-.88-1.44-1.57a1.92,1.92,0,0,1,2-1.23C143.93,46.52,144.81,48,144.78,48.42Z"/><path class="cls-1" d="M143.55,51a.91.91,0,0,1-.41,1.22,2.5,2.5,0,0,1-2.4.12A2.15,2.15,0,0,1,140,50C140.36,48.63,143.2,49.7,143.55,51Z"/><path class="cls-1" d="M135.75,52.12a3.08,3.08,0,0,0,3.06.6c.86-.37.51-1,.16-1.88a1.53,1.53,0,0,0-1.42-.79,3.38,3.38,0,0,0-2,1.05A.69.69,0,0,0,135.75,52.12Z"/><path class="cls-1" d="M133.82,49.08a1.32,1.32,0,0,0,.71,1.48c.62.26,1.27-.17,2-.62a8.49,8.49,0,0,1,1.26-.39c.92-.21,1.7,0,2.13-1,.33-.8-.53-1.53-.78-2.1a6.1,6.1,0,0,1-.56-1.53c-.08-.67-.17-1.33-.79-1.6a1.3,1.3,0,0,0-1.66.48S134,47,133.82,49.08Z"/><path class="cls-1" d="M243.39,45.34a4.26,4.26,0,0,0-2.67-.59c-1.59.15-2.72.39-2.48,2.07s2.2,2.15,3.14,2S245.14,46.8,243.39,45.34Z"/><path class="cls-1" d="M249.17,49.48a1.23,1.23,0,0,1-.29,1.64,3.67,3.67,0,0,1-2.74,1.12c-1.2-.08-2.92-.25-3-1.37a3,3,0,0,1,2.1-3C246.8,47.27,249,48.9,249.17,49.48Z"/><path class="cls-1" d="M249,54a1.4,1.4,0,0,1,.16,2s-.73,1.44-3.37,1.62a3.32,3.32,0,0,1-2.54-2.95C243,52.44,247.69,52.25,249,54Z"/><path class="cls-1" d="M238.48,60.23a4.8,4.8,0,0,0,4.75-1c1-1,.1-1.81-.92-2.78a2.37,2.37,0,0,0-2.5-.27,5.24,5.24,0,0,0-2.19,2.7A1.07,1.07,0,0,0,238.48,60.23Z"/><path class="cls-1" d="M233.89,57.05a2,2,0,0,0,1.9,1.69c1.06,0,1.73-1,2.49-2.11a14.7,14.7,0,0,1,1.57-1.31c1.2-.85,2.42-1.06,2.42-2.77,0-1.34-1.67-1.86-2.37-2.52a9,9,0,0,1-1.73-1.86c-.53-.9-1.06-1.8-2.11-1.8A2,2,0,0,0,234,48.06S232.92,53.91,233.89,57.05Z"/><path class="cls-1" d="M626.46,106.44a4.21,4.21,0,0,0-2.58-.74c-1.56.06-2.68.23-2.54,1.88s2,2.23,2.94,2.15S628.08,108,626.46,106.44Z"/><path class="cls-1" d="M631.85,110.82a1.21,1.21,0,0,1-.38,1.58,3.56,3.56,0,0,1-2.74.94c-1.16-.16-2.84-.42-2.86-1.52a2.92,2.92,0,0,1,2.23-2.77C629.67,108.52,631.7,110.24,631.85,110.82Z"/><path class="cls-1" d="M631.41,115.19a1.38,1.38,0,0,1,0,2s-.8,1.36-3.38,1.37a3.23,3.23,0,0,1-2.3-3C625.63,113.35,630.24,113.44,631.41,115.19Z"/><path class="cls-1" d="M620.78,120.68a4.69,4.69,0,0,0,4.69-.69c1.06-1,.21-1.76-.73-2.77a2.32,2.32,0,0,0-2.42-.41,5.07,5.07,0,0,0-2.3,2.5A1,1,0,0,0,620.78,120.68Z"/><path class="cls-1" d="M616.49,117.3a2,2,0,0,0,1.76,1.76c1,.07,1.74-.88,2.55-1.9a14.7,14.7,0,0,1,1.61-1.19c1.21-.76,2.42-.9,2.52-2.56.08-1.3-1.52-1.91-2.16-2.6a8.86,8.86,0,0,1-1.58-1.92c-.46-.9-.92-1.82-2-1.88a2,2,0,0,0-2.12,1.52S615.73,114.19,616.49,117.3Z"/><path class="cls-1" d="M205.58,97a4,4,0,0,0-1.76-1.88c-1.31-.72-2.32-1.13-3,.3s.57,2.83,1.36,3.22S206.16,99,205.58,97Z"/><path class="cls-1" d="M207.86,103.25a1.15,1.15,0,0,1-1.09,1.11,3.38,3.38,0,0,1-2.72-.58c-.88-.7-2.13-1.74-1.6-2.66a2.79,2.79,0,0,1,3.19-1.18C207.2,100.28,208,102.7,207.86,103.25Z"/><path class="cls-1" d="M205.34,106.63a1.32,1.32,0,0,1-.93,1.63s-1.33.72-3.46-.53a3.1,3.1,0,0,1-.41-3.63C201.49,102.26,205.24,104.61,205.34,106.63Z"/><path class="cls-1" d="M193.89,105.91a4.5,4.5,0,0,0,4.2,1.75c1.34-.28,1-1.35.77-2.65a2.25,2.25,0,0,0-1.8-1.53,4.89,4.89,0,0,0-3.13.93A1,1,0,0,0,193.89,105.91Z"/><path class="cls-1" d="M192,101a1.92,1.92,0,0,0,.58,2.31c.82.56,1.87.14,3-.31a13.65,13.65,0,0,1,1.91-.18c1.37,0,2.44.45,3.34-.87.71-1-.31-2.32-.5-3.21a8.51,8.51,0,0,1-.36-2.35c.07-1,.14-2-.68-2.51a1.89,1.89,0,0,0-2.5.2S192.92,98.07,192,101Z"/><path class="cls-1" d="M253.3,108.24a4.49,4.49,0,0,0-2.6,1.22c-1.22,1.15-2,2.08-.72,3.32s3.2.36,3.89-.35S255.69,108.33,253.3,108.24Z"/><path class="cls-1" d="M260.75,108a1.3,1.3,0,0,1,.81,1.54,3.82,3.82,0,0,1-1.55,2.7c-1.05.69-2.59,1.66-3.38.79a3.12,3.12,0,0,1-.16-3.81C257.37,107.65,260.22,107.61,260.75,108Z"/><path class="cls-1" d="M263.48,111.81a1.48,1.48,0,0,1,1.41,1.55s.31,1.67-1.76,3.5a3.47,3.47,0,0,1-4-.81C257.51,114.4,261.3,111.22,263.48,111.81Z"/><path class="cls-1" d="M258.78,123.75a5.07,5.07,0,0,0,3.3-3.87c.17-1.52-1.09-1.57-2.55-1.73a2.51,2.51,0,0,0-2.25,1.38,5.51,5.51,0,0,0-.09,3.65A1.13,1.13,0,0,0,258.78,123.75Z"/><path class="cls-1" d="M252.92,124.05a2.14,2.14,0,0,0,2.67.18c.87-.67.78-1.94.71-3.34a16.8,16.8,0,0,1,.46-2.1c.45-1.47,1.33-2.43.24-3.84-.86-1.12-2.59-.48-3.59-.58a9.36,9.36,0,0,1-2.63-.43c-1-.41-2-.82-2.9-.14a2.09,2.09,0,0,0-.64,2.73S250.11,122.07,252.92,124.05Z"/><path class="cls-1" d="M323.28,109.69a3.36,3.36,0,0,0-2-.54c-1.24.07-2.12.22-2,1.52s1.63,1.73,2.36,1.66S324.58,110.88,323.28,109.69Z"/><path class="cls-1" d="M327.61,113.08a1,1,0,0,1-.28,1.25,2.82,2.82,0,0,1-2.15.79c-.92-.11-2.25-.29-2.28-1.16a2.28,2.28,0,0,1,1.72-2.22C325.85,111.29,327.48,112.62,327.61,113.08Z"/><path class="cls-1" d="M327.33,116.54a1.09,1.09,0,0,1,.05,1.55,3,3,0,0,1-2.65,1.14,2.57,2.57,0,0,1-1.87-2.36C322.73,115.17,326.37,115.18,327.33,116.54Z"/><path class="cls-1" d="M319,121.05a3.72,3.72,0,0,0,3.7-.62c.82-.78.14-1.4-.62-2.19a1.84,1.84,0,0,0-1.92-.28,4,4,0,0,0-1.78,2A.82.82,0,0,0,319,121.05Z"/><path class="cls-1" d="M315.55,118.44a1.6,1.6,0,0,0,1.42,1.37c.82,0,1.37-.73,2-1.55a11.34,11.34,0,0,1,1.25-1c.95-.63,1.9-.75,2-2.07,0-1-1.24-1.49-1.76-2a7.41,7.41,0,0,1-1.28-1.5c-.37-.71-.75-1.42-1.56-1.46a1.56,1.56,0,0,0-1.66,1.24S314.9,116,315.55,118.44Z"/><path class="cls-1" d="M217.26,25.41a2.5,2.5,0,0,0-1.31-1c-.9-.31-1.57-.45-1.85.52s.67,1.71,1.21,1.86S217.85,26.63,217.26,25.41Z"/><path class="cls-1" d="M219.38,29.07a.73.73,0,0,1-.55.81,2.18,2.18,0,0,1-1.77-.05c-.62-.35-1.52-.86-1.29-1.49a1.75,1.75,0,0,1,1.86-1.09C218.64,27.29,219.42,28.7,219.38,29.07Z"/><path class="cls-1" d="M218.19,31.46a.84.84,0,0,1-.4,1.12,2.31,2.31,0,0,1-2.22.05,2,2,0,0,1-.67-2.22C215.3,29.16,217.9,30.21,218.19,31.46Z"/><path class="cls-1" d="M211,32.29a2.88,2.88,0,0,0,2.82.62c.81-.32.5-1,.19-1.74a1.43,1.43,0,0,0-1.3-.76,3.12,3.12,0,0,0-1.84.93A.64.64,0,0,0,211,32.29Z"/><path class="cls-1" d="M209.24,29.44a1.22,1.22,0,0,0,.62,1.38c.57.26,1.18-.13,1.87-.53A8.51,8.51,0,0,1,212.9,30c.85-.17,1.57,0,2-.91.33-.73-.46-1.42-.67-1.95a5.52,5.52,0,0,1-.49-1.43c-.06-.62-.13-1.24-.7-1.5a1.21,1.21,0,0,0-1.54.41S209.48,27.5,209.24,29.44Z"/><path class="cls-1" d="M288.51,44.86a3.55,3.55,0,0,0-2.2-.66c-1.35,0-2.31.17-2.2,1.59s1.71,1.93,2.5,1.88S289.89,46.19,288.51,44.86Z"/><path class="cls-1" d="M293.1,48.67a1,1,0,0,1-.34,1.36,3.1,3.1,0,0,1-2.36.78c-1-.15-2.43-.39-2.44-1.34a2.48,2.48,0,0,1,1.94-2.35C291.25,46.68,293,48.17,293.1,48.67Z"/><path class="cls-1" d="M292.68,52.42a1.18,1.18,0,0,1,0,1.68s-.69,1.16-2.91,1.15a2.78,2.78,0,0,1-2-2.62C287.73,50.78,291.69,50.91,292.68,52.42Z"/><path class="cls-1" d="M283.5,57a4,4,0,0,0,4-.55c.91-.82.19-1.52-.6-2.39a2,2,0,0,0-2.08-.37,4.38,4.38,0,0,0-2,2.12A.9.9,0,0,0,283.5,57Z"/><path class="cls-1" d="M279.84,54.1a1.72,1.72,0,0,0,1.5,1.52c.88.07,1.51-.74,2.21-1.61a11.75,11.75,0,0,1,1.4-1c1.05-.65,2.09-.75,2.19-2.18.08-1.12-1.29-1.66-1.84-2.26A8,8,0,0,1,284,46.92c-.38-.79-.77-1.58-1.65-1.64a1.69,1.69,0,0,0-1.84,1.29S279.22,51.41,279.84,54.1Z"/><path class="cls-1" d="M409.38,23.36a5.31,5.31,0,0,0-3.26.85c-1.65,1.06-2.74,2-1.54,3.66s3.61,1.11,4.56.44S412.11,24,409.38,23.36Z"/><path class="cls-1" d="M418,24.64a1.51,1.51,0,0,1,.6,1.95c-.58,1.24-1,2.2-2.36,2.77s-3.33,1.36-4.06.18a3.63,3.63,0,0,1,.64-4.41C414.18,23.55,417.47,24.11,418,24.64Z"/><path class="cls-1" d="M420.33,29.64a1.73,1.73,0,0,1,1.29,2.09s0,2-2.77,3.65a4.07,4.07,0,0,1-4.43-1.79C412.91,31.35,418,28.5,420.33,29.64Z"/><path class="cls-1" d="M412.37,42.37A5.88,5.88,0,0,0,417,38.62c.52-1.71-.91-2-2.56-2.52a2.9,2.9,0,0,0-2.88,1.11s-1.37,2.23-.88,4.17A1.31,1.31,0,0,0,412.37,42.37Z"/><path class="cls-1" d="M405.57,41.48a2.5,2.5,0,0,0,3,.77c1.15-.59,1.32-2.07,1.55-3.69a16.73,16.73,0,0,1,1-2.31c.83-1.61,2.05-2.52,1.09-4.38-.75-1.47-2.87-1.1-4-1.43a11.57,11.57,0,0,1-2.93-1.05c-1.07-.69-2.16-1.38-3.31-.79a2.46,2.46,0,0,0-1.32,3S402.75,38.6,405.57,41.48Z"/><path class="cls-1" d="M517.33,26.25a3.31,3.31,0,0,0-1.85-1c-1.21-.23-2.1-.3-2.29,1s1.16,2.07,1.88,2.17S518.31,27.71,517.33,26.25Z"/><path class="cls-1" d="M520.7,30.58a1,1,0,0,1-.57,1.14,2.81,2.81,0,0,1-2.28.24c-.87-.33-2.11-.83-1.92-1.68a2.29,2.29,0,0,1,2.2-1.73C519.43,28.42,520.68,30.1,520.7,30.58Z"/><path class="cls-1" d="M519.58,33.86a1.08,1.08,0,0,1-.32,1.51,3,3,0,0,1-2.84.46,2.57,2.57,0,0,1-1.24-2.74C515.46,31.41,519,32.3,519.58,33.86Z"/><path class="cls-1" d="M510.43,36.19a3.7,3.7,0,0,0,3.73.3c1-.55.48-1.32-.06-2.26a1.86,1.86,0,0,0-1.8-.75A4,4,0,0,0,510.09,35,.83.83,0,0,0,510.43,36.19Z"/><path class="cls-1" d="M507.73,32.83a1.57,1.57,0,0,0,1,1.66c.78.23,1.5-.36,2.31-1a10,10,0,0,1,1.44-.63c1.07-.37,2-.26,2.4-1.52.29-1-.83-1.74-1.2-2.39a7.29,7.29,0,0,1-.88-1.75c-.19-.78-.38-1.57-1.16-1.8a1.54,1.54,0,0,0-1.9.8S507.7,30.3,507.73,32.83Z"/><path class="cls-1" d="M573.06,25.43a3.27,3.27,0,0,0-1.85-1c-1.21-.24-2.1-.31-2.29,1s1.16,2.07,1.88,2.18S574,26.9,573.06,25.43Z"/><path class="cls-1" d="M576.43,29.76a1,1,0,0,1-.57,1.15,2.85,2.85,0,0,1-2.28.23c-.86-.33-2.1-.83-1.92-1.68a2.28,2.28,0,0,1,2.2-1.72C575.16,27.6,576.42,29.29,576.43,29.76Z"/><path class="cls-1" d="M575.31,33a1.08,1.08,0,0,1-.32,1.51,3,3,0,0,1-2.84.46,2.55,2.55,0,0,1-1.24-2.74C571.2,30.6,574.72,31.49,575.31,33Z"/><path class="cls-1" d="M566.17,35.37a3.7,3.7,0,0,0,3.72.31c1-.56.48-1.32-.06-2.27a1.83,1.83,0,0,0-1.79-.74,4,4,0,0,0-2.22,1.52A.81.81,0,0,0,566.17,35.37Z"/><path class="cls-1" d="M563.46,32a1.58,1.58,0,0,0,1,1.67c.78.23,1.5-.37,2.31-1a11.53,11.53,0,0,1,1.44-.63c1.07-.37,2-.26,2.4-1.52.29-1-.83-1.74-1.2-2.38a7.44,7.44,0,0,1-.88-1.76c-.19-.78-.38-1.56-1.16-1.79a1.54,1.54,0,0,0-1.9.79S563.43,29.48,563.46,32Z"/><path class="cls-1" d="M491.83,42.84a3.24,3.24,0,0,0-1.84-1c-1.22-.24-2.11-.3-2.29,1s1.16,2.07,1.88,2.18S492.81,44.3,491.83,42.84Z"/><path class="cls-1" d="M495.2,47.16a1,1,0,0,1-.57,1.15,2.84,2.84,0,0,1-2.28.23c-.86-.32-2.1-.83-1.92-1.67a2.29,2.29,0,0,1,2.2-1.73C493.93,45,495.19,46.69,495.2,47.16Z"/><path class="cls-1" d="M494.08,50.45a1.07,1.07,0,0,1-.32,1.5,3,3,0,0,1-2.84.46,2.56,2.56,0,0,1-1.24-2.73C490,48,493.5,48.89,494.08,50.45Z"/><path class="cls-1" d="M484.94,52.78a3.73,3.73,0,0,0,3.73.3c1-.55.47-1.32-.07-2.26a1.82,1.82,0,0,0-1.79-.75,4.06,4.06,0,0,0-2.22,1.52A.83.83,0,0,0,484.94,52.78Z"/><path class="cls-1" d="M482.23,49.41a1.59,1.59,0,0,0,1,1.67c.78.23,1.5-.37,2.31-1a11.29,11.29,0,0,1,1.45-.63c1.07-.37,2-.25,2.39-1.51.3-1-.83-1.75-1.2-2.39a7.23,7.23,0,0,1-.88-1.76c-.18-.78-.38-1.56-1.16-1.79a1.54,1.54,0,0,0-1.9.79S482.2,46.88,482.23,49.41Z"/><path class="cls-1" d="M381.78,108.08a5.11,5.11,0,0,0-2.71,1.82c-1.17,1.5-1.89,2.67-.24,3.84s3.66-.14,4.31-1.06S384.47,107.77,381.78,108.08Z"/><path class="cls-1" d="M390.08,106.49a1.47,1.47,0,0,1,1.18,1.59c-.14,1.32-.22,2.33-1.28,3.29s-2.61,2.31-3.65,1.46a3.51,3.51,0,0,1-.83-4.23C386.23,106.72,389.42,106.18,390.08,106.49Z"/><path class="cls-1" d="M393.81,110.32a1.67,1.67,0,0,1,1.84,1.5s.64,1.81-1.36,4.22a3.94,3.94,0,0,1-4.62-.21C387.56,114.26,391.26,110,393.81,110.32Z"/><path class="cls-1" d="M390.59,124.52a5.71,5.71,0,0,0,3-4.91c-.07-1.74-1.48-1.57-3.15-1.5a2.82,2.82,0,0,0-2.28,1.94,6.2,6.2,0,0,0,.53,4.1A1.26,1.26,0,0,0,390.59,124.52Z"/><path class="cls-1" d="M384.08,125.87a2.43,2.43,0,0,0,3-.26c.86-.91.55-2.31.23-3.87a16.54,16.54,0,0,1,.15-2.43c.24-1.73,1.07-3-.4-4.35-1.16-1.1-3-.09-4.12,0a11.17,11.17,0,0,1-3,0c-1.21-.29-2.42-.57-3.28.33a2.38,2.38,0,0,0-.25,3.17S380.59,124.14,384.08,125.87Z"/><path class="cls-1" d="M470.26,3.17a4.06,4.06,0,0,0-2.53.39c-1.33.68-2.23,1.28-1.44,2.66s2.64,1.11,3.41.67S472.27,3.84,470.26,3.17Z"/><path class="cls-1" d="M476.68,4.79A1.15,1.15,0,0,1,477,6.31a3.39,3.39,0,0,1-2,1.91c-1.06.34-2.62.78-3.08-.16a2.77,2.77,0,0,1,.82-3.29C473.87,3.68,476.32,4.35,476.68,4.79Z"/><path class="cls-1" d="M478.06,8.75a1.3,1.3,0,0,1,.81,1.67s-.14,1.5-2.36,2.55a3.1,3.1,0,0,1-3.22-1.68C472.31,9.48,476.34,7.7,478.06,8.75Z"/><path class="cls-1" d="M471.07,17.77a4.48,4.48,0,0,0,3.78-2.48c.53-1.26-.53-1.61-1.74-2.11a2.23,2.23,0,0,0-2.27.62,4.88,4.88,0,0,0-1,3.09A1,1,0,0,0,471.07,17.77Z"/><path class="cls-1" d="M466,16.58a1.9,1.9,0,0,0,2.23.81c.91-.36,1.15-1.46,1.44-2.67a13.94,13.94,0,0,1,.92-1.68c.74-1.15,1.73-1.75,1.15-3.23-.46-1.16-2.09-1-2.92-1.38a8.51,8.51,0,0,1-2.14-1c-.76-.6-1.53-1.2-2.44-.85A1.89,1.89,0,0,0,463,8.74S464.09,14.19,466,16.58Z"/><path class="cls-1" d="M551.79,46.2a4,4,0,0,0-1.8-1.82c-1.33-.68-2.33-1.06-3,.38s.64,2.8,1.44,3.16S552.42,48.23,551.79,46.2Z"/><path class="cls-1" d="M554.22,52.37a1.14,1.14,0,0,1-1.05,1.13,3.44,3.44,0,0,1-2.72-.5c-.89-.67-2.16-1.68-1.66-2.6a2.76,2.76,0,0,1,3.14-1.26C553.48,49.43,554.37,51.81,554.22,52.37Z"/><path class="cls-1" d="M551.81,55.8a1.31,1.31,0,0,1-.88,1.64s-1.3.75-3.45-.44a3.08,3.08,0,0,1-.51-3.59C547.87,51.56,551.66,53.79,551.81,55.8Z"/><path class="cls-1" d="M540.41,55.39A4.47,4.47,0,0,0,544.63,57c1.33-.31,1-1.37.69-2.65a2.2,2.2,0,0,0-1.82-1.47,4.81,4.81,0,0,0-3.08,1A1,1,0,0,0,540.41,55.39Z"/><path class="cls-1" d="M538.41,50.58a1.9,1.9,0,0,0,.65,2.28c.82.53,1.86.08,3-.39a14.08,14.08,0,0,1,1.89-.23c1.37-.07,2.44.38,3.3-1,.68-1-.37-2.31-.58-3.18a8.3,8.3,0,0,1-.42-2.33c0-1,.08-2-.74-2.48a1.87,1.87,0,0,0-2.48.28S539.24,47.63,538.41,50.58Z"/><path class="cls-1" d="M445.36,38a4,4,0,0,0-2.39.89c-1.16.93-1.91,1.69-.87,2.87s2.8.55,3.46,0S447.46,38.28,445.36,38Z"/><path class="cls-1" d="M451.94,38.32a1.15,1.15,0,0,1,.61,1.42A3.44,3.44,0,0,1,451,42c-1,.54-2.41,1.28-3,.45a2.74,2.74,0,0,1,.14-3.36C449,37.8,451.5,38,451.94,38.32Z"/><path class="cls-1" d="M454.08,41.91a1.3,1.3,0,0,1,1.13,1.47s.16,1.49-1.8,3a3.09,3.09,0,0,1-3.47-1C448.63,43.77,452.2,41.23,454.08,41.91Z"/><path class="cls-1" d="M449.07,52.1a4.46,4.46,0,0,0,3.19-3.18c.26-1.33-.84-1.46-2.12-1.7a2.2,2.2,0,0,0-2.08,1.06,4.83,4.83,0,0,0-.34,3.21A1,1,0,0,0,449.07,52.1Z"/><path class="cls-1" d="M443.89,52a1.89,1.89,0,0,0,2.33.35c.82-.53.84-1.66.88-2.9a14.13,14.13,0,0,1,.55-1.81c.5-1.27,1.35-2.06.48-3.38-.67-1-2.24-.6-3.12-.77a8.66,8.66,0,0,1-2.29-.56c-.86-.44-1.73-.87-2.55-.34a1.86,1.86,0,0,0-.76,2.36S441.55,50,443.89,52Z"/><path class="cls-1" d="M586.62,114.18a3.87,3.87,0,0,0-2.26-.93c-1.42-.1-2.45,0-2.49,1.46s1.62,2.22,2.46,2.24S587.94,115.72,586.62,114.18Z"/><path class="cls-1" d="M591.08,118.68a1.11,1.11,0,0,1-.5,1.4,3.31,3.31,0,0,1-2.58.58c-1-.26-2.53-.67-2.44-1.67a2.65,2.65,0,0,1,2.29-2.28C589.33,116.38,591,118.14,591.08,118.68Z"/><path class="cls-1" d="M590.25,122.6a1.24,1.24,0,0,1-.17,1.77s-.85,1.16-3.19.92a3,3,0,0,1-1.8-3C585.19,120.36,589.36,120.9,590.25,122.6Z"/><path class="cls-1" d="M580.07,126.53a4.27,4.27,0,0,0,4.32-.17c1.05-.77.36-1.58-.39-2.58a2.1,2.1,0,0,0-2.15-.61,4.59,4.59,0,0,0-2.33,2A1,1,0,0,0,580.07,126.53Z"/><path class="cls-1" d="M576.51,123a1.83,1.83,0,0,0,1.42,1.77c.93.16,1.67-.63,2.51-1.47a12,12,0,0,1,1.57-.92c1.18-.57,2.29-.58,2.54-2.07.2-1.18-1.19-1.89-1.7-2.58a8.07,8.07,0,0,1-1.25-1.89c-.32-.87-.65-1.74-1.58-1.9a1.8,1.8,0,0,0-2.07,1.17S576.13,120.14,576.51,123Z"/><path class="cls-1" d="M595.67,51.25a3.94,3.94,0,0,0-1.36-2.12c-1.14-.92-2-1.49-3-.24s0,2.82.74,3.34S595.87,53.33,595.67,51.25Z"/><path class="cls-1" d="M596.76,57.68a1.12,1.12,0,0,1-1.24.88,3.35,3.35,0,0,1-2.52-1c-.72-.83-1.74-2.06-1.07-2.84a2.73,2.73,0,0,1,3.28-.58C596.65,54.71,597,57.18,596.76,57.68Z"/><path class="cls-1" d="M593.75,60.5a1.3,1.3,0,0,1-1.19,1.4s-1.41.46-3.24-1.12a3.06,3.06,0,0,1,.24-3.57C590.81,55.61,594,58.53,593.75,60.5Z"/><path class="cls-1" d="M582.85,57.79a4.4,4.4,0,0,0,3.73,2.42c1.34,0,1.24-1.12,1.21-2.41A2.18,2.18,0,0,0,586.33,56a4.8,4.8,0,0,0-3.18.34A1,1,0,0,0,582.85,57.79Z"/><path class="cls-1" d="M581.9,52.75a1.87,1.87,0,0,0,.16,2.33c.68.68,1.77.46,3,.24a14,14,0,0,1,1.87.15c1.33.22,2.27.87,3.37-.24.86-.87.11-2.29.08-3.18a8.23,8.23,0,0,1,.07-2.33c.24-.92.48-1.85-.21-2.53a1.83,1.83,0,0,0-2.44-.24S583.3,50.08,581.9,52.75Z"/><path class="cls-1" d="M315.91,91.58c-.72-.4-1.08-.88-1.08-1.43V65a4.06,4.06,0,0,0-1.27-3,4.2,4.2,0,0,0-3.07-1.25h-5.31a3.86,3.86,0,0,0-2.73,1.07,3.7,3.7,0,0,0-1.13,2.82,3.56,3.56,0,0,0,.85,2.35,3.61,3.61,0,0,0,2.4,1.23v5l-.91-.77a6.67,6.67,0,0,0-1.16-.77,7.08,7.08,0,0,0-1.62-.58,9.6,9.6,0,0,0-2.3-.23,11.85,11.85,0,0,0-5,1,10.74,10.74,0,0,0-3.79,2.89,13.52,13.52,0,0,0-2.45,4.52,19,19,0,0,0-.87,5.93,20.37,20.37,0,0,0,.8,5.94,13.43,13.43,0,0,0,2.29,4.55,10.24,10.24,0,0,0,3.61,2.91,10.65,10.65,0,0,0,4.69,1,9.06,9.06,0,0,0,3.15-.49,8.39,8.39,0,0,0,2.19-1.18,6.47,6.47,0,0,0,1.44-1.48,7.19,7.19,0,0,0,.8-1.46v1.44a2.19,2.19,0,0,0,.18.84,2.36,2.36,0,0,0,.6.82,3.29,3.29,0,0,0,1.08.64,4.7,4.7,0,0,0,1.65.25h4.69a4,4,0,0,0,2.81-1.28A3.94,3.94,0,0,0,317.56,95,4,4,0,0,0,315.91,91.58ZM299.28,80.35a3.08,3.08,0,0,1,3.07-1,.87.87,0,0,1,.59,1.06,2.94,2.94,0,0,1-1.11,2c-.74.53-1.85,1.29-2.42.7A2.17,2.17,0,0,1,299.28,80.35Zm-4.14.45a3.43,3.43,0,0,1,1.86-1c1.72,0,.92,2.41.43,3s-1.87,1.23-2.79.41S294.27,81.66,295.14,80.8Zm3.58,10.25a1.56,1.56,0,0,1-1.92,0c-2-1.29-4.11-5.09-4.11-5.09a1.53,1.53,0,0,1,.45-2c.62-.51,1.35-.27,2.08,0a6.92,6.92,0,0,0,1.89.19c.72,0,1.95-.5,2.58.25.79,1,.16,1.67-.15,2.74a11,11,0,0,0-.32,1.5C299.27,89.64,299.34,90.54,298.72,91.05Zm2.28-.48a.78.78,0,0,1-1.13-.33,3.82,3.82,0,0,1,0-2.59,1.93,1.93,0,0,1,1.61-1.08c1.05.05,2,0,1.84,1.11A3.84,3.84,0,0,1,301,90.57Zm3.1-5.07a2.48,2.48,0,0,1-2.87-.4c-1.18-1.1,1.53-3.52,3.1-3.2a1,1,0,0,1,1,1S305.58,84.11,304.1,85.5Z"/><path class="cls-1" d="M318.57,84.57a15.72,15.72,0,0,1,.89-5.24A13.56,13.56,0,0,1,322,74.87a12.13,12.13,0,0,1,4.11-3.1,12.76,12.76,0,0,1,5.57-1.16,13.05,13.05,0,0,1,4.64.78,10.75,10.75,0,0,1,3.58,2.19A14.54,14.54,0,0,1,342.55,77a9.72,9.72,0,0,1,1.18,4.74,4.47,4.47,0,0,1-4.54,4.53H328.71v.31a4.75,4.75,0,0,0,2,3.1,5.55,5.55,0,0,0,2.78.78,8,8,0,0,0,1.59-.15,10.8,10.8,0,0,0,1.36-.38c.42-.15.79-.29,1.13-.4a2.89,2.89,0,0,1,1-.18,3.83,3.83,0,0,1,1.56.33,5.06,5.06,0,0,1,1.36.86,3.74,3.74,0,0,1,1,1.31,4.1,4.1,0,0,1,.35,1.74,3.79,3.79,0,0,1-.78,2.34,6,6,0,0,1-2.12,1.71,11.8,11.8,0,0,1-3.17,1,21.85,21.85,0,0,1-4,.35,14.51,14.51,0,0,1-6.28-1.26A13.13,13.13,0,0,1,322,94.45a13,13,0,0,1-2.57-4.61A17,17,0,0,1,318.57,84.57ZM333.7,82a16.67,16.67,0,0,0-.08-1.69,5.48,5.48,0,0,0-.3-1.34,2.44,2.44,0,0,0-.65-1,1.93,1.93,0,0,0-1.29-.38,1.87,1.87,0,0,0-1.79,1.34,12.75,12.75,0,0,0-.68,3Z"/><path class="cls-1" d="M487.73,80.14a14.24,14.24,0,0,0-3.32-4.67,14.62,14.62,0,0,0-5-3,17.65,17.65,0,0,0-12.16,0,14.78,14.78,0,0,0-4.93,3A14.24,14.24,0,0,0,459,80.14a14.87,14.87,0,0,0-1.21,6.06,14.67,14.67,0,0,0,1.21,6,13.56,13.56,0,0,0,3.35,4.6,14.76,14.76,0,0,0,5,2.92,18.54,18.54,0,0,0,12.13,0,14.43,14.43,0,0,0,4.93-2.92,13.75,13.75,0,0,0,3.32-4.6,14.51,14.51,0,0,0,1.21-6A14.71,14.71,0,0,0,487.73,80.14Zm-14.24,1.57a3.08,3.08,0,0,1,3.07-1,.87.87,0,0,1,.59,1.06,2.94,2.94,0,0,1-1.11,2c-.75.54-1.85,1.29-2.42.7A2.17,2.17,0,0,1,473.49,81.71Zm-4.14.45a3.43,3.43,0,0,1,1.86-1c1.72,0,.92,2.41.43,2.95s-1.87,1.23-2.79.41S468.48,83,469.35,82.16Zm3.58,10.26a1.57,1.57,0,0,1-1.92,0c-2-1.29-4.11-5.09-4.11-5.09a1.54,1.54,0,0,1,.44-2c.63-.51,1.36-.27,2.09,0a6.92,6.92,0,0,0,1.89.19c.72,0,1.95-.5,2.58.25.79,1,.16,1.68-.15,2.74a10.93,10.93,0,0,0-.32,1.51C473.48,91,473.55,91.9,472.93,92.42Zm2.28-.49a.78.78,0,0,1-1.13-.33,3.83,3.83,0,0,1,0-2.59,1.93,1.93,0,0,1,1.61-1.08c1,0,1.95,0,1.83,1.12A3.81,3.81,0,0,1,475.21,91.93Zm3.1-5.07a2.48,2.48,0,0,1-2.87-.4c-1.18-1.1,1.53-3.52,3.1-3.19a1,1,0,0,1,1,1S479.79,85.47,478.31,86.86Z"/><path class="cls-1" d="M359,74.2A29.68,29.68,0,0,1,361,63a26.87,26.87,0,0,1,5.59-8.72,26.25,26.25,0,0,1,8.26-5.74,25,25,0,0,1,10.21-2.09,34.39,34.39,0,0,1,3.61.22c1.39.14,2.86.37,4.4.68a33.27,33.27,0,0,1,4.54,1.26,18.83,18.83,0,0,1,4,1.95,10.58,10.58,0,0,1,2.92,2.81,8.32,8.32,0,0,1,1.16,4.77c0,3.27-.73,5.45-2.2,6.56a7.59,7.59,0,0,1-4.65,1.66,7,7,0,0,1-3.68-1,6.77,6.77,0,0,1-2.67-3A4.27,4.27,0,0,0,390.32,60a11.16,11.16,0,0,0-2.34-.47c-.79-.07-1.53-.11-2.2-.11a10.81,10.81,0,0,0-8.33,3.39q-3.13,3.39-3.14,10.46a24.19,24.19,0,0,0,.9,7,13.63,13.63,0,0,0,2.56,5,10.76,10.76,0,0,0,3.93,2.92,12.45,12.45,0,0,0,4.95,1,17.69,17.69,0,0,0,3.46-.36,3.62,3.62,0,0,0,2.52-1.51,6.38,6.38,0,0,1,2.45-3.76,7.06,7.06,0,0,1,4.26-1.37,6.74,6.74,0,0,1,2.74.58,7.39,7.39,0,0,1,2.24,1.52,6.87,6.87,0,0,1,1.48,2.2,6.62,6.62,0,0,1,.54,2.63,9.94,9.94,0,0,1-3.25,7.79q-5.7,5.27-15.51,5.26h-1a8.63,8.63,0,0,1-1.12-.07,25.75,25.75,0,0,1-18.9-8A26.9,26.9,0,0,1,361,85.2,29.47,29.47,0,0,1,359,74.2Z"/><path class="cls-1" d="M408.8,87.65a14.53,14.53,0,0,1,1.13-5.85,13.68,13.68,0,0,1,7.71-7.44,16.2,16.2,0,0,1,11.37,0,13.61,13.61,0,0,1,7.74,7.44,14.54,14.54,0,0,1,1.14,5.85,14.32,14.32,0,0,1-1.14,5.82,13.25,13.25,0,0,1-3.1,4.44,13.79,13.79,0,0,1-4.61,2.82,16.92,16.92,0,0,1-11.35,0,14,14,0,0,1-4.63-2.82,13.19,13.19,0,0,1-3.13-4.44A14.32,14.32,0,0,1,408.8,87.65Zm10.18,0a5.7,5.7,0,0,0,1.31,4.08,4.12,4.12,0,0,0,3.08,1.36,4.06,4.06,0,0,0,3.05-1.36,5.78,5.78,0,0,0,1.28-4.08,6.18,6.18,0,0,0-1.28-4.16A3.93,3.93,0,0,0,423.37,82a4,4,0,0,0-3.08,1.49A6.08,6.08,0,0,0,419,87.65Z"/><path class="cls-1" d="M441,70.76a3.47,3.47,0,0,1-3.07-3.23,3.75,3.75,0,0,1,3.27-4.13h5.65A4.2,4.2,0,0,1,451,67.63V89.56a13.42,13.42,0,0,0,.13,2.09,1.89,1.89,0,0,0,.58,1.14,4.67,4.67,0,0,1,1.92,1.74,4.33,4.33,0,0,1,.65,2.49,4.85,4.85,0,0,1-.43,1.79,4,4,0,0,1-1,1.41,5.45,5.45,0,0,1-1.49.94,4.1,4.1,0,0,1-1.79.3,14.21,14.21,0,0,1-3.2-.66,6.7,6.7,0,0,1-2.75-1.74,8.86,8.86,0,0,1-1.94-3.37,17.56,17.56,0,0,1-.73-5.57Z"/><path class="cls-1" d="M505.14,92.23a3.7,3.7,0,0,1,2,1.21,4,4,0,0,1,.91,2.12,3.86,3.86,0,0,1-3.43,4.19h-8.72a3.86,3.86,0,0,1-2.22-.79,3.38,3.38,0,0,1-1.26-2,3.54,3.54,0,0,1,.3-2.85A3.8,3.8,0,0,1,495,92.33v-11a1.41,1.41,0,0,0-.4-1.11,3.8,3.8,0,0,1-2-1.48,3.91,3.91,0,0,1-.7-2.45,3.85,3.85,0,0,1,1.28-2.7,3.75,3.75,0,0,1,2.85-1H501a4.19,4.19,0,0,1,2.75.78,2.84,2.84,0,0,1,.93,2.3v1.21c.27-.41.57-.83.91-1.26a8.48,8.48,0,0,1,1.11-1.21A13.62,13.62,0,0,1,509,72.77a6.41,6.41,0,0,1,3.15-.8,6.71,6.71,0,0,1,3.46,1,7.42,7.42,0,0,1,2.85,3.66,9,9,0,0,1,3.1-3.31A8.44,8.44,0,0,1,526.36,72a8.7,8.7,0,0,1,2.85.48,6.36,6.36,0,0,1,2.49,1.61,8.11,8.11,0,0,1,1.79,3,14.49,14.49,0,0,1,.68,4.84V92.33a3.75,3.75,0,0,1,1.79,1,3.3,3.3,0,0,1,.94,1.82,3.46,3.46,0,0,1-.36,2.87,3.69,3.69,0,0,1-2.37,1.77h-5.84a4.23,4.23,0,0,1-4.19-4.24V83.81a3.79,3.79,0,0,0-.3-1.66,1.27,1.27,0,0,0-1.26-.6,2.07,2.07,0,0,0-1.54.58,3.62,3.62,0,0,0-.88,1.51,9.48,9.48,0,0,0-.4,2.24c-.07.88-.1,1.8-.1,2.77v3.58a3.86,3.86,0,0,1-.31,7.52h-5.54a4.23,4.23,0,0,1-4.24-4.24V83.81a3.49,3.49,0,0,0-.33-1.66,1.31,1.31,0,0,0-1.28-.6,1.92,1.92,0,0,0-1.61.68,4.45,4.45,0,0,0-.84,1.79,12.36,12.36,0,0,0-.32,2.52c0,.94-.05,1.86-.05,2.77Z"/><path class="cls-1" d="M551.11,98.84a9.87,9.87,0,0,1-1.56-1.51,4.82,4.82,0,0,1-4.43,2.47,4.6,4.6,0,0,1-1.87-.38,5.62,5.62,0,0,1-1.54-1,4.64,4.64,0,0,1-1.08-1.54,5.41,5.41,0,0,1-.46-1.91V69.34a3.37,3.37,0,0,1-2.24-1.21,3.54,3.54,0,0,1-.83-2.31,3.8,3.8,0,0,1,1.06-2.7A3.42,3.42,0,0,1,540.78,62H546a4.13,4.13,0,0,1,4.19,4.19v8.37a13.79,13.79,0,0,1,2.44-1.74,7.65,7.65,0,0,1,3.86-.83,10.43,10.43,0,0,1,8.29,4,14.13,14.13,0,0,1,2.32,4.49,18.51,18.51,0,0,1,.83,5.72,17.75,17.75,0,0,1-.9,5.83,13.89,13.89,0,0,1-2.5,4.46,10.8,10.8,0,0,1-8.44,3.88,8.3,8.3,0,0,1-3-.48A9,9,0,0,1,551.11,98.84ZM550,86.44a8.38,8.38,0,0,0,.23,1.91,5.41,5.41,0,0,0,.73,1.72,4.4,4.4,0,0,0,1.24,1.23,3.09,3.09,0,0,0,1.74.48,3.42,3.42,0,0,0,2.69-1.34,6,6,0,0,0,1.14-4,7.46,7.46,0,0,0-1-4.14,3.25,3.25,0,0,0-2.85-1.56,3.5,3.5,0,0,0-2.7,1.36A6.52,6.52,0,0,0,550,86.44Z"/><path class="cls-1" d="M578.79,72.62a4.23,4.23,0,0,1,4.29,4.29V92.28a4.85,4.85,0,0,1,2,1.14,3.19,3.19,0,0,1,.88,1.94,3.69,3.69,0,0,1-.63,2.82,3.77,3.77,0,0,1-2.44,1.57h-9.63a4.15,4.15,0,0,1-1.89-1,3.36,3.36,0,0,1-1-1.82,3.52,3.52,0,0,1,.33-2.87,3.86,3.86,0,0,1,2.29-1.82V80A3.68,3.68,0,0,1,571,79a4,4,0,0,1-1-2,3.13,3.13,0,0,1,0-1.49,4.12,4.12,0,0,1,.63-1.34,4.08,4.08,0,0,1,1-1,3.8,3.8,0,0,1,1.36-.56Zm-2.72-3.07a3.79,3.79,0,0,1,0-7.57h2.17a3.79,3.79,0,0,1,0,7.57Z"/><path class="cls-1" d="M587.67,92.33a7,7,0,0,1,1.46-4.63A9.46,9.46,0,0,1,592.66,85a15.18,15.18,0,0,1,4.26-1.18,30.88,30.88,0,0,1,3.6-.28h1.41V82.05a1.57,1.57,0,0,0-.83-1.51,3.7,3.7,0,0,0-1.84-.46,4.87,4.87,0,0,0-1.34.18c-.42.12-.84.25-1.26.4a10.49,10.49,0,0,1-1.31.38,6.34,6.34,0,0,1-1.38.15A3.87,3.87,0,0,1,591.19,80,3.77,3.77,0,0,1,590,77.21a3.47,3.47,0,0,1,.84-2.34,6.24,6.24,0,0,1,2.26-1.64,12.8,12.8,0,0,1,3.36-1,26,26,0,0,1,4-.3c3.73,0,6.6,1,8.6,2.9s3,4.74,3,8.44v7.61a1.73,1.73,0,0,0,.35,1.26,4.72,4.72,0,0,1,1.74,1.41,3.4,3.4,0,0,1,.68,2.07,4.05,4.05,0,0,1-1.13,2.93,3.78,3.78,0,0,1-2.8,1.16h-4.54a3.81,3.81,0,0,1-1.54-.31,3.26,3.26,0,0,1-1.11-.78,2.93,2.93,0,0,1-.6-1,2.49,2.49,0,0,1-.13-1l0-.76h-.2a6.06,6.06,0,0,1-.76,1.36,6.56,6.56,0,0,1-1.36,1.39,7.93,7.93,0,0,1-2.06,1.14,8.29,8.29,0,0,1-2.88.45,8.68,8.68,0,0,1-3.12-.56A7.35,7.35,0,0,1,590.08,98a8.2,8.2,0,0,1-1.76-2.49A7.61,7.61,0,0,1,587.67,92.33Zm9.73-1a2.29,2.29,0,0,0,.5,1.58,1.55,1.55,0,0,0,1.21.58,2.76,2.76,0,0,0,2-1.06,4.32,4.32,0,0,0,1-3.07V88h-.55a5.45,5.45,0,0,0-1.94.3,4,4,0,0,0-1.29.76,2.49,2.49,0,0,0-.7,1A3.46,3.46,0,0,0,597.4,91.28Z"/><path class="cls-1" d="M107.47,80.08a3.85,3.85,0,0,1-2.37-1.51,3.43,3.43,0,0,1-.65-2.72,3.23,3.23,0,0,1,.5-1.39,4.25,4.25,0,0,1,1-1.06,3.51,3.51,0,0,1,1.28-.6,6.26,6.26,0,0,1,1.49-.18h4.64a4.05,4.05,0,0,1,3,1.24,4.15,4.15,0,0,1,1.23,3v14a1.4,1.4,0,0,0,1.16,1.41,4.44,4.44,0,0,1,1.64,1.77,3.35,3.35,0,0,1,.33,2.32,3.4,3.4,0,0,1-1.41,2.52,5.21,5.21,0,0,1-3.08.86h-4.58c-2.46,0-3.69-1-3.69-3.13V95.16a6.76,6.76,0,0,1-1.56,2.62A8.31,8.31,0,0,1,104,99.54a8.42,8.42,0,0,1-4,.81,10.16,10.16,0,0,1-3.08-.48,7,7,0,0,1-2.69-1.61,8.23,8.23,0,0,1-1.92-3.05,13.52,13.52,0,0,1-.73-4.79V80a3.61,3.61,0,0,1-2.17-1.26,3.54,3.54,0,0,1-.85-2.37,3.69,3.69,0,0,1,1.08-2.67,3.55,3.55,0,0,1,2.65-1.11h5.24a3.91,3.91,0,0,1,2.92,1.24,4.1,4.1,0,0,1,1.21,3V88.4a3.71,3.71,0,0,0,.46,2.17,1.65,1.65,0,0,0,1.41.6,2.76,2.76,0,0,0,1.74-.57,4.68,4.68,0,0,0,1.23-1.52,7.15,7.15,0,0,0,.73-2.22,14.25,14.25,0,0,0,.23-2.64Z"/><path class="cls-1" d="M122,85.93a15.71,15.71,0,0,1,.88-5.24,13.76,13.76,0,0,1,2.55-4.46,12.13,12.13,0,0,1,4.11-3.1A12.73,12.73,0,0,1,135.15,72a13.09,13.09,0,0,1,4.64.78,10.75,10.75,0,0,1,3.58,2.19A14.24,14.24,0,0,1,146,78.32a9.72,9.72,0,0,1,1.19,4.74,4.49,4.49,0,0,1-4.54,4.54H132.17v.3a4.76,4.76,0,0,0,2,3.1,5.52,5.52,0,0,0,2.77.78,8,8,0,0,0,1.59-.15,9.93,9.93,0,0,0,1.36-.38l1.14-.4a2.8,2.8,0,0,1,1-.18,3.9,3.9,0,0,1,1.56.33,5.06,5.06,0,0,1,1.36.86,3.87,3.87,0,0,1,1,1.31,4.26,4.26,0,0,1,.35,1.74,3.79,3.79,0,0,1-.78,2.34A6,6,0,0,1,143.29,99a11.87,11.87,0,0,1-3.18,1,21.66,21.66,0,0,1-4,.35,14.48,14.48,0,0,1-6.28-1.26,12.89,12.89,0,0,1-7-7.89A17.32,17.32,0,0,1,122,85.93Zm15.13-2.62a16.67,16.67,0,0,0-.08-1.69,5.3,5.3,0,0,0-.3-1.33,2.34,2.34,0,0,0-.66-1,2,2,0,0,0-3.07,1,12.75,12.75,0,0,0-.68,3Z"/><path class="cls-1" d="M150.73,69.4a3.53,3.53,0,0,1-2.17-1.11,3.57,3.57,0,0,1-.91-2.12,3.66,3.66,0,0,1,.81-2.75A3.72,3.72,0,0,1,150.93,62h5.65a4.23,4.23,0,0,1,4.23,4.24V88.2a12.28,12.28,0,0,0,.13,2.09,1.84,1.84,0,0,0,.58,1.14,4.65,4.65,0,0,1,1.91,1.74,4.32,4.32,0,0,1,.66,2.49,5.06,5.06,0,0,1-.43,1.79,4,4,0,0,1-1,1.41,5.4,5.4,0,0,1-1.48.94,4.12,4.12,0,0,1-1.79.3,14.1,14.1,0,0,1-3.2-.66,6.63,6.63,0,0,1-2.75-1.74,8.68,8.68,0,0,1-1.94-3.37,17.59,17.59,0,0,1-.73-5.58Z"/><path class="cls-1" d="M167.36,69.4a3.5,3.5,0,0,1-2.16-1.11,3.57,3.57,0,0,1-.91-2.12,3.66,3.66,0,0,1,.81-2.75A3.7,3.7,0,0,1,167.57,62h5.64a4.23,4.23,0,0,1,4.24,4.24V88.2a13.67,13.67,0,0,0,.12,2.09,2,2,0,0,0,.58,1.14,4.61,4.61,0,0,1,1.92,1.74,4.23,4.23,0,0,1,.65,2.49,4.84,4.84,0,0,1-.42,1.79,4.11,4.11,0,0,1-1,1.41,5.45,5.45,0,0,1-1.49.94,4.1,4.1,0,0,1-1.79.3,14.33,14.33,0,0,1-3.2-.66A6.6,6.6,0,0,1,170,97.7a8.82,8.82,0,0,1-1.95-3.37,17.88,17.88,0,0,1-.73-5.58Z"/><path class="cls-1" d="M191.92,72.62a4.22,4.22,0,0,1,4.28,4.29V92.28a4.79,4.79,0,0,1,2,1.14,3.25,3.25,0,0,1,.89,1.94A3.81,3.81,0,0,1,196,99.75h-9.63a4.15,4.15,0,0,1-1.89-1,3.35,3.35,0,0,1-1-1.82,3.48,3.48,0,0,1,.32-2.87,3.85,3.85,0,0,1,2.3-1.82V80A3.64,3.64,0,0,1,184.13,79a4,4,0,0,1-1-2,3.26,3.26,0,0,1,0-1.49,4.58,4.58,0,0,1,.63-1.34,4,4,0,0,1,1-1,3.66,3.66,0,0,1,1.36-.56Zm-2.73-3.07a3.79,3.79,0,0,1,0-7.57h2.17a3.79,3.79,0,0,1,0,7.57Z"/><path class="cls-1" d="M203.61,80.08a3.81,3.81,0,0,1-2.27-1.16,3.66,3.66,0,0,1-1-2.37,3.14,3.14,0,0,1,.22-1.43,4.94,4.94,0,0,1,.73-1.24,3,3,0,0,1,1.14-.85,4.3,4.3,0,0,1,1.54-.36,21.23,21.23,0,0,1-.05-3.33,4.87,4.87,0,0,1,.55-1.81A5.18,5.18,0,0,1,205.65,66a4.82,4.82,0,0,1,1.67-.93,4.68,4.68,0,0,1,1.94-.2,5.08,5.08,0,0,1,1.86.55,4.88,4.88,0,0,1,1.47,1.19,5,5,0,0,1,.9,1.66,16.79,16.79,0,0,1,.21,4.36,6.21,6.21,0,0,1,2,0,3.74,3.74,0,0,1,2.42,1.59,3.48,3.48,0,0,1,.61,2.8,3.73,3.73,0,0,1-.56,1.36,4,4,0,0,1-1,1,3.78,3.78,0,0,1-1.28.6,3.13,3.13,0,0,1-1.49,0h-.7v8.47a2.79,2.79,0,0,0,.4,1.57,1.91,1.91,0,0,0,1.16.8,4.39,4.39,0,0,1,1.69.66,4.49,4.49,0,0,1,1.28,1.21,4.41,4.41,0,0,1,.71,1.59,5.36,5.36,0,0,1,.1,1.79,4.14,4.14,0,0,1-.66,1.66,5.12,5.12,0,0,1-1.21,1.29,4.52,4.52,0,0,1-1.58.75,6.2,6.2,0,0,1-2.2.08,15.15,15.15,0,0,1-3.07-.76,11.21,11.21,0,0,1-3.25-1.74,8.83,8.83,0,0,1-2.47-3,9.69,9.69,0,0,1-1-4.62Z"/><path class="cls-1" d="M220.75,92.33a7,7,0,0,1,1.47-4.63A9.46,9.46,0,0,1,225.75,85,15.18,15.18,0,0,1,230,83.84a30.88,30.88,0,0,1,3.6-.28H235V82.05a1.57,1.57,0,0,0-.83-1.51,3.7,3.7,0,0,0-1.84-.46,4.87,4.87,0,0,0-1.34.18c-.42.12-.84.25-1.26.4a10.49,10.49,0,0,1-1.31.38,6.34,6.34,0,0,1-1.38.15A3.87,3.87,0,0,1,224.28,80a3.77,3.77,0,0,1-1.21-2.82,3.47,3.47,0,0,1,.84-2.34,6.24,6.24,0,0,1,2.26-1.64,12.8,12.8,0,0,1,3.36-1,26,26,0,0,1,4-.3c3.73,0,6.6,1,8.6,2.9s3,4.74,3,8.44v7.61a1.73,1.73,0,0,0,.35,1.26,4.8,4.8,0,0,1,1.74,1.41,3.4,3.4,0,0,1,.68,2.07,4,4,0,0,1-1.14,2.93A3.74,3.74,0,0,1,244,99.75h-4.54a3.81,3.81,0,0,1-1.54-.31,3.26,3.26,0,0,1-1.11-.78,2.78,2.78,0,0,1-.6-1,2.49,2.49,0,0,1-.13-1l0-.76h-.2a6.06,6.06,0,0,1-.76,1.36,6.56,6.56,0,0,1-1.36,1.39,7.93,7.93,0,0,1-2.06,1.14,8.29,8.29,0,0,1-2.88.45,8.68,8.68,0,0,1-3.12-.56A7.35,7.35,0,0,1,223.17,98a8,8,0,0,1-1.76-2.49A7.61,7.61,0,0,1,220.75,92.33Zm9.73-1a2.29,2.29,0,0,0,.51,1.58,1.53,1.53,0,0,0,1.21.58,2.76,2.76,0,0,0,2-1.06,4.32,4.32,0,0,0,1-3.07V88h-.55a5.45,5.45,0,0,0-1.94.3,4,4,0,0,0-1.29.76,2.49,2.49,0,0,0-.7,1A3.47,3.47,0,0,0,230.48,91.28Z"/><path class="cls-1" d="M260.53,100.35a20.42,20.42,0,0,1-3.15-.25,16.94,16.94,0,0,1-3.17-.81,12,12,0,0,1-2.75-1.38,5.78,5.78,0,0,1-1.82-2,5.37,5.37,0,0,1-.4-1.73,4.4,4.4,0,0,1,1.08-3.16A5.66,5.66,0,0,1,251.71,90a4.72,4.72,0,0,1,1.71-.45,4.81,4.81,0,0,1,1.69.2,4.53,4.53,0,0,1,1.54.83A4.69,4.69,0,0,1,257.81,92a1.17,1.17,0,0,0,.73.51,5.46,5.46,0,0,0,1.44.15,2.86,2.86,0,0,0,1.86-.43,1.42,1.42,0,0,0,.46-1.09,1.24,1.24,0,0,0-.61-1.16,10.8,10.8,0,0,0-1.81-.75l-1.82-.66a25.91,25.91,0,0,1-2.95-1.18,11.73,11.73,0,0,1-2.59-1.67,7.47,7.47,0,0,1-1.87-2.34,6.93,6.93,0,0,1-.7-3.23,6.71,6.71,0,0,1,1.1-4,8.37,8.37,0,0,1,2.8-2.49,12.41,12.41,0,0,1,3.66-1.32,19.87,19.87,0,0,1,3.73-.37,19.12,19.12,0,0,1,3.1.27,15.67,15.67,0,0,1,3.05.84,8.37,8.37,0,0,1,2.47,1.48,4.92,4.92,0,0,1,1.46,2.25,4.51,4.51,0,0,1-2,4.58,3.79,3.79,0,0,1-1.68.76,5.08,5.08,0,0,1-1.74,0,4.92,4.92,0,0,1-1.64-.6,5,5,0,0,1-1.39-1.26,1,1,0,0,0-.48-.41,2,2,0,0,0-.83-.15,1.78,1.78,0,0,0-1.34.38,1.48,1.48,0,0,0-.32,1,1.57,1.57,0,0,0,.3,1,2.37,2.37,0,0,0,.81.68,5.57,5.57,0,0,0,1.13.48l1.19.35.35,0a28.76,28.76,0,0,1,3,1,10.93,10.93,0,0,1,2.75,1.51,7.87,7.87,0,0,1,2,2.29,6.31,6.31,0,0,1,.81,3.28,7.28,7.28,0,0,1-1,3.91,8.46,8.46,0,0,1-2.73,2.69,12.51,12.51,0,0,1-3.78,1.57A18.38,18.38,0,0,1,260.53,100.35Z"/><path class="cls-1" d="M81.44,88.85V57a5.52,5.52,0,0,0,3.82-1.8,5.3,5.3,0,0,0,1.37-4,5.55,5.55,0,0,0-1.58-3.64,5.07,5.07,0,0,0-3.54-1.55H66.65a4.64,4.64,0,0,0-2.13.5,6.3,6.3,0,0,0-1.69,1.27,5.29,5.29,0,0,0-1.12,1.76,4.85,4.85,0,0,0-.32,2.1,5.22,5.22,0,0,0,1.55,3.71A5.43,5.43,0,0,0,66.58,57v10.1H52.44V57a5.64,5.64,0,0,0,2.16-.54,4.91,4.91,0,0,0,1.7-1.26,6.08,6.08,0,0,0,1.08-1.8,5.08,5.08,0,0,0,.33-2.17,5.59,5.59,0,0,0-1.66-3.68,5,5,0,0,0-3.68-1.51H37.73A5.16,5.16,0,0,0,33.9,47.7a5.41,5.41,0,0,0-1.58,3.93,5.22,5.22,0,0,0,1.51,3.75A5.12,5.12,0,0,0,37.51,57V88.85a5.59,5.59,0,0,0-2.13.55,5.37,5.37,0,0,0-1.66,1.22,5.55,5.55,0,0,0-1.08,1.81,5.24,5.24,0,0,0-.32,2.2A5.35,5.35,0,0,0,34,98.27a5.21,5.21,0,0,0,3.72,1.48H52.44a5.77,5.77,0,0,0,2.13-.54,5.57,5.57,0,0,0,1.69-1.27,5.68,5.68,0,0,0,1.12-1.8A5,5,0,0,0,57.71,94a5.45,5.45,0,0,0-1.59-3.61,5.54,5.54,0,0,0-3.68-1.59V79.19H62.78c-.36-.59-.58-1-.58-1a1.87,1.87,0,0,1,.54-2.38c.76-.63,1.65-.33,2.53,0a8.25,8.25,0,0,0,2.28.23c.88,0,2.37-.61,3.13.29,1,1.16.2,2-.18,3.32a14.17,14.17,0,0,0-.38,1.83c.07,1.2.15,2.28-.6,2.91a1.89,1.89,0,0,1-2.32,0,5.22,5.22,0,0,1-.62-.46v4.87a5.77,5.77,0,0,0-2.13.54,6,6,0,0,0-1.69,1.23,4.78,4.78,0,0,0-1.09,1.8,5.58,5.58,0,0,0-.28,2.2A5,5,0,0,0,63,98.16a5.76,5.76,0,0,0,3.68,1.59H81.51a5.67,5.67,0,0,0,2.06-.54,5.57,5.57,0,0,0,1.69-1.27,5.24,5.24,0,0,0,1.08-1.8,5.56,5.56,0,0,0-1.29-5.7A5.49,5.49,0,0,0,81.44,88.85ZM67.94,74.34c-.59.64-2.26,1.5-3.38.5S64.11,73,65.17,72a4.19,4.19,0,0,1,2.25-1.19C69.5,70.71,68.54,73.69,67.94,74.34Zm2.4.33a2.63,2.63,0,0,1-.15-3.26C71,70,73.43,69.85,73.9,70.13a1,1,0,0,1,.71,1.28,3.52,3.52,0,0,1-1.33,2.4C72.37,74.46,71,75.38,70.34,74.67Zm2,9.12a1,1,0,0,1-1.38-.4,4.65,4.65,0,0,1,0-3.14,2.32,2.32,0,0,1,1.94-1.31c1.28.06,2.37,0,2.23,1.35A4.66,4.66,0,0,1,72.29,83.79ZM76,77.64a3,3,0,0,1-3.48-.48c-1.43-1.33,1.85-4.26,3.75-3.88a1.19,1.19,0,0,1,1.23,1.26S77.82,76,76,77.64Z"/></svg>