<svg xmlns="http://www.w3.org/2000/svg" viewBox="0 0 500 500"><defs><style>.cls-1{fill:#c17e4d;opacity:0.66;}</style></defs><g id="Capa_13" data-name="Capa 13"><path class="cls-1" d="M240.35,433.72c-13.81-14.05-38-6.54-47.74-1.21s-18.67,11.15-33.69,12.36-28.36,1.7-34.18-1.69c0,0-10.9-4.61-9.93-13.09s2.9-13.33,3.63-14.54-4.36,1.93-5.09,10.18c0,0,.49,3.63-2.66,4.84s-6.55-.48-7-4.6,1.94-12.85,9-22.06,19.64-12.84,23.27-12.6,21.57-11.15,12.61-10.18-16.49,5.57-29.33,5.33-23.75-5.82-34.42-12.84S59.3,351.8,62.94,346.23s9-12.61,5.57-21.33c0,0-.24,17.45-13.57,19.63,0,0-14.79-10.91-3.88-24.72s37.57-28.36,44.6-30.54,39.75-18.18,47.26-37.08,14.54-36.6,22.3-42.66,34.66-23.75,41-31.27,16-19.39,18.9-31.26c0,0-12.36,18.9-13.57,20.36s1.21-9.21-2.91-17.94S196.48,124,198.18,102.64,206.92,67,211.52,65.56s6,7.51,7,10.18,7.51,25,13.57,31.75,17.94,24.72,20.12,11.88-1-27.39,3.64-41.21,9.45-32,9.69-35.38,3.88-13.82,8.73-15.27,12.6,8,14.3,10.42,14.3,19.15,16.72,36.36,6.79,26.41,11.15,34.65,30.3,44.6,33,51.15,34.66,63.5-7.27,66.65c0,0,28.36,5.09,25.21-20.85,0,0,81.28,44,122.85,110.82a249.68,249.68,0,0,0,9.13-67C499.34,112,387.71.32,250,.32S.66,112,.66,249.66c0,135.11,107.47,245.11,241.59,249.2C255.12,466.22,253.15,446.74,240.35,433.72Z"/></g></svg>