<svg id="Capa_1" data-name="Capa 1" xmlns="http://www.w3.org/2000/svg" xmlns:xlink="http://www.w3.org/1999/xlink" viewBox="0 0 500 500"><defs><style>.cls-1{fill:#f6f6f5;}.cls-2{fill:none;}.cls-3{clip-path:url(#clip-path);}.cls-4{fill:#fff;}.cls-5{clip-path:url(#clip-path-2);}.cls-6{fill:#c17e4d;opacity:0.66;}</style><clipPath id="clip-path"><circle class="cls-1" cx="-280.09" cy="250" r="247.8"/></clipPath><clipPath id="clip-path-2"><circle class="cls-2" cx="250.7" cy="249.5" r="248.3"/></clipPath></defs><circle class="cls-1" cx="-280.09" cy="250" r="247.8"/><g class="cls-3"><path class="cls-4" d="M82.22,667.4H-641.13V-55.95H82.22ZM-281.11,545.13q108.41,0,216.82,0c20.21,0,24.14-4,24.32-24.61.13-14.45-.9-29,.28-43.34,1.27-15.62-5.9-23.19-19.63-28.6a762.14,762.14,0,0,1-94.17-44.42c-20.5-11.55-41.26-22.88-58.23-39.56-11.82-11.63-10-21.53-3-35.56,19.07-38.24,58.93-70.34,38.68-121.22-.37-.92,0-2.12-.05-3.19-.8-20.3-.92-40.66-2.57-60.88-2.77-33.91-19.71-58.13-51.84-70.75-25.29-9.93-51.87-9-77.66-5.12-44.31,6.62-69.64,36.79-72.91,80.71-1.43,19.25,3,40-2.79,57.35-9.71,29.19-2.47,51.67,12.42,76.15,9.6,15.76,15.55,33.85,27.58,48.5,8.93,10.87,7.72,21.64-1.62,31.62-11.08,11.83-24.56,20.62-38.2,29.08-36.92,22.88-76.12,41.28-116.39,57.31-13.84,5.51-20.55,13.23-19.16,28.78,1.29,14.34.19,28.88.33,43.33.21,21,3.49,24.4,24.21,24.41Q-387.91,545.19-281.11,545.13Z"/></g><g class="cls-5"><rect class="cls-6" y="1.2" width="500" height="500"/><path class="cls-4" d="M143.58,192.84s.92,19.69,2.46,32.31,10.15,21.23,10.15,21.23c.31,5.23,6.77,31.38,6.77,31.38,2.77,15.08,18.16,26.47,18.16,26.47l-4,45.84s-1.85-.3-8.92.93-7.7,20.92-7.7,20.92c-6.15,7.08-8,19.69-8,19.69s-99.39,42.47-118.77,52S-8.7,470.39-8.7,470.39v29.94H508.76V470.39c-11.77-19.39-79-44.31-79-44.31l-83.7-34.47s-7.69-14.46-9.23-18.77,0-12.92-4.31-18.77-9.85-2.46-9.85-2.46.93-36,.93-43.08a15.19,15.19,0,0,1,4-10.77C339,286.38,344.51,247,344.51,247s2.46,1.54,7.08-7.69,6.15-35.39,6.77-45.85-8.31-4.61-8.31-4.61.92-67.7,0-87.7-14.77-33.85-21.54-41.23S301.43,40.52,296.2,35.6s2.46-9.85,8.62-16.31-4-5.85-4-5.85-11.39-.3-48,7.7S200.2,39,175.89,57.14s-23.7,50.15-23.7,50.15v70.47l.14,7.9s-4.54-2-7-.88C143.51,185.66,143.58,192.84,143.58,192.84Z"/></g></svg>