<svg id="Capa_1" data-name="Capa 1" xmlns="http://www.w3.org/2000/svg" viewBox="0 0 500 80"><defs><style>.cls-1,.cls-2,.cls-3{fill:#010101;}.cls-2,.cls-4{font-size:41.91px;}.cls-2,.cls-3{font-family:eacologica-round_slab, eacologica round slab;}.cls-3{font-size:59.96px;}.cls-5{letter-spacing:0em;}.cls-6{letter-spacing:0em;}.cls-7{letter-spacing:-0.01em;}</style></defs><path class="cls-1" d="M245.08,55.15c-.6-.33-.9-.73-.9-1.18V33.09a3.36,3.36,0,0,0-1.05-2.48,3.46,3.46,0,0,0-2.55-1h-4.41a3.18,3.18,0,0,0-2.28.89A3.09,3.09,0,0,0,233,32.8a3,3,0,0,0,2.7,3v4.17l-.75-.64a5.52,5.52,0,0,0-1-.64,5.71,5.71,0,0,0-1.35-.49,8.73,8.73,0,0,0-1.91-.19,9.94,9.94,0,0,0-4.16.85,9.06,9.06,0,0,0-3.15,2.4,11.16,11.16,0,0,0-2,3.77,15.52,15.52,0,0,0-.73,4.93,17.25,17.25,0,0,0,.66,4.93,11.4,11.4,0,0,0,1.91,3.78,8.44,8.44,0,0,0,3,2.42,8.78,8.78,0,0,0,3.9.85,7.38,7.38,0,0,0,2.61-.4,7.17,7.17,0,0,0,1.83-1,5.34,5.34,0,0,0,1.2-1.23,5.91,5.91,0,0,0,.66-1.21v1.19a1.8,1.8,0,0,0,.15.7,1.92,1.92,0,0,0,.49.68,2.78,2.78,0,0,0,.9.53,4,4,0,0,0,1.37.21h3.91a3.33,3.33,0,0,0,2.33-1.06,3.26,3.26,0,0,0,.92-2.34A3.36,3.36,0,0,0,245.08,55.15Zm-13.82-9.33a2.56,2.56,0,0,1,2.55-.88.72.72,0,0,1,.49.88,2.45,2.45,0,0,1-.92,1.65c-.62.45-1.54,1.07-2,.58A1.79,1.79,0,0,1,231.26,45.82Zm-3.44.37a2.82,2.82,0,0,1,1.55-.82c1.42,0,.76,2,.35,2.45s-1.55,1-2.32.35S227.09,46.91,227.82,46.19Zm3,8.52a1.29,1.29,0,0,1-1.59,0c-1.69-1.07-3.42-4.23-3.42-4.23a1.28,1.28,0,0,1,.37-1.64c.52-.43,1.13-.22,1.73,0a5.67,5.67,0,0,0,1.57.15c.6,0,1.63-.41,2.15.21.65.79.13,1.39-.13,2.28a8.55,8.55,0,0,0-.26,1.25C231.25,53.54,231.31,54.28,230.79,54.71Zm1.9-.4a.65.65,0,0,1-.94-.27,3.18,3.18,0,0,1,0-2.15,1.6,1.6,0,0,1,1.34-.9c.88,0,1.62,0,1.53.92A3.2,3.2,0,0,1,232.69,54.31Zm2.57-4.21a2,2,0,0,1-2.38-.34c-1-.91,1.27-2.92,2.57-2.65a.82.82,0,0,1,.85.86S236.49,48.94,235.26,50.1Z"/><text class="cls-2" transform="translate(246.67 60.81)">e</text><path class="cls-1" d="M387.9,45.64a11.73,11.73,0,0,0-2.76-3.88A12.16,12.16,0,0,0,381,39.24a14.8,14.8,0,0,0-10.11,0,12.37,12.37,0,0,0-4.1,2.52,11.85,11.85,0,0,0-2.75,3.88,12.29,12.29,0,0,0-1,5,12.1,12.1,0,0,0,1,5,11.21,11.21,0,0,0,2.78,3.82A12.24,12.24,0,0,0,371,62,15.37,15.37,0,0,0,381,62a12,12,0,0,0,4.1-2.43,11.29,11.29,0,0,0,2.76-3.82,12.1,12.1,0,0,0,1-5A12.29,12.29,0,0,0,387.9,45.64ZM376.07,47a2.52,2.52,0,0,1,2.54-.87.7.7,0,0,1,.49.88,2.42,2.42,0,0,1-.91,1.64c-.62.45-1.54,1.07-2,.59A1.81,1.81,0,0,1,376.07,47Zm-3.45.37a2.94,2.94,0,0,1,1.55-.82c1.43,0,.77,2,.36,2.46s-1.56,1-2.32.34S371.9,48,372.62,47.32Zm3,8.53a1.29,1.29,0,0,1-1.59,0c-1.69-1.07-3.42-4.23-3.42-4.23A1.26,1.26,0,0,1,371,50c.52-.43,1.13-.23,1.73,0a5.67,5.67,0,0,0,1.57.15c.6,0,1.63-.41,2.14.21.66.8.14,1.39-.12,2.28a9.49,9.49,0,0,0-.27,1.25C376.06,54.67,376.12,55.42,375.6,55.85Zm1.9-.41a.66.66,0,0,1-.95-.27,3.22,3.22,0,0,1,0-2.15,1.59,1.59,0,0,1,1.33-.9c.88,0,1.63,0,1.53.92A3.18,3.18,0,0,1,377.5,55.44Zm2.57-4.21a2.07,2.07,0,0,1-2.39-.33c-1-.92,1.27-2.93,2.58-2.66a.82.82,0,0,1,.84.86S381.3,50.07,380.07,51.23Z"/><text class="cls-3" transform="translate(279.48 63.07)">C<tspan class="cls-4" x="42.27" y="0">ol</tspan></text><text class="cls-2" transform="translate(390.34 61.94)">mbia</text><text class="cls-2" transform="translate(55.48 61.94)">ue<tspan class="cls-5" x="50.08" y="0">l</tspan><tspan class="cls-6" x="63.91" y="0">l</tspan><tspan class="cls-7" x="77.95" y="0">i</tspan><tspan x="93.07" y="0">tas</tspan></text><path class="cls-1" d="M50.18,52.89V26.44A4.72,4.72,0,0,0,52,26a4.56,4.56,0,0,0,1.41-1,4.28,4.28,0,0,0,.9-1.49,4.47,4.47,0,0,0,.24-1.8,4.64,4.64,0,0,0-1.32-3,4.16,4.16,0,0,0-2.94-1.29H37.89a3.79,3.79,0,0,0-1.77.42,5.09,5.09,0,0,0-1.4,1.05,4.49,4.49,0,0,0-.93,1.47A4,4,0,0,0,33.52,22a4.36,4.36,0,0,0,1.29,3.08,4.53,4.53,0,0,0,3,1.35v8.4H26.08v-8.4a5,5,0,0,0,1.8-.45,4.14,4.14,0,0,0,1.41-1,5,5,0,0,0,.9-1.49,4.15,4.15,0,0,0,.27-1.8,4.62,4.62,0,0,0-1.38-3.06A4.17,4.17,0,0,0,26,17.33H13.85a4.29,4.29,0,0,0-3.18,1.35A4.51,4.51,0,0,0,9.35,22a4.33,4.33,0,0,0,1.26,3.11,4.28,4.28,0,0,0,3.06,1.38V52.89a4.72,4.72,0,0,0-1.77.45,4.4,4.4,0,0,0-1.38,1,4.69,4.69,0,0,0-.9,1.5,4.34,4.34,0,0,0-.27,1.83,4.45,4.45,0,0,0,1.41,3,4.32,4.32,0,0,0,3.09,1.23H26.08a4.72,4.72,0,0,0,1.77-.45,4.56,4.56,0,0,0,1.41-1.05,4.84,4.84,0,0,0,.93-1.5,4.15,4.15,0,0,0,.27-1.8,4.54,4.54,0,0,0-1.32-3,4.62,4.62,0,0,0-3.06-1.31v-8h8.6c-.3-.49-.48-.81-.48-.81a1.54,1.54,0,0,1,.44-2c.63-.52,1.37-.27,2.1,0a7,7,0,0,0,1.9.19c.73,0,2-.5,2.6.25.8,1,.17,1.69-.14,2.76a9.41,9.41,0,0,0-.32,1.52c0,1,.12,1.89-.51,2.41a1.53,1.53,0,0,1-1.92,0,5.71,5.71,0,0,1-.52-.38v4a4.72,4.72,0,0,0-1.77.45,4.78,4.78,0,0,0-1.4,1,4.07,4.07,0,0,0-.9,1.5,4.67,4.67,0,0,0-.24,1.83,4.18,4.18,0,0,0,1.32,3,4.71,4.71,0,0,0,3,1.32H50.24A4.61,4.61,0,0,0,52,61.49a4.56,4.56,0,0,0,1.41-1.05,4.42,4.42,0,0,0,.9-1.5,4.62,4.62,0,0,0-1.08-4.74A4.56,4.56,0,0,0,50.18,52.89ZM39,40.82c-.5.54-1.88,1.24-2.81.42s-.38-1.53.5-2.4a3.45,3.45,0,0,1,1.87-1C40.26,37.81,39.46,40.28,39,40.82Zm2,.27a2.19,2.19,0,0,1-.13-2.7,3.09,3.09,0,0,1,3.08-1.07.87.87,0,0,1,.6,1.07,2.92,2.92,0,0,1-1.11,2C42.65,40.92,41.54,41.68,41,41.09Zm1.62,7.58a.79.79,0,0,1-1.15-.33,3.89,3.89,0,0,1,0-2.61,1.93,1.93,0,0,1,1.62-1.08c1.06,0,2,0,1.85,1.11A3.87,3.87,0,0,1,42.58,48.67Zm3.11-5.11a2.51,2.51,0,0,1-2.9-.4c-1.18-1.1,1.54-3.54,3.12-3.22a1,1,0,0,1,1,1.05S47.17,42.16,45.69,43.56Z"/></svg>