<svg xmlns="http://www.w3.org/2000/svg" viewBox="0 0 382.68 368.5"><defs><style>.cls-1,.cls-3{fill:none;stroke:#000;stroke-miterlimit:10;}.cls-1{stroke-width:2.09px;}.cls-2{fill:#030505;}.cls-3{stroke-width:2.45px;}</style></defs><g id="Capa_5" data-name="Capa 5"><path d="M105.11,312.32a3.91,3.91,0,0,0-1.76-1.75c-1.3-.66-2.28-1-2.91.38s.64,2.72,1.42,3.07S105.74,314.29,105.11,312.32Z"/><path d="M107.52,318.3a1.13,1.13,0,0,1-1,1.12,3.39,3.39,0,0,1-2.65-.47c-.87-.65-2.11-1.62-1.63-2.52a2.69,2.69,0,0,1,3-1.25C106.78,315.46,107.66,317.76,107.52,318.3Z"/><path d="M105.2,321.66a1.28,1.28,0,0,1-.85,1.6s-1.26.74-3.36-.4a3,3,0,0,1-.52-3.49C101.33,317.56,105,319.71,105.2,321.66Z"/><path d="M94.1,321.34a4.38,4.38,0,0,0,4.12,1.55c1.29-.31,1-1.35.66-2.59a2.17,2.17,0,0,0-1.79-1.42,4.7,4.7,0,0,0-3,1A1,1,0,0,0,94.1,321.34Z"/><path d="M92.13,316.67a1.86,1.86,0,0,0,.64,2.22c.81.51,1.81.06,2.93-.4a12.57,12.57,0,0,1,1.84-.24c1.33-.08,2.37.36,3.2-.95.65-1-.38-2.24-.59-3.09a8.25,8.25,0,0,1-.42-2.26c0-.94.07-1.89-.74-2.41a1.83,1.83,0,0,0-2.41.29S92.91,313.79,92.13,316.67Z"/><path d="M183.66,347.3a3.87,3.87,0,0,0-2.43-.55c-1.44.14-2.47.37-2.25,1.89s2,1.95,2.85,1.83S185.25,348.62,183.66,347.3Z"/><path d="M188.9,351.05a1.13,1.13,0,0,1-.26,1.49,3.34,3.34,0,0,1-2.49,1c-1.08-.08-2.65-.23-2.73-1.25a2.7,2.7,0,0,1,1.91-2.69C186.75,349,188.73,350.52,188.9,351.05Z"/><path d="M188.74,355.12a1.28,1.28,0,0,1,.14,1.81s-.66,1.31-3,1.47a3,3,0,0,1-2.31-2.67C183.28,353.74,187.56,353.57,188.74,355.12Z"/><path d="M179.21,360.81a4.34,4.34,0,0,0,4.3-.91c.92-.95.09-1.64-.83-2.53a2.16,2.16,0,0,0-2.27-.24,4.74,4.74,0,0,0-2,2.45A1,1,0,0,0,179.21,360.81Z"/><path d="M175,357.92a1.87,1.87,0,0,0,1.73,1.53c1,0,1.57-.91,2.26-1.91a13.42,13.42,0,0,1,1.43-1.19c1.08-.77,2.19-1,2.19-2.51,0-1.22-1.52-1.69-2.15-2.29a8.15,8.15,0,0,1-1.57-1.69c-.48-.81-1-1.63-1.91-1.63a1.81,1.81,0,0,0-1.88,1.53S174.16,355.07,175,357.92Z"/><path d="M125.19,337.87a4.81,4.81,0,0,0-2.71-1.51c-1.78-.35-3.08-.46-3.36,1.45s1.69,3,2.75,3.2S126.61,340,125.19,337.87Z"/><path d="M130.11,344.23a1.4,1.4,0,0,1-.84,1.69,4.19,4.19,0,0,1-3.34.33c-1.27-.48-3.09-1.22-2.82-2.47a3.37,3.37,0,0,1,3.24-2.53C128.26,341.07,130.1,343.54,130.11,344.23Z"/><path d="M128.47,349.05a1.59,1.59,0,0,1-.48,2.21s-1.26,1.32-4.17.66a3.75,3.75,0,0,1-1.81-4C122.43,345.44,127.61,346.76,128.47,349.05Z"/><path d="M115,352.43a5.42,5.42,0,0,0,5.47.46c1.45-.8.7-1.93-.09-3.32a2.68,2.68,0,0,0-2.62-1.1,5.92,5.92,0,0,0-3.26,2.22A1.2,1.2,0,0,0,115,352.43Z"/><path d="M111.08,347.49a2.32,2.32,0,0,0,1.52,2.45c1.14.34,2.2-.53,3.38-1.47a15.63,15.63,0,0,1,2.13-.92c1.57-.54,3-.37,3.52-2.22.44-1.45-1.21-2.56-1.75-3.51a10.25,10.25,0,0,1-1.28-2.57c-.28-1.15-.56-2.3-1.7-2.64a2.28,2.28,0,0,0-2.8,1.16S111,343.78,111.08,347.49Z"/><path d="M206.65,330.15a4.09,4.09,0,0,0-2.6-.09c-1.45.42-2.46.85-1.94,2.37s2.43,1.62,3.28,1.33S208.54,331.2,206.65,330.15Z"/><path d="M212.76,333a1.18,1.18,0,0,1,0,1.58,3.52,3.52,0,0,1-2.36,1.53c-1.13.13-2.77.27-3-.76a2.82,2.82,0,0,1,1.44-3.12C210.16,331.34,212.48,332.48,212.76,333Z"/><path d="M213.38,337.2a1.34,1.34,0,0,1,.5,1.83s-.43,1.47-2.85,2.1a3.15,3.15,0,0,1-2.89-2.3C207.51,336.84,211.86,335.84,213.38,337.2Z"/><path d="M204.69,344.88a4.54,4.54,0,0,0,4.25-1.76c.76-1.15-.23-1.71-1.35-2.43a2.24,2.24,0,0,0-2.37.19,4.92,4.92,0,0,0-1.57,2.9A1,1,0,0,0,204.69,344.88Z"/><path d="M199.85,342.73a1.93,1.93,0,0,0,2.07,1.23c1-.18,1.43-1.24,2-2.39a13.28,13.28,0,0,1,1.23-1.5c1-1,2.07-1.42,1.77-3-.23-1.24-1.89-1.44-2.65-1.93a8.76,8.76,0,0,1-1.94-1.43c-.65-.74-1.3-1.49-2.28-1.31a1.91,1.91,0,0,0-1.64,1.94S198.4,340,199.85,342.73Z"/><path d="M244.05,340.08a4,4,0,0,0-2.55.51c-1.32.74-2.21,1.39-1.35,2.75s2.73,1,3.49.54S246.13,340.67,244.05,340.08Z"/><path d="M250.64,341.45A1.16,1.16,0,0,1,251,343c-.5.93-.87,1.65-1.94,2s-2.63.9-3.14,0a2.8,2.8,0,0,1,.69-3.37C247.74,340.44,250.26,341,250.64,341.45Z"/><path d="M252.22,345.41a1.33,1.33,0,0,1,.89,1.67s-.08,1.52-2.29,2.69a3.15,3.15,0,0,1-3.34-1.58C246.41,346.4,250.42,344.42,252.22,345.41Z"/><path d="M245.51,354.87a4.55,4.55,0,0,0,3.73-2.68c.48-1.3-.61-1.61-1.87-2.07a2.25,2.25,0,0,0-2.26.73,4.94,4.94,0,0,0-.87,3.18A1,1,0,0,0,245.51,354.87Z"/><path d="M240.3,353.88a2,2,0,0,0,2.3.73c.92-.4,1.11-1.54,1.36-2.78a13.76,13.76,0,0,1,.85-1.74c.71-1.2,1.69-1.85,1-3.33-.51-1.16-2.16-1-3-1.28a8.61,8.61,0,0,1-2.22-.94c-.79-.58-1.6-1.16-2.51-.76a1.9,1.9,0,0,0-1.15,2.26S238.26,351.53,240.3,353.88Z"/><path d="M290.81,41.72a3.53,3.53,0,0,0,1.46,1.74c1.12.7,2,1.1,2.68-.13s-.37-2.52-1.06-2.9S290.39,39.87,290.81,41.72Z"/><path d="M289.09,36.09a1,1,0,0,1,1-.94,3.09,3.09,0,0,1,2.38.64c.74.66,1.79,1.64,1.28,2.42a2.44,2.44,0,0,1-2.87.89C289.53,38.73,288.92,36.57,289.09,36.09Z"/><path d="M291.47,33.22a1.16,1.16,0,0,1,.9-1.39s1.2-.58,3,.63a2.75,2.75,0,0,1,.2,3.22C294.66,37.25,291.46,35,291.47,33.22Z"/><path d="M301.53,34.39a4,4,0,0,0-3.62-1.73c-1.2.17-1,1.14-.8,2.29s1.51,1.43,1.51,1.43a4.32,4.32,0,0,0,2.8-.67A.88.88,0,0,0,301.53,34.39Z"/><path d="M303,38.79a1.69,1.69,0,0,0-.41-2.06c-.69-.53-1.64-.21-2.7.12a11.09,11.09,0,0,1-1.69.08c-1.21,0-2.13-.52-3,.6-.68.89.16,2.07.29,2.86a7.38,7.38,0,0,1,.2,2.09c-.11.86-.21,1.72.48,2.25a1.67,1.67,0,0,0,2.22-.07S302,41.35,303,38.79Z"/><path d="M337,90.41a4.26,4.26,0,0,0,1.75,2.08c1.34.83,2.38,1.32,3.2-.15s-.44-3-1.26-3.47S336.54,88.2,337,90.41Z"/><path d="M335,83.67a1.23,1.23,0,0,1,1.22-1.11,3.59,3.59,0,0,1,2.83.76c.89.79,2.15,2,1.54,2.9a2.94,2.94,0,0,1-3.43,1.06C335.52,86.84,334.78,84.25,335,83.67Z"/><path d="M337.83,80.24a1.39,1.39,0,0,1,1.07-1.66s1.44-.69,3.62.76a3.26,3.26,0,0,1,.23,3.84C341.65,85.07,337.82,82.38,337.83,80.24Z"/><path d="M349.87,81.64a4.78,4.78,0,0,0-4.34-2.07c-1.43.21-1.17,1.37-.95,2.75S346.39,84,346.39,84a5.13,5.13,0,0,0,3.35-.81A1.06,1.06,0,0,0,349.87,81.64Z"/><path d="M351.57,86.91a2,2,0,0,0-.48-2.47c-.83-.64-2-.25-3.23.15a13.14,13.14,0,0,1-2,.09c-1.46-.05-2.55-.62-3.58.73-.8,1,.2,2.47.35,3.41a9.21,9.21,0,0,1,.25,2.51c-.13,1-.26,2,.57,2.68a2,2,0,0,0,2.65-.08S350.45,90,351.57,86.91Z"/><path d="M305.33,68.41a4.53,4.53,0,0,0,.94,2.74c1,1.34,1.87,2.22,3.25,1.07s.7-3.17.06-3.93S305.67,66,305.33,68.41Z"/><path d="M305.84,60.93a1.31,1.31,0,0,1,1.63-.65A3.92,3.92,0,0,1,310,62.12c.58,1.12,1.39,2.77.43,3.47a3.14,3.14,0,0,1-3.83-.25C305.17,64.29,305.42,61.43,305.84,60.93Z"/><path d="M310,58.6a1.48,1.48,0,0,1,1.71-1.24s1.69-.14,3.31,2.13a3.48,3.48,0,0,1-1.23,3.91C311.94,64.85,309.16,60.73,310,58.6Z"/><path d="M321.42,64.57a5.08,5.08,0,0,0-3.52-3.71c-1.5-.33-1.69.92-2,2.37a2.51,2.51,0,0,0,1.15,2.39,5.45,5.45,0,0,0,3.64.47A1.12,1.12,0,0,0,321.42,64.57Z"/><path d="M321.11,70.46a2.14,2.14,0,0,0,.46-2.64c-.58-.95-1.86-1-3.27-1.08a14,14,0,0,1-2.05-.68c-1.42-.6-2.29-1.58-3.82-.64-1.21.75-.75,2.54-1,3.54a9.61,9.61,0,0,1-.7,2.58c-.52,1-1,1.94-.46,2.89a2.13,2.13,0,0,0,2.67.93S318.83,73.07,321.11,70.46Z"/><path d="M252.35,42.09a4.53,4.53,0,0,0,2.06,2c1.52.75,2.66,1.17,3.39-.47s-.78-3.16-1.69-3.56S251.6,39.81,252.35,42.09Z"/><path d="M249.5,35.16a1.3,1.3,0,0,1,1.17-1.31,3.88,3.88,0,0,1,3.09.53c1,.74,2.47,1.86,1.92,2.91a3.14,3.14,0,0,1-3.54,1.48C250.38,38.46,249.34,35.79,249.5,35.16Z"/><path d="M252.17,31.24a1.48,1.48,0,0,1,1-1.87s1.46-.88,3.91.43a3.5,3.5,0,0,1,.64,4.06C256.7,36,252.37,33.5,252.17,31.24Z"/><path d="M265.07,31.51a5.05,5.05,0,0,0-4.8-1.77c-1.49.37-1.1,1.57-.74,3a2.52,2.52,0,0,0,2.09,1.64,5.49,5.49,0,0,0,3.47-1.19A1.13,1.13,0,0,0,265.07,31.51Z"/><path d="M267.41,36.92a2.16,2.16,0,0,0-.76-2.57c-.95-.59-2.11-.06-3.41.49a16.29,16.29,0,0,1-2.14.3c-1.54.09-2.76-.4-3.71,1.12-.75,1.2.46,2.6.71,3.59a9.77,9.77,0,0,1,.52,2.63c0,1.1-.07,2.2.87,2.79a2.11,2.11,0,0,0,2.8-.35S266.52,40.27,267.41,36.92Z"/><path d="M313.4,288.19a4.54,4.54,0,0,0-2.4,1.62c-1,1.33-1.67,2.37-.21,3.4s3.24-.13,3.82-.94S315.78,287.91,313.4,288.19Z"/><path d="M320.75,286.77a1.31,1.31,0,0,1,1.05,1.41,3.92,3.92,0,0,1-1.13,2.92c-.93.85-2.31,2-3.24,1.3a3.12,3.12,0,0,1-.74-3.75C317.34,287,320.17,286.49,320.75,286.77Z"/><path d="M324.06,290.16a1.49,1.49,0,0,1,1.64,1.33s.57,1.6-1.2,3.75a3.51,3.51,0,0,1-4.1-.19C318.53,293.66,321.8,289.92,324.06,290.16Z"/><path d="M321.24,302.75a5.05,5.05,0,0,0,2.67-4.35c-.06-1.54-1.31-1.4-2.8-1.32s-2,1.72-2,1.72a5.44,5.44,0,0,0,.48,3.63A1.13,1.13,0,0,0,321.24,302.75Z"/><path d="M315.47,304a2.16,2.16,0,0,0,2.67-.23c.76-.81.48-2.05.2-3.43a14.43,14.43,0,0,1,.13-2.16c.21-1.53.94-2.62-.37-3.86-1-1-2.64-.07-3.65,0a10,10,0,0,1-2.68,0c-1.07-.25-2.14-.5-2.9.3a2.12,2.12,0,0,0-.22,2.82S312.36,302.43,315.47,304Z"/><path d="M41.94,230.3a4.09,4.09,0,0,0-.83-2.48c-.91-1.23-1.66-2-2.91-1s-.68,2.85-.11,3.55S41.6,232.44,41.94,230.3Z"/><path d="M41.39,237.05a1.19,1.19,0,0,1-1.48.57,3.5,3.5,0,0,1-2.27-1.69c-.51-1-1.22-2.52-.35-3.14a2.83,2.83,0,0,1,3.45.27C42,234,41.77,236.61,41.39,237.05Z"/><path d="M37.63,239.11a1.33,1.33,0,0,1-1.55,1.1s-1.54.11-3-2a3.15,3.15,0,0,1,1.15-3.52C35.92,233.44,38.39,237.2,37.63,239.11Z"/><path d="M27.35,233.59A4.59,4.59,0,0,0,30.5,237c1.35.31,1.53-.81,1.83-2.12a2.27,2.27,0,0,0-1-2.17,5,5,0,0,0-3.29-.47A1,1,0,0,0,27.35,233.59Z"/><path d="M27.7,228.27a1.93,1.93,0,0,0-.44,2.38c.51.87,1.67.92,2.94,1a14.2,14.2,0,0,1,1.84.64c1.28.55,2.06,1.45,3.45.62,1.09-.66.7-2.28.9-3.18a8.61,8.61,0,0,1,.67-2.33c.48-.87,1-1.74.44-2.6a1.92,1.92,0,0,0-2.4-.87S29.79,225.94,27.7,228.27Z"/><path d="M35.55,263.57a3.7,3.7,0,0,0-.74-2.31c-.85-1.14-1.56-1.88-2.77-.9a2.45,2.45,0,0,0-.16,3.33C32.4,264.34,35.19,265.58,35.55,263.57Z"/><path d="M34.91,269.9a1.16,1.16,0,0,1-1.42.56,3.22,3.22,0,0,1-2.14-1.54c-.47-.95-1.13-2.34-.28-2.94a2.74,2.74,0,0,1,3.29.19C35.58,267.06,35.29,269.48,34.91,269.9Z"/><path d="M31.29,271.9a1.33,1.33,0,0,1-1.5,1.06s-1.47.12-2.81-1.79a3,3,0,0,1,1.17-3.32C29.75,266.61,32.05,270.09,31.29,271.9Z"/><path d="M21.57,266.9A4.11,4.11,0,0,0,24.51,270c1.29.28,1.48-.78,1.78-2a2,2,0,0,0-.93-2,4.7,4.7,0,0,0-3.12-.38A1,1,0,0,0,21.57,266.9Z"/><path d="M22,261.91a1.82,1.82,0,0,0-.47,2.24c.48.8,1.58.83,2.79.89a13.05,13.05,0,0,1,1.75.57c1.22.5,1.94,1.33,3.29.52,1.06-.63.71-2.15.91-3a8.33,8.33,0,0,1,.68-2.19c.47-.83.94-1.65.47-2.45a1.8,1.8,0,0,0-2.28-.78S24,259.69,22,261.91Z"/><path d="M78.43,313.67a4.68,4.68,0,0,0-2.13-2.13c-1.58-.8-2.77-1.24-3.53.47s.78,3.29,1.72,3.72S79.19,316.06,78.43,313.67Z"/><path d="M81.35,320.92a1.36,1.36,0,0,1-1.23,1.35,4,4,0,0,1-3.22-.57c-1.05-.79-2.56-2-2-3.05a3.26,3.26,0,0,1,3.7-1.51C80.46,317.47,81.52,320.27,81.35,320.92Z"/><path d="M78.54,325a1.54,1.54,0,0,1-1,1.94s-1.52.91-4.07-.48a3.65,3.65,0,0,1-.63-4.24C73.85,320,78.34,322.63,78.54,325Z"/><path d="M65.08,324.6a5.29,5.29,0,0,0,5,1.88c1.56-.37,1.16-1.63.79-3.13a2.6,2.6,0,0,0-2.17-1.72,5.75,5.75,0,0,0-3.63,1.21A1.17,1.17,0,0,0,65.08,324.6Z"/><path d="M62.69,318.94a2.25,2.25,0,0,0,.77,2.69c1,.62,2.2.08,3.56-.48a15.67,15.67,0,0,1,2.23-.3c1.61-.09,2.87.44,3.88-1.14.79-1.25-.46-2.72-.72-3.75a10.4,10.4,0,0,1-.51-2.75c0-1.14.09-2.29-.89-2.91a2.21,2.21,0,0,0-2.92.34S63.64,315.45,62.69,318.94Z"/><path d="M65.85,282a4.35,4.35,0,0,0-1.18-2.49c-1.11-1.16-2-1.9-3.18-.67s-.33,3.07.35,3.73S65.78,284.28,65.85,282Z"/><path d="M66.16,289.11a1.24,1.24,0,0,1-1.47.79,3.7,3.7,0,0,1-2.59-1.47c-.67-1-1.6-2.46-.77-3.23A3,3,0,0,1,65,285C66.44,285.87,66.5,288.6,66.16,289.11Z"/><path d="M62.5,291.75A1.39,1.39,0,0,1,61,293.1s-1.59.32-3.36-1.65a3.33,3.33,0,0,1,.75-3.83C60,286.06,63.05,289.66,62.5,291.75Z"/><path d="M51.06,287.33a4.83,4.83,0,0,0,3.72,3.13c1.46.15,1.5-1,1.64-2.45a2.41,2.41,0,0,0-1.34-2.14,5.23,5.23,0,0,0-3.49-.05A1.06,1.06,0,0,0,51.06,287.33Z"/><path d="M50.73,281.74a2,2,0,0,0-.15,2.54c.65.83,1.86.74,3.2.67a14.72,14.72,0,0,1,2,.42c1.41.42,2.34,1.25,3.68.2,1.06-.83.44-2.47.53-3.43a9.22,9.22,0,0,1,.39-2.52c.39-1,.77-1.94.12-2.78a2,2,0,0,0-2.61-.59S52.6,279,50.73,281.74Z"/><path d="M131.55,43.53a3.08,3.08,0,0,0,1.92-.3c1-.52,1.69-1,1.09-2a2,2,0,0,0-2.6-.51C131.38,41,130,43,131.55,43.53Z"/><path d="M126.66,42.32a.89.89,0,0,1-.24-1.16c.4-.68.7-1.21,1.51-1.46s2-.6,2.35.12a2.12,2.12,0,0,1-.61,2.5A2.77,2.77,0,0,1,126.66,42.32Z"/><path d="M125.6,39.31A1,1,0,0,1,125,38s.1-1.14,1.79-1.95a2.36,2.36,0,0,1,2.45,1.28C130,38.74,126.91,40.1,125.6,39.31Z"/><path d="M130.89,32.43a3.42,3.42,0,0,0-2.87,1.9c-.39,1,.41,1.22,1.34,1.6a1.69,1.69,0,0,0,1.71-.48,3.66,3.66,0,0,0,.74-2.35A.76.76,0,0,0,130.89,32.43Z"/><path d="M134.75,33.33a1.45,1.45,0,0,0-1.7-.62c-.69.28-.87,1.12-1.09,2a9.7,9.7,0,0,1-.69,1.28c-.56.87-1.31,1.33-.87,2.46.35.88,1.59.78,2.23,1a6.56,6.56,0,0,1,1.62.77c.58.46,1.17.91,1.86.64a1.43,1.43,0,0,0,.93-1.66S136.21,35.14,134.75,33.33Z"/><path d="M26.35,146.11a4.7,4.7,0,0,0,1.57-2.55c.41-1.71.57-3-1.26-3.31s-3,1.51-3.2,2.52S24.21,147.39,26.35,146.11Z"/><path d="M20,150.59a1.35,1.35,0,0,1-1.59-.88,4.06,4.06,0,0,1-.19-3.24c.52-1.2,1.31-2.92,2.5-2.61A3.23,3.23,0,0,1,23,147.09C23.14,148.94,20.68,150.61,20,150.59Z"/><path d="M15.43,148.8a1.53,1.53,0,0,1-2.11-.55s-1.23-1.27-.47-4.05a3.62,3.62,0,0,1,4-1.58C19.16,143.13,17.67,148.07,15.43,148.8Z"/><path d="M12.72,135.7a5.24,5.24,0,0,0-.67,5.26c.72,1.43,1.84.76,3.21,0a2.59,2.59,0,0,0,1.17-2.48,5.68,5.68,0,0,0-2-3.23A1.16,1.16,0,0,0,12.72,135.7Z"/><path d="M17.65,132.09a2.23,2.23,0,0,0-2.42,1.37c-.38,1.09.42,2.14,1.28,3.33a14.87,14.87,0,0,1,.79,2.09c.46,1.53.24,2.88,2,3.49,1.38.48,2.52-1.07,3.46-1.55a10,10,0,0,1,2.53-1.13c1.12-.22,2.24-.44,2.62-1.53a2.17,2.17,0,0,0-1-2.74S21.24,132.22,17.65,132.09Z"/><path d="M49,93.65a4.58,4.58,0,0,0,1.54-2.5c.4-1.67.55-2.89-1.24-3.24s-2.94,1.48-3.14,2.47S46.91,94.91,49,93.65Z"/><path d="M42.78,98a1.32,1.32,0,0,1-1.55-.86A3.94,3.94,0,0,1,41.05,94c.51-1.18,1.28-2.87,2.45-2.56a3.16,3.16,0,0,1,2.25,3.16C45.85,96.42,43.44,98.06,42.78,98Z"/><path d="M38.3,96.29a1.51,1.51,0,0,1-2.07-.54s-1.2-1.24-.45-4a3.54,3.54,0,0,1,3.87-1.54C42,90.74,40.5,95.57,38.3,96.29Z"/><path d="M35.65,83.46A5.14,5.14,0,0,0,35,88.61c.71,1.4,1.8.74,3.15,0a2.55,2.55,0,0,0,1.14-2.44,5.58,5.58,0,0,0-2-3.16A1.15,1.15,0,0,0,35.65,83.46Z"/><path d="M40.48,79.93a2.19,2.19,0,0,0-2.38,1.33c-.36,1.07.42,2.1,1.26,3.26a15,15,0,0,1,.78,2c.44,1.5.23,2.82,2,3.42,1.36.47,2.47-1,3.39-1.52A9.66,9.66,0,0,1,48,87.37c1.1-.22,2.2-.44,2.57-1.5a2.16,2.16,0,0,0-1-2.69S44,80,40.48,79.93Z"/><path d="M51.91,124.36a4.68,4.68,0,0,0,1.58-2.55c.41-1.7.56-3-1.27-3.3S49.22,120,49,121,49.78,125.65,51.91,124.36Z"/><path d="M45.57,128.85A1.35,1.35,0,0,1,44,128a4,4,0,0,1-.18-3.24c.52-1.21,1.31-2.93,2.5-2.62a3.24,3.24,0,0,1,2.3,3.23C48.7,127.19,46.24,128.86,45.57,128.85Z"/><path d="M41,127.06a1.53,1.53,0,0,1-2.11-.55s-1.22-1.27-.47-4.06a3.64,3.64,0,0,1,4-1.57C44.72,121.39,43.23,126.32,41,127.06Z"/><path d="M38.28,114a5.27,5.27,0,0,0-.67,5.26c.72,1.42,1.84.75,3.21,0A2.6,2.6,0,0,0,42,116.78a5.7,5.7,0,0,0-2-3.23A1.18,1.18,0,0,0,38.28,114Z"/><path d="M43.22,110.35a2.24,2.24,0,0,0-2.43,1.36c-.38,1.09.42,2.15,1.28,3.33a15.64,15.64,0,0,1,.8,2.09c.45,1.54.23,2.88,2,3.49,1.39.48,2.52-1.06,3.46-1.55A10.06,10.06,0,0,1,50.86,118c1.11-.22,2.24-.44,2.61-1.53a2.19,2.19,0,0,0-1-2.75S46.8,110.47,43.22,110.35Z"/><path d="M76.64,75a3.75,3.75,0,0,0,2-1.24c.91-1.06,1.48-1.9.31-2.81s-2.69,0-3.2.63S74.66,75.12,76.64,75Z"/><path d="M70.5,75.86a1.08,1.08,0,0,1-.81-1.21,3.19,3.19,0,0,1,1-2.37c.81-.66,2-1.6,2.73-1a2.61,2.61,0,0,1,.46,3.14C73.33,75.83,71,76.11,70.5,75.86Z"/><path d="M67.89,72.92a1.22,1.22,0,0,1-1.3-1.16s-.41-1.35,1.15-3.06a2.9,2.9,0,0,1,3.38.32C72.61,70.25,69.75,73.21,67.89,72.92Z"/><path d="M70.74,62.62a4.19,4.19,0,0,0-2.39,3.49c0,1.28,1,1.21,2.26,1.21A2.08,2.08,0,0,0,72.35,66a4.54,4.54,0,0,0-.25-3A.93.93,0,0,0,70.74,62.62Z"/><path d="M75.57,61.85a1.8,1.8,0,0,0-2.23.08c-.66.64-.48,1.68-.3,2.84a12.77,12.77,0,0,1-.19,1.77c-.24,1.26-.89,2.14.14,3.21.81.85,2.18.16,3,.16a8.15,8.15,0,0,1,2.21.12c.87.26,1.75.51,2.42-.13a1.76,1.76,0,0,0,.29-2.32S78.07,63.24,75.57,61.85Z"/><path d="M94.58,47.16A4.47,4.47,0,0,0,97.15,46c1.21-1.13,2-2,.72-3.27S94.71,42.33,94,43,92.23,47.07,94.58,47.16Z"/><path d="M87.25,47.41a1.27,1.27,0,0,1-.8-1.52A3.79,3.79,0,0,1,88,43.24c1-.68,2.56-1.63,3.34-.77a3.07,3.07,0,0,1,.14,3.75C90.58,47.73,87.77,47.77,87.25,47.41Z"/><path d="M84.56,43.63a1.45,1.45,0,0,1-1.38-1.54s-.31-1.63,1.73-3.44a3.42,3.42,0,0,1,3.94.8C90.45,41.08,86.71,44.21,84.56,43.63Z"/><path d="M89.21,31.87A5,5,0,0,0,86,35.68c-.17,1.5,1.06,1.55,2.51,1.7A2.45,2.45,0,0,0,90.68,36a5.4,5.4,0,0,0,.09-3.59A1.1,1.1,0,0,0,89.21,31.87Z"/><path d="M95,31.58a2.11,2.11,0,0,0-2.62-.18c-.86.66-.78,1.91-.72,3.29a14.85,14.85,0,0,1-.45,2.06c-.44,1.46-1.31,2.4-.24,3.8.85,1.09,2.55.46,3.54.57a9.77,9.77,0,0,1,2.59.42c1,.41,2,.82,2.86.15a2.07,2.07,0,0,0,.63-2.69S97.75,33.53,95,31.58Z"/><path d="M32.89,175a3.6,3.6,0,0,0,.5-2.24c-.13-1.32-.33-2.26-1.74-2.06s-1.78,1.84-1.67,2.61S31.67,176.44,32.89,175Z"/><path d="M29.44,179.8a1,1,0,0,1-1.36-.24,3,3,0,0,1-.94-2.29c.07-1,.21-2.43,1.14-2.51a2.48,2.48,0,0,1,2.47,1.76C31.29,177.83,29.93,179.64,29.44,179.8Z"/><path d="M25.7,179.65a1.17,1.17,0,0,1-1.66.13s-1.2-.61-1.35-2.8a2.75,2.75,0,0,1,2.45-2.12C27,174.64,27.13,178.56,25.7,179.65Z"/><path d="M20.48,170.89a4,4,0,0,0,.83,4c.87.84,1.51.08,2.32-.77a2,2,0,0,0,.22-2.08,4.35,4.35,0,0,0-2.25-1.83A.88.88,0,0,0,20.48,170.89Z"/><path d="M23.13,167.06a1.7,1.7,0,0,0-1.41,1.59c0,.88.84,1.44,1.76,2.08a12.86,12.86,0,0,1,1.09,1.3c.71,1,.89,2,2.31,2,1.11,0,1.55-1.4,2.1-2a7.85,7.85,0,0,1,1.55-1.44c.75-.44,1.5-.88,1.5-1.76a1.68,1.68,0,0,0-1.4-1.73S25.74,166.25,23.13,167.06Z"/><path d="M21.7,204.19a4.69,4.69,0,0,0,.4-2.95c-.32-1.7-.69-2.9-2.48-2.48s-2.11,2.58-1.88,3.58S20.29,206.21,21.7,204.19Z"/><path d="M17.78,210.81a1.34,1.34,0,0,1-1.8-.15,4,4,0,0,1-1.47-2.86c0-1.3,0-3.18,1.2-3.38a3.23,3.23,0,0,1,3.4,2C20,208.05,18.39,210.55,17.78,210.81Z"/><path d="M12.91,211a1.51,1.51,0,0,1-2.13.36s-1.62-.66-2.06-3.48a3.59,3.59,0,0,1,2.94-3C14,204.4,14.64,209.47,12.91,211Z"/><path d="M5.17,200.28a5.19,5.19,0,0,0,1.52,5c1.22,1,2-.06,2.92-1.25a2.55,2.55,0,0,0,.05-2.72,5.58,5.58,0,0,0-3.12-2.11A1.15,1.15,0,0,0,5.17,200.28Z"/><path d="M8.17,195a2.22,2.22,0,0,0-1.64,2.22c.1,1.14,1.25,1.77,2.5,2.49a16.34,16.34,0,0,1,1.57,1.57c1,1.21,1.37,2.51,3.21,2.35,1.45-.12,1.85-2,2.51-2.8a9.85,9.85,0,0,1,1.84-2c.92-.65,1.84-1.3,1.75-2.44a2.17,2.17,0,0,0-2-2.08S11.47,193.68,8.17,195Z"/><path d="M364.26,207.36a4.3,4.3,0,0,0-1.28,2.45c-.27,1.59-.32,2.75,1.38,3s2.66-1.59,2.78-2.53S366.14,206,364.26,207.36Z"/><path d="M369.8,202.81a1.25,1.25,0,0,1,1.52.71,3.73,3.73,0,0,1,.38,3c-.4,1.14-1,2.77-2.13,2.57a3,3,0,0,1-2.33-2.82C367,204.54,369.18,202.85,369.8,202.81Z"/><path d="M374.12,204.16a1.41,1.41,0,0,1,2,.36s1.22,1.09.7,3.7a3.34,3.34,0,0,1-3.53,1.71C371.07,209.62,372.11,205,374.12,204.16Z"/><path d="M377.48,216a4.86,4.86,0,0,0,.27-4.89c-.75-1.26-1.74-.57-2.95.17a2.4,2.4,0,0,0-.92,2.37,5.32,5.32,0,0,0,2.06,2.84A1.08,1.08,0,0,0,377.48,216Z"/><path d="M373.18,219.67a2.07,2.07,0,0,0,2.15-1.41c.27-1-.54-1.95-1.4-3a13.29,13.29,0,0,1-.87-1.87c-.52-1.38-.41-2.63-2.07-3.08-1.3-.35-2.25,1.15-3.08,1.66a9.2,9.2,0,0,1-2.26,1.2c-1,.27-2,.55-2.3,1.58a2,2,0,0,0,1.1,2.46S369.88,219.8,373.18,219.67Z"/><path d="M270.9,317.22a3.89,3.89,0,0,0-2.43.57c-1.24.75-2.07,1.4-1.21,2.68s2.66.89,3.37.41S272.92,317.72,270.9,317.22Z"/><path d="M277.28,318.33a1.12,1.12,0,0,1,.41,1.45,3.32,3.32,0,0,1-1.8,2c-1,.4-2.5.95-3,.06a2.7,2.7,0,0,1,.56-3.25C274.46,317.45,276.89,317.92,277.28,318.33Z"/><path d="M278.91,322.08a1.27,1.27,0,0,1,.91,1.57s0,1.47-2.11,2.66a3,3,0,0,1-3.26-1.41C273.37,323.21,277.16,321.19,278.91,322.08Z"/><path d="M272.77,331.37a4.38,4.38,0,0,0,3.5-2.69c.41-1.26-.64-1.53-1.86-1.92a2.16,2.16,0,0,0-2.16.77,4.75,4.75,0,0,0-.72,3.08A1,1,0,0,0,272.77,331.37Z"/><path d="M267.74,330.58a1.85,1.85,0,0,0,2.23.63c.86-.41,1-1.51,1.21-2.71a12.71,12.71,0,0,1,.77-1.69c.64-1.18,1.56-1.84.89-3.23-.53-1.1-2.11-.87-2.95-1.13a8.64,8.64,0,0,1-2.16-.84c-.78-.53-1.57-1.06-2.43-.65a1.84,1.84,0,0,0-1,2.21S265.7,328.4,267.74,330.58Z"/><path d="M337,120.73a3.89,3.89,0,0,0,.81,2.36c.89,1.16,1.62,1.92,2.8.92s.61-2.73.06-3.39S337.3,118.67,337,120.73Z"/><path d="M337.45,114.27a1.12,1.12,0,0,1,1.4-.56A3.34,3.34,0,0,1,341,115.3c.5,1,1.2,2.38.37,3a2.68,2.68,0,0,1-3.29-.21C336.87,117.17,337.09,114.7,337.45,114.27Z"/><path d="M341,112.26a1.28,1.28,0,0,1,1.47-1.07s1.46-.12,2.86,1.83a3,3,0,0,1-1.06,3.38C342.71,117.65,340.31,114.09,341,112.26Z"/><path d="M350.89,117.41a4.35,4.35,0,0,0-3-3.2c-1.3-.29-1.45.79-1.72,2a2.16,2.16,0,0,0,1,2.07,4.74,4.74,0,0,0,3.14.4A1,1,0,0,0,350.89,117.41Z"/><path d="M350.63,122.49a1.85,1.85,0,0,0,.39-2.28c-.5-.82-1.6-.86-2.82-.93a13,13,0,0,1-1.77-.58c-1.23-.52-2-1.37-3.3-.55-1,.64-.64,2.18-.82,3a8.32,8.32,0,0,1-.61,2.24c-.44.83-.89,1.67-.39,2.49a1.84,1.84,0,0,0,2.3.8S348.66,124.74,350.63,122.49Z"/><path d="M353.2,146.75a4.76,4.76,0,0,0,.45,3c.79,1.58,1.49,2.64,3.12,1.72s1.34-3.12.83-4S354,144.37,353.2,146.75Z"/><path d="M355.17,139.17a1.36,1.36,0,0,1,1.8-.35,4.07,4.07,0,0,1,2.25,2.37c.38,1.26.89,3.1-.23,3.64a3.28,3.28,0,0,1-3.88-1C353.83,142.48,354.65,139.6,355.17,139.17Z"/><path d="M359.86,137.57a1.54,1.54,0,0,1,2-.95s1.77.18,3,2.82a3.64,3.64,0,0,1-2,3.78C360.67,144.36,358.61,139.59,359.86,137.57Z"/><path d="M370.46,145.9a5.28,5.28,0,0,0-2.9-4.49c-1.48-.63-1.91.62-2.5,2.05a2.63,2.63,0,0,0,.71,2.68,5.77,5.77,0,0,0,3.65,1.18A1.17,1.17,0,0,0,370.46,145.9Z"/><path d="M369,151.89a2.25,2.25,0,0,0,1-2.63c-.41-1.09-1.71-1.38-3.14-1.73a15.82,15.82,0,0,1-2-1.1c-1.35-.88-2.05-2.06-3.8-1.39-1.38.54-1.25,2.46-1.66,3.45a10.25,10.25,0,0,1-1.22,2.51c-.72.9-1.44,1.8-1,2.88a2.22,2.22,0,0,0,2.56,1.47S366.17,154.12,369,151.89Z"/><path d="M341.7,260.65a4.71,4.71,0,0,0-2.07,2.2c-.76,1.59-1.16,2.79.56,3.51s3.28-.87,3.68-1.83S344.07,259.82,341.7,260.65Z"/><path d="M348.87,257.53a1.36,1.36,0,0,1,1.39,1.19,4.05,4.05,0,0,1-.48,3.24c-.76,1.08-1.89,2.61-3,2.06a3.27,3.27,0,0,1-1.61-3.66C345.45,258.52,348.22,257.38,348.87,257.53Z"/><path d="M353,260.23a1.55,1.55,0,0,1,2,1s.95,1.5-.37,4.09a3.65,3.65,0,0,1-4.22.75C348.18,265.06,350.66,260.5,353,260.23Z"/><path d="M353,273.7a5.29,5.29,0,0,0,1.74-5.05c-.42-1.55-1.66-1.11-3.16-.7a2.62,2.62,0,0,0-1.66,2.21,5.72,5.72,0,0,0,1.31,3.6A1.18,1.18,0,0,0,353,273.7Z"/><path d="M347.4,276.25a2.25,2.25,0,0,0,2.68-.85c.59-1,0-2.2-.59-3.54a16.4,16.4,0,0,1-.35-2.22c-.13-1.61.36-2.89-1.25-3.85-1.27-.76-2.71.53-3.73.81a10.18,10.18,0,0,1-2.73.6c-1.15,0-2.3,0-2.9,1a2.21,2.21,0,0,0,.43,2.91S343.89,275.4,347.4,276.25Z"/><path d="M301.32,320.7a4.5,4.5,0,0,0-2.51,1.32c-1.15,1.19-1.87,2.13-.56,3.29s3.17.22,3.81-.51S303.67,320.69,301.32,320.7Z"/><path d="M308.62,320.1a1.27,1.27,0,0,1,.87,1.48,3.79,3.79,0,0,1-1.41,2.72c-1,.73-2.46,1.75-3.28.93a3.07,3.07,0,0,1-.33-3.73C305.28,319.94,308.08,319.77,308.62,320.1Z"/><path d="M311.48,323.76a1.44,1.44,0,0,1,1.45,1.46s.39,1.62-1.56,3.52a3.42,3.42,0,0,1-4-.62C305.73,326.57,309.31,323.28,311.48,323.76Z"/><path d="M307.4,335.7a5,5,0,0,0,3.07-3.95c.09-1.5-1.14-1.5-2.59-1.58a2.44,2.44,0,0,0-2.14,1.46,5.32,5.32,0,0,0,.08,3.58A1.1,1.1,0,0,0,307.4,335.7Z"/><path d="M301.65,336.27a2.12,2.12,0,0,0,2.63.05c.83-.7.69-1.94.56-3.32a14.64,14.64,0,0,1,.35-2.08c.37-1.46,1.2-2.45.06-3.79-.9-1.05-2.56-.35-3.56-.4a9.62,9.62,0,0,1-2.6-.3c-1-.36-2-.72-2.86,0a2.06,2.06,0,0,0-.5,2.71S298.8,334.45,301.65,336.27Z"/><path d="M347.85,179a4.08,4.08,0,0,0-.9,2.43c-.06,1.5,0,2.59,1.62,2.57s2.29-1.78,2.28-2.67S349.43,177.55,347.85,179Z"/><path d="M352.44,174.13a1.15,1.15,0,0,1,1.49.48,3.46,3.46,0,0,1,.71,2.7c-.24,1.11-.61,2.69-1.67,2.63a2.78,2.78,0,0,1-2.49-2.33C350.08,176.06,351.88,174.23,352.44,174.13Z"/><path d="M356.61,174.87a1.32,1.32,0,0,1,1.88.11s1.25.86,1.08,3.34a3.12,3.12,0,0,1-3.07,2C354.42,180.29,354.84,175.87,356.61,174.87Z"/><path d="M361.12,185.47a4.52,4.52,0,0,0-.33-4.55c-.85-1.08-1.68-.33-2.72.5a2.25,2.25,0,0,0-.56,2.3,4.92,4.92,0,0,0,2.24,2.39A1,1,0,0,0,361.12,185.47Z"/><path d="M357.56,189.36a1.92,1.92,0,0,0,1.82-1.57c.13-1-.72-1.73-1.64-2.59a13,13,0,0,1-1-1.63c-.64-1.22-.69-2.39-2.28-2.61-1.25-.17-1.95,1.33-2.65,1.89a8.65,8.65,0,0,1-2,1.38c-.9.38-1.81.76-1.95,1.74a1.9,1.9,0,0,0,1.31,2.15S354.51,189.86,357.56,189.36Z"/><path d="M339.25,230.38a3.63,3.63,0,0,0-.8,2.18c-.06,1.35,0,2.32,1.46,2.31s2-1.6,2-2.4S340.68,229.08,339.25,230.38Z"/><path d="M343.38,226a1,1,0,0,1,1.34.43,3.13,3.13,0,0,1,.63,2.43c-.21,1-.55,2.42-1.5,2.37a2.52,2.52,0,0,1-2.24-2.1C341.26,227.75,342.87,226.11,343.38,226Z"/><path d="M347.13,226.68a1.18,1.18,0,0,1,1.68.09s1.12.78,1,3a2.8,2.8,0,0,1-2.76,1.79C345.16,231.55,345.54,227.57,347.13,226.68Z"/><path d="M351.17,236.2a4.06,4.06,0,0,0-.29-4.09c-.76-1-1.51-.29-2.44.45a2,2,0,0,0-.51,2.07,4.41,4.41,0,0,0,2,2.14A.9.9,0,0,0,351.17,236.2Z"/><path d="M348,239.69a1.73,1.73,0,0,0,1.63-1.4c.12-.89-.64-1.57-1.48-2.33a12,12,0,0,1-.92-1.47c-.57-1.1-.61-2.15-2-2.34-1.12-.16-1.75,1.19-2.39,1.7a7.88,7.88,0,0,1-1.75,1.24c-.82.33-1.63.67-1.75,1.56a1.69,1.69,0,0,0,1.17,1.93S345.24,240.14,348,239.69Z"/><path d="M155,336a3.6,3.6,0,0,0-2-1.18c-1.3-.3-2.26-.4-2.51,1s1.18,2.29,2,2.43S155.94,337.57,155,336Z"/><path d="M158.43,340.75a1,1,0,0,1-.66,1.22,3,3,0,0,1-2.47.17c-.93-.38-2.25-1-2-1.88a2.47,2.47,0,0,1,2.44-1.79C157.14,338.38,158.43,340.24,158.43,340.75Z"/><path d="M157.1,344.26a1.17,1.17,0,0,1-.4,1.62s-1,.95-3.09.39a2.75,2.75,0,0,1-1.24-3C152.74,341.47,156.52,342.56,157.1,344.26Z"/><path d="M147.12,346.45a4,4,0,0,0,4,.46c1.08-.56.55-1.41,0-2.45a2,2,0,0,0-1.92-.87,4.36,4.36,0,0,0-2.44,1.56A.89.89,0,0,0,147.12,346.45Z"/><path d="M144.32,342.72a1.72,1.72,0,0,0,1.07,1.84c.83.27,1.63-.35,2.53-1a11.83,11.83,0,0,1,1.59-.63c1.17-.36,2.19-.2,2.64-1.55.36-1.06-.83-1.92-1.21-2.63a7.64,7.64,0,0,1-.88-1.93c-.18-.85-.36-1.7-1.19-2a1.67,1.67,0,0,0-2.09.79S144.38,340,144.32,342.72Z"/><path d="M164.45,30.48a4.67,4.67,0,0,0,3-.33c1.58-.72,2.66-1.37,1.82-3s-3-1.43-3.94-1S162.13,29.59,164.45,30.48Z"/><path d="M157.05,28.26a1.34,1.34,0,0,1-.28-1.78,4,4,0,0,1,2.42-2.13c1.26-.33,3.09-.77,3.58.35a3.23,3.23,0,0,1-1.12,3.79C160.26,29.7,157.45,28.79,157.05,28.26Z"/><path d="M155.65,23.58a1.52,1.52,0,0,1-.87-2s.25-1.74,2.89-2.85a3.61,3.61,0,0,1,3.66,2.13C162.37,23,157.59,24.88,155.65,23.58Z"/><path d="M164.25,13.43a5.23,5.23,0,0,0-4.54,2.7c-.67,1.43.54,1.9,1.93,2.54a2.58,2.58,0,0,0,2.67-.61,5.65,5.65,0,0,0,1.3-3.54A1.16,1.16,0,0,0,164.25,13.43Z"/><path d="M170.1,15.08A2.24,2.24,0,0,0,167.54,14c-1.08.37-1.42,1.64-1.82,3a14.87,14.87,0,0,1-1.15,1.9c-.93,1.3-2.11,1.95-1.51,3.7.47,1.38,2.38,1.33,3.33,1.76a10.34,10.34,0,0,1,2.44,1.3c.85.74,1.71,1.49,2.8,1.11a2.18,2.18,0,0,0,1.54-2.46S172.2,18,170.1,15.08Z"/><path d="M199.15,39.42a3.93,3.93,0,0,0,2.5,0c1.4-.43,2.36-.85,1.84-2.31s-2.37-1.52-3.18-1.23S197.32,38.43,199.15,39.42Z"/><path d="M193.23,36.78a1.14,1.14,0,0,1,0-1.52,3.37,3.37,0,0,1,2.25-1.51c1.08-.14,2.65-.31,2.94.68a2.71,2.71,0,0,1-1.34,3C195.75,38.32,193.51,37.26,193.23,36.78Z"/><path d="M192.57,32.73a1.28,1.28,0,0,1-.5-1.75s.39-1.42,2.71-2.06a3,3,0,0,1,2.81,2.16C198.23,33,194.05,34,192.57,32.73Z"/><path d="M200.81,25.21A4.37,4.37,0,0,0,196.76,27c-.72,1.12.24,1.64,1.33,2.32a2.15,2.15,0,0,0,2.28-.22,4.71,4.71,0,0,0,1.46-2.81A1,1,0,0,0,200.81,25.21Z"/><path d="M205.5,27.21a1.87,1.87,0,0,0-2-1.16c-.94.2-1.35,1.22-1.84,2.34a13.87,13.87,0,0,1-1.16,1.46c-.91,1-2,1.39-1.66,2.92.25,1.19,1.84,1.35,2.59,1.82a8.41,8.41,0,0,1,1.89,1.34c.63.71,1.27,1.42,2.21,1.23a1.84,1.84,0,0,0,1.54-1.89S206.94,29.84,205.5,27.21Z"/><path d="M230.66,23.71a3.93,3.93,0,0,0,2.5,0c1.4-.43,2.36-.85,1.83-2.31s-2.36-1.52-3.17-1.23S228.83,22.72,230.66,23.71Z"/><path d="M224.74,21.07a1.13,1.13,0,0,1,0-1.52A3.35,3.35,0,0,1,226.94,18c1.09-.14,2.66-.31,2.95.68a2.72,2.72,0,0,1-1.34,3C227.26,22.61,225,21.55,224.74,21.07Z"/><path d="M224.08,17a1.29,1.29,0,0,1-.51-1.75s.39-1.42,2.71-2.06a3,3,0,0,1,2.82,2.16C229.74,17.28,225.56,18.31,224.08,17Z"/><path d="M232.32,9.5a4.39,4.39,0,0,0-4.06,1.76c-.71,1.12.25,1.64,1.34,2.32a2.15,2.15,0,0,0,2.28-.22,4.76,4.76,0,0,0,1.46-2.81A1,1,0,0,0,232.32,9.5Z"/><path d="M237,11.5a1.87,1.87,0,0,0-2-1.16c-.94.2-1.36,1.22-1.84,2.34A13.87,13.87,0,0,1,232,14.14c-.91,1-2,1.39-1.66,2.92.25,1.19,1.84,1.35,2.59,1.82a8.41,8.41,0,0,1,1.89,1.34c.63.71,1.26,1.42,2.2,1.23a1.84,1.84,0,0,0,1.55-1.89S238.45,14.13,237,11.5Z"/><path d="M143.79,310.92c.67,1.49,1.21,3,1.94,4.48a15.21,15.21,0,0,0,2.75,3.9,27.22,27.22,0,0,0,7.72,5.61,18.38,18.38,0,0,0,9.21,2,39.2,39.2,0,0,0,4.82-.51c1.62-.22,3.22-.51,4.84-.71a58.38,58.38,0,0,1-9.61,2,18.19,18.19,0,0,1-5-.24,19.64,19.64,0,0,1-4.73-1.64,24.74,24.74,0,0,1-7.86-6,15.62,15.62,0,0,1-2.62-4.22C144.67,314.06,144.24,312.49,143.79,310.92Z"/><path d="M159.43,280.56a8.67,8.67,0,0,1,1.74-3.08,4.47,4.47,0,0,1,1.51-1.07,9,9,0,0,1,1.74-.56,8.47,8.47,0,0,1,3.65,0,6.64,6.64,0,0,1,1.75.64,15.9,15.9,0,0,0,1.55.68l.55.2-.26.52a12.17,12.17,0,0,1-2.1,3.11,6.6,6.6,0,0,1-3.3,1.9,6.35,6.35,0,0,1-3.74-.36A12.13,12.13,0,0,1,159.43,280.56Zm0,0a14.13,14.13,0,0,0,3.26,1.45,5.78,5.78,0,0,0,6.15-1.74,11.73,11.73,0,0,0,1.88-2.88l.29.72a13.65,13.65,0,0,1-1.64-.75,6.78,6.78,0,0,0-1.51-.6,8.27,8.27,0,0,0-3.29-.11,5.73,5.73,0,0,0-3,1.19A9.72,9.72,0,0,0,159.43,280.56Z"/><path class="cls-1" d="M180.36,240.79a33,33,0,0,1-4.65-25.18c6.63,5.19,14.37,9.56,21.51,14A80,80,0,0,1,216.08,246a34.35,34.35,0,0,1,8.4,22.94,40.35,40.35,0,0,1-6.21,20.53c-2.7,4.39-5.81,8.69-10.08,11.57s-10.33,6.46-15.53,7.64c-6.77,1.55-8.25,1.92-15.19,1.52a52,52,0,0,1-11.89-2.86c-5.07-2.48-8.06-5.67-9.4-8.06-2.69-4.75-.43-8.07-1.24-13.47a10.22,10.22,0,0,0-.47-2.18,13.32,13.32,0,0,0-1-1.78c-2.95-5.07,0-14.78,2.41-20.13s4-6.54,8.38-10.46C169.19,246.8,174.17,243.08,180.36,240.79Z"/><path d="M153.11,306.49c1.39.53,2.73,1.15,4.06,1.77s2.66,1.29,4,2,2.6,1.38,3.87,2.12,2.55,1.49,3.78,2.32c-1.38-.54-2.72-1.15-4.06-1.78s-2.65-1.29-4-2-2.6-1.38-3.88-2.13S154.35,307.31,153.11,306.49Z"/><path d="M148.23,307.72c2,1.51,3.93,3.09,5.86,4.68s3.81,3.23,5.71,4.84,3.76,3.3,5.6,5,3.68,3.38,5.46,5.14c-2-1.52-3.93-3.1-5.86-4.69s-3.81-3.23-5.71-4.84-3.76-3.3-5.6-5S150,309.48,148.23,307.72Z"/><path d="M148.36,307.94c1.33,1.3,2.59,2.66,3.84,4s2.47,2.77,3.69,4.17,2.39,2.84,3.54,4.29,2.3,2.91,3.38,4.43c-1.33-1.3-2.59-2.66-3.84-4s-2.47-2.77-3.69-4.17-2.39-2.84-3.54-4.29S149.44,309.45,148.36,307.94Z"/><path d="M152.33,306.08c1.64,1.1,3.23,2.26,4.81,3.44s3.14,2.39,4.69,3.61,3.07,2.47,4.57,3.75,3,2.56,4.43,3.92c-1.64-1.1-3.23-2.27-4.81-3.44s-3.14-2.39-4.69-3.61-3.07-2.47-4.57-3.76S153.77,307.43,152.33,306.08Z"/><path d="M168.15,317.28a5.75,5.75,0,0,1-1.78,2,9.24,9.24,0,0,1-2.44,1.15,19.16,19.16,0,0,1-5.32.76,15.3,15.3,0,0,1-10.21-3.55,12.16,12.16,0,0,1-1.91-2.08,23.72,23.72,0,0,1-1.43-2.34,3.19,3.19,0,0,0-.62-.88,5.24,5.24,0,0,1-1-1.22,12.84,12.84,0,0,1-.6-1.28l-.51-1.26a25.14,25.14,0,0,1-.89-2.57c-.13-.43-.25-.87-.36-1.31-.06-.21-.11-.47-.14-.51s.1.13.16.13l-.37,0a4,4,0,0,1-.89-.17,4.27,4.27,0,0,1-1.5-.89,5,5,0,0,1-1.55-2.89,7.65,7.65,0,0,1,1.77-5.69c1.18-1.51,2.53-2.66,3.67-3.91a20.85,20.85,0,0,0,3-4A14.63,14.63,0,0,0,146.9,282c.3-1.66.34-3.39.48-5.17a24.79,24.79,0,0,1,.36-2.69,17.57,17.57,0,0,1,.76-2.61,25.44,25.44,0,0,1,1-2.49c.4-.84.88-1.56,1.34-2.33a32.1,32.1,0,0,1,3.15-4.26,47.09,47.09,0,0,0-2.62,4.56c-.38.78-.78,1.59-1.08,2.37a25.38,25.38,0,0,0-.79,2.47c-1.15,3.27-.5,6.73-1,10.4a15.38,15.38,0,0,1-1.62,5.3,22.81,22.81,0,0,1-3.16,4.51c-1.2,1.38-2.55,2.53-3.51,3.82a5.65,5.65,0,0,0-1.33,4.11,2.93,2.93,0,0,0,.88,1.68,2.17,2.17,0,0,0,.74.46,2.71,2.71,0,0,0,.41.09,3.07,3.07,0,0,1,.93.16,1.68,1.68,0,0,1,.67.46,1.87,1.87,0,0,1,.36.6c.13.37.15.55.21.76.1.41.21.83.32,1.24.24.81.5,1.63.8,2.43l.45,1.2c.17.42.32.81.48,1.13a3.41,3.41,0,0,0,.65.84,5.42,5.42,0,0,1,.87,1.29,14,14,0,0,0,2.82,4.09,14.63,14.63,0,0,0,9.14,3.74,18.53,18.53,0,0,0,5.15-.28A7,7,0,0,0,168.15,317.28Z"/><ellipse class="cls-2" cx="140.85" cy="301.03" rx="2.5" ry="3.57" transform="translate(-191.43 294.24) rotate(-63.76)"/><path d="M221.08,249.32a66.21,66.21,0,0,1,11.69,21.46,52.12,52.12,0,0,1,2.4,12.15,42.5,42.5,0,0,1-1,12.41,38.4,38.4,0,0,1-4.84,11.48,41.72,41.72,0,0,1-8,9.47,68,68,0,0,1-21,12.62,82.21,82.21,0,0,0,19.82-13.8c1.49-1.35,2.72-2.93,4.06-4.41a45.41,45.41,0,0,0,3.37-4.91,36.82,36.82,0,0,0,4.51-10.93c1.85-7.72,1.18-15.9-1-23.61A73.66,73.66,0,0,0,227,259.94,77.23,77.23,0,0,0,221.08,249.32Z"/><path class="cls-3" d="M295.36,101.33l-12-13.65s-26.55,56.54-6,89.81C277.4,177.49,265.18,153.18,295.36,101.33Z"/><path d="M295,332.29a90.8,90.8,0,0,1-15.64-13.86c-.6-.63-1.15-1.31-1.7-2s-1.12-1.35-1.65-2c-1-1.41-2.12-2.78-3.07-4.26a71.9,71.9,0,0,1-5.24-9.09,73.38,73.38,0,0,1-7.44-30.47A57,57,0,0,1,261,260l.59.87a39.19,39.19,0,0,1-16-6.4,26.64,26.64,0,0,1-6.2-6.2,23.55,23.55,0,0,1-2.2-3.84,17.53,17.53,0,0,1-1.38-4.31l.62.77a11.49,11.49,0,0,1-5.13-3.33,8.26,8.26,0,0,1-2-5.95,12.08,12.08,0,0,1,2.1-5.73,41.65,41.65,0,0,1,3.54-4.61c2.51-2.9,5.2-5.58,7.91-8.23l4.09-3.94,1-1a4.48,4.48,0,0,0,.39-.41,3,3,0,0,0,.26-.42,7.48,7.48,0,0,0,.58-2.38,50.16,50.16,0,0,1,.78-5.72,22.28,22.28,0,0,1,2.08-5.57,27.17,27.17,0,0,1,3.35-4.85,30.16,30.16,0,0,1,4.2-4.1,34.61,34.61,0,0,1,10.23-5.6,40.46,40.46,0,0,1,11.44-2.3l4.45-.21-3.77,2.35a2.74,2.74,0,0,1-1.46.43,2.79,2.79,0,0,1-1.38-.37,4.37,4.37,0,0,1-1.56-1.67,12.68,12.68,0,0,1-1.21-3.5,41.39,41.39,0,0,1-.71-6.87,127,127,0,0,1,.4-13.53c.07-1.11.23-2.26.35-3.4s.38-2.25.56-3.38.49-2.23.77-3.33.58-2.2.93-3.28a100.88,100.88,0,0,1,4.93-12.64A177.4,177.4,0,0,1,296.9,104a241.77,241.77,0,0,1,16.18-21.55l.89-1.06.78,1.13a164.07,164.07,0,0,1,13.62,23.93,113.93,113.93,0,0,1,8.71,26.1,63,63,0,0,1,1.16,13.78A82.7,82.7,0,0,1,336.5,160a50.09,50.09,0,0,1-4.56,13,30.19,30.19,0,0,1-3.92,5.74,21.45,21.45,0,0,1-2.52,2.43,12.5,12.5,0,0,1-3,1.88l.15-.73a59.83,59.83,0,0,1,10.13,14.36,54.24,54.24,0,0,1,5.42,16.67,47.26,47.26,0,0,1-.71,17.46A55.5,55.5,0,0,1,330.81,247a55.65,55.65,0,0,0,6.41-16.2,47.64,47.64,0,0,0,.48-17.33A53.7,53.7,0,0,0,332.16,197,59.18,59.18,0,0,0,322,183l-.45-.46.6-.26a12,12,0,0,0,2.73-1.78,21,21,0,0,0,2.36-2.36,29.46,29.46,0,0,0,3.67-5.61,50.59,50.59,0,0,0,4.27-12.78,81.26,81.26,0,0,0,1.54-13.46,60.7,60.7,0,0,0-1.29-13.42,111.77,111.77,0,0,0-8.87-25.58A172.29,172.29,0,0,0,313,83.74l1.67.07a240.23,240.23,0,0,0-15.92,21.4,175.79,175.79,0,0,0-13.13,23.16,98.94,98.94,0,0,0-4.76,12.35,55.64,55.64,0,0,0-2.46,12.88,125.46,125.46,0,0,0-.45,13.27,39.18,39.18,0,0,0,.64,6.46,10.06,10.06,0,0,0,.94,2.82,2.08,2.08,0,0,0,.67.78.35.35,0,0,0,.22.07h.1s.12-.06,0,0l.67,2.14A36.18,36.18,0,0,0,261,186.44a29.25,29.25,0,0,0-3.92,3.79,25.11,25.11,0,0,0-3.09,4.45,19.58,19.58,0,0,0-1.89,5,45.83,45.83,0,0,0-.77,5.5,9.18,9.18,0,0,1-.8,3.09,5.26,5.26,0,0,1-.49.77,6,6,0,0,1-.59.62l-1,1-4.1,3.91c-2.7,2.62-5.37,5.27-7.82,8.08a40.65,40.65,0,0,0-3.38,4.35,10.08,10.08,0,0,0-1.83,4.77,6.25,6.25,0,0,0,1.44,4.56,9.61,9.61,0,0,0,4.25,2.8l.53.19.09.57a16.34,16.34,0,0,0,1.19,3.8,21.18,21.18,0,0,0,2,3.57,24.56,24.56,0,0,0,5.73,5.87,37.81,37.81,0,0,0,15.32,6.3l.71.14-.13.73a56.37,56.37,0,0,0-.73,10.26,71.25,71.25,0,0,0,.88,10.31,73.24,73.24,0,0,0,6,19.81,70.65,70.65,0,0,0,5,9.09c.9,1.48,2,2.86,3,4.28.52.7,1.07,1.37,1.6,2.05s1.07,1.37,1.66,2A94.13,94.13,0,0,0,295,332.29Z"/><ellipse cx="262.19" cy="211.11" rx="3.18" ry="5.11" transform="translate(-10.52 13.78) rotate(-2.95)"/><path d="M239,244.92a40.94,40.94,0,0,0,5.69,3.73,32.1,32.1,0,0,0,6.19,2.57,23.28,23.28,0,0,0,6.58,1c.56,0,1.12,0,1.68,0l1.68-.17a9.6,9.6,0,0,0,1.68-.25c.55-.12,1.12-.23,1.69-.33a18.63,18.63,0,0,1-6.71,1.72l-.87.07-.88,0c-.58,0-1.17,0-1.75-.11l-1.74-.29c-.58-.1-1.13-.29-1.7-.43a24.28,24.28,0,0,1-6.33-2.92A23.17,23.17,0,0,1,239,244.92Z"/><ellipse cx="234.37" cy="234.51" rx="5.23" ry="5.91" transform="translate(-95.01 272.38) rotate(-51.58)"/><path d="M23.1,192.48a158.83,158.83,0,0,0,33.33-19.59A161.47,161.47,0,0,0,71,160.17c4.51-4.61,9.1-9.2,13.29-14.06,1-1.22,2.06-2.46,3-3.75a36.91,36.91,0,0,0,2.48-4.08,49.08,49.08,0,0,0,3.78-8.76c2-6.08,2.45-12.55,3.56-19a99.82,99.82,0,0,1,4.66-19c2.3-6.17,5.8-11.78,9.37-17.17l1.35-2,.5,2.4c.83,4,2,7.86,3.07,11.79s2.2,7.9,3,12A52.12,52.12,0,0,1,120.28,111a24.84,24.84,0,0,1-3.49,12.19l-1.47-1.62a22.56,22.56,0,0,1,14.18-1.7,36.7,36.7,0,0,1,13.1,5.42,44.2,44.2,0,0,1,5.61,4.31c1.74,1.57,3.39,3.23,5,4.93,3.17,3.4,6.09,7,9.11,10.41a82.85,82.85,0,0,0,9.64,9.56A45.57,45.57,0,0,0,183.6,161a67.34,67.34,0,0,0,13,3.59,50.31,50.31,0,0,0,13.39.66l1.05-.11.29,1a21.1,21.1,0,0,1,.88,8.05,24.12,24.12,0,0,1-2,7.78,36.33,36.33,0,0,1-9.62,12.48,46.13,46.13,0,0,1-13.46,8.05,42.16,42.16,0,0,1-7.6,2.11,33.35,33.35,0,0,1-7.92.4,66.31,66.31,0,0,1-15.22-3.32l-3.67-1.2-1.82-.62a8.75,8.75,0,0,0-1.66-.41,27.38,27.38,0,0,0-7.32.22,51.27,51.27,0,0,0-7.33,1.61,32.76,32.76,0,0,0-6.87,2.82c-4.51,2.43-9.08,4.71-12.94,7.84a23.54,23.54,0,0,0-2.65,2.53c-.83.95-1.66,1.92-2.46,2.9a61.31,61.31,0,0,0-4.45,6.1c-1.36,2.12-2.57,4.35-3.78,6.6l-1.79,3.38c-.62,1.15-1.18,2.22-1.69,3.38A109.8,109.8,0,0,0,93,251.22c-1.26,4.91-2.17,10-3.25,15s-2.16,10-3.5,15A78.71,78.71,0,0,1,81,295.61c-4.66,9.23-11.57,17-18.64,24.32,3.44-3.78,6.81-7.64,9.89-11.71a74.55,74.55,0,0,0,8.09-12.94c4.38-9.22,6.11-19.38,8.17-29.38,1-5,1.86-10,3.08-15.06a110.17,110.17,0,0,1,4.8-14.7c.5-1.2,1.11-2.4,1.7-3.51l1.77-3.41c1.19-2.27,2.4-4.55,3.78-6.75a66,66,0,0,1,4.52-6.33c.81-1,1.64-2,2.48-3a25,25,0,0,1,2.86-2.78c4.09-3.37,8.73-5.73,13.19-8.18a34.75,34.75,0,0,1,7.28-3,54,54,0,0,1,7.64-1.7,29,29,0,0,1,8-.24,11.23,11.23,0,0,1,2.06.49l1.81.61,3.63,1.18a64.2,64.2,0,0,0,14.69,3.17,33.87,33.87,0,0,0,14.53-2.4A43.81,43.81,0,0,0,199,192.62,33.91,33.91,0,0,0,207.94,181a19.82,19.82,0,0,0,1-14.09l1.34.87a52.71,52.71,0,0,1-14.1-.64,66.25,66.25,0,0,1-13.53-3.75,47.46,47.46,0,0,1-12.3-7,82.58,82.58,0,0,1-9.91-9.88c-3-3.48-5.94-7-9-10.38a53.22,53.22,0,0,0-10.11-8.9,34.47,34.47,0,0,0-12.23-5.13,20.26,20.26,0,0,0-12.75,1.47l-3.6,1.78,2.13-3.4a22.72,22.72,0,0,0,3.19-11.09A50,50,0,0,0,116.9,99C115.31,91,112.61,83.3,111,75.19l1.85.37c-3.61,5.33-7.06,10.75-9.35,16.7a98.82,98.82,0,0,0-4.75,18.59C97.55,117.16,97,123.69,94.9,130a50.34,50.34,0,0,1-4,9,39.75,39.75,0,0,1-2.59,4.19c-1,1.33-2,2.58-3.09,3.81-4.32,4.88-8.92,9.4-13.53,14a160,160,0,0,1-14.85,12.56,162,162,0,0,1-16.27,10.6A159.62,159.62,0,0,1,23.1,192.48Z"/><circle cx="206.94" cy="171.8" r="4.13"/><path d="M141.14,158.69l-11-6.39,11-5.52-1.95,2.08a4.28,4.28,0,0,1,1.41,3.44,4,4,0,0,1-1.71,3.6v0Z"/></g></svg>