<svg id="Capa_1" data-name="Capa 1" xmlns="http://www.w3.org/2000/svg" viewBox="0 0 500 500"><defs><style>.cls-1{fill:#010101;}</style></defs><path class="cls-1" d="M39.63,198s-21.85,31.5-17.36,77.77,11.57,79.05,60.42,72,62.34-64,58.49-91.14S82.05,147.27,39.63,198Z"/><path class="cls-1" d="M159.81,30.3s27.64-17.36,47.57,8.35,35.34,45,32.77,79.7-7.43,84.83-40,87.41-67.3-15.43-85.94-61.06S142.89,35.82,159.81,30.3Z"/><path class="cls-1" d="M290.28,35.44S316,5.23,348.13,30.94c0,0,41.78,21.21,46.92,97.69,0,0-11.83,65-85.48,73.91C245.94,210.25,240.43,73.36,290.28,35.44Z"/><path class="cls-1" d="M472.17,340.72c23.78-89.33-28.91-137.87-28.91-137.87-30.43-29.46-52.71-2.88-81,26.69s-7.71,72.62-7.71,72.62S386.64,355.1,433,365.79C466.39,373.5,472.17,340.72,472.17,340.72Z"/><path class="cls-1" d="M269.05,371.91c1.21-1.36,3-7.7-1.4-7.66a8.31,8.31,0,0,0-4.69,2.47c-2.15,2.22-3.5,4-1,6.16S267.85,373.28,269.05,371.91Z"/><path class="cls-1" d="M275,376.26c-1.68-2-4.79-.64-6.65-.74a17.87,17.87,0,0,1-4.87-.56c-1.89-.68-3.81-1.34-5.35,0s-1.91,2.93-.94,5.07c0,0,5.76,10,11.1,13.36,1.53,1,3.37,1.41,4.92.09s1.28-3.64,1-6.21a28,28,0,0,1,.67-3.89C275.61,380.61,277.15,378.77,275,376.26Z"/><path class="cls-1" d="M280.32,371c1.87-1.37,2.18-3,2.62-5.1a2.37,2.37,0,0,0-1.62-2.76c-1-.62-6.25-.3-7.76,2.61s-.92,5.45.61,7S278.45,372.33,280.32,371Z"/><path class="cls-1" d="M362.81,346.51A412.82,412.82,0,0,1,324.67,301c-24.79-34.66-30.95-70.27-80.44-70.27-38.9,0-54.06,48.62-73.34,68.95,0,0-29.72,36.33-53.92,50.35-26.12,15.13-52.38,30.51-52.38,61.1s15.1,50.46,49,60.28c0,0,170.17,31,261.26,2.89,26-8,49-24.79,49-55.37S394.62,368.77,362.81,346.51ZM347.39,457.12Q335.48,468,315,468h-2.19a19.11,19.11,0,0,1-2.34-.15,54.39,54.39,0,0,1-22-4.4A53.81,53.81,0,0,1,271,451.38a56.36,56.36,0,0,1-11.61-18.2,60.55,60.55,0,0,1-4.22-22.74c0-2.34.12-4.61.34-6.84l-.33-9.49V393c0-17.93-14.23-16.52-14.23-16.52l-7,.07-9.25.08v21A11.81,11.81,0,0,1,236,409a11.12,11.12,0,0,1-.7,4.73,12.86,12.86,0,0,1-2.41,3.95,11.87,11.87,0,0,1-3.67,2.76,12.06,12.06,0,0,1-4.59,1.18H192.81a11.13,11.13,0,0,1-8-3.23,11.82,11.82,0,0,1-3.66-8,11.65,11.65,0,0,1,.7-4.82,12.26,12.26,0,0,1,2.34-3.94,11.52,11.52,0,0,1,3.59-2.69,12.25,12.25,0,0,1,4.59-1.18v-69.6a11,11,0,0,1-7.94-3.63,11.53,11.53,0,0,1-3.28-8.2,11.93,11.93,0,0,1,3.43-8.6,11,11,0,0,1,8.26-3.55h31.62a10.74,10.74,0,0,1,7.95,3.31,12.24,12.24,0,0,1,3.58,8,11.12,11.12,0,0,1-.7,4.73,13.49,13.49,0,0,1-2.34,3.95,10.73,10.73,0,0,1-3.66,2.76,12.52,12.52,0,0,1-4.67,1.18v22.1h30.53v-22.1a11.8,11.8,0,0,1-7.87-3.55,11.66,11.66,0,0,1-3.35-8.13,10.65,10.65,0,0,1,.71-4.57A11.7,11.7,0,0,1,247,308a14,14,0,0,1,3.66-2.76,9.7,9.7,0,0,1,4.6-1.1h32.09a10.69,10.69,0,0,1,7.63,3.39,12.27,12.27,0,0,1,3.43,8,11.93,11.93,0,0,1-.62,4.73,11.62,11.62,0,0,1-2.34,3.95,11.79,11.79,0,0,1-3.66,2.76,11.93,11.93,0,0,1-4.59,1.18v29.73l1.15-.54A52.61,52.61,0,0,1,309.7,353a75.24,75.24,0,0,1,7.54.45q4.36.45,9.2,1.42a70.18,70.18,0,0,1,9.49,2.6,39.62,39.62,0,0,1,8.37,4,21.92,21.92,0,0,1,6.11,5.82q2.4,3.44,2.41,9.84,0,10.14-4.6,13.57a16,16,0,0,1-9.72,3.43,14.74,14.74,0,0,1-7.69-2.16,14.3,14.3,0,0,1-5.58-6.19q-2.12-4-4.52-4.77a23.75,23.75,0,0,0-4.9-1c-1.66-.15-3.2-.22-4.6-.22q-10.86,0-17.42,7-6.23,6.67-6.51,20.22l0,3.57a47.4,47.4,0,0,0,1.82,12.23,27.83,27.83,0,0,0,5.35,10.22,22.23,22.23,0,0,0,8.22,6,26.25,26.25,0,0,0,10.33,2,37,37,0,0,0,7.23-.75,7.61,7.61,0,0,0,5.28-3.13,13,13,0,0,1,5.13-7.75,14.78,14.78,0,0,1,8.89-2.84,14,14,0,0,1,5.73,1.2A15.19,15.19,0,0,1,350,431a14.21,14.21,0,0,1,3.09,4.55,13.44,13.44,0,0,1,1.14,5.44Q354,451.45,347.39,457.12Z"/><path class="cls-1" d="M280,381.94c-2.71-.16-4,2.74-4,2.74s-1.3,3.9.16,6.71a2.06,2.06,0,0,0,3,.9c5.54-2.64,5.73-7.4,5.73-7.4C285,382.08,282.67,382.1,280,381.94Z"/><path class="cls-1" d="M289.4,372.67a2.71,2.71,0,0,0-2.72-2.74c-4.07-.89-10.76,5.29-7.63,8.18a6.39,6.39,0,0,0,7.42,1.14C290.12,375.7,289.4,372.67,289.4,372.67Z"/></svg>