<svg id="Capa_1" data-name="Capa 1" xmlns="http://www.w3.org/2000/svg" viewBox="0 0 500 500"><defs><style>.cls-1{fill:#c17e4d;}</style></defs><path class="cls-1" d="M327.19,466.9a19.87,19.87,0,0,0,7.78,10c6.13,4.13,10.86,6.58,14.94-.13s-1.54-14.12-5.26-16.39S325.25,456.56,327.19,466.9Z"/><path class="cls-1" d="M318.78,435.18s.67-5.14,5.84-5,9.09.22,13.09,4,9.65,9.5,6.67,13.76-8.71,6.69-16.19,4.36S317.75,437.82,318.78,435.18Z"/><path class="cls-1" d="M332.62,419.71s-1.11-6.21,5.3-7.55c0,0,6.83-3,16.73,4.13a15.29,15.29,0,0,1,.41,18C349.56,442.84,332.22,429.66,332.62,419.71Z"/><path class="cls-1" d="M388.46,428.3c-8.55-12-19.83-10.41-19.83-10.41-6.69.75-5.69,6.17-4.93,12.63s8.13,8.3,8.13,8.3,9.74,1.42,15.74-3.18C391.89,432.33,388.46,428.3,388.46,428.3Z"/><path class="cls-1" d="M395.48,453.15c1.65-4,1.92-8.52-1.83-11.62s-9.11-1.48-15,.16a64.86,64.86,0,0,1-9.45.07c-6.76-.47-11.75-3.32-16.76,2.75-3.93,4.77.49,11.55,1,16,0,0,1.45,7.32.72,11.71-.79,4.74-1.56,9.51,2.19,12.61s7.72,3.25,12.35.09C368.68,484.89,389.71,467.16,395.48,453.15Z"/><path class="cls-1" d="M12.1,297.8a21.35,21.35,0,0,0-7.25,11.53c-1.92,7.7-2.66,13.38,5.6,15s13.7-6.73,14.64-11.32S21.84,292.06,12.1,297.8Z"/><path class="cls-1" d="M41.05,277.69s5.44-1.2,7.18,4.07,3.11,9.27.71,14.71-6.06,13.22-11.45,11.77-10-6.34-10.34-14.75S38,277.61,41.05,277.69Z"/><path class="cls-1" d="M61.75,286s5.87-3.39,9.57,2.59c0,0,5.51,5.8,2,18.4a16.43,16.43,0,0,1-18,7C44.6,311.59,51.56,289.24,61.75,286Z"/><path class="cls-1" d="M73.54,345.54c8.94-13,3.24-23.84,3.24-23.84-3.21-6.48-8.32-3.48-14.56-.34s-5.4,11.24-5.4,11.24,2.13,10.36,9,14.73C70.73,350.49,73.54,345.54,73.54,345.54Z"/><path class="cls-1" d="M51,361.74c4.66.2,9.31-1.18,11.06-6.11s-1.83-9.74-5.68-15.14A71.12,71.12,0,0,1,52.86,331c-2-7-1-13.08-8.92-15.91-6.26-2.23-11.48,4.73-15.75,6.89,0,0-6.86,4.15-11.56,5-5.07.93-10.18,1.91-11.93,6.83s-.46,9,4.44,12.51C9.14,346.31,34.74,361.05,51,361.74Z"/><path class="cls-1" d="M27.22,30.32a19.67,19.67,0,0,0-9.48,8.22c-3.76,6.28-5.93,11.09.91,14.77S32.54,51,34.59,47.25,37.35,27.86,27.22,30.32Z"/><path class="cls-1" d="M58.15,20.33s5.12.39,5.24,5.51.26,9-3.31,13.16-8.89,10-13.26,7.32-7.08-8.25-5.16-15.78S55.49,19.45,58.15,20.33Z"/><path class="cls-1" d="M74.19,33.2s6.08-1.42,7.74,4.85c0,0,3.31,6.59-3.2,16.76A15.16,15.16,0,0,1,61,56.16C52.2,51.18,64.32,33.33,74.19,33.2Z"/><path class="cls-1" d="M68.63,88.89C80,79.8,77.88,68.72,77.88,68.72c-1.09-6.58-6.4-5.3-12.75-4.2S57.35,73,57.35,73s-.89,9.71,4,15.4C64.83,92.5,68.63,88.89,68.63,88.89Z"/><path class="cls-1" d="M44.43,97.14c4,1.42,8.52,1.45,11.39-2.42s1-9.09-1-14.88a65.24,65.24,0,0,1-.56-9.34c.11-6.71,2.66-11.8-3.61-16.43C45.77,50.43,39.3,55.16,35,55.93c0,0-7.16,1.82-11.54,1.33-4.73-.53-9.49-1-12.35,2.83s-2.82,7.8.56,12.22C11.62,72.31,30.26,92.17,44.43,97.14Z"/><path class="cls-1" d="M117.49,466.55a21.5,21.5,0,0,0,7,11.81c6,5.28,10.8,8.56,16.1,1.9s.26-15.41-3.43-18.36S116.81,455.16,117.49,466.55Z"/><path class="cls-1" d="M112.74,431.27s1.42-5.44,7-4.57,9.76,1.47,13.54,6.13,9.1,11.53,5.31,15.71-10.27,6-18,2.49S111.27,434,112.74,431.27Z"/><path class="cls-1" d="M129.74,416.49s-.35-6.83,6.73-7.4c0,0,7.75-2.28,17.44,6.72a16.59,16.59,0,0,1-2,19.39C144.84,443.69,128,427.15,129.74,416.49Z"/><path class="cls-1" d="M188.67,433.32c-7.58-14-19.93-13.89-19.93-13.89-7.31-.1-7,5.87-7,12.93s7.62,10,7.62,10,10.29,2.85,17.37-1.28C191.82,438.12,188.67,433.32,188.67,433.32Z"/><path class="cls-1" d="M192.85,461c2.32-4.09,3.23-8.91-.39-12.75s-9.6-2.84-16.22-1.87a71.82,71.82,0,0,1-10.18-1.21c-7.21-1.42-12.19-5.16-18.41.69-4.88,4.6-1,12.49-1.06,17.33,0,0,.57,8.07-.81,12.69-1.5,5-3,10,.64,13.87s7.86,4.55,13.28,1.77C159.7,491.54,184.74,475.32,192.85,461Z"/><path class="cls-1" d="M417.85,53.89A19.2,19.2,0,0,0,419.74,66c3.25,6.38,6.11,10.67,12.71,6.91s5.33-12.69,3.25-16.35S421.06,44.23,417.85,53.89Z"/><path class="cls-1" d="M425.61,23.09s3-4.05,7.29-1.49,7.6,4.46,9.18,9.57,3.72,12.58-.81,14.78-10.51,1.58-15.75-3.9S423.5,24.83,425.61,23.09Z"/><path class="cls-1" d="M444.59,16.47s2-5.77,8-3.9c0,0,7.18.68,12.22,11.35a14.81,14.81,0,0,1-8.08,15.41C448.09,44,439.59,24.71,444.59,16.47Z"/><path class="cls-1" d="M487.85,50c-1.62-14.14-11.91-18.12-11.91-18.12-6-2.51-7.71,2.55-10.1,8.38s3,10.84,3,10.84,7.58,5.78,14.82,4.7C488.87,55,487.85,50,487.85,50Z"/><path class="cls-1" d="M482.14,74.3c3.27-2.62,5.62-6.32,3.9-10.7s-7-5.53-12.83-6.93a63.74,63.74,0,0,1-8-4.37c-5.5-3.57-8.39-8.33-15.48-5.54-5.57,2.19-5,10-6.62,14,0,0-2.21,6.88-4.89,10.25-2.89,3.64-5.79,7.33-4.06,11.71s5,6.38,10.41,5.87C444.54,88.6,470.67,83.46,482.14,74.3Z"/><path class="cls-1" d="M423.45,334.85a18.62,18.62,0,0,0,4.38,11c4.43,5.3,8.05,8.73,13.45,3.77s2.29-13.08-.45-16.09S424.41,325.07,423.45,334.85Z"/><path class="cls-1" d="M424.15,304.19s1.94-4.45,6.54-3,8.11,2.56,10.71,7,6.19,11,2.4,14.09-9.55,3.74-15.66-.3S422.54,306.28,424.15,304.19Z"/><path class="cls-1" d="M440.61,293.89s.62-5.86,6.72-5.4c0,0,6.91-.89,13.94,8.07a14.28,14.28,0,0,1-4.3,16.23C449.8,319.07,437.66,302.72,440.61,293.89Z"/><path class="cls-1" d="M488.51,316.14c-4.56-13-15.1-14.51-15.1-14.51-6.2-1.07-6.71,4.06-7.71,10.06s5.14,9.57,5.14,9.57,8.37,3.81,15,1.24C490.55,320.65,488.51,316.14,488.51,316.14Z"/><path class="cls-1" d="M488.35,340.27c2.53-3.17,3.94-7.15,1.38-10.9s-7.79-3.7-13.56-3.77a60.77,60.77,0,0,1-8.5-2.4c-5.95-2.18-9.69-6-15.76-1.89-4.78,3.26-2.57,10.5-3.23,14.61,0,0-.61,6.95-2.4,10.7-1.94,4.05-3.88,8.13-1.32,11.89S451,363.44,456,361.8C456,361.8,479.52,351.36,488.35,340.27Z"/><path class="cls-1" d="M230.5,26.22a19.37,19.37,0,0,0-8.95,8.54c-3.42,6.36-5.34,11.21,1.58,14.51s13.58-2.88,15.42-6.71S240.37,23.33,230.5,26.22Z"/><path class="cls-1" d="M260.51,15s5.07.14,5.42,5.18.68,8.86-2.65,13.12S255,43.56,250.56,41.08s-7.36-7.81-5.82-15.31S257.85,14.2,260.51,15Z"/><path class="cls-1" d="M276.91,26.88s5.93-1.68,7.86,4.41c0,0,3.56,6.35-2.38,16.67A15,15,0,0,1,265,50.12C256.08,45.62,267.2,27.47,276.91,26.88Z"/><path class="cls-1" d="M274,82c10.79-9.48,8.18-20.29,8.18-20.29-1.38-6.44-6.56-4.93-12.76-3.55s-7.27,8.71-7.27,8.71-.43,9.6,4.62,15C270.44,85.74,274,82,274,82Z"/><path class="cls-1" d="M250.56,91.26c4.05,1.21,8.46,1,11.11-2.92s.55-9-1.63-14.61a63.49,63.49,0,0,1-1-9.18c-.21-6.62,2.07-11.74-4.32-16-5-3.36-11.18,1.61-15.42,2.57,0,0-7,2.12-11.31,1.84-4.68-.3-9.4-.59-12,3.36s-2.41,7.82,1.12,12C217.08,68.32,236.37,87,250.56,91.26Z"/><path class="cls-1" d="M478.36,165.84a8.34,8.34,0,0,0-10.85,12.57l-30.25,42.46a8.34,8.34,0,1,0-3.27,15.9,8.34,8.34,0,1,0,14.11-7.36l30.62-43a8.34,8.34,0,0,0,8.48-14.29,8.23,8.23,0,0,0-5.59-1.51A8.27,8.27,0,0,0,478.36,165.84Z"/><path class="cls-1" d="M7.91,159.6a9.56,9.56,0,0,0,11.56,15.13L60,218.63a9.56,9.56,0,0,0,14.16,12.73A9.46,9.46,0,0,0,77.09,226a9.56,9.56,0,1,0-4.94-17.56L31.1,164a9.56,9.56,0,1,0-17-6.94A9.51,9.51,0,0,0,7.91,159.6Z"/><path class="cls-1" d="M322.2,20.26a8.34,8.34,0,0,0,9.57,13.57l33.87,39.63A8.34,8.34,0,0,0,377.55,85a8.25,8.25,0,0,0,2.72-4.56A8.34,8.34,0,1,0,376.55,65L342.27,24.89a8.34,8.34,0,1,0-14.63-6.63A8.33,8.33,0,0,0,322.2,20.26Z"/><path class="cls-1" d="M176.57,19.91a8.73,8.73,0,0,0-13.85,10.51L122.5,67.28a8.73,8.73,0,1,0-6.81,15.56,8.73,8.73,0,1,0,16.05-4.45l40.72-37.31a8.73,8.73,0,1,0,6.4-15.55A8.71,8.71,0,0,0,176.57,19.91Z"/><path class="cls-1" d="M477.28,407.94A8.73,8.73,0,0,0,465,420.19l-35,41.87a8.73,8.73,0,1,0-4.69,16.33,8.73,8.73,0,1,0,15.32-6.55L476,429.46a8.73,8.73,0,1,0,4.28-16.26A8.65,8.65,0,0,0,477.28,407.94Z"/><path class="cls-1" d="M75.55,395.42a10.69,10.69,0,0,0-15.1,15L17.61,461.7a10.69,10.69,0,1,0-5.74,20,10.69,10.69,0,1,0,18.76-8L74,421.78a10.69,10.69,0,1,0,5.25-19.91A10.69,10.69,0,0,0,75.55,395.42Z"/><path class="cls-1" d="M239.39,401.7a9.58,9.58,0,0,0,4.35,18.58l19,56.82a9.58,9.58,0,1,0,12.56,13.78A9.58,9.58,0,1,0,278,472.8l-19.23-57.52A9.58,9.58,0,1,0,246,401.92,9.49,9.49,0,0,0,239.39,401.7Z"/></svg>