<svg xmlns="http://www.w3.org/2000/svg" viewBox="0 0 519.65 551.44"><defs><style>.cls-1{fill:#c17e4d;}</style></defs><g id="Capa_3" data-name="Capa 3"><path class="cls-1" d="M488.42,138.37a4.46,4.46,0,0,0-1.17,2.59c-.18,1.64-.17,2.84,1.58,2.95s2.64-1.78,2.7-2.76S490.26,136.91,488.42,138.37Z"/><path class="cls-1" d="M493.82,133.4a1.27,1.27,0,0,1,1.6.63,3.77,3.77,0,0,1,.56,3c-.34,1.19-.87,2.9-2,2.75a3.06,3.06,0,0,1-2.56-2.75C491.08,135.33,493.19,133.47,493.82,133.4Z"/><path class="cls-1" d="M498.33,134.52a1.45,1.45,0,0,1,2.05.26s1.3,1.05.93,3.75a3.43,3.43,0,0,1-3.52,2C495.52,140.29,496.32,135.48,498.33,134.52Z"/><path class="cls-1" d="M502.46,146.48a5,5,0,0,0,0-5c-.85-1.25-1.81-.49-3,.34a2.47,2.47,0,0,0-.8,2.48,5.36,5.36,0,0,0,2.27,2.78A1.11,1.11,0,0,0,502.46,146.48Z"/><path class="cls-1" d="M498.27,150.47a2.11,2.11,0,0,0,2.11-1.58c.22-1.06-.66-2-1.6-3a14.24,14.24,0,0,1-1-1.87c-.62-1.39-.57-2.67-2.3-3-1.35-.28-2.23,1.3-3.05,1.87a9.71,9.71,0,0,1-2.25,1.37c-1,.33-2.05.68-2.27,1.75a2.08,2.08,0,0,0,1.27,2.45S494.89,150.79,498.27,150.47Z"/><path class="cls-1" d="M487,28.52a4.44,4.44,0,0,0,2.84.05c1.58-.48,2.67-1,2.08-2.61s-2.67-1.73-3.59-1.4S484.89,27.4,487,28.52Z"/><path class="cls-1" d="M480.26,25.52a1.28,1.28,0,0,1-.05-1.72,3.82,3.82,0,0,1,2.55-1.71c1.23-.16,3-.34,3.33.78a3.08,3.08,0,0,1-1.52,3.43C483.11,27.27,480.57,26.07,480.26,25.52Z"/><path class="cls-1" d="M479.51,20.93a1.46,1.46,0,0,1-.57-2s.45-1.61,3.08-2.33a3.41,3.41,0,0,1,3.18,2.46C485.93,21.24,481.19,22.4,479.51,20.93Z"/><path class="cls-1" d="M488.87,12.42a5,5,0,0,0-4.6,2c-.81,1.27.27,1.86,1.5,2.64a2.45,2.45,0,0,0,2.59-.25A5.39,5.39,0,0,0,490,13.61,1.11,1.11,0,0,0,488.87,12.42Z"/><path class="cls-1" d="M494.19,14.69a2.11,2.11,0,0,0-2.28-1.31c-1.07.21-1.54,1.37-2.09,2.64a15.48,15.48,0,0,1-1.32,1.65c-1,1.11-2.24,1.58-1.88,3.31.27,1.36,2.08,1.54,2.92,2.07a9.64,9.64,0,0,1,2.14,1.52c.71.81,1.44,1.61,2.5,1.4a2.08,2.08,0,0,0,1.76-2.14S495.82,17.67,494.19,14.69Z"/><path class="cls-1" d="M421.87,21.44a4.4,4.4,0,0,0,2.83,0c1.59-.48,2.68-1,2.09-2.62s-2.68-1.72-3.6-1.39S419.79,20.32,421.87,21.44Z"/><path class="cls-1" d="M415.16,18.43a1.27,1.27,0,0,1,0-1.72A3.83,3.83,0,0,1,417.66,15c1.23-.15,3-.34,3.34.78a3.07,3.07,0,0,1-1.52,3.43C418,20.19,415.47,19,415.16,18.43Z"/><path class="cls-1" d="M414.42,13.84a1.44,1.44,0,0,1-.57-2s.44-1.61,3.07-2.33A3.42,3.42,0,0,1,420.11,12C420.83,14.15,416.09,15.31,414.42,13.84Z"/><path class="cls-1" d="M423.78,5.33a5,5,0,0,0-4.61,2c-.81,1.27.28,1.86,1.51,2.64a2.47,2.47,0,0,0,2.59-.25,5.38,5.38,0,0,0,1.66-3.19A1.1,1.1,0,0,0,423.78,5.33Z"/><path class="cls-1" d="M429.09,7.61a2.12,2.12,0,0,0-2.28-1.32c-1.06.22-1.54,1.38-2.09,2.65a14.09,14.09,0,0,1-1.32,1.65c-1,1.11-2.23,1.58-1.88,3.31.28,1.35,2.08,1.54,2.93,2.07a9.52,9.52,0,0,1,2.14,1.52c.71.8,1.43,1.61,2.5,1.39a2.06,2.06,0,0,0,1.75-2.13S430.72,10.59,429.09,7.61Z"/><path class="cls-1" d="M309.54,25.25a4.48,4.48,0,0,0,2.84.06c1.58-.49,2.67-1,2.08-2.62s-2.67-1.72-3.59-1.4S307.47,24.13,309.54,25.25Z"/><path class="cls-1" d="M302.84,22.25a1.27,1.27,0,0,1,0-1.72,3.82,3.82,0,0,1,2.55-1.71c1.23-.16,3-.34,3.33.78A3.07,3.07,0,0,1,307.15,23C305.69,24,303.15,22.8,302.84,22.25Z"/><path class="cls-1" d="M302.09,17.66a1.45,1.45,0,0,1-.57-2s.45-1.61,3.08-2.33a3.41,3.41,0,0,1,3.18,2.46C308.5,18,303.77,19.13,302.09,17.66Z"/><path class="cls-1" d="M311.45,9.15a5,5,0,0,0-4.6,2c-.82,1.27.27,1.86,1.5,2.64a2.46,2.46,0,0,0,2.59-.24,5.43,5.43,0,0,0,1.67-3.19A1.11,1.11,0,0,0,311.45,9.15Z"/><path class="cls-1" d="M316.77,11.43a2.11,2.11,0,0,0-2.28-1.32c-1.07.22-1.54,1.37-2.09,2.64a16.16,16.16,0,0,1-1.32,1.66c-1,1.11-2.24,1.57-1.89,3.3.28,1.36,2.08,1.54,2.93,2.07a9.46,9.46,0,0,1,2.14,1.53c.71.8,1.44,1.61,2.5,1.39a2.08,2.08,0,0,0,1.76-2.14S318.4,14.4,316.77,11.43Z"/><path class="cls-1" d="M199.6,24.33a4.44,4.44,0,0,0,2.83.06c1.59-.49,2.68-1,2.09-2.62s-2.68-1.72-3.6-1.4S197.52,23.21,199.6,24.33Z"/><path class="cls-1" d="M192.89,21.33a1.27,1.27,0,0,1,0-1.72,3.8,3.8,0,0,1,2.54-1.71c1.23-.16,3-.34,3.34.78a3.07,3.07,0,0,1-1.52,3.43C195.75,23.08,193.2,21.88,192.89,21.33Z"/><path class="cls-1" d="M192.15,16.74a1.45,1.45,0,0,1-.57-2s.44-1.61,3.08-2.33a3.41,3.41,0,0,1,3.18,2.46C198.56,17.05,193.82,18.21,192.15,16.74Z"/><path class="cls-1" d="M201.51,8.23a5,5,0,0,0-4.61,2c-.81,1.27.28,1.86,1.51,2.64A2.45,2.45,0,0,0,201,12.6a5.34,5.34,0,0,0,1.66-3.18A1.1,1.1,0,0,0,201.51,8.23Z"/><path class="cls-1" d="M206.82,10.51a2.1,2.1,0,0,0-2.28-1.32c-1.06.21-1.54,1.37-2.09,2.64a14.66,14.66,0,0,1-1.32,1.66c-1,1.11-2.23,1.57-1.88,3.3.28,1.36,2.08,1.54,2.93,2.07a9.89,9.89,0,0,1,2.14,1.52c.71.81,1.43,1.62,2.5,1.4a2.08,2.08,0,0,0,1.75-2.14S208.45,13.48,206.82,10.51Z"/><path class="cls-1" d="M86.73,22a4.44,4.44,0,0,0,2.83.06c1.59-.49,2.68-1,2.09-2.62S89,17.71,88.05,18,84.65,20.87,86.73,22Z"/><path class="cls-1" d="M80,19a1.27,1.27,0,0,1,0-1.72,3.77,3.77,0,0,1,2.54-1.71c1.23-.16,3-.34,3.34.78a3.07,3.07,0,0,1-1.52,3.43C82.88,20.74,80.33,19.54,80,19Z"/><path class="cls-1" d="M79.28,14.4a1.45,1.45,0,0,1-.57-2s.44-1.6,3.07-2.33A3.44,3.44,0,0,1,85,12.54C85.69,14.71,81,15.87,79.28,14.4Z"/><path class="cls-1" d="M88.64,5.89a5,5,0,0,0-4.61,2c-.81,1.28.28,1.86,1.51,2.64a2.46,2.46,0,0,0,2.59-.24,5.38,5.38,0,0,0,1.66-3.19A1.1,1.1,0,0,0,88.64,5.89Z"/><path class="cls-1" d="M94,8.17a2.1,2.1,0,0,0-2.28-1.32c-1.06.22-1.54,1.37-2.09,2.64a14.66,14.66,0,0,1-1.32,1.66c-1,1.11-2.23,1.57-1.88,3.3.28,1.36,2.08,1.54,2.93,2.07a9.49,9.49,0,0,1,2.13,1.53c.72.8,1.44,1.61,2.51,1.39A2.08,2.08,0,0,0,95.7,17.3S95.58,11.15,94,8.17Z"/><path class="cls-1" d="M365.48,32.68a4.43,4.43,0,0,0,2.41,1.49c1.61.38,2.8.53,3.13-1.2s-1.43-2.84-2.39-3S364.26,30.66,365.48,32.68Z"/><path class="cls-1" d="M361.23,26.68a1.27,1.27,0,0,1,.84-1.5,3.8,3.8,0,0,1,3.06-.18c1.14.49,2.77,1.24,2.48,2.37a3.1,3.1,0,0,1-3.06,2.18C362.8,29.64,361.22,27.31,361.23,26.68Z"/><path class="cls-1" d="M362.92,22.35a1.46,1.46,0,0,1,.53-2s1.2-1.16,3.83-.44a3.42,3.42,0,0,1,1.49,3.74C368.29,25.88,363.62,24.47,362.92,22.35Z"/><path class="cls-1" d="M375.31,19.78a5,5,0,0,0-5-.63c-1.35.68-.71,1.74,0,3a2.47,2.47,0,0,0,2.36,1.1,5.35,5.35,0,0,0,3.05-1.9A1.1,1.1,0,0,0,375.31,19.78Z"/><path class="cls-1" d="M378.73,24.45a2.12,2.12,0,0,0-1.29-2.3c-1-.35-2,.4-3.15,1.21a14.5,14.5,0,0,1-2,.76c-1.46.43-2.73.22-3.3,1.89-.46,1.31,1,2.38,1.46,3.27a9.47,9.47,0,0,1,1.07,2.4c.2,1,.42,2.12,1.44,2.47a2.07,2.07,0,0,0,2.6-.95S378.62,27.84,378.73,24.45Z"/><path class="cls-1" d="M250.27,33.24a4.44,4.44,0,0,0,2.42,1.48c1.61.39,2.79.54,3.12-1.19s-1.43-2.84-2.38-3S249.06,31.22,250.27,33.24Z"/><path class="cls-1" d="M246,27.24a1.26,1.26,0,0,1,.83-1.5,3.76,3.76,0,0,1,3.06-.18c1.14.49,2.77,1.24,2.48,2.36a3.07,3.07,0,0,1-3.06,2.19C247.59,30.2,246,27.87,246,27.24Z"/><path class="cls-1" d="M247.72,22.91a1.45,1.45,0,0,1,.52-2s1.2-1.16,3.83-.44a3.41,3.41,0,0,1,1.49,3.73C253.08,26.44,248.41,25,247.72,22.91Z"/><path class="cls-1" d="M260.11,20.34a5,5,0,0,0-5-.63c-1.34.68-.71,1.74,0,3a2.45,2.45,0,0,0,2.35,1.1,5.32,5.32,0,0,0,3.05-1.9A1.1,1.1,0,0,0,260.11,20.34Z"/><path class="cls-1" d="M263.52,25a2.11,2.11,0,0,0-1.29-2.3c-1-.35-2,.4-3.14,1.21a14.33,14.33,0,0,1-2,.76c-1.46.43-2.73.22-3.3,1.89-.45,1.3,1,2.38,1.46,3.27a9.47,9.47,0,0,1,1.07,2.4c.21,1,.42,2.11,1.45,2.47a2.07,2.07,0,0,0,2.6-1S263.41,28.4,263.52,25Z"/><path class="cls-1" d="M137.45,34.65a4.43,4.43,0,0,0,2.41,1.49c1.61.39,2.8.53,3.13-1.19s-1.43-2.85-2.39-3S136.23,32.63,137.45,34.65Z"/><path class="cls-1" d="M133.2,28.66a1.28,1.28,0,0,1,.84-1.51A3.8,3.8,0,0,1,137.1,27c1.14.49,2.77,1.24,2.48,2.36a3.07,3.07,0,0,1-3.06,2.18C134.77,31.62,133.19,29.29,133.2,28.66Z"/><path class="cls-1" d="M134.89,24.33a1.46,1.46,0,0,1,.53-2s1.2-1.16,3.83-.44a3.41,3.41,0,0,1,1.49,3.73C140.26,27.85,135.59,26.44,134.89,24.33Z"/><path class="cls-1" d="M147.28,21.76a5,5,0,0,0-5-.63c-1.35.68-.71,1.74-.05,3a2.47,2.47,0,0,0,2.36,1.11,5.41,5.41,0,0,0,3-1.9A1.1,1.1,0,0,0,147.28,21.76Z"/><path class="cls-1" d="M150.7,26.42a2.11,2.11,0,0,0-1.29-2.29c-1-.36-2,.4-3.15,1.21a13.76,13.76,0,0,1-2,.75c-1.46.44-2.73.23-3.3,1.89-.46,1.31,1,2.39,1.46,3.27a9.66,9.66,0,0,1,1.07,2.4c.2,1.06.42,2.12,1.44,2.48a2.08,2.08,0,0,0,2.6-1S150.59,29.82,150.7,26.42Z"/><path class="cls-1" d="M26.68,26.38a4.43,4.43,0,0,0,2.17-1.83c.87-1.41,1.38-2.49-.16-3.34s-3.15.46-3.62,1.31S24.38,26.9,26.68,26.38Z"/><path class="cls-1" d="M19.65,28.53a1.28,1.28,0,0,1-1.16-1.26,3.82,3.82,0,0,1,.79-3c.82-.92,2-2.24,3-1.61a3.07,3.07,0,0,1,1.11,3.59C23,28,20.25,28.74,19.65,28.53Z"/><path class="cls-1" d="M16.07,25.57a1.46,1.46,0,0,1-1.74-1.12s-.72-1.51.79-3.78a3.41,3.41,0,0,1,4-.25C21.1,21.58,18.3,25.57,16.07,25.57Z"/><path class="cls-1" d="M17.51,13a5,5,0,0,0-2.16,4.52c.23,1.5,1.43,1.22,2.87,1S20,16.63,20,16.63a5.42,5.42,0,0,0-.85-3.5A1.1,1.1,0,0,0,17.51,13Z"/><path class="cls-1" d="M23,11.21a2.12,2.12,0,0,0-2.58.51c-.66.87-.26,2,.16,3.37a13.51,13.51,0,0,1,.1,2.11c-.05,1.52-.64,2.66.76,3.73,1.1.84,2.58-.21,3.57-.37a9.35,9.35,0,0,1,2.61-.26c1.07.13,2.14.27,2.8-.6a2.08,2.08,0,0,0-.08-2.76S26.2,12.38,23,11.21Z"/><path class="cls-1" d="M34,77.58a4.43,4.43,0,0,0,1.54-2.38c.42-1.6.59-2.79-1.13-3.15s-2.88,1.37-3.08,2.32S31.93,78.76,34,77.58Z"/><path class="cls-1" d="M27.89,81.71a1.29,1.29,0,0,1-1.49-.87,3.82,3.82,0,0,1-.11-3.07c.51-1.12,1.29-2.74,2.41-2.42a3.06,3.06,0,0,1,2.12,3.1C30.88,80.2,28.52,81.73,27.89,81.71Z"/><path class="cls-1" d="M23.59,79.93a1.44,1.44,0,0,1-2-.56s-1.14-1.23-.37-3.85A3.43,3.43,0,0,1,25,74.11C27.23,74.63,25.73,79.27,23.59,79.93Z"/><path class="cls-1" d="M21.28,67.49a5,5,0,0,0-.73,5c.65,1.36,1.72.75,3,.11a2.46,2.46,0,0,0,1.15-2.34,5.4,5.4,0,0,0-1.83-3.09A1.1,1.1,0,0,0,21.28,67.49Z"/><path class="cls-1" d="M26,64.16a2.12,2.12,0,0,0-2.32,1.25c-.38,1,.36,2,1.15,3.17a15.62,15.62,0,0,1,.71,2c.4,1.47.17,2.73,1.82,3.34,1.3.48,2.41-1,3.3-1.4a9.53,9.53,0,0,1,2.42-1c1.06-.18,2.13-.37,2.51-1.39a2.09,2.09,0,0,0-.9-2.62S29.4,64.35,26,64.16Z"/><path class="cls-1" d="M36.43,179.83A4.43,4.43,0,0,0,38,177.45c.42-1.61.58-2.79-1.14-3.15s-2.87,1.37-3.07,2.32S34.39,181,36.43,179.83Z"/><path class="cls-1" d="M30.35,184a1.28,1.28,0,0,1-1.49-.86,3.82,3.82,0,0,1-.11-3.07c.51-1.12,1.29-2.74,2.41-2.42a3.06,3.06,0,0,1,2.12,3.09C33.34,182.45,31,184,30.35,184Z"/><path class="cls-1" d="M26.05,182.18a1.44,1.44,0,0,1-2-.57s-1.14-1.22-.37-3.84a3.43,3.43,0,0,1,3.77-1.41C29.69,176.88,28.19,181.52,26.05,182.18Z"/><path class="cls-1" d="M23.74,169.74a5,5,0,0,0-.74,5c.66,1.36,1.73.74,3,.11a2.46,2.46,0,0,0,1.15-2.34,5.38,5.38,0,0,0-1.84-3.09A1.09,1.09,0,0,0,23.74,169.74Z"/><path class="cls-1" d="M28.47,166.41a2.12,2.12,0,0,0-2.32,1.25c-.38,1,.36,2,1.15,3.17a15.62,15.62,0,0,1,.71,2c.4,1.47.17,2.73,1.82,3.34,1.3.48,2.41-1,3.3-1.4a9.53,9.53,0,0,1,2.42-1c1.06-.18,2.13-.37,2.51-1.39a2.09,2.09,0,0,0-.9-2.62S31.86,166.6,28.47,166.41Z"/><path class="cls-1" d="M23.28,123.79a4.44,4.44,0,0,0-.36-2.81c-.71-1.5-1.35-2.51-2.9-1.68s-1.31,2.9-.85,3.76S22.47,126,23.28,123.79Z"/><path class="cls-1" d="M21.29,130.87a1.27,1.27,0,0,1-1.69.29,3.8,3.8,0,0,1-2.07-2.27c-.33-1.19-.78-2.93.28-3.41a3.08,3.08,0,0,1,3.62,1C22.61,127.78,21.79,130.48,21.29,130.87Z"/><path class="cls-1" d="M16.86,132.28a1.45,1.45,0,0,1-1.88.85s-1.66-.21-2.76-2.7a3.43,3.43,0,0,1,2-3.51C16.22,125.89,18.07,130.4,16.86,132.28Z"/><path class="cls-1" d="M7.07,124.26a5,5,0,0,0,2.64,4.27c1.37.61,1.8-.55,2.39-1.88a2.46,2.46,0,0,0-.63-2.52A5.32,5.32,0,0,0,8.08,123,1.09,1.09,0,0,0,7.07,124.26Z"/><path class="cls-1" d="M8.54,118.67a2.13,2.13,0,0,0-1,2.45c.37,1,1.59,1.32,2.93,1.68a15.34,15.34,0,0,1,1.82,1.06c1.25.86,1.89,2,3.55,1.38,1.3-.47,1.22-2.28,1.62-3.2a9.62,9.62,0,0,1,1.19-2.34c.69-.82,1.39-1.65,1-2.68a2.09,2.09,0,0,0-2.38-1.42S11.25,116.62,8.54,118.67Z"/><path class="cls-1" d="M497.44,215.77a4.32,4.32,0,0,0,.3,2.73c.66,1.45,1.25,2.44,2.76,1.67s1.33-2.77.9-3.61S498.26,213.64,497.44,215.77Z"/><path class="cls-1" d="M499.5,209a1.24,1.24,0,0,1,1.65-.25,3.65,3.65,0,0,1,2,2.23c.3,1.16.69,2.85-.34,3.29a3,3,0,0,1-3.48-1C498.17,211.92,499,209.34,499.5,209Z"/><path class="cls-1" d="M503.81,207.7a1.41,1.41,0,0,1,1.84-.79s1.6.23,2.61,2.66a3.32,3.32,0,0,1-2,3.36C504.3,213.88,502.61,209.48,503.81,207.7Z"/><path class="cls-1" d="M513.12,215.63a4.8,4.8,0,0,0-2.47-4.17c-1.32-.62-1.75.49-2.34,1.77a2.37,2.37,0,0,0,.55,2.45,5.17,5.17,0,0,0,3.26,1.2A1.07,1.07,0,0,0,513.12,215.63Z"/><path class="cls-1" d="M511.58,221a2,2,0,0,0,1-2.35c-.34-1-1.51-1.31-2.79-1.68a13.61,13.61,0,0,1-1.75-1.07c-1.19-.85-1.78-1.94-3.4-1.4-1.27.43-1.22,2.19-1.63,3.06a8.92,8.92,0,0,1-1.2,2.24c-.68.78-1.37,1.57-1,2.57A2,2,0,0,0,503,223.8S508.93,222.93,511.58,221Z"/><path class="cls-1" d="M494.68,75.05a4.31,4.31,0,0,0,.57,2.68c.8,1.39,1.49,2.31,2.92,1.4s1-2.9.53-3.69S495.29,72.85,494.68,75.05Z"/><path class="cls-1" d="M496.05,68.08a1.24,1.24,0,0,1,1.61-.42,3.71,3.71,0,0,1,2.17,2c.41,1.13,1,2.76,0,3.31a3,3,0,0,1-3.56-.69C495,71.15,495.6,68.49,496.05,68.08Z"/><path class="cls-1" d="M500.21,66.38a1.41,1.41,0,0,1,1.75-1s1.61.07,2.86,2.39a3.31,3.31,0,0,1-1.62,3.54C501.32,72.49,499.19,68.28,500.21,66.38Z"/><path class="cls-1" d="M510.27,73.35a4.81,4.81,0,0,0-2.88-3.91c-1.37-.49-1.69.66-2.15,2a2.37,2.37,0,0,0,.79,2.39,5.19,5.19,0,0,0,3.37.87A1.07,1.07,0,0,0,510.27,73.35Z"/><path class="cls-1" d="M509.28,78.85a2,2,0,0,0,.74-2.44c-.43-1-1.63-1.15-2.94-1.39a14.09,14.09,0,0,1-1.85-.88c-1.27-.74-2-1.76-3.52-1.06-1.22.56-1,2.3-1.31,3.21a9.48,9.48,0,0,1-1,2.34c-.61.85-1.21,1.71-.77,2.67a2,2,0,0,0,2.39,1.18S506.82,81,509.28,78.85Z"/><path class="cls-1" d="M485.08,102.84a2.68,2.68,0,0,0,3.86,3.68l13.11,10.36a2.68,2.68,0,1,0,5,1.3,2.64,2.64,0,0,0,1.76-1,2.67,2.67,0,0,0-3.89-3.64l-13.28-10.5a2.67,2.67,0,1,0-5-1.17A2.62,2.62,0,0,0,485.08,102.84Z"/><path class="cls-1" d="M272.37,15a2.68,2.68,0,0,0,3.86,3.68L289.35,29a2.67,2.67,0,1,0,5,1.3,2.68,2.68,0,1,0-2.14-4.64L279,15.17A2.68,2.68,0,1,0,274,14,2.72,2.72,0,0,0,272.37,15Z"/><path class="cls-1" d="M157.69,15.3A2.67,2.67,0,0,0,161.54,19l13.12,10.37a2.67,2.67,0,0,0,4.46,2.9,2.62,2.62,0,0,0,.58-1.6A2.67,2.67,0,0,0,181,25.89a2.68,2.68,0,0,0-3.45.11L164.29,15.51a2.68,2.68,0,1,0-5-1.18A2.64,2.64,0,0,0,157.69,15.3Z"/><path class="cls-1" d="M9.85,87.07a2.67,2.67,0,0,0,3.85,3.67l13.12,10.37a2.67,2.67,0,1,0,5,1.3,2.67,2.67,0,1,0-2.13-4.64L16.45,87.28a2.67,2.67,0,1,0-5-1.18A2.63,2.63,0,0,0,9.85,87.07Z"/><path class="cls-1" d="M8.24,192.15a2.67,2.67,0,0,0,3.85,3.67l13.12,10.37a2.67,2.67,0,1,0,5,1.3,2.64,2.64,0,0,0,1.76-1,2.68,2.68,0,0,0-3.89-3.65L14.84,192.36a2.67,2.67,0,1,0-5-1.18A2.68,2.68,0,0,0,8.24,192.15Z"/><path class="cls-1" d="M44.86,12.47a2.67,2.67,0,0,0,3.85,3.68L61.83,26.52a2.67,2.67,0,0,0,4.46,2.9,2.62,2.62,0,0,0,.58-1.6,2.67,2.67,0,0,0,1.32-4.75,2.68,2.68,0,0,0-3.45.11L51.46,12.69a2.68,2.68,0,1,0-5-1.18A2.67,2.67,0,0,0,44.86,12.47Z"/><path class="cls-1" d="M384.37,11.81a2.67,2.67,0,0,0,3.85,3.68l13.12,10.37a2.67,2.67,0,0,0,4.46,2.9,2.71,2.71,0,0,0,.58-1.6,2.7,2.7,0,0,0,1.75-1,2.67,2.67,0,0,0-3.89-3.64L391,12a2.68,2.68,0,0,0-4.45-2.94,2.7,2.7,0,0,0-.57,1.77A2.67,2.67,0,0,0,384.37,11.81Z"/><path class="cls-1" d="M504.55,169a2.48,2.48,0,0,0-3.23,3.74l-9,12.65a2.48,2.48,0,1,0-1,4.73,2.45,2.45,0,0,0,1,1.58,2.48,2.48,0,0,0,3.2-3.77l9.12-12.8a2.49,2.49,0,1,0,.86-4.71A2.43,2.43,0,0,0,504.55,169Z"/><path class="cls-1" d="M506.24,28A2.49,2.49,0,0,0,503,31.71l-9,12.64a2.48,2.48,0,1,0-1,4.73,2.48,2.48,0,0,0,4.47,1,2.5,2.5,0,0,0-.27-3.2l9.12-12.8a2.48,2.48,0,0,0,2.53-4.25,2.5,2.5,0,0,0-1.67-.45A2.46,2.46,0,0,0,506.24,28Z"/><path class="cls-1" d="M458.22,6.73A2.49,2.49,0,0,0,455,10.48l-9,12.64a2.48,2.48,0,1,0-1,4.73,2.48,2.48,0,0,0,4.47,1,2.5,2.5,0,0,0-.27-3.2l9.12-12.79a2.49,2.49,0,1,0,.86-4.71A2.46,2.46,0,0,0,458.22,6.73Z"/><path class="cls-1" d="M345.91,10.46a2.48,2.48,0,0,0-3.23,3.75l-9,12.64a2.48,2.48,0,1,0-1,4.73,2.48,2.48,0,1,0,4.2-2.19L346,16.59a2.48,2.48,0,1,0,.86-4.7A2.5,2.5,0,0,0,345.91,10.46Z"/><path class="cls-1" d="M236.5,11.43a2.49,2.49,0,0,0-3.23,3.75l-9,12.64a2.48,2.48,0,1,0-1,4.73,2.47,2.47,0,0,0,1,1.59,2.48,2.48,0,0,0,3.2-3.78l9.12-12.8a2.48,2.48,0,1,0,.86-4.7A2.46,2.46,0,0,0,236.5,11.43Z"/><path class="cls-1" d="M123.09,8.88a2.48,2.48,0,0,0-3.23,3.74l-9,12.65a2.48,2.48,0,1,0-1,4.73,2.47,2.47,0,0,0,1,1.59,2.48,2.48,0,0,0,3.2-3.78L123.2,15a2.48,2.48,0,1,0,.86-4.7A2.46,2.46,0,0,0,123.09,8.88Z"/><path class="cls-1" d="M29.4,36.6a2.48,2.48,0,0,0-3.75,3.22L14.84,51a2.48,2.48,0,1,0-1.67,4.53,2.48,2.48,0,0,0,4.27,1.66A2.47,2.47,0,0,0,17.65,54L28.59,42.68a2.48,2.48,0,0,0,3.13-3.83,2.42,2.42,0,0,0-1.57-.69A2.5,2.5,0,0,0,29.4,36.6Z"/><path class="cls-1" d="M31.76,137.81A2.49,2.49,0,0,0,28,141L17.19,152.18a2.48,2.48,0,1,0-1.67,4.53A2.48,2.48,0,1,0,20,155.18l10.93-11.29a2.48,2.48,0,1,0,1.56-4.52A2.49,2.49,0,0,0,31.76,137.81Z"/><path class="cls-1" d="M492.54,407.93a4.42,4.42,0,0,0-1.89,2.12c-.66,1.51-1,2.66.63,3.28s3.05-.91,3.4-1.82S494.74,407.08,492.54,407.93Z"/><path class="cls-1" d="M499.18,404.8a1.27,1.27,0,0,1,1.34,1.08,3.8,3.8,0,0,1-.37,3.05c-.68,1-1.7,2.51-2.76,2a3.08,3.08,0,0,1-1.61-3.39C496,405.82,498.56,404.67,499.18,404.8Z"/><path class="cls-1" d="M503.15,407.22a1.45,1.45,0,0,1,1.88.86s.93,1.38-.24,3.85a3.42,3.42,0,0,1-3.94.82C498.74,411.89,500.94,407.53,503.15,407.22Z"/><path class="cls-1" d="M503.51,419.86a5,5,0,0,0,1.5-4.78c-.44-1.45-1.59-1-3-.58a2.45,2.45,0,0,0-1.49,2.13,5.37,5.37,0,0,0,1.33,3.33A1.1,1.1,0,0,0,503.51,419.86Z"/><path class="cls-1" d="M498.33,422.42a2.11,2.11,0,0,0,2.48-.88c.53-1,0-2.06-.64-3.31a15.07,15.07,0,0,1-.4-2.07c-.17-1.51.25-2.73-1.28-3.58-1.21-.68-2.53.57-3.48.87a9.67,9.67,0,0,1-2.55.63c-1.07,0-2.16,0-2.69,1a2.09,2.09,0,0,0,.48,2.73S495,421.71,498.33,422.42Z"/><path class="cls-1" d="M486.93,276a4.41,4.41,0,0,0-1.66,2.3c-.51,1.58-.74,2.75,1,3.21s2.94-1.22,3.2-2.16S489,274.93,486.93,276Z"/><path class="cls-1" d="M493.22,272.2a1.28,1.28,0,0,1,1.44.94,3.81,3.81,0,0,1-.05,3.07c-.57,1.1-1.44,2.67-2.54,2.29a3.07,3.07,0,0,1-1.95-3.2C490.15,273.54,492.59,272.14,493.22,272.2Z"/><path class="cls-1" d="M497.41,274.2a1.45,1.45,0,0,1,2,.67s1.07,1.28.16,3.85a3.43,3.43,0,0,1-3.84,1.22C493.5,279.29,495.25,274.74,497.41,274.2Z"/><path class="cls-1" d="M499.07,286.75a5,5,0,0,0,1-4.92c-.58-1.39-1.68-.84-3-.27a2.47,2.47,0,0,0-1.28,2.27,5.4,5.4,0,0,0,1.67,3.18A1.1,1.1,0,0,0,499.07,286.75Z"/><path class="cls-1" d="M494.17,289.81a2.11,2.11,0,0,0,2.38-1.12c.43-1-.25-2.05-1-3.23a14.17,14.17,0,0,1-.61-2c-.32-1.48,0-2.74-1.64-3.43-1.27-.55-2.45.83-3.37,1.22a9.57,9.57,0,0,1-2.47.89c-1.07.13-2.14.26-2.57,1.26a2.08,2.08,0,0,0,.75,2.66S490.79,289.45,494.17,289.81Z"/><path class="cls-1" d="M33.88,296.23a4.43,4.43,0,0,0,1.54-2.38c.42-1.6.59-2.79-1.13-3.15s-2.87,1.37-3.08,2.32S31.84,297.41,33.88,296.23Z"/><path class="cls-1" d="M27.8,300.36a1.28,1.28,0,0,1-1.48-.87,3.82,3.82,0,0,1-.12-3.07c.52-1.12,1.29-2.74,2.42-2.42a3.06,3.06,0,0,1,2.11,3.1C30.8,298.85,28.43,300.38,27.8,300.36Z"/><path class="cls-1" d="M23.51,298.58a1.45,1.45,0,0,1-2-.57s-1.14-1.22-.37-3.84a3.43,3.43,0,0,1,3.77-1.41C27.14,293.28,25.64,297.92,23.51,298.58Z"/><path class="cls-1" d="M21.19,286.14a5,5,0,0,0-.73,5c.65,1.36,1.72.75,3,.11a2.46,2.46,0,0,0,1.15-2.34,5.4,5.4,0,0,0-1.83-3.09A1.11,1.11,0,0,0,21.19,286.14Z"/><path class="cls-1" d="M25.92,282.81a2.12,2.12,0,0,0-2.32,1.25c-.38,1,.36,2,1.15,3.17a14,14,0,0,1,.71,2c.4,1.47.17,2.73,1.83,3.34,1.3.48,2.4-1,3.29-1.4a9.48,9.48,0,0,1,2.43-1c1.06-.18,2.12-.37,2.5-1.39a2.08,2.08,0,0,0-.9-2.62S29.31,283,25.92,282.81Z"/><path class="cls-1" d="M33.88,413.09a4.48,4.48,0,0,0,1.54-2.39c.42-1.6.59-2.78-1.13-3.15s-2.87,1.37-3.08,2.33S31.84,414.26,33.88,413.09Z"/><path class="cls-1" d="M27.8,417.21a1.27,1.27,0,0,1-1.48-.86,3.82,3.82,0,0,1-.12-3.07c.52-1.13,1.29-2.74,2.42-2.43a3.07,3.07,0,0,1,2.11,3.1C30.8,415.7,28.43,417.23,27.8,417.21Z"/><path class="cls-1" d="M23.51,415.43a1.45,1.45,0,0,1-2-.56s-1.14-1.22-.37-3.84a3.43,3.43,0,0,1,3.77-1.42C27.14,410.14,25.64,414.78,23.51,415.43Z"/><path class="cls-1" d="M21.19,403a5,5,0,0,0-.73,5c.65,1.35,1.72.74,3,.1a2.45,2.45,0,0,0,1.15-2.33,5.4,5.4,0,0,0-1.83-3.09A1.11,1.11,0,0,0,21.19,403Z"/><path class="cls-1" d="M25.92,399.67a2.12,2.12,0,0,0-2.32,1.25c-.38,1,.36,2,1.15,3.17a13.46,13.46,0,0,1,.71,2c.4,1.46.17,2.73,1.83,3.34,1.3.48,2.4-1,3.29-1.4A9.48,9.48,0,0,1,33,407c1.06-.19,2.12-.38,2.5-1.4a2.08,2.08,0,0,0-.9-2.62S29.31,399.85,25.92,399.67Z"/><path class="cls-1" d="M22.76,228.79A4.44,4.44,0,0,0,22.4,226c-.71-1.5-1.35-2.51-2.9-1.68s-1.31,2.9-.85,3.76S22,231,22.76,228.79Z"/><path class="cls-1" d="M20.77,235.87a1.27,1.27,0,0,1-1.69.29A3.8,3.8,0,0,1,17,233.89c-.33-1.19-.78-2.93.28-3.41a3.08,3.08,0,0,1,3.62,1C22.09,232.78,21.27,235.48,20.77,235.87Z"/><path class="cls-1" d="M16.34,237.28a1.45,1.45,0,0,1-1.88.85s-1.66-.21-2.76-2.7a3.43,3.43,0,0,1,2-3.51C15.71,230.89,17.55,235.4,16.34,237.28Z"/><path class="cls-1" d="M6.55,229.26a5,5,0,0,0,2.64,4.27c1.38.61,1.8-.55,2.39-1.88a2.45,2.45,0,0,0-.62-2.52A5.36,5.36,0,0,0,7.56,228,1.1,1.1,0,0,0,6.55,229.26Z"/><path class="cls-1" d="M8,223.67a2.11,2.11,0,0,0-1,2.45c.37,1,1.58,1.32,2.92,1.68a15.91,15.91,0,0,1,1.83,1.06c1.25.86,1.89,2,3.54,1.38,1.3-.47,1.22-2.28,1.62-3.2a9.8,9.8,0,0,1,1.2-2.34c.69-.82,1.38-1.65,1-2.68a2.08,2.08,0,0,0-2.37-1.42S10.73,221.62,8,223.67Z"/><path class="cls-1" d="M24.8,346.45a4.44,4.44,0,0,0-.36-2.81c-.72-1.5-1.35-2.51-2.9-1.68s-1.31,2.9-.85,3.76S24,348.67,24.8,346.45Z"/><path class="cls-1" d="M22.81,353.53a1.28,1.28,0,0,1-1.69.29,3.8,3.8,0,0,1-2.07-2.27c-.33-1.19-.78-2.93.28-3.41a3.08,3.08,0,0,1,3.62,1C24.13,350.45,23.31,353.14,22.81,353.53Z"/><path class="cls-1" d="M18.38,354.94a1.45,1.45,0,0,1-1.88.85s-1.66-.2-2.76-2.7a3.43,3.43,0,0,1,2-3.51C17.74,348.55,19.59,353.06,18.38,354.94Z"/><path class="cls-1" d="M8.59,346.92a5,5,0,0,0,2.64,4.27c1.37.61,1.8-.55,2.39-1.88a2.46,2.46,0,0,0-.63-2.52,5.32,5.32,0,0,0-3.39-1.18A1.09,1.09,0,0,0,8.59,346.92Z"/><path class="cls-1" d="M10.06,341.33a2.13,2.13,0,0,0-1,2.45c.37,1,1.59,1.32,2.92,1.68a15,15,0,0,1,1.83,1.06c1.25.86,1.89,2,3.55,1.38,1.3-.47,1.22-2.28,1.62-3.2a9.62,9.62,0,0,1,1.19-2.34c.69-.82,1.39-1.65,1-2.68a2.09,2.09,0,0,0-2.38-1.42S12.77,339.28,10.06,341.33Z"/><path class="cls-1" d="M24.31,462.37a4.44,4.44,0,0,0-.36-2.81c-.71-1.5-1.35-2.51-2.9-1.68s-1.31,2.9-.85,3.76S23.5,464.58,24.31,462.37Z"/><path class="cls-1" d="M22.32,469.44a1.27,1.27,0,0,1-1.69.3,3.83,3.83,0,0,1-2.07-2.27c-.33-1.19-.78-2.93.28-3.41a3.08,3.08,0,0,1,3.62,1C23.64,466.36,22.82,469.05,22.32,469.44Z"/><path class="cls-1" d="M17.89,470.85a1.44,1.44,0,0,1-1.88.85s-1.66-.2-2.76-2.7a3.43,3.43,0,0,1,2-3.51C17.25,464.46,19.1,469,17.89,470.85Z"/><path class="cls-1" d="M8.1,462.84a5,5,0,0,0,2.64,4.26c1.37.62,1.8-.54,2.39-1.87a2.48,2.48,0,0,0-.63-2.53,5.38,5.38,0,0,0-3.39-1.18A1.1,1.1,0,0,0,8.1,462.84Z"/><path class="cls-1" d="M9.57,457.25a2.11,2.11,0,0,0-1,2.44c.37,1,1.59,1.33,2.93,1.69a13.85,13.85,0,0,1,1.82,1.06c1.26.86,1.89,2,3.55,1.38,1.3-.47,1.22-2.29,1.62-3.2a9.44,9.44,0,0,1,1.19-2.34c.69-.82,1.39-1.66,1-2.68a2.08,2.08,0,0,0-2.38-1.42S12.28,455.2,9.57,457.25Z"/><path class="cls-1" d="M495.34,483.12a4.33,4.33,0,0,0,.67,2.66c.86,1.35,1.59,2.25,3,1.28s.92-2.94.38-3.71S495.86,480.9,495.34,483.12Z"/><path class="cls-1" d="M496.43,476.1a1.23,1.23,0,0,1,1.59-.48,3.69,3.69,0,0,1,2.24,1.94c.46,1.11,1.09,2.72.13,3.31a3,3,0,0,1-3.59-.54C495.52,479.21,496,476.54,496.43,476.1Z"/><path class="cls-1" d="M500.52,474.24a1.41,1.41,0,0,1,1.71-1s1.61,0,2.95,2.27a3.31,3.31,0,0,1-1.48,3.6C501.87,480.3,499.57,476.18,500.52,474.24Z"/><path class="cls-1" d="M510.84,480.79a4.78,4.78,0,0,0-3-3.78c-1.4-.44-1.67.73-2.08,2.07a2.37,2.37,0,0,0,.89,2.35,5.21,5.21,0,0,0,3.4.74A1.07,1.07,0,0,0,510.84,480.79Z"/><path class="cls-1" d="M510.08,486.33a2,2,0,0,0,.64-2.46c-.47-.94-1.67-1.09-3-1.28a13.49,13.49,0,0,1-1.87-.81c-1.3-.68-2.05-1.67-3.57-.91-1.19.61-.9,2.34-1.18,3.26a9.3,9.3,0,0,1-.87,2.38c-.57.87-1.14,1.75-.67,2.69a2,2,0,0,0,2.45,1.1S507.71,488.61,510.08,486.33Z"/><path class="cls-1" d="M496.55,350.67a4.35,4.35,0,0,0,0,2.75c.5,1.52,1,2.56,2.57,1.95s1.61-2.62,1.27-3.5S497.59,348.65,496.55,350.67Z"/><path class="cls-1" d="M499.31,344.13a1.23,1.23,0,0,1,1.66-.08,3.65,3.65,0,0,1,1.7,2.42c.18,1.19.4,2.91-.67,3.24a3,3,0,0,1-3.35-1.39C497.67,346.93,498.78,344.44,499.31,344.13Z"/><path class="cls-1" d="M503.73,343.31a1.39,1.39,0,0,1,1.9-.59s1.57.39,2.32,2.92a3.3,3.3,0,0,1-2.31,3.13C503.57,349.51,502.34,345,503.73,343.31Z"/><path class="cls-1" d="M512.15,352.17a4.8,4.8,0,0,0-2-4.41c-1.24-.75-1.79.31-2.51,1.52a2.36,2.36,0,0,0,.29,2.49,5.17,5.17,0,0,0,3.12,1.54A1.06,1.06,0,0,0,512.15,352.17Z"/><path class="cls-1" d="M510.07,357.36a2,2,0,0,0,1.22-2.23c-.23-1-1.36-1.46-2.6-2a15.38,15.38,0,0,1-1.63-1.24c-1.09-1-1.57-2.12-3.23-1.74-1.31.29-1.44,2-1.94,2.87a9.45,9.45,0,0,1-1.42,2.1c-.77.71-1.53,1.42-1.3,2.45a2,2,0,0,0,2.11,1.65S507.23,359,510.07,357.36Z"/><path class="cls-1" d="M486.58,370.74a2.68,2.68,0,0,0,3.86,3.68l13.11,10.37a2.68,2.68,0,0,0,4.47,2.9,2.67,2.67,0,0,1,2.33-2.6,2.67,2.67,0,0,0-3.89-3.64L493.19,371a4.73,4.73,0,0,0-6.61-.22Z"/><path class="cls-1" d="M485.08,238.74a2.67,2.67,0,0,0,3.86,3.67l13.11,10.37a2.67,2.67,0,1,0,5,1.3,2.67,2.67,0,1,0-2.13-4.64L491.68,239a2.67,2.67,0,1,0-5-1.18A2.63,2.63,0,0,0,485.08,238.74Z"/><path class="cls-1" d="M11.23,315.41a2.67,2.67,0,0,0,3.85,3.68L28.2,329.46a2.67,2.67,0,1,0,5,1.3,2.67,2.67,0,1,0-2.13-4.64L17.83,315.63a2.67,2.67,0,0,0-4.44-2.95,2.65,2.65,0,0,0-.57,1.77A2.66,2.66,0,0,0,11.23,315.41Z"/><path class="cls-1" d="M11.69,427.6a2.67,2.67,0,0,0,3.86,3.67l13.11,10.37a2.68,2.68,0,0,0,4.47,2.9,2.61,2.61,0,0,0,.57-1.6,2.67,2.67,0,1,0-2.13-4.64L18.29,427.81a2.67,2.67,0,1,0-5-1.18A2.63,2.63,0,0,0,11.69,427.6Z"/><path class="cls-1" d="M504.13,439a2.48,2.48,0,0,0-3.24,3.74l-9,12.65a2.48,2.48,0,0,0-2.49,4.27,2.42,2.42,0,0,0,1.51.46,2.49,2.49,0,1,0,4.21-2.19l9.12-12.8a2.48,2.48,0,0,0,2.52-4.25,2.46,2.46,0,0,1-2.63-1.88Z"/><path class="cls-1" d="M506.2,305.86A2.48,2.48,0,0,0,503,309.6l-9,12.65a2.48,2.48,0,0,0-2.48,4.27A2.42,2.42,0,0,0,493,327a2.48,2.48,0,1,0,4.2-2.19l9.12-12.8a2.48,2.48,0,1,0,.86-4.7A2.41,2.41,0,0,0,506.2,305.86Z"/><path class="cls-1" d="M29.19,250.2a2.49,2.49,0,0,0-3.76,3.22L14.62,264.57a2.48,2.48,0,0,0-3.09,3.85,2.43,2.43,0,0,0,1.42.68,2.48,2.48,0,1,0,4.49-1.53l10.93-11.29a2.48,2.48,0,1,0,1.56-4.52A2.49,2.49,0,0,0,29.19,250.2Z"/><path class="cls-1" d="M30.63,368.38a2.48,2.48,0,0,0-3.75,3.21L16.07,382.74A2.49,2.49,0,0,0,13,386.6a2.55,2.55,0,0,0,1.43.68,2.48,2.48,0,1,0,4.48-1.54l10.94-11.28A2.49,2.49,0,0,0,33,370.63a2.53,2.53,0,0,0-1.58-.7A2.43,2.43,0,0,0,30.63,368.38Z"/><path class="cls-1" d="M31.36,480.41a2.49,2.49,0,0,0-3.76,3.22L16.8,494.78a2.48,2.48,0,0,0-3.1,3.85,2.4,2.4,0,0,0,1.43.68,2.42,2.42,0,0,0,.75,1.72,2.48,2.48,0,0,0,3.73-3.25l10.94-11.29a2.48,2.48,0,0,0,3.13-3.83A2.44,2.44,0,0,0,32.1,482,2.49,2.49,0,0,0,31.36,480.41Z"/><path class="cls-1" d="M481.23,513.37a2.67,2.67,0,0,0,3.85,3.67l13.12,10.37a4.94,4.94,0,1,0,2.91-3.34l-13.28-10.49a2.67,2.67,0,1,0-5-1.18A2.63,2.63,0,0,0,481.23,513.37Z"/><path class="cls-1" d="M30.53,516.24a4.45,4.45,0,0,0-2.08-1.93c-1.51-.69-2.64-1.06-3.3.57s.85,3.07,1.76,3.43S31.33,518.45,30.53,516.24Z"/><path class="cls-1" d="M33.54,522.94a1.27,1.27,0,0,1-1.11,1.31,3.77,3.77,0,0,1-3-.41c-1-.71-2.48-1.75-2-2.8a3.05,3.05,0,0,1,3.41-1.55C32.57,519.73,33.67,522.32,33.54,522.94Z"/><path class="cls-1" d="M31,526.86a1.45,1.45,0,0,1-.89,1.86s-1.41.91-3.85-.3a3.43,3.43,0,0,1-.74-4C26.46,522.37,30.77,524.65,31,526.86Z"/><path class="cls-1" d="M18.39,527a5,5,0,0,0,4.76,1.58c1.45-.41,1-1.57.63-3a2.46,2.46,0,0,0-2.1-1.54,5.36,5.36,0,0,0-3.36,1.28A1.1,1.1,0,0,0,18.39,527Z"/><path class="cls-1" d="M15.94,521.76a2.11,2.11,0,0,0,.82,2.5c.94.54,2.07,0,3.32-.59a14.63,14.63,0,0,1,2.09-.35c1.51-.15,2.72.3,3.6-1.22.7-1.2-.53-2.54-.81-3.49a9.75,9.75,0,0,1-.58-2.56c0-1.08,0-2.16-.94-2.71a2.08,2.08,0,0,0-2.74.43S16.7,518.45,15.94,521.76Z"/><path class="cls-1" d="M203,514.32a4.27,4.27,0,0,0-2.68-.6c-1.59.15-2.72.4-2.47,2.08s2.2,2.14,3.13,2S204.75,515.77,203,514.32Z"/><path class="cls-1" d="M208.77,518.45a1.22,1.22,0,0,1-.29,1.63,3.63,3.63,0,0,1-2.74,1.13c-1.19-.09-2.91-.26-3-1.38a3,3,0,0,1,2.1-3C206.41,516.24,208.58,517.86,208.77,518.45Z"/><path class="cls-1" d="M208.59,522.93a1.4,1.4,0,0,1,.16,2s-.73,1.44-3.36,1.61a3.3,3.3,0,0,1-2.54-2.94C202.59,521.41,207.29,521.22,208.59,522.93Z"/><path class="cls-1" d="M198.1,529.18a4.8,4.8,0,0,0,4.74-1c1-1.05.1-1.81-.92-2.78a2.35,2.35,0,0,0-2.49-.27,5.19,5.19,0,0,0-2.19,2.7A1.06,1.06,0,0,0,198.1,529.18Z"/><path class="cls-1" d="M193.51,526a2,2,0,0,0,1.9,1.68c1.06,0,1.73-1,2.49-2.1a13.58,13.58,0,0,1,1.57-1.31c1.19-.85,2.41-1.06,2.41-2.76,0-1.34-1.67-1.86-2.37-2.52a9.34,9.34,0,0,1-1.73-1.86c-.52-.9-1.05-1.8-2.1-1.8a2,2,0,0,0-2.07,1.69S192.54,522.88,193.51,526Z"/><path class="cls-1" d="M410.09,514.32a4.22,4.22,0,0,0-2.67-.6c-1.59.15-2.72.4-2.47,2.08s2.2,2.14,3.13,2S411.84,515.77,410.09,514.32Z"/><path class="cls-1" d="M415.86,518.45a1.22,1.22,0,0,1-.29,1.63,3.63,3.63,0,0,1-2.74,1.13c-1.19-.09-2.91-.26-3-1.38a3,3,0,0,1,2.1-3C413.5,516.24,415.67,517.86,415.86,518.45Z"/><path class="cls-1" d="M415.68,522.93a1.4,1.4,0,0,1,.16,2s-.73,1.44-3.36,1.61a3.3,3.3,0,0,1-2.54-2.94C409.67,521.41,414.38,521.22,415.68,522.93Z"/><path class="cls-1" d="M405.19,529.18a4.8,4.8,0,0,0,4.74-1c1-1.05.1-1.81-.92-2.78a2.37,2.37,0,0,0-2.5-.27,5.14,5.14,0,0,0-2.18,2.7A1.06,1.06,0,0,0,405.19,529.18Z"/><path class="cls-1" d="M400.6,526a2,2,0,0,0,1.9,1.68c1.05,0,1.72-1,2.49-2.1a13.58,13.58,0,0,1,1.57-1.31c1.19-.85,2.41-1.06,2.41-2.76,0-1.34-1.67-1.86-2.37-2.52a9.34,9.34,0,0,1-1.73-1.86c-.52-.9-1.05-1.8-2.1-1.8A2,2,0,0,0,400.7,517S399.63,522.88,400.6,526Z"/><path class="cls-1" d="M308,509.31a5.06,5.06,0,0,0-3.18-.71c-1.9.18-3.24.47-2.95,2.47s2.62,2.56,3.73,2.4S310.12,511.05,308,509.31Z"/><path class="cls-1" d="M314.91,514.23a1.46,1.46,0,0,1-.34,1.95c-1.05.82-1.84,1.45-3.26,1.35s-3.48-.31-3.58-1.64a3.54,3.54,0,0,1,2.5-3.53C312.1,511.6,314.69,513.54,314.91,514.23Z"/><path class="cls-1" d="M314.7,519.58a1.67,1.67,0,0,1,.19,2.37s-.87,1.71-4,1.92a3.93,3.93,0,0,1-3-3.5C307.54,517.76,313.15,517.54,314.7,519.58Z"/><path class="cls-1" d="M302.2,527a5.69,5.69,0,0,0,5.64-1.18c1.21-1.25.12-2.16-1.09-3.32a2.82,2.82,0,0,0-3-.32,6.22,6.22,0,0,0-2.61,3.22A1.26,1.26,0,0,0,302.2,527Z"/><path class="cls-1" d="M296.72,523.25a2.44,2.44,0,0,0,2.27,2c1.26,0,2.06-1.19,3-2.5a16.55,16.55,0,0,1,1.86-1.56c1.43-1,2.88-1.27,2.88-3.3,0-1.59-2-2.21-2.82-3a11,11,0,0,1-2.06-2.21c-.62-1.07-1.25-2.15-2.51-2.15a2.4,2.4,0,0,0-2.47,2S295.57,519.51,296.72,523.25Z"/><path class="cls-1" d="M97.25,507.44a5.15,5.15,0,0,0-3.11-1c-1.9,0-3.27.17-3.17,2.19s2.37,2.79,3.5,2.74S99.15,509.36,97.25,507.44Z"/><path class="cls-1" d="M103.63,513a1.47,1.47,0,0,1-.53,1.91c-1.12.72-2,1.27-3.37,1s-3.43-.62-3.41-2a3.54,3.54,0,0,1,2.82-3.28C101.07,510.1,103.47,512.27,103.63,513Z"/><path class="cls-1" d="M102.92,518.29a1.66,1.66,0,0,1,0,2.37s-1,1.63-4.17,1.54A3.93,3.93,0,0,1,96,518.43C96,515.81,101.56,516.11,102.92,518.29Z"/><path class="cls-1" d="M89.77,524.54a5.7,5.7,0,0,0,5.73-.66c1.32-1.12.32-2.13-.78-3.4a2.81,2.81,0,0,0-2.93-.59,6.19,6.19,0,0,0-2.9,3A1.28,1.28,0,0,0,89.77,524.54Z"/><path class="cls-1" d="M84.67,520.25a2.43,2.43,0,0,0,2.07,2.21c1.25.12,2.16-1,3.19-2.21a17,17,0,0,1,2-1.38c1.5-.88,3-1,3.17-3,.15-1.59-1.78-2.39-2.53-3.26a11,11,0,0,1-1.85-2.39c-.51-1.12-1-2.25-2.29-2.37a2.39,2.39,0,0,0-2.65,1.77S83.88,516.43,84.67,520.25Z"/><path class="cls-1" d="M147.61,525.65a5,5,0,0,0-3.18-.11c-1.79.52-3,1-2.39,2.91s3,2,4,1.63S149.92,526.94,147.61,525.65Z"/><path class="cls-1" d="M155.09,529.13a1.44,1.44,0,0,1,0,1.94c-.86,1-1.5,1.72-2.89,1.87s-3.39.34-3.73-.92a3.45,3.45,0,0,1,1.77-3.83C151.91,527.12,154.75,528.51,155.09,529.13Z"/><path class="cls-1" d="M155.85,534.3a1.63,1.63,0,0,1,.61,2.24s-.53,1.8-3.5,2.57a3.85,3.85,0,0,1-3.53-2.82C148.65,533.85,154,532.62,155.85,534.3Z"/><path class="cls-1" d="M145.2,543.7a5.55,5.55,0,0,0,5.2-2.15c.94-1.41-.27-2.09-1.64-3a2.76,2.76,0,0,0-2.91.24,6,6,0,0,0-1.93,3.55A1.24,1.24,0,0,0,145.2,543.7Z"/><path class="cls-1" d="M139.27,541.06a2.39,2.39,0,0,0,2.54,1.52c1.2-.23,1.75-1.52,2.39-2.94a15.87,15.87,0,0,1,1.51-1.83c1.18-1.23,2.53-1.74,2.17-3.68-.29-1.53-2.32-1.77-3.26-2.38a10.91,10.91,0,0,1-2.37-1.74c-.79-.92-1.59-1.84-2.79-1.61a2.35,2.35,0,0,0-2,2.37S137.49,537.69,139.27,541.06Z"/><path class="cls-1" d="M351.86,530.15a4.46,4.46,0,0,0-2.8-.09c-1.56.46-2.64.91-2.08,2.55s2.61,1.73,3.51,1.42S353.88,531.29,351.86,530.15Z"/><path class="cls-1" d="M358.42,533.21a1.26,1.26,0,0,1,0,1.69,3.76,3.76,0,0,1-2.54,1.65c-1.21.13-3,.29-3.27-.82a3,3,0,0,1,1.55-3.35C355.63,531.44,358.12,532.66,358.42,533.21Z"/><path class="cls-1" d="M359.08,537.74a1.42,1.42,0,0,1,.53,2s-.46,1.58-3.06,2.25a3.36,3.36,0,0,1-3.1-2.46C352.77,537.34,357.45,536.27,359.08,537.74Z"/><path class="cls-1" d="M349.74,546a4.9,4.9,0,0,0,4.57-1.89c.81-1.24-.25-1.83-1.45-2.61a2.4,2.4,0,0,0-2.55.2,5.26,5.26,0,0,0-1.68,3.11A1.08,1.08,0,0,0,349.74,546Z"/><path class="cls-1" d="M344.54,543.66a2.08,2.08,0,0,0,2.23,1.33c1.05-.19,1.54-1.33,2.1-2.57a13.79,13.79,0,0,1,1.32-1.61c1-1.08,2.22-1.52,1.9-3.23-.25-1.34-2-1.54-2.85-2.08a9.14,9.14,0,0,1-2.09-1.53c-.69-.8-1.39-1.6-2.44-1.41a2.05,2.05,0,0,0-1.76,2.08S343,540.71,344.54,543.66Z"/><path class="cls-1" d="M465.68,529.65a4.34,4.34,0,0,0-2.79-.09c-1.56.45-2.65.91-2.09,2.55s2.61,1.73,3.52,1.42S467.71,530.78,465.68,529.65Z"/><path class="cls-1" d="M472.24,532.71a1.25,1.25,0,0,1,0,1.69,3.75,3.75,0,0,1-2.53,1.65c-1.21.13-3,.29-3.27-.82a3,3,0,0,1,1.54-3.35C469.46,530.94,471.94,532.16,472.24,532.71Z"/><path class="cls-1" d="M472.91,537.24a1.42,1.42,0,0,1,.53,2s-.46,1.58-3.06,2.25a3.37,3.37,0,0,1-3.1-2.47C466.6,536.84,471.28,535.76,472.91,537.24Z"/><path class="cls-1" d="M463.57,545.48a4.89,4.89,0,0,0,4.56-1.89c.82-1.24-.24-1.83-1.44-2.62a2.42,2.42,0,0,0-2.55.21,5.31,5.31,0,0,0-1.69,3.11A1.09,1.09,0,0,0,463.57,545.48Z"/><path class="cls-1" d="M458.37,543.16a2.08,2.08,0,0,0,2.23,1.33c1-.2,1.53-1.33,2.09-2.57a14.57,14.57,0,0,1,1.33-1.61c1-1.08,2.22-1.52,1.9-3.23-.26-1.34-2-1.55-2.85-2.08a9.48,9.48,0,0,1-2.09-1.53c-.69-.8-1.39-1.61-2.44-1.41a2,2,0,0,0-1.76,2.08S456.81,540.2,458.37,543.16Z"/><path class="cls-1" d="M253,528.35a4.46,4.46,0,0,0-2.8-.09c-1.56.46-2.64.91-2.08,2.55s2.61,1.73,3.52,1.42S255,529.49,253,528.35Z"/><path class="cls-1" d="M259.51,531.41a1.26,1.26,0,0,1,0,1.69,3.8,3.8,0,0,1-2.54,1.65c-1.21.13-3,.29-3.27-.82a3,3,0,0,1,1.55-3.35C256.72,529.64,259.21,530.86,259.51,531.41Z"/><path class="cls-1" d="M260.17,535.94a1.42,1.42,0,0,1,.53,2s-.46,1.58-3.06,2.25a3.38,3.38,0,0,1-3.1-2.47C253.86,535.54,258.54,534.47,260.17,535.94Z"/><path class="cls-1" d="M250.83,544.18a4.9,4.9,0,0,0,4.57-1.89c.81-1.24-.25-1.83-1.45-2.61a2.4,2.4,0,0,0-2.55.2,5.26,5.26,0,0,0-1.68,3.11A1.08,1.08,0,0,0,250.83,544.18Z"/><path class="cls-1" d="M245.63,541.86a2.09,2.09,0,0,0,2.23,1.33c1-.19,1.54-1.33,2.1-2.57a13.79,13.79,0,0,1,1.32-1.61c1-1.08,2.22-1.52,1.9-3.23-.25-1.34-2-1.54-2.85-2.08a9.14,9.14,0,0,1-2.09-1.53c-.69-.8-1.39-1.6-2.44-1.41a2.05,2.05,0,0,0-1.76,2.08S244.07,538.91,245.63,541.86Z"/><path class="cls-1" d="M264.63,520a2.67,2.67,0,0,0,3.85,3.68l13.12,10.36a2.67,2.67,0,0,0,4.46,2.91,2.67,2.67,0,0,1,2.34-2.6,2.67,2.67,0,0,0-3.89-3.64l-13.28-10.5a2.67,2.67,0,1,0-5-1.17A2.62,2.62,0,0,0,264.63,520Z"/><path class="cls-1" d="M368.12,521.91a2.68,2.68,0,0,0,3.86,3.68L385.09,536a2.68,2.68,0,0,0,4.47,2.91,2.65,2.65,0,0,1,2.33-2.6,2.67,2.67,0,0,0-3.89-3.64l-13.28-10.5a2.67,2.67,0,0,0-4.44-2.94,2.64,2.64,0,0,0-.57,1.76A2.68,2.68,0,0,0,368.12,521.91Z"/><path class="cls-1" d="M127.65,514.8a2.48,2.48,0,0,0-3.23,3.74l-9,12.65a2.48,2.48,0,0,0-2.48,4.27,2.42,2.42,0,0,0,1.51.46,2.48,2.48,0,1,0,4.2-2.19l9.12-12.8a2.49,2.49,0,1,0,.86-4.71A2.46,2.46,0,0,0,127.65,514.8Z"/><path class="cls-1" d="M233.17,517.69a2.48,2.48,0,0,0-3.23,3.74l-9,12.65a2.48,2.48,0,0,0-2.49,4.27,2.42,2.42,0,0,0,1.51.46,2.5,2.5,0,0,0,1,1.58,2.48,2.48,0,0,0,3.2-3.77l9.12-12.8a2.48,2.48,0,1,0,.86-4.71A2.51,2.51,0,0,0,233.17,517.69Z"/><path class="cls-1" d="M335.18,515.47a2.48,2.48,0,0,0-3.23,3.74l-9,12.65a2.48,2.48,0,0,0-2.49,4.27,2.42,2.42,0,0,0,1.51.46,2.55,2.55,0,0,0,1,1.59,2.49,2.49,0,0,0,3.2-3.78l9.12-12.8a2.48,2.48,0,0,0,2.52-4.25,2.41,2.41,0,0,0-1.66-.45A2.5,2.5,0,0,0,335.18,515.47Z"/><path class="cls-1" d="M442.53,519.38a2.48,2.48,0,0,0-3.23,3.74l-9,12.65a2.48,2.48,0,0,0-2.48,4.27,2.4,2.4,0,0,0,1.51.46,2.48,2.48,0,1,0,4.2-2.19l9.12-12.8a2.48,2.48,0,0,0,2.52-4.25,2.41,2.41,0,0,0-1.66-.45A2.5,2.5,0,0,0,442.53,519.38Z"/><path class="cls-1" d="M72,535.82a2.76,2.76,0,0,0-3-4.58l-10.77-13.4a2.75,2.75,0,1,0-4.75-2.46,2.72,2.72,0,0,0-2,.59,2.75,2.75,0,0,0,3.06,4.55l10.9,13.57a2.75,2.75,0,0,0,3.78,4,2.79,2.79,0,0,0,1-1.64A2.78,2.78,0,0,0,72,535.82Z"/><path class="cls-1" d="M182.15,536.91a2.76,2.76,0,0,0-3-4.58l-10.77-13.4a2.75,2.75,0,1,0-4.75-2.46,2.75,2.75,0,1,0,1.07,5.14l10.9,13.57a2.75,2.75,0,1,0,4.75,2.33A2.81,2.81,0,0,0,182.15,536.91Z"/></g></svg>