<svg width="100" height="100" xmlns="http://www.w3.org/2000/svg" data-name="Capa 1">
 <g>
  <title>Layer 1</title>
  <g transform="rotate(40 51.32 52.1905)" stroke="null" id="svg_6">
   <path stroke="null" id="svg_16" fill="#c17e4d" d="m15.24322,67.71784a21.5,21.5 0 0 0 7,11.81c6,5.28 10.8,8.56 16.1,1.9s0.26,-15.41 -3.43,-18.36s-20.35,-6.74 -19.67,4.65z" class="cls-1"/>
   <path stroke="null" id="svg_17" fill="#c17e4d" d="m10.49322,32.43784s1.42,-5.44 7,-4.57s9.76,1.47 13.54,6.13s9.1,11.53 5.31,15.71s-10.27,6 -18,2.49s-9.32,-17.03 -7.85,-19.76z" class="cls-1"/>
   <path stroke="null" id="svg_18" fill="#c17e4d" d="m27.49322,17.65784s-0.35,-6.83 6.73,-7.4c0,0 7.75,-2.28 17.44,6.72a16.59,16.59 0 0 1 -2,19.39c-7.07,8.49 -23.91,-8.05 -22.17,-18.71z" class="cls-1"/>
   <path stroke="null" id="svg_19" fill="#c17e4d" d="m86.42322,34.48784c-7.58,-14 -19.93,-13.89 -19.93,-13.89c-7.31,-0.1 -7,5.87 -7,12.93s7.62,10 7.62,10s10.29,2.85 17.37,-1.28c5.09,-2.96 1.94,-7.76 1.94,-7.76z" class="cls-1"/>
   <path stroke="null" id="svg_20" fill="#c17e4d" d="m90.60322,62.16784c2.32,-4.09 3.23,-8.91 -0.39,-12.75s-9.6,-2.84 -16.22,-1.87a71.82,71.82 0 0 1 -10.18,-1.21c-7.21,-1.42 -12.19,-5.16 -18.41,0.69c-4.88,4.6 -1,12.49 -1.06,17.33c0,0 0.57,8.07 -0.81,12.69c-1.5,5 -3,10 0.64,13.87s7.86,4.55 13.28,1.77c0,0.02 25.04,-16.2 33.15,-30.52z" class="cls-1"/>
  </g>
 </g>

</svg>