<svg width="300" height="300" xmlns="http://www.w3.org/2000/svg" data-name="Capa 1">
 <g>
  <title>Layer 1</title>
  <path class="cls-1" d="m116.94319,59.94128a21.5,21.5 0 0 0 7,11.81c6,5.28 10.8,8.56 16.1,1.9s0.26,-15.41 -3.43,-18.36s-20.35,-6.74 -19.67,4.65z" fill="#c17e4d" id="svg_44"/>
  <path class="cls-1" d="m112.19319,24.66128s1.42,-5.44 7,-4.57s9.76,1.47 13.54,6.13s9.1,11.53 5.31,15.71s-10.27,6 -18,2.49s-9.32,-17.03 -7.85,-19.76z" fill="#c17e4d" id="svg_45"/>
  <path class="cls-1" d="m129.19319,9.88128s-0.35,-6.83 6.73,-7.4c0,0 7.75,-2.28 17.44,6.72a16.59,16.59 0 0 1 -2,19.39c-7.07,8.49 -23.91,-8.05 -22.17,-18.71z" fill="#c17e4d" id="svg_46"/>
  <path class="cls-1" d="m188.12319,26.71128c-7.58,-14 -19.93,-13.89 -19.93,-13.89c-7.31,-0.1 -7,5.87 -7,12.93s7.62,10 7.62,10s10.29,2.85 17.37,-1.28c5.09,-2.96 1.94,-7.76 1.94,-7.76z" fill="#c17e4d" id="svg_47"/>
  <path class="cls-1" d="m192.30319,54.39128c2.32,-4.09 3.23,-8.91 -0.39,-12.75s-9.6,-2.84 -16.22,-1.87a71.82,71.82 0 0 1 -10.18,-1.21c-7.21,-1.42 -12.19,-5.16 -18.41,0.69c-4.88,4.6 -1,12.49 -1.06,17.33c0,0 0.57,8.07 -0.81,12.69c-1.5,5 -3,10 0.64,13.87s7.86,4.55 13.28,1.77c0,0.02 25.04,-16.2 33.15,-30.52z" fill="#c17e4d" id="svg_48"/>
  <path class="cls-1" d="m111.06084,270.86564a21.5,21.5 0 0 0 7,11.81c6,5.28 10.8,8.56 16.1,1.9s0.26,-15.41 -3.43,-18.36s-20.35,-6.74 -19.67,4.65z" fill="#c17e4d" id="svg_49"/>
  <path class="cls-1" d="m106.31084,235.58564s1.42,-5.44 7,-4.57s9.76,1.47 13.54,6.13s9.1,11.53 5.31,15.71s-10.27,6 -18,2.49s-9.32,-17.03 -7.85,-19.76z" fill="#c17e4d" id="svg_50"/>
  <path class="cls-1" d="m123.31084,220.80564s-0.35,-6.83 6.73,-7.4c0,0 7.75,-2.28 17.44,6.72a16.59,16.59 0 0 1 -2,19.39c-7.07,8.49 -23.91,-8.05 -22.17,-18.71z" fill="#c17e4d" id="svg_51"/>
  <path class="cls-1" d="m182.24084,237.63564c-7.58,-14 -19.93,-13.89 -19.93,-13.89c-7.31,-0.1 -7,5.87 -7,12.93s7.62,10 7.62,10s10.29,2.85 17.37,-1.28c5.09,-2.96 1.94,-7.76 1.94,-7.76z" fill="#c17e4d" id="svg_52"/>
  <path class="cls-1" d="m186.42084,265.31564c2.32,-4.09 3.23,-8.91 -0.39,-12.75s-9.6,-2.84 -16.22,-1.87a71.82,71.82 0 0 1 -10.18,-1.21c-7.21,-1.42 -12.19,-5.16 -18.41,0.69c-4.88,4.6 -1,12.49 -1.06,17.33c0,0 0.57,8.07 -0.81,12.69c-1.5,5 -3,10 0.64,13.87s7.86,4.55 13.28,1.77c0,0.02 25.04,-16.2 33.15,-30.52z" fill="#c17e4d" id="svg_53"/>
  <path class="cls-1" d="m219.46419,157.42027a21.5,21.5 0 0 0 7,11.81c6,5.28 10.8,8.56 16.1,1.9s0.26,-15.41 -3.43,-18.36s-20.35,-6.74 -19.67,4.65z" fill="#c17e4d" id="svg_54"/>
  <path class="cls-1" d="m214.71419,122.14027s1.42,-5.44 7,-4.57s9.76,1.47 13.54,6.13s9.1,11.53 5.31,15.71s-10.27,6 -18,2.49s-9.32,-17.03 -7.85,-19.76z" fill="#c17e4d" id="svg_55"/>
  <path class="cls-1" d="m231.71419,107.36027s-0.35,-6.83 6.73,-7.4c0,0 7.75,-2.28 17.44,6.72a16.59,16.59 0 0 1 -2,19.39c-7.07,8.49 -23.91,-8.05 -22.17,-18.71z" fill="#c17e4d" id="svg_56"/>
  <path class="cls-1" d="m290.64419,124.19027c-7.58,-14 -19.93,-13.89 -19.93,-13.89c-7.31,-0.1 -7,5.87 -7,12.93s7.62,10 7.62,10s10.29,2.85 17.37,-1.28c5.09,-2.96 1.94,-7.76 1.94,-7.76z" fill="#c17e4d" id="svg_57"/>
  <path class="cls-1" d="m294.82419,151.87027c2.32,-4.09 3.23,-8.91 -0.39,-12.75s-9.6,-2.84 -16.22,-1.87a71.82,71.82 0 0 1 -10.18,-1.21c-7.21,-1.42 -12.19,-5.16 -18.41,0.69c-4.88,4.6 -1,12.49 -1.06,17.33c0,0 0.57,8.07 -0.81,12.69c-1.5,5 -3,10 0.64,13.87s7.86,4.55 13.28,1.77c0,0.02 25.04,-16.2 33.15,-30.52z" fill="#c17e4d" id="svg_58"/>
  <path class="cls-1" d="m6.85916,159.94128a21.5,21.5 0 0 0 7,11.81c6,5.28 10.8,8.56 16.1,1.9s0.26,-15.41 -3.43,-18.36s-20.35,-6.74 -19.67,4.65z" fill="#c17e4d" id="svg_59"/>
  <path class="cls-1" d="m2.10916,124.66128s1.42,-5.44 7,-4.57s9.76,1.47 13.54,6.13s9.1,11.53 5.31,15.71s-10.27,6 -18,2.49s-9.32,-17.03 -7.85,-19.76z" fill="#c17e4d" id="svg_60"/>
  <path class="cls-1" d="m19.10916,109.88128s-0.35,-6.83 6.73,-7.4c0,0 7.75,-2.28 17.44,6.72a16.59,16.59 0 0 1 -2,19.39c-7.07,8.49 -23.91,-8.05 -22.17,-18.71z" fill="#c17e4d" id="svg_61"/>
  <path class="cls-1" d="m78.03916,126.71128c-7.58,-14 -19.93,-13.89 -19.93,-13.89c-7.31,-0.1 -7,5.87 -7,12.93s7.62,10 7.62,10s10.29,2.85 17.37,-1.28c5.09,-2.96 1.94,-7.76 1.94,-7.76z" fill="#c17e4d" id="svg_62"/>
  <path class="cls-1" d="m82.21916,154.39128c2.32,-4.09 3.23,-8.91 -0.39,-12.75s-9.6,-2.84 -16.22,-1.87a71.82,71.82 0 0 1 -10.18,-1.21c-7.21,-1.42 -12.19,-5.16 -18.41,0.69c-4.88,4.6 -1,12.49 -1.06,17.33c0,0 0.57,8.07 -0.81,12.69c-1.5,5 -3,10 0.64,13.87s7.86,4.55 13.28,1.77c0,0.02 25.04,-16.2 33.15,-30.52z" fill="#c17e4d" id="svg_63"/>
 </g>

</svg>