<svg width="300" height="300" xmlns="http://www.w3.org/2000/svg" data-name="Capa 1">

 <g>
  <title>Layer 1</title>
  <path id="svg_6" fill="#c17e4d" d="m13.14421,233.15766a21.35,21.35 0 0 0 -7.25,11.53c-1.92,7.7 -2.66,13.38 5.6,15s13.7,-6.73 14.64,-11.32s-3.25,-20.95 -12.99,-15.21z" class="cls-1"/>
  <path id="svg_7" fill="#c17e4d" d="m42.09421,213.04766s5.44,-1.2 7.18,4.07s3.11,9.27 0.71,14.71s-6.06,13.22 -11.45,11.77s-10,-6.34 -10.34,-14.75s10.85,-15.88 13.9,-15.8z" class="cls-1"/>
  <path id="svg_8" fill="#c17e4d" d="m62.79421,221.35766s5.87,-3.39 9.57,2.59c0,0 5.51,5.8 2,18.4a16.43,16.43 0 0 1 -18,7c-10.72,-2.4 -3.76,-24.75 6.43,-27.99z" class="cls-1"/>
  <path id="svg_9" fill="#c17e4d" d="m74.58421,280.89766c8.94,-13 3.24,-23.84 3.24,-23.84c-3.21,-6.48 -8.32,-3.48 -14.56,-0.34s-5.4,11.24 -5.4,11.24s2.13,10.36 9,14.73c4.91,3.16 7.72,-1.79 7.72,-1.79z" class="cls-1"/>
  <path id="svg_10" fill="#c17e4d" d="m52.04421,297.09766c4.66,0.2 9.31,-1.18 11.06,-6.11s-1.83,-9.74 -5.68,-15.14a71.12,71.12 0 0 1 -3.52,-9.49c-2,-7 -1,-13.08 -8.92,-15.91c-6.26,-2.23 -11.48,4.73 -15.75,6.89c0,0 -6.86,4.15 -11.56,5c-5.07,0.93 -10.18,1.91 -11.93,6.83s-0.46,9 4.44,12.51c0,-0.01 25.6,14.73 41.86,15.42z" class="cls-1"/>
  <path id="svg_11" fill="#c17e4d" d="m19.86085,12.73648a19.67,19.67 0 0 0 -9.48,8.22c-3.76,6.28 -5.93,11.09 0.91,14.77s13.89,-2.31 15.94,-6.06s2.76,-19.39 -7.37,-16.93z" class="cls-1"/>
  <path id="svg_12" fill="#c17e4d" d="m50.79085,2.74648s5.12,0.39 5.24,5.51s0.26,9 -3.31,13.16s-8.89,10 -13.26,7.32s-7.08,-8.25 -5.16,-15.78s13.83,-11.09 16.49,-10.21z" class="cls-1"/>
  <path id="svg_13" fill="#c17e4d" d="m66.83085,15.61648s6.08,-1.42 7.74,4.85c0,0 3.31,6.59 -3.2,16.76a15.16,15.16 0 0 1 -17.73,1.35c-8.8,-4.98 3.32,-22.83 13.19,-22.96z" class="cls-1"/>
  <path id="svg_14" fill="#c17e4d" d="m61.27085,71.30648c11.37,-9.09 9.25,-20.17 9.25,-20.17c-1.09,-6.58 -6.4,-5.3 -12.75,-4.2s-7.78,8.48 -7.78,8.48s-0.89,9.71 4,15.4c3.48,4.1 7.28,0.49 7.28,0.49z" class="cls-1"/>
  <path id="svg_15" fill="#c17e4d" d="m37.07085,79.55648c4,1.42 8.52,1.45 11.39,-2.42s1,-9.09 -1,-14.88a65.24,65.24 0 0 1 -0.56,-9.34c0.11,-6.71 2.66,-11.8 -3.61,-16.43c-4.88,-3.64 -11.35,1.09 -15.65,1.86c0,0 -7.16,1.82 -11.54,1.33c-4.73,-0.53 -9.49,-1 -12.35,2.83s-2.82,7.8 0.56,12.22c-0.05,0 18.59,19.86 32.76,24.83z" class="cls-1"/>
  <path id="svg_16" fill="#c17e4d" d="m218.62386,270.86564a21.5,21.5 0 0 0 7,11.81c6,5.28 10.8,8.56 16.1,1.9s0.26,-15.41 -3.43,-18.36s-20.35,-6.74 -19.67,4.65z" class="cls-1"/>
  <path id="svg_17" fill="#c17e4d" d="m213.87386,235.58564s1.42,-5.44 7,-4.57s9.76,1.47 13.54,6.13s9.1,11.53 5.31,15.71s-10.27,6 -18,2.49s-9.32,-17.03 -7.85,-19.76z" class="cls-1"/>
  <path id="svg_18" fill="#c17e4d" d="m230.87386,220.80564s-0.35,-6.83 6.73,-7.4c0,0 7.75,-2.28 17.44,6.72a16.59,16.59 0 0 1 -2,19.39c-7.07,8.49 -23.91,-8.05 -22.17,-18.71z" class="cls-1"/>
  <path id="svg_19" fill="#c17e4d" d="m289.80386,237.63564c-7.58,-14 -19.93,-13.89 -19.93,-13.89c-7.31,-0.1 -7,5.87 -7,12.93s7.62,10 7.62,10s10.29,2.85 17.37,-1.28c5.09,-2.96 1.94,-7.76 1.94,-7.76z" class="cls-1"/>
  <path id="svg_20" fill="#c17e4d" d="m293.98386,265.31564c2.32,-4.09 3.23,-8.91 -0.39,-12.75s-9.6,-2.84 -16.22,-1.87a71.82,71.82 0 0 1 -10.18,-1.21c-7.21,-1.42 -12.19,-5.16 -18.41,0.69c-4.88,4.6 -1,12.49 -1.06,17.33c0,0 0.57,8.07 -0.81,12.69c-1.5,5 -3,10 0.64,13.87s7.86,4.55 13.28,1.77c0,0.02 25.04,-16.2 33.15,-30.52z" class="cls-1"/>
  <path id="svg_31" fill="#c17e4d" d="m241.62824,13.67849a19.37,19.37 0 0 0 -8.95,8.54c-3.42,6.36 -5.34,11.21 1.58,14.51s13.58,-2.88 15.42,-6.71s1.82,-19.23 -8.05,-16.34z" class="cls-1"/>
  <path id="svg_32" fill="#c17e4d" d="m271.63824,2.45849s5.07,0.14 5.42,5.18s0.68,8.86 -2.65,13.12s-8.28,10.26 -12.72,7.78s-7.36,-7.81 -5.82,-15.31s13.11,-11.57 15.77,-10.77z" class="cls-1"/>
  <path id="svg_33" fill="#c17e4d" d="m288.03824,14.33849s5.93,-1.68 7.86,4.41c0,0 3.56,6.35 -2.38,16.67a15,15 0 0 1 -17.39,2.16c-8.92,-4.5 2.2,-22.65 11.91,-23.24z" class="cls-1"/>
  <path id="svg_34" fill="#c17e4d" d="m285.12824,69.45849c10.79,-9.48 8.18,-20.29 8.18,-20.29c-1.38,-6.44 -6.56,-4.93 -12.76,-3.55s-7.27,8.71 -7.27,8.71s-0.43,9.6 4.62,15c3.67,3.87 7.23,0.13 7.23,0.13z" class="cls-1"/>
  <path id="svg_35" fill="#c17e4d" d="m261.68824,78.71849c4.05,1.21 8.46,1 11.11,-2.92s0.55,-9 -1.63,-14.61a63.49,63.49 0 0 1 -1,-9.18c-0.21,-6.62 2.07,-11.74 -4.32,-16c-5,-3.36 -11.18,1.61 -15.42,2.57c0,0 -7,2.12 -11.31,1.84c-4.68,-0.3 -9.4,-0.59 -12,3.36s-2.41,7.82 1.12,12c-0.03,0 19.26,18.68 33.45,22.94z" class="cls-1"/>
  <path id="svg_44" fill="#c17e4d" d="m116.94319,59.94128a21.5,21.5 0 0 0 7,11.81c6,5.28 10.8,8.56 16.1,1.9s0.26,-15.41 -3.43,-18.36s-20.35,-6.74 -19.67,4.65z" class="cls-1"/>
  <path id="svg_45" fill="#c17e4d" d="m112.19319,24.66128s1.42,-5.44 7,-4.57s9.76,1.47 13.54,6.13s9.1,11.53 5.31,15.71s-10.27,6 -18,2.49s-9.32,-17.03 -7.85,-19.76z" class="cls-1"/>
  <path id="svg_46" fill="#c17e4d" d="m129.19319,9.88128s-0.35,-6.83 6.73,-7.4c0,0 7.75,-2.28 17.44,6.72a16.59,16.59 0 0 1 -2,19.39c-7.07,8.49 -23.91,-8.05 -22.17,-18.71z" class="cls-1"/>
  <path id="svg_47" fill="#c17e4d" d="m188.12319,26.71128c-7.58,-14 -19.93,-13.89 -19.93,-13.89c-7.31,-0.1 -7,5.87 -7,12.93s7.62,10 7.62,10s10.29,2.85 17.37,-1.28c5.09,-2.96 1.94,-7.76 1.94,-7.76z" class="cls-1"/>
  <path id="svg_48" fill="#c17e4d" d="m192.30319,54.39128c2.32,-4.09 3.23,-8.91 -0.39,-12.75s-9.6,-2.84 -16.22,-1.87a71.82,71.82 0 0 1 -10.18,-1.21c-7.21,-1.42 -12.19,-5.16 -18.41,0.69c-4.88,4.6 -1,12.49 -1.06,17.33c0,0 0.57,8.07 -0.81,12.69c-1.5,5 -3,10 0.64,13.87s7.86,4.55 13.28,1.77c0,0.02 25.04,-16.2 33.15,-30.52z" class="cls-1"/>
  <path id="svg_49" fill="#c17e4d" d="m111.06084,270.86564a21.5,21.5 0 0 0 7,11.81c6,5.28 10.8,8.56 16.1,1.9s0.26,-15.41 -3.43,-18.36s-20.35,-6.74 -19.67,4.65z" class="cls-1"/>
  <path id="svg_50" fill="#c17e4d" d="m106.31084,235.58564s1.42,-5.44 7,-4.57s9.76,1.47 13.54,6.13s9.1,11.53 5.31,15.71s-10.27,6 -18,2.49s-9.32,-17.03 -7.85,-19.76z" class="cls-1"/>
  <path id="svg_51" fill="#c17e4d" d="m123.31084,220.80564s-0.35,-6.83 6.73,-7.4c0,0 7.75,-2.28 17.44,6.72a16.59,16.59 0 0 1 -2,19.39c-7.07,8.49 -23.91,-8.05 -22.17,-18.71z" class="cls-1"/>
  <path id="svg_52" fill="#c17e4d" d="m182.24084,237.63564c-7.58,-14 -19.93,-13.89 -19.93,-13.89c-7.31,-0.1 -7,5.87 -7,12.93s7.62,10 7.62,10s10.29,2.85 17.37,-1.28c5.09,-2.96 1.94,-7.76 1.94,-7.76z" class="cls-1"/>
  <path id="svg_53" fill="#c17e4d" d="m186.42084,265.31564c2.32,-4.09 3.23,-8.91 -0.39,-12.75s-9.6,-2.84 -16.22,-1.87a71.82,71.82 0 0 1 -10.18,-1.21c-7.21,-1.42 -12.19,-5.16 -18.41,0.69c-4.88,4.6 -1,12.49 -1.06,17.33c0,0 0.57,8.07 -0.81,12.69c-1.5,5 -3,10 0.64,13.87s7.86,4.55 13.28,1.77c0,0.02 25.04,-16.2 33.15,-30.52z" class="cls-1"/>
  <path id="svg_54" fill="#c17e4d" d="m219.46419,157.42027a21.5,21.5 0 0 0 7,11.81c6,5.28 10.8,8.56 16.1,1.9s0.26,-15.41 -3.43,-18.36s-20.35,-6.74 -19.67,4.65z" class="cls-1"/>
  <path id="svg_55" fill="#c17e4d" d="m214.71419,122.14027s1.42,-5.44 7,-4.57s9.76,1.47 13.54,6.13s9.1,11.53 5.31,15.71s-10.27,6 -18,2.49s-9.32,-17.03 -7.85,-19.76z" class="cls-1"/>
  <path id="svg_56" fill="#c17e4d" d="m231.71419,107.36027s-0.35,-6.83 6.73,-7.4c0,0 7.75,-2.28 17.44,6.72a16.59,16.59 0 0 1 -2,19.39c-7.07,8.49 -23.91,-8.05 -22.17,-18.71z" class="cls-1"/>
  <path id="svg_57" fill="#c17e4d" d="m290.64419,124.19027c-7.58,-14 -19.93,-13.89 -19.93,-13.89c-7.31,-0.1 -7,5.87 -7,12.93s7.62,10 7.62,10s10.29,2.85 17.37,-1.28c5.09,-2.96 1.94,-7.76 1.94,-7.76z" class="cls-1"/>
  <path id="svg_58" fill="#c17e4d" d="m294.82419,151.87027c2.32,-4.09 3.23,-8.91 -0.39,-12.75s-9.6,-2.84 -16.22,-1.87a71.82,71.82 0 0 1 -10.18,-1.21c-7.21,-1.42 -12.19,-5.16 -18.41,0.69c-4.88,4.6 -1,12.49 -1.06,17.33c0,0 0.57,8.07 -0.81,12.69c-1.5,5 -3,10 0.64,13.87s7.86,4.55 13.28,1.77c0,0.02 25.04,-16.2 33.15,-30.52z" class="cls-1"/>
  <path id="svg_59" fill="#c17e4d" d="m6.85916,159.94128a21.5,21.5 0 0 0 7,11.81c6,5.28 10.8,8.56 16.1,1.9s0.26,-15.41 -3.43,-18.36s-20.35,-6.74 -19.67,4.65z" class="cls-1"/>
  <path id="svg_60" fill="#c17e4d" d="m2.10916,124.66128s1.42,-5.44 7,-4.57s9.76,1.47 13.54,6.13s9.1,11.53 5.31,15.71s-10.27,6 -18,2.49s-9.32,-17.03 -7.85,-19.76z" class="cls-1"/>
  <path id="svg_61" fill="#c17e4d" d="m19.10916,109.88128s-0.35,-6.83 6.73,-7.4c0,0 7.75,-2.28 17.44,6.72a16.59,16.59 0 0 1 -2,19.39c-7.07,8.49 -23.91,-8.05 -22.17,-18.71z" class="cls-1"/>
  <path id="svg_62" fill="#c17e4d" d="m78.03916,126.71128c-7.58,-14 -19.93,-13.89 -19.93,-13.89c-7.31,-0.1 -7,5.87 -7,12.93s7.62,10 7.62,10s10.29,2.85 17.37,-1.28c5.09,-2.96 1.94,-7.76 1.94,-7.76z" class="cls-1"/>
  <path id="svg_63" fill="#c17e4d" d="m82.21916,154.39128c2.32,-4.09 3.23,-8.91 -0.39,-12.75s-9.6,-2.84 -16.22,-1.87a71.82,71.82 0 0 1 -10.18,-1.21c-7.21,-1.42 -12.19,-5.16 -18.41,0.69c-4.88,4.6 -1,12.49 -1.06,17.33c0,0 0.57,8.07 -0.81,12.69c-1.5,5 -3,10 0.64,13.87s7.86,4.55 13.28,1.77c0,0.02 25.04,-16.2 33.15,-30.52z" class="cls-1"/>
 </g>
</svg>