<svg id="Capa_1" data-name="Capa 1" xmlns="http://www.w3.org/2000/svg" viewBox="0 0 792 164.41"><defs><style>.cls-1,.cls-2,.cls-7,.cls-8{fill:#fff;}.cls-1,.cls-2,.cls-7{stroke:#000;stroke-miterlimit:10;}.cls-2{font-size:67.5px;font-family:eacologica-round_slab, eacologica round slab;}.cls-3,.cls-4,.cls-5,.cls-6{font-size:47.04px;}.cls-3{letter-spacing:0em;}.cls-4{letter-spacing:0em;}.cls-6{letter-spacing:-0.01em;}.cls-7{stroke-width:0.5px;}</style></defs><path class="cls-1" d="M432.83,51.51s17.95-5.59,22.14-9.83a14.33,14.33,0,0,0,3.12-5.27s.48-1.61-1.19-1.61-2.09.27-6,.59-9.67,1.93-10.1,2.58,2.52-4.89,2.52-7-.53-3.92-1.88-3.12-3.06,2.1-4.35,3a34.26,34.26,0,0,0-5.26,4.51c-.7,1-4.25,5.86-4.36,9.89A10,10,0,0,0,418,43.39a15,15,0,0,0-4.62,2.31A62.27,62.27,0,0,1,408.49,50c-1,.59-1.29,2.85-1,4.62a12.68,12.68,0,0,0,4.4,6.88,24.41,24.41,0,0,1,3,2.25,11,11,0,0,0-1.34,11.66s-3.6,2.69-2.69,6.56c0,0,.86,1.29.06,2.09s-.43,5,.48,5.38,1.61.54,3.49-1.35,1.51-2.36,1.51-2.36.53-.7.75.16.75,4.14,1.61,5.21.32.86-.54.92-4.19.43-5.32,1.13-2.31,1.55-1.55,3.43,1.55,3,4.4,3.28c0,0,.54,3.39,3.76,3.66s17.2.75,20.8-.6c0,0,.53-1,1.5-.05s4,2,6.5-1.45c0,0,3.76-1,2-6.18,0,0,.38-2.79-1.66-3.92,0,0-.54.21-.54-.7s1.29-5.16.32-9.35-5.85-9.4-9.88-12.36-4.14-2.68-3.93-3.76A21.42,21.42,0,0,0,432.83,51.51Z"/><path class="cls-1" d="M766.92,60.35a49.91,49.91,0,0,0-5.28,9.74c-2.07,5.3-1,11.87,3.64,17.52,3.82,4.62,13.26,11.53,14.61,19.63S777,119,772.2,122.59s-12,3.38-13.5,3.23-.41-2.77-.41-2.77a45.61,45.61,0,0,0,1-16.73c-1.16-9.55-9-17.12-15.82-21.31s-19.53-8.25-26-9.93-5.5-7-5.94-12.3a79.07,79.07,0,0,0-1.92-13.4c-1.16-4.82-4.29-9.5-5.31-11.14s-1.78.29-1.78.29-.77,4.63-1.3,7.38-2.94,3.08-6.27,3.28-3.76,1.06-4.53,3.13-2.94,3.47-5.79,4.24S683.12,60,683.12,60a73.93,73.93,0,0,0,3.81,7.67c1.74,2.8,4.15,1.93,4.15,1.93,4.77-.29,3.33,4.68,3.33,4.68s-.58,3.27-2.13,9.78a27,27,0,0,0,.2,12.44s4,7.14,5.49,10.56,1.45,15,1.64,17.12-1.78,2-2.46,2-3.9,0-3.71,3,1.93,2.8,1.93,2.8,5.11.05,8.25,0,2.5-1.59,3.37-9.6,3.47-13,7.23-17.07,7.43-4.29,11.82-4,12.63,6.8,13.45,7.72-.39.62-.39.62-6.55-5.15-10.85-6.89-9.21.34-10.75,1.45-7.23,6.79-6.65,12.77,4.19,7.72,5.06,8.92-3.62.73-4.58.73-4.19.19-3.57,3,2.75,2.33,2.75,2.33l7.09,0s28.4,0,31.48,0,20.93-1.4,23.73-2.75,9.71-5.11,12-12.05c3.23-10-.31-16.32-5.49-21.6l-9.41-9.86a16.22,16.22,0,0,1-4.65-10.66,20.72,20.72,0,0,1,1.88-7.38c1.74-3.52,2.9-6.22,2.9-6.22a1.49,1.49,0,0,0-.66-2C768.08,58.88,766.92,60.35,766.92,60.35Z"/><path d="M712.76,71.79c-14.67,3.29-20.86,13.6-20.86,13.6l-.21,3.39s8.84-15,22.56-15.19Z"/><ellipse cx="691.84" cy="92.42" rx="1.72" ry="3.12"/><ellipse class="cls-1" cx="691.44" cy="92.61" rx="1.33" ry="2.98"/><path d="M692,55.45l1.69-1.18-1.69-1,.22.41a.75.75,0,0,0-.29.64.72.72,0,0,0,.37.68h0Z"/><text class="cls-2" transform="translate(145.41 133.09)">H<tspan class="cls-3" x="56.16" y="0">ue</tspan><tspan class="cls-4" x="112.37" y="0">l</tspan><tspan class="cls-5" x="127.89" y="0">l</tspan><tspan class="cls-6" x="143.65" y="0">i</tspan><tspan class="cls-3" x="160.63" y="0">tas de </tspan><tspan x="305.98" y="0">C</tspan><tspan class="cls-5" x="353.57" y="0">olombia</tspan></text><path class="cls-7" d="M127.31,141.24a3.8,3.8,0,0,0-2.24.63c-1.15.73-1.91,1.35-1.11,2.46s2.47.67,3.13.21S129.18,141.6,127.31,141.24Z"/><path class="cls-7" d="M133.22,141.93a1,1,0,0,1,.39,1.29A3.17,3.17,0,0,1,132,145.1c-.93.41-2.3,1-2.78.2a2.39,2.39,0,0,1,.49-2.94C130.61,141.28,132.86,141.59,133.22,141.93Z"/><path class="cls-7" d="M134.76,145.22a1.08,1.08,0,0,1,.85,1.36s0,1.32-1.94,2.48a2.76,2.76,0,0,1-3-1.11C129.63,146.49,133.13,144.5,134.76,145.22Z"/><path class="cls-7" d="M129.13,153.83a4.27,4.27,0,0,0,3.22-2.58c.38-1.15-.6-1.34-1.73-1.64a2.14,2.14,0,0,0-2,.8,4.27,4.27,0,0,0-.66,2.79A.88.88,0,0,0,129.13,153.83Z"/><path class="cls-7" d="M124.47,153.35a1.69,1.69,0,0,0,2.07.46c.79-.41.93-1.4,1.1-2.48a12.68,12.68,0,0,1,.7-1.56c.59-1.07,1.44-1.71.8-2.93-.49-1-1.95-.67-2.73-.87a7.5,7.5,0,0,1-2-.65c-.73-.44-1.47-.88-2.26-.46a1.69,1.69,0,0,0-1,2S122.57,151.49,124.47,153.35Z"/><path class="cls-7" d="M161.22,67a3.19,3.19,0,0,0-1.77.86c-.83.79-1.37,1.43-.53,2.22s2.15.17,2.62-.32S162.82,67,161.22,67Z"/><path class="cls-7" d="M166.22,66.66a.82.82,0,0,1,.53,1,2.75,2.75,0,0,1-1.08,1.82c-.72.48-1.76,1.16-2.28.6a2,2,0,0,1-.06-2.52A2.88,2.88,0,0,1,166.22,66.66Z"/><path class="cls-7" d="M168,69.14a.93.93,0,0,1,.92,1s.19,1.09-1.22,2.36a2.33,2.33,0,0,1-2.68-.45C164,71,166.55,68.81,168,69.14Z"/><path class="cls-7" d="M164.69,77.16A3.61,3.61,0,0,0,167,74.52c.13-1-.71-1-1.69-1.08a1.79,1.79,0,0,0-1.53,1,3.55,3.55,0,0,0-.1,2.41A.72.72,0,0,0,164.69,77.16Z"/><path class="cls-7" d="M160.75,77.5a1.46,1.46,0,0,0,1.79.06c.6-.47.55-1.31.53-2.23a10.31,10.31,0,0,1,.33-1.4c.32-1,.92-1.65.21-2.56-.56-.71-1.73-.25-2.4-.29a6.61,6.61,0,0,1-1.76-.23c-.68-.25-1.35-.5-1.95,0a1.44,1.44,0,0,0-.47,1.83S158.89,76.25,160.75,77.5Z"/><path class="cls-7" d="M207.12,80.05a4.48,4.48,0,0,0-2.48,1.1c-1.2,1-2,1.88-.86,3s3,.36,3.64-.29S209.33,80.15,207.12,80.05Z"/><path class="cls-7" d="M214,79.85a1.11,1.11,0,0,1,.67,1.41,3.71,3.71,0,0,1-1.59,2.45c-1,.63-2.49,1.5-3.18.7a2.79,2.79,0,0,1,.07-3.47C210.92,79.54,213.57,79.51,214,79.85Z"/><path class="cls-7" d="M216.37,83.37a1.28,1.28,0,0,1,1.22,1.43s.2,1.52-1.83,3.18a3.2,3.2,0,0,1-3.66-.76C210.68,85.7,214.37,82.82,216.37,83.37Z"/><path class="cls-7" d="M211.34,94.24a5,5,0,0,0,3.28-3.51c.24-1.39-.92-1.44-2.27-1.59a2.47,2.47,0,0,0-2.16,1.25,4.94,4.94,0,0,0-.29,3.32A1,1,0,0,0,211.34,94.24Z"/><path class="cls-7" d="M205.89,94.49a2,2,0,0,0,2.46.18c.85-.62.84-1.77.85-3a13.61,13.61,0,0,1,.55-1.91c.49-1.35,1.36-2.22.43-3.52-.74-1-2.37-.44-3.3-.54a8.77,8.77,0,0,1-2.42-.41c-.91-.38-1.83-.76-2.68-.15a2,2,0,0,0-.75,2.49S203.39,92.66,205.89,94.49Z"/><path class="cls-7" d="M164.18,140.51a4.19,4.19,0,0,0-2.25,1.19c-1,1-1.71,1.88-.6,2.86s2.77.15,3.37-.5S166.24,140.46,164.18,140.51Z"/><path class="cls-7" d="M170.61,139.88a1,1,0,0,1,.71,1.28,3.5,3.5,0,0,1-1.33,2.38c-.9.65-2.22,1.56-2.91.85a2.6,2.6,0,0,1-.16-3.23C167.68,139.79,170.15,139.6,170.61,139.88Z"/><path class="cls-7" d="M173,143a1.19,1.19,0,0,1,1.23,1.25s.28,1.4-1.49,3.07a3,3,0,0,1-3.46-.47C167.85,145.55,171.1,142.63,173,143Z"/><path class="cls-7" d="M169,153.45a4.58,4.58,0,0,0,2.82-3.47c.14-1.31-.94-1.29-2.21-1.34a2.31,2.31,0,0,0-1.93,1.3,4.66,4.66,0,0,0-.05,3.12A.94.94,0,0,0,169,153.45Z"/><path class="cls-7" d="M164,154a1.88,1.88,0,0,0,2.31,0c.75-.62.66-1.7.6-2.89a12.17,12.17,0,0,1,.38-1.81c.37-1.28,1.13-2.15.17-3.3-.75-.9-2.23-.26-3.1-.3a8.52,8.52,0,0,1-2.28-.22c-.87-.3-1.75-.6-2.5,0a1.84,1.84,0,0,0-.54,2.36S161.51,152.49,164,154Z"/><path class="cls-7" d="M231.57,53.37a4.43,4.43,0,0,0-2.64-1c-1.65-.1-2.84,0-2.87,1.72s1.91,2.55,2.88,2.57S233.12,55.15,231.57,53.37Z"/><path class="cls-7" d="M236.81,58.54a1.29,1.29,0,0,1-.56,1.63,3.82,3.82,0,0,1-3,.71c-1.21-.29-2.95-.74-2.85-1.9A3.06,3.06,0,0,1,233,56.3C234.75,55.89,236.71,57.91,236.81,58.54Z"/><path class="cls-7" d="M235.9,63.1a1.45,1.45,0,0,1-.17,2.06s-1,1.36-3.7,1.11a3.42,3.42,0,0,1-2.12-3.42C230,60.57,234.84,61.14,235.9,63.1Z"/><path class="cls-7" d="M224.14,67.8a5,5,0,0,0,5-.25c1.21-.9.4-1.84-.49-3a2.45,2.45,0,0,0-2.51-.67,5.39,5.39,0,0,0-2.68,2.4A1.11,1.11,0,0,0,224.14,67.8Z"/><path class="cls-7" d="M220,63.8a2.13,2.13,0,0,0,1.68,2c1.07.17,1.93-.75,2.89-1.75A15.88,15.88,0,0,1,226.33,63c1.36-.68,2.65-.69,2.93-2.44.21-1.36-1.41-2.17-2-3a9.65,9.65,0,0,1-1.47-2.18c-.39-1-.78-2-1.86-2.19a2.09,2.09,0,0,0-2.4,1.39S219.47,60.44,220,63.8Z"/><path class="cls-7" d="M285.78,67.93A3.36,3.36,0,0,0,284,66.67c-1.21-.38-2.1-.55-2.44.75s.94,2.24,1.66,2.43S286.6,69.52,285.78,67.93Z"/><path class="cls-7" d="M288.71,72.71a1,1,0,0,1-.71,1.1,2.91,2.91,0,0,1-2.35,0c-.84-.43-2-1.09-1.76-1.93a2.34,2.34,0,0,1,2.44-1.5C287.67,70.37,288.75,72.23,288.71,72.71Z"/><path class="cls-7" d="M287.2,75.92a1.12,1.12,0,0,1-.5,1.5s-1,.82-2.94.14a2.64,2.64,0,0,1-.95-2.93C283.29,73,286.78,74.27,287.2,75.92Z"/><path class="cls-7" d="M277.63,77.24a3.81,3.81,0,0,0,3.76.74c1.06-.45.63-1.29.19-2.31a1.88,1.88,0,0,0-1.74-1A4.09,4.09,0,0,0,277.42,76,.83.83,0,0,0,277.63,77.24Z"/><path class="cls-7" d="M275.27,73.52a1.61,1.61,0,0,0,.87,1.81c.76.32,1.56-.2,2.45-.76a11.05,11.05,0,0,1,1.55-.48c1.13-.25,2.08,0,2.61-1.27.41-1-.65-1.86-.95-2.56a7.14,7.14,0,0,1-.69-1.88c-.1-.82-.21-1.64-1-2a1.56,1.56,0,0,0-2,.59S275.53,70.94,275.27,73.52Z"/><path class="cls-7" d="M251.81,81.32a2.57,2.57,0,0,0-1.34-1c-.91-.28-1.6-.41-1.85.57a1.66,1.66,0,0,0,1.26,1.85C250.43,82.93,252.44,82.54,251.81,81.32Z"/><path class="cls-7" d="M254,85a.74.74,0,0,1-.54.84,2.21,2.21,0,0,1-1.78,0c-.64-.33-1.56-.82-1.34-1.47a1.77,1.77,0,0,1,1.85-1.14C253.25,83.18,254.07,84.59,254,85Z"/><path class="cls-7" d="M252.89,87.4a.84.84,0,0,1-.38,1.14,2.32,2.32,0,0,1-2.24.11,2,2,0,0,1-.71-2.22C249.92,85.15,252.57,86.15,252.89,87.4Z"/><path class="cls-7" d="M245.61,88.41a2.9,2.9,0,0,0,2.86.56c.81-.34.48-1,.15-1.76a1.42,1.42,0,0,0-1.32-.73,3.12,3.12,0,0,0-1.85,1A.65.65,0,0,0,245.61,88.41Z"/><path class="cls-7" d="M243.81,85.57a1.24,1.24,0,0,0,.66,1.38c.59.25,1.19-.15,1.87-.58a9.87,9.87,0,0,1,1.18-.36c.86-.19,1.59,0,2-1,.31-.74-.49-1.42-.73-2a5.52,5.52,0,0,1-.52-1.44c-.08-.62-.16-1.24-.74-1.49a1.22,1.22,0,0,0-1.55.45S244,83.61,243.81,85.57Z"/><path class="cls-7" d="M346.05,82.09a3.94,3.94,0,0,0-2.49-.56c-1.49.14-2.54.37-2.32,1.94s2.06,2,2.93,1.88S347.68,83.45,346.05,82.09Z"/><path class="cls-7" d="M351.44,86a1.14,1.14,0,0,1-.27,1.52,3.43,3.43,0,0,1-2.56,1.06c-1.11-.09-2.72-.24-2.81-1.29a2.77,2.77,0,0,1,2-2.76C349.23,83.88,351.26,85.4,351.44,86Z"/><path class="cls-7" d="M351.27,90.14a1.3,1.3,0,0,1,.15,1.85s-.68,1.34-3.14,1.51a3.08,3.08,0,0,1-2.37-2.75C345.66,88.71,350.06,88.53,351.27,90.14Z"/><path class="cls-7" d="M341.47,96a4.49,4.49,0,0,0,4.43-.93c.94-1,.09-1.69-.86-2.6a2.21,2.21,0,0,0-2.33-.25,4.83,4.83,0,0,0-2,2.52A1,1,0,0,0,341.47,96Z"/><path class="cls-7" d="M337.18,93A1.92,1.92,0,0,0,339,94.58c1,0,1.61-.94,2.32-2a13.47,13.47,0,0,1,1.47-1.22c1.11-.8,2.25-1,2.25-2.59,0-1.25-1.56-1.73-2.21-2.35a8.79,8.79,0,0,1-1.62-1.73c-.48-.84-1-1.68-2-1.68a1.86,1.86,0,0,0-1.93,1.57S336.28,90.08,337.18,93Z"/><path class="cls-7" d="M703.46,139.09a3.92,3.92,0,0,0-2.4-.69c-1.46,0-2.5.21-2.37,1.76s1.89,2.07,2.74,2S705,140.52,703.46,139.09Z"/><path class="cls-7" d="M708.49,143.18a1.12,1.12,0,0,1-.35,1.47,3.32,3.32,0,0,1-2.56.88c-1.08-.15-2.65-.39-2.66-1.42a2.71,2.71,0,0,1,2.07-2.58C706.46,141,708.35,142.64,708.49,143.18Z"/><path class="cls-7" d="M708.08,147.26a1.27,1.27,0,0,1,0,1.82s-.74,1.27-3.15,1.29a3,3,0,0,1-2.15-2.82C702.69,145.54,707,145.62,708.08,147.26Z"/><path class="cls-7" d="M698.17,152.38a4.39,4.39,0,0,0,4.37-.64c1-.9.2-1.65-.68-2.59a2.15,2.15,0,0,0-2.26-.38,4.71,4.71,0,0,0-2.14,2.33A1,1,0,0,0,698.17,152.38Z"/><path class="cls-7" d="M694.16,149.23a1.86,1.86,0,0,0,1.64,1.64c1,.06,1.63-.82,2.39-1.78a12.57,12.57,0,0,1,1.5-1.1c1.13-.72,2.26-.84,2.35-2.39.08-1.22-1.42-1.79-2-2.43a8.54,8.54,0,0,1-1.48-1.79c-.42-.85-.85-1.7-1.81-1.76a1.84,1.84,0,0,0-2,1.43S693.45,146.32,694.16,149.23Z"/><path class="cls-7" d="M310.77,130.27a3.77,3.77,0,0,0-1.64-1.76c-1.23-.67-2.16-1-2.82.28s.53,2.64,1.27,3S311.31,132.19,310.77,130.27Z"/><path class="cls-7" d="M312.9,136.11a1.08,1.08,0,0,1-1,1,3.19,3.19,0,0,1-2.54-.54c-.82-.65-2-1.62-1.49-2.48a2.61,2.61,0,0,1,3-1.1C312.28,133.34,313.05,135.6,312.9,136.11Z"/><path class="cls-7" d="M310.55,139.27a1.24,1.24,0,0,1-.87,1.52s-1.24.68-3.23-.5a2.89,2.89,0,0,1-.39-3.38C307,135.19,310.45,137.39,310.55,139.27Z"/><path class="cls-7" d="M299.86,138.6a4.22,4.22,0,0,0,3.92,1.63c1.25-.26,1-1.26.72-2.47a2.09,2.09,0,0,0-1.68-1.43,4.58,4.58,0,0,0-2.92.87A.93.93,0,0,0,299.86,138.6Z"/><path class="cls-7" d="M298.11,134a1.79,1.79,0,0,0,.54,2.16c.77.52,1.75.13,2.84-.29a12.8,12.8,0,0,1,1.79-.17c1.28,0,2.27.43,3.11-.8.66-1-.29-2.18-.46-3a8.17,8.17,0,0,1-.34-2.2c.07-.91.13-1.82-.63-2.34a1.75,1.75,0,0,0-2.33.19S299,131.29,298.11,134Z"/><path class="cls-7" d="M355.3,140.77a4.23,4.23,0,0,0-2.43,1.14c-1.14,1.07-1.87,1.94-.68,3.09s3,.35,3.64-.31S357.53,140.86,355.3,140.77Z"/><path class="cls-7" d="M362.24,140.52A1.2,1.2,0,0,1,363,142a3.59,3.59,0,0,1-1.45,2.52c-1,.64-2.41,1.54-3.15.73a2.9,2.9,0,0,1-.14-3.55C359.09,140.22,361.75,140.18,362.24,140.52Z"/><path class="cls-7" d="M364.79,144.1a1.39,1.39,0,0,1,1.32,1.45s.29,1.55-1.64,3.27a3.24,3.24,0,0,1-3.73-.76C359.22,146.52,362.76,143.56,364.79,144.1Z"/><path class="cls-7" d="M360.4,155.24a4.71,4.71,0,0,0,3.08-3.61c.16-1.42-1-1.47-2.38-1.61a2.32,2.32,0,0,0-2.09,1.29,5.09,5.09,0,0,0-.08,3.4A1,1,0,0,0,360.4,155.24Z"/><path class="cls-7" d="M354.94,155.53a2,2,0,0,0,2.49.16c.81-.63.73-1.81.67-3.12a13.47,13.47,0,0,1,.43-1.95c.41-1.38,1.23-2.27.21-3.59-.8-1-2.41-.44-3.34-.54a8.92,8.92,0,0,1-2.46-.4c-.94-.38-1.89-.76-2.7-.13a2,2,0,0,0-.6,2.54S352.32,153.68,354.94,155.53Z"/><path class="cls-7" d="M420.59,142.13a3.07,3.07,0,0,0-1.92-.51c-1.15.06-2,.2-1.85,1.42s1.53,1.62,2.21,1.55S421.8,143.23,420.59,142.13Z"/><path class="cls-7" d="M424.63,145.29a.89.89,0,0,1-.26,1.17,2.64,2.64,0,0,1-2,.73c-.86-.1-2.1-.27-2.13-1.08a2.15,2.15,0,0,1,1.6-2.08A2.81,2.81,0,0,1,424.63,145.29Z"/><path class="cls-7" d="M424.37,148.52a1,1,0,0,1,.05,1.44,2.79,2.79,0,0,1-2.48,1.06,2.38,2.38,0,0,1-1.74-2.19C420.07,147.24,423.48,147.24,424.37,148.52Z"/><path class="cls-7" d="M416.6,152.72a3.47,3.47,0,0,0,3.45-.58c.76-.72.13-1.3-.58-2a1.69,1.69,0,0,0-1.79-.27,3.73,3.73,0,0,0-1.66,1.88A.77.77,0,0,0,416.6,152.72Z"/><path class="cls-7" d="M413.38,150.29a1.47,1.47,0,0,0,1.32,1.27c.76,0,1.28-.67,1.86-1.44a11.06,11.06,0,0,1,1.17-.9c.89-.58,1.78-.7,1.83-1.92,0-1-1.15-1.4-1.64-1.9a6.46,6.46,0,0,1-1.19-1.39c-.35-.66-.7-1.33-1.46-1.36a1.45,1.45,0,0,0-1.55,1.16S412.77,148,413.38,150.29Z"/><path class="cls-7" d="M321.67,63.49a2.42,2.42,0,0,0-1.22-.92c-.84-.28-1.47-.42-1.73.49s.63,1.59,1.13,1.74S322.22,64.63,321.67,63.49Z"/><path class="cls-7" d="M323.65,66.9a.69.69,0,0,1-.52.76,2,2,0,0,1-1.65,0c-.58-.32-1.42-.8-1.21-1.39a1.66,1.66,0,0,1,1.74-1C323,65.24,323.69,66.56,323.65,66.9Z"/><path class="cls-7" d="M322.53,69.13a.78.78,0,0,1-.37,1.05,2.16,2.16,0,0,1-2.07,0,1.85,1.85,0,0,1-.62-2.07C319.84,67,322.27,68,322.53,69.13Z"/><path class="cls-7" d="M315.78,69.91a2.69,2.69,0,0,0,2.64.57c.75-.29.46-.89.17-1.62a1.33,1.33,0,0,0-1.21-.7,2.85,2.85,0,0,0-1.72.87A.59.59,0,0,0,315.78,69.91Z"/><path class="cls-7" d="M314.18,67.25a1.16,1.16,0,0,0,.58,1.29c.54.24,1.11-.12,1.74-.5a8.27,8.27,0,0,1,1.1-.31c.8-.16,1.47,0,1.85-.85.31-.68-.42-1.32-.62-1.82a5,5,0,0,1-.45-1.33c-.06-.58-.13-1.16-.66-1.4a1.11,1.11,0,0,0-1.43.38S314.41,65.44,314.18,67.25Z"/><path class="cls-7" d="M388.15,81.63a3.42,3.42,0,0,0-2.06-.61c-1.25,0-2.15.16-2,1.48s1.6,1.81,2.34,1.75S389.43,82.87,388.15,81.63Z"/><path class="cls-7" d="M392.43,85.19a1,1,0,0,1-.32,1.27,2.86,2.86,0,0,1-2.2.72c-.93-.13-2.27-.36-2.28-1.24a2.35,2.35,0,0,1,1.81-2.2C390.7,83.33,392.32,84.73,392.43,85.19Z"/><path class="cls-7" d="M392,88.69a1.11,1.11,0,0,1,0,1.57s-.65,1.08-2.72,1.07a2.59,2.59,0,0,1-1.82-2.44C387.42,87.16,391.12,87.28,392,88.69Z"/><path class="cls-7" d="M383.48,93a3.77,3.77,0,0,0,3.76-.51c.85-.77.18-1.42-.56-2.23a1.86,1.86,0,0,0-1.94-.35,4,4,0,0,0-1.86,2A.84.84,0,0,0,383.48,93Z"/><path class="cls-7" d="M380.06,90.25a1.61,1.61,0,0,0,1.4,1.43c.82.06,1.4-.69,2.06-1.5a10.17,10.17,0,0,1,1.3-.94c1-.6,1.95-.7,2.05-2,.07-1-1.21-1.55-1.72-2.11a7.21,7.21,0,0,1-1.25-1.55c-.35-.73-.72-1.46-1.54-1.52a1.58,1.58,0,0,0-1.72,1.2S379.48,87.75,380.06,90.25Z"/><path class="cls-7" d="M500.92,61.58a4.93,4.93,0,0,0-3,.79c-1.54,1-2.56,1.83-1.43,3.41s3.37,1,4.25.41S503.47,62.15,500.92,61.58Z"/><path class="cls-7" d="M509,62.77a1.42,1.42,0,0,1,.57,1.82,4.23,4.23,0,0,1-2.21,2.58c-1.26.54-3.11,1.27-3.79.17a3.4,3.4,0,0,1,.6-4.11C505.4,61.75,508.47,62.28,509,62.77Z"/><path class="cls-7" d="M511.14,67.44a1.61,1.61,0,0,1,1.2,2s0,1.84-2.58,3.4a3.78,3.78,0,0,1-4.13-1.67C504.21,69,508.91,66.37,511.14,67.44Z"/><path class="cls-7" d="M503.71,79.32a5.53,5.53,0,0,0,4.32-3.5c.48-1.6-.85-1.9-2.4-2.36a2.71,2.71,0,0,0-2.68,1,6,6,0,0,0-.82,3.89A1.22,1.22,0,0,0,503.71,79.32Z"/><path class="cls-7" d="M497.36,78.48a2.35,2.35,0,0,0,2.83.72c1.07-.55,1.23-1.93,1.44-3.44a16.36,16.36,0,0,1,.91-2.16c.77-1.5,1.9-2.35,1-4.09-.7-1.36-2.68-1-3.74-1.33a10.65,10.65,0,0,1-2.73-1c-1-.65-2-1.29-3.09-.74a2.3,2.3,0,0,0-1.23,2.81S494.74,75.79,497.36,78.48Z"/><path class="cls-7" d="M601.65,64.27a3.13,3.13,0,0,0-1.73-1c-1.13-.22-2-.28-2.14.93s1.09,1.93,1.76,2S602.55,65.64,601.65,64.27Z"/><path class="cls-7" d="M604.79,68.31a.89.89,0,0,1-.54,1.07,2.67,2.67,0,0,1-2.12.22c-.81-.31-2-.78-1.8-1.57a2.14,2.14,0,0,1,2.06-1.61C603.6,66.3,604.77,67.87,604.79,68.31Z"/><path class="cls-7" d="M603.75,71.37a1,1,0,0,1-.31,1.41,2.79,2.79,0,0,1-2.65.43,2.39,2.39,0,0,1-1.15-2.56C599.9,69.09,603.19,69.92,603.75,71.37Z"/><path class="cls-7" d="M595.21,73.55a3.46,3.46,0,0,0,3.48.28c.91-.52.44-1.23-.06-2.11A1.73,1.73,0,0,0,597,71a3.73,3.73,0,0,0-2.06,1.42A.77.77,0,0,0,595.21,73.55Z"/><path class="cls-7" d="M592.69,70.41a1.46,1.46,0,0,0,1,1.55c.73.22,1.4-.34,2.15-.94a9.73,9.73,0,0,1,1.35-.58c1-.35,1.89-.24,2.24-1.42.27-.92-.78-1.63-1.13-2.23a6.62,6.62,0,0,1-.81-1.63c-.18-.73-.36-1.46-1.09-1.68a1.45,1.45,0,0,0-1.77.74S592.66,68.05,592.69,70.41Z"/><path class="cls-7" d="M653.64,63.51a3.08,3.08,0,0,0-1.72-1c-1.13-.22-2-.28-2.14.93s1.09,1.93,1.76,2S654.55,64.88,653.64,63.51Z"/><path class="cls-7" d="M656.78,67.55a.88.88,0,0,1-.53,1.07,2.67,2.67,0,0,1-2.12.22c-.81-.31-2-.78-1.8-1.57a2.14,2.14,0,0,1,2.06-1.61C655.6,65.54,656.77,67.11,656.78,67.55Z"/><path class="cls-7" d="M655.74,70.61a1,1,0,0,1-.3,1.41,2.79,2.79,0,0,1-2.65.43,2.39,2.39,0,0,1-1.15-2.56C651.9,68.33,655.19,69.16,655.74,70.61Z"/><path class="cls-7" d="M647.21,72.78a3.45,3.45,0,0,0,3.48.29c.91-.52.44-1.23-.07-2.11a1.72,1.72,0,0,0-1.67-.7,3.73,3.73,0,0,0-2.06,1.42A.76.76,0,0,0,647.21,72.78Z"/><path class="cls-7" d="M644.69,69.65a1.45,1.45,0,0,0,1,1.55c.72.22,1.39-.34,2.15-.94a9.73,9.73,0,0,1,1.35-.58c1-.35,1.89-.24,2.23-1.42.28-.92-.77-1.63-1.12-2.23a6.62,6.62,0,0,1-.81-1.63c-.18-.73-.36-1.46-1.09-1.68a1.46,1.46,0,0,0-1.78.74S644.66,67.29,644.69,69.65Z"/><path class="cls-7" d="M577.86,79.75a3.13,3.13,0,0,0-1.73-1c-1.13-.22-2-.28-2.14.93s1.09,1.93,1.76,2S578.76,81.11,577.86,79.75Z"/><path class="cls-7" d="M581,83.78a.91.91,0,0,1-.54,1.08,2.63,2.63,0,0,1-2.12.21c-.81-.3-2-.77-1.8-1.56a2.15,2.15,0,0,1,2.06-1.62C579.81,81.77,581,83.34,581,83.78Z"/><path class="cls-7" d="M580,86.85a1,1,0,0,1-.3,1.4,2.76,2.76,0,0,1-2.65.43,2.38,2.38,0,0,1-1.15-2.55C576.11,84.56,579.4,85.4,580,86.85Z"/><path class="cls-7" d="M571.42,89a3.43,3.43,0,0,0,3.48.28c.91-.51.44-1.23-.06-2.11a1.72,1.72,0,0,0-1.68-.69,3.75,3.75,0,0,0-2.06,1.41A.77.77,0,0,0,571.42,89Z"/><path class="cls-7" d="M568.9,85.89a1.47,1.47,0,0,0,1,1.55c.73.21,1.4-.34,2.15-.94a10.49,10.49,0,0,1,1.35-.59c1-.34,1.89-.24,2.24-1.41.27-.93-.78-1.63-1.13-2.23a6.56,6.56,0,0,1-.81-1.64c-.18-.73-.36-1.46-1.09-1.67a1.43,1.43,0,0,0-1.77.74S568.87,83.52,568.9,85.89Z"/><path class="cls-7" d="M475.17,140.62a4.81,4.81,0,0,0-2.53,1.7c-1.09,1.4-1.76,2.49-.22,3.58s3.41-.13,4-1S477.68,140.33,475.17,140.62Z"/><path class="cls-7" d="M482.92,139.14a1.36,1.36,0,0,1,1.09,1.48,4,4,0,0,1-1.19,3.07c-1,.9-2.44,2.16-3.41,1.37a3.3,3.3,0,0,1-.77-3.95C479.33,139.35,482.3,138.85,482.92,139.14Z"/><path class="cls-7" d="M486.39,142.72a1.55,1.55,0,0,1,1.72,1.39s.6,1.69-1.27,3.94a3.67,3.67,0,0,1-4.31-.2C480.56,146.39,484,142.45,486.39,142.72Z"/><path class="cls-7" d="M483.39,156a5.34,5.34,0,0,0,2.83-4.58c-.06-1.62-1.38-1.47-2.94-1.39a2.64,2.64,0,0,0-2.13,1.8,5.81,5.81,0,0,0,.5,3.83A1.18,1.18,0,0,0,483.39,156Z"/><path class="cls-7" d="M477.32,157.22a2.25,2.25,0,0,0,2.81-.24c.81-.85.51-2.16.22-3.61a15.16,15.16,0,0,1,.14-2.27c.23-1.61,1-2.76-.38-4.06-1.07-1-2.77-.08-3.84,0a10.3,10.3,0,0,1-2.82,0c-1.12-.27-2.25-.53-3.06.32a2.22,2.22,0,0,0-.23,2.95S474.06,155.6,477.32,157.22Z"/><path class="cls-7" d="M557.72,42.74a3.69,3.69,0,0,0-2.36.37c-1.24.63-2.07,1.18-1.34,2.47s2.47,1,3.18.63S559.6,43.36,557.72,42.74Z"/><path class="cls-7" d="M563.72,44.25a1.07,1.07,0,0,1,.28,1.42,3.17,3.17,0,0,1-1.86,1.78c-1,.31-2.45.73-2.87-.15a2.58,2.58,0,0,1,.76-3.07C561.09,43.21,563.38,43.84,563.72,44.25Z"/><path class="cls-7" d="M565,47.94a1.22,1.22,0,0,1,.76,1.57s-.13,1.39-2.21,2.38a2.87,2.87,0,0,1-3-1.58C559.64,48.62,563.4,47,565,47.94Z"/><path class="cls-7" d="M558.49,56.36A4.17,4.17,0,0,0,562,54c.49-1.17-.5-1.5-1.63-2a2.06,2.06,0,0,0-2.11.58,4.52,4.52,0,0,0-.91,2.88A.93.93,0,0,0,558.49,56.36Z"/><path class="cls-7" d="M553.75,55.25a1.78,1.78,0,0,0,2.08.76c.85-.34,1.08-1.37,1.35-2.5A12.72,12.72,0,0,1,558,52c.7-1.07,1.62-1.63,1.08-3-.43-1.09-2-1-2.73-1.29a8,8,0,0,1-2-.95c-.71-.57-1.43-1.13-2.28-.79a1.74,1.74,0,0,0-1.14,2S552,53,553.75,55.25Z"/><path class="cls-7" d="M633.79,82.89a3.77,3.77,0,0,0-1.67-1.7c-1.24-.64-2.18-1-2.8.35s.6,2.61,1.35,2.95S634.38,84.78,633.79,82.89Z"/><path class="cls-7" d="M636.07,88.64a1.08,1.08,0,0,1-1,1.06,3.18,3.18,0,0,1-2.54-.47c-.83-.63-2-1.56-1.55-2.42a2.59,2.59,0,0,1,2.94-1.18C635.38,85.9,636.2,88.12,636.07,88.64Z"/><path class="cls-7" d="M633.82,91.84a1.22,1.22,0,0,1-.83,1.53s-1.21.71-3.22-.4a2.9,2.9,0,0,1-.47-3.36C630.14,87.89,633.67,90,633.82,91.84Z"/><path class="cls-7" d="M623.18,91.46A4.17,4.17,0,0,0,627.12,93c1.23-.28.93-1.28.64-2.47a2.06,2.06,0,0,0-1.7-1.37,4.55,4.55,0,0,0-2.88.94A.93.93,0,0,0,623.18,91.46Z"/><path class="cls-7" d="M621.32,87a1.77,1.77,0,0,0,.59,2.13c.77.5,1.74.08,2.82-.36a11.51,11.51,0,0,1,1.76-.22c1.28-.06,2.28.36,3.08-.89.63-1-.35-2.15-.55-3a8.1,8.1,0,0,1-.39-2.18c0-.9.08-1.81-.69-2.31a1.75,1.75,0,0,0-2.31.26S622.09,84.22,621.32,87Z"/><path class="cls-7" d="M534.49,75.26a3.78,3.78,0,0,0-2.23.83c-1.08.87-1.78,1.58-.81,2.68s2.61.52,3.23,0S536.45,75.5,534.49,75.26Z"/><path class="cls-7" d="M540.64,75.54a1.06,1.06,0,0,1,.56,1.32A3.19,3.19,0,0,1,539.74,79c-.91.5-2.24,1.19-2.83.42a2.56,2.56,0,0,1,.13-3.14C537.87,75.05,540.22,75.2,540.64,75.54Z"/><path class="cls-7" d="M542.63,78.88a1.21,1.21,0,0,1,1,1.37s.15,1.39-1.68,2.76a2.84,2.84,0,0,1-3.23-.93C537.54,80.62,540.87,78.25,542.63,78.88Z"/><path class="cls-7" d="M538,88.39a4.14,4.14,0,0,0,3-3c.25-1.24-.78-1.37-2-1.59a2,2,0,0,0-1.94,1,4.56,4.56,0,0,0-.32,3A.93.93,0,0,0,538,88.39Z"/><path class="cls-7" d="M533.12,88.25a1.78,1.78,0,0,0,2.18.33c.76-.5.78-1.55.82-2.71a12.27,12.27,0,0,1,.51-1.69c.47-1.18,1.26-1.92.45-3.15-.63-1-2.09-.56-2.91-.71a8.3,8.3,0,0,1-2.14-.53c-.8-.41-1.61-.82-2.38-.32a1.76,1.76,0,0,0-.71,2.21S530.93,86.43,533.12,88.25Z"/><path class="cls-7" d="M666.3,146.31a3.65,3.65,0,0,0-2.12-.86c-1.32-.1-2.28,0-2.32,1.36s1.51,2.07,2.29,2.09S667.52,147.76,666.3,146.31Z"/><path class="cls-7" d="M670.45,150.51a1,1,0,0,1-.46,1.31,3.1,3.1,0,0,1-2.41.54c-1-.24-2.36-.62-2.28-1.55a2.48,2.48,0,0,1,2.14-2.14C668.82,148.37,670.38,150,670.45,150.51Z"/><path class="cls-7" d="M669.68,154.17a1.16,1.16,0,0,1-.15,1.65s-.8,1.08-3,.86a2.76,2.76,0,0,1-1.67-2.77C665,152.08,668.85,152.58,669.68,154.17Z"/><path class="cls-7" d="M660.19,157.83a4,4,0,0,0,4-.15c1-.72.33-1.47-.37-2.41a2,2,0,0,0-2-.57,4.3,4.3,0,0,0-2.17,1.91A.88.88,0,0,0,660.19,157.83Z"/><path class="cls-7" d="M656.86,154.58a1.7,1.7,0,0,0,1.33,1.65c.86.15,1.55-.58,2.34-1.37A12.13,12.13,0,0,1,662,154c1.1-.53,2.14-.53,2.38-1.93.18-1.1-1.12-1.76-1.6-2.4a7.83,7.83,0,0,1-1.16-1.77c-.3-.81-.61-1.62-1.47-1.77a1.67,1.67,0,0,0-1.94,1.09S656.51,151.88,656.86,154.58Z"/><path class="cls-7" d="M674.74,87.6a3.72,3.72,0,0,0-1.27-2c-1.07-.86-1.9-1.39-2.76-.22s0,2.63.69,3.11S674.92,89.54,674.74,87.6Z"/><path class="cls-7" d="M675.76,93.6a1.06,1.06,0,0,1-1.17.82,3.15,3.15,0,0,1-2.35-1c-.67-.78-1.62-1.92-1-2.66a2.56,2.56,0,0,1,3.07-.53C675.65,90.83,676,93.13,675.76,93.6Z"/><path class="cls-7" d="M672.94,96.23a1.2,1.2,0,0,1-1.1,1.3s-1.32.44-3-1a2.84,2.84,0,0,1,.22-3.33C670.2,91.67,673.18,94.4,672.94,96.23Z"/><path class="cls-7" d="M662.77,93.7A4.14,4.14,0,0,0,666.26,96c1.25,0,1.15-1,1.12-2.25A2,2,0,0,0,666,92a4.44,4.44,0,0,0-3,.32A.91.91,0,0,0,662.77,93.7Z"/><path class="cls-7" d="M661.89,89a1.75,1.75,0,0,0,.14,2.17c.65.64,1.66.43,2.79.22a12.15,12.15,0,0,1,1.74.15c1.24.2,2.12.81,3.15-.23.8-.81.1-2.14.07-3a8,8,0,0,1,.07-2.18c.22-.86.44-1.73-.2-2.36a1.72,1.72,0,0,0-2.28-.23S663.19,86.5,661.89,89Z"/><path d="M180.33,104.78a3.87,3.87,0,0,0-2.11,1.11c-1,1-1.61,1.76-.56,2.69s2.6.13,3.16-.47S182.27,104.73,180.33,104.78Z"/><path d="M186.37,104.19a1,1,0,0,1,.67,1.19,3.31,3.31,0,0,1-1.25,2.24c-.84.61-2.09,1.46-2.73.8a2.44,2.44,0,0,1-.15-3C183.62,104.1,185.93,103.92,186.37,104.19Z"/><path d="M188.61,107.13a1.11,1.11,0,0,1,1.15,1.17s.27,1.32-1.4,2.89a2.8,2.8,0,0,1-3.25-.45C183.78,109.51,186.83,106.77,188.61,107.13Z"/><path d="M184.87,116.93a4.32,4.32,0,0,0,2.65-3.27c.13-1.22-.89-1.2-2.08-1.25a2.17,2.17,0,0,0-1.81,1.22,4.38,4.38,0,0,0,0,2.93A.89.89,0,0,0,184.87,116.93Z"/><path d="M180.12,117.47a1.76,1.76,0,0,0,2.16,0c.71-.59.63-1.6.56-2.72a12.11,12.11,0,0,1,.36-1.7c.35-1.2,1.06-2,.17-3.09-.71-.85-2.1-.25-2.92-.28a7.71,7.71,0,0,1-2.13-.21c-.82-.28-1.65-.56-2.36,0a1.74,1.74,0,0,0-.5,2.23S177.82,116,180.12,117.47Z"/><path class="cls-1" d="M119.45,83.35,111.25,98l16.39,31.94a5.92,5.92,0,0,0,5,3.74c3.81.26,11.36.33,11.36.33s1.94-.65,1.23-3.16-2.13-2.72-3.81-2.84-5.29-.07-5.29-.07-2.77-.56-5.29-4.9C125.77,114.26,119.45,83.35,119.45,83.35Z"/><path class="cls-1" d="M130.61,15c-.87-1.13-1.13.13-1.13.13s3,8.36,3.81,10.88,2.93,13.06,2.93,16.35-2.87,6.52-9.35,5.17c-5.24-1.1-8.39-8.13-9.81-11.43s-1.61-15.13-2.26-16.45c-1-2-1.16.19-1.16.19s.23,10.33,2.55,17.16c2.13,6.28,7.72,12.24,7.72,12.24V60.12c.39,6.84-2.07,16.26-2.07,16.26S114.41,89.61,112.48,93s-5.88,12.58-5.88,12.58-.25,18-.19,20.52,1.55,2.71,3,2.71,6.32.05,6.58,3.55c.22,2.9-3,3.23-3,3.23s-5.42-.07-9.16-.33-3.55-3.09-3.55-3.09-3.1-32.72-3.49-34.27-5.81.58-8.71,2.32-4,.91-4.77.59S76,99,72.08,100s-10.39,7-10.39,7c9-7.61,14.14-6,18.52-5.29s11,6.71,8.59,14.52a36.12,36.12,0,0,1-8.39,13.61l5.38,0s4.15-.29,4.41,2.28c.53,5.37-4.84,3.83-4.84,3.83H38.08a56.93,56.93,0,0,1-23.3-4.39,18.22,18.22,0,0,1-9.87-12.77c-1-5.81-.19-11.42,3.16-18s9.94-9,15-9.62,10.07,2.71,11.29,4.65-1,.84-1,.84C26,94.84,21,99.55,19.56,101s-7,11.87.32,19.29S34,127.17,34,127.17c-1.42-3.55-.52-12.59.58-17.68s4.39-11.42,8.64-18.26S57,78.51,63.56,74.71,78.54,61,80.28,58.83,98.6,36.73,98.6,36.73,116,10.85,121.45,7.34c4.51-2.9,13.42-1.68,15.29-1s8.26,2.26,8.65,6.84c.31,3.77,2.13,4.91,4.71,5.94S161,21.86,161,21.86s2.36-.14,1.84,1.35a25.77,25.77,0,0,1-1.19,2.41s-.39.43-1.68,6.3-16.37,5.34-19.66,5.2a3.12,3.12,0,0,1-2.93-2.06C136.49,32.88,130.61,15,130.61,15Z"/><ellipse cx="124.06" cy="66.04" rx="1.84" ry="4.76"/><path d="M123.91,60.32l0-3.43S109.39,53.14,98.42,37l-1.86,2.24S109,57.48,123.91,60.32Z"/><ellipse class="cls-8" cx="121.48" cy="58.09" rx="0.74" ry="0.9"/><ellipse class="cls-8" cx="111.22" cy="52.57" rx="0.74" ry="0.9"/><ellipse class="cls-8" cx="116.19" cy="55.7" rx="0.74" ry="0.9"/><ellipse class="cls-8" cx="106.57" cy="48.63" rx="0.74" ry="0.9"/><ellipse class="cls-8" cx="102.6" cy="44.6" rx="0.74" ry="0.9"/><ellipse class="cls-8" cx="98.86" cy="40.11" rx="0.74" ry="0.9"/><ellipse class="cls-7" cx="124.86" cy="66.04" rx="1.84" ry="4.66"/><ellipse class="cls-8" cx="399.51" cy="120.82" rx="4.88" ry="6.21"/><ellipse class="cls-8" cx="556.58" cy="120.76" rx="5.63" ry="7.14"/><path d="M395.82,115.28a3.25,3.25,0,0,0-1.74.92c-.81.81-1.33,1.45-.47,2.22s2.15.11,2.61-.38S397.42,115.25,395.82,115.28Z"/><path d="M400.8,114.8a.81.81,0,0,1,.55,1,2.75,2.75,0,0,1-1,1.85c-.7.5-1.73,1.2-2.26.65a2,2,0,0,1-.12-2.51A2.85,2.85,0,0,1,400.8,114.8Z"/><path d="M402.65,117.23a.92.92,0,0,1,1,1s.22,1.09-1.16,2.39a2.31,2.31,0,0,1-2.68-.38C398.66,119.19,401.19,116.93,402.65,117.23Z"/><path d="M399.55,125.32a3.56,3.56,0,0,0,2.19-2.7c.11-1-.73-1-1.71-1a1.79,1.79,0,0,0-1.5,1,3.61,3.61,0,0,0,0,2.42A.73.73,0,0,0,399.55,125.32Z"/><path d="M395.63,125.76a1.46,1.46,0,0,0,1.79,0c.58-.48.51-1.32.46-2.24a11.34,11.34,0,0,1,.3-1.41c.29-1,.88-1.66.14-2.55-.58-.7-1.73-.21-2.4-.23a6.76,6.76,0,0,1-1.77-.18c-.67-.23-1.36-.46-1.94,0a1.43,1.43,0,0,0-.42,1.83S393.74,124.56,395.63,125.76Z"/><path d="M554.4,115a3.67,3.67,0,0,0-1.81,1.29c-.8,1-1.28,1.83-.2,2.57s2.43-.2,2.87-.83S556.19,114.73,554.4,115Z"/><path d="M559.93,113.72a.92.92,0,0,1,.77,1,3.12,3.12,0,0,1-.88,2.23c-.71.67-1.76,1.61-2.44,1.08a2.28,2.28,0,0,1-.51-2.8A3.23,3.23,0,0,1,559.93,113.72Z"/><path d="M562.37,116.18a1,1,0,0,1,1.21.94s.41,1.19-1,2.86a2.63,2.63,0,0,1-3.07,0C558.18,119,560.68,116.06,562.37,116.18Z"/><path d="M560.1,125.72a4.06,4.06,0,0,0,2.06-3.35c0-1.15-1-1-2.08-.91a2,2,0,0,0-1.54,1.36,4.05,4.05,0,0,0,.32,2.71A.83.83,0,0,0,560.1,125.72Z"/><path d="M555.76,126.81a1.64,1.64,0,0,0,2-.26c.58-.63.38-1.56.19-2.59a11.19,11.19,0,0,1,.12-1.62c.18-1.16.74-2-.23-2.89-.75-.7-2,0-2.73.1a7.28,7.28,0,0,1-2,.06c-.79-.15-1.6-.31-2.18.32a1.62,1.62,0,0,0-.19,2.12S553.46,125.75,555.76,126.81Z"/><path d="M141.84,19.4l-2.46-1.72,2.46-1.48-.32.59a1.13,1.13,0,0,1,.42.93,1,1,0,0,1-.53,1h0Z"/></svg>