<svg id="Capa_1" data-name="Capa 1" xmlns="http://www.w3.org/2000/svg" viewBox="0 0 645 130"><defs><style>.cls-1,.cls-2,.cls-3{fill:#010101;}.cls-2,.cls-4{font-size:48.89px;}.cls-2,.cls-3{font-family:eacologica-round_slab, eacologica round slab;}.cls-3{font-size:69.95px;}.cls-5{letter-spacing:0em;}.cls-6{letter-spacing:-0.01em;}</style></defs><path class="cls-1" d="M14.17,107.24a4.07,4.07,0,0,0-2.38.65c-1.22.77-2,1.41-1.18,2.56s2.62.7,3.32.22S16.15,107.61,14.17,107.24Z"/><path class="cls-1" d="M20.44,108a1,1,0,0,1,.42,1.34,3.42,3.42,0,0,1-1.76,2c-1,.42-2.45,1-3,.2a2.45,2.45,0,0,1,.52-3.06C17.67,107.28,20.06,107.61,20.44,108Z"/><path class="cls-1" d="M22.07,111.37a1.14,1.14,0,0,1,.91,1.42s0,1.37-2.06,2.58a3,3,0,0,1-3.21-1.15C16.63,112.7,20.35,110.63,22.07,111.37Z"/><path class="cls-1" d="M16.1,120.32a4.49,4.49,0,0,0,3.42-2.68c.4-1.19-.64-1.39-1.84-1.7a2.29,2.29,0,0,0-2.11.83,4.37,4.37,0,0,0-.7,2.9A.94.94,0,0,0,16.1,120.32Z"/><path class="cls-1" d="M11.15,119.83a1.84,1.84,0,0,0,2.2.48c.84-.43,1-1.45,1.17-2.58a12.11,12.11,0,0,1,.74-1.62c.62-1.12,1.52-1.78.85-3-.52-1-2.08-.7-2.9-.9a8.4,8.4,0,0,1-2.12-.68c-.78-.45-1.56-.91-2.41-.48a1.75,1.75,0,0,0-1,2.1S9.13,117.89,11.15,119.83Z"/><path class="cls-1" d="M50.17,30.09a3.44,3.44,0,0,0-1.88.91c-.88.82-1.45,1.47-.56,2.3s2.28.17,2.79-.33S51.87,30.1,50.17,30.09Z"/><path class="cls-1" d="M55.48,29.73a.84.84,0,0,1,.56,1,2.82,2.82,0,0,1-1.15,1.89c-.75.51-1.86,1.21-2.42.63a2.08,2.08,0,0,1,0-2.62A3.06,3.06,0,0,1,55.48,29.73Z"/><path class="cls-1" d="M57.38,32.31a1,1,0,0,1,1,1s.2,1.14-1.3,2.45a2.5,2.5,0,0,1-2.84-.46C53.08,34.23,55.83,32,57.38,32.31Z"/><path class="cls-1" d="M53.86,40.64a3.74,3.74,0,0,0,2.4-2.75c.15-1-.75-1-1.79-1.12a1.89,1.89,0,0,0-1.62,1,3.68,3.68,0,0,0-.11,2.51A.79.79,0,0,0,53.86,40.64Z"/><path class="cls-1" d="M49.68,41a1.56,1.56,0,0,0,1.89.06c.64-.49.59-1.36.56-2.32a10.51,10.51,0,0,1,.36-1.45c.34-1,1-1.71.22-2.66-.6-.74-1.84-.26-2.55-.31a7,7,0,0,1-1.87-.23c-.71-.26-1.44-.52-2.07,0a1.46,1.46,0,0,0-.49,1.89S47.7,39.69,49.68,41Z"/><path class="cls-1" d="M98.91,43.64a4.8,4.8,0,0,0-2.64,1.14c-1.27,1.09-2.09,2-.91,3.14s3.14.37,3.86-.3S101.26,43.74,98.91,43.64Z"/><path class="cls-1" d="M106.26,43.43A1.15,1.15,0,0,1,107,44.9a3.92,3.92,0,0,1-1.69,2.55c-1.07.65-2.65,1.56-3.38.72a2.86,2.86,0,0,1,.08-3.61C103,43.11,105.76,43.08,106.26,43.43Z"/><path class="cls-1" d="M108.73,47.09A1.34,1.34,0,0,1,110,48.58s.21,1.57-1.94,3.3a3.45,3.45,0,0,1-3.89-.79C102.69,49.51,106.61,46.52,108.73,47.09Z"/><path class="cls-1" d="M103.39,58.39a5.2,5.2,0,0,0,3.48-3.65c.25-1.44-1-1.5-2.41-1.65a2.63,2.63,0,0,0-2.3,1.29,5.12,5.12,0,0,0-.3,3.46A1.1,1.1,0,0,0,103.39,58.39Z"/><path class="cls-1" d="M97.6,58.65a2.16,2.16,0,0,0,2.62.18c.9-.63.88-1.84.9-3.17a14.1,14.1,0,0,1,.58-2c.52-1.4,1.45-2.31.45-3.65-.78-1.06-2.51-.47-3.5-.57A10,10,0,0,1,96.09,49c-1-.4-2-.8-2.85-.16a2,2,0,0,0-.79,2.59S95,56.75,97.6,58.65Z"/><path class="cls-1" d="M53.31,106.49a4.46,4.46,0,0,0-2.38,1.22c-1.11,1.09-1.82,2-.64,3s2.94.14,3.57-.52S55.5,106.43,53.31,106.49Z"/><path class="cls-1" d="M60.14,105.83a1.07,1.07,0,0,1,.75,1.32,3.58,3.58,0,0,1-1.4,2.48c-1,.68-2.36,1.62-3.1.89a2.67,2.67,0,0,1-.16-3.37C57,105.74,59.65,105.54,60.14,105.83Z"/><path class="cls-1" d="M62.67,109.09a1.25,1.25,0,0,1,1.3,1.3s.31,1.45-1.58,3.2a3.22,3.22,0,0,1-3.67-.5C57.21,111.72,60.67,108.69,62.67,109.09Z"/><path class="cls-1" d="M58.44,119.94a4.79,4.79,0,0,0,3-3.62c.15-1.36-1-1.33-2.35-1.39A2.45,2.45,0,0,0,57,116.28a4.74,4.74,0,0,0,0,3.24A1,1,0,0,0,58.44,119.94Z"/><path class="cls-1" d="M53.07,120.54a2,2,0,0,0,2.45,0c.8-.65.71-1.77.64-3a13,13,0,0,1,.4-1.88c.4-1.34,1.2-2.24.19-3.43-.8-.94-2.38-.28-3.3-.31a9.22,9.22,0,0,1-2.41-.23c-.93-.31-1.87-.62-2.67,0a1.89,1.89,0,0,0-.56,2.46S50.48,118.94,53.07,120.54Z"/><path class="cls-1" d="M124.87,15.91a4.72,4.72,0,0,0-2.8-1.08c-1.76-.11-3,0-3,1.79s2,2.65,3.06,2.67S126.52,17.76,124.87,15.91Z"/><path class="cls-1" d="M130.43,21.28a1.31,1.31,0,0,1-.6,1.69,4.07,4.07,0,0,1-3.17.74c-1.28-.29-3.13-.76-3-2A3.23,3.23,0,0,1,126.42,19C128.24,18.53,130.32,20.63,130.43,21.28Z"/><path class="cls-1" d="M129.46,26a1.48,1.48,0,0,1-.17,2.14s-1,1.4-3.93,1.15a3.58,3.58,0,0,1-2.26-3.56C123.19,23.39,128.34,24,129.46,26Z"/><path class="cls-1" d="M117,30.91a5.38,5.38,0,0,0,5.33-.26c1.28-.94.42-1.91-.52-3.12a2.67,2.67,0,0,0-2.67-.7,5.73,5.73,0,0,0-2.84,2.5A1.14,1.14,0,0,0,117,30.91Z"/><path class="cls-1" d="M112.53,26.75a2.23,2.23,0,0,0,1.78,2.12c1.14.17,2-.78,3.07-1.82a15.3,15.3,0,0,1,1.93-1.13c1.44-.7,2.81-.72,3.1-2.53.23-1.43-1.5-2.26-2.14-3.09A9.79,9.79,0,0,1,118.71,18c-.41-1-.83-2.09-2-2.27a2.21,2.21,0,0,0-2.54,1.44S112,23.26,112.53,26.75Z"/><path class="cls-1" d="M182.43,31a3.57,3.57,0,0,0-1.87-1.31c-1.28-.39-2.23-.57-2.6.78s1,2.33,1.77,2.52S183.3,32.7,182.43,31Z"/><path class="cls-1" d="M185.54,36a1,1,0,0,1-.76,1.15,3.17,3.17,0,0,1-2.49,0c-.89-.45-2.17-1.13-1.87-2A2.5,2.5,0,0,1,183,33.56C184.43,33.58,185.58,35.51,185.54,36Z"/><path class="cls-1" d="M183.93,39.35a1.13,1.13,0,0,1-.53,1.55s-1,.86-3.12.15a2.68,2.68,0,0,1-1-3C179.79,36.27,183.49,37.63,183.93,39.35Z"/><path class="cls-1" d="M173.78,40.72a4.1,4.1,0,0,0,4,.77c1.13-.47.67-1.34.21-2.4a2,2,0,0,0-1.85-1,4.37,4.37,0,0,0-2.57,1.34A.86.86,0,0,0,173.78,40.72Z"/><path class="cls-1" d="M171.27,36.85a1.65,1.65,0,0,0,.92,1.88c.81.34,1.66-.21,2.61-.79a11.32,11.32,0,0,1,1.64-.49c1.19-.26,2.21,0,2.77-1.32.43-1-.69-1.94-1-2.67a7.46,7.46,0,0,1-.73-1.95c-.11-.85-.23-1.7-1-2a1.7,1.7,0,0,0-2.15.61S171.54,34.17,171.27,36.85Z"/><path class="cls-1" d="M146.36,45a2.69,2.69,0,0,0-1.42-1c-1-.3-1.7-.44-2,.59s.76,1.77,1.34,1.92S147,46.22,146.36,45Z"/><path class="cls-1" d="M148.73,48.74a.78.78,0,0,1-.58.88,2.43,2.43,0,0,1-1.89,0c-.68-.34-1.65-.86-1.43-1.53a1.91,1.91,0,0,1,2-1.19C147.89,46.9,148.76,48.36,148.73,48.74Z"/><path class="cls-1" d="M147.51,51.28a.87.87,0,0,1-.41,1.19,2.5,2.5,0,0,1-2.37.11,2,2,0,0,1-.77-2.31C144.35,48.94,147.17,50,147.51,51.28Z"/><path class="cls-1" d="M139.78,52.33a3.1,3.1,0,0,0,3,.58c.86-.36.51-1,.16-1.83a1.55,1.55,0,0,0-1.41-.76,3.31,3.31,0,0,0-1.95,1A.66.66,0,0,0,139.78,52.33Z"/><path class="cls-1" d="M137.87,49.38a1.26,1.26,0,0,0,.7,1.43c.62.26,1.26-.15,2-.6a9.84,9.84,0,0,1,1.24-.37c.92-.2,1.69,0,2.11-1,.33-.77-.52-1.47-.77-2a5.64,5.64,0,0,1-.55-1.49c-.09-.65-.17-1.3-.79-1.55a1.29,1.29,0,0,0-1.64.46S138.08,47.34,137.87,49.38Z"/><path class="cls-1" d="M246.42,45.76a4.31,4.31,0,0,0-2.65-.58c-1.58.15-2.69.38-2.45,2s2.18,2.08,3.1,2S248.15,47.17,246.42,45.76Z"/><path class="cls-1" d="M252.14,49.77a1.19,1.19,0,0,1-.28,1.59,3.69,3.69,0,0,1-2.72,1.09c-1.18-.09-2.89-.25-3-1.34a2.9,2.9,0,0,1,2.08-2.87C249.8,47.62,252,49.2,252.14,49.77Z"/><path class="cls-1" d="M252,54.12a1.34,1.34,0,0,1,.15,1.93s-.72,1.4-3.33,1.57a3.25,3.25,0,0,1-2.52-2.85C246,52.64,250.67,52.46,252,54.12Z"/><path class="cls-1" d="M241.56,60.19a4.82,4.82,0,0,0,4.7-1c1-1,.1-1.76-.91-2.7a2.39,2.39,0,0,0-2.48-.26,5.1,5.1,0,0,0-2.17,2.62A1,1,0,0,0,241.56,60.19Z"/><path class="cls-1" d="M237,57.11a2,2,0,0,0,1.88,1.63c1.05,0,1.71-1,2.47-2a15,15,0,0,1,1.55-1.28c1.19-.82,2.4-1,2.4-2.68,0-1.3-1.66-1.81-2.35-2.45a9,9,0,0,1-1.72-1.8c-.51-.87-1-1.75-2.08-1.75a2,2,0,0,0-2.06,1.64S236.05,54.07,237,57.11Z"/><path class="cls-1" d="M625.91,105a4.24,4.24,0,0,0-2.55-.72c-1.55.06-2.65.22-2.52,1.83s2,2.15,2.92,2.08S627.52,106.49,625.91,105Z"/><path class="cls-1" d="M631.25,109.26a1.14,1.14,0,0,1-.37,1.53,3.62,3.62,0,0,1-2.72.91c-1.15-.15-2.81-.41-2.83-1.48a2.83,2.83,0,0,1,2.21-2.68C629.09,107,631.1,108.69,631.25,109.26Z"/><path class="cls-1" d="M630.82,113.5a1.31,1.31,0,0,1,0,1.89s-.79,1.32-3.34,1.34a3.18,3.18,0,0,1-2.29-2.94C625.09,111.71,629.66,111.8,630.82,113.5Z"/><path class="cls-1" d="M620.29,118.82a4.73,4.73,0,0,0,4.65-.67c1-.93.2-1.71-.73-2.69a2.34,2.34,0,0,0-2.4-.4,5,5,0,0,0-2.27,2.43A1,1,0,0,0,620.29,118.82Z"/><path class="cls-1" d="M616,115.54a2,2,0,0,0,1.75,1.71c1,.06,1.73-.85,2.53-1.85a14.23,14.23,0,0,1,1.59-1.15c1.21-.74,2.4-.87,2.5-2.48.08-1.27-1.5-1.86-2.14-2.53a8.94,8.94,0,0,1-1.57-1.85c-.45-.88-.91-1.77-1.93-1.83a1.94,1.94,0,0,0-2.1,1.48S615.28,112.52,616,115.54Z"/><path class="cls-1" d="M209,95.84A4,4,0,0,0,207.22,94c-1.3-.7-2.3-1.09-3,.29s.56,2.75,1.35,3.13S209.53,97.83,209,95.84Z"/><path class="cls-1" d="M211.22,101.91a1.13,1.13,0,0,1-1.08,1.08,3.48,3.48,0,0,1-2.7-.56c-.87-.68-2.1-1.69-1.58-2.58A2.77,2.77,0,0,1,209,98.71C210.56,99,211.38,101.38,211.22,101.91Z"/><path class="cls-1" d="M208.73,105.19a1.28,1.28,0,0,1-.93,1.58s-1.31.7-3.43-.51a3,3,0,0,1-.41-3.52C204.91,101,208.63,103.23,208.73,105.19Z"/><path class="cls-1" d="M197.38,104.5a4.53,4.53,0,0,0,4.16,1.69c1.33-.27,1-1.31.76-2.57s-1.78-1.48-1.78-1.48a4.91,4.91,0,0,0-3.1.9A1,1,0,0,0,197.38,104.5Z"/><path class="cls-1" d="M195.52,99.75a1.82,1.82,0,0,0,.58,2.24c.8.54,1.85.13,3-.29a14.24,14.24,0,0,1,1.89-.19c1.37,0,2.42.45,3.31-.83.71-1-.3-2.26-.49-3.12a8.06,8.06,0,0,1-.36-2.28c.07-1,.14-1.9-.67-2.44a1.89,1.89,0,0,0-2.47.2S196.42,96.89,195.52,99.75Z"/><path class="cls-1" d="M256.24,106.75a4.5,4.5,0,0,0-2.58,1.19c-1.21,1.11-2,2-.72,3.21s3.18.36,3.86-.33S258.6,106.84,256.24,106.75Z"/><path class="cls-1" d="M263.62,106.49a1.26,1.26,0,0,1,.8,1.5,3.7,3.7,0,0,1-1.54,2.61c-1,.67-2.56,1.61-3.35.77a3,3,0,0,1-.15-3.69C260.26,106.18,263.09,106.14,263.62,106.49Z"/><path class="cls-1" d="M266.32,110.22a1.44,1.44,0,0,1,1.4,1.5s.31,1.61-1.74,3.39a3.49,3.49,0,0,1-4-.78C260.41,112.73,264.16,109.65,266.32,110.22Z"/><path class="cls-1" d="M261.66,121.79a4.89,4.89,0,0,0,3.27-3.75c.17-1.48-1.07-1.52-2.53-1.67a2.47,2.47,0,0,0-2.22,1.34,5.17,5.17,0,0,0-.09,3.53A1.13,1.13,0,0,0,261.66,121.79Z"/><path class="cls-1" d="M255.86,122.09a2.15,2.15,0,0,0,2.64.17c.87-.65.78-1.88.71-3.24a13.89,13.89,0,0,1,.46-2c.44-1.43,1.31-2.36.23-3.73-.85-1.08-2.56-.46-3.56-.56a9.82,9.82,0,0,1-2.6-.42c-1-.4-2-.79-2.88-.14a2,2,0,0,0-.63,2.65S253.07,120.17,255.86,122.09Z"/><path class="cls-1" d="M325.56,108.16a3.37,3.37,0,0,0-2-.53c-1.22.07-2.1.22-2,1.48s1.62,1.68,2.34,1.61S326.85,109.31,325.56,108.16Z"/><path class="cls-1" d="M329.85,111.44a.91.91,0,0,1-.27,1.22,2.81,2.81,0,0,1-2.14.76c-.91-.1-2.23-.28-2.26-1.12a2.24,2.24,0,0,1,1.71-2.16A3,3,0,0,1,329.85,111.44Z"/><path class="cls-1" d="M329.57,114.81a1,1,0,0,1,.06,1.49,3,3,0,0,1-2.63,1.11,2.49,2.49,0,0,1-1.85-2.29C325,113.47,328.63,113.48,329.57,114.81Z"/><path class="cls-1" d="M321.33,119.17a3.72,3.72,0,0,0,3.66-.6c.81-.75.14-1.35-.61-2.11a1.84,1.84,0,0,0-1.91-.28,3.93,3.93,0,0,0-1.76,1.95A.8.8,0,0,0,321.33,119.17Z"/><path class="cls-1" d="M317.91,116.65a1.54,1.54,0,0,0,1.4,1.32c.81,0,1.36-.7,2-1.5a9.92,9.92,0,0,1,1.24-.93c.94-.61,1.89-.73,1.94-2,0-1-1.22-1.45-1.74-2a7,7,0,0,1-1.26-1.45c-.37-.69-.75-1.38-1.56-1.41a1.53,1.53,0,0,0-1.64,1.2S317.27,114.26,317.91,116.65Z"/><path class="cls-1" d="M220.53,26.42a2.49,2.49,0,0,0-1.29-.94c-.9-.3-1.56-.44-1.84.5s.67,1.65,1.2,1.81S221.12,27.61,220.53,26.42Z"/><path class="cls-1" d="M222.64,30a.71.71,0,0,1-.56.79,2.15,2.15,0,0,1-1.74-.05c-.62-.33-1.51-.83-1.29-1.44a1.77,1.77,0,0,1,1.85-1.06C221.9,28.25,222.67,29.62,222.64,30Z"/><path class="cls-1" d="M221.45,32.29a.8.8,0,0,1-.4,1.09,2.34,2.34,0,0,1-2.2,0,1.89,1.89,0,0,1-.65-2.15C218.59,30.06,221.17,31.08,221.45,32.29Z"/><path class="cls-1" d="M214.29,33.1a2.87,2.87,0,0,0,2.79.6c.8-.31.49-.93.18-1.69a1.41,1.41,0,0,0-1.28-.73,3.09,3.09,0,0,0-1.83.9A.62.62,0,0,0,214.29,33.1Z"/><path class="cls-1" d="M212.58,30.33a1.19,1.19,0,0,0,.62,1.34c.57.25,1.17-.12,1.85-.51a7.84,7.84,0,0,1,1.16-.32c.85-.17,1.56,0,2-.89.33-.7-.45-1.37-.66-1.89a4.94,4.94,0,0,1-.48-1.39c-.07-.59-.13-1.19-.7-1.44a1.2,1.2,0,0,0-1.52.39S212.82,28.45,212.58,30.33Z"/><path class="cls-1" d="M291.12,45.29a3.56,3.56,0,0,0-2.19-.64c-1.33,0-2.28.16-2.18,1.54s1.71,1.87,2.49,1.82S292.48,46.58,291.12,45.29Z"/><path class="cls-1" d="M295.67,49a1,1,0,0,1-.34,1.32,3.12,3.12,0,0,1-2.34.76c-1-.15-2.41-.38-2.42-1.3a2.42,2.42,0,0,1,1.92-2.28C293.83,47.05,295.54,48.5,295.67,49Z"/><path class="cls-1" d="M295.25,52.62a1.13,1.13,0,0,1,0,1.63s-.69,1.13-2.88,1.12a2.71,2.71,0,0,1-1.94-2.54C290.35,51,294.27,51.15,295.25,52.62Z"/><path class="cls-1" d="M286.16,57.1a4.08,4.08,0,0,0,4-.53c.9-.8.19-1.47-.6-2.32a2,2,0,0,0-2.06-.36,4.28,4.28,0,0,0-2,2.06A.87.87,0,0,0,286.16,57.1Z"/><path class="cls-1" d="M282.53,54.25A1.69,1.69,0,0,0,284,55.73c.88.06,1.5-.72,2.2-1.57a11,11,0,0,1,1.38-1c1-.62,2.07-.73,2.17-2.11.08-1.09-1.28-1.61-1.82-2.19a7.4,7.4,0,0,1-1.33-1.61c-.38-.76-.76-1.52-1.64-1.59a1.68,1.68,0,0,0-1.82,1.25S281.92,51.64,282.53,54.25Z"/><path class="cls-1" d="M410.86,24.44a5.31,5.31,0,0,0-3.23.82c-1.63,1-2.72,1.9-1.52,3.55s3.58,1.08,4.51.43S413.56,25,410.86,24.44Z"/><path class="cls-1" d="M419.41,25.68a1.46,1.46,0,0,1,.6,1.89c-.58,1.21-1,2.13-2.34,2.69s-3.31,1.31-4,.17a3.48,3.48,0,0,1,.63-4.27C415.62,24.62,418.88,25.17,419.41,25.68Z"/><path class="cls-1" d="M421.71,30.53a1.68,1.68,0,0,1,1.28,2s0,1.92-2.74,3.53a4.07,4.07,0,0,1-4.39-1.73C414.35,32.19,419.35,29.42,421.71,30.53Z"/><path class="cls-1" d="M413.82,42.88a5.8,5.8,0,0,0,4.58-3.64c.52-1.66-.9-2-2.54-2.45A2.91,2.91,0,0,0,413,37.87a6.08,6.08,0,0,0-.87,4.05A1.3,1.3,0,0,0,413.82,42.88Z"/><path class="cls-1" d="M407.08,42a2.52,2.52,0,0,0,3,.75c1.14-.57,1.31-2,1.53-3.58a16.68,16.68,0,0,1,1-2.25c.81-1.55,2-2.44,1.07-4.24-.74-1.42-2.84-1.06-4-1.39a11.26,11.26,0,0,1-2.9-1c-1.07-.67-2.14-1.34-3.28-.76a2.37,2.37,0,0,0-1.31,2.91S404.29,39.22,407.08,42Z"/><path class="cls-1" d="M517.81,27.24a3.3,3.3,0,0,0-1.84-1c-1.2-.22-2.08-.29-2.26,1s1.15,2,1.86,2.11S518.77,28.66,517.81,27.24Z"/><path class="cls-1" d="M521.14,31.44a.91.91,0,0,1-.57,1.11,2.9,2.9,0,0,1-2.25.23c-.86-.32-2.09-.81-1.91-1.63a2.26,2.26,0,0,1,2.18-1.68A3,3,0,0,1,521.14,31.44Z"/><path class="cls-1" d="M520,34.62a1,1,0,0,1-.32,1.46,3,3,0,0,1-2.82.45,2.48,2.48,0,0,1-1.23-2.66C516,32.25,519.45,33.11,520,34.62Z"/><path class="cls-1" d="M511,36.88a3.74,3.74,0,0,0,3.7.29c1-.53.46-1.28-.07-2.19a1.81,1.81,0,0,0-1.77-.72,4,4,0,0,0-2.2,1.47A.79.79,0,0,0,511,36.88Z"/><path class="cls-1" d="M508.29,33.62a1.54,1.54,0,0,0,1,1.62c.77.22,1.48-.36,2.28-1a10.18,10.18,0,0,1,1.43-.61c1.06-.36,2-.25,2.38-1.47.29-1-.83-1.69-1.19-2.32a6.74,6.74,0,0,1-.87-1.7c-.19-.76-.38-1.52-1.15-1.74a1.55,1.55,0,0,0-1.89.77S508.27,31.16,508.29,33.62Z"/><path class="cls-1" d="M573,26.45a3.3,3.3,0,0,0-1.84-1c-1.2-.23-2.08-.29-2.26,1s1.15,2,1.86,2.11S574,27.87,573,26.45Z"/><path class="cls-1" d="M576.35,30.65a.91.91,0,0,1-.57,1.11,2.89,2.89,0,0,1-2.25.23c-.86-.32-2.09-.81-1.91-1.63a2.27,2.27,0,0,1,2.19-1.68C575.1,28.55,576.34,30.19,576.35,30.65Z"/><path class="cls-1" d="M575.25,33.83a1,1,0,0,1-.32,1.46,3,3,0,0,1-2.82.45,2.47,2.47,0,0,1-1.22-2.66C571.17,31.46,574.66,32.32,575.25,33.83Z"/><path class="cls-1" d="M566.18,36.09a3.74,3.74,0,0,0,3.7.29c1-.53.47-1.28-.07-2.19a1.81,1.81,0,0,0-1.77-.72,4,4,0,0,0-2.2,1.47A.79.79,0,0,0,566.18,36.09Z"/><path class="cls-1" d="M563.51,32.83a1.5,1.5,0,0,0,1,1.61c.77.23,1.48-.35,2.28-1a10.18,10.18,0,0,1,1.43-.61c1.06-.36,2-.25,2.38-1.48.29-1-.82-1.69-1.19-2.31a6.74,6.74,0,0,1-.87-1.7c-.19-.76-.38-1.52-1.15-1.74a1.54,1.54,0,0,0-1.89.77S563.48,30.37,563.51,32.83Z"/><path class="cls-1" d="M492.55,43.33a3.3,3.3,0,0,0-1.84-1c-1.2-.23-2.08-.29-2.26,1s1.15,2,1.86,2.11S493.51,44.74,492.55,43.33Z"/><path class="cls-1" d="M495.88,47.52a.92.92,0,0,1-.57,1.12,2.85,2.85,0,0,1-2.25.22c-.86-.32-2.09-.8-1.91-1.63a2.25,2.25,0,0,1,2.19-1.67A2.93,2.93,0,0,1,495.88,47.52Z"/><path class="cls-1" d="M494.78,50.71a1,1,0,0,1-.32,1.46,3,3,0,0,1-2.82.44A2.46,2.46,0,0,1,490.42,50C490.7,48.33,494.19,49.2,494.78,50.71Z"/><path class="cls-1" d="M485.71,53a3.73,3.73,0,0,0,3.7.3c1-.54.46-1.28-.07-2.2a1.84,1.84,0,0,0-1.77-.72,4,4,0,0,0-2.2,1.47A.79.79,0,0,0,485.71,53Z"/><path class="cls-1" d="M483,49.71a1.5,1.5,0,0,0,1,1.61c.77.22,1.48-.35,2.28-1a11.78,11.78,0,0,1,1.43-.61c1.06-.35,2-.25,2.38-1.47.29-1-.83-1.69-1.19-2.31a6.74,6.74,0,0,1-.87-1.7c-.19-.76-.38-1.52-1.15-1.75a1.56,1.56,0,0,0-1.89.77S483,47.25,483,49.71Z"/><path class="cls-1" d="M383.52,106.6a5,5,0,0,0-2.68,1.76c-1.17,1.45-1.87,2.59-.24,3.72s3.62-.13,4.27-1S386.19,106.3,383.52,106.6Z"/><path class="cls-1" d="M391.74,105.06a1.43,1.43,0,0,1,1.17,1.54c-.14,1.28-.22,2.26-1.27,3.19s-2.59,2.24-3.62,1.42a3.38,3.38,0,0,1-.82-4.11C387.93,105.28,391.09,104.75,391.74,105.06Z"/><path class="cls-1" d="M395.43,108.77a1.66,1.66,0,0,1,1.83,1.46s.64,1.75-1.35,4.09a4,4,0,0,1-4.58-.21C389.24,112.59,392.91,108.5,395.43,108.77Z"/><path class="cls-1" d="M392.25,122.54a5.52,5.52,0,0,0,3-4.76c-.07-1.68-1.47-1.53-3.12-1.45a2.78,2.78,0,0,0-2.26,1.88,5.86,5.86,0,0,0,.53,4A1.28,1.28,0,0,0,392.25,122.54Z"/><path class="cls-1" d="M385.8,123.85a2.45,2.45,0,0,0,3-.25c.85-.88.54-2.24.23-3.75a15.59,15.59,0,0,1,.15-2.36c.24-1.67,1.05-2.87-.4-4.22-1.15-1.07-2.95-.08-4.09,0a11.11,11.11,0,0,1-3,0c-1.19-.28-2.39-.56-3.25.32a2.3,2.3,0,0,0-.24,3.08S382.34,122.17,385.8,123.85Z"/><path class="cls-1" d="M471.17,4.86a4,4,0,0,0-2.51.38c-1.31.66-2.2,1.24-1.42,2.57s2.62,1.08,3.38.66S473.16,5.51,471.17,4.86Z"/><path class="cls-1" d="M477.53,6.43a1.1,1.1,0,0,1,.31,1.47,3.36,3.36,0,0,1-2,1.86c-1.06.32-2.6.75-3.05-.16a2.64,2.64,0,0,1,.81-3.19C474.75,5.35,477.17,6,477.53,6.43Z"/><path class="cls-1" d="M478.9,10.27a1.27,1.27,0,0,1,.81,1.62s-.15,1.46-2.35,2.48a3.09,3.09,0,0,1-3.18-1.64C473.21,11,477.2,9.26,478.9,10.27Z"/><path class="cls-1" d="M472,19a4.42,4.42,0,0,0,3.74-2.41c.52-1.22-.52-1.56-1.73-2a2.21,2.21,0,0,0-2.24.6,4.66,4.66,0,0,0-1,3A1,1,0,0,0,472,19Z"/><path class="cls-1" d="M467,17.86a1.91,1.91,0,0,0,2.21.79c.91-.35,1.14-1.42,1.43-2.59a12.93,12.93,0,0,1,.91-1.63c.73-1.11,1.72-1.7,1.14-3.13-.45-1.13-2.07-1-2.89-1.34a8.6,8.6,0,0,1-2.12-1c-.75-.58-1.52-1.17-2.42-.82A1.8,1.8,0,0,0,464,10.26S465.06,15.54,467,17.86Z"/><path class="cls-1" d="M551.94,46.59a3.93,3.93,0,0,0-1.78-1.76c-1.32-.67-2.31-1-3,.36s.64,2.71,1.43,3.07S552.57,48.56,551.94,46.59Z"/><path class="cls-1" d="M554.35,52.57a1.12,1.12,0,0,1-1,1.1,3.43,3.43,0,0,1-2.7-.49c-.88-.65-2.14-1.62-1.64-2.52a2.77,2.77,0,0,1,3.11-1.22C553.62,49.73,554.5,52,554.35,52.57Z"/><path class="cls-1" d="M552,55.9a1.25,1.25,0,0,1-.88,1.58s-1.29.74-3.42-.42a2.93,2.93,0,0,1-.5-3.48C548.06,51.78,551.81,54,552,55.9Z"/><path class="cls-1" d="M540.67,55.5a4.49,4.49,0,0,0,4.18,1.57c1.31-.3,1-1.33.69-2.57s-1.81-1.42-1.81-1.42a4.89,4.89,0,0,0-3.06,1A1,1,0,0,0,540.67,55.5Z"/><path class="cls-1" d="M538.69,50.83a1.83,1.83,0,0,0,.64,2.22c.81.51,1.84.08,3-.38a14.07,14.07,0,0,1,1.88-.23c1.35-.06,2.41.38,3.27-.92.67-1-.37-2.23-.58-3.08a8.25,8.25,0,0,1-.42-2.26c0-.94.09-1.89-.73-2.4a1.89,1.89,0,0,0-2.46.26S539.51,48,538.69,50.83Z"/><path class="cls-1" d="M446.5,38.66a4,4,0,0,0-2.36.87c-1.15.9-1.9,1.63-.87,2.78s2.78.54,3.43,0S448.58,38.91,446.5,38.66Z"/><path class="cls-1" d="M453,39a1.1,1.1,0,0,1,.6,1.38,3.32,3.32,0,0,1-1.55,2.19c-1,.52-2.38,1.25-3,.44a2.63,2.63,0,0,1,.13-3.26C450.09,38.44,452.59,38.6,453,39Z"/><path class="cls-1" d="M455.14,42.43a1.26,1.26,0,0,1,1.12,1.42s.16,1.45-1.78,2.87a3.1,3.1,0,0,1-3.44-1C449.74,44.23,453.28,41.77,455.14,42.43Z"/><path class="cls-1" d="M450.18,52.31a4.33,4.33,0,0,0,3.16-3.08c.26-1.29-.83-1.42-2.1-1.65a2.17,2.17,0,0,0-2.06,1,4.62,4.62,0,0,0-.34,3.11A1,1,0,0,0,450.18,52.31Z"/><path class="cls-1" d="M445.05,52.17a1.9,1.9,0,0,0,2.31.33c.81-.51.83-1.6.87-2.81a11.69,11.69,0,0,1,.55-1.76c.49-1.23,1.33-2,.47-3.27-.67-1-2.22-.59-3.09-.74a8.75,8.75,0,0,1-2.27-.55c-.85-.43-1.71-.85-2.52-.33a1.79,1.79,0,0,0-.76,2.29S442.73,50.27,445.05,52.17Z"/><path class="cls-1" d="M586.45,112.51a3.85,3.85,0,0,0-2.24-.89c-1.41-.1-2.43-.06-2.47,1.41s1.6,2.15,2.43,2.17S587.75,114,586.45,112.51Z"/><path class="cls-1" d="M590.86,116.88a1,1,0,0,1-.49,1.35,3.28,3.28,0,0,1-2.56.56c-1-.24-2.5-.64-2.41-1.61a2.58,2.58,0,0,1,2.27-2.21C589.13,114.65,590.78,116.35,590.86,116.88Z"/><path class="cls-1" d="M590,120.68a1.2,1.2,0,0,1-.16,1.72s-.85,1.12-3.17.89a2.89,2.89,0,0,1-1.78-2.88C585,118.5,589.16,119,590,120.68Z"/><path class="cls-1" d="M580,124.49a4.33,4.33,0,0,0,4.28-.16c1-.75.36-1.53-.38-2.51a2.13,2.13,0,0,0-2.14-.59,4.61,4.61,0,0,0-2.31,2A.93.93,0,0,0,580,124.49Z"/><path class="cls-1" d="M576.43,121.11a1.78,1.78,0,0,0,1.41,1.71c.92.16,1.65-.6,2.48-1.43a13,13,0,0,1,1.56-.89c1.17-.55,2.27-.55,2.52-2,.2-1.15-1.18-1.83-1.69-2.5a7.75,7.75,0,0,1-1.23-1.83c-.32-.85-.65-1.69-1.57-1.85a1.77,1.77,0,0,0-2,1.14S576.06,118.3,576.43,121.11Z"/><path class="cls-1" d="M595.41,51.49a3.81,3.81,0,0,0-1.35-2.06c-1.12-.9-2-1.45-2.93-.23s0,2.73.74,3.24S595.61,53.51,595.41,51.49Z"/><path class="cls-1" d="M596.5,57.72a1.13,1.13,0,0,1-1.24.86,3.34,3.34,0,0,1-2.49-1c-.72-.8-1.73-2-1.07-2.75a2.75,2.75,0,0,1,3.26-.56C596.38,54.84,596.75,57.24,596.5,57.72Z"/><path class="cls-1" d="M593.51,60.45a1.26,1.26,0,0,1-1.18,1.36s-1.39.45-3.2-1.09a2.89,2.89,0,0,1,.23-3.45C590.59,55.72,593.76,58.55,593.51,60.45Z"/><path class="cls-1" d="M582.71,57.83a4.39,4.39,0,0,0,3.7,2.34c1.33,0,1.23-1.08,1.19-2.34s-1.44-1.73-1.44-1.73a4.85,4.85,0,0,0-3.15.34A.94.94,0,0,0,582.71,57.83Z"/><path class="cls-1" d="M581.77,52.94a1.8,1.8,0,0,0,.16,2.26c.68.66,1.76.44,3,.23a13.64,13.64,0,0,1,1.85.15c1.32.21,2.25.84,3.34-.23.86-.85.11-2.23.08-3.09a8.14,8.14,0,0,1,.07-2.26c.24-.89.48-1.8-.2-2.46a1.86,1.86,0,0,0-2.43-.23S583.16,50.35,581.77,52.94Z"/><path class="cls-1" d="M318.26,90.6c-.71-.39-1.07-.86-1.07-1.39V64.86a3.92,3.92,0,0,0-1.25-2.9,4.21,4.21,0,0,0-3-1.21h-5.26a3.82,3.82,0,0,0-2.71,1,3.53,3.53,0,0,0-1.12,2.73,3.42,3.42,0,0,0,.84,2.28A3.57,3.57,0,0,0,307,68v4.86l-.89-.75a6.92,6.92,0,0,0-1.15-.74,7,7,0,0,0-1.61-.57,10,10,0,0,0-2.27-.22,12,12,0,0,0-5,1,10.68,10.68,0,0,0-3.75,2.8A13,13,0,0,0,290,78.75a17.93,17.93,0,0,0-.87,5.75,19.51,19.51,0,0,0,.8,5.76,12.88,12.88,0,0,0,2.27,4.41,10.31,10.31,0,0,0,3.57,2.83,10.77,10.77,0,0,0,4.65,1A9.15,9.15,0,0,0,303.5,98a9,9,0,0,0,2.17-1.14,6.48,6.48,0,0,0,1.43-1.44,7.18,7.18,0,0,0,.79-1.42v1.39a2.06,2.06,0,0,0,.18.82,2.27,2.27,0,0,0,.59.79,3.14,3.14,0,0,0,1.07.62,4.6,4.6,0,0,0,1.64.25H316a4,4,0,0,0,2.79-1.24,3.81,3.81,0,0,0,1.1-2.73A3.89,3.89,0,0,0,318.26,90.6ZM301.79,79.71a3.06,3.06,0,0,1,3-1,.84.84,0,0,1,.58,1,2.79,2.79,0,0,1-1.09,1.91c-.74.52-1.83,1.26-2.4.69A2.06,2.06,0,0,1,301.79,79.71Zm-4.1.43a3.45,3.45,0,0,1,1.84-1c1.7,0,.91,2.34.43,2.86s-1.86,1.2-2.77.4S296.82,81,297.69,80.14Zm3.54,10a1.57,1.57,0,0,1-1.9,0c-2-1.24-4.07-4.94-4.07-4.94a1.45,1.45,0,0,1,.44-1.9c.62-.5,1.34-.26,2.06,0a7.06,7.06,0,0,0,1.87.18c.72,0,1.94-.48,2.56.24.78.93.16,1.63-.15,2.66a9.33,9.33,0,0,0-.31,1.46C301.78,88.72,301.85,89.59,301.23,90.09Zm2.27-.47a.79.79,0,0,1-1.13-.32,3.66,3.66,0,0,1,0-2.51A1.91,1.91,0,0,1,304,85.74c1.05.05,1.94,0,1.82,1.08A3.71,3.71,0,0,1,303.5,89.62Zm3.06-4.92a2.51,2.51,0,0,1-2.85-.39c-1.16-1.06,1.52-3.41,3.08-3.1a1,1,0,0,1,1,1S308,83.35,306.56,84.7Z"/><text class="cls-2" transform="translate(320.15 97.2) scale(1.02 1)">e</text><path class="cls-1" d="M488.48,79.51A13.84,13.84,0,0,0,485.19,75,14.61,14.61,0,0,0,480.28,72a17.46,17.46,0,0,0-6-1,17.25,17.25,0,0,0-6,1A14.77,14.77,0,0,0,463.35,75a14.5,14.5,0,0,0-3.29,16.27,13.33,13.33,0,0,0,3.31,4.46,14.8,14.8,0,0,0,4.92,2.83,18.74,18.74,0,0,0,12,0,14.42,14.42,0,0,0,4.88-2.83,13.41,13.41,0,0,0,3.29-4.46,14.93,14.93,0,0,0,0-11.73ZM474.38,81a3,3,0,0,1,3-1,.83.83,0,0,1,.58,1A2.79,2.79,0,0,1,476.9,83c-.74.52-1.83,1.26-2.4.69A2.06,2.06,0,0,1,474.38,81Zm-4.11.43a3.5,3.5,0,0,1,1.85-.95c1.7,0,.91,2.34.42,2.86s-1.85,1.2-2.77.4S469.41,82.3,470.27,81.46Zm3.54,10a1.56,1.56,0,0,1-1.89,0c-2-1.24-4.08-4.94-4.08-4.94a1.46,1.46,0,0,1,.44-1.9c.62-.5,1.35-.26,2.07,0a7.06,7.06,0,0,0,1.87.18c.72,0,1.94-.48,2.55.24.79.93.17,1.63-.14,2.66a10.14,10.14,0,0,0-.32,1.46C474.36,90,474.43,90.91,473.81,91.41Zm2.27-.47a.79.79,0,0,1-1.13-.32,3.7,3.7,0,0,1,.05-2.51,1.9,1.9,0,0,1,1.59-1c1,0,1.93,0,1.82,1.08A3.74,3.74,0,0,1,476.08,90.94ZM479.15,86a2.51,2.51,0,0,1-2.85-.39c-1.16-1.06,1.52-3.41,3.07-3.1a1,1,0,0,1,1,1S480.61,84.67,479.15,86Z"/><text class="cls-3" transform="translate(359.26 99.84) scale(1.02 1)">C<tspan class="cls-4" x="49.32" y="0">ol</tspan></text><text class="cls-2" transform="translate(491.39 98.52) scale(1.02 1)">mbia</text><text class="cls-2" transform="translate(92.29 98.52) scale(1.02 1)">ue<tspan class="cls-5" x="58.43" y="0">l</tspan><tspan x="74.56" y="0">l</tspan><tspan class="cls-6" x="90.94" y="0">i</tspan><tspan x="108.59" y="0">tas</tspan></text><path class="cls-1" d="M86,88V57.1a5.7,5.7,0,0,0,2.11-.52,5.33,5.33,0,0,0,1.67-1.22,5,5,0,0,0,1.36-3.85A5.32,5.32,0,0,0,89.55,48a5,5,0,0,0-3.5-1.51H71.33a4.68,4.68,0,0,0-2.11.49,6.5,6.5,0,0,0-1.68,1.23,5.05,5.05,0,0,0-1.11,1.71,4.54,4.54,0,0,0-.32,2,5.09,5.09,0,0,0,1.54,3.6,5.45,5.45,0,0,0,3.61,1.57v9.8h-14V57.1a5.9,5.9,0,0,0,2.14-.52,4.86,4.86,0,0,0,1.68-1.22,6.17,6.17,0,0,0,1.08-1.75,4.93,4.93,0,0,0,.32-2.1,5.38,5.38,0,0,0-1.65-3.57,5,5,0,0,0-3.64-1.47H42.67a5.38,5.38,0,0,0-5.36,5.39,5,5,0,0,0,1.5,3.64,5.15,5.15,0,0,0,3.65,1.6V88a5.86,5.86,0,0,0-2.11.53,5.21,5.21,0,0,0-1.64,1.19,5.44,5.44,0,0,0-1.08,1.75,4.94,4.94,0,0,0-.32,2.13,5.34,5.34,0,0,0,5.36,5H57.25A5.66,5.66,0,0,0,59.36,98,5.49,5.49,0,0,0,61,96.77,5.92,5.92,0,0,0,62.15,95a4.88,4.88,0,0,0,.32-2.1,5.23,5.23,0,0,0-1.58-3.5,5.54,5.54,0,0,0-3.64-1.54v-9.3H67.5c-.36-.57-.58-1-.58-1a1.78,1.78,0,0,1,.54-2.31c.74-.61,1.62-.32,2.5,0a8.37,8.37,0,0,0,2.26.22c.87,0,2.35-.59,3.1.29,1,1.12.2,2-.17,3.22a12.55,12.55,0,0,0-.39,1.77c.07,1.16.15,2.21-.59,2.82a1.89,1.89,0,0,1-2.3,0,5.82,5.82,0,0,1-.61-.44v4.72a5.8,5.8,0,0,0-2.11.53,5.62,5.62,0,0,0-1.68,1.19,4.67,4.67,0,0,0-1.07,1.75,5.22,5.22,0,0,0-.29,2.13A4.83,4.83,0,0,0,67.68,97a5.79,5.79,0,0,0,3.65,1.54H86.05a5.6,5.6,0,0,0,2-.53,5.33,5.33,0,0,0,1.67-1.22A5.13,5.13,0,0,0,90.84,95a5.33,5.33,0,0,0-1.29-5.53A5.47,5.47,0,0,0,86,88ZM72.61,73.87c-.59.63-2.24,1.46-3.35.49s-.45-1.77.6-2.8a4.15,4.15,0,0,1,2.23-1.15C74.15,70.36,73.2,73.25,72.61,73.87ZM75,74.2A2.5,2.5,0,0,1,74.83,71c.76-1.33,3.21-1.52,3.67-1.24A1,1,0,0,1,79.21,71a3.4,3.4,0,0,1-1.32,2.33C77,74,75.68,74.88,75,74.2ZM76.91,83a1,1,0,0,1-1.36-.39,4.43,4.43,0,0,1,0-3,2.28,2.28,0,0,1,1.92-1.27c1.27,0,2.34,0,2.21,1.3A4.53,4.53,0,0,1,76.91,83Zm3.71-6a3,3,0,0,1-3.45-.47c-1.41-1.29,1.83-4.13,3.71-3.76a1.18,1.18,0,0,1,1.23,1.22S82.39,75.44,80.62,77.08Z"/></svg>