<svg xmlns="http://www.w3.org/2000/svg" viewBox="0 0 792 164.41"><defs><style>.cls-1{fill:#fff;}.cls-2{fill:#1d1d1b;}.cls-3{font-size:67.5px;font-family:eacologica-round_slab, eacologica round slab;}.cls-4,.cls-5,.cls-6,.cls-7{font-size:47.04px;}.cls-4{letter-spacing:0em;}.cls-5{letter-spacing:0em;}.cls-7{letter-spacing:-0.01em;}</style></defs><g id="Capa_4" data-name="Capa 4"><path d="M433.57,50.27s17.95-5.59,22.14-9.83a14.33,14.33,0,0,0,3.12-5.27s.48-1.61-1.19-1.61-2.09.27-6,.59-9.67,1.93-10.1,2.58,2.52-4.89,2.52-7-.53-3.92-1.88-3.12-3.06,2.1-4.35,3A33.79,33.79,0,0,0,432.61,34c-.7,1-4.25,5.86-4.36,9.89a10,10,0,0,0-9.56-1.78,15,15,0,0,0-4.62,2.31,62.27,62.27,0,0,1-4.84,4.25c-1,.59-1.29,2.85-1,4.62a12.68,12.68,0,0,0,4.4,6.88,24.41,24.41,0,0,1,3,2.25,11,11,0,0,0-1.34,11.66s-3.6,2.69-2.69,6.56c0,0,.86,1.29.05,2.09s-.43,5,.49,5.38,1.61.53,3.49-1.35,1.5-2.36,1.5-2.36.54-.7.76.16.75,4.14,1.61,5.21.32.86-.54.92-4.19.43-5.32,1.12-2.31,1.56-1.56,3.44,1.56,3,4.41,3.28c0,0,.54,3.39,3.76,3.65s17.19.76,20.79-.59c0,0,.54-1,1.51,0s4,2,6.5-1.45c0,0,3.76-1,2-6.18,0,0,.38-2.79-1.66-3.92,0,0-.54.21-.54-.7s1.29-5.16.32-9.35-5.85-9.4-9.88-12.36-4.14-2.68-3.93-3.76A21.42,21.42,0,0,0,433.57,50.27Z"/><ellipse cx="557.22" cy="119.24" rx="5.23" ry="5.68"/><ellipse cx="399.1" cy="119.24" rx="5.03" ry="6.21"/><path d="M767.66,59.11a49.91,49.91,0,0,0-5.28,9.74c-2.07,5.3-1,11.87,3.64,17.52C769.84,91,779.28,97.9,780.63,106s-2.87,11.74-7.69,15.35-12,3.38-13.5,3.23-.41-2.77-.41-2.77a45.61,45.61,0,0,0,1-16.73c-1.16-9.55-9-17.12-15.82-21.31s-19.53-8.25-26-9.93-5.49-7-5.93-12.3a79.07,79.07,0,0,0-1.92-13.4C709.13,43.32,706,38.64,705,37s-1.78.29-1.78.29-.77,4.63-1.3,7.38-2.95,3.08-6.27,3.27-3.76,1.07-4.53,3.14-3,3.47-5.79,4.24-1.45,3.47-1.45,3.47a73.93,73.93,0,0,0,3.81,7.67c1.74,2.8,4.15,1.93,4.15,1.93,4.77-.29,3.33,4.68,3.33,4.68s-.58,3.27-2.13,9.78a27,27,0,0,0,.2,12.44s4,7.14,5.49,10.56,1.45,15,1.64,17.12-1.78,2-2.46,2-3.9,0-3.71,3,1.93,2.8,1.93,2.8,5.11,0,8.24,0,2.51-1.59,3.38-9.6,3.47-13,7.23-17.07,7.43-4.29,11.82-4,12.63,6.8,13.45,7.72-.39.62-.39.62-6.56-5.15-10.85-6.89-9.21.34-10.75,1.45-7.23,6.79-6.65,12.77,4.19,7.72,5.06,8.92-3.62.73-4.58.73-4.2.19-3.57,3,2.75,2.33,2.75,2.33l7.09,0s28.4.05,31.48,0,20.93-1.4,23.72-2.75,9.72-5.11,12-12c3.23-10-.31-16.32-5.49-21.6l-9.41-9.86A16.18,16.18,0,0,1,766,73.86a20.72,20.72,0,0,1,1.88-7.38c1.74-3.52,2.89-6.22,2.89-6.22a1.49,1.49,0,0,0-.65-2C768.82,57.64,767.66,59.11,767.66,59.11Z"/><path class="cls-1" d="M713.5,70.55c-14.67,3.29-20.87,13.6-20.87,13.6l-.2,3.39s8.84-15,22.56-15.19Z"/><ellipse class="cls-1" cx="692.58" cy="91.18" rx="1.72" ry="3.12"/><ellipse class="cls-2" cx="692.18" cy="91.37" rx="1.33" ry="2.98"/><path class="cls-1" d="M691.77,54.21,693.46,53l-1.69-1,.22.41a.75.75,0,0,0-.29.64.73.73,0,0,0,.36.68h0Z"/><text class="cls-3" transform="translate(146.03 131.99)">H<tspan class="cls-4" x="56.16" y="0">ue</tspan><tspan class="cls-5" x="112.37" y="0">l</tspan><tspan class="cls-6" x="127.89" y="0">l</tspan><tspan class="cls-7" x="143.65" y="0">i</tspan><tspan class="cls-4" x="160.63" y="0">tas de </tspan><tspan x="305.98" y="0">C</tspan><tspan class="cls-6" x="353.57" y="0">olombia</tspan></text><path d="M128.05,140a3.8,3.8,0,0,0-2.24.63c-1.15.73-1.92,1.35-1.11,2.46s2.47.67,3.13.2S129.92,140.36,128.05,140Z"/><path d="M134,140.69a1,1,0,0,1,.39,1.29,3.17,3.17,0,0,1-1.66,1.88c-.93.41-2.3,1-2.79.2a2.4,2.4,0,0,1,.5-2.94C131.35,140,133.6,140.35,134,140.69Z"/><path d="M135.49,144a1.09,1.09,0,0,1,.86,1.36s0,1.32-1.94,2.48a2.76,2.76,0,0,1-3-1.11C130.37,145.25,133.87,143.26,135.49,144Z"/><path d="M129.87,152.59a4.27,4.27,0,0,0,3.22-2.58c.38-1.15-.6-1.34-1.73-1.64a2.14,2.14,0,0,0-2,.8,4.27,4.27,0,0,0-.66,2.79A.88.88,0,0,0,129.87,152.59Z"/><path d="M125.21,152.11a1.69,1.69,0,0,0,2.07.46c.79-.41.93-1.4,1.1-2.48a11.1,11.1,0,0,1,.7-1.56c.59-1.07,1.43-1.71.8-2.93-.5-1-2-.67-2.73-.87a7.5,7.5,0,0,1-2-.65c-.73-.44-1.47-.88-2.26-.46a1.69,1.69,0,0,0-1,2S123.31,150.25,125.21,152.11Z"/><path d="M162,65.78a3.19,3.19,0,0,0-1.77.86c-.84.79-1.37,1.43-.53,2.22s2.15.17,2.62-.32S163.56,65.78,162,65.78Z"/><path d="M167,65.42a.81.81,0,0,1,.52,1,2.7,2.7,0,0,1-1.07,1.82c-.72.48-1.76,1.16-2.28.6a2,2,0,0,1-.06-2.52A2.88,2.88,0,0,1,167,65.42Z"/><path d="M168.75,67.9a.93.93,0,0,1,.92,1s.19,1.09-1.23,2.36a2.32,2.32,0,0,1-2.67-.45C164.7,69.76,167.29,67.57,168.75,67.9Z"/><path d="M165.43,75.92a3.61,3.61,0,0,0,2.27-2.64c.13-1-.71-1-1.69-1.08a1.79,1.79,0,0,0-1.53,1,3.59,3.59,0,0,0-.11,2.41A.74.74,0,0,0,165.43,75.92Z"/><path d="M161.49,76.26a1.46,1.46,0,0,0,1.79.06c.6-.47.55-1.31.53-2.23a10.31,10.31,0,0,1,.33-1.4c.32-1,.92-1.65.21-2.56-.56-.71-1.73-.25-2.4-.29a6.61,6.61,0,0,1-1.76-.23c-.68-.25-1.36-.5-1.95,0a1.43,1.43,0,0,0-.47,1.83S159.63,75,161.49,76.26Z"/><path d="M207.86,78.81a4.45,4.45,0,0,0-2.48,1.1c-1.2,1-2,1.88-.86,3s3,.36,3.63-.29S210.07,78.91,207.86,78.81Z"/><path d="M214.78,78.61a1.11,1.11,0,0,1,.67,1.41,3.74,3.74,0,0,1-1.59,2.45c-1,.63-2.49,1.5-3.18.7a2.79,2.79,0,0,1,.07-3.47C211.66,78.3,214.31,78.27,214.78,78.61Z"/><path d="M217.11,82.13a1.27,1.27,0,0,1,1.21,1.43s.21,1.52-1.82,3.18a3.2,3.2,0,0,1-3.66-.76C211.42,84.46,215.11,81.58,217.11,82.13Z"/><path d="M212.08,93a5,5,0,0,0,3.27-3.51c.25-1.39-.91-1.44-2.27-1.59a2.48,2.48,0,0,0-2.16,1.25,5,5,0,0,0-.28,3.32A1,1,0,0,0,212.08,93Z"/><path d="M206.63,93.25a2,2,0,0,0,2.46.17c.85-.61.84-1.76.85-3a13.61,13.61,0,0,1,.55-1.91c.49-1.35,1.36-2.22.42-3.52-.73-1-2.36-.44-3.29-.54A8.77,8.77,0,0,1,205.2,84c-.91-.38-1.83-.76-2.68-.15a2,2,0,0,0-.75,2.49S204.13,91.42,206.63,93.25Z"/><path d="M164.92,139.27a4.19,4.19,0,0,0-2.25,1.19c-1,1-1.71,1.88-.6,2.86s2.77.15,3.36-.5S167,139.22,164.92,139.27Z"/><path d="M171.35,138.64a1.05,1.05,0,0,1,.71,1.28,3.54,3.54,0,0,1-1.33,2.38c-.9.65-2.22,1.56-2.91.85a2.6,2.6,0,0,1-.16-3.23C168.42,138.55,170.88,138.36,171.35,138.64Z"/><path d="M173.73,141.78A1.19,1.19,0,0,1,175,143s.28,1.4-1.49,3.07a3,3,0,0,1-3.46-.47C168.59,144.31,171.84,141.39,173.73,141.78Z"/><path d="M169.75,152.21a4.59,4.59,0,0,0,2.82-3.48c.14-1.3-.94-1.28-2.21-1.33a2.31,2.31,0,0,0-1.93,1.3,4.66,4.66,0,0,0-.05,3.12A.94.94,0,0,0,169.75,152.21Z"/><path d="M164.69,152.79a1.86,1.86,0,0,0,2.3,0c.76-.62.67-1.7.6-2.89a13.06,13.06,0,0,1,.39-1.81c.37-1.28,1.12-2.15.17-3.3-.75-.9-2.23-.26-3.1-.3a8.52,8.52,0,0,1-2.28-.22c-.87-.3-1.76-.6-2.51,0a1.84,1.84,0,0,0-.53,2.36S162.25,151.25,164.69,152.79Z"/><path d="M232.31,52.13a4.43,4.43,0,0,0-2.64-1c-1.65-.1-2.84,0-2.87,1.72s1.91,2.55,2.88,2.57S233.86,53.91,232.31,52.13Z"/><path d="M237.55,57.3a1.29,1.29,0,0,1-.56,1.63,3.83,3.83,0,0,1-3,.71c-1.21-.29-2.95-.74-2.86-1.9a3.08,3.08,0,0,1,2.63-2.68C235.48,54.65,237.45,56.67,237.55,57.3Z"/><path d="M236.64,61.86a1.45,1.45,0,0,1-.17,2.06s-1,1.36-3.7,1.11a3.42,3.42,0,0,1-2.12-3.42C230.73,59.33,235.58,59.9,236.64,61.86Z"/><path d="M224.88,66.56a5,5,0,0,0,5-.25c1.21-.9.39-1.84-.49-3a2.45,2.45,0,0,0-2.51-.67,5.39,5.39,0,0,0-2.68,2.4A1.11,1.11,0,0,0,224.88,66.56Z"/><path d="M220.69,62.56a2.13,2.13,0,0,0,1.68,2c1.07.17,1.92-.75,2.88-1.75a15.52,15.52,0,0,1,1.82-1.09c1.36-.68,2.65-.69,2.92-2.44.22-1.36-1.41-2.17-2-3a9.32,9.32,0,0,1-1.47-2.18c-.39-1-.79-2-1.86-2.19a2.09,2.09,0,0,0-2.4,1.39S220.21,59.2,220.69,62.56Z"/><path d="M286.52,66.69a3.36,3.36,0,0,0-1.76-1.26c-1.21-.38-2.1-.55-2.44.75s.94,2.24,1.66,2.43S287.34,68.28,286.52,66.69Z"/><path d="M289.45,71.47a1,1,0,0,1-.72,1.1,2.89,2.89,0,0,1-2.34,0c-.84-.43-2-1.09-1.76-1.93a2.34,2.34,0,0,1,2.44-1.5C288.41,69.13,289.49,71,289.45,71.47Z"/><path d="M287.94,74.68a1.12,1.12,0,0,1-.5,1.5,3.07,3.07,0,0,1-2.94.14,2.62,2.62,0,0,1-.95-2.93C284,71.72,287.52,73,287.94,74.68Z"/><path d="M278.37,76a3.81,3.81,0,0,0,3.76.74c1.06-.45.63-1.29.19-2.31a1.88,1.88,0,0,0-1.74-1,4.11,4.11,0,0,0-2.42,1.28A.84.84,0,0,0,278.37,76Z"/><path d="M276,72.28a1.61,1.61,0,0,0,.86,1.81c.77.32,1.57-.2,2.46-.76a11.05,11.05,0,0,1,1.55-.48c1.13-.25,2.08,0,2.61-1.27.41-1-.65-1.86-.95-2.56a7.14,7.14,0,0,1-.69-1.88c-.11-.82-.21-1.64-1-2a1.58,1.58,0,0,0-2,.59S276.27,69.7,276,72.28Z"/><path d="M252.55,80.08a2.57,2.57,0,0,0-1.34-1c-.92-.28-1.6-.41-1.86.57a1.68,1.68,0,0,0,1.27,1.85C251.17,81.69,253.18,81.3,252.55,80.08Z"/><path d="M254.78,83.72a.74.74,0,0,1-.54.84,2.21,2.21,0,0,1-1.78,0c-.64-.33-1.56-.82-1.35-1.47A1.8,1.8,0,0,1,253,81.93C254,81.94,254.81,83.35,254.78,83.72Z"/><path d="M253.63,86.16a.84.84,0,0,1-.38,1.14,2.32,2.32,0,0,1-2.24.11,2,2,0,0,1-.72-2.23C250.66,83.91,253.31,84.91,253.63,86.16Z"/><path d="M246.35,87.17a2.9,2.9,0,0,0,2.86.56c.81-.34.48-1,.15-1.76a1.43,1.43,0,0,0-1.33-.73,3.1,3.1,0,0,0-1.84,1A.64.64,0,0,0,246.35,87.17Z"/><path d="M244.55,84.33a1.24,1.24,0,0,0,.66,1.38c.59.25,1.19-.15,1.87-.58a9.87,9.87,0,0,1,1.18-.36c.86-.19,1.59,0,2-1,.32-.74-.49-1.42-.72-2a5.4,5.4,0,0,1-.52-1.43c-.08-.62-.16-1.24-.74-1.49a1.22,1.22,0,0,0-1.55.45S244.75,82.37,244.55,84.33Z"/><path d="M346.79,80.85a4,4,0,0,0-2.5-.56c-1.48.14-2.53.37-2.31,1.94s2.06,2,2.93,1.88S348.42,82.21,346.79,80.85Z"/><path d="M352.18,84.71a1.14,1.14,0,0,1-.27,1.52,3.44,3.44,0,0,1-2.56,1.06c-1.11-.09-2.72-.24-2.81-1.29a2.78,2.78,0,0,1,2-2.76C350,82.64,352,84.16,352.18,84.71Z"/><path d="M352,88.9a1.3,1.3,0,0,1,.15,1.85s-.68,1.34-3.14,1.51a3.08,3.08,0,0,1-2.37-2.75C346.4,87.47,350.8,87.29,352,88.9Z"/><path d="M342.21,94.74a4.49,4.49,0,0,0,4.43-.93c.94-1,.09-1.7-.86-2.6a2.21,2.21,0,0,0-2.33-.25,4.88,4.88,0,0,0-2.05,2.52A1,1,0,0,0,342.21,94.74Z"/><path d="M337.92,91.77a1.92,1.92,0,0,0,1.78,1.57c1,0,1.61-.94,2.32-2a13.47,13.47,0,0,1,1.47-1.22c1.11-.8,2.25-1,2.25-2.59,0-1.25-1.56-1.73-2.21-2.35a8.79,8.79,0,0,1-1.62-1.73c-.48-.84-1-1.69-2-1.69A1.89,1.89,0,0,0,338,83.38S337,88.84,337.92,91.77Z"/><path d="M704.2,137.85a3.92,3.92,0,0,0-2.4-.69c-1.46.05-2.5.21-2.37,1.76s1.88,2.07,2.74,2S705.71,139.28,704.2,137.85Z"/><path d="M709.23,141.94a1.12,1.12,0,0,1-.35,1.47,3.32,3.32,0,0,1-2.56.88c-1.08-.15-2.65-.39-2.66-1.42a2.71,2.71,0,0,1,2.07-2.58C707.2,139.79,709.09,141.4,709.23,141.94Z"/><path d="M708.82,146a1.27,1.27,0,0,1,0,1.82s-.74,1.27-3.15,1.29a3,3,0,0,1-2.15-2.82C703.43,144.3,707.73,144.38,708.82,146Z"/><path d="M698.91,151.14a4.38,4.38,0,0,0,4.37-.65c1-.89.19-1.64-.68-2.58a2.15,2.15,0,0,0-2.26-.38,4.71,4.71,0,0,0-2.14,2.33A1,1,0,0,0,698.91,151.14Z"/><path d="M694.9,148a1.86,1.86,0,0,0,1.64,1.64c1,.06,1.63-.82,2.38-1.78a12.22,12.22,0,0,1,1.51-1.1c1.13-.72,2.26-.84,2.35-2.39.07-1.22-1.42-1.79-2-2.43a8.54,8.54,0,0,1-1.48-1.79c-.42-.85-.85-1.7-1.81-1.76a1.84,1.84,0,0,0-2,1.43S694.19,145.08,694.9,148Z"/><path d="M311.51,129a3.77,3.77,0,0,0-1.64-1.76c-1.23-.67-2.16-1-2.82.28s.53,2.64,1.27,3S312.05,131,311.51,129Z"/><path d="M313.64,134.87a1.08,1.08,0,0,1-1,1,3.19,3.19,0,0,1-2.54-.54c-.82-.65-2-1.62-1.49-2.48a2.6,2.6,0,0,1,3-1.1C313,132.1,313.79,134.36,313.64,134.87Z"/><path d="M311.29,138a1.24,1.24,0,0,1-.87,1.52s-1.24.68-3.23-.5a2.89,2.89,0,0,1-.39-3.38C307.69,134,311.19,136.15,311.29,138Z"/><path d="M300.6,137.36a4.22,4.22,0,0,0,3.92,1.63c1.25-.26,1-1.26.72-2.47a2.09,2.09,0,0,0-1.68-1.43,4.58,4.58,0,0,0-2.92.87A.93.93,0,0,0,300.6,137.36Z"/><path d="M298.85,132.79a1.79,1.79,0,0,0,.54,2.16c.76.52,1.75.13,2.84-.29a12.76,12.76,0,0,1,1.78-.17c1.29,0,2.28.43,3.12-.8.66-1-.29-2.18-.47-3a8.32,8.32,0,0,1-.33-2.2c.07-.91.13-1.82-.63-2.34a1.75,1.75,0,0,0-2.33.19S299.7,130.05,298.85,132.79Z"/><path d="M356,139.53a4.23,4.23,0,0,0-2.43,1.14c-1.14,1.07-1.87,1.94-.68,3.09s3,.35,3.64-.31S358.26,139.62,356,139.53Z"/><path d="M363,139.28a1.2,1.2,0,0,1,.76,1.44,3.59,3.59,0,0,1-1.45,2.52c-1,.64-2.41,1.54-3.15.73a2.91,2.91,0,0,1-.15-3.55C359.83,139,362.49,138.94,363,139.28Z"/><path d="M365.53,142.86a1.37,1.37,0,0,1,1.31,1.45s.3,1.55-1.63,3.27a3.24,3.24,0,0,1-3.73-.76C360,145.28,363.5,142.32,365.53,142.86Z"/><path d="M361.14,154a4.71,4.71,0,0,0,3.08-3.61c.16-1.42-1-1.47-2.38-1.61a2.31,2.31,0,0,0-2.09,1.29,5.09,5.09,0,0,0-.08,3.4A1,1,0,0,0,361.14,154Z"/><path d="M355.68,154.29a2,2,0,0,0,2.49.16c.81-.63.73-1.81.67-3.12a13.47,13.47,0,0,1,.43-2c.41-1.38,1.23-2.27.21-3.59-.8-1-2.41-.44-3.35-.54a8.86,8.86,0,0,1-2.45-.4c-.94-.38-1.89-.76-2.71-.13a2,2,0,0,0-.59,2.54S353.05,152.44,355.68,154.29Z"/><path d="M421.33,140.89a3.07,3.07,0,0,0-1.92-.51c-1.15.06-2,.2-1.85,1.42s1.53,1.62,2.21,1.55S422.54,142,421.33,140.89Z"/><path d="M425.37,144a.9.9,0,0,1-.26,1.18,2.64,2.64,0,0,1-2,.73c-.86-.1-2.1-.27-2.13-1.08a2.15,2.15,0,0,1,1.6-2.08A2.82,2.82,0,0,1,425.37,144Z"/><path d="M425.1,147.28a1,1,0,0,1,.06,1.44,2.79,2.79,0,0,1-2.48,1.06,2.38,2.38,0,0,1-1.74-2.19C420.81,146,424.21,146,425.1,147.28Z"/><path d="M417.34,151.48a3.47,3.47,0,0,0,3.45-.58c.76-.72.13-1.3-.58-2a1.69,1.69,0,0,0-1.79-.27,3.73,3.73,0,0,0-1.66,1.88A.77.77,0,0,0,417.34,151.48Z"/><path d="M414.12,149.05a1.47,1.47,0,0,0,1.32,1.27c.76,0,1.28-.67,1.86-1.44a9.93,9.93,0,0,1,1.17-.9c.89-.58,1.78-.7,1.83-1.92,0-1-1.15-1.4-1.64-1.9a6.46,6.46,0,0,1-1.19-1.39c-.35-.66-.71-1.33-1.46-1.36a1.45,1.45,0,0,0-1.55,1.15S413.51,146.76,414.12,149.05Z"/><path d="M322.41,62.25a2.42,2.42,0,0,0-1.22-.92c-.84-.28-1.47-.42-1.73.49s.63,1.59,1.13,1.74S323,63.38,322.41,62.25Z"/><path d="M324.39,65.66a.69.69,0,0,1-.52.76,2,2,0,0,1-1.65,0c-.58-.32-1.42-.8-1.21-1.39a1.65,1.65,0,0,1,1.74-1C323.69,64,324.42,65.32,324.39,65.66Z"/><path d="M323.27,67.89a.78.78,0,0,1-.37,1,2.16,2.16,0,0,1-2.07,0,1.85,1.85,0,0,1-.62-2.07C320.57,65.75,323,66.73,323.27,67.89Z"/><path d="M316.52,68.67a2.67,2.67,0,0,0,2.63.57c.76-.29.47-.89.17-1.62a1.31,1.31,0,0,0-1.2-.7,2.87,2.87,0,0,0-1.73.87A.6.6,0,0,0,316.52,68.67Z"/><path d="M314.92,66a1.14,1.14,0,0,0,.58,1.28c.54.25,1.11-.11,1.74-.49a7.75,7.75,0,0,1,1.1-.31c.8-.16,1.46,0,1.85-.85.31-.68-.42-1.32-.62-1.82a5.25,5.25,0,0,1-.46-1.33c-.05-.58-.12-1.16-.65-1.4a1.13,1.13,0,0,0-1.44.38S315.15,64.2,314.92,66Z"/><path d="M388.89,80.39a3.42,3.42,0,0,0-2.06-.61c-1.25,0-2.15.16-2.05,1.48s1.6,1.81,2.34,1.75S390.17,81.63,388.89,80.39Z"/><path d="M393.17,84a1,1,0,0,1-.32,1.27,2.88,2.88,0,0,1-2.2.72c-.93-.13-2.27-.36-2.28-1.24a2.34,2.34,0,0,1,1.81-2.2C391.44,82.09,393.05,83.49,393.17,84Z"/><path d="M392.78,87.45a1.11,1.11,0,0,1,0,1.57s-.65,1.08-2.72,1.07a2.58,2.58,0,0,1-1.82-2.44C388.16,85.92,391.86,86,392.78,87.45Z"/><path d="M384.21,91.76a3.78,3.78,0,0,0,3.77-.51c.85-.77.18-1.42-.56-2.23a1.86,1.86,0,0,0-1.94-.35,4,4,0,0,0-1.86,2A.83.83,0,0,0,384.21,91.76Z"/><path d="M380.8,89a1.61,1.61,0,0,0,1.4,1.43c.82.06,1.4-.69,2.06-1.5a10.17,10.17,0,0,1,1.3-.94c1-.6,1.95-.7,2.05-2,.07-1-1.21-1.55-1.72-2.11a7.21,7.21,0,0,1-1.25-1.55c-.36-.73-.72-1.46-1.54-1.52a1.58,1.58,0,0,0-1.72,1.2S380.22,86.51,380.8,89Z"/><path d="M501.66,60.34a4.92,4.92,0,0,0-3,.79c-1.54,1-2.56,1.83-1.43,3.41s3.37,1,4.25.41S504.21,60.91,501.66,60.34Z"/><path d="M509.71,61.53a1.41,1.41,0,0,1,.56,1.82,4.19,4.19,0,0,1-2.2,2.58c-1.26.54-3.11,1.27-3.79.17a3.4,3.4,0,0,1,.6-4.11C506.14,60.51,509.21,61,509.71,61.53Z"/><path d="M511.88,66.2a1.6,1.6,0,0,1,1.2,2s0,1.84-2.58,3.4a3.78,3.78,0,0,1-4.13-1.67C505,67.79,509.65,65.13,511.88,66.2Z"/><path d="M504.45,78.08a5.53,5.53,0,0,0,4.32-3.5c.48-1.6-.85-1.9-2.4-2.36a2.72,2.72,0,0,0-2.69,1,6,6,0,0,0-.81,3.89A1.22,1.22,0,0,0,504.45,78.08Z"/><path d="M498.1,77.24a2.35,2.35,0,0,0,2.83.72c1.07-.55,1.23-1.93,1.44-3.44a16.36,16.36,0,0,1,.91-2.16c.77-1.5,1.9-2.35,1-4.09-.7-1.36-2.68-1-3.74-1.33a10.65,10.65,0,0,1-2.73-1c-1-.65-2-1.29-3.09-.74A2.3,2.3,0,0,0,493.5,68S495.48,74.55,498.1,77.24Z"/><path d="M602.38,63a3.08,3.08,0,0,0-1.72-1c-1.13-.22-2-.28-2.14.93s1.09,1.93,1.76,2S603.29,64.4,602.38,63Z"/><path d="M605.52,67.07a.88.88,0,0,1-.53,1.07,2.67,2.67,0,0,1-2.12.22c-.81-.31-2-.78-1.8-1.57a2.14,2.14,0,0,1,2.06-1.61C604.34,65.06,605.51,66.63,605.52,67.07Z"/><path d="M604.48,70.13a1,1,0,0,1-.3,1.41,2.79,2.79,0,0,1-2.65.43,2.39,2.39,0,0,1-1.15-2.56C600.64,67.85,603.93,68.68,604.48,70.13Z"/><path d="M596,72.31a3.47,3.47,0,0,0,3.48.28c.91-.52.44-1.23-.07-2.11a1.72,1.72,0,0,0-1.67-.7,3.73,3.73,0,0,0-2.06,1.42A.77.77,0,0,0,596,72.31Z"/><path d="M593.43,69.17a1.45,1.45,0,0,0,1,1.55c.72.22,1.39-.34,2.15-.94a9.73,9.73,0,0,1,1.35-.58c1-.35,1.89-.24,2.23-1.42.28-.92-.77-1.63-1.12-2.23a6.62,6.62,0,0,1-.81-1.63c-.18-.73-.36-1.46-1.09-1.68a1.47,1.47,0,0,0-1.78.74S593.4,66.81,593.43,69.17Z"/><path d="M654.38,62.27a3.08,3.08,0,0,0-1.72-1c-1.13-.22-2-.28-2.14.93s1.08,1.93,1.76,2S655.29,63.64,654.38,62.27Z"/><path d="M657.52,66.31a.88.88,0,0,1-.53,1.07,2.67,2.67,0,0,1-2.12.22c-.81-.31-2-.78-1.8-1.57a2.14,2.14,0,0,1,2.06-1.61C656.34,64.3,657.51,65.87,657.52,66.31Z"/><path d="M656.48,69.37a1,1,0,0,1-.3,1.41,2.81,2.81,0,0,1-2.65.43,2.39,2.39,0,0,1-1.15-2.56C652.64,67.09,655.93,67.92,656.48,69.37Z"/><path d="M648,71.54a3.45,3.45,0,0,0,3.48.29c.91-.52.44-1.23-.07-2.11a1.72,1.72,0,0,0-1.67-.7,3.73,3.73,0,0,0-2.06,1.42A.76.76,0,0,0,648,71.54Z"/><path d="M645.43,68.41a1.45,1.45,0,0,0,1,1.55c.72.22,1.39-.34,2.15-.94a9.73,9.73,0,0,1,1.35-.58c1-.35,1.88-.24,2.23-1.42.28-.93-.77-1.63-1.12-2.23a6.9,6.9,0,0,1-.82-1.63c-.17-.73-.35-1.46-1.08-1.68a1.45,1.45,0,0,0-1.78.74S645.4,66.05,645.43,68.41Z"/><path d="M578.59,78.51a3.08,3.08,0,0,0-1.72-1c-1.13-.22-2-.28-2.14.93s1.09,1.93,1.76,2S579.5,79.87,578.59,78.51Z"/><path d="M581.73,82.54a.9.9,0,0,1-.53,1.08,2.63,2.63,0,0,1-2.12.21c-.81-.3-2-.77-1.8-1.56a2.15,2.15,0,0,1,2.06-1.62C580.55,80.53,581.72,82.1,581.73,82.54Z"/><path d="M580.69,85.61a1,1,0,0,1-.3,1.4,2.76,2.76,0,0,1-2.65.43,2.38,2.38,0,0,1-1.15-2.55C576.85,83.32,580.14,84.16,580.69,85.61Z"/><path d="M572.16,87.78a3.44,3.44,0,0,0,3.48.28c.91-.51.44-1.23-.07-2.11a1.7,1.7,0,0,0-1.67-.69,3.75,3.75,0,0,0-2.06,1.41A.77.77,0,0,0,572.16,87.78Z"/><path d="M569.64,84.65a1.46,1.46,0,0,0,1,1.55c.72.21,1.39-.34,2.15-.94a10.49,10.49,0,0,1,1.35-.59c1-.34,1.89-.24,2.23-1.41.28-.93-.77-1.63-1.12-2.23a6.56,6.56,0,0,1-.81-1.64c-.18-.73-.36-1.46-1.09-1.67a1.45,1.45,0,0,0-1.78.74S569.61,82.28,569.64,84.65Z"/><path d="M475.91,139.38a4.81,4.81,0,0,0-2.53,1.7c-1.09,1.4-1.76,2.49-.22,3.58s3.41-.13,4-1S478.42,139.09,475.91,139.38Z"/><path d="M483.65,137.9a1.37,1.37,0,0,1,1.1,1.48,4,4,0,0,1-1.19,3.07c-1,.9-2.44,2.16-3.41,1.37a3.29,3.29,0,0,1-.77-3.95C480.06,138.11,483,137.61,483.65,137.9Z"/><path d="M487.13,141.48a1.55,1.55,0,0,1,1.72,1.39s.6,1.69-1.27,3.94a3.67,3.67,0,0,1-4.31-.2C481.3,145.15,484.75,141.21,487.13,141.48Z"/><path d="M484.13,154.72a5.34,5.34,0,0,0,2.83-4.58c-.07-1.62-1.38-1.47-2.94-1.39a2.62,2.62,0,0,0-2.13,1.8,5.81,5.81,0,0,0,.5,3.83A1.18,1.18,0,0,0,484.13,154.72Z"/><path d="M478.06,156a2.26,2.26,0,0,0,2.81-.24c.81-.85.51-2.16.22-3.61a15.16,15.16,0,0,1,.14-2.27c.23-1.61,1-2.76-.38-4.06-1.07-1-2.77-.08-3.84,0a10.3,10.3,0,0,1-2.82,0c-1.12-.27-2.26-.53-3.06.32a2.21,2.21,0,0,0-.23,3S474.8,154.36,478.06,156Z"/><path d="M558.46,41.5a3.69,3.69,0,0,0-2.36.37c-1.24.63-2.08,1.18-1.34,2.47s2.47,1,3.18.63S560.34,42.12,558.46,41.5Z"/><path d="M564.45,43a1.07,1.07,0,0,1,.29,1.42c-.5.83-.86,1.47-1.86,1.78s-2.45.73-2.88-.15a2.61,2.61,0,0,1,.76-3.07C561.83,42,564.12,42.6,564.45,43Z"/><path d="M565.74,46.7a1.22,1.22,0,0,1,.76,1.57s-.13,1.39-2.21,2.37a2.87,2.87,0,0,1-3-1.57C560.38,47.38,564.14,45.73,565.74,46.7Z"/><path d="M559.22,55.12a4.18,4.18,0,0,0,3.53-2.32c.49-1.17-.5-1.5-1.63-2a2.05,2.05,0,0,0-2.11.58,4.52,4.52,0,0,0-.91,2.88A.92.92,0,0,0,559.22,55.12Z"/><path d="M554.49,54a1.78,1.78,0,0,0,2.08.76c.85-.34,1.08-1.37,1.35-2.5a11.28,11.28,0,0,1,.85-1.56c.69-1.07,1.62-1.63,1.08-3-.43-1.09-2-1-2.73-1.29a8,8,0,0,1-2-.95c-.71-.57-1.43-1.13-2.28-.8a1.77,1.77,0,0,0-1.15,2S552.7,51.78,554.49,54Z"/><path d="M634.53,81.65a3.77,3.77,0,0,0-1.67-1.7c-1.24-.64-2.18-1-2.8.35s.6,2.61,1.35,3S635.12,83.54,634.53,81.65Z"/><path d="M636.8,87.4a1.07,1.07,0,0,1-1,1.06,3.17,3.17,0,0,1-2.54-.47c-.83-.63-2-1.56-1.55-2.42a2.58,2.58,0,0,1,2.93-1.18C636.12,84.66,636.94,86.88,636.8,87.4Z"/><path d="M634.56,90.6a1.22,1.22,0,0,1-.83,1.53s-1.21.71-3.22-.4a2.88,2.88,0,0,1-.47-3.36C630.87,86.65,634.41,88.73,634.56,90.6Z"/><path d="M623.92,90.22a4.17,4.17,0,0,0,3.94,1.51c1.23-.28.93-1.28.64-2.47a2.06,2.06,0,0,0-1.7-1.37,4.55,4.55,0,0,0-2.88.94A.93.93,0,0,0,623.92,90.22Z"/><path d="M622.05,85.73a1.78,1.78,0,0,0,.6,2.13c.77.5,1.74.08,2.82-.36a11.51,11.51,0,0,1,1.76-.22c1.28-.06,2.28.36,3.08-.89.63-1-.35-2.15-.55-3a8.1,8.1,0,0,1-.39-2.18c0-.9.08-1.81-.69-2.31a1.75,1.75,0,0,0-2.31.26S622.83,83,622.05,85.73Z"/><path d="M535.23,74a3.78,3.78,0,0,0-2.23.83c-1.08.87-1.78,1.58-.81,2.68s2.61.52,3.23,0S537.19,74.26,535.23,74Z"/><path d="M541.38,74.3a1.06,1.06,0,0,1,.56,1.32,3.19,3.19,0,0,1-1.46,2.12c-.91.5-2.24,1.19-2.83.42a2.57,2.57,0,0,1,.12-3.14C538.61,73.81,541,74,541.38,74.3Z"/><path d="M543.37,77.64a1.21,1.21,0,0,1,1,1.37s.15,1.39-1.68,2.76a2.84,2.84,0,0,1-3.23-.93C538.28,79.38,541.61,77,543.37,77.64Z"/><path d="M538.7,87.15a4.14,4.14,0,0,0,3-3c.24-1.24-.78-1.37-2-1.59a2,2,0,0,0-1.94,1,4.56,4.56,0,0,0-.32,3A.93.93,0,0,0,538.7,87.15Z"/><path d="M533.86,87a1.78,1.78,0,0,0,2.18.33c.76-.5.78-1.55.81-2.71a13.26,13.26,0,0,1,.52-1.69c.47-1.18,1.25-1.92.45-3.15-.63-1-2.09-.56-2.92-.71a8.27,8.27,0,0,1-2.13-.53c-.8-.41-1.61-.82-2.38-.32a1.76,1.76,0,0,0-.71,2.21S531.67,85.19,533.86,87Z"/><path d="M667,145.07a3.6,3.6,0,0,0-2.11-.86c-1.32-.1-2.28-.05-2.32,1.36s1.51,2.07,2.29,2.09S668.26,146.52,667,145.07Z"/><path d="M671.19,149.27a1,1,0,0,1-.47,1.3,3,3,0,0,1-2.4.55c-1-.24-2.36-.62-2.28-1.55a2.48,2.48,0,0,1,2.14-2.14C669.56,147.13,671.11,148.77,671.19,149.27Z"/><path d="M670.42,152.93a1.17,1.17,0,0,1-.16,1.65s-.8,1.08-3,.86a2.75,2.75,0,0,1-1.67-2.77C665.7,150.84,669.59,151.34,670.42,152.93Z"/><path d="M660.92,156.59a4,4,0,0,0,4-.15c1-.72.34-1.47-.36-2.41a2,2,0,0,0-2-.57,4.3,4.3,0,0,0-2.17,1.91A.88.88,0,0,0,660.92,156.59Z"/><path d="M657.6,153.34a1.69,1.69,0,0,0,1.33,1.65c.86.15,1.55-.58,2.33-1.37a12.79,12.79,0,0,1,1.47-.86c1.1-.53,2.14-.53,2.37-1.93.19-1.1-1.11-1.76-1.59-2.4a7.83,7.83,0,0,1-1.16-1.77c-.3-.81-.61-1.62-1.47-1.77a1.67,1.67,0,0,0-1.94,1.09S657.25,150.64,657.6,153.34Z"/><path d="M675.47,86.36a3.67,3.67,0,0,0-1.26-2c-1.07-.86-1.9-1.39-2.77-.22s0,2.63.7,3.11S675.66,88.3,675.47,86.36Z"/><path d="M676.5,92.36a1.06,1.06,0,0,1-1.17.82,3.15,3.15,0,0,1-2.35-1c-.67-.78-1.62-1.92-1-2.66a2.56,2.56,0,0,1,3.07-.53C676.39,89.59,676.73,91.89,676.5,92.36Z"/><path d="M673.68,95a1.2,1.2,0,0,1-1.11,1.3s-1.31.44-3-1a2.85,2.85,0,0,1,.23-3.33C670.94,90.43,673.92,93.16,673.68,95Z"/><path d="M663.51,92.46A4.14,4.14,0,0,0,667,94.72c1.25,0,1.15-1,1.12-2.25a2,2,0,0,0-1.36-1.67,4.44,4.44,0,0,0-3,.32A.91.91,0,0,0,663.51,92.46Z"/><path d="M662.63,87.76a1.75,1.75,0,0,0,.14,2.17c.64.64,1.66.43,2.79.22a12.15,12.15,0,0,1,1.74.15c1.24.2,2.12.81,3.14-.23.81-.81.11-2.14.08-3a8,8,0,0,1,.07-2.18c.22-.86.44-1.73-.2-2.36a1.72,1.72,0,0,0-2.28-.23S663.93,85.26,662.63,87.76Z"/><path class="cls-1" d="M180.06,105.84A3.82,3.82,0,0,0,178,107c-1,1-1.61,1.76-.57,2.69s2.61.13,3.16-.47S182,105.79,180.06,105.84Z"/><path class="cls-1" d="M186.1,105.24a1,1,0,0,1,.67,1.2,3.3,3.3,0,0,1-1.24,2.24c-.85.61-2.09,1.46-2.74.8a2.45,2.45,0,0,1-.15-3C183.36,105.16,185.67,105,186.1,105.24Z"/><path class="cls-1" d="M188.34,108.18a1.12,1.12,0,0,1,1.15,1.18s.27,1.31-1.4,2.89a2.82,2.82,0,0,1-3.25-.45C183.52,110.56,186.57,107.82,188.34,108.18Z"/><path class="cls-1" d="M184.6,118a4.35,4.35,0,0,0,2.66-3.27c.12-1.23-.89-1.2-2.08-1.25a2.17,2.17,0,0,0-1.82,1.22,4.31,4.31,0,0,0,0,2.92A.88.88,0,0,0,184.6,118Z"/><path class="cls-1" d="M179.85,118.53a1.77,1.77,0,0,0,2.17,0c.7-.59.62-1.6.56-2.72a12.11,12.11,0,0,1,.36-1.7c.35-1.2,1.06-2,.16-3.1-.7-.84-2.1-.24-2.91-.28a7.77,7.77,0,0,1-2.14-.21c-.82-.28-1.65-.55-2.35,0a1.73,1.73,0,0,0-.51,2.22S177.56,117.08,179.85,118.53Z"/><path class="cls-1" d="M554.83,115.26a3.66,3.66,0,0,0-1.82,1.28c-.79,1-1.27,1.84-.19,2.57s2.43-.2,2.87-.82S556.62,115,554.83,115.26Z"/><path class="cls-1" d="M560.36,114a.91.91,0,0,1,.76,1,3.05,3.05,0,0,1-.88,2.22c-.71.67-1.75,1.62-2.44,1.08a2.3,2.3,0,0,1-.51-2.8A3.25,3.25,0,0,1,560.36,114Z"/><path class="cls-1" d="M562.8,116.42a1,1,0,0,1,1.21,1s.4,1.19-1,2.85a2.63,2.63,0,0,1-3.07,0C558.61,119.22,561.11,116.3,562.8,116.42Z"/><path class="cls-1" d="M560.53,126a4.07,4.07,0,0,0,2.06-3.36c0-1.15-1-1-2.09-.9a2,2,0,0,0-1.53,1.35,4.08,4.08,0,0,0,.32,2.72A.83.83,0,0,0,560.53,126Z"/><path class="cls-1" d="M556.19,127.05a1.64,1.64,0,0,0,2-.25c.58-.63.38-1.56.19-2.59a11.19,11.19,0,0,1,.12-1.62c.18-1.16.73-2-.23-2.89-.75-.7-2,0-2.73.09a7.14,7.14,0,0,1-2,.07c-.8-.16-1.6-.31-2.18.31a1.61,1.61,0,0,0-.19,2.12S553.88,126,556.19,127.05Z"/><path class="cls-1" d="M395.54,114.28a3.2,3.2,0,0,0-1.74.92c-.81.81-1.33,1.45-.47,2.22s2.15.11,2.61-.39S397.14,114.24,395.54,114.28Z"/><path class="cls-1" d="M400.53,113.8a.81.81,0,0,1,.55,1,2.74,2.74,0,0,1-1,1.84c-.7.51-1.73,1.21-2.26.66a2,2,0,0,1-.12-2.51A2.86,2.86,0,0,1,400.53,113.8Z"/><path class="cls-1" d="M402.37,116.23a.92.92,0,0,1,.95,1s.22,1.09-1.16,2.38a2.3,2.3,0,0,1-2.68-.37C398.38,118.19,400.91,115.93,402.37,116.23Z"/><path class="cls-1" d="M399.27,124.32a3.59,3.59,0,0,0,2.2-2.7c.1-1-.73-1-1.72-1a1.79,1.79,0,0,0-1.5,1,3.6,3.6,0,0,0,0,2.42A.73.73,0,0,0,399.27,124.32Z"/><path class="cls-1" d="M395.35,124.76a1.46,1.46,0,0,0,1.79,0c.58-.48.52-1.32.47-2.24a10.27,10.27,0,0,1,.29-1.41c.29-1,.88-1.66.14-2.55-.58-.7-1.73-.21-2.4-.24a6.5,6.5,0,0,1-1.76-.17c-.68-.23-1.37-.46-1.95,0a1.43,1.43,0,0,0-.42,1.83S393.46,123.56,395.35,124.76Z"/><path d="M120.18,82.11,112,96.76l16.39,31.94a5.92,5.92,0,0,0,5,3.74c3.81.26,11.36.33,11.36.33s1.94-.65,1.23-3.17-2.13-2.71-3.81-2.83-5.29-.07-5.29-.07-2.77-.56-5.29-4.9C126.51,113,120.18,82.11,120.18,82.11Z"/><path d="M131.35,13.71c-.87-1.13-1.13.13-1.13.13s3,8.36,3.81,10.88S137,37.78,137,41.07s-2.87,6.52-9.35,5.17c-5.25-1.1-8.39-8.14-9.81-11.43s-1.61-15.13-2.26-16.45c-1-2-1.16.19-1.16.19s.23,10.33,2.55,17.16C119.06,42,124.65,48,124.65,48V58.88c.38,6.84-2.07,16.26-2.07,16.26s-7.42,13.23-9.35,16.59-5.88,12.58-5.88,12.58-.25,18-.19,20.52,1.55,2.71,3,2.71,6.32,0,6.58,3.55c.21,2.9-3,3.23-3,3.23s-5.42-.07-9.17-.33S101,130.9,101,130.9s-3.1-32.72-3.49-34.27-5.81.58-8.71,2.32-4,.91-4.78.59-7.22-1.75-11.16-.78-10.39,7-10.39,7c9-7.61,14.13-6,18.52-5.29s11,6.71,8.58,14.52a36,36,0,0,1-8.38,13.61l5.38,0s4.15-.29,4.41,2.28c.53,5.37-4.84,3.83-4.84,3.83H38.82a56.93,56.93,0,0,1-23.3-4.39,18.22,18.22,0,0,1-9.87-12.77c-1-5.81-.2-11.42,3.16-18s9.94-9,15-9.62,10.07,2.71,11.29,4.65-1,.84-1,.84c-7.42-1.81-12.32,2.9-13.8,4.32s-7,11.87.32,19.29,14.07,6.91,14.07,6.91c-1.42-3.55-.52-12.59.58-17.68S39.65,96.82,43.91,90,57.72,77.27,64.3,73.47,79.27,59.72,81,57.59s18.32-22.1,18.32-22.1S116.72,9.61,122.18,6.1c4.52-2.9,13.43-1.68,15.3-1s8.26,2.26,8.64,6.84c.32,3.77,2.13,4.91,4.72,5.94s10.9,2.71,10.9,2.71,2.36-.14,1.84,1.34a25,25,0,0,1-1.19,2.42s-.39.43-1.68,6.3-16.37,5.34-19.66,5.2a3.12,3.12,0,0,1-2.93-2.06C137.23,31.64,131.35,13.71,131.35,13.71Z"/><ellipse class="cls-1" cx="124.8" cy="64.8" rx="1.84" ry="4.76"/><path class="cls-1" d="M124.65,59.08l0-3.43S110.13,51.9,99.16,35.71L97.3,38S109.73,56.24,124.65,59.08Z"/><ellipse cx="122.22" cy="56.85" rx="0.74" ry="0.9"/><ellipse cx="111.96" cy="51.33" rx="0.74" ry="0.9"/><ellipse cx="116.93" cy="54.46" rx="0.74" ry="0.9"/><ellipse cx="107.31" cy="47.39" rx="0.74" ry="0.9"/><ellipse cx="103.34" cy="43.36" rx="0.74" ry="0.9"/><ellipse cx="99.6" cy="38.87" rx="0.74" ry="0.9"/><ellipse cx="125.6" cy="64.8" rx="1.84" ry="4.66"/></g></svg>