<svg id="Capa_1" data-name="Capa 1" xmlns="http://www.w3.org/2000/svg" viewBox="0 0 425.2 396.85"><defs><style>.cls-1{fill:#010101;}.cls-2{fill:none;stroke:#010101;stroke-miterlimit:10;stroke-width:4px;}.cls-3{fill:#040506;}</style></defs><path class="cls-1" d="M161.36,343.2c1,1.55,1.85,3.23,2.8,4.71a13.64,13.64,0,0,0,1.51,2,23.49,23.49,0,0,0,1.76,1.84,34.71,34.71,0,0,0,8.39,5.72,24.43,24.43,0,0,0,4.63,1.76,24.11,24.11,0,0,0,4.94.64c3.44.09,7.11-.36,10.83-.24a40.31,40.31,0,0,1-10.64,3.38,19.81,19.81,0,0,1-5.9-.07,21.73,21.73,0,0,1-5.62-1.87,25.71,25.71,0,0,1-9-7.23,18.77,18.77,0,0,1-1.59-2.46,13,13,0,0,1-1.12-2.72A35,35,0,0,1,161.36,343.2Z"/><path class="cls-1" d="M171.76,338.26c1.53.61,3,1.3,4.5,2s3,1.44,4.41,2.19,2.91,1.54,4.33,2.36,2.85,1.65,4.23,2.55c-1.54-.61-3-1.3-4.51-2s-2.95-1.44-4.41-2.19-2.9-1.54-4.33-2.37S173.14,339.16,171.76,338.26Z"/><path class="cls-1" d="M166.32,339.63c2.2,1.7,4.35,3.47,6.5,5.24s4.24,3.61,6.36,5.41,4.18,3.67,6.24,5.54,4.11,3.75,6.1,5.7c-2.21-1.7-4.36-3.46-6.5-5.24s-4.24-3.6-6.36-5.41-4.18-3.67-6.24-5.54S168.31,341.58,166.32,339.63Z"/><path class="cls-1" d="M166.46,339.88c1.46,1.46,2.86,3,4.25,4.51s2.75,3.09,4.1,4.66,2.67,3.15,4,4.77,2.57,3.23,3.79,4.91c-1.47-1.46-2.87-3-4.26-4.52s-2.74-3.08-4.09-4.65-2.67-3.16-4-4.77S167.67,341.55,166.46,339.88Z"/><path class="cls-1" d="M170.88,337.8c1.82,1.24,3.58,2.55,5.34,3.87s3.48,2.68,5.21,4,3.42,2.76,5.1,4.18,3.35,2.84,5,4.33c-1.82-1.23-3.59-2.54-5.35-3.86s-3.47-2.68-5.21-4-3.42-2.75-5.1-4.17S172.49,339.3,170.88,337.8Z"/><path class="cls-1" d="M117.27,339.76a4.35,4.35,0,0,0-2-2c-1.44-.73-2.54-1.13-3.24.43s.71,3,1.58,3.42S118,342,117.27,339.76Z"/><path class="cls-1" d="M120,346.42a1.24,1.24,0,0,1-1.13,1.24,3.7,3.7,0,0,1-2.95-.52c-1-.72-2.35-1.8-1.82-2.81a3,3,0,0,1,3.4-1.38C119.13,343.25,120.11,345.82,120,346.42Z"/><path class="cls-1" d="M117.37,350.16a1.41,1.41,0,0,1-1,1.78s-1.4.83-3.74-.44a3.35,3.35,0,0,1-.58-3.89C113.06,345.6,117.19,348,117.37,350.16Z"/><path class="cls-1" d="M105,349.81a4.87,4.87,0,0,0,4.59,1.72c1.43-.34,1.07-1.5.72-2.88a2.39,2.39,0,0,0-2-1.58,5.3,5.3,0,0,0-3.34,1.12A1.08,1.08,0,0,0,105,349.81Z"/><path class="cls-1" d="M102.81,344.6a2.06,2.06,0,0,0,.71,2.47c.9.57,2,.08,3.27-.44a14.27,14.27,0,0,1,2-.27c1.48-.08,2.64.4,3.56-1.05.73-1.14-.42-2.5-.65-3.44a9.24,9.24,0,0,1-.48-2.53c0-1,.08-2.1-.82-2.67a2,2,0,0,0-2.68.31S103.68,341.4,102.81,344.6Z"/><path class="cls-1" d="M204.79,378.73a4.39,4.39,0,0,0-2.71-.61c-1.61.16-2.75.41-2.5,2.11s2.23,2.16,3.17,2S206.56,380.2,204.79,378.73Z"/><path class="cls-1" d="M210.63,382.91a1.25,1.25,0,0,1-.29,1.65,3.71,3.71,0,0,1-2.78,1.14c-1.2-.08-2.95-.25-3-1.39a3,3,0,0,1,2.13-3C208.23,380.67,210.44,382.32,210.63,382.91Z"/><path class="cls-1" d="M210.45,387.45a1.41,1.41,0,0,1,.15,2s-.73,1.46-3.39,1.63a3.35,3.35,0,0,1-2.58-3C204.37,385.91,209.13,385.71,210.45,387.45Z"/><path class="cls-1" d="M199.83,393.78a4.84,4.84,0,0,0,4.79-1c1-1.06.1-1.83-.93-2.82a2.39,2.39,0,0,0-2.52-.26,5.27,5.27,0,0,0-2.22,2.72A1.08,1.08,0,0,0,199.83,393.78Z"/><path class="cls-1" d="M195.18,390.56a2.07,2.07,0,0,0,1.93,1.71c1.06,0,1.74-1,2.51-2.13a15.78,15.78,0,0,1,1.59-1.32c1.21-.87,2.44-1.08,2.44-2.8,0-1.36-1.69-1.88-2.39-2.56a9.32,9.32,0,0,1-1.76-1.87c-.52-.91-1.06-1.82-2.12-1.82a2,2,0,0,0-2.1,1.7S194.2,387.39,195.18,390.56Z"/><path class="cls-1" d="M139.64,368.23a5.39,5.39,0,0,0-3-1.69c-2-.39-3.43-.5-3.74,1.62s1.89,3.39,3.06,3.56S141.23,370.62,139.64,368.23Z"/><path class="cls-1" d="M145.13,375.31a1.56,1.56,0,0,1-.94,1.88c-1.32.51-2.31.91-3.72.37s-3.44-1.36-3.14-2.75a3.75,3.75,0,0,1,3.61-2.82C143.07,371.78,145.11,374.54,145.13,375.31Z"/><path class="cls-1" d="M143.29,380.68a1.76,1.76,0,0,1-.53,2.46s-1.4,1.48-4.65.74a4.17,4.17,0,0,1-2-4.48C136.57,376.66,142.34,378.13,143.29,380.68Z"/><path class="cls-1" d="M128.33,384.45a6,6,0,0,0,6.09.51c1.61-.9.78-2.15-.1-3.7a3,3,0,0,0-2.93-1.22s-2.6.67-3.62,2.47A1.34,1.34,0,0,0,128.33,384.45Z"/><path class="cls-1" d="M123.92,379a2.57,2.57,0,0,0,1.69,2.72c1.28.38,2.45-.59,3.77-1.64a19.13,19.13,0,0,1,2.38-1c1.75-.6,3.3-.41,3.92-2.47.48-1.62-1.35-2.86-2-3.91a11.65,11.65,0,0,1-1.42-2.87c-.31-1.28-.62-2.56-1.89-2.94a2.53,2.53,0,0,0-3.12,1.29S123.88,374.8,123.92,379Z"/><path class="cls-1" d="M230.41,359.62a4.56,4.56,0,0,0-2.9-.1c-1.62.48-2.75,1-2.17,2.65s2.71,1.79,3.65,1.47S232.51,360.79,230.41,359.62Z"/><path class="cls-1" d="M237.21,362.79a1.29,1.29,0,0,1,0,1.75,3.85,3.85,0,0,1-2.63,1.71c-1.25.14-3.08.31-3.39-.84a3.14,3.14,0,0,1,1.6-3.48C234.32,361,236.9,362.22,237.21,362.79Z"/><path class="cls-1" d="M237.9,367.48a1.48,1.48,0,0,1,.55,2s-.47,1.64-3.17,2.33a3.5,3.5,0,0,1-3.22-2.55C231.36,367.08,236.21,366,237.9,367.48Z"/><path class="cls-1" d="M228.22,376a5.07,5.07,0,0,0,4.73-2c.85-1.29-.25-1.91-1.5-2.72a2.52,2.52,0,0,0-2.65.22,5.49,5.49,0,0,0-1.74,3.23A1.13,1.13,0,0,0,228.22,376Z"/><path class="cls-1" d="M222.82,373.63a2.16,2.16,0,0,0,2.31,1.38c1.1-.2,1.6-1.38,2.18-2.67a15.56,15.56,0,0,1,1.37-1.67c1.07-1.11,2.3-1.57,2-3.34-.26-1.39-2.1-1.61-3-2.16a9.73,9.73,0,0,1-2.16-1.59c-.72-.83-1.44-1.66-2.54-1.46a2.12,2.12,0,0,0-1.82,2.16S221.21,370.57,222.82,373.63Z"/><path class="cls-1" d="M272.07,370.68a4.55,4.55,0,0,0-2.84.57c-1.47.83-2.46,1.55-1.5,3.07s3,1.13,3.89.6S274.39,371.35,272.07,370.68Z"/><path class="cls-1" d="M279.42,372.21a1.3,1.3,0,0,1,.42,1.7,3.87,3.87,0,0,1-2.16,2.27c-1.2.42-2.93,1-3.5-.05a3.12,3.12,0,0,1,.76-3.75C276.19,371.09,279,371.73,279.42,372.21Z"/><path class="cls-1" d="M281.17,376.62a1.48,1.48,0,0,1,1,1.86s-.09,1.7-2.56,3a3.5,3.5,0,0,1-3.71-1.75C274.7,377.72,279.18,375.52,281.17,376.62Z"/><path class="cls-1" d="M273.7,387.17a5.09,5.09,0,0,0,4.16-3c.53-1.45-.68-1.8-2.08-2.3a2.5,2.5,0,0,0-2.53.81,5.45,5.45,0,0,0-1,3.54A1.13,1.13,0,0,0,273.7,387.17Z"/><path class="cls-1" d="M267.9,386.06a2.14,2.14,0,0,0,2.56.81c1-.45,1.24-1.71,1.51-3.09a15.34,15.34,0,0,1,.95-1.94c.79-1.33,1.88-2.06,1.15-3.71-.57-1.29-2.41-1.08-3.37-1.42a10,10,0,0,1-2.47-1c-.89-.65-1.78-1.3-2.8-.85a2.11,2.11,0,0,0-1.28,2.52S265.62,383.45,267.9,386.06Z"/><path class="cls-1" d="M324.17,38.26a3.94,3.94,0,0,0,1.63,1.94c1.25.78,2.22,1.23,3-.14s-.41-2.81-1.17-3.23S323.71,36.21,324.17,38.26Z"/><path class="cls-1" d="M322.25,32a1.15,1.15,0,0,1,1.13-1,3.41,3.41,0,0,1,2.65.71c.82.73,2,1.82,1.43,2.7a2.74,2.74,0,0,1-3.2,1C322.75,34.94,322.07,32.52,322.25,32Z"/><path class="cls-1" d="M324.9,28.79a1.29,1.29,0,0,1,1-1.54s1.35-.65,3.38.7a3,3,0,0,1,.21,3.58C328.46,33.29,324.9,30.78,324.9,28.79Z"/><path class="cls-1" d="M336.12,30.1a4.44,4.44,0,0,0-4-1.94c-1.33.2-1.09,1.28-.89,2.56s1.68,1.6,1.68,1.6a4.82,4.82,0,0,0,3.12-.75A1,1,0,0,0,336.12,30.1Z"/><path class="cls-1" d="M337.7,35a1.89,1.89,0,0,0-.45-2.31c-.77-.59-1.83-.23-3,.14a13,13,0,0,1-1.89.09c-1.35,0-2.37-.58-3.32.67-.76,1,.18,2.3.32,3.18a8.69,8.69,0,0,1,.23,2.34c-.12,1-.24,1.91.53,2.5a1.85,1.85,0,0,0,2.47-.08S336.66,37.85,337.7,35Z"/><path class="cls-1" d="M375.68,92.51a4.75,4.75,0,0,0,1.95,2.32c1.5.93,2.65,1.47,3.56-.16s-.49-3.36-1.4-3.87S375.13,90.06,375.68,92.51Z"/><path class="cls-1" d="M373.39,85a1.36,1.36,0,0,1,1.35-1.25,4.11,4.11,0,0,1,3.16.85c1,.88,2.39,2.19,1.72,3.23A3.29,3.29,0,0,1,375.79,89C374,88.54,373.16,85.65,373.39,85Z"/><path class="cls-1" d="M376.56,81.19a1.54,1.54,0,0,1,1.2-1.85s1.6-.77,4,.84a3.64,3.64,0,0,1,.26,4.28C380.81,86.56,376.55,83.57,376.56,81.19Z"/><path class="cls-1" d="M390,82.74a5.31,5.31,0,0,0-4.83-2.31c-1.59.24-1.3,1.53-1.06,3.06s2,1.91,2,1.91a5.72,5.72,0,0,0,3.73-.89A1.18,1.18,0,0,0,390,82.74Z"/><path class="cls-1" d="M391.87,88.62a2.26,2.26,0,0,0-.54-2.76c-.92-.71-2.19-.28-3.59.17a15.48,15.48,0,0,1-2.26.1c-1.62,0-2.84-.69-4,.81-.9,1.17.22,2.75.39,3.8a10.11,10.11,0,0,1,.27,2.79c-.14,1.14-.28,2.29.64,3a2.23,2.23,0,0,0,2.95-.09S390.62,92,391.87,88.62Z"/><path class="cls-1" d="M340.35,68a5,5,0,0,0,1,3c1.14,1.5,2.08,2.48,3.61,1.2s.79-3.53.08-4.38S340.73,65.35,340.35,68Z"/><path class="cls-1" d="M340.92,59.67a1.45,1.45,0,0,1,1.82-.72,4.32,4.32,0,0,1,2.82,2c.65,1.25,1.55,3.08.48,3.86a3.49,3.49,0,0,1-4.26-.28C340.17,63.41,340.45,60.22,340.92,59.67Z"/><path class="cls-1" d="M345.52,57.07a1.66,1.66,0,0,1,1.9-1.38s1.89-.16,3.69,2.37a3.88,3.88,0,0,1-1.37,4.36C347.71,64,344.61,59.44,345.52,57.07Z"/><path class="cls-1" d="M358.28,63.73a5.65,5.65,0,0,0-3.93-4.14c-1.67-.37-1.87,1-2.22,2.64a2.79,2.79,0,0,0,1.28,2.67,6.1,6.1,0,0,0,4,.52A1.24,1.24,0,0,0,358.28,63.73Z"/><path class="cls-1" d="M357.93,70.29a2.4,2.4,0,0,0,.52-3c-.65-1-2.08-1.1-3.65-1.19a17.7,17.7,0,0,1-2.28-.76c-1.59-.67-2.56-1.77-4.26-.71-1.34.82-.83,2.82-1.06,3.93a11.18,11.18,0,0,1-.79,2.88c-.58,1.08-1.16,2.17-.51,3.22a2.36,2.36,0,0,0,3,1S355.39,73.2,357.93,70.29Z"/><path class="cls-1" d="M281.32,38.68a5.11,5.11,0,0,0,2.3,2.26c1.69.84,3,1.3,3.77-.53s-.86-3.51-1.88-4S280.49,36.13,281.32,38.68Z"/><path class="cls-1" d="M278.14,31a1.45,1.45,0,0,1,1.31-1.45c1.31-.13,2.3-.25,3.44.58s2.75,2.08,2.14,3.25A3.48,3.48,0,0,1,281.09,35C279.12,34.63,278,31.65,278.14,31Z"/><path class="cls-1" d="M281.12,26.58a1.64,1.64,0,0,1,1.08-2.08s1.63-1,4.36.49a3.9,3.9,0,0,1,.71,4.52C286.17,31.86,281.35,29.11,281.12,26.58Z"/><path class="cls-1" d="M295.5,26.89a5.65,5.65,0,0,0-5.36-2c-1.66.41-1.23,1.75-.82,3.35a2.8,2.8,0,0,0,2.33,1.83,6.14,6.14,0,0,0,3.87-1.33A1.25,1.25,0,0,0,295.5,26.89Z"/><path class="cls-1" d="M298.1,32.92a2.41,2.41,0,0,0-.85-2.87c-1.05-.65-2.35-.07-3.79.55a17.07,17.07,0,0,1-2.39.33c-1.72.11-3.07-.45-4.13,1.25-.84,1.34.51,2.9.79,4a10.81,10.81,0,0,1,.57,2.93c0,1.22-.07,2.45,1,3.11a2.36,2.36,0,0,0,3.12-.39S297.11,36.65,298.1,32.92Z"/><path class="cls-1" d="M349.34,312.88a5,5,0,0,0-2.68,1.8c-1.15,1.48-1.86,2.64-.22,3.79s3.61-.15,4.25-1.05S352,312.56,349.34,312.88Z"/><path class="cls-1" d="M357.53,311.29a1.45,1.45,0,0,1,1.17,1.57,4.32,4.32,0,0,1-1.26,3.25c-1,.95-2.58,2.29-3.61,1.46a3.51,3.51,0,0,1-.82-4.19C353.73,311.52,356.88,311,357.53,311.29Z"/><path class="cls-1" d="M361.22,315.07a1.65,1.65,0,0,1,1.82,1.48s.64,1.78-1.34,4.17a3.89,3.89,0,0,1-4.56-.2C355.06,319,358.7,314.8,361.22,315.07Z"/><path class="cls-1" d="M358.07,329.1a5.68,5.68,0,0,0,3-4.86c-.08-1.71-1.47-1.55-3.12-1.47a2.8,2.8,0,0,0-2.25,1.92,6.13,6.13,0,0,0,.53,4.05A1.25,1.25,0,0,0,358.07,329.1Z"/><path class="cls-1" d="M351.64,330.45a2.4,2.4,0,0,0,3-.27c.85-.89.54-2.28.22-3.82A16.17,16.17,0,0,1,355,324c.23-1.71,1-2.92-.41-4.3-1.14-1.08-2.94-.07-4.07,0a10.87,10.87,0,0,1-3,0c-1.19-.29-2.39-.57-3.24.33a2.37,2.37,0,0,0-.24,3.14S348.18,328.74,351.64,330.45Z"/><path class="cls-1" d="M46.89,248.37a4.56,4.56,0,0,0-.92-2.76c-1-1.37-1.85-2.27-3.25-1.12s-.75,3.18-.12,3.95S46.51,250.76,46.89,248.37Z"/><path class="cls-1" d="M46.27,255.89a1.31,1.31,0,0,1-1.64.64,3.93,3.93,0,0,1-2.53-1.89c-.57-1.13-1.37-2.8-.39-3.49a3.15,3.15,0,0,1,3.84.3C47,252.53,46.7,255.4,46.27,255.89Z"/><path class="cls-1" d="M42.09,258.19a1.49,1.49,0,0,1-1.73,1.23s-1.71.12-3.31-2.18a3.53,3.53,0,0,1,1.29-3.93C40.19,251.87,42.94,256.06,42.09,258.19Z"/><path class="cls-1" d="M30.64,252a5.09,5.09,0,0,0,3.5,3.78c1.51.35,1.71-.91,2-2.37A2.53,2.53,0,0,0,35.05,251a5.55,5.55,0,0,0-3.65-.52A1.14,1.14,0,0,0,30.64,252Z"/><path class="cls-1" d="M31,246.11a2.17,2.17,0,0,0-.49,2.66c.57,1,1.86,1,3.27,1.12a14.93,14.93,0,0,1,2.06.71c1.43.62,2.29,1.62,3.84.69,1.22-.73.78-2.54,1-3.54a9.63,9.63,0,0,1,.74-2.6c.53-1,1.07-1.94.49-2.9a2.13,2.13,0,0,0-2.67-1S33.35,243.51,31,246.11Z"/><path class="cls-1" d="M39.77,285.44a4.14,4.14,0,0,0-.83-2.58c-.94-1.26-1.73-2.08-3.08-1s-.77,3-.18,3.71S39.37,287.69,39.77,285.44Z"/><path class="cls-1" d="M39.06,292.5a1.32,1.32,0,0,1-1.59.62,3.58,3.58,0,0,1-2.38-1.72c-.53-1.06-1.25-2.6-.31-3.27a3,3,0,0,1,3.66.21C39.81,289.33,39.47,292,39.06,292.5Z"/><path class="cls-1" d="M35,294.72a1.48,1.48,0,0,1-1.67,1.18s-1.64.14-3.13-2a3.34,3.34,0,0,1,1.3-3.7C33.31,288.83,35.87,292.71,35,294.72Z"/><path class="cls-1" d="M24.19,289.15a4.6,4.6,0,0,0,3.28,3.48c1.43.31,1.64-.87,2-2.24a2.23,2.23,0,0,0-1-2.25,5.26,5.26,0,0,0-3.48-.43A1.08,1.08,0,0,0,24.19,289.15Z"/><path class="cls-1" d="M24.66,283.59a2,2,0,0,0-.52,2.5c.53.89,1.76.93,3.11,1a13.22,13.22,0,0,1,1.95.63c1.35.55,2.16,1.48,3.66.58,1.18-.71.79-2.4,1-3.34a9.09,9.09,0,0,1,.75-2.44c.53-.92,1.06-1.84.52-2.73a2,2,0,0,0-2.53-.86S26.92,281.12,24.66,283.59Z"/><path class="cls-1" d="M87.54,341.26a5.24,5.24,0,0,0-2.37-2.38c-1.75-.88-3.08-1.37-3.94.53s.87,3.67,1.93,4.14S88.39,343.92,87.54,341.26Z"/><path class="cls-1" d="M90.8,349.34a1.52,1.52,0,0,1-1.37,1.51c-1.37.13-2.41.24-3.59-.64s-2.85-2.18-2.2-3.4a3.63,3.63,0,0,1,4.12-1.68C89.8,345.5,91,348.61,90.8,349.34Z"/><path class="cls-1" d="M87.66,353.87A1.72,1.72,0,0,1,86.51,356s-1.7,1-4.54-.54a4.07,4.07,0,0,1-.7-4.72C82.44,348.34,87.44,351.24,87.66,353.87Z"/><path class="cls-1" d="M72.67,353.44a5.89,5.89,0,0,0,5.57,2.09c1.73-.41,1.29-1.81.88-3.49a2.9,2.9,0,0,0-2.41-1.91s-2.62-.06-4,1.35A1.3,1.3,0,0,0,72.67,353.44Z"/><path class="cls-1" d="M70,347.13a2.51,2.51,0,0,0,.87,3c1.09.69,2.45.09,4-.54a18.28,18.28,0,0,1,2.48-.33c1.8-.1,3.21.49,4.33-1.27.88-1.39-.51-3-.8-4.18a11.3,11.3,0,0,1-.57-3.06c0-1.27.1-2.55-1-3.25a2.47,2.47,0,0,0-3.26.39S71.06,343.25,70,347.13Z"/><path class="cls-1" d="M73.53,306a4.81,4.81,0,0,0-1.32-2.76c-1.24-1.3-2.23-2.12-3.54-.75s-.37,3.42.39,4.15S73.45,308.51,73.53,306Z"/><path class="cls-1" d="M73.87,313.9a1.37,1.37,0,0,1-1.64.87,4.09,4.09,0,0,1-2.88-1.63c-.74-1.11-1.79-2.74-.86-3.59a3.31,3.31,0,0,1,4.05-.2C74.19,310.29,74.25,313.33,73.87,313.9Z"/><path class="cls-1" d="M69.8,316.84a1.57,1.57,0,0,1-1.64,1.51s-1.77.35-3.74-1.85a3.7,3.7,0,0,1,.83-4.26C67,310.5,70.41,314.51,69.8,316.84Z"/><path class="cls-1" d="M57.05,311.92a5.37,5.37,0,0,0,4.15,3.48c1.62.17,1.66-1.16,1.82-2.73a2.67,2.67,0,0,0-1.49-2.38,5.79,5.79,0,0,0-3.88-.06A1.19,1.19,0,0,0,57.05,311.92Z"/><path class="cls-1" d="M56.68,305.68a2.29,2.29,0,0,0-.17,2.84c.73.93,2.08.82,3.57.74a14.92,14.92,0,0,1,2.23.48c1.58.46,2.61,1.39,4.1.21,1.18-.92.49-2.75.59-3.82a10.67,10.67,0,0,1,.43-2.81c.44-1.07.87-2.16.14-3.09a2.24,2.24,0,0,0-2.91-.66S58.77,302.67,56.68,305.68Z"/><path class="cls-1" d="M146.73,40.28a3.37,3.37,0,0,0,2.14-.34c1.12-.58,1.88-1.08,1.21-2.25s-2.24-.93-2.89-.56S145,39.72,146.73,40.28Z"/><path class="cls-1" d="M141.28,38.93a1,1,0,0,1-.27-1.29A3,3,0,0,1,142.7,36c.9-.28,2.22-.66,2.61.14a2.33,2.33,0,0,1-.68,2.78C143.66,39.86,141.59,39.3,141.28,38.93Z"/><path class="cls-1" d="M140.1,35.58a1.11,1.11,0,0,1-.69-1.42s.11-1.27,2-2.17a2.61,2.61,0,0,1,2.72,1.42C145,35,141.56,36.46,140.1,35.58Z"/><path class="cls-1" d="M146,27.92A3.79,3.79,0,0,0,142.8,30c-.44,1.07.46,1.36,1.49,1.78a1.87,1.87,0,0,0,1.91-.53,4.07,4.07,0,0,0,.82-2.62A.85.85,0,0,0,146,27.92Z"/><path class="cls-1" d="M150.3,28.91a1.62,1.62,0,0,0-1.89-.68c-.78.31-1,1.24-1.22,2.27a10.48,10.48,0,0,1-.77,1.42c-.63,1-1.47,1.49-1,2.74.39,1,1.77.88,2.48,1.16a7.26,7.26,0,0,1,1.81.86c.65.51,1.3,1,2.07.71a1.57,1.57,0,0,0,1-1.84S151.92,30.94,150.3,28.91Z"/><path class="cls-1" d="M29.52,154.57a5.21,5.21,0,0,0,1.75-2.84c.46-1.9.63-3.3-1.4-3.69s-3.35,1.69-3.57,2.81S27.14,156,29.52,154.57Z"/><path class="cls-1" d="M22.45,159.57a1.5,1.5,0,0,1-1.77-1c-.43-1.29-.78-2.26-.2-3.6s1.46-3.26,2.78-2.92a3.62,3.62,0,0,1,2.57,3.6C25.94,157.73,23.2,159.58,22.45,159.57Z"/><path class="cls-1" d="M17.35,157.57A1.7,1.7,0,0,1,15,157s-1.37-1.42-.52-4.52a4,4,0,0,1,4.4-1.75C21.51,151.25,19.85,156.76,17.35,157.57Z"/><path class="cls-1" d="M14.33,143a5.87,5.87,0,0,0-.74,5.86c.8,1.59,2.05.84,3.57,0a2.89,2.89,0,0,0,1.31-2.77,6.36,6.36,0,0,0-2.24-3.6A1.3,1.3,0,0,0,14.33,143Z"/><path class="cls-1" d="M19.83,139a2.49,2.49,0,0,0-2.7,1.52c-.42,1.21.47,2.39,1.42,3.7a17.81,17.81,0,0,1,.89,2.33c.51,1.72.26,3.21,2.22,3.89,1.54.54,2.81-1.18,3.86-1.72a11,11,0,0,1,2.82-1.26c1.25-.24,2.5-.49,2.92-1.7a2.45,2.45,0,0,0-1.12-3.06S23.83,139.09,19.83,139Z"/><path class="cls-1" d="M54.75,96.12a5.15,5.15,0,0,0,1.72-2.78c.45-1.86.61-3.23-1.38-3.61s-3.28,1.65-3.49,2.75S52.42,97.52,54.75,96.12Z"/><path class="cls-1" d="M47.83,101a1.47,1.47,0,0,1-1.73-1c-.43-1.26-.77-2.22-.2-3.53s1.42-3.19,2.72-2.85a3.54,3.54,0,0,1,2.52,3.52C51.25,99.21,48.56,101,47.83,101Z"/><path class="cls-1" d="M42.84,99.07a1.68,1.68,0,0,1-2.31-.61S39.19,97.08,40,94a4,4,0,0,1,4.31-1.72C46.91,92.88,45.28,98.26,42.84,99.07Z"/><path class="cls-1" d="M39.88,84.77a5.74,5.74,0,0,0-.73,5.74c.78,1.55,2,.82,3.5,0a2.82,2.82,0,0,0,1.28-2.71,6.21,6.21,0,0,0-2.19-3.52A1.27,1.27,0,0,0,39.88,84.77Z"/><path class="cls-1" d="M45.26,80.83a2.42,2.42,0,0,0-2.64,1.49c-.42,1.19.46,2.34,1.39,3.63a17.38,17.38,0,0,1,.87,2.28c.5,1.68.26,3.15,2.18,3.81,1.51.52,2.75-1.16,3.77-1.69a11,11,0,0,1,2.77-1.23c1.22-.24,2.44-.48,2.85-1.67a2.37,2.37,0,0,0-1.09-3S49.18,81,45.26,80.83Z"/><path class="cls-1" d="M58,130.34a5.21,5.21,0,0,0,1.75-2.84c.46-1.9.63-3.29-1.4-3.68s-3.35,1.68-3.57,2.81S55.62,131.77,58,130.34Z"/><path class="cls-1" d="M50.93,135.34a1.5,1.5,0,0,1-1.77-1c-.43-1.3-.78-2.27-.2-3.61s1.46-3.26,2.78-2.92a3.62,3.62,0,0,1,2.57,3.6C54.42,133.5,51.68,135.35,50.93,135.34Z"/><path class="cls-1" d="M45.83,133.35a1.71,1.71,0,0,1-2.35-.62s-1.36-1.41-.52-4.51a4,4,0,0,1,4.4-1.76C50,127,48.33,132.53,45.83,133.35Z"/><path class="cls-1" d="M42.82,118.75a5.85,5.85,0,0,0-.75,5.86c.8,1.59,2,.84,3.58.06a2.92,2.92,0,0,0,1.3-2.78,6.35,6.35,0,0,0-2.24-3.59A1.29,1.29,0,0,0,42.82,118.75Z"/><path class="cls-1" d="M48.31,114.73a2.49,2.49,0,0,0-2.7,1.52c-.42,1.21.47,2.39,1.42,3.71a15.72,15.72,0,0,1,.89,2.33c.51,1.71.26,3.2,2.22,3.88,1.55.54,2.81-1.18,3.86-1.72a11.33,11.33,0,0,1,2.83-1.26c1.24-.24,2.49-.49,2.91-1.7a2.45,2.45,0,0,0-1.12-3.06S52.31,114.86,48.31,114.73Z"/><path class="cls-1" d="M85.55,75.32a4.2,4.2,0,0,0,2.29-1.38c1-1.18,1.64-2.11.34-3.13s-3,0-3.56.7S83.34,75.47,85.55,75.32Z"/><path class="cls-1" d="M78.71,76.3a1.2,1.2,0,0,1-.9-1.34A3.59,3.59,0,0,1,79,72.32c.9-.75,2.23-1.79,3-1.06a2.88,2.88,0,0,1,.51,3.49C81.86,76.26,79.23,76.58,78.71,76.3Z"/><path class="cls-1" d="M75.81,73a1.36,1.36,0,0,1-1.45-1.29s-.46-1.5,1.27-3.4a3.22,3.22,0,0,1,3.77.36C81.07,70.05,77.88,73.35,75.81,73Z"/><path class="cls-1" d="M79,61.55a4.68,4.68,0,0,0-2.67,3.89c0,1.42,1.15,1.34,2.53,1.34a2.3,2.3,0,0,0,1.93-1.49,5.1,5.1,0,0,0-.27-3.38A1,1,0,0,0,79,61.55Z"/><path class="cls-1" d="M84.35,60.69a2,2,0,0,0-2.47.1c-.74.7-.54,1.87-.34,3.15a13.29,13.29,0,0,1-.22,2c-.26,1.4-1,2.38.17,3.58.9.94,2.43.18,3.36.17a9.07,9.07,0,0,1,2.47.14c1,.28,2,.56,2.7-.15a2,2,0,0,0,.32-2.58S87.15,62.24,84.35,60.69Z"/><path class="cls-1" d="M105.54,44.32A4.9,4.9,0,0,0,108.4,43c1.35-1.26,2.2-2.28.8-3.64s-3.52-.41-4.28.37S102.92,44.22,105.54,44.32Z"/><path class="cls-1" d="M97.37,44.61a1.42,1.42,0,0,1-.89-1.7A4.22,4.22,0,0,1,98.19,40c1.15-.76,2.84-1.82,3.71-.86a3.41,3.41,0,0,1,.16,4.17C101.08,45,98,45,97.37,44.61Z"/><path class="cls-1" d="M94.37,40.39a1.62,1.62,0,0,1-1.54-1.71s-.34-1.82,1.94-3.84a3.8,3.8,0,0,1,4.38.9C100.93,37.55,96.77,41,94.37,40.39Z"/><path class="cls-1" d="M99.56,27.29a5.55,5.55,0,0,0-3.63,4.25c-.19,1.66,1.18,1.72,2.8,1.89a2.71,2.71,0,0,0,2.46-1.51,6,6,0,0,0,.1-4A1.22,1.22,0,0,0,99.56,27.29Z"/><path class="cls-1" d="M106,27a2.37,2.37,0,0,0-2.93-.19c-1,.74-.86,2.13-.79,3.66a17,17,0,0,1-.51,2.3c-.49,1.62-1.46,2.67-.26,4.23.94,1.22,2.83.52,3.94.63a10.7,10.7,0,0,1,2.88.48c1.11.45,2.23.9,3.19.16a2.29,2.29,0,0,0,.7-3S109.07,29.14,106,27Z"/><path class="cls-1" d="M36.81,186.74a4,4,0,0,0,.55-2.48c-.14-1.48-.37-2.53-1.93-2.3s-2,2-1.87,2.91S35.45,188.37,36.81,186.74Z"/><path class="cls-1" d="M33,192.11a1.15,1.15,0,0,1-1.52-.27,3.4,3.4,0,0,1-1-2.55c.08-1.11.23-2.71,1.27-2.79a2.75,2.75,0,0,1,2.75,1.95C35,189.91,33.5,191.93,33,192.11Z"/><path class="cls-1" d="M28.79,191.94a1.3,1.3,0,0,1-1.85.15s-1.33-.68-1.5-3.13a3.08,3.08,0,0,1,2.74-2.36C30.21,186.35,30.39,190.73,28.79,191.94Z"/><path class="cls-1" d="M23,182.18a4.47,4.47,0,0,0,.92,4.41c1,.94,1.69.09,2.59-.85a2.19,2.19,0,0,0,.25-2.32,4.84,4.84,0,0,0-2.51-2A1,1,0,0,0,23,182.18Z"/><path class="cls-1" d="M25.93,177.91a1.9,1.9,0,0,0-1.56,1.77c0,1,.93,1.61,1.95,2.32a13.19,13.19,0,0,1,1.22,1.45c.79,1.11,1,2.25,2.57,2.25,1.24,0,1.73-1.55,2.34-2.2a8.55,8.55,0,0,1,1.73-1.61c.83-.49,1.67-1,1.67-2A1.86,1.86,0,0,0,34.28,178S28.84,177,25.93,177.91Z"/><path class="cls-1" d="M24.34,219.28a5.19,5.19,0,0,0,.44-3.28c-.35-1.9-.76-3.23-2.76-2.76s-2.35,2.87-2.09,4S22.77,221.54,24.34,219.28Z"/><path class="cls-1" d="M20,226.66a1.49,1.49,0,0,1-2-.17c-.92-1-1.63-1.74-1.64-3.19s0-3.54,1.34-3.76a3.6,3.6,0,0,1,3.78,2.22C22.38,223.58,20.65,226.37,20,226.66Z"/><path class="cls-1" d="M14.55,226.92a1.7,1.7,0,0,1-2.38.39s-1.81-.73-2.29-3.87a4,4,0,0,1,3.27-3.37C15.76,219.52,16.48,225.17,14.55,226.92Z"/><path class="cls-1" d="M5.92,214.93a5.82,5.82,0,0,0,1.69,5.61c1.37,1.11,2.2-.07,3.26-1.4a2.87,2.87,0,0,0,.06-3,6.3,6.3,0,0,0-3.48-2.36A1.29,1.29,0,0,0,5.92,214.93Z"/><path class="cls-1" d="M9.27,209.07a2.47,2.47,0,0,0-1.83,2.47c.11,1.27,1.39,2,2.78,2.78A17.37,17.37,0,0,1,12,216.07c1.15,1.34,1.53,2.79,3.58,2.62,1.61-.14,2.06-2.21,2.79-3.12a11.25,11.25,0,0,1,2.05-2.28c1-.72,2.06-1.45,1.95-2.72a2.42,2.42,0,0,0-2.25-2.32S12.94,207.58,9.27,209.07Z"/><path class="cls-1" d="M406,222.81a4.79,4.79,0,0,0-1.43,2.73c-.3,1.78-.36,3.07,1.54,3.3s3-1.77,3.09-2.82S408.1,221.34,406,222.81Z"/><path class="cls-1" d="M412.17,217.75a1.4,1.4,0,0,1,1.7.79,4.12,4.12,0,0,1,.43,3.3c-.45,1.27-1.13,3.1-2.37,2.87a3.32,3.32,0,0,1-2.6-3.14C409.09,219.67,411.49,217.78,412.17,217.75Z"/><path class="cls-1" d="M417,219.24a1.57,1.57,0,0,1,2.2.42s1.35,1.21.78,4.12a3.72,3.72,0,0,1-3.93,1.9C413.59,225.33,414.76,220.16,417,219.24Z"/><path class="cls-1" d="M420.74,232.47A5.4,5.4,0,0,0,421,227c-.84-1.4-1.94-.63-3.29.19a2.65,2.65,0,0,0-1,2.63A5.89,5.89,0,0,0,419,233,1.2,1.2,0,0,0,420.74,232.47Z"/><path class="cls-1" d="M416,236.54a2.31,2.31,0,0,0,2.39-1.58c.3-1.15-.6-2.17-1.56-3.32a16.08,16.08,0,0,1-1-2.08c-.58-1.54-.45-2.94-2.3-3.43-1.46-.39-2.51,1.27-3.43,1.84a10.46,10.46,0,0,1-2.52,1.34c-1.13.31-2.26.62-2.57,1.76a2.25,2.25,0,0,0,1.23,2.74S412.27,236.68,416,236.54Z"/><path class="cls-1" d="M302,345.21a4.34,4.34,0,0,0-2.71.64c-1.38.84-2.31,1.56-1.34,3s3,1,3.75.46S304.23,345.78,302,345.21Z"/><path class="cls-1" d="M309.09,346.45a1.25,1.25,0,0,1,.46,1.62,3.69,3.69,0,0,1-2,2.24c-1.13.45-2.78,1.06-3.35.07a3,3,0,0,1,.61-3.63C306,345.47,308.66,346,309.09,346.45Z"/><path class="cls-1" d="M310.91,350.63a1.42,1.42,0,0,1,1,1.75s0,1.64-2.36,3a3.35,3.35,0,0,1-3.62-1.57C304.74,351.89,309,349.64,310.91,350.63Z"/><path class="cls-1" d="M304.07,361a4.89,4.89,0,0,0,3.9-3c.46-1.4-.71-1.7-2.07-2.14a2.41,2.41,0,0,0-2.4.86,5.25,5.25,0,0,0-.81,3.43A1.08,1.08,0,0,0,304.07,361Z"/><path class="cls-1" d="M298.47,360.11a2.08,2.08,0,0,0,2.48.7c1-.47,1.13-1.68,1.35-3a15,15,0,0,1,.86-1.89c.71-1.31,1.74-2,1-3.6-.59-1.22-2.35-1-3.29-1.26a9.3,9.3,0,0,1-2.4-.93c-.87-.59-1.75-1.19-2.72-.72a2,2,0,0,0-1.15,2.45S296.2,357.67,298.47,360.11Z"/><path class="cls-1" d="M375.64,126.29a4.37,4.37,0,0,0,.91,2.63c1,1.29,1.8,2.14,3.12,1s.68-3,.07-3.78S376,124,375.64,126.29Z"/><path class="cls-1" d="M376.13,119.1a1.26,1.26,0,0,1,1.57-.62,3.7,3.7,0,0,1,2.44,1.76c.56,1.08,1.33,2.66.41,3.34a3,3,0,0,1-3.67-.24C375.49,122.32,375.73,119.58,376.13,119.1Z"/><path class="cls-1" d="M380.11,116.86a1.42,1.42,0,0,1,1.63-1.2s1.63-.13,3.19,2a3.36,3.36,0,0,1-1.18,3.76C382,122.87,379.32,118.9,380.11,116.86Z"/><path class="cls-1" d="M391.11,122.59a4.86,4.86,0,0,0-3.39-3.56c-1.44-.32-1.61.88-1.91,2.28a2.42,2.42,0,0,0,1.1,2.3,5.31,5.31,0,0,0,3.5.45A1.09,1.09,0,0,0,391.11,122.59Z"/><path class="cls-1" d="M390.82,128.26a2.08,2.08,0,0,0,.44-2.55c-.56-.91-1.79-.95-3.14-1a14.73,14.73,0,0,1-2-.65c-1.38-.58-2.21-1.52-3.68-.61-1.16.71-.72,2.43-.92,3.39a9.09,9.09,0,0,1-.68,2.49c-.49.93-1,1.87-.43,2.78A2,2,0,0,0,383,133S388.63,130.77,390.82,128.26Z"/><path class="cls-1" d="M393.69,155.28a5.21,5.21,0,0,0,.5,3.33c.88,1.76,1.65,2.95,3.47,1.93s1.49-3.48.92-4.49S394.59,152.64,393.69,155.28Z"/><path class="cls-1" d="M395.88,146.84a1.51,1.51,0,0,1,2-.4c1.18.72,2.08,1.24,2.51,2.65s1,3.46-.25,4.06a3.66,3.66,0,0,1-4.32-1.1C394.39,150.53,395.29,147.31,395.88,146.84Z"/><path class="cls-1" d="M401.1,145.06a1.73,1.73,0,0,1,2.22-1.06s2,.2,3.33,3.14a4.08,4.08,0,0,1-2.25,4.22C402,152.63,399.71,147.31,401.1,145.06Z"/><path class="cls-1" d="M412.92,154.33a5.89,5.89,0,0,0-3.24-5c-1.65-.7-2.12.68-2.79,2.28a2.92,2.92,0,0,0,.8,3,6.4,6.4,0,0,0,4.06,1.32A1.31,1.31,0,0,0,412.92,154.33Z"/><path class="cls-1" d="M411.31,161a2.53,2.53,0,0,0,1.09-2.93c-.47-1.21-1.92-1.53-3.51-1.93a17.08,17.08,0,0,1-2.2-1.22c-1.5-1-2.29-2.3-4.24-1.54-1.54.59-1.4,2.74-1.85,3.83a11.37,11.37,0,0,1-1.36,2.81c-.8,1-1.6,2-1.13,3.2a2.46,2.46,0,0,0,2.84,1.64S408.14,163.5,411.31,161Z"/><path class="cls-1" d="M380.87,282.19a5.28,5.28,0,0,0-2.31,2.45c-.84,1.77-1.29,3.11.63,3.91s3.65-1,4.1-2S383.51,281.27,380.87,282.19Z"/><path class="cls-1" d="M388.87,278.71a1.51,1.51,0,0,1,1.54,1.33c.16,1.37.31,2.4-.54,3.6s-2.11,2.92-3.34,2.31a3.65,3.65,0,0,1-1.8-4.08C385.05,279.81,388.13,278.54,388.87,278.71Z"/><path class="cls-1" d="M393.48,281.72a1.72,1.72,0,0,1,2.2,1.09s1.06,1.68-.41,4.56a4.07,4.07,0,0,1-4.7.83C388.09,287.1,390.86,282,393.48,281.72Z"/><path class="cls-1" d="M393.47,296.73a5.88,5.88,0,0,0,1.94-5.62c-.47-1.73-1.85-1.25-3.52-.79a2.93,2.93,0,0,0-1.85,2.47,6.41,6.41,0,0,0,1.46,4A1.31,1.31,0,0,0,393.47,296.73Z"/><path class="cls-1" d="M387.23,299.57a2.51,2.51,0,0,0,3-.94c.66-1.11,0-2.45-.64-3.95a17.2,17.2,0,0,1-.4-2.48c-.15-1.79.4-3.22-1.4-4.29-1.41-.84-3,.59-4.15.91a11.09,11.09,0,0,1-3,.66c-1.28,0-2.56,0-3.23,1.08a2.47,2.47,0,0,0,.48,3.25S383.31,298.62,387.23,299.57Z"/><path class="cls-1" d="M335.88,349.1a5,5,0,0,0-2.79,1.47c-1.29,1.32-2.09,2.37-.63,3.67s3.53.24,4.25-.57S338.5,349.08,335.88,349.1Z"/><path class="cls-1" d="M344,348.43a1.41,1.41,0,0,1,1,1.65,4.21,4.21,0,0,1-1.56,3c-1.11.81-2.75,1.95-3.66,1a3.41,3.41,0,0,1-.36-4.16C340.3,348.25,343.42,348.06,344,348.43Z"/><path class="cls-1" d="M347.2,352.5a1.61,1.61,0,0,1,1.62,1.63s.43,1.8-1.74,3.92a3.82,3.82,0,0,1-4.42-.69C340.79,355.64,344.78,352,347.2,352.5Z"/><path class="cls-1" d="M342.65,365.81a5.51,5.51,0,0,0,3.42-4.41c.11-1.67-1.26-1.66-2.88-1.76a2.74,2.74,0,0,0-2.39,1.63,6,6,0,0,0,.09,4A1.23,1.23,0,0,0,342.65,365.81Z"/><path class="cls-1" d="M336.25,366.44a2.36,2.36,0,0,0,2.93.06c.92-.78.76-2.17.62-3.7a15.59,15.59,0,0,1,.4-2.31c.41-1.64,1.33-2.74.06-4.23-1-1.18-2.85-.39-4-.45a10.71,10.71,0,0,1-2.9-.34c-1.13-.4-2.26-.8-3.19,0a2.31,2.31,0,0,0-.56,3S333.07,364.41,336.25,366.44Z"/><path class="cls-1" d="M387.72,191.21a4.47,4.47,0,0,0-1,2.7c-.07,1.68,0,2.88,1.81,2.87s2.54-2,2.54-3S389.49,189.6,387.72,191.21Z"/><path class="cls-1" d="M392.84,185.79a1.3,1.3,0,0,1,1.66.53,3.87,3.87,0,0,1,.79,3c-.26,1.23-.68,3-1.86,2.93a3.11,3.11,0,0,1-2.78-2.61C390.2,187.94,392.21,185.91,392.84,185.79Z"/><path class="cls-1" d="M397.49,186.61a1.47,1.47,0,0,1,2.09.12s1.39,1,1.2,3.73a3.47,3.47,0,0,1-3.42,2.23C395,192.65,395.52,187.73,397.49,186.61Z"/><path class="cls-1" d="M402.51,198.43a5.06,5.06,0,0,0-.37-5.08c-.94-1.2-1.87-.36-3,.56a2.5,2.5,0,0,0-.63,2.56,5.46,5.46,0,0,0,2.5,2.67A1.13,1.13,0,0,0,402.51,198.43Z"/><path class="cls-1" d="M398.55,202.76a2.14,2.14,0,0,0,2-1.74c.15-1.1-.8-1.94-1.83-2.89a14.91,14.91,0,0,1-1.14-1.82c-.72-1.36-.77-2.67-2.54-2.91-1.39-.19-2.17,1.48-3,2.11a9.5,9.5,0,0,1-2.18,1.54c-1,.41-2,.84-2.17,1.93a2.11,2.11,0,0,0,1.46,2.4S395.15,203.32,398.55,202.76Z"/><path class="cls-1" d="M378.14,248.46a4,4,0,0,0-.89,2.43c-.06,1.51,0,2.59,1.62,2.58s2.29-1.79,2.28-2.68S379.73,247,378.14,248.46Z"/><path class="cls-1" d="M382.74,243.6a1.17,1.17,0,0,1,1.5.48,3.46,3.46,0,0,1,.7,2.7c-.23,1.11-.61,2.7-1.67,2.64a2.78,2.78,0,0,1-2.49-2.34C380.38,245.53,382.18,243.7,382.74,243.6Z"/><path class="cls-1" d="M386.92,244.34a1.32,1.32,0,0,1,1.88.11s1.25.86,1.08,3.34a3.13,3.13,0,0,1-3.08,2C384.72,249.76,385.15,245.34,386.92,244.34Z"/><path class="cls-1" d="M391.42,255a4.52,4.52,0,0,0-.32-4.56c-.85-1.08-1.68-.32-2.72.5a2.24,2.24,0,0,0-.57,2.3,4.88,4.88,0,0,0,2.24,2.39A1,1,0,0,0,391.42,255Z"/><path class="cls-1" d="M387.87,258.84a2,2,0,0,0,1.82-1.57c.13-1-.72-1.74-1.65-2.59a13.6,13.6,0,0,1-1-1.64c-.64-1.22-.68-2.39-2.27-2.61-1.25-.17-1.95,1.33-2.66,1.9a9,9,0,0,1-2,1.38c-.9.37-1.82.75-1.95,1.73a1.9,1.9,0,0,0,1.31,2.16S384.82,259.34,387.87,258.84Z"/><path class="cls-1" d="M172.8,366.09a4,4,0,0,0-2.19-1.32c-1.45-.33-2.52-.45-2.8,1.11s1.32,2.54,2.18,2.7S173.91,367.89,172.8,366.09Z"/><path class="cls-1" d="M176.68,371.44a1.16,1.16,0,0,1-.74,1.36,3.43,3.43,0,0,1-2.75.19c-1-.43-2.5-1.09-2.25-2.1a2.76,2.76,0,0,1,2.72-2C175.24,368.79,176.68,370.87,176.68,371.44Z"/><path class="cls-1" d="M175.2,375.35a1.3,1.3,0,0,1-.45,1.8s-1.07,1.06-3.44.44a3.08,3.08,0,0,1-1.38-3.35C170.34,372.23,174.55,373.45,175.2,375.35Z"/><path class="cls-1" d="M164.08,377.78a4.46,4.46,0,0,0,4.48.52c1.21-.63.62-1.57,0-2.73a2.21,2.21,0,0,0-2.13-1,4.82,4.82,0,0,0-2.72,1.74A1,1,0,0,0,164.08,377.78Z"/><path class="cls-1" d="M161,373.62a1.9,1.9,0,0,0,1.19,2.05c.93.31,1.82-.38,2.81-1.12a13.77,13.77,0,0,1,1.77-.7c1.31-.4,2.45-.23,3-1.73.4-1.18-.93-2.13-1.35-2.92a8.77,8.77,0,0,1-1-2.15c-.2-.95-.4-1.9-1.33-2.21a1.88,1.88,0,0,0-2.33.88S161,370.57,161,373.62Z"/><path class="cls-1" d="M183.38,25.74a5.16,5.16,0,0,0,3.3-.37c1.77-.8,3-1.52,2-3.36s-3.37-1.59-4.39-1.07S180.81,24.75,183.38,25.74Z"/><path class="cls-1" d="M175.14,23.27a1.5,1.5,0,0,1-.32-2c.75-1.13,1.3-2,2.7-2.37s3.45-.86,4,.39a3.58,3.58,0,0,1-1.24,4.22C178.72,24.87,175.59,23.86,175.14,23.27Z"/><path class="cls-1" d="M173.58,18.05a1.69,1.69,0,0,1-1-2.22s.27-1.93,3.21-3.17A4,4,0,0,1,179.91,15C181.07,17.44,175.75,19.51,173.58,18.05Z"/><path class="cls-1" d="M183.16,6.75a5.82,5.82,0,0,0-5,3c-.75,1.6.6,2.12,2.15,2.84a2.89,2.89,0,0,0,3-.68,6.33,6.33,0,0,0,1.45-4A1.29,1.29,0,0,0,183.16,6.75Z"/><path class="cls-1" d="M189.68,8.58a2.5,2.5,0,0,0-2.85-1.18c-1.21.41-1.58,1.83-2,3.39a17.69,17.69,0,0,1-1.28,2.12c-1,1.45-2.36,2.17-1.69,4.12.53,1.54,2.65,1.48,3.72,2a11.07,11.07,0,0,1,2.71,1.45c1,.83,1.92,1.65,3.12,1.24a2.43,2.43,0,0,0,1.72-2.75S192,11.8,189.68,8.58Z"/><path class="cls-1" d="M222.05,35.7a4.36,4.36,0,0,0,2.79,0c1.55-.48,2.62-1,2-2.58s-2.63-1.69-3.54-1.36S220,34.6,222.05,35.7Z"/><path class="cls-1" d="M215.45,32.76a1.26,1.26,0,0,1,0-1.69,3.72,3.72,0,0,1,2.5-1.69c1.21-.15,3-.34,3.28.76a3,3,0,0,1-1.49,3.38C218.26,34.48,215.76,33.3,215.45,32.76Z"/><path class="cls-1" d="M214.71,28.25a1.43,1.43,0,0,1-.56-1.95s.44-1.58,3-2.3a3.38,3.38,0,0,1,3.14,2.41C221,28.54,216.36,29.69,214.71,28.25Z"/><path class="cls-1" d="M223.9,19.87a4.87,4.87,0,0,0-4.52,2c-.8,1.25.27,1.83,1.48,2.59a2.43,2.43,0,0,0,2.55-.25A5.33,5.33,0,0,0,225,21,1.09,1.09,0,0,0,223.9,19.87Z"/><path class="cls-1" d="M229.13,22.1a2.07,2.07,0,0,0-2.24-1.29c-1,.21-1.52,1.35-2.06,2.6A14.22,14.22,0,0,1,223.54,25c-1,1.09-2.19,1.55-1.84,3.25.27,1.33,2,1.51,2.87,2a9.33,9.33,0,0,1,2.11,1.49c.7.79,1.41,1.58,2.46,1.37a2,2,0,0,0,1.72-2.1S230.73,25,229.13,22.1Z"/><path class="cls-1" d="M257.15,18.19a4.37,4.37,0,0,0,2.79,0c1.56-.48,2.63-.95,2-2.57s-2.63-1.69-3.53-1.37S255.12,17.1,257.15,18.19Z"/><path class="cls-1" d="M250.56,15.25a1.25,1.25,0,0,1-.05-1.69,3.77,3.77,0,0,1,2.5-1.68c1.21-.15,3-.34,3.28.76A3,3,0,0,1,254.8,16C253.37,17,250.87,15.79,250.56,15.25Z"/><path class="cls-1" d="M249.82,10.74a1.42,1.42,0,0,1-.56-2s.43-1.58,3-2.29a3.36,3.36,0,0,1,3.13,2.41C256.12,11,251.47,12.19,249.82,10.74Z"/><path class="cls-1" d="M259,2.37a4.87,4.87,0,0,0-4.52,2c-.8,1.25.27,1.82,1.48,2.59a2.41,2.41,0,0,0,2.54-.25,5.27,5.27,0,0,0,1.63-3.13A1.08,1.08,0,0,0,259,2.37Z"/><path class="cls-1" d="M264.23,4.6A2.06,2.06,0,0,0,262,3.31c-1.05.21-1.51,1.35-2.05,2.6a14.66,14.66,0,0,1-1.29,1.62c-1,1.1-2.2,1.56-1.85,3.25.27,1.34,2.05,1.52,2.88,2a9.53,9.53,0,0,1,2.1,1.5c.71.79,1.42,1.58,2.47,1.37A2.06,2.06,0,0,0,266,13.57S265.84,7.52,264.23,4.6Z"/><path class="cls-1" d="M177.79,304.37a8.42,8.42,0,0,1,1.64-3.75,5.08,5.08,0,0,1,.8-.81,7.91,7.91,0,0,1,1-.62,10.77,10.77,0,0,1,2-.77,9.67,9.67,0,0,1,4.39-.19,8.78,8.78,0,0,1,2.17.75c.59.28,1.09.52,1.64.72l1.56.56-.74,1.5a13.54,13.54,0,0,1-2.52,3.66,7.89,7.89,0,0,1-4.14,2.22,7.24,7.24,0,0,1-4.49-.68A11,11,0,0,1,177.79,304.37Zm0,0a20,20,0,0,0,3.78,1.18,6.12,6.12,0,0,0,6.07-2.1,14.18,14.18,0,0,0,1.91-3l.82,2.06a15.31,15.31,0,0,1-1.91-.88A7,7,0,0,0,187,301a8.21,8.21,0,0,0-.81-.17c-.29-.05-.57-.1-.82-.12a11.1,11.1,0,0,0-1.72,0,12.09,12.09,0,0,0-1.72.27,4,4,0,0,0-1.49.67A12.4,12.4,0,0,0,177.79,304.37Z"/><path class="cls-2" d="M201.11,260.06A36.85,36.85,0,0,1,195.93,232c7.39,5.78,16,10.65,24,15.62a89,89,0,0,1,21,18.2,38.22,38.22,0,0,1,9.36,25.55,45,45,0,0,1-6.92,22.87c-3,4.9-6.47,9.68-11.24,12.89-4.92,3.31-11.5,7.2-17.29,8.52-7.55,1.72-9.2,2.13-16.93,1.69-2.73-.16-10.79-2-13.25-3.19-5.64-2.76-9-6.31-10.47-9-3-5.3-.48-9-1.38-15a10.54,10.54,0,0,0-.53-2.43,14.78,14.78,0,0,0-1.08-2c-3.29-5.65,0-16.47,2.69-22.43s4.48-7.28,9.34-11.65C188.67,266.76,194.21,262.61,201.11,260.06Z"/><path class="cls-1" d="M187.51,345.28a6.34,6.34,0,0,1-1.92,2.3,10.31,10.31,0,0,1-2.72,1.4,20.81,20.81,0,0,1-6,1,19.49,19.49,0,0,1-6.17-.82,16,16,0,0,1-5.62-3.07,14.39,14.39,0,0,1-2.27-2.4,29.69,29.69,0,0,1-1.65-2.65,2.8,2.8,0,0,0-.59-.82c-.14-.14-.35-.34-.59-.62a6.16,6.16,0,0,1-.61-.89,15.8,15.8,0,0,1-.71-1.49l-.59-1.42a25.14,25.14,0,0,1-1-2.91c-.15-.49-.29-1-.41-1.49-.07-.24-.15-.56-.13-.48a.9.9,0,0,0,.19.3,1.32,1.32,0,0,0,.44.31c.23.07.12,0-.19,0a5.27,5.27,0,0,1-1.17-.23,5.53,5.53,0,0,1-2-1.16,6.46,6.46,0,0,1-2-3.69,8,8,0,0,1,.43-3.86,11.42,11.42,0,0,1,1.72-3.09c1.4-1.78,2.92-3.06,4.15-4.4a22.39,22.39,0,0,0,3.29-4.31,16,16,0,0,0,1.81-5c.36-1.8.43-3.69.64-5.7a25.64,25.64,0,0,1,.47-3,12.44,12.44,0,0,1,.42-1.53c.16-.49.32-.95.5-1.42.36-.94.74-1.87,1.2-2.79a26.77,26.77,0,0,1,1.57-2.58,34.31,34.31,0,0,1,3.76-4.62,53.56,53.56,0,0,0-2.69,5.21c-.39.88-.81,1.81-1.12,2.65s-.57,1.8-.81,2.73c-.12.46-.25.94-.34,1.4s-.16.88-.22,1.34a25.7,25.7,0,0,0-.11,2.8,49.69,49.69,0,0,1-.18,6,18.47,18.47,0,0,1-.6,3.14,17.82,17.82,0,0,1-1.2,3,25.78,25.78,0,0,1-3.58,5.2c-1.37,1.59-2.86,2.88-3.84,4.23a5.52,5.52,0,0,0-1.32,4,2.46,2.46,0,0,0,.72,1.4,1.52,1.52,0,0,0,.53.34,1.18,1.18,0,0,0,.27.06,4.87,4.87,0,0,1,1.25.24,2.68,2.68,0,0,1,1.05.72,2.79,2.79,0,0,1,.56.92,7.39,7.39,0,0,1,.26.94c.11.45.23.9.35,1.35.26.9.54,1.79.86,2.66l.48,1.32c.18.47.34.9.49,1.19a2.73,2.73,0,0,0,.6.8,6.46,6.46,0,0,1,1.06,1.59,15.48,15.48,0,0,0,2.94,4.43,16,16,0,0,0,9.77,4.23,21.38,21.38,0,0,0,5.65-.13A7.76,7.76,0,0,0,187.51,345.28Z"/><ellipse class="cls-3" cx="157.09" cy="327.18" rx="2.79" ry="3.98" transform="translate(-205.83 323.39) rotate(-63.76)"/><path class="cls-1" d="M246.48,269.57a64.61,64.61,0,0,1,8,11.13,70.28,70.28,0,0,1,5.68,12.59A56.91,56.91,0,0,1,263,307a47.7,47.7,0,0,1-1,14.08,43.18,43.18,0,0,1-5.53,13,55.58,55.58,0,0,1-4.18,5.67,52.55,52.55,0,0,1-5,4.94,71,71,0,0,1-23.78,13.59c7.89-4.5,15.4-9.59,21.63-15.86,1.62-1.51,2.94-3.27,4.4-4.9a47.59,47.59,0,0,0,3.65-5.42,40.76,40.76,0,0,0,4.89-12,45.85,45.85,0,0,0,1.15-12.92,61.6,61.6,0,0,0-2-13A95.78,95.78,0,0,0,246.48,269.57Z"/><path class="cls-2" d="M335.12,104.94l-16.3-15.46s-29.57,63-6.63,100.05C312.19,189.53,296,162,335.12,104.94Z"/><path class="cls-1" d="M329.73,362a100.79,100.79,0,0,1-17.52-15.36c-.67-.71-1.29-1.46-1.91-2.22s-1.25-1.49-1.85-2.26c-1.16-1.57-2.38-3.1-3.44-4.74a80.56,80.56,0,0,1-5.9-10.13,81.5,81.5,0,0,1-8.44-34,64.13,64.13,0,0,1,.7-11.86l1,1.42a44.13,44.13,0,0,1-18.05-7.15,30.14,30.14,0,0,1-7-7,26.43,26.43,0,0,1-2.51-4.35,21.82,21.82,0,0,1-.93-2.36,16,16,0,0,1-.66-2.57l1,1.25a13.23,13.23,0,0,1-5.94-3.84,9.71,9.71,0,0,1-2.31-7,14.06,14.06,0,0,1,2.4-6.64,48.65,48.65,0,0,1,4-5.21c2.81-3.26,5.81-6.26,8.84-9.23l4.54-4.4,1.12-1.09a3.51,3.51,0,0,0,.37-.39,2.45,2.45,0,0,0,.24-.38A7.82,7.82,0,0,0,278,220a54.42,54.42,0,0,1,.87-6.43,25.12,25.12,0,0,1,2.36-6.38,30.29,30.29,0,0,1,3.8-5.53,33.76,33.76,0,0,1,4.76-4.65,39.75,39.75,0,0,1,11.59-6.35,48.56,48.56,0,0,1,6.35-1.75,41.3,41.3,0,0,1,6.62-.83l7.13-.28-6,3.85a3.37,3.37,0,0,1-.54.29,2.6,2.6,0,0,1-.47.16,3.5,3.5,0,0,1-1,.14,3.79,3.79,0,0,1-1.86-.5,5.46,5.46,0,0,1-2-2.1,14.37,14.37,0,0,1-1.42-4.09,47.45,47.45,0,0,1-.81-7.76,143.83,143.83,0,0,1,.46-15.15c.07-1.24.26-2.55.39-3.82s.42-2.54.63-3.82.55-2.5.86-3.74.65-2.47,1-3.68a114.41,114.41,0,0,1,5.52-14.16,198.83,198.83,0,0,1,14.95-26.19,271.86,271.86,0,0,1,18.13-24l1.49-1.75,1.3,1.88c3,4.27,5.61,8.62,8.15,13.09s4.86,9,7,13.69A127.17,127.17,0,0,1,377,139.35a70,70,0,0,1,1.26,15.44,92.57,92.57,0,0,1-2,15.31,55.37,55.37,0,0,1-5.17,14.58,33.14,33.14,0,0,1-4.43,6.43,22.83,22.83,0,0,1-2.84,2.72,13.88,13.88,0,0,1-3.45,2.12l.25-1.18a59.74,59.74,0,0,1,6.25,7.64,70.43,70.43,0,0,1,5,8.44,60.57,60.57,0,0,1,6,18.63,52.6,52.6,0,0,1-.84,19.49,62.16,62.16,0,0,1-7.49,18,61.59,61.59,0,0,0,7.07-18.05,53.2,53.2,0,0,0,.48-19.28,59.9,59.9,0,0,0-6.2-18.25,65.93,65.93,0,0,0-11.29-15.55l-.74-.75,1-.44a13.09,13.09,0,0,0,3-2,21.94,21.94,0,0,0,2.58-2.61,32,32,0,0,0,4-6.22,56.81,56.81,0,0,0,4.68-14.17,91.6,91.6,0,0,0,1.67-14.93,67.08,67.08,0,0,0-1.47-14.86,124.17,124.17,0,0,0-9.93-28.37,191.36,191.36,0,0,0-15.14-26.07l2.79.13a267.86,267.86,0,0,0-17.63,23.82,195.36,195.36,0,0,0-14.59,25.7,110,110,0,0,0-5.28,13.68c-.37,1.16-.65,2.34-1,3.51s-.54,2.36-.81,3.54-.43,2.37-.57,3.56-.29,2.35-.36,3.61a139.57,139.57,0,0,0-.49,14.71,42.69,42.69,0,0,0,.7,7.08,10.82,10.82,0,0,0,1,3,2.29,2.29,0,0,0,.49.63s0,0-.07,0h-.08l-.13.08,1.13,3.57a37.32,37.32,0,0,0-5.9.74,43.29,43.29,0,0,0-5.83,1.59A35.75,35.75,0,0,0,292.17,200a31.43,31.43,0,0,0-4.27,4.13,26.91,26.91,0,0,0-3.38,4.83,21.05,21.05,0,0,0-2.06,5.42,52,52,0,0,0-.86,6.06,10.93,10.93,0,0,1-1,3.65,6.62,6.62,0,0,1-.61.95,8.12,8.12,0,0,1-.7.76l-1.15,1.1-4.57,4.34c-3,2.91-6,5.84-8.71,8.94a45.61,45.61,0,0,0-3.72,4.78,10.72,10.72,0,0,0-2,5.06,6.45,6.45,0,0,0,1.47,4.72,10.25,10.25,0,0,0,4.51,3l.88.32.14.93a14.12,14.12,0,0,0,.49,2c.22.7.49,1.39.78,2.07a23.72,23.72,0,0,0,2.17,3.91,27.18,27.18,0,0,0,6.26,6.45,41.71,41.71,0,0,0,16.88,7l1.18.23-.21,1.19a61.81,61.81,0,0,0-.85,11.35,83.71,83.71,0,0,0,7.5,33.47,80.22,80.22,0,0,0,5.54,10.13c1,1.65,2.17,3.19,3.27,4.78.58.77,1.19,1.52,1.78,2.29s1.18,1.52,1.83,2.24A105.24,105.24,0,0,0,329.73,362Z"/><ellipse class="cls-1" cx="293.13" cy="226.99" rx="3.55" ry="5.69" transform="translate(-11.3 15.39) rotate(-2.95)"/><path class="cls-1" d="M267.24,264.66c2.39,1.18,4.62,2.28,6.87,3.27a55.39,55.39,0,0,0,6.74,2.48,35.13,35.13,0,0,0,6.93,1.36,61.35,61.35,0,0,0,7.52.19,15.82,15.82,0,0,1-7.44,3,19,19,0,0,1-8.14-.66,22.66,22.66,0,0,1-7.21-3.63A18.48,18.48,0,0,1,267.24,264.66Z"/><ellipse class="cls-1" cx="262.14" cy="253.06" rx="5.82" ry="6.58" transform="translate(-99.03 301.16) rotate(-51.58)"/><path class="cls-1" d="M25.9,206.24c6.61-2.94,13.16-6,19.53-9.42A155.88,155.88,0,0,0,63.82,185.5a120,120,0,0,0,16.31-14,99.15,99.15,0,0,0,7-8.1c2.25-2.81,4.43-5.68,6.55-8.58,1-1.46,2.09-2.92,3.08-4.4.49-.75,1-1.48,1.41-2.24s.89-1.54,1.3-2.33a54.69,54.69,0,0,0,4.18-9.71c2.14-6.7,2.66-13.9,3.86-21.1a111.28,111.28,0,0,1,5.17-21.39c2.59-7,6.53-13.36,10.51-19.41l2.64-4,1,4.73c.92,4.34,2.18,8.68,3.43,13.06s2.47,8.82,3.42,13.37a59.29,59.29,0,0,1,1.42,14.09,28.84,28.84,0,0,1-4,14.08l-2.94-3.24a26.16,26.16,0,0,1,16.44-2,41.86,41.86,0,0,1,15,6.17,52.37,52.37,0,0,1,6.39,4.91c2,1.78,3.82,3.65,5.61,5.56,3.56,3.83,6.83,7.82,10.18,11.62A89.27,89.27,0,0,0,192.41,163a49.07,49.07,0,0,0,12.7,7.13,73.56,73.56,0,0,0,14.3,4,55.09,55.09,0,0,0,14.62.72l2.05-.21.59,1.92a24.66,24.66,0,0,1,1,9.39,27.71,27.71,0,0,1-2.36,9,41.49,41.49,0,0,1-11,14.29A52.46,52.46,0,0,1,209,218.4a46.63,46.63,0,0,1-8.68,2.39,38.19,38.19,0,0,1-9.06.44,74.75,74.75,0,0,1-17.2-3.79L170,216.08l-2-.69-.25-.09-.19-.05a3.08,3.08,0,0,0-.39-.11c-.26-.07-.55-.12-.85-.17a29.11,29.11,0,0,0-7.87.22,56.74,56.74,0,0,0-8,1.74c-1.31.39-2.61.83-3.86,1.32-.62.25-1.24.51-1.83.79l-.86.44-.94.5c-5.05,2.7-10.09,5.21-14.29,8.6a26.44,26.44,0,0,0-2.87,2.71c-.92,1.06-1.84,2.13-2.72,3.21a67.88,67.88,0,0,0-4.92,6.71c-1.5,2.32-2.84,4.79-4.19,7.28l-2,3.77c-.7,1.28-1.3,2.43-1.87,3.7a125.75,125.75,0,0,0-5.51,15.89c-1.44,5.42-2.48,11-3.73,16.61s-2.49,11.14-4,16.67a86.54,86.54,0,0,1-6.07,16.14,84.1,84.1,0,0,1-9.51,14.31c-3.62,4.44-7.54,8.59-11.54,12.65,3.8-4.25,7.5-8.59,10.89-13.15a82.22,82.22,0,0,0,8.87-14.44c4.78-10.26,6.6-21.56,8.83-32.72,1.09-5.56,2-11.2,3.32-16.83.7-2.84,1.49-5.57,2.34-8.33s1.8-5.49,3-8.2c.56-1.34,1.26-2.73,1.91-4l2-3.8c1.33-2.54,2.67-5.1,4.23-7.59a75.62,75.62,0,0,1,5.08-7.15q1.36-1.69,2.77-3.34a29.28,29.28,0,0,1,3.29-3.21c4.65-3.85,9.86-6.5,14.81-9.24l.94-.51c.35-.19.69-.37,1-.54.69-.33,1.39-.64,2.08-.92,1.4-.57,2.8-1.05,4.22-1.48a60.38,60.38,0,0,1,8.64-2,33.45,33.45,0,0,1,9.15-.29c.42.07.82.13,1.25.24s.93.26,1.22.35l2,.67,4,1.3a70.58,70.58,0,0,0,16.13,3.44,33.19,33.19,0,0,0,8-.45,44.54,44.54,0,0,0,7.77-2.2,47.51,47.51,0,0,0,13.86-8.35A36.89,36.89,0,0,0,230.86,193,21,21,0,0,0,232,178l2.64,1.71a59.75,59.75,0,0,1-16-.72,74.79,74.79,0,0,1-15.29-4.24,54.19,54.19,0,0,1-14-7.92,94,94,0,0,1-11.17-11.14c-3.42-3.9-6.64-7.86-10.06-11.55-1.71-1.83-3.46-3.61-5.29-5.28a47.07,47.07,0,0,0-5.78-4.46,37.61,37.61,0,0,0-13.22-5.58,21.51,21.51,0,0,0-13.58,1.51L123,133.9l4.27-6.77a24.21,24.21,0,0,0,3.43-11.88,54.16,54.16,0,0,0-1.22-13c-1.73-8.74-4.72-17.36-6.56-26.49l3.65.72c-4,5.94-7.88,11.93-10.41,18.49s-4,13.57-5.32,20.63c-.64,3.55-1.18,7.07-1.79,10.69A72.66,72.66,0,0,1,106.42,137a57.89,57.89,0,0,1-4.61,10.09c-.45.8-.93,1.58-1.4,2.37s-1,1.58-1.51,2.33c-1,1.52-2.12,3-3.21,4.44q-3.3,4.35-6.77,8.55a95.19,95.19,0,0,1-7.34,8.12,122,122,0,0,1-16.94,13.76A159,159,0,0,1,45.8,197.55C39.29,200.74,32.62,203.55,25.9,206.24Z"/><circle class="cls-1" cx="230.73" cy="183.19" r="4.6"/><path class="cls-1" d="M157.42,168.59l-12.22-7.12,12.22-6.16-2.18,2.33a4.74,4.74,0,0,1,1.57,3.83c0,1.9-.81,3.49-1.9,4v0Z"/></svg>