<svg id="Capa_1" data-name="Capa 1" xmlns="http://www.w3.org/2000/svg" viewBox="0 0 792 164.41"><defs><style>.cls-1{font-size:87.68px;font-family:eacologica-round_slab, eacologica round slab;}.cls-1,.cls-5,.cls-6{fill:#fff;}.cls-1,.cls-5{stroke:#000;stroke-miterlimit:10;}.cls-2,.cls-3,.cls-4{font-size:61.11px;}.cls-3{letter-spacing:0em;}.cls-4{letter-spacing:-0.01em;}.cls-5{stroke-width:0.5px;}</style></defs><text class="cls-1" transform="translate(38.1 126.84)">H<tspan class="cls-2" x="72.95" y="0">ue</tspan><tspan class="cls-3" x="145.97" y="0">l</tspan><tspan class="cls-2" x="166.13" y="0">l</tspan><tspan class="cls-4" x="186.6" y="0">i</tspan><tspan class="cls-2" x="208.66" y="0">tas de </tspan><tspan x="397.47" y="0">C</tspan><tspan class="cls-2" x="459.29" y="0">olombia</tspan></text><path class="cls-5" d="M14.59,137.43a5,5,0,0,0-2.92.81c-1.49,1-2.48,1.76-1.43,3.2s3.2.87,4,.27S17,137.9,14.59,137.43Z"/><path class="cls-5" d="M22.26,138.33a1.24,1.24,0,0,1,.51,1.67,4.22,4.22,0,0,1-2.15,2.45c-1.22.53-3,1.25-3.63.25s-.59-2.42.64-3.82S21.79,137.89,22.26,138.33Z"/><path class="cls-5" d="M24.25,142.6a1.42,1.42,0,0,1,1.12,1.77s0,1.71-2.53,3.22a3.58,3.58,0,0,1-3.92-1.44C17.6,144.25,22.14,141.67,24.25,142.6Z"/><path class="cls-5" d="M16.94,153.78a5.53,5.53,0,0,0,4.19-3.35c.49-1.49-.78-1.73-2.25-2.12a2.74,2.74,0,0,0-2.58,1,5.6,5.6,0,0,0-.86,3.63A1.13,1.13,0,0,0,16.94,153.78Z"/><path class="cls-5" d="M10.89,153.17a2.22,2.22,0,0,0,2.69.59c1-.53,1.21-1.81,1.43-3.22a16.52,16.52,0,0,1,.91-2c.76-1.4,1.87-2.23,1-3.81-.64-1.25-2.54-.88-3.55-1.14a9.89,9.89,0,0,1-2.6-.84c-.94-.57-1.9-1.14-2.93-.6a2.2,2.2,0,0,0-1.23,2.63S8.42,150.75,10.89,153.17Z"/><path class="cls-5" d="M58.63,41a4.14,4.14,0,0,0-2.29,1.13c-1.09,1-1.79,1.85-.69,2.88s2.79.22,3.4-.42S60.71,41,58.63,41Z"/><path class="cls-5" d="M65.13,40.56a1,1,0,0,1,.68,1.3,3.54,3.54,0,0,1-1.4,2.37c-.93.62-2.29,1.5-3,.77a2.6,2.6,0,0,1-.07-3.26C62.18,40.38,64.67,40.26,65.13,40.56Z"/><path class="cls-5" d="M67.45,43.78a1.19,1.19,0,0,1,1.2,1.29s.25,1.42-1.59,3.06a3,3,0,0,1-3.48-.57C62.19,46.19,65.55,43.34,67.45,43.78Z"/><path class="cls-5" d="M63.14,54.19a4.65,4.65,0,0,0,3-3.43c.17-1.31-.92-1.32-2.2-1.41a2.32,2.32,0,0,0-2,1.26,4.68,4.68,0,0,0-.14,3.14A1,1,0,0,0,63.14,54.19Z"/><path class="cls-5" d="M58,54.63a1.86,1.86,0,0,0,2.32.07c.77-.6.72-1.69.68-2.89A12.6,12.6,0,0,1,61.47,50c.41-1.28,1.2-2.14.27-3.32-.73-.93-2.25-.33-3.13-.38A8.37,8.37,0,0,1,56.33,46c-.87-.33-1.76-.65-2.53,0a1.85,1.85,0,0,0-.6,2.37S55.61,53,58,54.63Z"/><path class="cls-5" d="M118.26,57.94A5.85,5.85,0,0,0,115,59.37c-1.55,1.36-2.56,2.45-1.11,3.93s3.84.46,4.72-.38S121.13,58.07,118.26,57.94Z"/><path class="cls-5" d="M127.25,57.68a1.45,1.45,0,0,1,.87,1.84c-.44,1.34-.75,2.37-2.07,3.18s-3.24,2-4.13.91-1.09-2.69.09-4.51S126.64,57.25,127.25,57.68Z"/><path class="cls-5" d="M130.27,62.26a1.65,1.65,0,0,1,1.58,1.85s.26,2-2.37,4.14a4.16,4.16,0,0,1-4.76-1C122.88,65.29,127.68,61.55,130.27,62.26Z"/><path class="cls-5" d="M123.74,76.38A6.42,6.42,0,0,0,128,71.81c.32-1.8-1.19-1.87-2.94-2.06a3.21,3.21,0,0,0-2.81,1.62s-1.12,2.47-.37,4.32A1.32,1.32,0,0,0,123.74,76.38Z"/><path class="cls-5" d="M116.66,76.7a2.6,2.6,0,0,0,3.2.23c1.1-.79,1.08-2.3,1.11-4a18.3,18.3,0,0,1,.7-2.48c.64-1.74,1.77-2.88.56-4.56-1-1.33-3.08-.58-4.29-.71a11.51,11.51,0,0,1-3.13-.53c-1.19-.5-2.39-1-3.49-.2a2.56,2.56,0,0,0-1,3.23S113.41,74.33,116.66,76.7Z"/><path class="cls-5" d="M62.47,136.49A5.36,5.36,0,0,0,59.56,138c-1.36,1.36-2.23,2.45-.78,3.73s3.6.18,4.37-.65S65.15,136.42,62.47,136.49Z"/><path class="cls-5" d="M70.83,135.67a1.34,1.34,0,0,1,.92,1.65,4.54,4.54,0,0,1-1.72,3.1c-1.17.84-2.89,2-3.79,1.11s-1.19-2.44-.2-4.21S70.23,135.31,70.83,135.67Z"/><path class="cls-5" d="M73.93,139.74a1.54,1.54,0,0,1,1.59,1.62s.37,1.82-1.94,4a3.9,3.9,0,0,1-4.5-.62C67.25,143,71.47,139.24,73.93,139.74Z"/><path class="cls-5" d="M68.75,153.3a6,6,0,0,0,3.67-4.52c.18-1.7-1.23-1.67-2.88-1.74a3,3,0,0,0-2.5,1.69s-.89,2.37-.07,4.05A1.23,1.23,0,0,0,68.75,153.3Z"/><path class="cls-5" d="M62.18,154.05a2.42,2.42,0,0,0,3,0c1-.81.87-2.21.78-3.76a16.85,16.85,0,0,1,.5-2.35c.48-1.67,1.46-2.79.23-4.28-1-1.18-2.91-.35-4-.39a10.66,10.66,0,0,1-3-.29c-1.14-.39-2.28-.77-3.26,0a2.39,2.39,0,0,0-.69,3.07S59,152.05,62.18,154.05Z"/><path class="cls-5" d="M150,23.29a5.77,5.77,0,0,0-3.43-1.36c-2.14-.13-3.69,0-3.73,2.24s2.48,3.32,3.75,3.34S152,25.6,150,23.29Z"/><path class="cls-5" d="M156.82,30a1.67,1.67,0,0,1-.73,2.12c-1.32.72-2.31,1.29-3.88.92s-3.82-1-3.7-2.47a4,4,0,0,1,3.41-3.48C154.14,26.57,156.69,29.19,156.82,30Z"/><path class="cls-5" d="M155.64,35.93a1.89,1.89,0,0,1-.22,2.68s-1.27,1.75-4.8,1.43a4.44,4.44,0,0,1-2.76-4.44C148,32.63,154.27,33.38,155.64,35.93Z"/><path class="cls-5" d="M140.36,42a6.44,6.44,0,0,0,6.51-.32c1.57-1.18.52-2.39-.63-3.9s-3.26-.88-3.26-.88-2.66,1.09-3.48,3.13A1.43,1.43,0,0,0,140.36,42Z"/><path class="cls-5" d="M134.93,36.84a2.74,2.74,0,0,0,2.17,2.64c1.4.22,2.51-1,3.75-2.27a19.57,19.57,0,0,1,2.36-1.41c1.77-.88,3.44-.91,3.8-3.17.28-1.78-1.83-2.82-2.62-3.85A12.54,12.54,0,0,1,142.48,26c-.5-1.31-1-2.62-2.41-2.84a2.69,2.69,0,0,0-3.11,1.8S134.3,32.47,134.93,36.84Z"/><path class="cls-5" d="M220.44,42.19a4.39,4.39,0,0,0-2.29-1.63c-1.57-.49-2.73-.71-3.17,1s1.22,2.9,2.16,3.15S221.51,44.27,220.44,42.19Z"/><path class="cls-5" d="M224.24,48.41a1.26,1.26,0,0,1-.92,1.43,3.81,3.81,0,0,1-3,0c-1.09-.56-2.65-1.41-2.29-2.5a3.05,3.05,0,0,1,3.17-2C222.89,45.37,224.29,47.78,224.24,48.41Z"/><path class="cls-5" d="M222.28,52.58a1.43,1.43,0,0,1-.65,1.94s-1.26,1.07-3.82.18a3.39,3.39,0,0,1-1.23-3.79C217.21,48.73,221.73,50.44,222.28,52.58Z"/><path class="cls-5" d="M209.85,54.3a4.92,4.92,0,0,0,4.88,1c1.38-.58.82-1.67.25-3A2.46,2.46,0,0,0,212.72,51a5.33,5.33,0,0,0-3.14,1.68A1.1,1.1,0,0,0,209.85,54.3Z"/><path class="cls-5" d="M206.78,49.46a2.1,2.1,0,0,0,1.13,2.35c1,.42,2-.26,3.19-1a14.28,14.28,0,0,1,2-.61c1.46-.33,2.71,0,3.39-1.65.53-1.27-.84-2.43-1.24-3.34a9.35,9.35,0,0,1-.89-2.44c-.13-1.06-.27-2.12-1.27-2.54a2.05,2.05,0,0,0-2.63.76S207.12,46.11,206.78,49.46Z"/><path class="cls-5" d="M176.32,59.59a3.34,3.34,0,0,0-1.75-1.24c-1.19-.37-2.07-.54-2.41.74s.93,2.21,1.64,2.4S177.13,61.17,176.32,59.59Z"/><path class="cls-5" d="M179.21,64.32a1,1,0,0,1-.71,1.09,2.82,2.82,0,0,1-2.31,0c-.83-.43-2-1.07-1.74-1.91A2.3,2.3,0,0,1,176.86,62C178.18,62,179.25,63.85,179.21,64.32Z"/><path class="cls-5" d="M177.72,67.5a1.08,1.08,0,0,1-.5,1.47,3,3,0,0,1-2.9.14,2.57,2.57,0,0,1-.94-2.88C173.86,64.57,177.3,65.87,177.72,67.5Z"/><path class="cls-5" d="M168.26,68.8a3.73,3.73,0,0,0,3.71.73c1.05-.44.63-1.27.19-2.28a1.84,1.84,0,0,0-1.71-1,4.08,4.08,0,0,0-2.4,1.27A.83.83,0,0,0,168.26,68.8Z"/><path class="cls-5" d="M165.92,65.12a1.59,1.59,0,0,0,.86,1.79c.76.32,1.55-.2,2.43-.75a11.59,11.59,0,0,1,1.53-.47c1.11-.25,2.06,0,2.58-1.25.4-1-.64-1.85-.94-2.54A7.16,7.16,0,0,1,171.7,60c-.1-.81-.21-1.62-1-1.94a1.56,1.56,0,0,0-2,.59S166.18,62.57,165.92,65.12Z"/><path class="cls-5" d="M298.73,60.59a5.18,5.18,0,0,0-3.24-.72c-1.93.18-3.3.48-3,2.52s2.67,2.6,3.8,2.44S300.85,62.36,298.73,60.59Z"/><path class="cls-5" d="M305.73,65.6a1.51,1.51,0,0,1-.35,2c-1.07.83-1.87,1.47-3.32,1.36s-3.54-.31-3.65-1.67A3.58,3.58,0,0,1,301,63.7C302.86,62.92,305.5,64.9,305.73,65.6Z"/><path class="cls-5" d="M305.52,71.05a1.69,1.69,0,0,1,.18,2.41s-.88,1.74-4.07,2a4,4,0,0,1-3.08-3.57C298.22,69.2,303.93,69,305.52,71.05Z"/><path class="cls-5" d="M292.78,78.63a5.83,5.83,0,0,0,5.75-1.2c1.23-1.27.12-2.2-1.11-3.38a2.88,2.88,0,0,0-3-.32A6.24,6.24,0,0,0,291.74,77,1.28,1.28,0,0,0,292.78,78.63Z"/><path class="cls-5" d="M287.21,74.78a2.48,2.48,0,0,0,2.31,2c1.28,0,2.09-1.22,3-2.54a17.31,17.31,0,0,1,1.9-1.6c1.45-1,2.93-1.29,2.93-3.35,0-1.62-2-2.26-2.87-3.06A11.29,11.29,0,0,1,292.39,64c-.63-1.09-1.27-2.19-2.54-2.19a2.44,2.44,0,0,0-2.52,2.05S286,71,287.21,74.78Z"/><path class="cls-5" d="M763,134.64a5.17,5.17,0,0,0-3.13-.9c-1.89.07-3.24.28-3.08,2.29s2.46,2.69,3.57,2.6S765,136.5,763,134.64Z"/><path class="cls-5" d="M769.55,140a1.46,1.46,0,0,1-.46,1.92c-1.1.74-1.92,1.32-3.32,1.13s-3.44-.51-3.46-1.84a3.51,3.51,0,0,1,2.69-3.35C766.91,137.16,769.37,139.25,769.55,140Z"/><path class="cls-5" d="M769,145.25a1.67,1.67,0,0,1,0,2.37s-1,1.64-4.1,1.67a3.93,3.93,0,0,1-2.79-3.67C762,143,767.6,143.13,769,145.25Z"/><path class="cls-5" d="M756.14,151.9a5.67,5.67,0,0,0,5.68-.84c1.28-1.16.25-2.13-.88-3.36a2.83,2.83,0,0,0-2.94-.49,6.14,6.14,0,0,0-2.79,3A1.27,1.27,0,0,0,756.14,151.9Z"/><path class="cls-5" d="M750.93,147.81a2.41,2.41,0,0,0,2.13,2.13c1.25.08,2.12-1.07,3.1-2.31a17.85,17.85,0,0,1,2-1.44c1.47-.92,2.94-1.08,3.06-3.1.1-1.58-1.85-2.32-2.63-3.15a11,11,0,0,1-1.91-2.32c-.55-1.11-1.12-2.21-2.36-2.29a2.39,2.39,0,0,0-2.58,1.85S750,144,750.93,147.81Z"/><path class="cls-5" d="M252.9,123.18a4.93,4.93,0,0,0-2.13-2.28c-1.6-.88-2.81-1.37-3.66.36s.69,3.43,1.65,3.91S253.6,125.67,252.9,123.18Z"/><path class="cls-5" d="M255.66,130.77a1.4,1.4,0,0,1-1.32,1.35,4.17,4.17,0,0,1-3.3-.7c-1.06-.85-2.57-2.11-1.94-3.22a3.38,3.38,0,0,1,3.88-1.43C254.86,127.18,255.86,130.1,255.66,130.77Z"/><path class="cls-5" d="M252.61,134.87a1.59,1.59,0,0,1-1.13,2s-1.61.88-4.19-.64a3.77,3.77,0,0,1-.5-4.4C247.94,129.58,252.49,132.43,252.61,134.87Z"/><path class="cls-5" d="M238.73,134a5.45,5.45,0,0,0,5.09,2.12c1.63-.33,1.26-1.64.93-3.21s-2.18-1.85-2.18-1.85a5.9,5.9,0,0,0-3.79,1.12A1.22,1.22,0,0,0,238.73,134Z"/><path class="cls-5" d="M236.46,128.07a2.3,2.3,0,0,0,.7,2.8c1,.68,2.27.17,3.69-.37a15.71,15.71,0,0,1,2.32-.22c1.66,0,3,.55,4-1.05.86-1.26-.37-2.82-.6-3.89a10.59,10.59,0,0,1-.44-2.86c.09-1.18.17-2.37-.81-3a2.29,2.29,0,0,0-3,.25S237.56,124.5,236.46,128.07Z"/><path class="cls-5" d="M310.74,136.82a5.48,5.48,0,0,0-3.15,1.48c-1.49,1.4-2.43,2.52-.88,4s3.89.45,4.72-.41S313.64,136.93,310.74,136.82Z"/><path class="cls-5" d="M319.77,136.5a1.56,1.56,0,0,1,1,1.87c-.36,1.37-.61,2.42-1.88,3.26s-3.14,2-4.1,1a3.78,3.78,0,0,1-.19-4.61C315.67,136.11,319.12,136.06,319.77,136.5Z"/><path class="cls-5" d="M323.08,141.15a1.78,1.78,0,0,1,1.7,1.88s.39,2-2.12,4.24a4.21,4.21,0,0,1-4.85-1C315.84,144.29,320.43,140.44,323.08,141.15Z"/><path class="cls-5" d="M317.38,155.62a6.13,6.13,0,0,0,4-4.69c.2-1.85-1.31-1.91-3.1-2.09a3,3,0,0,0-2.72,1.67s-1,2.53-.1,4.42A1.36,1.36,0,0,0,317.38,155.62Z"/><path class="cls-5" d="M310.28,156a2.59,2.59,0,0,0,3.23.21c1.06-.81.95-2.35.87-4a18.21,18.21,0,0,1,.56-2.54c.53-1.78,1.6-3,.28-4.66-1-1.35-3.13-.57-4.35-.69a11.93,11.93,0,0,1-3.19-.52c-1.22-.5-2.45-1-3.51-.18a2.55,2.55,0,0,0-.78,3.31S306.87,153.59,310.28,156Z"/><path class="cls-5" d="M395.55,138.59a4,4,0,0,0-2.48-.67c-1.5.08-2.57.27-2.4,1.85s2,2.1,2.86,2S397.13,140,395.55,138.59Z"/><path class="cls-5" d="M400.8,142.69a1.15,1.15,0,0,1-.33,1.52,3.44,3.44,0,0,1-2.61.95c-1.12-.13-2.73-.35-2.77-1.41a2.79,2.79,0,0,1,2.08-2.69C398.67,140.52,400.65,142.13,400.8,142.69Z"/><path class="cls-5" d="M400.46,146.89a1.31,1.31,0,0,1,.07,1.87s-.74,1.32-3.21,1.38a3.11,3.11,0,0,1-2.27-2.85C394.88,145.22,399.31,145.23,400.46,146.89Z"/><path class="cls-5" d="M390.37,152.34a4.51,4.51,0,0,0,4.49-.74c1-.95.16-1.7-.75-2.65a2.25,2.25,0,0,0-2.34-.35,4.87,4.87,0,0,0-2.15,2.45A1,1,0,0,0,390.37,152.34Z"/><path class="cls-5" d="M386.19,149.19a1.9,1.9,0,0,0,1.72,1.65c1,0,1.66-.88,2.42-1.87a12.77,12.77,0,0,1,1.52-1.17c1.15-.75,2.3-.91,2.37-2.5,0-1.26-1.49-1.81-2.12-2.46a8.66,8.66,0,0,1-1.56-1.81c-.45-.86-.91-1.73-1.9-1.77a1.89,1.89,0,0,0-2,1.5S385.4,146.21,386.19,149.19Z"/><path class="cls-5" d="M267.06,36.43a3.09,3.09,0,0,0-1.59-1.19c-1.09-.37-1.9-.54-2.24.64s.81,2.06,1.47,2.25S267.78,37.91,267.06,36.43Z"/><path class="cls-5" d="M269.63,40.86a.89.89,0,0,1-.67,1,2.66,2.66,0,0,1-2.14-.07c-.76-.41-1.85-1-1.57-1.8a2.14,2.14,0,0,1,2.26-1.32C268.73,38.7,269.68,40.42,269.63,40.86Z"/><path class="cls-5" d="M268.18,43.76a1,1,0,0,1-.49,1.36,2.78,2.78,0,0,1-2.69.06,2.39,2.39,0,0,1-.8-2.69C264.68,41,267.83,42.25,268.18,43.76Z"/><path class="cls-5" d="M259.41,44.77a3.47,3.47,0,0,0,3.42.75c1-.39.6-1.17.22-2.11a1.7,1.7,0,0,0-1.56-.91,3.72,3.72,0,0,0-2.24,1.12A.77.77,0,0,0,259.41,44.77Z"/><path class="cls-5" d="M257.33,41.31a1.5,1.5,0,0,0,.76,1.68c.69.31,1.43-.15,2.26-.65a11.15,11.15,0,0,1,1.42-.4c1-.2,1.91,0,2.41-1.1.4-.88-.55-1.72-.81-2.37a6.6,6.6,0,0,1-.59-1.73c-.08-.75-.16-1.5-.85-1.81a1.44,1.44,0,0,0-1.86.5S257.63,39,257.33,41.31Z"/><path class="cls-5" d="M353.42,60a4.41,4.41,0,0,0-2.68-.8c-1.63,0-2.79.21-2.66,1.93s2.08,2.34,3,2.28S355.09,61.61,353.42,60Z"/><path class="cls-5" d="M359,64.62a1.26,1.26,0,0,1-.41,1.65,3.73,3.73,0,0,1-2.87.94c-1.21-.18-2.95-.47-2.95-1.62a3,3,0,0,1,2.35-2.85C356.74,62.21,358.83,64,359,64.62Z"/><path class="cls-5" d="M358.47,69.17a1.43,1.43,0,0,1,0,2s-.84,1.41-3.53,1.4a3.38,3.38,0,0,1-2.37-3.17C352.47,67.18,357.27,67.33,358.47,69.17Z"/><path class="cls-5" d="M347.35,74.76a4.88,4.88,0,0,0,4.89-.66c1.1-1,.23-1.84-.73-2.9a2.42,2.42,0,0,0-2.52-.45,5.3,5.3,0,0,0-2.42,2.58A1.08,1.08,0,0,0,347.35,74.76Z"/><path class="cls-5" d="M342.91,71.2a2.08,2.08,0,0,0,1.81,1.85c1.07.08,1.83-.9,2.69-2a14.59,14.59,0,0,1,1.68-1.22c1.28-.78,2.54-.91,2.66-2.64.1-1.36-1.56-2-2.22-2.73a9.41,9.41,0,0,1-1.63-2c-.46-1-.93-1.91-2-2a2,2,0,0,0-2.23,1.56S342.16,67.94,342.91,71.2Z"/><path class="cls-5" d="M499.91,34a6.39,6.39,0,0,0-4,1c-2,1.28-3.33,2.37-1.86,4.43s4.37,1.34,5.52.53S503.22,34.69,499.91,34Z"/><path class="cls-5" d="M510.37,35.5a1.83,1.83,0,0,1,.73,2.36c-.7,1.51-1.22,2.66-2.86,3.36s-4,1.64-4.92.22-.87-3.43.77-5.35S509.72,34.85,510.37,35.5Z"/><path class="cls-5" d="M513.19,41.56a2.08,2.08,0,0,1,1.56,2.53s0,2.4-3.36,4.42A4.9,4.9,0,0,1,506,46.35C504.19,43.63,510.29,40.18,513.19,41.56Z"/><path class="cls-5" d="M503.54,57c4.62-1,5.6-4.54,5.6-4.54.63-2.08-1.1-2.47-3.11-3.07s-3.49,1.35-3.49,1.35-1.66,2.7-1.06,5.06A1.59,1.59,0,0,0,503.54,57Z"/><path class="cls-5" d="M495.29,55.91c1,1,2.28,1.65,3.67.93s1.6-2.5,1.87-4.47A20.93,20.93,0,0,1,502,49.56c1-1.94,2.48-3.05,1.32-5.31-.91-1.77-3.48-1.32-4.86-1.72a13.89,13.89,0,0,1-3.55-1.28c-1.3-.84-2.62-1.67-4-1a3,3,0,0,0-1.6,3.65S491.88,52.41,495.29,55.91Z"/><path class="cls-5" d="M630.75,37.45a4,4,0,0,0-2.24-1.25c-1.47-.28-2.54-.36-2.77,1.21s1.4,2.51,2.28,2.64S631.93,39.22,630.75,37.45Z"/><path class="cls-5" d="M634.83,42.69a1.16,1.16,0,0,1-.69,1.39,3.47,3.47,0,0,1-2.76.29c-1-.4-2.55-1-2.33-2a2.77,2.77,0,0,1,2.67-2.09C633.3,40.08,634.82,42.12,634.83,42.69Z"/><path class="cls-5" d="M633.48,46.67a1.31,1.31,0,0,1-.39,1.83s-1,1.1-3.44.55a3.09,3.09,0,0,1-1.5-3.31C628.49,43.71,632.77,44.79,633.48,46.67Z"/><path class="cls-5" d="M622.39,49.5a4.48,4.48,0,0,0,4.52.36c1.19-.67.57-1.6-.08-2.74a2.22,2.22,0,0,0-2.17-.9A4.81,4.81,0,0,0,622,48.06,1,1,0,0,0,622.39,49.5Z"/><path class="cls-5" d="M619.12,45.42a1.9,1.9,0,0,0,1.26,2c.94.28,1.81-.44,2.79-1.22a12.64,12.64,0,0,1,1.76-.76c1.29-.45,2.45-.32,2.9-1.84.36-1.2-1-2.12-1.46-2.9a8.64,8.64,0,0,1-1.06-2.12c-.23-1-.46-1.9-1.41-2.18a1.87,1.87,0,0,0-2.3,1S619.08,42.35,619.12,45.42Z"/><path class="cls-5" d="M698.3,36.46a4,4,0,0,0-2.24-1.25c-1.47-.28-2.55-.36-2.78,1.21s1.41,2.51,2.28,2.64S699.48,38.23,698.3,36.46Z"/><path class="cls-5" d="M702.38,41.7a1.17,1.17,0,0,1-.69,1.4,3.43,3.43,0,0,1-2.76.28c-1-.4-2.55-1-2.34-2a2.78,2.78,0,0,1,2.67-2.09C700.84,39.09,702.36,41.13,702.38,41.7Z"/><path class="cls-5" d="M701,45.68a1.32,1.32,0,0,1-.39,1.83s-1,1.1-3.45.56a3.1,3.1,0,0,1-1.5-3.32C696,42.72,700.31,43.8,701,45.68Z"/><path class="cls-5" d="M689.94,48.51a4.48,4.48,0,0,0,4.52.36c1.19-.66.57-1.6-.08-2.74a2.23,2.23,0,0,0-2.17-.9,4.85,4.85,0,0,0-2.69,1.84A1,1,0,0,0,689.94,48.51Z"/><path class="cls-5" d="M686.66,44.43a1.91,1.91,0,0,0,1.26,2c1,.28,1.82-.44,2.8-1.22a12.83,12.83,0,0,1,1.75-.76c1.3-.45,2.45-.31,2.91-1.84.35-1.2-1-2.12-1.46-2.9a8.64,8.64,0,0,1-1.06-2.12c-.23-1-.46-1.9-1.41-2.18a1.89,1.89,0,0,0-2.31,1S686.63,41.36,686.66,44.43Z"/><path class="cls-5" d="M599.85,57.55a4,4,0,0,0-2.24-1.25c-1.47-.28-2.55-.36-2.78,1.21s1.41,2.51,2.28,2.64S601,59.32,599.85,57.55Z"/><path class="cls-5" d="M603.93,62.8a1.16,1.16,0,0,1-.69,1.39,3.43,3.43,0,0,1-2.76.28c-1.05-.4-2.56-1-2.34-2a2.79,2.79,0,0,1,2.67-2.09C602.39,60.18,603.91,62.22,603.93,62.8Z"/><path class="cls-5" d="M602.58,66.78a1.31,1.31,0,0,1-.39,1.82s-1,1.1-3.45.56a3.1,3.1,0,0,1-1.5-3.32C597.59,63.81,601.86,64.89,602.58,66.78Z"/><path class="cls-5" d="M591.49,69.6A4.5,4.5,0,0,0,596,70c1.19-.67.57-1.6-.08-2.75a2.23,2.23,0,0,0-2.17-.9,4.91,4.91,0,0,0-2.69,1.84A1,1,0,0,0,591.49,69.6Z"/><path class="cls-5" d="M588.21,65.52a1.91,1.91,0,0,0,1.26,2c.95.28,1.82-.44,2.8-1.22a12.83,12.83,0,0,1,1.75-.76c1.3-.45,2.45-.31,2.91-1.84.35-1.2-1-2.11-1.46-2.89a8.58,8.58,0,0,1-1.06-2.13c-.23-.94-.47-1.9-1.41-2.18a1.89,1.89,0,0,0-2.31,1S588.18,62.46,588.21,65.52Z"/><path class="cls-5" d="M466.46,136.63a6.16,6.16,0,0,0-3.28,2.2c-1.42,1.82-2.29,3.24-.29,4.66s4.43-.18,5.22-1.28S469.72,136.25,466.46,136.63Z"/><path class="cls-5" d="M476.52,134.7a1.78,1.78,0,0,1,1.43,1.93c-.17,1.6-.27,2.83-1.55,4s-3.17,2.79-4.43,1.77-1.89-2.85-1-5.13S475.72,134.32,476.52,134.7Z"/><path class="cls-5" d="M481,139.35a2,2,0,0,1,2.23,1.81s.78,2.2-1.65,5.12A4.76,4.76,0,0,1,476,146C473.46,144.12,478,139,481,139.35Z"/><path class="cls-5" d="M477.14,156.55a6.94,6.94,0,0,0,3.68-6c-.09-2.1-1.8-1.91-3.83-1.81s-2.76,2.35-2.76,2.35-.66,3,.64,5A1.54,1.54,0,0,0,477.14,156.55Z"/><path class="cls-5" d="M469.25,158.19a3,3,0,0,0,3.66-.31c1-1.1.66-2.81.28-4.69a19.64,19.64,0,0,1,.18-2.95c.3-2.09,1.29-3.58-.49-5.28-1.4-1.33-3.61-.1-5,0a13.22,13.22,0,0,1-3.67,0c-1.45-.35-2.92-.69-4,.41a2.89,2.89,0,0,0-.3,3.84S465,156.09,469.25,158.19Z"/><path class="cls-5" d="M573.69,9.47a4.87,4.87,0,0,0-3.06.48c-1.61.82-2.7,1.55-1.75,3.22s3.21,1.34,4.14.82S576.14,10.29,573.69,9.47Z"/><path class="cls-5" d="M581.48,11.44a1.4,1.4,0,0,1,.38,1.84c-.65,1.09-1.13,1.92-2.42,2.32s-3.18.94-3.74-.2a3.36,3.36,0,0,1,1-4C578.08,10.09,581,10.9,581.48,11.44Z"/><path class="cls-5" d="M583.15,16.24a1.59,1.59,0,0,1,1,2s-.17,1.81-2.87,3.09a3.75,3.75,0,0,1-3.89-2.05C576.19,17.12,581.07,15,583.15,16.24Z"/><path class="cls-5" d="M574.69,27.17a5.43,5.43,0,0,0,4.58-3c.63-1.52-.65-1.95-2.12-2.55a2.68,2.68,0,0,0-2.74.75,5.91,5.91,0,0,0-1.19,3.75A1.21,1.21,0,0,0,574.69,27.17Z"/><path class="cls-5" d="M568.53,25.73a2.32,2.32,0,0,0,2.71,1c1.11-.43,1.4-1.77,1.75-3.24a16.06,16.06,0,0,1,1.11-2c.9-1.39,2.1-2.12,1.4-3.91-.56-1.41-2.54-1.27-3.55-1.68a10.75,10.75,0,0,1-2.59-1.23c-.92-.73-1.85-1.47-3-1a2.26,2.26,0,0,0-1.48,2.63S566.22,22.83,568.53,25.73Z"/><path class="cls-5" d="M672.51,61.63a4.83,4.83,0,0,0-2.17-2.2c-1.61-.83-2.83-1.29-3.63.45s.78,3.39,1.74,3.84S673.28,64.09,672.51,61.63Z"/><path class="cls-5" d="M675.46,69.1a1.39,1.39,0,0,1-1.27,1.38,4.14,4.14,0,0,1-3.3-.61c-1.08-.81-2.62-2-2-3.15a3.34,3.34,0,0,1,3.81-1.52C674.57,65.55,675.64,68.43,675.46,69.1Z"/><path class="cls-5" d="M672.54,73.26a1.58,1.58,0,0,1-1.07,2s-1.57.92-4.18-.53a3.74,3.74,0,0,1-.62-4.35C667.76,68.12,672.36,70.83,672.54,73.26Z"/><path class="cls-5" d="M658.72,72.77a5.43,5.43,0,0,0,5.12,2c1.61-.37,1.21-1.66.84-3.21a2.67,2.67,0,0,0-2.21-1.78A5.89,5.89,0,0,0,658.73,71,1.2,1.2,0,0,0,658.72,72.77Z"/><path class="cls-5" d="M656.31,66.93a2.3,2.3,0,0,0,.77,2.77c1,.65,2.26.1,3.66-.47A15,15,0,0,1,663,69c1.66-.08,3,.47,4-1.15.82-1.28-.45-2.8-.71-3.86a10.44,10.44,0,0,1-.51-2.82c.05-1.18.11-2.36-.89-3a2.27,2.27,0,0,0-3,.33S657.31,63.36,656.31,66.93Z"/><path class="cls-5" d="M543.52,51.72a4.85,4.85,0,0,0-2.89,1.08c-1.41,1.13-2.33,2.05-1.06,3.48s3.39.68,4.19,0S546.06,52,543.52,51.72Z"/><path class="cls-5" d="M551.5,52.08a1.38,1.38,0,0,1,.73,1.72,4.12,4.12,0,0,1-1.89,2.75c-1.18.65-2.91,1.55-3.68.55a3.34,3.34,0,0,1,.16-4.08C547.91,51.45,551,51.65,551.5,52.08Z"/><path class="cls-5" d="M554.09,56.43a1.58,1.58,0,0,1,1.37,1.78s.19,1.8-2.18,3.59a3.75,3.75,0,0,1-4.21-1.22C547.48,58.68,551.81,55.61,554.09,56.43Z"/><path class="cls-5" d="M548,68.78a5.43,5.43,0,0,0,3.87-3.85c.31-1.61-1-1.77-2.58-2.07a2.68,2.68,0,0,0-2.52,1.29,5.86,5.86,0,0,0-.41,3.89A1.2,1.2,0,0,0,548,68.78Z"/><path class="cls-5" d="M541.74,68.6a2.3,2.3,0,0,0,2.83.42c1-.65,1-2,1.06-3.51a15.1,15.1,0,0,1,.67-2.2c.6-1.54,1.63-2.49.58-4.1-.82-1.26-2.72-.72-3.78-.92a10.49,10.49,0,0,1-2.78-.69c-1-.53-2.09-1.05-3.09-.41a2.27,2.27,0,0,0-.92,2.87S538.9,66.24,541.74,68.6Z"/><path class="cls-5" d="M714.73,144A4.58,4.58,0,0,0,712,142.9c-1.72-.13-3-.07-3,1.76s2,2.69,3,2.72S716.33,145.89,714.73,144Z"/><path class="cls-5" d="M720.13,149.48a1.34,1.34,0,0,1-.6,1.69,4,4,0,0,1-3.13.7c-1.26-.31-3.06-.8-2.95-2a3.2,3.2,0,0,1,2.77-2.77C718,146.69,720,148.82,720.13,149.48Z"/><path class="cls-5" d="M719.13,154.23a1.52,1.52,0,0,1-.2,2.15s-1,1.4-3.87,1.11a3.59,3.59,0,0,1-2.18-3.6C713,151.51,718.05,152.16,719.13,154.23Z"/><path class="cls-5" d="M706.8,159a5.18,5.18,0,0,0,5.23-.2c1.27-.93.44-1.92-.47-3.14a2.56,2.56,0,0,0-2.61-.73,5.64,5.64,0,0,0-2.83,2.47A1.16,1.16,0,0,0,706.8,159Z"/><path class="cls-5" d="M702.48,154.76a2.22,2.22,0,0,0,1.72,2.15c1.13.19,2-.76,3-1.79a15,15,0,0,1,1.91-1.11c1.42-.69,2.77-.7,3.08-2.51.24-1.43-1.45-2.29-2.07-3.12a10,10,0,0,1-1.51-2.29c-.39-1.06-.79-2.11-1.91-2.31a2.18,2.18,0,0,0-2.52,1.42S702,151.25,702.48,154.76Z"/><path class="cls-5" d="M725.7,67.75a4.81,4.81,0,0,0-1.65-2.57c-1.38-1.12-2.46-1.81-3.59-.29s.06,3.42.91,4S725.94,70.28,725.7,67.75Z"/><path class="cls-5" d="M727,75.55a1.36,1.36,0,0,1-1.51,1.06,4.11,4.11,0,0,1-3-1.25c-.87-1-2.11-2.49-1.3-3.45a3.32,3.32,0,0,1,4-.69C726.88,71.94,727.33,74.94,727,75.55Z"/><path class="cls-5" d="M723.37,79a1.56,1.56,0,0,1-1.44,1.69s-1.7.57-3.92-1.35A3.69,3.69,0,0,1,718.3,75C719.81,73,723.68,76.58,723.37,79Z"/><path class="cls-5" d="M710.16,75.68a5.36,5.36,0,0,0,4.53,2.93c1.62,0,1.5-1.36,1.45-2.93a2.63,2.63,0,0,0-1.76-2.16,5.76,5.76,0,0,0-3.85.42A1.18,1.18,0,0,0,710.16,75.68Z"/><path class="cls-5" d="M709,69.56a2.29,2.29,0,0,0,.19,2.83c.83.82,2.15.56,3.61.29a16.22,16.22,0,0,1,2.27.19c1.61.26,2.75,1,4.08-.3,1.05-1,.14-2.78.1-3.85a10.4,10.4,0,0,1,.09-2.82c.29-1.12.58-2.25-.25-3.08a2.25,2.25,0,0,0-3-.29S710.7,66.33,709,69.56Z"/><path d="M83.46,90.07a5,5,0,0,0-2.74,1.44C79.44,92.79,78.63,93.8,80,95s3.38.17,4.1-.61S86,90,83.46,90.07Z"/><path d="M91.3,89.3a1.27,1.27,0,0,1,.87,1.55,4.28,4.28,0,0,1-1.62,2.91c-1.1.79-2.71,1.9-3.55,1s-1.12-2.29-.2-4S90.74,89,91.3,89.3Z"/><path d="M94.21,93.12a1.45,1.45,0,0,1,1.5,1.52s.34,1.71-1.82,3.76a3.66,3.66,0,0,1-4.23-.58C87.94,96.21,91.91,92.65,94.21,93.12Z"/><path d="M89.35,105.85a5.65,5.65,0,0,0,3.45-4.24C93,100,91.64,100,90.1,100a2.82,2.82,0,0,0-2.36,1.58,5.67,5.67,0,0,0-.06,3.8A1.15,1.15,0,0,0,89.35,105.85Z"/><path d="M83.18,106.56a2.28,2.28,0,0,0,2.81,0c.92-.76.81-2.08.73-3.53a15.68,15.68,0,0,1,.47-2.21c.45-1.57,1.38-2.62.21-4-.91-1.11-2.72-.33-3.78-.37a10,10,0,0,1-2.78-.27c-1.06-.36-2.14-.72-3.06,0a2.25,2.25,0,0,0-.65,2.88S80.2,104.68,83.18,106.56Z"/><ellipse class="cls-6" cx="368.17" cy="110.91" rx="6.34" ry="8.06"/><ellipse class="cls-6" cx="572.21" cy="110.82" rx="7.31" ry="9.28"/><path d="M363.38,103.71a4.23,4.23,0,0,0-2.26,1.19c-1.06,1-1.73,1.89-.61,2.89s2.79.14,3.39-.5S365.46,103.66,363.38,103.71Z"/><path d="M369.86,103.09a1,1,0,0,1,.71,1.28,3.53,3.53,0,0,1-1.34,2.4c-.9.65-2.24,1.56-2.93.85a2.63,2.63,0,0,1-.16-3.26C366.91,103,369.39,102.8,369.86,103.09Z"/><path d="M372.26,106.24a1.2,1.2,0,0,1,1.23,1.26s.28,1.41-1.51,3.1a3,3,0,0,1-3.48-.48C367.07,108.79,370.35,105.85,372.26,106.24Z"/><path d="M368.23,116.75a4.66,4.66,0,0,0,2.85-3.5c.14-1.32-.95-1.29-2.23-1.35a2.34,2.34,0,0,0-2,1.31,4.71,4.71,0,0,0,0,3.14A1,1,0,0,0,368.23,116.75Z"/><path d="M363.14,117.32a1.86,1.86,0,0,0,2.32,0c.75-.62.67-1.71.6-2.91a13.35,13.35,0,0,1,.39-1.82c.38-1.29,1.14-2.16.18-3.32-.75-.91-2.25-.27-3.12-.3a8.32,8.32,0,0,1-2.29-.23c-.88-.3-1.77-.6-2.53,0a1.87,1.87,0,0,0-.54,2.38S360.68,115.77,363.14,117.32Z"/><path d="M569.38,103.36A4.74,4.74,0,0,0,567,105c-1,1.34-1.66,2.38-.25,3.34s3.16-.26,3.73-1.07S571.71,103,569.38,103.36Z"/><path d="M576.56,101.69a1.19,1.19,0,0,1,1,1.33,4,4,0,0,1-1.14,2.9c-.93.86-2.29,2.09-3.17,1.4a3,3,0,0,1-.67-3.64C573.24,102,576,101.44,576.56,101.69Z"/><path d="M579.73,104.87a1.36,1.36,0,0,1,1.57,1.23s.53,1.55-1.23,3.71a3.4,3.4,0,0,1-4,0C574.29,108.51,577.53,104.72,579.73,104.87Z"/><path d="M576.78,117.28a5.29,5.29,0,0,0,2.68-4.36c0-1.5-1.26-1.31-2.71-1.18s-2,1.76-2,1.76a5.34,5.34,0,0,0,.41,3.53A1.08,1.08,0,0,0,576.78,117.28Z"/><path d="M571.15,118.68a2.1,2.1,0,0,0,2.6-.33c.76-.82.5-2,.25-3.36a14.8,14.8,0,0,1,.16-2.11c.23-1.5,1-2.6-.29-3.75-1-.91-2.57,0-3.56.12a9.43,9.43,0,0,1-2.6.09c-1-.21-2.08-.41-2.84.41a2.1,2.1,0,0,0-.25,2.75S568.15,117.31,571.15,118.68Z"/></svg>