<svg id="Capa_1" data-name="Capa 1" xmlns="http://www.w3.org/2000/svg" viewBox="0 0 645 130"><defs><style>.cls-1,.cls-2,.cls-3{fill:#fff;}.cls-2,.cls-4{font-size:48.89px;}.cls-2,.cls-3{font-family:eacologica-round_slab, eacologica round slab;}.cls-3{font-size:69.95px;}.cls-5{letter-spacing:0em;}.cls-6{letter-spacing:-0.01em;}</style></defs><path class="cls-1" d="M12.08,107.11a4.1,4.1,0,0,0-2.39.65c-1.22.76-2,1.41-1.17,2.56s2.62.69,3.32.21S14.06,107.48,12.08,107.11Z"/><path class="cls-1" d="M18.35,107.83a1,1,0,0,1,.41,1.33,3.35,3.35,0,0,1-1.75,2c-1,.43-2.45,1-3,.21a2.46,2.46,0,0,1,.53-3.06C15.58,107.15,18,107.47,18.35,107.83Z"/><path class="cls-1" d="M20,111.24a1.15,1.15,0,0,1,.91,1.42s0,1.37-2.07,2.57a3,3,0,0,1-3.2-1.15C14.54,112.56,18.25,110.5,20,111.24Z"/><path class="cls-1" d="M14,120.19a4.47,4.47,0,0,0,3.42-2.68c.41-1.19-.63-1.39-1.83-1.7a2.29,2.29,0,0,0-2.12.83,4.33,4.33,0,0,0-.69,2.9A.93.93,0,0,0,14,120.19Z"/><path class="cls-1" d="M9.06,119.7a1.84,1.84,0,0,0,2.19.48c.85-.43,1-1.46,1.18-2.58a12.11,12.11,0,0,1,.74-1.62c.62-1.12,1.52-1.78.85-3-.53-1-2.08-.7-2.9-.91A8.37,8.37,0,0,1,9,111.35c-.77-.46-1.55-.91-2.4-.48a1.75,1.75,0,0,0-1,2.1S7,117.76,9.06,119.7Z"/><path class="cls-1" d="M48.08,30a3.46,3.46,0,0,0-1.88.9c-.89.82-1.46,1.48-.56,2.3s2.28.18,2.78-.33S49.78,30,48.08,30Z"/><path class="cls-1" d="M53.39,29.59A.85.85,0,0,1,54,30.64a2.82,2.82,0,0,1-1.15,1.89c-.76.5-1.87,1.21-2.42.62a2.08,2.08,0,0,1-.06-2.61A3.11,3.11,0,0,1,53.39,29.59Z"/><path class="cls-1" d="M55.28,32.17a1,1,0,0,1,1,1s.2,1.14-1.3,2.45a2.52,2.52,0,0,1-2.84-.46C51,34.1,53.74,31.82,55.28,32.17Z"/><path class="cls-1" d="M51.76,40.5a3.71,3.71,0,0,0,2.41-2.74c.14-1-.75-1-1.79-1.13a1.9,1.9,0,0,0-1.62,1,3.66,3.66,0,0,0-.12,2.51A.79.79,0,0,0,51.76,40.5Z"/><path class="cls-1" d="M47.58,40.86a1.57,1.57,0,0,0,1.9.06c.63-.49.59-1.36.56-2.32a10.45,10.45,0,0,1,.36-1.46c.33-1,1-1.71.22-2.65-.6-.75-1.84-.26-2.56-.31A6.92,6.92,0,0,1,46.2,34c-.72-.26-1.44-.52-2.07,0a1.47,1.47,0,0,0-.5,1.89S45.6,39.56,47.58,40.86Z"/><path class="cls-1" d="M96.82,43.51a4.8,4.8,0,0,0-2.64,1.14c-1.27,1.08-2.1,2-.91,3.14s3.14.37,3.86-.3S99.16,43.61,96.82,43.51Z"/><path class="cls-1" d="M104.17,43.3a1.16,1.16,0,0,1,.71,1.47,3.94,3.94,0,0,1-1.69,2.55c-1.08.65-2.65,1.56-3.38.72a2.85,2.85,0,0,1,.07-3.61C100.85,43,103.66,43,104.17,43.3Z"/><path class="cls-1" d="M106.63,47a1.34,1.34,0,0,1,1.3,1.48s.21,1.58-1.94,3.31A3.45,3.45,0,0,1,102.1,51C100.6,49.38,104.52,46.39,106.63,47Z"/><path class="cls-1" d="M101.29,58.26a5.17,5.17,0,0,0,3.48-3.65c.26-1.44-1-1.5-2.41-1.66a2.63,2.63,0,0,0-2.29,1.3,5.05,5.05,0,0,0-.3,3.46A1.09,1.09,0,0,0,101.29,58.26Z"/><path class="cls-1" d="M95.51,58.51a2.15,2.15,0,0,0,2.61.19c.9-.64.89-1.84.91-3.17a14.86,14.86,0,0,1,.57-2c.53-1.4,1.45-2.31.46-3.66-.78-1.06-2.52-.46-3.5-.56A9.73,9.73,0,0,1,94,48.9c-1-.39-1.95-.79-2.85-.15a2,2,0,0,0-.79,2.58S92.85,56.62,95.51,58.51Z"/><path class="cls-1" d="M51.22,106.35a4.43,4.43,0,0,0-2.38,1.23c-1.12,1.09-1.83,2-.64,3s2.94.15,3.57-.52S53.41,106.3,51.22,106.35Z"/><path class="cls-1" d="M58.05,105.7A1.08,1.08,0,0,1,58.8,107a3.62,3.62,0,0,1-1.4,2.48c-1,.67-2.37,1.62-3.1.89a2.69,2.69,0,0,1-.17-3.37C54.94,105.61,57.56,105.41,58.05,105.7Z"/><path class="cls-1" d="M60.58,109a1.25,1.25,0,0,1,1.3,1.3s.3,1.46-1.58,3.2a3.25,3.25,0,0,1-3.68-.49C55.12,111.59,58.57,108.55,60.58,109Z"/><path class="cls-1" d="M56.35,119.8a4.8,4.8,0,0,0,3-3.61c.14-1.36-1-1.33-2.35-1.39a2.43,2.43,0,0,0-2,1.35,4.78,4.78,0,0,0-.06,3.24A1,1,0,0,0,56.35,119.8Z"/><path class="cls-1" d="M51,120.4a2,2,0,0,0,2.45,0c.79-.64.7-1.76.63-3a12.6,12.6,0,0,1,.41-1.89c.39-1.33,1.2-2.23.18-3.42-.79-.94-2.37-.28-3.29-.31a9,9,0,0,1-2.42-.24c-.93-.3-1.86-.61-2.66,0a1.87,1.87,0,0,0-.57,2.45S48.38,118.8,51,120.4Z"/><path class="cls-1" d="M122.78,15.78a4.81,4.81,0,0,0-2.8-1.09c-1.76-.1-3,0-3,1.8s2,2.65,3.06,2.67S124.42,17.63,122.78,15.78Z"/><path class="cls-1" d="M128.33,21.15a1.3,1.3,0,0,1-.59,1.69,4.12,4.12,0,0,1-3.17.74c-1.28-.3-3.13-.77-3-2a3.21,3.21,0,0,1,2.79-2.79C126.15,18.4,128.23,20.5,128.33,21.15Z"/><path class="cls-1" d="M127.37,25.89a1.49,1.49,0,0,1-.18,2.15s-1,1.4-3.93,1.15A3.58,3.58,0,0,1,121,25.63C121.1,23.26,126.25,23.85,127.37,25.89Z"/><path class="cls-1" d="M114.88,30.78a5.41,5.41,0,0,0,5.33-.26c1.28-.94.42-1.91-.52-3.12a2.64,2.64,0,0,0-2.67-.7,5.63,5.63,0,0,0-2.84,2.5A1.15,1.15,0,0,0,114.88,30.78Z"/><path class="cls-1" d="M110.44,26.62a2.21,2.21,0,0,0,1.78,2.11c1.14.18,2-.78,3.06-1.81a15.3,15.3,0,0,1,1.93-1.13c1.45-.71,2.81-.72,3.11-2.54.23-1.42-1.5-2.26-2.14-3.08a10,10,0,0,1-1.57-2.26c-.41-1.05-.83-2.1-2-2.27a2.21,2.21,0,0,0-2.54,1.44S109.93,23.12,110.44,26.62Z"/><path class="cls-1" d="M180.33,30.91a3.57,3.57,0,0,0-1.87-1.31c-1.28-.39-2.23-.57-2.59.78s1,2.32,1.77,2.52S181.21,32.57,180.33,30.91Z"/><path class="cls-1" d="M183.44,35.88a1,1,0,0,1-.75,1.14,3.12,3.12,0,0,1-2.49,0c-.89-.45-2.17-1.13-1.87-2a2.47,2.47,0,0,1,2.58-1.57C182.34,33.45,183.49,35.38,183.44,35.88Z"/><path class="cls-1" d="M181.84,39.22a1.14,1.14,0,0,1-.53,1.55s-1,.85-3.12.15a2.7,2.7,0,0,1-1-3C177.69,36.14,181.39,37.5,181.84,39.22Z"/><path class="cls-1" d="M171.68,40.59a4.09,4.09,0,0,0,4,.76c1.13-.46.67-1.34.2-2.4A2,2,0,0,0,174,38a4.43,4.43,0,0,0-2.57,1.34A.87.87,0,0,0,171.68,40.59Z"/><path class="cls-1" d="M169.17,36.72a1.67,1.67,0,0,0,.92,1.88c.82.34,1.66-.21,2.61-.79a11.32,11.32,0,0,1,1.64-.49c1.2-.27,2.22,0,2.77-1.32.44-1-.68-1.94-1-2.67a7.32,7.32,0,0,1-.74-2c-.11-.84-.22-1.69-1-2a1.71,1.71,0,0,0-2.16.61S169.45,34,169.17,36.72Z"/><path class="cls-1" d="M144.27,44.83a2.73,2.73,0,0,0-1.42-1c-1-.29-1.7-.43-2,.6s.77,1.77,1.35,1.92S144.93,46.09,144.27,44.83Z"/><path class="cls-1" d="M146.63,48.61a.76.76,0,0,1-.57.87,2.35,2.35,0,0,1-1.89,0c-.68-.34-1.66-.85-1.43-1.52a1.9,1.9,0,0,1,2-1.19C145.79,46.76,146.67,48.23,146.63,48.61Z"/><path class="cls-1" d="M145.41,51.15a.85.85,0,0,1-.4,1.18,2.51,2.51,0,0,1-2.38.11,2,2,0,0,1-.76-2.31C142.26,48.81,145.07,49.85,145.41,51.15Z"/><path class="cls-1" d="M137.69,52.2a3.13,3.13,0,0,0,3,.58c.86-.36.51-1,.15-1.83a1.51,1.51,0,0,0-1.4-.76,3.36,3.36,0,0,0-2,1A.66.66,0,0,0,137.69,52.2Z"/><path class="cls-1" d="M135.78,49.25a1.26,1.26,0,0,0,.7,1.43c.61.26,1.26-.16,2-.6a8.13,8.13,0,0,1,1.25-.37c.91-.2,1.69,0,2.11-1,.33-.77-.52-1.48-.77-2a5.75,5.75,0,0,1-.56-1.49c-.08-.64-.17-1.29-.78-1.54a1.29,1.29,0,0,0-1.64.46S136,47.21,135.78,49.25Z"/><path class="cls-1" d="M244.33,45.62a4.31,4.31,0,0,0-2.65-.58c-1.58.16-2.7.39-2.46,2s2.19,2.08,3.11,1.95S246.06,47,244.33,45.62Z"/><path class="cls-1" d="M250.05,49.64a1.17,1.17,0,0,1-.29,1.58,3.67,3.67,0,0,1-2.71,1.1c-1.19-.09-2.9-.25-3-1.34a2.87,2.87,0,0,1,2.08-2.87C247.7,47.49,249.86,49.07,250.05,49.64Z"/><path class="cls-1" d="M249.87,54a1.35,1.35,0,0,1,.16,1.93s-.73,1.4-3.33,1.57a3.25,3.25,0,0,1-2.52-2.86C243.91,52.51,248.58,52.33,249.87,54Z"/><path class="cls-1" d="M239.46,60.06a4.83,4.83,0,0,0,4.71-1c1-1,.09-1.76-.91-2.71a2.4,2.4,0,0,0-2.48-.25,5.06,5.06,0,0,0-2.17,2.61A1,1,0,0,0,239.46,60.06Z"/><path class="cls-1" d="M234.91,57a2,2,0,0,0,1.89,1.63c1,0,1.71-1,2.47-2a14.38,14.38,0,0,1,1.55-1.27c1.18-.83,2.4-1,2.4-2.68,0-1.3-1.66-1.81-2.35-2.45a9,9,0,0,1-1.72-1.8c-.52-.87-1-1.75-2.08-1.75A2,2,0,0,0,235,48.26S234,53.94,234.91,57Z"/><path class="cls-1" d="M623.82,104.88a4.16,4.16,0,0,0-2.55-.72c-1.55,0-2.66.22-2.52,1.82s2,2.16,2.91,2.09S625.42,106.36,623.82,104.88Z"/><path class="cls-1" d="M629.16,109.12a1.17,1.17,0,0,1-.37,1.54,3.62,3.62,0,0,1-2.72.91c-1.15-.16-2.81-.41-2.83-1.48a2.83,2.83,0,0,1,2.21-2.68C627,106.89,629,108.56,629.16,109.12Z"/><path class="cls-1" d="M628.73,113.36a1.32,1.32,0,0,1,0,1.9s-.79,1.32-3.35,1.33a3.15,3.15,0,0,1-2.28-2.93C623,111.57,627.56,111.67,628.73,113.36Z"/><path class="cls-1" d="M618.2,118.69a4.74,4.74,0,0,0,4.65-.67c1-.94.2-1.71-.73-2.69a2.34,2.34,0,0,0-2.4-.4,5,5,0,0,0-2.28,2.43A1,1,0,0,0,618.2,118.69Z"/><path class="cls-1" d="M613.94,115.41a2,2,0,0,0,1.75,1.71c1,.06,1.72-.86,2.53-1.85a14.23,14.23,0,0,1,1.59-1.15c1.2-.74,2.4-.87,2.5-2.48.08-1.27-1.51-1.86-2.15-2.53a9,9,0,0,1-1.56-1.85c-.45-.88-.91-1.77-1.93-1.83a1.93,1.93,0,0,0-2.1,1.48S613.19,112.39,613.94,115.41Z"/><path class="cls-1" d="M206.87,95.71a3.94,3.94,0,0,0-1.74-1.83c-1.31-.7-2.3-1.1-3,.29s.57,2.75,1.35,3.12S207.44,97.7,206.87,95.71Z"/><path class="cls-1" d="M209.13,101.78a1.14,1.14,0,0,1-1.08,1.08,3.48,3.48,0,0,1-2.7-.56c-.87-.68-2.11-1.69-1.59-2.58a2.78,2.78,0,0,1,3.17-1.14C208.47,98.9,209.29,101.24,209.13,101.78Z"/><path class="cls-1" d="M206.63,105.06a1.27,1.27,0,0,1-.92,1.58s-1.32.7-3.43-.52a3,3,0,0,1-.41-3.51C202.82,100.82,206.53,103.1,206.63,105.06Z"/><path class="cls-1" d="M195.28,104.37a4.54,4.54,0,0,0,4.17,1.69c1.33-.27,1-1.31.76-2.57s-1.78-1.48-1.78-1.48a4.91,4.91,0,0,0-3.1.9A1,1,0,0,0,195.28,104.37Z"/><path class="cls-1" d="M193.43,99.62a1.83,1.83,0,0,0,.57,2.24c.81.54,1.86.13,3-.3a13.35,13.35,0,0,1,1.89-.18c1.36,0,2.42.44,3.31-.83.7-1-.31-2.26-.5-3.12a8.19,8.19,0,0,1-.35-2.28c.07-1,.14-1.9-.67-2.44a1.9,1.9,0,0,0-2.48.2S194.33,96.76,193.43,99.62Z"/><path class="cls-1" d="M254.15,106.62a4.5,4.5,0,0,0-2.58,1.19c-1.21,1.11-2,2-.72,3.21s3.18.36,3.86-.33S256.51,106.71,254.15,106.62Z"/><path class="cls-1" d="M261.52,106.36a1.26,1.26,0,0,1,.81,1.5,3.74,3.74,0,0,1-1.54,2.61c-1,.67-2.57,1.61-3.35.76a2.94,2.94,0,0,1-.15-3.68C258.17,106.05,261,106,261.52,106.36Z"/><path class="cls-1" d="M264.23,110.08a1.45,1.45,0,0,1,1.39,1.51s.32,1.61-1.74,3.39a3.49,3.49,0,0,1-4-.78C258.31,112.6,262.07,109.52,264.23,110.08Z"/><path class="cls-1" d="M259.57,121.66a4.89,4.89,0,0,0,3.27-3.75c.17-1.48-1.07-1.53-2.53-1.68a2.47,2.47,0,0,0-2.22,1.35,5.17,5.17,0,0,0-.09,3.53A1.12,1.12,0,0,0,259.57,121.66Z"/><path class="cls-1" d="M253.77,122a2.17,2.17,0,0,0,2.64.17c.86-.66.78-1.88.71-3.24a14.63,14.63,0,0,1,.45-2c.44-1.43,1.32-2.36.23-3.74-.85-1.07-2.55-.45-3.55-.55a9.82,9.82,0,0,1-2.6-.42c-1-.4-2-.8-2.88-.14a2,2,0,0,0-.63,2.65S251,120,253.77,122Z"/><path class="cls-1" d="M323.47,108a3.33,3.33,0,0,0-2-.53c-1.23.07-2.1.21-2,1.48s1.62,1.68,2.34,1.61S324.76,109.18,323.47,108Z"/><path class="cls-1" d="M327.76,111.31a.91.91,0,0,1-.27,1.22,2.82,2.82,0,0,1-2.14.76c-.91-.1-2.23-.28-2.26-1.12a2.24,2.24,0,0,1,1.7-2.16A3,3,0,0,1,327.76,111.31Z"/><path class="cls-1" d="M327.48,114.67a1,1,0,0,1,.06,1.5,3,3,0,0,1-2.63,1.11,2.52,2.52,0,0,1-1.86-2.29C322.92,113.34,326.54,113.35,327.48,114.67Z"/><path class="cls-1" d="M319.23,119a3.74,3.74,0,0,0,3.67-.6c.81-.75.13-1.35-.61-2.12a1.86,1.86,0,0,0-1.91-.27,3.93,3.93,0,0,0-1.76,2A.8.8,0,0,0,319.23,119Z"/><path class="cls-1" d="M315.81,116.51a1.57,1.57,0,0,0,1.41,1.33c.81,0,1.35-.7,2-1.5a10.57,10.57,0,0,1,1.24-.94c.94-.6,1.88-.72,1.94-2,0-1-1.22-1.44-1.74-2a7.25,7.25,0,0,1-1.27-1.45c-.37-.69-.74-1.38-1.55-1.42a1.53,1.53,0,0,0-1.64,1.2S315.17,114.13,315.81,116.51Z"/><path class="cls-1" d="M218.44,26.29a2.54,2.54,0,0,0-1.29-.95c-.9-.29-1.56-.43-1.84.51s.66,1.65,1.2,1.8S219,27.48,218.44,26.29Z"/><path class="cls-1" d="M220.54,29.84a.71.71,0,0,1-.55.79,2.22,2.22,0,0,1-1.75-.05c-.62-.33-1.51-.83-1.28-1.44a1.75,1.75,0,0,1,1.85-1.06C219.81,28.11,220.58,29.49,220.54,29.84Z"/><path class="cls-1" d="M219.36,32.16a.81.81,0,0,1-.4,1.09,2.34,2.34,0,0,1-2.2,0,1.9,1.9,0,0,1-.65-2.15C216.49,29.93,219.07,31,219.36,32.16Z"/><path class="cls-1" d="M212.19,33a2.89,2.89,0,0,0,2.79.61c.8-.32.5-.94.19-1.69a1.41,1.41,0,0,0-1.28-.73,3.09,3.09,0,0,0-1.83.9A.6.6,0,0,0,212.19,33Z"/><path class="cls-1" d="M210.49,30.2a1.17,1.17,0,0,0,.62,1.34c.56.25,1.17-.12,1.85-.52a9.61,9.61,0,0,1,1.16-.32c.85-.16,1.56,0,2-.88.32-.7-.45-1.38-.67-1.89a5.45,5.45,0,0,1-.48-1.39c-.06-.59-.13-1.2-.69-1.45a1.21,1.21,0,0,0-1.53.4S210.73,28.32,210.49,30.2Z"/><path class="cls-1" d="M289,45.16a3.64,3.64,0,0,0-2.19-.65c-1.33,0-2.28.17-2.18,1.55s1.7,1.87,2.48,1.82S290.39,46.44,289,45.16Z"/><path class="cls-1" d="M293.57,48.85a1,1,0,0,1-.33,1.32,3.14,3.14,0,0,1-2.35.75c-1-.14-2.41-.37-2.41-1.29a2.42,2.42,0,0,1,1.92-2.28C291.74,46.92,293.45,48.37,293.57,48.85Z"/><path class="cls-1" d="M293.16,52.49a1.13,1.13,0,0,1,0,1.63s-.69,1.12-2.89,1.11a2.7,2.7,0,0,1-1.93-2.53C288.26,50.9,292.18,51,293.16,52.49Z"/><path class="cls-1" d="M284.06,57a4.06,4.06,0,0,0,4-.54c.91-.79.19-1.46-.59-2.31a2,2,0,0,0-2.06-.37,4.27,4.27,0,0,0-2,2.07A.87.87,0,0,0,284.06,57Z"/><path class="cls-1" d="M280.44,54.11a1.7,1.7,0,0,0,1.48,1.49c.87.06,1.49-.72,2.19-1.57a12,12,0,0,1,1.38-1c1-.63,2.07-.73,2.18-2.11.08-1.09-1.28-1.61-1.82-2.19a7.4,7.4,0,0,1-1.33-1.61c-.38-.76-.77-1.53-1.64-1.59a1.67,1.67,0,0,0-1.82,1.25S279.82,51.51,280.44,54.11Z"/><path class="cls-1" d="M408.77,24.31a5.31,5.31,0,0,0-3.23.82c-1.64,1-2.72,1.9-1.52,3.55s3.57,1.07,4.51.43S411.47,24.9,408.77,24.31Z"/><path class="cls-1" d="M417.31,25.55a1.45,1.45,0,0,1,.6,1.89c-.57,1.2-1,2.13-2.34,2.68s-3.3,1.32-4,.18a3.47,3.47,0,0,1,.63-4.27C413.52,24.49,416.78,25,417.31,25.55Z"/><path class="cls-1" d="M419.62,30.4a1.67,1.67,0,0,1,1.27,2s0,1.92-2.74,3.54a4.07,4.07,0,0,1-4.39-1.73C412.26,32.06,417.25,29.29,419.62,30.4Z"/><path class="cls-1" d="M411.73,42.75a5.8,5.8,0,0,0,4.58-3.64c.52-1.66-.9-2-2.54-2.45a2.91,2.91,0,0,0-2.85,1.08,6.08,6.08,0,0,0-.87,4A1.3,1.3,0,0,0,411.73,42.75Z"/><path class="cls-1" d="M405,41.88a2.52,2.52,0,0,0,3,.75c1.14-.58,1.31-2,1.53-3.58a16.74,16.74,0,0,1,1-2.25c.82-1.55,2-2.44,1.08-4.25-.74-1.41-2.84-1.06-4-1.38a11.41,11.41,0,0,1-2.91-1c-1.06-.67-2.13-1.34-3.27-.77a2.39,2.39,0,0,0-1.31,2.92S402.2,39.08,405,41.88Z"/><path class="cls-1" d="M515.71,27.11a3.3,3.3,0,0,0-1.83-1c-1.2-.23-2.08-.29-2.27,1s1.15,2,1.87,2.11S516.68,28.53,515.71,27.11Z"/><path class="cls-1" d="M519.05,31.3a.92.92,0,0,1-.57,1.12,2.88,2.88,0,0,1-2.26.22c-.85-.31-2.08-.8-1.9-1.62a2.26,2.26,0,0,1,2.18-1.68C517.79,29.21,519,30.85,519.05,31.3Z"/><path class="cls-1" d="M517.94,34.49a1,1,0,0,1-.32,1.46,3,3,0,0,1-2.81.44,2.46,2.46,0,0,1-1.23-2.65C513.86,32.11,517.36,33,517.94,34.49Z"/><path class="cls-1" d="M508.88,36.75a3.72,3.72,0,0,0,3.69.29c1-.53.47-1.28-.06-2.19a1.85,1.85,0,0,0-1.78-.73,4,4,0,0,0-2.19,1.48A.8.8,0,0,0,508.88,36.75Z"/><path class="cls-1" d="M506.2,33.49a1.52,1.52,0,0,0,1,1.61c.77.23,1.49-.35,2.28-1a10,10,0,0,1,1.44-.61c1.06-.36,2-.25,2.37-1.48.29-1-.82-1.69-1.19-2.31a7.11,7.11,0,0,1-.87-1.7c-.18-.76-.37-1.52-1.15-1.74a1.53,1.53,0,0,0-1.88.77S506.17,31,506.2,33.49Z"/><path class="cls-1" d="M570.92,26.32a3.3,3.3,0,0,0-1.83-1c-1.2-.23-2.08-.29-2.27,1s1.15,2,1.87,2.11S571.89,27.74,570.92,26.32Z"/><path class="cls-1" d="M574.26,30.51a.92.92,0,0,1-.57,1.12,2.86,2.86,0,0,1-2.25.22c-.86-.31-2.09-.8-1.91-1.63a2.26,2.26,0,0,1,2.18-1.67C573,28.42,574.24,30.05,574.26,30.51Z"/><path class="cls-1" d="M573.15,33.7a1,1,0,0,1-.32,1.46,3,3,0,0,1-2.81.44A2.46,2.46,0,0,1,568.79,33C569.07,31.32,572.57,32.19,573.15,33.7Z"/><path class="cls-1" d="M564.09,36a3.74,3.74,0,0,0,3.7.29c1-.53.46-1.28-.07-2.19a1.85,1.85,0,0,0-1.78-.73,4,4,0,0,0-2.19,1.47A.8.8,0,0,0,564.09,36Z"/><path class="cls-1" d="M561.41,32.7a1.52,1.52,0,0,0,1,1.61c.77.23,1.49-.35,2.29-1a10.23,10.23,0,0,1,1.43-.6c1.06-.36,2-.25,2.37-1.48.29-1-.82-1.69-1.19-2.31a6.84,6.84,0,0,1-.86-1.7c-.19-.76-.38-1.52-1.15-1.74a1.54,1.54,0,0,0-1.89.77S561.38,30.24,561.41,32.7Z"/><path class="cls-1" d="M490.45,43.19a3.25,3.25,0,0,0-1.83-1c-1.2-.23-2.08-.3-2.27,1s1.15,2,1.87,2.11S491.42,44.61,490.45,43.19Z"/><path class="cls-1" d="M493.79,47.39a.91.91,0,0,1-.57,1.11,2.84,2.84,0,0,1-2.26.23c-.85-.32-2.08-.81-1.9-1.63a2.25,2.25,0,0,1,2.18-1.67C492.53,45.3,493.77,46.93,493.79,47.39Z"/><path class="cls-1" d="M492.68,50.57a1,1,0,0,1-.32,1.47,3,3,0,0,1-2.81.44,2.48,2.48,0,0,1-1.23-2.65C488.6,48.2,492.1,49.07,492.68,50.57Z"/><path class="cls-1" d="M483.62,52.83a3.74,3.74,0,0,0,3.69.3c1-.54.47-1.28-.06-2.2a1.86,1.86,0,0,0-1.78-.72,4,4,0,0,0-2.19,1.47A.79.79,0,0,0,483.62,52.83Z"/><path class="cls-1" d="M480.94,49.57a1.54,1.54,0,0,0,1,1.62c.77.22,1.49-.36,2.28-1a11.53,11.53,0,0,1,1.44-.61c1.06-.36,2-.25,2.37-1.47.29-1-.82-1.69-1.19-2.32a6.84,6.84,0,0,1-.86-1.7c-.19-.75-.38-1.51-1.15-1.74a1.56,1.56,0,0,0-1.89.77S480.91,47.12,480.94,49.57Z"/><path class="cls-1" d="M381.43,106.46a5.08,5.08,0,0,0-2.69,1.77c-1.16,1.45-1.87,2.59-.23,3.72s3.62-.13,4.26-1S384.09,106.16,381.43,106.46Z"/><path class="cls-1" d="M389.65,104.92a1.43,1.43,0,0,1,1.16,1.55,4.2,4.2,0,0,1-1.26,3.19c-1.05.93-2.59,2.24-3.62,1.42a3.38,3.38,0,0,1-.82-4.11C385.84,105.15,389,104.62,389.65,104.92Z"/><path class="cls-1" d="M393.34,108.64a1.66,1.66,0,0,1,1.83,1.46s.63,1.75-1.35,4.09a4,4,0,0,1-4.58-.21C387.15,112.46,390.81,108.37,393.34,108.64Z"/><path class="cls-1" d="M390.16,122.41a5.53,5.53,0,0,0,3-4.76c-.07-1.68-1.47-1.53-3.13-1.45a2.76,2.76,0,0,0-2.25,1.88,5.87,5.87,0,0,0,.52,4A1.28,1.28,0,0,0,390.16,122.41Z"/><path class="cls-1" d="M383.71,123.72a2.44,2.44,0,0,0,3-.25c.86-.88.55-2.25.23-3.76a17.19,17.19,0,0,1,.15-2.35c.24-1.68,1.06-2.87-.4-4.22-1.14-1.07-2.95-.08-4.08,0a11,11,0,0,1-3,0c-1.19-.28-2.4-.56-3.25.32a2.27,2.27,0,0,0-.24,3.08S380.24,122,383.71,123.72Z"/><path class="cls-1" d="M469.07,4.72a4,4,0,0,0-2.5.39c-1.32.66-2.21,1.23-1.43,2.57s2.62,1.08,3.38.66S471.07,5.38,469.07,4.72Z"/><path class="cls-1" d="M475.44,6.3a1.11,1.11,0,0,1,.31,1.47,3.36,3.36,0,0,1-2,1.86c-1.06.32-2.6.75-3.06-.17a2.65,2.65,0,0,1,.81-3.18C472.66,5.22,475.08,5.87,475.44,6.3Z"/><path class="cls-1" d="M476.81,10.14a1.26,1.26,0,0,1,.8,1.62s-.14,1.45-2.34,2.47a3.1,3.1,0,0,1-3.19-1.63C471.11,10.84,475.1,9.12,476.81,10.14Z"/><path class="cls-1" d="M469.89,18.89a4.42,4.42,0,0,0,3.74-2.41c.52-1.22-.53-1.56-1.73-2.05a2.22,2.22,0,0,0-2.24.61,4.6,4.6,0,0,0-1,3A1,1,0,0,0,469.89,18.89Z"/><path class="cls-1" d="M464.86,17.73a1.91,1.91,0,0,0,2.21.79c.9-.35,1.14-1.42,1.43-2.6a14,14,0,0,1,.9-1.62c.74-1.11,1.72-1.7,1.15-3.13-.46-1.13-2.07-1-2.9-1.34a8.77,8.77,0,0,1-2.12-1c-.75-.59-1.51-1.17-2.41-.82a1.81,1.81,0,0,0-1.22,2.1S463,15.41,464.86,17.73Z"/><path class="cls-1" d="M549.85,46.46a4,4,0,0,0-1.78-1.77c-1.32-.66-2.32-1-3,.37s.64,2.71,1.43,3.07S550.47,48.43,549.85,46.46Z"/><path class="cls-1" d="M552.26,52.44a1.12,1.12,0,0,1-1,1.1,3.46,3.46,0,0,1-2.7-.49c-.88-.65-2.14-1.62-1.65-2.52A2.78,2.78,0,0,1,550,49.31C551.53,49.59,552.4,51.9,552.26,52.44Z"/><path class="cls-1" d="M549.87,55.76a1.25,1.25,0,0,1-.88,1.59s-1.28.74-3.42-.42a3,3,0,0,1-.5-3.48C546,51.65,549.72,53.82,549.87,55.76Z"/><path class="cls-1" d="M538.57,55.37a4.51,4.51,0,0,0,4.19,1.57c1.31-.3,1-1.33.68-2.57s-1.81-1.43-1.81-1.43a4.9,4.9,0,0,0-3,1A1,1,0,0,0,538.57,55.37Z"/><path class="cls-1" d="M536.6,50.7a1.83,1.83,0,0,0,.63,2.22c.82.51,1.85.08,3-.38a13.78,13.78,0,0,1,1.88-.23c1.35-.06,2.41.38,3.26-.92.67-1-.37-2.23-.58-3.08a8,8,0,0,1-.41-2.26c0-.94.08-1.89-.73-2.4a1.89,1.89,0,0,0-2.46.26S537.42,47.84,536.6,50.7Z"/><path class="cls-1" d="M444.41,38.53a4.06,4.06,0,0,0-2.36.86c-1.15.9-1.9,1.64-.87,2.79s2.77.54,3.43,0S446.49,38.77,444.41,38.53Z"/><path class="cls-1" d="M450.93,38.82a1.1,1.1,0,0,1,.6,1.37,3.27,3.27,0,0,1-1.54,2.2c-1,.52-2.38,1.24-3,.44a2.61,2.61,0,0,1,.13-3.26C448,38.31,450.5,38.47,450.93,38.82Z"/><path class="cls-1" d="M453.05,42.29a1.28,1.28,0,0,1,1.12,1.43s.16,1.44-1.78,2.87a3.1,3.1,0,0,1-3.44-1C447.65,44.1,451.18,41.64,453.05,42.29Z"/><path class="cls-1" d="M448.09,52.18a4.37,4.37,0,0,0,3.16-3.08c.26-1.29-.83-1.42-2.11-1.66a2.21,2.21,0,0,0-2.06,1,4.58,4.58,0,0,0-.33,3.11A1,1,0,0,0,448.09,52.18Z"/><path class="cls-1" d="M443,52a1.91,1.91,0,0,0,2.32.34c.81-.52.82-1.61.86-2.81a13.25,13.25,0,0,1,.55-1.76c.5-1.23,1.33-2,.48-3.28-.67-1-2.22-.58-3.1-.74a8.29,8.29,0,0,1-2.26-.55c-.86-.42-1.72-.84-2.53-.32a1.78,1.78,0,0,0-.75,2.29S440.63,50.14,443,52Z"/><path class="cls-1" d="M584.36,112.38a3.87,3.87,0,0,0-2.25-.9c-1.4-.1-2.42,0-2.46,1.42s1.6,2.14,2.43,2.17S585.66,113.88,584.36,112.38Z"/><path class="cls-1" d="M588.77,116.75a1,1,0,0,1-.5,1.35,3.26,3.26,0,0,1-2.55.56c-1-.25-2.51-.64-2.42-1.61a2.58,2.58,0,0,1,2.27-2.21C587,114.52,588.69,116.22,588.77,116.75Z"/><path class="cls-1" d="M588,120.55a1.2,1.2,0,0,1-.16,1.72s-.85,1.12-3.17.88a2.86,2.86,0,0,1-1.78-2.87C582.94,118.37,587.07,118.9,588,120.55Z"/><path class="cls-1" d="M577.87,124.36a4.33,4.33,0,0,0,4.28-.16c1-.75.35-1.53-.39-2.51a2.11,2.11,0,0,0-2.13-.59,4.55,4.55,0,0,0-2.31,2A.93.93,0,0,0,577.87,124.36Z"/><path class="cls-1" d="M574.34,121a1.77,1.77,0,0,0,1.41,1.71c.92.15,1.65-.61,2.48-1.43a13,13,0,0,1,1.56-.89c1.17-.55,2.26-.56,2.52-2,.2-1.14-1.18-1.83-1.69-2.49a8.15,8.15,0,0,1-1.24-1.84c-.32-.84-.64-1.69-1.56-1.84a1.78,1.78,0,0,0-2.06,1.14S574,118.16,574.34,121Z"/><path class="cls-1" d="M593.32,51.36A3.81,3.81,0,0,0,592,49.3c-1.13-.9-2-1.45-2.93-.24s.05,2.74.74,3.24S593.51,53.38,593.32,51.36Z"/><path class="cls-1" d="M594.4,57.59a1.11,1.11,0,0,1-1.23.86,3.38,3.38,0,0,1-2.5-1c-.71-.8-1.72-2-1.06-2.76a2.74,2.74,0,0,1,3.25-.55C594.29,54.71,594.65,57.1,594.4,57.59Z"/><path class="cls-1" d="M591.41,60.32a1.25,1.25,0,0,1-1.17,1.36s-1.39.45-3.21-1.09a2.9,2.9,0,0,1,.24-3.45C588.5,55.59,591.67,58.42,591.41,60.32Z"/><path class="cls-1" d="M580.61,57.7A4.41,4.41,0,0,0,584.32,60c1.32,0,1.22-1.08,1.19-2.34S584.06,56,584.06,56a4.86,4.86,0,0,0-3.14.33A.94.94,0,0,0,580.61,57.7Z"/><path class="cls-1" d="M579.68,52.81a1.79,1.79,0,0,0,.15,2.26c.68.66,1.76.44,3,.23a13.74,13.74,0,0,1,1.85.15c1.32.21,2.25.84,3.34-.24.85-.84.11-2.22.08-3.08a8.14,8.14,0,0,1,.07-2.26c.24-.89.47-1.8-.21-2.46a1.85,1.85,0,0,0-2.42-.23S581.06,50.22,579.68,52.81Z"/><path class="cls-1" d="M316.17,90.47c-.72-.4-1.07-.86-1.07-1.39V64.73a3.89,3.89,0,0,0-1.26-2.9,4.19,4.19,0,0,0-3-1.22h-5.26a3.8,3.8,0,0,0-2.7,1,3.53,3.53,0,0,0-1.13,2.72,3.42,3.42,0,0,0,.85,2.29,3.61,3.61,0,0,0,2.37,1.19v4.86c-.27-.24-.57-.48-.89-.75a7.36,7.36,0,0,0-1.15-.74,7.17,7.17,0,0,0-1.61-.57,9.92,9.92,0,0,0-2.27-.23,11.94,11.94,0,0,0-5,1,10.5,10.5,0,0,0-3.75,2.8,13,13,0,0,0-2.43,4.39,17.89,17.89,0,0,0-.87,5.75,19.45,19.45,0,0,0,.79,5.75,13.29,13.29,0,0,0,2.27,4.42,10.11,10.11,0,0,0,3.58,2.82,10.77,10.77,0,0,0,4.65,1,9,9,0,0,0,3.12-.47,8.36,8.36,0,0,0,2.17-1.14A6.46,6.46,0,0,0,305,95.31a7.18,7.18,0,0,0,.79-1.42v1.39a2.06,2.06,0,0,0,.18.82,2.33,2.33,0,0,0,.58.79,3.3,3.3,0,0,0,1.08.62,4.58,4.58,0,0,0,1.63.25h4.65a4.06,4.06,0,0,0,2.78-1.24,3.77,3.77,0,0,0,1.1-2.73A3.86,3.86,0,0,0,316.17,90.47ZM299.7,79.58a3,3,0,0,1,3-1,.84.84,0,0,1,.59,1,2.8,2.8,0,0,1-1.1,1.92c-.74.52-1.83,1.25-2.4.69A2.08,2.08,0,0,1,299.7,79.58Zm-4.11.43a3.41,3.41,0,0,1,1.85-1c1.7,0,.91,2.34.42,2.86s-1.85,1.19-2.77.4S294.73,80.85,295.59,80ZM299.14,90a1.57,1.57,0,0,1-1.9,0c-2-1.25-4.08-4.94-4.08-4.94a1.47,1.47,0,0,1,.45-1.9c.61-.5,1.34-.27,2.06,0a7.06,7.06,0,0,0,1.87.18c.72,0,1.94-.49,2.56.24.78.93.16,1.63-.15,2.66a10.14,10.14,0,0,0-.32,1.46C299.69,88.59,299.75,89.45,299.14,90Zm2.26-.47a.78.78,0,0,1-1.12-.33,3.66,3.66,0,0,1,0-2.51,1.87,1.87,0,0,1,1.59-1c1,0,1.94,0,1.82,1.08A3.74,3.74,0,0,1,301.4,89.49Zm3.07-4.92a2.51,2.51,0,0,1-2.85-.39c-1.16-1.06,1.52-3.41,3.07-3.1a1,1,0,0,1,1,1S305.93,83.22,304.47,84.57Z"/><text class="cls-2" transform="translate(318.06 97.07) scale(1.02 1)">e</text><path class="cls-1" d="M486.38,79.37a13.77,13.77,0,0,0-3.28-4.53,14.71,14.71,0,0,0-4.91-2.94,17.46,17.46,0,0,0-6-1,17.21,17.21,0,0,0-6,1,14.71,14.71,0,0,0-4.89,2.94A13.77,13.77,0,0,0,458,79.37a14,14,0,0,0-1.2,5.88,13.89,13.89,0,0,0,1.2,5.86,13.06,13.06,0,0,0,3.31,4.45,14.78,14.78,0,0,0,4.91,2.84,18.74,18.74,0,0,0,12,0,14.49,14.49,0,0,0,4.89-2.84,13.25,13.25,0,0,0,3.28-4.45,13.74,13.74,0,0,0,1.21-5.86A13.9,13.9,0,0,0,486.38,79.37Zm-14.1,1.53a3.06,3.06,0,0,1,3-1,.83.83,0,0,1,.58,1,2.79,2.79,0,0,1-1.09,1.92c-.74.52-1.83,1.25-2.4.69A2.08,2.08,0,0,1,472.28,80.9Zm-4.1.43a3.37,3.37,0,0,1,1.84-1c1.7,0,.91,2.34.43,2.86s-1.85,1.19-2.77.4S467.31,82.17,468.18,81.33Zm3.54,10a1.56,1.56,0,0,1-1.89,0c-2-1.25-4.08-4.94-4.08-4.94a1.45,1.45,0,0,1,.44-1.9c.62-.5,1.35-.27,2.07,0a6.77,6.77,0,0,0,1.87.19c.71,0,1.94-.49,2.55.24.78.93.16,1.63-.15,2.66a10.93,10.93,0,0,0-.31,1.46C472.27,89.91,472.34,90.77,471.72,91.28Zm2.27-.47a.79.79,0,0,1-1.13-.33,3.66,3.66,0,0,1,0-2.51,1.89,1.89,0,0,1,1.59-1c1.05,0,1.94,0,1.83,1.08A3.74,3.74,0,0,1,474,90.81Zm3.06-4.92a2.5,2.5,0,0,1-2.84-.39c-1.17-1.06,1.51-3.41,3.07-3.1a1,1,0,0,1,1,1S478.52,84.54,477.05,85.89Z"/><text class="cls-3" transform="translate(357.16 99.7) scale(1.02 1)">C<tspan class="cls-4" x="49.32" y="0">ol</tspan></text><text class="cls-2" transform="translate(489.3 98.38) scale(1.02 1)">mbia</text><text class="cls-2" transform="translate(90.2 98.38) scale(1.02 1)">ue<tspan class="cls-5" x="58.43" y="0">l</tspan><tspan x="74.56" y="0">l</tspan><tspan class="cls-6" x="90.94" y="0">i</tspan><tspan x="108.59" y="0">tas</tspan></text><path class="cls-1" d="M83.88,87.82V57A5.6,5.6,0,0,0,86,56.45a5.41,5.41,0,0,0,1.68-1.23A5.1,5.1,0,0,0,89,51.38a5.41,5.41,0,0,0-1.57-3.54,5.05,5.05,0,0,0-3.5-1.5H69.23a4.51,4.51,0,0,0-2.1.49,6.15,6.15,0,0,0-1.68,1.22,5.09,5.09,0,0,0-1.11,1.72,4.54,4.54,0,0,0-.32,2,5.08,5.08,0,0,0,1.53,3.6A5.52,5.52,0,0,0,69.16,57v9.8h-14V57a6,6,0,0,0,2.14-.52A4.88,4.88,0,0,0,59,55.22a5.88,5.88,0,0,0,1.07-1.75,4.72,4.72,0,0,0,.32-2.09,5.32,5.32,0,0,0-1.64-3.57,5,5,0,0,0-3.64-1.47H40.58a5.36,5.36,0,0,0-5.36,5.39,5,5,0,0,0,1.5,3.63A5.11,5.11,0,0,0,40.36,57V87.82a5.61,5.61,0,0,0-2.1.53,5.14,5.14,0,0,0-1.65,1.19,5.48,5.48,0,0,0-1.07,1.74,5,5,0,0,0-.32,2.14A5.08,5.08,0,0,0,36.9,97a5.18,5.18,0,0,0,3.68,1.44H55.16a5.91,5.91,0,0,0,2.11-.53,5.33,5.33,0,0,0,1.67-1.22,5.65,5.65,0,0,0,1.11-1.75,4.76,4.76,0,0,0,.32-2.1,5.2,5.2,0,0,0-1.57-3.5,5.56,5.56,0,0,0-3.64-1.54v-9.3H65.4c-.36-.57-.57-1-.57-1a1.77,1.77,0,0,1,.53-2.31c.75-.61,1.63-.32,2.5,0a8.46,8.46,0,0,0,2.27.22c.87,0,2.35-.59,3.1.29,1,1.12.19,2-.18,3.22a13.36,13.36,0,0,0-.38,1.77c.07,1.16.15,2.21-.6,2.82a1.88,1.88,0,0,1-2.29,0,5.91,5.91,0,0,1-.62-.44v4.72a5.71,5.71,0,0,0-2.11.53,5.58,5.58,0,0,0-1.67,1.19,4.73,4.73,0,0,0-1.08,1.74A5.29,5.29,0,0,0,64,93.35a4.81,4.81,0,0,0,1.57,3.5,5.78,5.78,0,0,0,3.64,1.54H84a5.7,5.7,0,0,0,2-.53,5.38,5.38,0,0,0,1.68-1.22,5.2,5.2,0,0,0,1.07-1.75,5.06,5.06,0,0,0,.29-2.1,5.18,5.18,0,0,0-1.57-3.43A5.52,5.52,0,0,0,83.88,87.82ZM70.52,73.74c-.59.63-2.25,1.46-3.36.49s-.44-1.78.6-2.8A4.19,4.19,0,0,1,70,70.28C72.06,70.23,71.11,73.12,70.52,73.74Zm2.37.33a2.5,2.5,0,0,1-.15-3.16c.75-1.33,3.21-1.52,3.67-1.25a1,1,0,0,1,.71,1.25,3.4,3.4,0,0,1-1.32,2.32C74.9,73.87,73.58,74.75,72.89,74.07Zm1.93,8.84a1,1,0,0,1-1.37-.39,4.43,4.43,0,0,1,0-3,2.31,2.31,0,0,1,1.93-1.27c1.26.05,2.34,0,2.2,1.3A4.5,4.5,0,0,1,74.82,82.91Zm3.7-6a3,3,0,0,1-3.45-.46c-1.41-1.29,1.84-4.14,3.72-3.76A1.17,1.17,0,0,1,80,73.94S80.3,75.31,78.52,76.94Z"/></svg>