<svg id="Capa_1" data-name="Capa 1" xmlns="http://www.w3.org/2000/svg" viewBox="0 0 792 158.74"><defs><style>.cls-1,.cls-2{fill:#010101;}.cls-2{font-size:88.66px;font-family:eacologica-round_slab, eacologica round slab;}.cls-3,.cls-4,.cls-5{font-size:61.79px;}.cls-4{letter-spacing:0em;}.cls-5{letter-spacing:-0.01em;}.cls-6{fill:#fff;}</style></defs><path class="cls-1" d="M19.68,133.07a5,5,0,0,0-2.95.82c-1.51,1-2.51,1.78-1.45,3.23s3.24.88,4.1.27S22.13,133.54,19.68,133.07Z"/><path class="cls-1" d="M27.44,134a1.24,1.24,0,0,1,.51,1.68,4.19,4.19,0,0,1-2.17,2.48c-1.24.53-3,1.27-3.67.26a3.17,3.17,0,0,1,.65-3.87C24,133.12,27,133.53,27.44,134Z"/><path class="cls-1" d="M29.45,138.29a1.44,1.44,0,0,1,1.13,1.79s0,1.73-2.56,3.25a3.59,3.59,0,0,1-4-1.45C22.73,140,27.32,137.35,29.45,138.29Z"/><path class="cls-1" d="M22.06,149.6a5.58,5.58,0,0,0,4.23-3.39c.5-1.51-.78-1.75-2.27-2.14a2.77,2.77,0,0,0-2.61,1,5.54,5.54,0,0,0-.86,3.66A1.14,1.14,0,0,0,22.06,149.6Z"/><path class="cls-1" d="M15.94,149a2.25,2.25,0,0,0,2.72.6c1.05-.54,1.22-1.84,1.45-3.26a16,16,0,0,1,.92-2c.77-1.42,1.88-2.25,1-3.85-.65-1.26-2.57-.89-3.59-1.15a10.26,10.26,0,0,1-2.63-.85c-.95-.58-1.92-1.16-3-.61a2.23,2.23,0,0,0-1.24,2.65S13.45,146.53,15.94,149Z"/><path class="cls-1" d="M64.21,35.57a4.21,4.21,0,0,0-2.32,1.14c-1.09,1-1.8,1.87-.69,2.91s2.82.22,3.44-.42S66.32,35.58,64.21,35.57Z"/><path class="cls-1" d="M70.78,35.11a1.06,1.06,0,0,1,.69,1.32,3.57,3.57,0,0,1-1.41,2.39c-.94.64-2.31,1.52-3,.79A2.68,2.68,0,0,1,67,36.3C67.81,34.94,70.32,34.81,70.78,35.11Z"/><path class="cls-1" d="M73.13,38.37a1.2,1.2,0,0,1,1.21,1.31s.25,1.43-1.6,3.09a3.06,3.06,0,0,1-3.52-.58C67.82,40.81,71.21,37.92,73.13,38.37Z"/><path class="cls-1" d="M68.77,48.9a4.71,4.71,0,0,0,3-3.47c.18-1.33-.92-1.33-2.22-1.42a2.35,2.35,0,0,0-2,1.27,4.7,4.7,0,0,0-.14,3.17A1,1,0,0,0,68.77,48.9Z"/><path class="cls-1" d="M63.6,49.34a1.91,1.91,0,0,0,2.35.08c.78-.62.73-1.72.69-2.93a14.68,14.68,0,0,1,.44-1.84c.42-1.3,1.21-2.16.27-3.36-.73-.94-2.27-.33-3.15-.39a8.59,8.59,0,0,1-2.31-.29c-.89-.33-1.78-.65-2.56,0a1.89,1.89,0,0,0-.61,2.4S61.16,47.7,63.6,49.34Z"/><path class="cls-1" d="M124.51,52.69a5.81,5.81,0,0,0-3.26,1.44c-1.58,1.37-2.6,2.48-1.13,4s3.88.47,4.77-.37S127.41,52.82,124.51,52.69Z"/><path class="cls-1" d="M133.6,52.43a1.46,1.46,0,0,1,.88,1.85c-.44,1.36-.76,2.4-2.09,3.22s-3.28,2-4.18.92-1.11-2.72.09-4.56S133,52,133.6,52.43Z"/><path class="cls-1" d="M136.65,57.05a1.68,1.68,0,0,1,1.6,1.88s.27,2-2.39,4.18a4.2,4.2,0,0,1-4.81-1C129.19,60.12,134,56.33,136.65,57.05Z"/><path class="cls-1" d="M130.05,71.33a6.49,6.49,0,0,0,4.3-4.61c.32-1.82-1.2-1.89-3-2.09a3.25,3.25,0,0,0-2.84,1.64s-1.13,2.49-.37,4.37A1.34,1.34,0,0,0,130.05,71.33Z"/><path class="cls-1" d="M122.89,71.66a2.63,2.63,0,0,0,3.23.23c1.12-.8,1.1-2.32,1.12-4a18.63,18.63,0,0,1,.72-2.51c.64-1.77,1.79-2.91.56-4.62-1-1.34-3.11-.58-4.33-.71a11.58,11.58,0,0,1-3.17-.54c-1.2-.5-2.42-1-3.53-.2a2.6,2.6,0,0,0-1,3.27S119.61,69.26,122.89,71.66Z"/><path class="cls-1" d="M68.1,132.11a5.48,5.48,0,0,0-2.95,1.56c-1.37,1.37-2.25,2.46-.79,3.76s3.64.19,4.42-.65S70.81,132.05,68.1,132.11Z"/><path class="cls-1" d="M76.55,131.29a1.36,1.36,0,0,1,.93,1.67,4.57,4.57,0,0,1-1.74,3.13c-1.18.85-2.92,2-3.83,1.12s-1.2-2.46-.2-4.25S75.94,130.92,76.55,131.29Z"/><path class="cls-1" d="M79.68,135.4A1.55,1.55,0,0,1,81.29,137s.37,1.84-2,4a3.92,3.92,0,0,1-4.54-.62C72.93,138.73,77.2,134.89,79.68,135.4Z"/><path class="cls-1" d="M74.45,149.11a6.07,6.07,0,0,0,3.71-4.57c.18-1.72-1.24-1.68-2.91-1.75a3,3,0,0,0-2.54,1.7s-.89,2.4-.06,4.1A1.24,1.24,0,0,0,74.45,149.11Z"/><path class="cls-1" d="M67.81,149.87a2.43,2.43,0,0,0,3,0c1-.82.88-2.23.79-3.8a17.4,17.4,0,0,1,.5-2.38c.49-1.68,1.48-2.82.23-4.33-1-1.19-2.94-.35-4.08-.39a10.7,10.7,0,0,1-3-.3c-1.14-.39-2.3-.77-3.29,0a2.43,2.43,0,0,0-.7,3.11S64.59,147.85,67.81,149.87Z"/><path class="cls-1" d="M156.63,17.65a5.86,5.86,0,0,0-3.47-1.37c-2.17-.13-3.74-.05-3.77,2.26s2.5,3.36,3.78,3.38S158.66,20,156.63,17.65Z"/><path class="cls-1" d="M163.5,24.44a1.68,1.68,0,0,1-.74,2.14c-1.33.73-2.33,1.3-3.92.93s-3.87-1-3.75-2.49a4,4,0,0,1,3.46-3.53C160.79,21,163.37,23.62,163.5,24.44Z"/><path class="cls-1" d="M162.3,30.43a1.91,1.91,0,0,1-.21,2.71s-1.29,1.78-4.86,1.45a4.49,4.49,0,0,1-2.79-4.49C154.55,27.1,160.92,27.85,162.3,30.43Z"/><path class="cls-1" d="M146.86,36.6a6.52,6.52,0,0,0,6.58-.32c1.59-1.19.52-2.42-.64-3.94s-3.3-.89-3.3-.89-2.68,1.09-3.51,3.16A1.44,1.44,0,0,0,146.86,36.6Z"/><path class="cls-1" d="M141.36,31.35a2.78,2.78,0,0,0,2.2,2.67c1.42.23,2.53-1,3.8-2.29a19,19,0,0,1,2.38-1.43c1.79-.89,3.48-.91,3.84-3.2.29-1.8-1.85-2.86-2.65-3.9A12.57,12.57,0,0,1,149,20.34c-.51-1.32-1-2.65-2.44-2.87a2.75,2.75,0,0,0-3.15,1.82S140.73,26.93,141.36,31.35Z"/><path class="cls-1" d="M227.83,36.77a4.46,4.46,0,0,0-2.32-1.66c-1.58-.49-2.76-.71-3.2,1s1.24,2.94,2.18,3.19S228.91,38.87,227.83,36.77Z"/><path class="cls-1" d="M231.67,43.05a1.28,1.28,0,0,1-.93,1.45,3.88,3.88,0,0,1-3.08,0c-1.1-.57-2.68-1.43-2.32-2.53a3.09,3.09,0,0,1,3.21-2C230.31,40,231.73,42.42,231.67,43.05Z"/><path class="cls-1" d="M229.69,47.27a1.44,1.44,0,0,1-.66,2s-1.27,1.08-3.86.19a3.44,3.44,0,0,1-1.24-3.84C224.56,43.38,229.14,45.1,229.69,47.27Z"/><path class="cls-1" d="M217.12,49a5,5,0,0,0,4.94,1c1.39-.59.83-1.69.25-3A2.48,2.48,0,0,0,220,45.67a5.37,5.37,0,0,0-3.18,1.7A1.1,1.1,0,0,0,217.12,49Z"/><path class="cls-1" d="M214,44.11a2.11,2.11,0,0,0,1.14,2.38c1,.42,2.05-.27,3.23-1a13.44,13.44,0,0,1,2-.62c1.49-.34,2.75,0,3.43-1.67.54-1.28-.84-2.45-1.24-3.37a9.34,9.34,0,0,1-.91-2.47c-.13-1.07-.27-2.15-1.28-2.57a2.07,2.07,0,0,0-2.66.77S214.36,40.72,214,44.11Z"/><path class="cls-1" d="M183.21,54.36a3.37,3.37,0,0,0-1.76-1.26c-1.2-.37-2.1-.54-2.44.75s.94,2.24,1.66,2.43S184,56,183.21,54.36Z"/><path class="cls-1" d="M186.14,59.14a1,1,0,0,1-.71,1.1,2.89,2.89,0,0,1-2.34,0c-.85-.43-2.05-1.08-1.77-1.93a2.34,2.34,0,0,1,2.44-1.5C185.1,56.81,186.18,58.66,186.14,59.14Z"/><path class="cls-1" d="M184.63,62.35a1.12,1.12,0,0,1-.5,1.5s-1,.82-2.94.14a2.61,2.61,0,0,1-.94-2.92C180.73,59.39,184.21,60.7,184.63,62.35Z"/><path class="cls-1" d="M175.07,63.67a3.79,3.79,0,0,0,3.75.74c1.06-.45.63-1.29.19-2.31a1.87,1.87,0,0,0-1.73-1,4.06,4.06,0,0,0-2.42,1.29A.83.83,0,0,0,175.07,63.67Z"/><path class="cls-1" d="M172.7,60a1.63,1.63,0,0,0,.87,1.81c.77.32,1.56-.2,2.46-.76a10,10,0,0,1,1.54-.47c1.13-.26,2.09,0,2.61-1.27.41-1-.64-1.87-1-2.57a7.54,7.54,0,0,1-.69-1.88c-.1-.81-.21-1.63-1-2a1.6,1.6,0,0,0-2,.59S173,57.37,172.7,60Z"/><path class="cls-1" d="M307,55.37a5.24,5.24,0,0,0-3.28-.74c-2,.19-3.34.49-3,2.55s2.7,2.63,3.84,2.47S309.14,57.16,307,55.37Z"/><path class="cls-1" d="M314.07,60.44a1.51,1.51,0,0,1-.35,2c-1.09.84-1.9,1.49-3.36,1.38s-3.58-.31-3.69-1.68a3.64,3.64,0,0,1,2.58-3.63C311.17,57.73,313.84,59.72,314.07,60.44Z"/><path class="cls-1" d="M313.85,65.94a1.71,1.71,0,0,1,.19,2.44s-.89,1.76-4.12,2a4,4,0,0,1-3.11-3.61C306.48,64.07,312.25,63.84,313.85,65.94Z"/><path class="cls-1" d="M301,73.61a5.88,5.88,0,0,0,5.81-1.22c1.25-1.28.12-2.22-1.12-3.41a2.91,2.91,0,0,0-3.07-.33A6.35,6.35,0,0,0,299.92,72,1.3,1.3,0,0,0,301,73.61Z"/><path class="cls-1" d="M295.34,69.71a2.51,2.51,0,0,0,2.34,2.07c1.29,0,2.11-1.23,3.05-2.57a17,17,0,0,1,1.92-1.61c1.47-1,3-1.31,3-3.4,0-1.64-2.05-2.28-2.91-3.09a11.26,11.26,0,0,1-2.12-2.27c-.64-1.11-1.29-2.21-2.58-2.21a2.45,2.45,0,0,0-2.54,2.06S294.16,65.87,295.34,69.71Z"/><path class="cls-1" d="M776.46,130.25a5.14,5.14,0,0,0-3.16-.91c-1.92.07-3.28.28-3.11,2.31s2.48,2.72,3.6,2.63S778.44,132.12,776.46,130.25Z"/><path class="cls-1" d="M783.06,135.61a1.48,1.48,0,0,1-.46,1.94c-1.11.76-1.94,1.34-3.36,1.15s-3.48-.52-3.5-1.87a3.56,3.56,0,0,1,2.73-3.38C780.39,132.8,782.88,134.9,783.06,135.61Z"/><path class="cls-1" d="M782.53,141a1.68,1.68,0,0,1,0,2.39s-1,1.67-4.14,1.69a4,4,0,0,1-2.83-3.7C775.44,138.71,781.09,138.83,782.53,141Z"/><path class="cls-1" d="M769.5,147.7a5.76,5.76,0,0,0,5.75-.85c1.29-1.18.25-2.16-.89-3.4a2.84,2.84,0,0,0-3-.5,6.26,6.26,0,0,0-2.82,3.07A1.28,1.28,0,0,0,769.5,147.7Z"/><path class="cls-1" d="M764.24,143.56a2.43,2.43,0,0,0,2.15,2.15c1.26.08,2.14-1.07,3.14-2.33a16.41,16.41,0,0,1,2-1.45c1.49-.94,3-1.1,3.09-3.14.1-1.6-1.86-2.35-2.65-3.19a11.28,11.28,0,0,1-1.94-2.35c-.56-1.11-1.13-2.23-2.39-2.31a2.41,2.41,0,0,0-2.6,1.87S763.31,139.74,764.24,143.56Z"/><path class="cls-1" d="M260.65,118.66a5,5,0,0,0-2.15-2.31c-1.62-.89-2.84-1.39-3.7.37s.69,3.46,1.67,3.94S261.36,121.18,260.65,118.66Z"/><path class="cls-1" d="M263.45,126.33a1.43,1.43,0,0,1-1.34,1.37,4.22,4.22,0,0,1-3.34-.71c-1.07-.86-2.6-2.14-2-3.26a3.43,3.43,0,0,1,3.92-1.45C262.63,122.7,263.64,125.66,263.45,126.33Z"/><path class="cls-1" d="M260.36,130.48a1.61,1.61,0,0,1-1.14,2s-1.63.89-4.24-.65a3.81,3.81,0,0,1-.51-4.44C255.64,125.12,260.24,128,260.36,130.48Z"/><path class="cls-1" d="M246.32,129.6a5.54,5.54,0,0,0,5.15,2.14c1.65-.34,1.27-1.66.94-3.25s-2.2-1.87-2.2-1.87a5.94,5.94,0,0,0-3.83,1.14A1.22,1.22,0,0,0,246.32,129.6Z"/><path class="cls-1" d="M244,123.6a2.35,2.35,0,0,0,.72,2.84c1,.68,2.29.16,3.73-.38a16.81,16.81,0,0,1,2.34-.23c1.68,0,3,.56,4.09-1.06.87-1.27-.38-2.85-.61-3.94a10.71,10.71,0,0,1-.44-2.88c.09-1.19.17-2.4-.83-3.08a2.31,2.31,0,0,0-3.06.26S245.14,120,244,123.6Z"/><path class="cls-1" d="M319.14,132.45A5.54,5.54,0,0,0,316,134c-1.5,1.41-2.46,2.54-.89,4.06s3.93.45,4.78-.42S322.07,132.56,319.14,132.45Z"/><path class="cls-1" d="M328.26,132.12a1.59,1.59,0,0,1,1,1.89c-.36,1.39-.62,2.46-1.9,3.31s-3.18,2-4.15,1a3.82,3.82,0,0,1-.19-4.66C324.12,131.73,327.61,131.68,328.26,132.12Z"/><path class="cls-1" d="M331.61,136.83a1.8,1.8,0,0,1,1.73,1.9s.38,2-2.15,4.29a4.26,4.26,0,0,1-4.9-1C324.29,140,328.94,136.11,331.61,136.83Z"/><path class="cls-1" d="M325.85,151.45a6.16,6.16,0,0,0,4-4.74c.21-1.86-1.32-1.92-3.12-2.11a3.07,3.07,0,0,0-2.76,1.69s-1,2.56-.1,4.47A1.37,1.37,0,0,0,325.85,151.45Z"/><path class="cls-1" d="M318.67,151.83a2.62,2.62,0,0,0,3.27.22c1.07-.83,1-2.38.88-4.1a18.14,18.14,0,0,1,.56-2.56c.54-1.81,1.62-3,.28-4.72-1.05-1.36-3.16-.58-4.39-.7a11.83,11.83,0,0,1-3.22-.53c-1.24-.5-2.49-1-3.56-.18a2.58,2.58,0,0,0-.78,3.35S315.22,149.4,318.67,151.83Z"/><path class="cls-1" d="M404.9,134.23a4.13,4.13,0,0,0-2.52-.67c-1.51.09-2.59.27-2.43,1.87s2,2.12,2.9,2S406.5,135.68,404.9,134.23Z"/><path class="cls-1" d="M410.2,138.38a1.17,1.17,0,0,1-.33,1.54,3.52,3.52,0,0,1-2.65,1c-1.12-.13-2.75-.36-2.79-1.42a2.8,2.8,0,0,1,2.11-2.72C408.05,136.19,410.05,137.82,410.2,138.38Z"/><path class="cls-1" d="M409.86,142.63a1.33,1.33,0,0,1,.07,1.89s-.75,1.33-3.25,1.4a3.15,3.15,0,0,1-2.29-2.89C404.22,140.94,408.69,141,409.86,142.63Z"/><path class="cls-1" d="M399.66,148.15a4.56,4.56,0,0,0,4.53-.76c1-.95.17-1.72-.76-2.68a2.24,2.24,0,0,0-2.35-.35,5,5,0,0,0-2.19,2.47A1,1,0,0,0,399.66,148.15Z"/><path class="cls-1" d="M395.43,145a1.93,1.93,0,0,0,1.74,1.67c1,0,1.67-.88,2.44-1.89a13.49,13.49,0,0,1,1.54-1.18c1.16-.76,2.33-.92,2.4-2.53.05-1.27-1.51-1.83-2.15-2.48a8.94,8.94,0,0,1-1.57-1.83c-.46-.87-.92-1.75-1.92-1.79a1.89,1.89,0,0,0-2,1.52S394.63,141.94,395.43,145Z"/><path class="cls-1" d="M275,30.94a3.13,3.13,0,0,0-1.6-1.2c-1.11-.38-1.93-.55-2.27.64s.82,2.08,1.48,2.28S275.69,32.43,275,30.94Z"/><path class="cls-1" d="M277.57,35.42a.9.9,0,0,1-.68,1,2.69,2.69,0,0,1-2.17-.07c-.76-.42-1.86-1.05-1.58-1.82a2.16,2.16,0,0,1,2.28-1.34C276.66,33.24,277.62,35,277.57,35.42Z"/><path class="cls-1" d="M276.1,38.35a1,1,0,0,1-.49,1.37,2.83,2.83,0,0,1-2.72.07,2.41,2.41,0,0,1-.81-2.72C272.56,35.53,275.75,36.82,276.1,38.35Z"/><path class="cls-1" d="M267.24,39.37a3.51,3.51,0,0,0,3.45.76c1-.39.61-1.18.23-2.13a1.76,1.76,0,0,0-1.59-.93,3.79,3.79,0,0,0-2.26,1.14A.78.78,0,0,0,267.24,39.37Z"/><path class="cls-1" d="M265.13,35.87a1.51,1.51,0,0,0,.77,1.7c.7.31,1.45-.16,2.28-.65a10.55,10.55,0,0,1,1.44-.41c1.05-.21,1.93,0,2.44-1.11.4-.89-.56-1.74-.82-2.39a6.7,6.7,0,0,1-.6-1.76c-.08-.75-.16-1.51-.86-1.83a1.47,1.47,0,0,0-1.88.5S265.43,33.5,265.13,35.87Z"/><path class="cls-1" d="M362.29,54.77a4.44,4.44,0,0,0-2.7-.81c-1.65,0-2.83.21-2.7,2s2.1,2.36,3.07,2.29S364,56.4,362.29,54.77Z"/><path class="cls-1" d="M367.91,59.45a1.26,1.26,0,0,1-.41,1.66,3.77,3.77,0,0,1-2.9,1c-1.22-.18-3-.47-3-1.63A3.07,3.07,0,0,1,364,57.54C365.65,57,367.76,58.83,367.91,59.45Z"/><path class="cls-1" d="M367.4,64a1.45,1.45,0,0,1,0,2.06s-.85,1.42-3.57,1.41a3.4,3.4,0,0,1-2.39-3.21C361.34,62,366.19,62.19,367.4,64Z"/><path class="cls-1" d="M356.15,69.7a5,5,0,0,0,5-.67c1.12-1,.23-1.86-.74-2.93a2.44,2.44,0,0,0-2.55-.46,5.38,5.38,0,0,0-2.45,2.61A1.11,1.11,0,0,0,356.15,69.7Z"/><path class="cls-1" d="M351.67,66.09A2.1,2.1,0,0,0,353.5,68c1.08.07,1.84-.91,2.71-2a13.89,13.89,0,0,1,1.71-1.23c1.29-.79,2.56-.92,2.69-2.66.09-1.38-1.59-2-2.26-2.77a9.7,9.7,0,0,1-1.64-2c-.47-1-.94-1.93-2-2a2.06,2.06,0,0,0-2.26,1.58S350.9,62.8,351.67,66.09Z"/><path class="cls-1" d="M510.42,28.43a6.38,6.38,0,0,0-4,1c-2,1.3-3.37,2.4-1.89,4.48s4.43,1.36,5.58.54S513.76,29.18,510.42,28.43Z"/><path class="cls-1" d="M521,30a1.85,1.85,0,0,1,.74,2.39c-.71,1.53-1.23,2.7-2.89,3.4s-4.09,1.66-5,.22-.88-3.46.78-5.4S520.34,29.34,521,30Z"/><path class="cls-1" d="M523.84,36.13a2.11,2.11,0,0,1,1.58,2.55s0,2.43-3.39,4.48A5,5,0,0,1,516.6,41C514.74,38.22,520.92,34.73,523.84,36.13Z"/><path class="cls-1" d="M514.08,51.73c4.68-1,5.67-4.6,5.67-4.6.64-2.09-1.11-2.49-3.15-3.1s-3.52,1.37-3.52,1.37-1.68,2.73-1.08,5.12A1.6,1.6,0,0,0,514.08,51.73Z"/><path class="cls-1" d="M505.75,50.63c1,1,2.3,1.67,3.71.95s1.61-2.53,1.89-4.53a20.49,20.49,0,0,1,1.19-2.83c1-2,2.51-3.09,1.33-5.37-.92-1.79-3.51-1.34-4.91-1.75a14,14,0,0,1-3.59-1.29c-1.32-.85-2.65-1.69-4.06-1a3,3,0,0,0-1.61,3.69S502.29,47.1,505.75,50.63Z"/><path class="cls-1" d="M642.72,32a4,4,0,0,0-2.27-1.26c-1.48-.29-2.57-.37-2.8,1.22s1.42,2.54,2.3,2.67S643.91,33.76,642.72,32Z"/><path class="cls-1" d="M646.84,37.27a1.17,1.17,0,0,1-.7,1.41,3.49,3.49,0,0,1-2.79.28c-1.06-.4-2.58-1-2.35-2.05a2.79,2.79,0,0,1,2.7-2.12C645.29,34.63,646.83,36.69,646.84,37.27Z"/><path class="cls-1" d="M645.48,41.29a1.33,1.33,0,0,1-.4,1.85s-1,1.11-3.48.56a3.13,3.13,0,0,1-1.52-3.35C640.43,38.29,644.76,39.39,645.48,41.29Z"/><path class="cls-1" d="M634.27,44.15a4.53,4.53,0,0,0,4.57.37c1.2-.68.58-1.62-.09-2.77a2.24,2.24,0,0,0-2.19-.92,5,5,0,0,0-2.71,1.86A1,1,0,0,0,634.27,44.15Z"/><path class="cls-1" d="M631,40a1.92,1.92,0,0,0,1.28,2c.95.28,1.83-.45,2.82-1.24a13.62,13.62,0,0,1,1.78-.76c1.31-.46,2.48-.32,2.93-1.87.36-1.21-1-2.13-1.47-2.92a8.75,8.75,0,0,1-1.07-2.15c-.23-1-.47-1.92-1.42-2.2a1.9,1.9,0,0,0-2.34,1S630.92,36.93,631,40Z"/><path class="cls-1" d="M711,31a4,4,0,0,0-2.27-1.26c-1.48-.29-2.57-.37-2.8,1.22s1.42,2.54,2.3,2.67S712.21,32.76,711,31Z"/><path class="cls-1" d="M715.15,36.27a1.18,1.18,0,0,1-.71,1.41,3.49,3.49,0,0,1-2.79.28c-1.06-.4-2.58-1-2.35-2.05a2.79,2.79,0,0,1,2.7-2.12C713.59,33.63,715.13,35.69,715.15,36.27Z"/><path class="cls-1" d="M713.78,40.3a1.32,1.32,0,0,1-.4,1.84s-1,1.11-3.48.56a3.13,3.13,0,0,1-1.52-3.35C708.73,37.29,713.06,38.39,713.78,40.3Z"/><path class="cls-1" d="M702.57,43.15a4.53,4.53,0,0,0,4.57.37c1.2-.68.58-1.62-.09-2.77a2.24,2.24,0,0,0-2.19-.92,5,5,0,0,0-2.71,1.86A1,1,0,0,0,702.57,43.15Z"/><path class="cls-1" d="M699.25,39a1.94,1.94,0,0,0,1.28,2c1,.28,1.83-.45,2.82-1.23a12.89,12.89,0,0,1,1.78-.77c1.31-.46,2.48-.32,2.94-1.87.35-1.21-1-2.13-1.48-2.92a8.75,8.75,0,0,1-1.07-2.15c-.23-1-.47-1.92-1.42-2.2a1.9,1.9,0,0,0-2.34,1S699.22,35.93,699.25,39Z"/><path class="cls-1" d="M611.47,52.29A4.07,4.07,0,0,0,609.21,51c-1.49-.28-2.58-.37-2.81,1.22s1.42,2.54,2.3,2.67S612.66,54.09,611.47,52.29Z"/><path class="cls-1" d="M615.6,57.6a1.16,1.16,0,0,1-.7,1.4,3.46,3.46,0,0,1-2.79.29c-1.06-.4-2.58-1-2.36-2.06a2.79,2.79,0,0,1,2.7-2.11C614,55,615.58,57,615.6,57.6Z"/><path class="cls-1" d="M614.23,61.62a1.33,1.33,0,0,1-.4,1.85s-1,1.11-3.48.56a3.12,3.12,0,0,1-1.51-3.35C609.18,58.62,613.51,59.72,614.23,61.62Z"/><path class="cls-1" d="M603,64.48a4.56,4.56,0,0,0,4.57.37c1.2-.68.58-1.62-.08-2.78a2.27,2.27,0,0,0-2.2-.91A4.9,4.9,0,0,0,602.6,63,1,1,0,0,0,603,64.48Z"/><path class="cls-1" d="M599.71,60.36a1.94,1.94,0,0,0,1.27,2c1,.28,1.84-.45,2.82-1.24a14.48,14.48,0,0,1,1.78-.77c1.31-.45,2.48-.31,2.94-1.86.36-1.21-1-2.14-1.48-2.92A8.75,8.75,0,0,1,606,53.46c-.23-1-.47-1.92-1.42-2.2a1.89,1.89,0,0,0-2.34,1S599.67,57.25,599.71,60.36Z"/><path class="cls-1" d="M476.6,132.25a6.24,6.24,0,0,0-3.32,2.23c-1.44,1.84-2.32,3.28-.3,4.71s4.49-.18,5.28-1.3S479.89,131.87,476.6,132.25Z"/><path class="cls-1" d="M486.77,130.31a1.79,1.79,0,0,1,1.44,1.94c-.17,1.63-.27,2.86-1.57,4s-3.2,2.83-4.47,1.79-1.92-2.89-1-5.19S486,129.92,486.77,130.31Z"/><path class="cls-1" d="M491.33,135a2,2,0,0,1,2.26,1.84s.79,2.22-1.67,5.18a4.82,4.82,0,0,1-5.66-.27C483.68,139.83,488.21,134.66,491.33,135Z"/><path class="cls-1" d="M487.39,152.4c4-2.43,3.72-6,3.72-6-.09-2.12-1.82-1.92-3.87-1.83s-2.79,2.38-2.79,2.38-.66,3,.65,5A1.55,1.55,0,0,0,487.39,152.4Z"/><path class="cls-1" d="M479.42,154.06a3,3,0,0,0,3.69-.32c1.06-1.11.67-2.83.29-4.74a20.06,20.06,0,0,1,.18-3c.3-2.12,1.31-3.63-.49-5.34-1.42-1.34-3.65-.1-5,0a13.35,13.35,0,0,1-3.71,0c-1.47-.35-3-.7-4,.41a2.93,2.93,0,0,0-.31,3.89S475.13,151.93,479.42,154.06Z"/><path class="cls-1" d="M585,3.68a4.84,4.84,0,0,0-3.09.49c-1.63.83-2.73,1.56-1.77,3.24s3.24,1.37,4.18.83S587.5,4.5,585,3.68Z"/><path class="cls-1" d="M592.9,5.67a1.41,1.41,0,0,1,.38,1.86c-.66,1.1-1.14,1.94-2.45,2.35s-3.21.95-3.78-.21a3.41,3.41,0,0,1,1-4C589.45,4.3,592.45,5.13,592.9,5.67Z"/><path class="cls-1" d="M594.59,10.52a1.6,1.6,0,0,1,1,2.05s-.18,1.84-2.9,3.13a3.79,3.79,0,0,1-3.94-2.07C587.55,11.41,592.48,9.24,594.59,10.52Z"/><path class="cls-1" d="M586,21.58a5.5,5.5,0,0,0,4.63-3c.64-1.54-.65-2-2.14-2.58a2.72,2.72,0,0,0-2.77.76,5.93,5.93,0,0,0-1.2,3.79A1.22,1.22,0,0,0,586,21.58Z"/><path class="cls-1" d="M579.81,20.11a2.33,2.33,0,0,0,2.73,1c1.12-.44,1.42-1.79,1.77-3.28a17.19,17.19,0,0,1,1.12-2c.91-1.41,2.13-2.14,1.42-4-.56-1.42-2.56-1.28-3.58-1.69a10.71,10.71,0,0,1-2.62-1.25c-.94-.74-1.88-1.48-3-1a2.29,2.29,0,0,0-1.5,2.66S577.47,17.18,579.81,20.11Z"/><path class="cls-1" d="M685,56.42a4.94,4.94,0,0,0-2.21-2.23c-1.62-.84-2.86-1.3-3.66.46s.78,3.43,1.76,3.88S685.72,58.91,685,56.42Z"/><path class="cls-1" d="M687.93,64a1.41,1.41,0,0,1-1.29,1.4,4.17,4.17,0,0,1-3.33-.62c-1.1-.82-2.65-2-2-3.18A3.37,3.37,0,0,1,685.12,60C687,60.38,688.11,63.3,687.93,64Z"/><path class="cls-1" d="M685,68.18a1.61,1.61,0,0,1-1.09,2s-1.59.93-4.23-.53a3.81,3.81,0,0,1-.62-4.41C680.14,63,684.79,65.72,685,68.18Z"/><path class="cls-1" d="M671,67.68a5.49,5.49,0,0,0,5.18,2c1.62-.38,1.22-1.68.84-3.25a2.69,2.69,0,0,0-2.23-1.8A6,6,0,0,0,671,65.85,1.22,1.22,0,0,0,671,67.68Z"/><path class="cls-1" d="M668.56,61.78a2.33,2.33,0,0,0,.78,2.8c1,.65,2.28.1,3.7-.47a16.31,16.31,0,0,1,2.32-.29c1.67-.08,3,.47,4-1.17.83-1.28-.46-2.82-.72-3.89a10.77,10.77,0,0,1-.51-2.86c.05-1.18.11-2.38-.91-3a2.28,2.28,0,0,0-3,.33S669.57,58.17,668.56,61.78Z"/><path class="cls-1" d="M554.51,46.4a4.92,4.92,0,0,0-2.92,1.09c-1.42,1.14-2.35,2.07-1.07,3.52s3.43.68,4.24,0S557.08,46.71,554.51,46.4Z"/><path class="cls-1" d="M562.58,46.76a1.42,1.42,0,0,1,.75,1.74,4.18,4.18,0,0,1-1.92,2.78c-1.19.66-2.94,1.57-3.72.56a3.38,3.38,0,0,1,.16-4.13C559,46.12,562,46.33,562.58,46.76Z"/><path class="cls-1" d="M565.2,51.16a1.6,1.6,0,0,1,1.39,1.8s.19,1.82-2.21,3.63a3.76,3.76,0,0,1-4.25-1.23C558.52,53.43,562.89,50.33,565.2,51.16Z"/><path class="cls-1" d="M559.07,63.65a5.45,5.45,0,0,0,3.9-3.9c.32-1.62-1-1.79-2.6-2.08A2.69,2.69,0,0,0,557.82,59a5.94,5.94,0,0,0-.41,3.94A1.21,1.21,0,0,0,559.07,63.65Z"/><path class="cls-1" d="M552.71,63.47a2.33,2.33,0,0,0,2.86.42c1-.65,1-2,1.08-3.55a14.7,14.7,0,0,1,.68-2.22c.6-1.56,1.64-2.52.58-4.14-.83-1.28-2.75-.74-3.83-.94a10.65,10.65,0,0,1-2.8-.69c-1-.54-2.12-1.07-3.12-.42a2.29,2.29,0,0,0-.94,2.9S549.84,61.08,552.71,63.47Z"/><path class="cls-1" d="M727.64,139.73a4.71,4.71,0,0,0-2.77-1.14c-1.75-.12-3-.07-3.06,1.79s2,2.72,3,2.74S729.25,141.62,727.64,139.73Z"/><path class="cls-1" d="M733.1,145.25a1.36,1.36,0,0,1-.61,1.71,4.08,4.08,0,0,1-3.17.71c-1.27-.32-3.09-.81-3-2a3.23,3.23,0,0,1,2.8-2.8C731,142.43,733,144.58,733.1,145.25Z"/><path class="cls-1" d="M732.08,150.05a1.53,1.53,0,0,1-.2,2.17s-1,1.42-3.92,1.12a3.62,3.62,0,0,1-2.2-3.63C725.88,147.3,731,148,732.08,150.05Z"/><path class="cls-1" d="M719.61,154.86a5.25,5.25,0,0,0,5.3-.2c1.28-.94.44-1.93-.48-3.17a2.6,2.6,0,0,0-2.64-.74,5.67,5.67,0,0,0-2.86,2.5A1.16,1.16,0,0,0,719.61,154.86Z"/><path class="cls-1" d="M715.25,150.59a2.24,2.24,0,0,0,1.74,2.17c1.13.19,2-.77,3.07-1.81a16,16,0,0,1,1.93-1.12c1.44-.7,2.8-.71,3.11-2.54.25-1.44-1.46-2.31-2.09-3.16a10,10,0,0,1-1.52-2.31c-.4-1.07-.8-2.14-1.94-2.33a2.2,2.2,0,0,0-2.54,1.43S714.78,147,715.25,150.59Z"/><path class="cls-1" d="M738.73,62.61a4.91,4.91,0,0,0-1.67-2.6c-1.4-1.13-2.49-1.83-3.63-.3s.06,3.46.91,4.1S739,65.16,738.73,62.61Z"/><path class="cls-1" d="M740.07,70.49a1.39,1.39,0,0,1-1.53,1.08,4.13,4.13,0,0,1-3.09-1.27c-.88-1-2.13-2.52-1.31-3.48a3.33,3.33,0,0,1,4-.7C739.92,66.85,740.37,69.87,740.07,70.49Z"/><path class="cls-1" d="M736.37,73.94a1.57,1.57,0,0,1-1.45,1.71s-1.73.58-4-1.37a3.71,3.71,0,0,1,.29-4.36C732.77,68,736.68,71.53,736.37,73.94Z"/><path class="cls-1" d="M723,70.62a5.42,5.42,0,0,0,4.58,3c1.64,0,1.52-1.38,1.47-3a2.67,2.67,0,0,0-1.78-2.19,5.87,5.87,0,0,0-3.89.42A1.2,1.2,0,0,0,723,70.62Z"/><path class="cls-1" d="M721.85,64.44A2.32,2.32,0,0,0,722,67.3c.84.83,2.18.56,3.66.29a16.6,16.6,0,0,1,2.29.19c1.63.27,2.78,1.07,4.13-.29,1.06-1.07.13-2.82.1-3.9a10.53,10.53,0,0,1,.08-2.86c.3-1.13.59-2.27-.25-3.1a2.27,2.27,0,0,0-3-.3S723.56,61.17,721.85,64.44Z"/><text class="cls-2" transform="translate(43.9 122.41)">H<tspan class="cls-3" x="73.76" y="0">ue</tspan><tspan class="cls-4" x="147.6" y="0">l</tspan><tspan class="cls-3" x="167.99" y="0">l</tspan><tspan class="cls-5" x="188.68" y="0">i</tspan><tspan class="cls-3" x="210.99" y="0">tas de </tspan><tspan x="401.91" y="0">C</tspan><tspan class="cls-3" x="464.41" y="0">olombia</tspan></text><ellipse class="cls-1" cx="583.39" cy="105.8" rx="6.87" ry="7.46"/><ellipse class="cls-1" cx="375.7" cy="105.8" rx="6.61" ry="8.16"/><path class="cls-6" d="M88,86.51A5.18,5.18,0,0,0,85.2,88c-1.29,1.29-2.11,2.32-.74,3.54s3.42.17,4.15-.62S90.51,86.45,88,86.51Z"/><path class="cls-6" d="M95.9,85.74a1.28,1.28,0,0,1,.88,1.57,4.36,4.36,0,0,1-1.63,2.94c-1.11.8-2.75,1.92-3.6,1s-1.13-2.31-.19-4S95.33,85.39,95.9,85.74Z"/><path class="cls-6" d="M98.85,89.6a1.47,1.47,0,0,1,1.51,1.54s.35,1.73-1.84,3.8a3.7,3.7,0,0,1-4.27-.59C92.5,92.72,96.51,89.13,98.85,89.6Z"/><path class="cls-6" d="M93.93,102.48a5.72,5.72,0,0,0,3.49-4.3c.16-1.61-1.17-1.58-2.74-1.64a2.85,2.85,0,0,0-2.38,1.6,5.71,5.71,0,0,0-.06,3.84A1.17,1.17,0,0,0,93.93,102.48Z"/><path class="cls-6" d="M87.69,103.19a2.3,2.3,0,0,0,2.84,0c.93-.77.83-2.1.74-3.57a16.93,16.93,0,0,1,.48-2.23c.46-1.58,1.39-2.66.21-4.07C91,92.22,89.2,93,88.13,93a10.11,10.11,0,0,1-2.8-.27c-1.08-.37-2.17-.74-3.1,0a2.29,2.29,0,0,0-.66,2.92S84.68,101.29,87.69,103.19Z"/><path class="cls-6" d="M581.22,99.75a4.86,4.86,0,0,0-2.39,1.7c-1,1.35-1.67,2.4-.25,3.37s3.19-.26,3.77-1.08S583.57,99.39,581.22,99.75Z"/><path class="cls-6" d="M588.48,98.06a1.21,1.21,0,0,1,1,1.35,4.09,4.09,0,0,1-1.16,2.93c-.93.88-2.31,2.11-3.2,1.41a3,3,0,0,1-.67-3.67C585.12,98.4,587.91,97.81,588.48,98.06Z"/><path class="cls-6" d="M591.68,101.28a1.38,1.38,0,0,1,1.59,1.25s.54,1.56-1.24,3.75a3.45,3.45,0,0,1-4,0C586.18,105,589.46,101.13,591.68,101.28Z"/><path class="cls-6" d="M588.7,113.83a5.35,5.35,0,0,0,2.71-4.41c0-1.52-1.28-1.32-2.74-1.19s-2,1.78-2,1.78a5.39,5.39,0,0,0,.41,3.57A1.1,1.1,0,0,0,588.7,113.83Z"/><path class="cls-6" d="M583,115.25a2.13,2.13,0,0,0,2.63-.34c.76-.83.51-2,.25-3.4a15.07,15.07,0,0,1,.16-2.13c.24-1.52,1-2.63-.3-3.8-1-.91-2.59,0-3.59.13a9.65,9.65,0,0,1-2.63.09c-1-.21-2.1-.41-2.87.41a2.13,2.13,0,0,0-.25,2.79S580,113.86,583,115.25Z"/><path class="cls-6" d="M372,98.47a4.26,4.26,0,0,0-2.28,1.2c-1.07,1.07-1.75,1.91-.62,2.92s2.82.15,3.42-.5S374.09,98.42,372,98.47Z"/><path class="cls-6" d="M378.54,97.84a1.07,1.07,0,0,1,.72,1.3,3.53,3.53,0,0,1-1.35,2.42c-.92.66-2.27,1.58-3,.87a2.66,2.66,0,0,1-.15-3.3C375.56,97.75,378.07,97.56,378.54,97.84Z"/><path class="cls-6" d="M381,101a1.21,1.21,0,0,1,1.24,1.28s.29,1.42-1.52,3.13a3.05,3.05,0,0,1-3.52-.49C375.73,103.6,379,100.64,381,101Z"/><path class="cls-6" d="M376.89,111.65a4.68,4.68,0,0,0,2.88-3.53c.15-1.33-.95-1.31-2.25-1.37a2.35,2.35,0,0,0-2,1.33,4.71,4.71,0,0,0-.06,3.17A1,1,0,0,0,376.89,111.65Z"/><path class="cls-6" d="M371.75,112.23a1.89,1.89,0,0,0,2.34,0c.76-.64.68-1.73.61-3a12.83,12.83,0,0,1,.4-1.84c.38-1.3,1.15-2.19.18-3.36-.76-.92-2.28-.27-3.16-.3a8.3,8.3,0,0,1-2.32-.24c-.89-.3-1.79-.6-2.55,0a1.88,1.88,0,0,0-.55,2.41S369.26,110.66,371.75,112.23Z"/></svg>