<svg id="Capa_1" data-name="Capa 1" xmlns="http://www.w3.org/2000/svg" viewBox="0 0 500 80"><defs><style>.cls-1,.cls-2,.cls-3{fill:#fff;}.cls-2,.cls-4{font-size:41.91px;}.cls-2,.cls-3{font-family:eacologica-round_slab, eacologica round slab;}.cls-3{font-size:59.96px;}.cls-5{letter-spacing:0em;}.cls-6{letter-spacing:0em;}.cls-7{letter-spacing:-0.01em;}</style></defs><path class="cls-1" d="M245.25,56.84c-.6-.34-.9-.74-.9-1.19V34.78a3.4,3.4,0,0,0-1-2.49,3.5,3.5,0,0,0-2.55-1h-4.41a3.18,3.18,0,0,0-2.27.89,3.09,3.09,0,0,0-.95,2.34,3,3,0,0,0,.71,2,3.05,3.05,0,0,0,2,1v4.16l-.75-.64a6.14,6.14,0,0,0-1-.63,5.71,5.71,0,0,0-1.35-.49,8.16,8.16,0,0,0-1.91-.19,9.79,9.79,0,0,0-4.16.85,9,9,0,0,0-3.15,2.4,11.11,11.11,0,0,0-2,3.76,15.57,15.57,0,0,0-.73,4.93,17.2,17.2,0,0,0,.66,4.93,11.21,11.21,0,0,0,1.91,3.78,8.57,8.57,0,0,0,3,2.43,8.92,8.92,0,0,0,3.9.85,7.47,7.47,0,0,0,2.62-.41,7.26,7.26,0,0,0,1.82-1,5.58,5.58,0,0,0,1.2-1.24,5.91,5.91,0,0,0,.66-1.21V61a1.8,1.8,0,0,0,.15.7,2,2,0,0,0,.49.68,2.74,2.74,0,0,0,.91.54,3.87,3.87,0,0,0,1.37.21h3.9A3.34,3.34,0,0,0,245.7,62a3.25,3.25,0,0,0,.92-2.33A3.33,3.33,0,0,0,245.25,56.84ZM231.43,47.5a2.53,2.53,0,0,1,2.55-.87.72.72,0,0,1,.49.88,2.37,2.37,0,0,1-.92,1.64c-.62.45-1.53,1.08-2,.59A1.81,1.81,0,0,1,231.43,47.5Zm-3.44.37a2.85,2.85,0,0,1,1.55-.81c1.42,0,.76,2,.35,2.45s-1.55,1-2.32.34S227.26,48.59,228,47.87Zm3,8.53a1.28,1.28,0,0,1-1.59,0c-1.69-1.07-3.42-4.23-3.42-4.23a1.27,1.27,0,0,1,.37-1.63c.52-.43,1.13-.23,1.73,0a5.84,5.84,0,0,0,1.57.16c.6,0,1.63-.42,2.15.2.65.8.13,1.4-.13,2.28a8.84,8.84,0,0,0-.26,1.25C231.42,55.23,231.48,56,231,56.4Zm1.9-.4a.65.65,0,0,1-.94-.28,3.16,3.16,0,0,1,0-2.15,1.58,1.58,0,0,1,1.33-.9c.88,0,1.62,0,1.53.93A3.22,3.22,0,0,1,232.86,56Zm2.58-4.22a2.07,2.07,0,0,1-2.39-.33c-1-.91,1.27-2.92,2.57-2.66a.83.83,0,0,1,.85.87S236.66,50.62,235.44,51.78Z"/><text class="cls-2" transform="translate(246.84 62.49)">e</text><path class="cls-1" d="M388.07,47.33a11.77,11.77,0,0,0-2.76-3.89,12.22,12.22,0,0,0-4.12-2.52,14.36,14.36,0,0,0-5.06-.89,14.13,14.13,0,0,0-5,.89,12.33,12.33,0,0,0-4.1,2.52,11.77,11.77,0,0,0-2.76,3.89,12.23,12.23,0,0,0-1,5,12.09,12.09,0,0,0,1,5A11.25,11.25,0,0,0,367,61.21a12.58,12.58,0,0,0,4.12,2.43,15.37,15.37,0,0,0,10.08,0,12.29,12.29,0,0,0,4.1-2.43,11.33,11.33,0,0,0,2.76-3.83,12.09,12.09,0,0,0,1-5A12.23,12.23,0,0,0,388.07,47.33Zm-11.83,1.3a2.55,2.55,0,0,1,2.55-.87.72.72,0,0,1,.49.88,2.45,2.45,0,0,1-.92,1.64c-.62.45-1.54,1.08-2,.59A1.8,1.8,0,0,1,376.24,48.63ZM372.8,49a2.83,2.83,0,0,1,1.54-.81c1.43,0,.77,2,.36,2.45s-1.55,1-2.32.34S372.07,49.72,372.8,49Zm3,8.53a1.28,1.28,0,0,1-1.59,0c-1.69-1.06-3.42-4.23-3.42-4.23a1.26,1.26,0,0,1,.37-1.63c.52-.43,1.13-.23,1.73,0a5.84,5.84,0,0,0,1.57.16c.6,0,1.63-.42,2.14.21.66.79.14,1.39-.12,2.27a9.87,9.87,0,0,0-.27,1.25C376.23,56.36,376.29,57.1,375.77,57.53Zm1.9-.4a.66.66,0,0,1-.95-.28,3.23,3.23,0,0,1,0-2.15,1.62,1.62,0,0,1,1.34-.9c.87,0,1.62,0,1.52.93A3.19,3.19,0,0,1,377.67,57.13Zm2.57-4.22a2.06,2.06,0,0,1-2.39-.33c-1-.91,1.28-2.92,2.58-2.66a.83.83,0,0,1,.85.87S381.47,51.76,380.24,52.91Z"/><text class="cls-3" transform="translate(279.65 64.75)">C<tspan class="cls-4" x="42.27" y="0">ol</tspan></text><text class="cls-2" transform="translate(390.52 63.62)">mbia</text><text class="cls-2" transform="translate(55.65 63.62)">ue<tspan class="cls-5" x="50.08" y="0">l</tspan><tspan class="cls-6" x="63.91" y="0">l</tspan><tspan class="cls-7" x="77.95" y="0">i</tspan><tspan x="93.07" y="0">tas</tspan></text><path class="cls-1" d="M50.36,54.57V28.13a4.72,4.72,0,0,0,1.76-.45,4.56,4.56,0,0,0,1.41-1.05,4.42,4.42,0,0,0,.9-1.5,4.47,4.47,0,0,0,.24-1.8,4.64,4.64,0,0,0-1.32-3A4.16,4.16,0,0,0,50.42,19H38.06a3.75,3.75,0,0,0-1.76.42,5.29,5.29,0,0,0-1.41,1.05A4.49,4.49,0,0,0,34,22a4,4,0,0,0-.27,1.74A4.4,4.4,0,0,0,35,26.78a4.57,4.57,0,0,0,3,1.35v8.39H26.25V28.13a5,5,0,0,0,1.8-.45,4.14,4.14,0,0,0,1.41-1.05,5.16,5.16,0,0,0,.9-1.5,4.15,4.15,0,0,0,.27-1.8,4.62,4.62,0,0,0-1.38-3.06A4.17,4.17,0,0,0,26.19,19H14a4.29,4.29,0,0,0-3.18,1.35,4.51,4.51,0,0,0-1.32,3.27,4.37,4.37,0,0,0,1.26,3.12,4.28,4.28,0,0,0,3.06,1.38V54.57a4.72,4.72,0,0,0-1.77.45,4.43,4.43,0,0,0-1.38,1,4.69,4.69,0,0,0-.9,1.5,4.34,4.34,0,0,0-.27,1.83,4.41,4.41,0,0,0,1.41,3A4.32,4.32,0,0,0,14,63.62H26.25A4.72,4.72,0,0,0,28,63.17a4.41,4.41,0,0,0,1.41-1.05,4.68,4.68,0,0,0,.93-1.49,4.15,4.15,0,0,0,.27-1.8,4.52,4.52,0,0,0-1.32-3,4.59,4.59,0,0,0-3.06-1.32v-8h8.6c-.3-.49-.48-.82-.48-.82a1.54,1.54,0,0,1,.45-2c.62-.52,1.36-.27,2.09,0a7.07,7.07,0,0,0,1.91.19c.72,0,2-.51,2.59.24.8,1,.17,1.69-.14,2.76A11.22,11.22,0,0,0,41,48.43c0,1,.12,1.9-.5,2.42a1.56,1.56,0,0,1-1.93,0c-.17-.11-.34-.24-.52-.38v4a4.67,4.67,0,0,0-1.76.45,4.81,4.81,0,0,0-1.41,1,4.07,4.07,0,0,0-.9,1.5,4.67,4.67,0,0,0-.24,1.83,4.14,4.14,0,0,0,1.32,3,4.75,4.75,0,0,0,3.05,1.32H50.42a4.56,4.56,0,0,0,1.7-.45,4.41,4.41,0,0,0,1.41-1.05,4.28,4.28,0,0,0,.9-1.49,4.62,4.62,0,0,0-1.08-4.74A4.51,4.51,0,0,0,50.36,54.57ZM39.14,42.5c-.49.54-1.88,1.25-2.81.42s-.38-1.52.5-2.4a3.55,3.55,0,0,1,1.88-1C40.43,39.49,39.63,42,39.14,42.5Zm2,.28A2.2,2.2,0,0,1,41,40.07,3.07,3.07,0,0,1,44.09,39a.86.86,0,0,1,.59,1.06,2.94,2.94,0,0,1-1.11,2C42.82,42.61,41.71,43.37,41.13,42.78Zm1.62,7.58A.8.8,0,0,1,41.6,50a3.92,3.92,0,0,1,0-2.6,2,2,0,0,1,1.62-1.09c1.06.05,2,0,1.85,1.12A3.84,3.84,0,0,1,42.75,50.36Zm3.11-5.11a2.52,2.52,0,0,1-2.9-.4c-1.18-1.11,1.54-3.55,3.12-3.22a1,1,0,0,1,1,1S47.35,43.84,45.86,45.25Z"/></svg>