<svg id="Capa_1" data-name="Capa 1" xmlns="http://www.w3.org/2000/svg" viewBox="0 0 382.68 368.5"><defs><style>.cls-1{fill:#fff;stroke-width:0.5px;}.cls-1,.cls-2,.cls-4{stroke:#000;stroke-miterlimit:10;}.cls-2,.cls-4{fill:none;}.cls-2{stroke-width:2.09px;}.cls-3{fill:#030505;}.cls-4{stroke-width:2.45px;}</style></defs><path class="cls-1" d="M105.19,312.42a3.89,3.89,0,0,0-1.76-1.76c-1.29-.66-2.27-1-2.91.39s.65,2.71,1.43,3.07S105.82,314.39,105.19,312.42Z"/><path class="cls-1" d="M107.6,318.4a1.11,1.11,0,0,1-1,1.11,3.31,3.31,0,0,1-2.65-.47c-.88-.65-2.12-1.62-1.64-2.52a2.7,2.7,0,0,1,3-1.24C106.87,315.55,107.74,317.86,107.6,318.4Z"/><path class="cls-1" d="M105.28,321.75a1.27,1.27,0,0,1-.85,1.6s-1.26.75-3.36-.4a3,3,0,0,1-.52-3.49C101.42,317.65,105.12,319.8,105.28,321.75Z"/><path class="cls-1" d="M94.19,321.43A4.35,4.35,0,0,0,98.31,323c1.28-.31,1-1.34.65-2.58A2.17,2.17,0,0,0,97.17,319a4.73,4.73,0,0,0-3,1A1,1,0,0,0,94.19,321.43Z"/><path class="cls-1" d="M92.22,316.76a1.84,1.84,0,0,0,.64,2.22c.8.51,1.81.07,2.93-.4a12.31,12.31,0,0,1,1.84-.24c1.32-.07,2.37.36,3.19-.94.66-1-.37-2.24-.58-3.09a8.53,8.53,0,0,1-.43-2.27c0-.94.07-1.89-.73-2.4a1.82,1.82,0,0,0-2.41.28S93,313.89,92.22,316.76Z"/><path class="cls-1" d="M183.75,347.39a3.93,3.93,0,0,0-2.43-.54c-1.45.14-2.47.36-2.25,1.89s2,1.94,2.85,1.82S185.33,348.72,183.75,347.39Z"/><path class="cls-1" d="M189,351.14a1.12,1.12,0,0,1-.27,1.49,3.32,3.32,0,0,1-2.48,1c-1.09-.08-2.65-.23-2.73-1.25a2.69,2.69,0,0,1,1.9-2.68C186.84,349.14,188.81,350.62,189,351.14Z"/><path class="cls-1" d="M188.82,355.22A1.28,1.28,0,0,1,189,357s-.67,1.3-3.06,1.46a3,3,0,0,1-2.3-2.67C183.36,353.83,187.64,353.66,188.82,355.22Z"/><path class="cls-1" d="M179.29,360.9a4.38,4.38,0,0,0,4.31-.9c.92-.95.09-1.65-.84-2.53a2.14,2.14,0,0,0-2.27-.24,4.69,4.69,0,0,0-2,2.45A1,1,0,0,0,179.29,360.9Z"/><path class="cls-1" d="M175.12,358a1.84,1.84,0,0,0,1.73,1.53c1,0,1.56-.91,2.26-1.9a12.55,12.55,0,0,1,1.42-1.19c1.08-.78,2.2-1,2.2-2.52,0-1.21-1.52-1.68-2.16-2.29A8.27,8.27,0,0,1,179,350c-.47-.82-.95-1.64-1.91-1.64a1.83,1.83,0,0,0-1.88,1.53S174.24,355.17,175.12,358Z"/><path class="cls-1" d="M125.28,338a4.91,4.91,0,0,0-2.72-1.52c-1.77-.35-3.08-.45-3.36,1.45s1.7,3.05,2.75,3.21S126.7,340.12,125.28,338Z"/><path class="cls-1" d="M130.2,344.33a1.39,1.39,0,0,1-.84,1.68,4.18,4.18,0,0,1-3.35.34c-1.26-.49-3.08-1.23-2.81-2.47a3.34,3.34,0,0,1,3.24-2.53C128.35,341.16,130.18,343.63,130.2,344.33Z"/><path class="cls-1" d="M128.55,349.14a1.59,1.59,0,0,1-.48,2.21s-1.26,1.33-4.17.67a3.77,3.77,0,0,1-1.81-4C122.52,345.54,127.69,346.86,128.55,349.14Z"/><path class="cls-1" d="M115.12,352.53a5.42,5.42,0,0,0,5.47.46c1.44-.81.7-1.94-.09-3.32a2.69,2.69,0,0,0-2.63-1.1,5.85,5.85,0,0,0-3.25,2.22A1.2,1.2,0,0,0,115.12,352.53Z"/><path class="cls-1" d="M111.16,347.59a2.33,2.33,0,0,0,1.52,2.45c1.14.34,2.2-.54,3.39-1.48a16.62,16.62,0,0,1,2.12-.91c1.58-.54,3-.37,3.53-2.22.43-1.46-1.21-2.56-1.76-3.51a10.77,10.77,0,0,1-1.28-2.58c-.27-1.14-.55-2.3-1.7-2.64a2.26,2.26,0,0,0-2.79,1.16S111.13,343.87,111.16,347.59Z"/><path class="cls-1" d="M206.74,330.24a4.06,4.06,0,0,0-2.6-.08c-1.46.42-2.47.84-1.95,2.37s2.43,1.61,3.28,1.32S208.62,331.3,206.74,330.24Z"/><path class="cls-1" d="M212.84,333.08a1.17,1.17,0,0,1,0,1.58,3.46,3.46,0,0,1-2.36,1.53c-1.12.13-2.76.28-3-.75a2.82,2.82,0,0,1,1.44-3.13C210.25,331.44,212.56,332.57,212.84,333.08Z"/><path class="cls-1" d="M213.47,337.3a1.33,1.33,0,0,1,.49,1.83s-.43,1.47-2.85,2.09a3.13,3.13,0,0,1-2.89-2.29C207.59,336.93,212,335.93,213.47,337.3Z"/><path class="cls-1" d="M204.77,345a4.57,4.57,0,0,0,4.25-1.76c.76-1.16-.22-1.71-1.34-2.44a2.26,2.26,0,0,0-2.38.19,5,5,0,0,0-1.57,2.9A1,1,0,0,0,204.77,345Z"/><path class="cls-1" d="M199.93,342.82a1.94,1.94,0,0,0,2.07,1.24c1-.19,1.44-1.24,2-2.4a13,13,0,0,1,1.23-1.5c1-1,2.06-1.41,1.77-3-.24-1.25-1.89-1.44-2.66-1.94a8.83,8.83,0,0,1-1.94-1.42c-.64-.75-1.29-1.5-2.28-1.31a1.89,1.89,0,0,0-1.63,1.93S198.48,340.07,199.93,342.82Z"/><path class="cls-1" d="M244.13,340.17a4.13,4.13,0,0,0-2.55.51c-1.32.75-2.2,1.39-1.35,2.76s2.74,1,3.5.54S246.21,340.77,244.13,340.17Z"/><path class="cls-1" d="M250.73,341.54a1.18,1.18,0,0,1,.38,1.53c-.51.94-.88,1.65-2,2s-2.63.9-3.13,0a2.81,2.81,0,0,1,.68-3.37C247.83,340.53,250.34,341.11,250.73,341.54Z"/><path class="cls-1" d="M252.3,345.5a1.34,1.34,0,0,1,.9,1.67s-.08,1.53-2.3,2.69a3.13,3.13,0,0,1-3.33-1.57C246.5,346.49,250.51,344.52,252.3,345.5Z"/><path class="cls-1" d="M245.59,355a4.57,4.57,0,0,0,3.74-2.69c.47-1.3-.61-1.61-1.87-2.06a2.24,2.24,0,0,0-2.27.73,4.88,4.88,0,0,0-.86,3.18A1,1,0,0,0,245.59,355Z"/><path class="cls-1" d="M240.39,354a1.93,1.93,0,0,0,2.3.73c.91-.4,1.11-1.53,1.35-2.77a12.45,12.45,0,0,1,.86-1.74c.7-1.2,1.68-1.86,1-3.33-.51-1.16-2.17-1-3-1.28a9,9,0,0,1-2.21-.94c-.8-.58-1.61-1.16-2.52-.76a1.91,1.91,0,0,0-1.15,2.26S238.34,351.63,240.39,354Z"/><path class="cls-1" d="M290.89,41.81a3.6,3.6,0,0,0,1.46,1.74c1.13.7,2,1.11,2.68-.12s-.37-2.52-1-2.9S290.48,40,290.89,41.81Z"/><path class="cls-1" d="M289.17,36.18a1,1,0,0,1,1-.93,3,3,0,0,1,2.37.64c.74.66,1.79,1.64,1.29,2.42a2.46,2.46,0,0,1-2.87.89C289.62,38.83,289,36.66,289.17,36.18Z"/><path class="cls-1" d="M291.55,33.32a1.16,1.16,0,0,1,.9-1.39s1.2-.58,3,.63a2.74,2.74,0,0,1,.19,3.21C294.74,37.35,291.55,35.1,291.55,33.32Z"/><path class="cls-1" d="M301.62,34.48A4,4,0,0,0,298,32.75c-1.19.18-1,1.14-.8,2.3s1.52,1.43,1.52,1.43a4.33,4.33,0,0,0,2.8-.67A.89.89,0,0,0,301.62,34.48Z"/><path class="cls-1" d="M303,38.89a1.69,1.69,0,0,0-.4-2.07c-.7-.53-1.65-.21-2.7.13a12,12,0,0,1-1.69.07c-1.22,0-2.13-.51-3,.61-.67.88.17,2.07.29,2.86a7.65,7.65,0,0,1,.21,2.09c-.11.85-.22,1.71.48,2.24a1.65,1.65,0,0,0,2.21-.06S302.1,41.44,303,38.89Z"/><path class="cls-1" d="M337.12,90.5a4.29,4.29,0,0,0,1.75,2.08c1.35.84,2.38,1.33,3.2-.14s-.44-3-1.25-3.48S336.63,88.3,337.12,90.5Z"/><path class="cls-1" d="M335.07,83.77a1.22,1.22,0,0,1,1.21-1.12,3.67,3.67,0,0,1,2.84.77c.89.78,2.14,2,1.54,2.89a2.94,2.94,0,0,1-3.44,1.07C335.6,86.93,334.87,84.34,335.07,83.77Z"/><path class="cls-1" d="M337.91,80.34A1.4,1.4,0,0,1,339,78.68s1.44-.69,3.62.75a3.29,3.29,0,0,1,.23,3.85C341.73,85.16,337.91,82.48,337.91,80.34Z"/><path class="cls-1" d="M350,81.74a4.76,4.76,0,0,0-4.33-2.08c-1.43.22-1.17,1.37-1,2.75s1.81,1.71,1.81,1.71a5.16,5.16,0,0,0,3.35-.8A1.05,1.05,0,0,0,350,81.74Z"/><path class="cls-1" d="M351.66,87a2,2,0,0,0-.49-2.48c-.83-.63-2-.24-3.22.16a14.91,14.91,0,0,1-2,.09c-1.45,0-2.54-.62-3.57.72-.81,1,.2,2.47.35,3.42a9.12,9.12,0,0,1,.25,2.5c-.14,1-.26,2,.57,2.69a2,2,0,0,0,2.64-.08S350.53,90.06,351.66,87Z"/><path class="cls-1" d="M305.41,68.51a4.54,4.54,0,0,0,.95,2.73c1,1.35,1.86,2.23,3.24,1.08s.71-3.17.07-3.94S305.75,66.13,305.41,68.51Z"/><path class="cls-1" d="M305.93,61a1.29,1.29,0,0,1,1.63-.65,3.87,3.87,0,0,1,2.53,1.84c.58,1.12,1.39,2.76.43,3.46a3.12,3.12,0,0,1-3.82-.24C305.25,64.38,305.51,61.52,305.93,61Z"/><path class="cls-1" d="M310.06,58.7a1.47,1.47,0,0,1,1.7-1.24s1.7-.15,3.32,2.12a3.5,3.5,0,0,1-1.24,3.92C312,65,309.24,60.82,310.06,58.7Z"/><path class="cls-1" d="M321.51,64.67A5.06,5.06,0,0,0,318,61c-1.5-.34-1.68.91-2,2.37a2.51,2.51,0,0,0,1.15,2.39,5.5,5.5,0,0,0,3.63.47A1.13,1.13,0,0,0,321.51,64.67Z"/><path class="cls-1" d="M321.2,70.56a2.17,2.17,0,0,0,.46-2.65c-.59-.94-1.86-1-3.27-1.07a15.63,15.63,0,0,1-2.05-.68c-1.43-.6-2.3-1.58-3.83-.64-1.2.74-.74,2.53-.95,3.53a9.91,9.91,0,0,1-.71,2.59c-.52,1-1,1.94-.45,2.88a2.1,2.1,0,0,0,2.66.93S318.92,73.17,321.2,70.56Z"/><path class="cls-1" d="M252.44,42.18a4.57,4.57,0,0,0,2.06,2c1.51.75,2.66,1.16,3.38-.48s-.77-3.15-1.68-3.56S251.69,39.9,252.44,42.18Z"/><path class="cls-1" d="M249.58,35.25a1.3,1.3,0,0,1,1.17-1.3,3.87,3.87,0,0,1,3.09.52c1,.75,2.47,1.86,1.92,2.92a3.13,3.13,0,0,1-3.53,1.47C250.46,38.56,249.43,35.88,249.58,35.25Z"/><path class="cls-1" d="M252.25,31.33a1.48,1.48,0,0,1,1-1.87s1.45-.88,3.91.44a3.49,3.49,0,0,1,.63,4.05C256.78,36.06,252.46,33.6,252.25,31.33Z"/><path class="cls-1" d="M265.16,31.6a5.08,5.08,0,0,0-4.81-1.76c-1.49.37-1.1,1.57-.73,3a2.49,2.49,0,0,0,2.09,1.63,5.49,5.49,0,0,0,3.47-1.19A1.13,1.13,0,0,0,265.16,31.6Z"/><path class="cls-1" d="M267.49,37a2.16,2.16,0,0,0-.76-2.58c-.94-.58-2.11-.06-3.4.49a14.79,14.79,0,0,1-2.14.3c-1.55.1-2.76-.4-3.71,1.13-.75,1.2.45,2.6.71,3.58a9.6,9.6,0,0,1,.51,2.63c0,1.1-.07,2.21.88,2.79a2.11,2.11,0,0,0,2.8-.35S266.61,40.37,267.49,37Z"/><path class="cls-1" d="M313.48,288.29a4.52,4.52,0,0,0-2.4,1.61c-1,1.34-1.67,2.38-.2,3.41s3.24-.13,3.81-.94S315.87,288,313.48,288.29Z"/><path class="cls-1" d="M320.84,286.87a1.29,1.29,0,0,1,1,1.4,3.89,3.89,0,0,1-1.12,2.92c-.94.85-2.32,2.05-3.24,1.31a3.14,3.14,0,0,1-.74-3.76C317.43,287.07,320.25,286.59,320.84,286.87Z"/><path class="cls-1" d="M324.15,290.26a1.47,1.47,0,0,1,1.63,1.32s.58,1.61-1.2,3.75a3.48,3.48,0,0,1-4.1-.19C318.61,293.76,321.89,290,324.15,290.26Z"/><path class="cls-1" d="M321.32,302.85a5.07,5.07,0,0,0,2.68-4.36c-.07-1.54-1.32-1.39-2.8-1.32s-2,1.72-2,1.72a5.54,5.54,0,0,0,.48,3.64A1.12,1.12,0,0,0,321.32,302.85Z"/><path class="cls-1" d="M315.55,304.06a2.16,2.16,0,0,0,2.68-.24c.76-.8.48-2.05.19-3.43a16,16,0,0,1,.13-2.15c.22-1.53.94-2.63-.36-3.86-1-1-2.64-.07-3.66,0a9.75,9.75,0,0,1-2.67,0c-1.07-.26-2.15-.51-2.91.3a2.12,2.12,0,0,0-.21,2.81S312.45,302.53,315.55,304.06Z"/><path class="cls-1" d="M42,230.39a4.06,4.06,0,0,0-.82-2.48c-.91-1.23-1.66-2-2.92-1s-.67,2.86-.11,3.56S41.69,232.54,42,230.39Z"/><path class="cls-1" d="M41.47,237.14a1.17,1.17,0,0,1-1.48.57A3.54,3.54,0,0,1,37.72,236c-.51-1-1.22-2.51-.35-3.13a2.82,2.82,0,0,1,3.45.26C42.12,234.12,41.86,236.7,41.47,237.14Z"/><path class="cls-1" d="M37.71,239.2a1.34,1.34,0,0,1-1.55,1.11s-1.53.1-3-2a3.17,3.17,0,0,1,1.16-3.53C36,233.53,38.48,237.29,37.71,239.2Z"/><path class="cls-1" d="M27.44,233.68a4.57,4.57,0,0,0,3.14,3.39c1.36.32,1.53-.81,1.83-2.11a2.27,2.27,0,0,0-1-2.18,5,5,0,0,0-3.28-.47A1,1,0,0,0,27.44,233.68Z"/><path class="cls-1" d="M27.78,228.36a2,2,0,0,0-.44,2.39c.52.86,1.67.92,2.94,1a13.26,13.26,0,0,1,1.84.63c1.29.56,2.06,1.46,3.45.62,1.1-.66.71-2.28.9-3.18a9,9,0,0,1,.67-2.32c.48-.87,1-1.75.44-2.61a1.91,1.91,0,0,0-2.39-.87S29.87,226,27.78,228.36Z"/><path class="cls-1" d="M35.64,263.66a3.67,3.67,0,0,0-.75-2.31c-.85-1.13-1.55-1.87-2.77-.89a2.46,2.46,0,0,0-.16,3.33C32.49,264.43,35.28,265.68,35.64,263.66Z"/><path class="cls-1" d="M35,270a1.17,1.17,0,0,1-1.43.55A3.14,3.14,0,0,1,31.44,269c-.48-.95-1.13-2.33-.29-2.93a2.74,2.74,0,0,1,3.3.19C35.67,267.16,35.37,269.58,35,270Z"/><path class="cls-1" d="M31.37,272a1.32,1.32,0,0,1-1.5,1.06s-1.47.13-2.8-1.78A3,3,0,0,1,28.23,268C29.84,266.71,32.13,270.19,31.37,272Z"/><path class="cls-1" d="M21.65,267a4.14,4.14,0,0,0,2.94,3.13c1.29.27,1.48-.79,1.79-2a2,2,0,0,0-.93-2,4.72,4.72,0,0,0-3.13-.38A1,1,0,0,0,21.65,267Z"/><path class="cls-1" d="M22.07,262a1.84,1.84,0,0,0-.46,2.25c.47.8,1.58.83,2.79.89a13.05,13.05,0,0,1,1.75.57c1.21.5,1.94,1.32,3.28.52,1.06-.64.71-2.15.92-3A8.58,8.58,0,0,1,31,261c.48-.82.95-1.65.47-2.45a1.78,1.78,0,0,0-2.27-.77S24.11,259.79,22.07,262Z"/><path class="cls-1" d="M78.51,313.77a4.73,4.73,0,0,0-2.13-2.14c-1.57-.8-2.76-1.24-3.53.47s.78,3.29,1.73,3.72S79.28,316.15,78.51,313.77Z"/><path class="cls-1" d="M81.44,321a1.36,1.36,0,0,1-1.24,1.35A4.09,4.09,0,0,1,77,321.8c-1.06-.79-2.56-2-2-3.06a3.28,3.28,0,0,1,3.7-1.51C80.54,317.56,81.6,320.36,81.44,321Z"/><path class="cls-1" d="M78.62,325.08a1.56,1.56,0,0,1-1,1.95s-1.53.9-4.08-.49a3.64,3.64,0,0,1-.62-4.23C73.93,320.11,78.42,322.72,78.62,325.08Z"/><path class="cls-1" d="M65.16,324.7a5.3,5.3,0,0,0,5,1.87c1.56-.37,1.16-1.62.79-3.13a2.61,2.61,0,0,0-2.16-1.72,5.71,5.71,0,0,0-3.63,1.22A1.17,1.17,0,0,0,65.16,324.7Z"/><path class="cls-1" d="M62.77,319a2.25,2.25,0,0,0,.78,2.69c1,.62,2.19.09,3.55-.48a15.15,15.15,0,0,1,2.23-.29c1.61-.09,2.88.43,3.88-1.15.79-1.24-.45-2.71-.71-3.74a10,10,0,0,1-.51-2.75c0-1.14.08-2.3-.89-2.92a2.23,2.23,0,0,0-2.93.34S63.72,315.55,62.77,319Z"/><path class="cls-1" d="M65.93,282.09a4.26,4.26,0,0,0-1.18-2.48c-1.11-1.16-2-1.9-3.17-.67s-.33,3.07.35,3.72S65.86,284.37,65.93,282.09Z"/><path class="cls-1" d="M66.24,289.21a1.23,1.23,0,0,1-1.47.78,3.65,3.65,0,0,1-2.58-1.46c-.67-1-1.61-2.47-.78-3.23a3,3,0,0,1,3.64-.17C66.52,286,66.58,288.7,66.24,289.21Z"/><path class="cls-1" d="M62.59,291.84a1.42,1.42,0,0,1-1.48,1.36s-1.58.31-3.35-1.66a3.31,3.31,0,0,1,.75-3.82C60.07,286.15,63.14,289.75,62.59,291.84Z"/><path class="cls-1" d="M51.15,287.43a4.82,4.82,0,0,0,3.72,3.13c1.45.15,1.49-1.05,1.63-2.45A2.38,2.38,0,0,0,55.16,286a5.18,5.18,0,0,0-3.48-.06A1.07,1.07,0,0,0,51.15,287.43Z"/><path class="cls-1" d="M50.81,281.83a2.06,2.06,0,0,0-.15,2.55c.65.83,1.86.74,3.2.66a14.21,14.21,0,0,1,2,.43c1.41.41,2.34,1.25,3.68.19,1.06-.82.43-2.47.52-3.43a9.38,9.38,0,0,1,.4-2.52c.38-1,.77-1.94.12-2.77a2,2,0,0,0-2.62-.59S52.69,279.13,50.81,281.83Z"/><path class="cls-1" d="M131.63,43.63a3.05,3.05,0,0,0,1.92-.31c1-.52,1.69-1,1.09-2a2,2,0,0,0-2.59-.5C131.47,41.13,130.1,43.12,131.63,43.63Z"/><path class="cls-1" d="M126.74,42.41a.86.86,0,0,1-.23-1.15A2.6,2.6,0,0,1,128,39.79c.81-.25,2-.59,2.34.13a2.11,2.11,0,0,1-.61,2.5A2.77,2.77,0,0,1,126.74,42.41Z"/><path class="cls-1" d="M125.69,39.4a1,1,0,0,1-.63-1.27s.11-1.14,1.8-1.94a2.33,2.33,0,0,1,2.44,1.27C130.05,38.84,127,40.19,125.69,39.4Z"/><path class="cls-1" d="M131,32.53a3.38,3.38,0,0,0-2.87,1.9c-.4,1,.41,1.22,1.33,1.59a1.68,1.68,0,0,0,1.72-.48,3.7,3.7,0,0,0,.74-2.35A.75.75,0,0,0,131,32.53Z"/><path class="cls-1" d="M134.84,33.42a1.45,1.45,0,0,0-1.7-.61c-.69.28-.87,1.11-1.09,2a11.75,11.75,0,0,1-.69,1.27c-.57.88-1.32,1.34-.87,2.46.35.88,1.59.79,2.22,1a6.74,6.74,0,0,1,1.63.77c.58.46,1.16.92,1.86.64a1.41,1.41,0,0,0,.92-1.65S136.3,35.24,134.84,33.42Z"/><path class="cls-1" d="M26.43,146.2A4.68,4.68,0,0,0,28,143.65c.41-1.7.56-3-1.26-3.3s-3,1.51-3.21,2.52S24.3,147.49,26.43,146.2Z"/><path class="cls-1" d="M20.09,150.69a1.35,1.35,0,0,1-1.59-.88,4,4,0,0,1-.18-3.24c.52-1.21,1.31-2.93,2.5-2.62a3.24,3.24,0,0,1,2.3,3.23C23.23,149,20.76,150.7,20.09,150.69Z"/><path class="cls-1" d="M15.51,148.9a1.53,1.53,0,0,1-2.11-.55s-1.22-1.27-.46-4.06a3.62,3.62,0,0,1,4-1.57C19.25,143.23,17.76,148.16,15.51,148.9Z"/><path class="cls-1" d="M12.81,135.8a5.24,5.24,0,0,0-.67,5.26c.72,1.42,1.84.75,3.21.05a2.58,2.58,0,0,0,1.16-2.49,5.64,5.64,0,0,0-2-3.23A1.17,1.17,0,0,0,12.81,135.8Z"/><path class="cls-1" d="M17.74,132.19a2.24,2.24,0,0,0-2.43,1.36c-.37,1.09.43,2.15,1.28,3.33a15.64,15.64,0,0,1,.8,2.09c.45,1.54.23,2.88,2,3.49,1.39.48,2.53-1.06,3.46-1.55a10.25,10.25,0,0,1,2.54-1.12c1.12-.22,2.24-.44,2.62-1.53a2.21,2.21,0,0,0-1-2.75S21.32,132.31,17.74,132.19Z"/><path class="cls-1" d="M49.08,93.75a4.63,4.63,0,0,0,1.54-2.5c.4-1.67.55-2.9-1.23-3.24s-3,1.48-3.14,2.47S47,95,49.08,93.75Z"/><path class="cls-1" d="M42.87,98.14a1.33,1.33,0,0,1-1.56-.87,4,4,0,0,1-.18-3.17c.51-1.18,1.29-2.86,2.45-2.56a3.17,3.17,0,0,1,2.26,3.16C45.94,96.52,43.53,98.15,42.87,98.14Z"/><path class="cls-1" d="M38.39,96.39a1.5,1.5,0,0,1-2.07-.55s-1.2-1.24-.46-4a3.55,3.55,0,0,1,3.87-1.55C42,90.83,40.58,95.67,38.39,96.39Z"/><path class="cls-1" d="M35.73,83.56a5.15,5.15,0,0,0-.65,5.15c.7,1.39,1.8.73,3.14.05a2.56,2.56,0,0,0,1.15-2.44,5.56,5.56,0,0,0-2-3.16A1.14,1.14,0,0,0,35.73,83.56Z"/><path class="cls-1" d="M40.56,80a2.19,2.19,0,0,0-2.37,1.34c-.37,1.06.41,2.1,1.25,3.26a15.22,15.22,0,0,1,.78,2c.45,1.51.23,2.82,2,3.42,1.35.47,2.47-1,3.38-1.52a10.18,10.18,0,0,1,2.49-1.1c1.09-.21,2.19-.43,2.56-1.5a2.15,2.15,0,0,0-1-2.69S44.08,80.14,40.56,80Z"/><path class="cls-1" d="M52,124.46a4.7,4.7,0,0,0,1.57-2.55c.41-1.71.56-3-1.26-3.31s-3,1.51-3.2,2.52S49.86,125.74,52,124.46Z"/><path class="cls-1" d="M45.66,128.94a1.35,1.35,0,0,1-1.59-.88,4,4,0,0,1-.19-3.24c.52-1.2,1.31-2.92,2.5-2.61a3.24,3.24,0,0,1,2.31,3.23C48.79,127.29,46.32,129,45.66,128.94Z"/><path class="cls-1" d="M41.08,127.15A1.54,1.54,0,0,1,39,126.6s-1.22-1.27-.46-4a3.62,3.62,0,0,1,4-1.58C44.81,121.48,43.32,126.42,41.08,127.15Z"/><path class="cls-1" d="M38.37,114.05a5.26,5.26,0,0,0-.67,5.27c.72,1.42,1.84.75,3.21,0a2.59,2.59,0,0,0,1.17-2.48,5.68,5.68,0,0,0-2-3.23A1.16,1.16,0,0,0,38.37,114.05Z"/><path class="cls-1" d="M43.3,110.44a2.23,2.23,0,0,0-2.42,1.37c-.38,1.09.42,2.14,1.28,3.33a16.49,16.49,0,0,1,.79,2.09c.46,1.53.24,2.88,2,3.49,1.38.48,2.52-1.07,3.45-1.55A10.14,10.14,0,0,1,50.94,118c1.12-.22,2.24-.44,2.62-1.53a2.19,2.19,0,0,0-1-2.74S46.89,110.57,43.3,110.44Z"/><path class="cls-1" d="M76.73,75.08a3.78,3.78,0,0,0,2-1.24c.91-1.06,1.47-1.9.3-2.81s-2.68,0-3.19.62S74.74,75.21,76.73,75.08Z"/><path class="cls-1" d="M70.58,76a1.07,1.07,0,0,1-.81-1.2,3.25,3.25,0,0,1,1-2.37c.81-.67,2-1.61,2.73-.95A2.59,2.59,0,0,1,74,74.57C73.41,75.92,71.05,76.21,70.58,76Z"/><path class="cls-1" d="M68,73a1.22,1.22,0,0,1-1.3-1.16s-.41-1.35,1.14-3a2.89,2.89,0,0,1,3.39.32C72.7,70.34,69.84,73.31,68,73Z"/><path class="cls-1" d="M70.83,62.71a4.2,4.2,0,0,0-2.4,3.5c0,1.27,1,1.2,2.27,1.2a2.08,2.08,0,0,0,1.74-1.34,4.57,4.57,0,0,0-.25-3A.94.94,0,0,0,70.83,62.71Z"/><path class="cls-1" d="M75.65,61.94a1.78,1.78,0,0,0-2.22.09c-.67.63-.48,1.68-.3,2.83a12.18,12.18,0,0,1-.2,1.78c-.24,1.26-.88,2.13.15,3.21.81.84,2.18.16,3,.16a8.22,8.22,0,0,1,2.22.12c.87.25,1.75.5,2.41-.13A1.75,1.75,0,0,0,81,67.68S78.16,63.34,75.65,61.94Z"/><path class="cls-1" d="M94.67,47.25a4.39,4.39,0,0,0,2.57-1.2c1.2-1.13,2-2,.71-3.26s-3.16-.37-3.84.33S92.32,47.16,94.67,47.25Z"/><path class="cls-1" d="M87.33,47.51a1.27,1.27,0,0,1-.8-1.52,3.82,3.82,0,0,1,1.54-2.66c1-.68,2.55-1.63,3.33-.77a3.07,3.07,0,0,1,.15,3.75C90.66,47.83,87.85,47.87,87.33,47.51Z"/><path class="cls-1" d="M84.64,43.72a1.45,1.45,0,0,1-1.38-1.53S83,40.55,85,38.75a3.41,3.41,0,0,1,3.93.8C90.53,41.18,86.79,44.3,84.64,43.72Z"/><path class="cls-1" d="M89.3,32A5,5,0,0,0,86,35.78c-.17,1.49,1.06,1.54,2.51,1.7a2.45,2.45,0,0,0,2.21-1.36,5.33,5.33,0,0,0,.09-3.59A1.09,1.09,0,0,0,89.3,32Z"/><path class="cls-1" d="M95.07,31.67a2.13,2.13,0,0,0-2.63-.18c-.86.67-.78,1.92-.71,3.3a14.41,14.41,0,0,1-.46,2.06c-.44,1.45-1.31,2.4-.23,3.79.84,1.1,2.54.47,3.53.57a9.51,9.51,0,0,1,2.59.43c1,.41,2,.81,2.86.15a2.08,2.08,0,0,0,.64-2.69S97.84,33.63,95.07,31.67Z"/><path class="cls-1" d="M33,175.08a3.59,3.59,0,0,0,.49-2.23c-.13-1.33-.33-2.27-1.73-2.07s-1.79,1.84-1.68,2.62S31.76,176.54,33,175.08Z"/><path class="cls-1" d="M29.53,179.89a1,1,0,0,1-1.37-.24,3.06,3.06,0,0,1-.94-2.28c.07-1,.21-2.44,1.15-2.51a2.48,2.48,0,0,1,2.47,1.75C31.37,177.92,30,179.74,29.53,179.89Z"/><path class="cls-1" d="M25.78,179.75a1.18,1.18,0,0,1-1.66.13s-1.2-.61-1.34-2.81A2.76,2.76,0,0,1,25.23,175C27.06,174.73,27.21,178.66,25.78,179.75Z"/><path class="cls-1" d="M20.56,171a4,4,0,0,0,.83,3.95c.88.85,1.52.09,2.33-.76a2,2,0,0,0,.22-2.09,4.3,4.3,0,0,0-2.25-1.82A.9.9,0,0,0,20.56,171Z"/><path class="cls-1" d="M23.22,167.15a1.72,1.72,0,0,0-1.41,1.59c0,.88.84,1.44,1.75,2.08a11.75,11.75,0,0,1,1.1,1.31c.71,1,.88,2,2.3,2,1.12,0,1.55-1.39,2.11-2a7.49,7.49,0,0,1,1.55-1.45c.74-.43,1.5-.87,1.5-1.75a1.67,1.67,0,0,0-1.41-1.73S25.83,166.35,23.22,167.15Z"/><path class="cls-1" d="M21.79,204.29a4.67,4.67,0,0,0,.39-2.95c-.31-1.71-.68-2.9-2.48-2.48s-2.11,2.58-1.87,3.57S20.38,206.31,21.79,204.29Z"/><path class="cls-1" d="M17.86,210.91a1.33,1.33,0,0,1-1.79-.16,4,4,0,0,1-1.48-2.86c0-1.29,0-3.17,1.21-3.37a3.21,3.21,0,0,1,3.39,2C20,208.14,18.47,210.65,17.86,210.91Z"/><path class="cls-1" d="M13,211.14a1.53,1.53,0,0,1-2.14.35S9.24,210.84,8.8,208a3.59,3.59,0,0,1,2.94-3C14.08,204.5,14.73,209.57,13,211.14Z"/><path class="cls-1" d="M5.25,200.38a5.21,5.21,0,0,0,1.52,5c1.23,1,2-.06,2.93-1.25a2.6,2.6,0,0,0,.05-2.73,5.63,5.63,0,0,0-3.12-2.11A1.16,1.16,0,0,0,5.25,200.38Z"/><path class="cls-1" d="M8.26,195.12a2.21,2.21,0,0,0-1.65,2.21c.1,1.14,1.25,1.77,2.51,2.5a15.58,15.58,0,0,1,1.56,1.57c1,1.2,1.38,2.51,3.22,2.35,1.44-.13,1.85-2,2.5-2.8a10.13,10.13,0,0,1,1.84-2c.92-.64,1.85-1.3,1.75-2.44a2.18,2.18,0,0,0-2-2.08S11.55,193.78,8.26,195.12Z"/><path class="cls-1" d="M364.34,207.45a4.37,4.37,0,0,0-1.28,2.45c-.26,1.6-.32,2.76,1.38,3s2.67-1.59,2.78-2.53S366.22,206.13,364.34,207.45Z"/><path class="cls-1" d="M369.88,202.91a1.24,1.24,0,0,1,1.52.7,3.7,3.7,0,0,1,.38,3c-.39,1.14-1,2.78-2.12,2.57a3,3,0,0,1-2.34-2.82C367.11,204.64,369.26,202.94,369.88,202.91Z"/><path class="cls-1" d="M374.21,204.25a1.42,1.42,0,0,1,2,.37s1.21,1.09.7,3.7a3.34,3.34,0,0,1-3.53,1.71C371.15,209.71,372.2,205.07,374.21,204.25Z"/><path class="cls-1" d="M377.57,216.12a4.84,4.84,0,0,0,.27-4.88c-.76-1.26-1.75-.57-3,.17a2.39,2.39,0,0,0-.91,2.36,5.23,5.23,0,0,0,2.06,2.84A1.08,1.08,0,0,0,377.57,216.12Z"/><path class="cls-1" d="M373.27,219.77a2.06,2.06,0,0,0,2.14-1.42c.27-1-.53-1.94-1.4-3a15.61,15.61,0,0,1-.87-1.87c-.52-1.39-.4-2.64-2.06-3.08-1.31-.35-2.25,1.14-3.08,1.65a9.7,9.7,0,0,1-2.26,1.21c-1,.27-2,.55-2.31,1.57a2,2,0,0,0,1.1,2.47S370,219.89,373.27,219.77Z"/><path class="cls-1" d="M271,317.31a3.88,3.88,0,0,0-2.43.57c-1.25.76-2.08,1.41-1.21,2.69s2.65.89,3.37.41S273,317.82,271,317.31Z"/><path class="cls-1" d="M277.36,318.42a1.12,1.12,0,0,1,.41,1.46,3.32,3.32,0,0,1-1.8,2c-1,.4-2.5.94-3,.06a2.71,2.71,0,0,1,.55-3.26C274.55,317.54,277,318,277.36,318.42Z"/><path class="cls-1" d="M279,322.17a1.29,1.29,0,0,1,.92,1.58s0,1.46-2.12,2.65a3,3,0,0,1-3.25-1.4C273.45,323.3,277.24,321.28,279,322.17Z"/><path class="cls-1" d="M272.85,331.47a4.38,4.38,0,0,0,3.5-2.7c.42-1.26-.64-1.52-1.86-1.92a2.16,2.16,0,0,0-2.15.77,4.73,4.73,0,0,0-.73,3.08A1,1,0,0,0,272.85,331.47Z"/><path class="cls-1" d="M267.82,330.68a1.88,1.88,0,0,0,2.23.63c.87-.42,1-1.51,1.22-2.71a13.18,13.18,0,0,1,.76-1.7c.64-1.17,1.57-1.83.89-3.23-.53-1.1-2.11-.86-2.94-1.13a8.11,8.11,0,0,1-2.16-.84c-.78-.53-1.58-1.06-2.44-.64a1.82,1.82,0,0,0-1,2.2S265.79,328.49,267.82,330.68Z"/><path class="cls-1" d="M337.09,120.82a3.94,3.94,0,0,0,.82,2.36c.88,1.16,1.61,1.92,2.8.93s.6-2.74.06-3.4S337.39,118.77,337.09,120.82Z"/><path class="cls-1" d="M337.53,114.37a1.12,1.12,0,0,1,1.41-.56,3.41,3.41,0,0,1,2.19,1.58c.5,1,1.2,2.39.37,3a2.7,2.7,0,0,1-3.3-.21C337,117.26,337.17,114.79,337.53,114.37Z"/><path class="cls-1" d="M341.1,112.36a1.29,1.29,0,0,1,1.47-1.08s1.46-.12,2.86,1.84a3,3,0,0,1-1.07,3.38C342.79,117.75,340.39,114.19,341.1,112.36Z"/><path class="cls-1" d="M351,117.5a4.39,4.39,0,0,0-3-3.2c-1.3-.28-1.46.79-1.72,2a2.16,2.16,0,0,0,1,2.06,4.77,4.77,0,0,0,3.14.41A1,1,0,0,0,351,117.5Z"/><path class="cls-1" d="M350.71,122.59a1.87,1.87,0,0,0,.4-2.29c-.51-.81-1.61-.85-2.82-.92a13.48,13.48,0,0,1-1.77-.59c-1.23-.52-2-1.36-3.3-.55-1,.64-.64,2.19-.82,3.05a8.6,8.6,0,0,1-.61,2.23c-.45.83-.9,1.68-.39,2.49a1.82,1.82,0,0,0,2.3.8S348.75,124.84,350.71,122.59Z"/><path class="cls-1" d="M353.29,146.84a4.67,4.67,0,0,0,.45,3c.79,1.58,1.48,2.64,3.12,1.73s1.33-3.12.82-4S354.1,144.47,353.29,146.84Z"/><path class="cls-1" d="M355.25,139.26a1.36,1.36,0,0,1,1.8-.35c1.06.64,1.87,1.11,2.25,2.37s.89,3.11-.22,3.65a3.29,3.29,0,0,1-3.88-1C353.92,142.58,354.73,139.69,355.25,139.26Z"/><path class="cls-1" d="M359.94,137.67a1.54,1.54,0,0,1,2-.95s1.77.18,3,2.81a3.66,3.66,0,0,1-2,3.79C360.76,144.46,358.7,139.69,359.94,137.67Z"/><path class="cls-1" d="M370.55,146a5.3,5.3,0,0,0-2.91-4.49c-1.48-.62-1.9.62-2.5,2.05a2.61,2.61,0,0,0,.72,2.68,5.7,5.7,0,0,0,3.64,1.18A1.18,1.18,0,0,0,370.55,146Z"/><path class="cls-1" d="M369.1,152a2.26,2.26,0,0,0,1-2.63c-.42-1.08-1.72-1.37-3.15-1.73a15.26,15.26,0,0,1-2-1.09c-1.35-.89-2.06-2.07-3.81-1.39-1.38.53-1.25,2.46-1.65,3.44a10.21,10.21,0,0,1-1.23,2.52c-.71.89-1.43,1.8-1,2.88a2.22,2.22,0,0,0,2.56,1.46S366.26,154.22,369.1,152Z"/><path class="cls-1" d="M341.79,260.75a4.71,4.71,0,0,0-2.08,2.19c-.75,1.59-1.16,2.8.57,3.52s3.27-.87,3.67-1.83S344.15,259.92,341.79,260.75Z"/><path class="cls-1" d="M349,257.62a1.37,1.37,0,0,1,1.39,1.2,4.08,4.08,0,0,1-.49,3.23c-.76,1.08-1.89,2.62-3,2.07a3.27,3.27,0,0,1-1.61-3.66C345.53,258.61,348.3,257.47,349,257.62Z"/><path class="cls-1" d="M353.11,260.33a1.54,1.54,0,0,1,2,1s.94,1.51-.38,4.1a3.63,3.63,0,0,1-4.21.74C348.26,265.15,350.75,260.59,353.11,260.33Z"/><path class="cls-1" d="M353.09,273.8a5.3,5.3,0,0,0,1.74-5.05c-.42-1.55-1.66-1.12-3.15-.71a2.63,2.63,0,0,0-1.67,2.22,5.74,5.74,0,0,0,1.32,3.59A1.17,1.17,0,0,0,353.09,273.8Z"/><path class="cls-1" d="M347.49,276.35a2.26,2.26,0,0,0,2.67-.85c.59-1,0-2.2-.58-3.54a15.49,15.49,0,0,1-.36-2.23c-.13-1.61.36-2.89-1.25-3.85-1.26-.75-2.7.53-3.73.82a10.32,10.32,0,0,1-2.73.59c-1.14,0-2.3,0-2.89,1a2.2,2.2,0,0,0,.42,2.91S344,275.49,347.49,276.35Z"/><path class="cls-1" d="M301.4,320.8a4.41,4.41,0,0,0-2.5,1.32c-1.15,1.18-1.88,2.13-.57,3.29s3.17.22,3.82-.51S303.75,320.78,301.4,320.8Z"/><path class="cls-1" d="M308.71,320.2a1.27,1.27,0,0,1,.86,1.48,3.76,3.76,0,0,1-1.4,2.72c-1,.73-2.47,1.75-3.29.92a3.05,3.05,0,0,1-.32-3.73C305.37,320,308.17,319.87,308.71,320.2Z"/><path class="cls-1" d="M311.57,323.85a1.44,1.44,0,0,1,1.45,1.46s.39,1.62-1.57,3.52a3.41,3.41,0,0,1-4-.62C305.81,326.67,309.39,323.37,311.57,323.85Z"/><path class="cls-1" d="M307.48,335.8a5,5,0,0,0,3.07-4c.1-1.5-1.13-1.49-2.58-1.58a2.46,2.46,0,0,0-2.15,1.46,5.42,5.42,0,0,0,.08,3.59A1.11,1.11,0,0,0,307.48,335.8Z"/><path class="cls-1" d="M301.74,336.36a2.12,2.12,0,0,0,2.63.06c.82-.71.68-1.95.55-3.32a15.62,15.62,0,0,1,.36-2.08c.37-1.47,1.19-2.46.05-3.8-.89-1.05-2.56-.34-3.55-.4a9.59,9.59,0,0,1-2.6-.3c-1-.36-2-.72-2.86,0a2.07,2.07,0,0,0-.51,2.71S298.88,334.54,301.74,336.36Z"/><path class="cls-1" d="M347.93,179.09a4,4,0,0,0-.9,2.42c-.06,1.51,0,2.59,1.63,2.58s2.28-1.79,2.28-2.67S349.52,177.64,347.93,179.09Z"/><path class="cls-1" d="M352.53,174.23a1.16,1.16,0,0,1,1.49.47,3.44,3.44,0,0,1,.7,2.71c-.23,1.1-.61,2.69-1.67,2.63a2.8,2.8,0,0,1-2.49-2.34C350.16,176.15,352,174.33,352.53,174.23Z"/><path class="cls-1" d="M356.7,175a1.32,1.32,0,0,1,1.88.11s1.24.87,1.07,3.35a3.12,3.12,0,0,1-3.07,2C354.51,180.38,354.93,176,356.7,175Z"/><path class="cls-1" d="M361.2,185.57a4.52,4.52,0,0,0-.32-4.56c-.85-1.08-1.68-.32-2.72.5a2.24,2.24,0,0,0-.57,2.3,4.92,4.92,0,0,0,2.24,2.39A1,1,0,0,0,361.2,185.57Z"/><path class="cls-1" d="M357.65,189.45a1.93,1.93,0,0,0,1.82-1.56c.13-1-.72-1.74-1.65-2.59a13.19,13.19,0,0,1-1-1.63c-.65-1.23-.69-2.4-2.28-2.62-1.25-.17-1.95,1.33-2.66,1.9a8.5,8.5,0,0,1-1.95,1.38c-.91.37-1.82.75-2,1.73a1.87,1.87,0,0,0,1.31,2.15S354.6,190,357.65,189.45Z"/><path class="cls-1" d="M339.34,230.48a3.59,3.59,0,0,0-.81,2.17c0,1.35,0,2.33,1.46,2.32s2.05-1.61,2.05-2.4S340.76,229.18,339.34,230.48Z"/><path class="cls-1" d="M343.47,226.11a1,1,0,0,1,1.34.43,3.12,3.12,0,0,1,.63,2.43c-.21,1-.55,2.41-1.5,2.36a2.51,2.51,0,0,1-2.24-2.1C341.34,227.84,343,226.2,343.47,226.11Z"/><path class="cls-1" d="M347.21,226.77a1.19,1.19,0,0,1,1.69.1s1.12.78,1,3a2.81,2.81,0,0,1-2.76,1.8C345.24,231.64,345.62,227.67,347.21,226.77Z"/><path class="cls-1" d="M351.26,236.3a4.1,4.1,0,0,0-.29-4.1c-.77-1-1.51-.29-2.45.45a2,2,0,0,0-.51,2.07,4.4,4.4,0,0,0,2,2.14A.9.9,0,0,0,351.26,236.3Z"/><path class="cls-1" d="M348.06,239.79a1.74,1.74,0,0,0,1.64-1.41c.12-.88-.65-1.56-1.48-2.33a12.3,12.3,0,0,1-.92-1.46c-.58-1.1-.62-2.15-2.05-2.35-1.12-.15-1.75,1.19-2.38,1.7a7.77,7.77,0,0,1-1.76,1.24c-.81.34-1.63.68-1.75,1.56a1.7,1.7,0,0,0,1.18,1.93S345.33,240.24,348.06,239.79Z"/><path class="cls-1" d="M155,336.05a3.54,3.54,0,0,0-2-1.18c-1.3-.3-2.26-.41-2.51,1s1.18,2.28,1.95,2.42S156,337.66,155,336.05Z"/><path class="cls-1" d="M158.51,340.85a1,1,0,0,1-.66,1.22,3.09,3.09,0,0,1-2.47.17c-.92-.39-2.24-1-2-1.89a2.49,2.49,0,0,1,2.45-1.79C157.22,338.47,158.52,340.34,158.51,340.85Z"/><path class="cls-1" d="M157.19,344.36a1.17,1.17,0,0,1-.41,1.62s-.95.94-3.09.39a2.77,2.77,0,0,1-1.24-3C152.82,341.56,156.61,342.66,157.19,344.36Z"/><path class="cls-1" d="M147.21,346.54a4,4,0,0,0,4,.47c1.08-.56.56-1.41,0-2.45a2,2,0,0,0-1.91-.87,4.32,4.32,0,0,0-2.45,1.56A.89.89,0,0,0,147.21,346.54Z"/><path class="cls-1" d="M144.41,342.81a1.71,1.71,0,0,0,1.06,1.84c.84.28,1.64-.34,2.53-1a11.09,11.09,0,0,1,1.59-.62c1.17-.36,2.2-.21,2.65-1.56.35-1.06-.84-1.91-1.22-2.62a7.64,7.64,0,0,1-.88-1.93c-.17-.85-.36-1.71-1.19-2a1.7,1.7,0,0,0-2.09.79S144.47,340.07,144.41,342.81Z"/><path class="cls-1" d="M164.53,30.57a4.7,4.7,0,0,0,3-.33c1.58-.72,2.65-1.37,1.81-3s-3-1.43-3.94-1S162.22,29.69,164.53,30.57Z"/><path class="cls-1" d="M157.13,28.36a1.35,1.35,0,0,1-.28-1.79,4,4,0,0,1,2.42-2.13c1.26-.33,3.1-.77,3.59.36a3.23,3.23,0,0,1-1.12,3.78C160.35,29.8,157.53,28.89,157.13,28.36Z"/><path class="cls-1" d="M155.73,23.67a1.52,1.52,0,0,1-.86-2s.24-1.74,2.89-2.85A3.6,3.6,0,0,1,161.41,21C162.46,23.12,157.68,25,155.73,23.67Z"/><path class="cls-1" d="M164.33,13.53a5.22,5.22,0,0,0-4.53,2.69c-.67,1.44.54,1.91,1.93,2.55a2.58,2.58,0,0,0,2.66-.61,5.63,5.63,0,0,0,1.3-3.55A1.15,1.15,0,0,0,164.33,13.53Z"/><path class="cls-1" d="M170.18,15.18a2.22,2.22,0,0,0-2.56-1.07c-1.08.38-1.41,1.65-1.82,3a14.58,14.58,0,0,1-1.15,1.91c-.92,1.3-2.11,2-1.51,3.7.48,1.38,2.38,1.32,3.33,1.76a10,10,0,0,1,2.44,1.3c.86.74,1.72,1.48,2.8,1.11a2.18,2.18,0,0,0,1.54-2.47S172.28,18.06,170.18,15.18Z"/><path class="cls-1" d="M199.24,39.51a3.92,3.92,0,0,0,2.5,0c1.39-.43,2.36-.85,1.83-2.31s-2.36-1.51-3.17-1.22S197.41,38.53,199.24,39.51Z"/><path class="cls-1" d="M193.32,36.87a1.13,1.13,0,0,1,0-1.52,3.35,3.35,0,0,1,2.24-1.51c1.08-.14,2.66-.3,2.94.69a2.69,2.69,0,0,1-1.34,3C195.84,38.41,193.59,37.36,193.32,36.87Z"/><path class="cls-1" d="M192.65,32.82a1.28,1.28,0,0,1-.5-1.75s.39-1.42,2.71-2.06a3,3,0,0,1,2.81,2.17C198.31,33.09,194.13,34.12,192.65,32.82Z"/><path class="cls-1" d="M200.9,25.31a4.38,4.38,0,0,0-4.06,1.75c-.71,1.13.24,1.64,1.33,2.33a2.17,2.17,0,0,0,2.28-.22,4.76,4.76,0,0,0,1.47-2.82A1,1,0,0,0,200.9,25.31Z"/><path class="cls-1" d="M205.59,27.31a1.87,1.87,0,0,0-2-1.16c-.94.19-1.36,1.21-1.84,2.33a12.26,12.26,0,0,1-1.17,1.46c-.91,1-2,1.4-1.65,2.92.24,1.2,1.84,1.36,2.58,1.82A8.53,8.53,0,0,1,203.39,36c.63.71,1.27,1.42,2.21,1.23a1.83,1.83,0,0,0,1.55-1.89S207,29.93,205.59,27.31Z"/><path class="cls-1" d="M230.74,23.8a3.92,3.92,0,0,0,2.51.05c1.39-.43,2.35-.86,1.83-2.32s-2.36-1.51-3.17-1.22S228.91,22.82,230.74,23.8Z"/><path class="cls-1" d="M224.83,21.16a1.12,1.12,0,0,1-.05-1.51A3.38,3.38,0,0,1,227,18.13c1.08-.13,2.66-.3,2.94.69a2.7,2.7,0,0,1-1.34,3C227.35,22.71,225.1,21.65,224.83,21.16Z"/><path class="cls-1" d="M224.16,17.12a1.29,1.29,0,0,1-.5-1.76s.39-1.41,2.71-2a3,3,0,0,1,2.81,2.16C229.82,17.38,225.64,18.41,224.16,17.12Z"/><path class="cls-1" d="M232.41,9.6a4.38,4.38,0,0,0-4.06,1.75c-.72,1.13.24,1.64,1.33,2.33a2.17,2.17,0,0,0,2.28-.22,4.76,4.76,0,0,0,1.47-2.82A1,1,0,0,0,232.41,9.6Z"/><path class="cls-1" d="M237.1,11.6a1.87,1.87,0,0,0-2-1.16c-.94.19-1.36,1.21-1.85,2.33a11.58,11.58,0,0,1-1.16,1.46c-.91,1-2,1.4-1.65,2.92.24,1.2,1.83,1.36,2.58,1.82a8.53,8.53,0,0,1,1.89,1.34c.63.71,1.27,1.42,2.21,1.23a1.83,1.83,0,0,0,1.55-1.89S238.54,14.22,237.1,11.6Z"/><path d="M143.87,311c.68,1.49,1.21,3,1.95,4.48a14.9,14.9,0,0,0,2.75,3.9,27.61,27.61,0,0,0,7.72,5.61,18.23,18.23,0,0,0,9.21,2,39.62,39.62,0,0,0,4.82-.51c1.61-.21,3.22-.51,4.84-.71a58.62,58.62,0,0,1-9.61,2,18.57,18.57,0,0,1-5-.24,20.38,20.38,0,0,1-4.73-1.64,24.92,24.92,0,0,1-7.86-6,15.67,15.67,0,0,1-2.62-4.23C144.76,314.16,144.33,312.59,143.87,311Z"/><path d="M159.52,280.65a8.69,8.69,0,0,1,1.74-3.08,4.38,4.38,0,0,1,1.51-1.07,8.92,8.92,0,0,1,1.73-.55,8.52,8.52,0,0,1,3.66-.05,6.64,6.64,0,0,1,1.75.64,14.12,14.12,0,0,0,1.55.69l.54.2-.26.52a12.25,12.25,0,0,1-2.09,3.1,6.59,6.59,0,0,1-3.31,1.9,6.19,6.19,0,0,1-3.74-.36A11.55,11.55,0,0,1,159.52,280.65Zm0,0a13.65,13.65,0,0,0,3.25,1.45,5.79,5.79,0,0,0,6.15-1.73,12.06,12.06,0,0,0,1.89-2.88l.28.72c-.56-.22-1.12-.49-1.64-.75a6.42,6.42,0,0,0-1.51-.6,8.26,8.26,0,0,0-3.29-.12,5.71,5.71,0,0,0-3,1.2A9.36,9.36,0,0,0,159.52,280.65Z"/><path class="cls-2" d="M180.44,240.89a33.08,33.08,0,0,1-4.64-25.18c6.63,5.18,14.37,9.56,21.5,14a79.82,79.82,0,0,1,18.86,16.33,34.3,34.3,0,0,1,8.4,22.93,40.31,40.31,0,0,1-6.2,20.53c-2.7,4.4-5.81,8.69-10.09,11.57s-10.33,6.46-15.52,7.65c-6.78,1.54-8.25,1.91-15.2,1.51-2.44-.14-9.68-1.78-11.89-2.86-5.06-2.47-8-5.67-9.4-8.05-2.68-4.75-.42-8.07-1.23-13.47a10,10,0,0,0-.48-2.18,12.94,12.94,0,0,0-1-1.79c-3-5.07,0-14.78,2.41-20.13s4-6.53,8.38-10.46C169.28,246.9,174.25,243.17,180.44,240.89Z"/><path d="M153.2,306.58c1.38.54,2.72,1.15,4.06,1.78s2.65,1.29,4,2,2.61,1.38,3.88,2.13,2.55,1.49,3.78,2.31c-1.38-.53-2.73-1.15-4.06-1.77s-2.65-1.29-4-2-2.61-1.38-3.88-2.13S154.43,307.41,153.2,306.58Z"/><path d="M148.32,307.81c2,1.52,3.93,3.1,5.85,4.69s3.81,3.23,5.72,4.84,3.75,3.29,5.59,5,3.68,3.38,5.46,5.14c-2-1.51-3.93-3.09-5.85-4.68s-3.81-3.23-5.72-4.84-3.75-3.3-5.6-5S150.1,309.57,148.32,307.81Z"/><path d="M148.44,308c1.33,1.31,2.59,2.67,3.85,4s2.47,2.76,3.68,4.17,2.39,2.83,3.54,4.29,2.31,2.91,3.39,4.43c-1.33-1.31-2.6-2.67-3.85-4s-2.47-2.76-3.68-4.17-2.39-2.83-3.54-4.29S149.52,309.55,148.44,308Z"/><path d="M152.41,306.17c1.65,1.1,3.24,2.27,4.82,3.45s3.13,2.38,4.68,3.6,3.07,2.47,4.57,3.75,3,2.57,4.44,3.92c-1.65-1.09-3.24-2.26-4.82-3.44s-3.13-2.39-4.68-3.61-3.07-2.47-4.57-3.75S153.85,307.53,152.41,306.17Z"/><path d="M168.24,317.37a5.81,5.81,0,0,1-1.79,2,9.18,9.18,0,0,1-2.43,1.15,19.18,19.18,0,0,1-5.33.76,15.35,15.35,0,0,1-10.21-3.56,12.23,12.23,0,0,1-1.91-2.08,25.52,25.52,0,0,1-1.42-2.33,3.25,3.25,0,0,0-.62-.88,5.07,5.07,0,0,1-1-1.23,13.91,13.91,0,0,1-.59-1.28l-.51-1.26a22.78,22.78,0,0,1-.89-2.56c-.13-.43-.25-.87-.37-1.31,0-.22-.11-.48-.13-.52s.1.14.15.13-.12,0-.37,0a4.44,4.44,0,0,1-.88-.18,4.18,4.18,0,0,1-1.5-.89,5,5,0,0,1-1.56-2.89,7.58,7.58,0,0,1,1.78-5.68c1.17-1.52,2.53-2.67,3.66-3.92a20.84,20.84,0,0,0,3-4,14.62,14.62,0,0,0,1.62-4.68c.3-1.67.34-3.4.49-5.18a22.78,22.78,0,0,1,.35-2.69,20.83,20.83,0,0,1,.76-2.61,26.58,26.58,0,0,1,1-2.49c.4-.83.87-1.56,1.33-2.32a32.27,32.27,0,0,1,3.16-4.27,48.42,48.42,0,0,0-2.63,4.56c-.37.79-.77,1.59-1.08,2.37a25.38,25.38,0,0,0-.79,2.47c-1.14,3.28-.49,6.74-1,10.4a15,15,0,0,1-1.62,5.31,22.69,22.69,0,0,1-3.15,4.5c-1.21,1.38-2.55,2.54-3.51,3.83a5.61,5.61,0,0,0-1.34,4.1,3,3,0,0,0,.88,1.69,2.38,2.38,0,0,0,.75.46,2.29,2.29,0,0,0,.41.08,3.52,3.52,0,0,1,.92.17,1.76,1.76,0,0,1,.67.45,1.79,1.79,0,0,1,.36.6,6.87,6.87,0,0,1,.21.76c.1.42.21.83.33,1.24.24.82.49,1.64.8,2.43l.45,1.2a11.65,11.65,0,0,0,.48,1.13,3,3,0,0,0,.65.85,5.05,5.05,0,0,1,.87,1.29,13.93,13.93,0,0,0,2.82,4.08,14.58,14.58,0,0,0,9.14,3.74,18.47,18.47,0,0,0,5.14-.27A7,7,0,0,0,168.24,317.37Z"/><ellipse class="cls-3" cx="140.93" cy="301.12" rx="2.5" ry="3.57" transform="translate(-191.47 294.37) rotate(-63.76)"/><path d="M221.17,249.42a66.1,66.1,0,0,1,11.69,21.46A52,52,0,0,1,235.25,283a42.56,42.56,0,0,1-.95,12.42,38.28,38.28,0,0,1-4.85,11.48A47.63,47.63,0,0,1,225.8,312a50.43,50.43,0,0,1-4.35,4.42A68,68,0,0,1,200.51,329a82,82,0,0,0,19.82-13.81c1.49-1.34,2.71-2.93,4-4.4a46.51,46.51,0,0,0,3.38-4.91,37,37,0,0,0,4.5-10.94c1.85-7.72,1.18-15.9-1-23.61A75.16,75.16,0,0,0,227.08,260,77.64,77.64,0,0,0,221.17,249.42Z"/><path class="cls-4" d="M295.45,101.43l-12-13.65s-26.54,56.53-5.95,89.8C277.49,177.58,265.27,153.27,295.45,101.43Z"/><path d="M295.12,332.39a91.1,91.1,0,0,1-15.63-13.86c-.6-.64-1.15-1.32-1.71-2s-1.11-1.34-1.65-2c-1-1.41-2.12-2.79-3.06-4.26a72.09,72.09,0,0,1-5.25-9.1,73.78,73.78,0,0,1-7.44-30.46A58,58,0,0,1,261,260.1l.59.87a39.37,39.37,0,0,1-16-6.39,26.26,26.26,0,0,1-6.19-6.21,23.19,23.19,0,0,1-2.21-3.84,17.89,17.89,0,0,1-1.38-4.3l.62.76a11.44,11.44,0,0,1-5.12-3.32,8.21,8.21,0,0,1-2-5.95,12.11,12.11,0,0,1,2.09-5.74,42.61,42.61,0,0,1,3.54-4.61c2.51-2.89,5.21-5.58,7.92-8.23l4.08-3.93,1-1c.19-.19.27-.28.38-.41a3.12,3.12,0,0,0,.27-.43,7.69,7.69,0,0,0,.58-2.37,47.74,47.74,0,0,1,.78-5.72,21.59,21.59,0,0,1,2.07-5.57,26.89,26.89,0,0,1,3.35-4.86,31.92,31.92,0,0,1,4.2-4.1,35.33,35.33,0,0,1,10.23-5.6,40.45,40.45,0,0,1,11.44-2.29l4.46-.22L282,179a2.32,2.32,0,0,1-.73.32,2.52,2.52,0,0,1-.73.1,2.72,2.72,0,0,1-1.37-.37,4.27,4.27,0,0,1-1.56-1.66,12.16,12.16,0,0,1-1.21-3.5,42.74,42.74,0,0,1-.72-6.87,129.51,129.51,0,0,1,.41-13.53c.06-1.11.23-2.27.35-3.4s.37-2.26.55-3.39.49-2.22.77-3.33.58-2.2.93-3.28a100.74,100.74,0,0,1,4.93-12.63A177.58,177.58,0,0,1,297,104.06a244.59,244.59,0,0,1,16.17-21.55l.9-1.06.78,1.14a162.47,162.47,0,0,1,13.61,23.92,113.45,113.45,0,0,1,8.71,26.1,61.8,61.8,0,0,1,1.16,13.78,82.69,82.69,0,0,1-1.73,13.68,49.69,49.69,0,0,1-4.57,13,29.69,29.69,0,0,1-3.91,5.74,20.59,20.59,0,0,1-2.52,2.42,12.45,12.45,0,0,1-3,1.88l.15-.72a60,60,0,0,1,10.14,14.36,54.17,54.17,0,0,1,5.41,16.66,47.32,47.32,0,0,1-.7,17.47,55.84,55.84,0,0,1-6.66,16.13,55.76,55.76,0,0,0,6.41-16.19,47.65,47.65,0,0,0,.47-17.33,53.33,53.33,0,0,0-5.53-16.43,59.26,59.26,0,0,0-10.13-14l-.46-.46.61-.27a11.57,11.57,0,0,0,2.72-1.78,19.48,19.48,0,0,0,2.36-2.36,28.23,28.23,0,0,0,3.67-5.61,50.46,50.46,0,0,0,4.27-12.78,82.36,82.36,0,0,0,1.55-13.45,60.59,60.59,0,0,0-1.29-13.42,111.71,111.71,0,0,0-8.88-25.59A170.82,170.82,0,0,0,313.1,83.83l1.68.08a239.7,239.7,0,0,0-15.93,21.39,174.6,174.6,0,0,0-13.12,23.16A97.46,97.46,0,0,0,281,140.81a56.81,56.81,0,0,0-2.46,12.88,125.45,125.45,0,0,0-.44,13.27,38,38,0,0,0,.64,6.46,10.38,10.38,0,0,0,.93,2.82,2.23,2.23,0,0,0,.67.79.46.46,0,0,0,.22.07l.1,0s.12-.05,0,0l.68,2.14a36.22,36.22,0,0,0-20.3,7.32,27.45,27.45,0,0,0-3.91,3.79,24.93,24.93,0,0,0-3.1,4.44,19.56,19.56,0,0,0-1.88,5,46.12,46.12,0,0,0-.77,5.5,9.46,9.46,0,0,1-.81,3.09,4.77,4.77,0,0,1-.49.77,6.34,6.34,0,0,1-.58.63l-1,1-4.09,3.91c-2.7,2.62-5.37,5.27-7.82,8.07a39.51,39.51,0,0,0-3.38,4.36,10.17,10.17,0,0,0-1.84,4.76,6.29,6.29,0,0,0,1.44,4.57,9.56,9.56,0,0,0,4.25,2.79l.53.19.1.58a15.71,15.71,0,0,0,1.19,3.8,21.21,21.21,0,0,0,2,3.57,24.75,24.75,0,0,0,5.73,5.87,37.66,37.66,0,0,0,15.32,6.29l.72.14-.13.73a56.5,56.5,0,0,0-.74,10.26,74.55,74.55,0,0,0,6.87,30.12,70.7,70.7,0,0,0,5,9.1c.91,1.48,2,2.86,3,4.28.52.69,1.07,1.36,1.61,2.05s1.07,1.37,1.65,2A93.75,93.75,0,0,0,295.12,332.39Z"/><ellipse cx="262.28" cy="211.21" rx="3.18" ry="5.11" transform="translate(-10.53 13.78) rotate(-2.95)"/><path d="M239,245a39.49,39.49,0,0,0,5.69,3.73,31.48,31.48,0,0,0,6.19,2.57,23.59,23.59,0,0,0,6.58,1c.55,0,1.12,0,1.68,0l1.68-.17a9.36,9.36,0,0,0,1.67-.26c.56-.12,1.12-.23,1.69-.32a18.31,18.31,0,0,1-6.7,1.71l-.88.07-.87,0c-.59,0-1.18,0-1.76-.11l-1.73-.28c-.58-.11-1.14-.29-1.71-.43a24.8,24.8,0,0,1-6.33-2.93A22.87,22.87,0,0,1,239,245Z"/><ellipse cx="234.46" cy="234.6" rx="5.23" ry="5.91" transform="translate(-95.05 272.48) rotate(-51.58)"/><path d="M23.19,192.57A158.07,158.07,0,0,0,56.51,173a157.27,157.27,0,0,0,14.56-12.72c4.51-4.6,9.1-9.19,13.3-14,1-1.23,2-2.47,3-3.76a35.24,35.24,0,0,0,2.47-4.07,49.63,49.63,0,0,0,3.79-8.77c2-6.07,2.44-12.54,3.55-18.94a100.58,100.58,0,0,1,4.66-19c2.31-6.18,5.8-11.78,9.38-17.18l1.34-2,.51,2.41c.83,3.94,2,7.85,3.07,11.78s2.19,7.9,3,12a52,52,0,0,1,1.23,12.43,24.92,24.92,0,0,1-3.5,12.2l-1.46-1.62a22.55,22.55,0,0,1,14.18-1.71,36.65,36.65,0,0,1,13.09,5.42,46,46,0,0,1,5.62,4.31c1.74,1.58,3.38,3.24,5,4.94,3.17,3.4,6.1,7,9.12,10.4a79.82,79.82,0,0,0,9.64,9.56,44.76,44.76,0,0,0,11.65,6.55,66.54,66.54,0,0,0,13,3.59,50.29,50.29,0,0,0,13.39.66l1-.1.3,1a21.14,21.14,0,0,1,.87,8.06,23.93,23.93,0,0,1-2,7.78,36.4,36.4,0,0,1-9.62,12.48,46.21,46.21,0,0,1-13.45,8.05,43.1,43.1,0,0,1-7.61,2.11,34.35,34.35,0,0,1-7.91.4,66.41,66.41,0,0,1-15.23-3.33l-3.66-1.2L151,200a9.66,9.66,0,0,0-1.67-.4,27,27,0,0,0-7.32.21,52.25,52.25,0,0,0-7.32,1.62,31.6,31.6,0,0,0-6.88,2.82c-4.51,2.42-9.07,4.7-12.93,7.83a24.52,24.52,0,0,0-2.66,2.53c-.83,1-1.65,1.92-2.45,2.9a63.18,63.18,0,0,0-4.46,6.11c-1.36,2.11-2.56,4.34-3.77,6.59l-1.8,3.39c-.61,1.14-1.18,2.22-1.68,3.37a108.35,108.35,0,0,0-4.9,14.39c-1.26,4.91-2.17,9.95-3.25,15s-2.16,10-3.51,15a77.86,77.86,0,0,1-5.31,14.46c-4.66,9.23-11.58,17-18.65,24.32,3.45-3.78,6.81-7.64,9.9-11.71a73.82,73.82,0,0,0,8.08-12.93C84.77,286.15,86.5,276,88.57,266c1-5,1.85-10.05,3.07-15.07a111.63,111.63,0,0,1,4.8-14.7c.51-1.19,1.12-2.39,1.7-3.51l1.77-3.4c1.19-2.27,2.4-4.55,3.78-6.76a66.11,66.11,0,0,1,4.53-6.33c.81-1,1.63-2,2.47-3a26,26,0,0,1,2.87-2.79c4.08-3.37,8.73-5.72,13.19-8.17a34.23,34.23,0,0,1,7.28-3,53.74,53.74,0,0,1,7.64-1.71,29.32,29.32,0,0,1,8-.24,11.91,11.91,0,0,1,2.06.5l1.81.61,3.63,1.18a64.43,64.43,0,0,0,14.69,3.17,33.88,33.88,0,0,0,14.53-2.41,43.64,43.64,0,0,0,12.73-7.67A34,34,0,0,0,208,181.07a19.84,19.84,0,0,0,1-14.1l1.34.87a52.73,52.73,0,0,1-14.1-.63,66.43,66.43,0,0,1-13.53-3.75,47.69,47.69,0,0,1-12.29-7,84.08,84.08,0,0,1-9.91-9.88c-3.05-3.49-6-7.05-9-10.39a53.63,53.63,0,0,0-10.12-8.9,34.48,34.48,0,0,0-12.22-5.12,20.23,20.23,0,0,0-12.76,1.47l-3.6,1.78,2.13-3.4a22.62,22.62,0,0,0,3.19-11.1A49.51,49.51,0,0,0,117,99.05c-1.6-7.92-4.3-15.65-5.95-23.76l1.86.36c-3.61,5.33-7.07,10.76-9.35,16.7A98.37,98.37,0,0,0,98.79,111c-1.16,6.31-1.72,12.84-3.8,19.11a51.82,51.82,0,0,1-4,9,40.77,40.77,0,0,1-2.6,4.18c-1,1.33-2,2.59-3.09,3.81-4.31,4.88-8.92,9.4-13.53,14a163.06,163.06,0,0,1-14.84,12.56,164.48,164.48,0,0,1-16.28,10.6A160.28,160.28,0,0,1,23.19,192.57Z"/><circle cx="207.03" cy="170.76" r="4.13"/><path d="M141.23,158.79l-11-6.4,11-5.52L139.28,149a4.3,4.3,0,0,1,1.4,3.43A3.94,3.94,0,0,1,139,156h0Z"/></svg>