<svg xmlns="http://www.w3.org/2000/svg" viewBox="0 0 85.04 850.39"><defs><style>.cls-1{fill:#c17e4e;}</style></defs><g id="Capa_7" data-name="Capa 7"><path class="cls-1" d="M47.37,816.82a3.41,3.41,0,0,0,1.19,1.7c1,.75,1.7,1.21,2.39.2s-.16-2.26-.74-2.68S47.13,815.14,47.37,816.82Z"/><path class="cls-1" d="M46.22,811.65a.85.85,0,0,1,1-.71,2.88,2.88,0,0,1,2.07.84c.62.67,1.49,1.65,1,2.29a2.14,2.14,0,0,1-2.62.45A3,3,0,0,1,46.22,811.65Z"/><path class="cls-1" d="M48.52,809.39a1,1,0,0,1,.9-1.12s1.11-.37,2.65.91A2.44,2.44,0,0,1,52,812C51.1,813.32,48.4,811,48.52,809.39Z"/><path class="cls-1" d="M57.41,811.59a3.77,3.77,0,0,0-3.11-2c-1.07,0-.95.9-.86,1.94S54.69,813,54.69,813a3.78,3.78,0,0,0,2.54-.28A.77.77,0,0,0,57.41,811.59Z"/><path class="cls-1" d="M58.39,815.64a1.52,1.52,0,0,0-.22-1.87c-.59-.55-1.45-.37-2.41-.2a10.66,10.66,0,0,1-1.52-.13c-1.08-.17-1.86-.7-2.7.19-.66.7,0,1.85.07,2.56a6.84,6.84,0,0,1,0,1.87c-.16.74-.31,1.49.27,2a1.51,1.51,0,0,0,2,.19S57.38,817.79,58.39,815.64Z"/><path class="cls-1" d="M48,843.8a3.57,3.57,0,0,0,1,2c.87.93,1.57,1.52,2.44.59s.19-2.38-.35-2.9S48,842,48,843.8Z"/><path class="cls-1" d="M47.56,838.28a.89.89,0,0,1,1.11-.58,3,3,0,0,1,2,1.19c.54.79,1.28,1.94.66,2.52a2.25,2.25,0,0,1-2.78.06A3.18,3.18,0,0,1,47.56,838.28Z"/><path class="cls-1" d="M50.3,836.3a1,1,0,0,1,1.1-1s1.21-.21,2.6,1.36a2.55,2.55,0,0,1-.49,3C52.35,840.77,49.93,837.92,50.3,836.3Z"/><path class="cls-1" d="M59.15,840a4,4,0,0,0-2.91-2.51c-1.12-.14-1.12.78-1.2,1.87A2,2,0,0,0,56.11,841a4,4,0,0,0,2.67.11A.8.8,0,0,0,59.15,840Z"/><path class="cls-1" d="M59.53,844.31a1.59,1.59,0,0,0,.06-2c-.52-.66-1.44-.61-2.46-.58a11,11,0,0,1-1.55-.37c-1.09-.35-1.81-1-2.82-.23-.79.62-.28,1.91-.33,2.65a7.3,7.3,0,0,1-.24,2c-.28.74-.55,1.49,0,2.15a1.58,1.58,0,0,0,2,.51S58.15,846.37,59.53,844.31Z"/><path class="cls-1" d="M35.78,722a3.79,3.79,0,0,0-1.37,1.87c-.44,1.28-.66,2.24.65,2.6s2.34-1,2.57-1.75S37.46,721.09,35.78,722Z"/><path class="cls-1" d="M40.82,718.86a1,1,0,0,1,1.09.77,3.22,3.22,0,0,1-.13,2.49c-.49.89-1.21,2.17-2.06,1.86a2.37,2.37,0,0,1-1.42-2.6C38.38,720,40.32,718.82,40.82,718.86Z"/><path class="cls-1" d="M44,720.48a1.09,1.09,0,0,1,1.51.54s.79,1,0,3.13a2.72,2.72,0,0,1-3,1C40.82,724.62,42.32,720.92,44,720.48Z"/><path class="cls-1" d="M44.93,730.66a4.22,4.22,0,0,0,.93-4c-.41-1.13-1.29-.68-2.35-.21a2.1,2.1,0,0,0-1.07,1.84,4.23,4.23,0,0,0,1.21,2.58A.86.86,0,0,0,44.93,730.66Z"/><path class="cls-1" d="M41,733.16a1.69,1.69,0,0,0,1.89-.92c.37-.81-.13-1.66-.66-2.61a11.77,11.77,0,0,1-.41-1.65c-.21-1.2.07-2.22-1.18-2.78-1-.44-1.94.68-2.67,1a7.59,7.59,0,0,1-2,.73c-.84.1-1.68.21-2.05,1a1.67,1.67,0,0,0,.51,2.16S38.38,732.87,41,733.16Z"/><path class="cls-1" d="M14.84,808.56a4.54,4.54,0,0,0,.85,2.67c.94,1.34,1.72,2.23,3,1.21s.69-3,.1-3.76S15.18,806.31,14.84,808.56Z"/><path class="cls-1" d="M15.39,801.44a1.15,1.15,0,0,1,1.52-.53,3.85,3.85,0,0,1,2.34,1.9c.54,1.1,1.27,2.72.37,3.34a2.88,2.88,0,0,1-3.55-.45C14.73,804.61,15,801.89,15.39,801.44Z"/><path class="cls-1" d="M19.26,799.44a1.3,1.3,0,0,1,1.59-1.09s1.59,0,3.07,2.21a3.32,3.32,0,0,1-1.18,3.68C21,805.53,18.48,801.42,19.26,799.44Z"/><path class="cls-1" d="M29.86,805.79A5.12,5.12,0,0,0,26.61,802c-1.39-.4-1.57.78-1.88,2.16a2.56,2.56,0,0,0,1.05,2.35,5.12,5.12,0,0,0,3.38.65A1,1,0,0,0,29.86,805.79Z"/><path class="cls-1" d="M29.52,811.41A2.07,2.07,0,0,0,30,808.9c-.54-.94-1.72-1-3-1.21a14.09,14.09,0,0,1-1.91-.77c-1.32-.65-2.12-1.64-3.55-.82-1.13.64-.72,2.38-.92,3.33a9.16,9.16,0,0,1-.69,2.43c-.49.89-1,1.8-.45,2.74a2,2,0,0,0,2.48,1S27.37,813.77,29.52,811.41Z"/><path class="cls-1" d="M53.05,679.35a3.35,3.35,0,0,0-.62,2c0,1.24.15,2.12,1.46,2s1.78-1.58,1.74-2.31S54.28,678.09,53.05,679.35Z"/><path class="cls-1" d="M56.58,675.14a1,1,0,0,1,1.25.32,2.87,2.87,0,0,1,.7,2.18c-.13.92-.37,2.24-1.24,2.24a2.27,2.27,0,0,1-2.15-1.79C54.74,676.84,56.12,675.26,56.58,675.14Z"/><path class="cls-1" d="M60,675.55a1.1,1.1,0,0,1,1.55,0,3,3,0,0,1,1.05,2.69A2.57,2.57,0,0,1,60.21,680C58.5,680.1,58.63,676.45,60,675.55Z"/><path class="cls-1" d="M64.24,684a3.72,3.72,0,0,0-.49-3.72c-.74-.84-1.39-.18-2.2.54a1.85,1.85,0,0,0-.35,1.92,4,4,0,0,0,1.95,1.84A.82.82,0,0,0,64.24,684Z"/><path class="cls-1" d="M61.52,687.37A1.56,1.56,0,0,0,62.93,686c.06-.81-.67-1.39-1.47-2a10.4,10.4,0,0,1-.92-1.29c-.59-1-.68-1.93-2-2-1-.07-1.53,1.19-2.08,1.69a7,7,0,0,1-1.54,1.22c-.72.35-1.45.71-1.51,1.52a1.56,1.56,0,0,0,1.18,1.7S59,687.94,61.52,687.37Z"/><path class="cls-1" d="M43.55,652.2a2.87,2.87,0,0,0-.53,1.74c0,1,.12,1.81,1.24,1.74s1.53-1.35,1.49-2S44.6,651.12,43.55,652.2Z"/><path class="cls-1" d="M46.57,648.6a.81.81,0,0,1,1.06.27,2.42,2.42,0,0,1,.61,1.87c-.12.78-.32,1.91-1.06,1.91a2,2,0,0,1-1.85-1.53A2.56,2.56,0,0,1,46.57,648.6Z"/><path class="cls-1" d="M49.52,648.94a.93.93,0,0,1,1.32,0,2.54,2.54,0,0,1,.9,2.3,2.18,2.18,0,0,1-2.07,1.53C48.21,652.84,48.32,649.72,49.52,648.94Z"/><path class="cls-1" d="M53.12,656.19a3.17,3.17,0,0,0-.41-3.18c-.64-.72-1.2-.16-1.89.47a1.57,1.57,0,0,0-.3,1.63,3.44,3.44,0,0,0,1.67,1.58A.69.69,0,0,0,53.12,656.19Z"/><path class="cls-1" d="M50.79,659.06A1.33,1.33,0,0,0,52,657.89c.06-.69-.58-1.19-1.26-1.75A9.69,9.69,0,0,1,50,655c-.5-.83-.58-1.65-1.7-1.74-.88-.06-1.31,1-1.79,1.44a5.74,5.74,0,0,1-1.31,1c-.62.3-1.24.61-1.29,1.3a1.32,1.32,0,0,0,1,1.45S48.67,659.54,50.79,659.06Z"/><path class="cls-1" d="M65.52,639.23A2.87,2.87,0,0,0,65,641c0,1.06.12,1.81,1.25,1.74s1.52-1.35,1.48-2S66.57,638.15,65.52,639.23Z"/><path class="cls-1" d="M68.54,635.63a.82.82,0,0,1,1.07.27,2.47,2.47,0,0,1,.6,1.87c-.12.78-.31,1.91-1.06,1.92a2,2,0,0,1-1.85-1.54A2.59,2.59,0,0,1,68.54,635.63Z"/><path class="cls-1" d="M71.49,636a.94.94,0,0,1,1.33,0,2.57,2.57,0,0,1,.89,2.3,2.18,2.18,0,0,1-2.07,1.53C70.18,639.87,70.3,636.75,71.49,636Z"/><path class="cls-1" d="M75.1,643.22a3.19,3.19,0,0,0-.42-3.18c-.64-.72-1.19-.16-1.89.47a1.57,1.57,0,0,0-.3,1.63,3.44,3.44,0,0,0,1.67,1.58A.71.71,0,0,0,75.1,643.22Z"/><path class="cls-1" d="M72.76,646.1A1.35,1.35,0,0,0,74,644.92c.06-.69-.57-1.19-1.26-1.75a9,9,0,0,1-.78-1.1c-.51-.83-.59-1.65-1.71-1.73-.88-.07-1.31,1-1.79,1.44a6,6,0,0,1-1.31,1.05c-.62.29-1.24.6-1.29,1.29a1.33,1.33,0,0,0,1,1.46S70.65,646.58,72.76,646.1Z"/><path class="cls-1" d="M33.18,686.26A3.37,3.37,0,0,0,32,688c-.37,1.17-.53,2,.73,2.37s2.17-.92,2.36-1.62S34.73,685.47,33.18,686.26Z"/><path class="cls-1" d="M37.83,683.42a.94.94,0,0,1,1.07.69,2.83,2.83,0,0,1,0,2.28c-.42.82-1,2-1.87,1.71a2.28,2.28,0,0,1-1.46-2.37C35.56,684.43,37.36,683.38,37.83,683.42Z"/><path class="cls-1" d="M40.94,684.89a1.09,1.09,0,0,1,1.46.48,3,3,0,0,1,.13,2.86,2.53,2.53,0,0,1-2.83.92C38.07,688.68,39.34,685.3,40.94,684.89Z"/><path class="cls-1" d="M42.23,694.18a3.7,3.7,0,0,0,.71-3.65c-.43-1-1.25-.61-2.24-.18a1.8,1.8,0,0,0-.93,1.68A3.94,3.94,0,0,0,41,694.38.82.82,0,0,0,42.23,694.18Z"/><path class="cls-1" d="M38.61,696.47a1.55,1.55,0,0,0,1.76-.84c.31-.74-.2-1.52-.74-2.39a10.21,10.21,0,0,1-.46-1.49c-.25-1.1,0-2-1.23-2.54-.95-.4-1.82.63-2.49.92a7.06,7.06,0,0,1-1.83.67c-.79.1-1.59.21-1.9,1a1.54,1.54,0,0,0,.57,2S36.11,696.22,38.61,696.47Z"/><path class="cls-1" d="M17.27,749.83a3.23,3.23,0,0,0-1.2,1.68c-.35,1.15-.52,2,.72,2.32s2.13-.9,2.31-1.58S18.8,749.05,17.27,749.83Z"/><path class="cls-1" d="M21.83,747a.94.94,0,0,1,1.05.68,2.79,2.79,0,0,1,0,2.23c-.42.8-1,1.95-1.84,1.68a2.23,2.23,0,0,1-1.43-2.32C19.6,748,21.37,747,21.83,747Z"/><path class="cls-1" d="M24.89,748.48a1.05,1.05,0,0,1,1.42.47,2.93,2.93,0,0,1,.13,2.81,2.48,2.48,0,0,1-2.78.9C22.07,752.2,23.32,748.88,24.89,748.48Z"/><path class="cls-1" d="M26.15,757.59a3.64,3.64,0,0,0,.7-3.58c-.43-1-1.23-.6-2.2-.18a1.77,1.77,0,0,0-.92,1.65A3.9,3.9,0,0,0,25,757.79.81.81,0,0,0,26.15,757.59Z"/><path class="cls-1" d="M22.6,759.84a1.54,1.54,0,0,0,1.72-.82c.31-.73-.19-1.49-.72-2.35a10.69,10.69,0,0,1-.45-1.47c-.24-1.07,0-2-1.21-2.48-.93-.39-1.78.61-2.45.9a6.84,6.84,0,0,1-1.79.66c-.77.1-1.56.2-1.86.93a1.51,1.51,0,0,0,.56,1.93S20.14,759.59,22.6,759.84Z"/><path class="cls-1" d="M41.68,549a3.36,3.36,0,0,0,.39,2.11c.6,1.1,1.12,1.84,2.26,1.15s.87-2.25.49-2.88S42.2,547.24,41.68,549Z"/><path class="cls-1" d="M42.89,543.52a1,1,0,0,1,1.27-.3c.77.43,1.35.74,1.66,1.63s.71,2.19-.07,2.59a2.33,2.33,0,0,1-2.78-.6C42,545.9,42.53,543.83,42.89,543.52Z"/><path class="cls-1" d="M46.18,542.27a1.11,1.11,0,0,1,1.39-.73s1.26.09,2.2,1.93a2.6,2.6,0,0,1-1.34,2.74C46.93,547.07,45.35,543.73,46.18,542.27Z"/><path class="cls-1" d="M53.92,547.92a3.74,3.74,0,0,0-2.17-3.11c-1.07-.41-1.34.48-1.73,1.51a1.86,1.86,0,0,0,.58,1.89,4.08,4.08,0,0,0,2.61.75A.84.84,0,0,0,53.92,547.92Z"/><path class="cls-1" d="M53,552.21a1.6,1.6,0,0,0,.63-1.89c-.32-.76-1.26-.93-2.28-1.15a12.08,12.08,0,0,1-1.43-.73c-1-.6-1.51-1.42-2.74-.89-1,.41-.82,1.77-1.09,2.48a7.18,7.18,0,0,1-.8,1.82c-.49.65-1,1.31-.66,2.07a1.58,1.58,0,0,0,1.85,1S51.07,553.87,53,552.21Z"/><path class="cls-1" d="M50.55,98.19a3.6,3.6,0,0,0-1.28,1.89c-.37,1.29-.52,2.23.86,2.56s2.33-1,2.52-1.82S52.22,97.28,50.55,98.19Z"/><path class="cls-1" d="M55.53,95a1,1,0,0,1,1.18.72,3.1,3.1,0,0,1,0,2.48c-.44.9-1.1,2.18-2,1.91a2.47,2.47,0,0,1-1.65-2.54C53.09,96.14,55,95,55.53,95Z"/><path class="cls-1" d="M59,96.49a1.17,1.17,0,0,1,1.59.49s.89,1,.22,3.1a2.76,2.76,0,0,1-3.06,1.07C55.93,100.69,57.23,97,59,96.49Z"/><path class="cls-1" d="M60.59,106.55a4,4,0,0,0,.68-4c-.5-1.11-1.37-.63-2.44-.14a2,2,0,0,0-1,1.86,4.33,4.33,0,0,0,1.42,2.52A.89.89,0,0,0,60.59,106.55Z"/><path class="cls-1" d="M56.72,109.14a1.69,1.69,0,0,0,1.89-1c.32-.81-.25-1.64-.86-2.57a11.78,11.78,0,0,1-.54-1.62c-.3-1.19-.09-2.2-1.41-2.72-1-.41-1.95.73-2.68,1.07a7.87,7.87,0,0,1-2,.77c-.86.13-1.72.26-2,1.08a1.67,1.67,0,0,0,.67,2.12S54,108.94,56.72,109.14Z"/><path class="cls-1" d="M28.18,51.83a3.28,3.28,0,0,0,.66,2c.72,1,1.32,1.61,2.31.8a2.1,2.1,0,0,0,.09-2.82C30.79,51.22,28.45,50.13,28.18,51.83Z"/><path class="cls-1" d="M28.61,46.47A.94.94,0,0,1,29.79,46a2.79,2.79,0,0,1,1.8,1.34c.41.81,1,2,.28,2.49a2.25,2.25,0,0,1-2.74-.21C28.1,48.87,28.31,46.82,28.61,46.47Z"/><path class="cls-1" d="M31.6,44.83A1.05,1.05,0,0,1,32.83,44s1.22-.09,2.36,1.55a2.5,2.5,0,0,1-.92,2.8C33,49.33,31,46.35,31.6,44.83Z"/><path class="cls-1" d="M39.76,49.21a3.65,3.65,0,0,0-2.5-2.69c-1.07-.25-1.21.64-1.45,1.68a1.82,1.82,0,0,0,.8,1.73,4,4,0,0,0,2.61.37A.81.81,0,0,0,39.76,49.21Z"/><path class="cls-1" d="M39.49,53.44a1.56,1.56,0,0,0,.35-1.9c-.41-.68-1.33-.73-2.34-.8a10.11,10.11,0,0,1-1.46-.5c-1-.44-1.63-1.16-2.74-.49-.87.52-.56,1.81-.71,2.52a7.15,7.15,0,0,1-.53,1.85c-.38.69-.76,1.39-.35,2.07a1.52,1.52,0,0,0,1.9.69S37.83,55.29,39.49,53.44Z"/><path class="cls-1" d="M18.68,16.26a2.74,2.74,0,0,0,.56,1.68c.62.84,1.13,1.38,2,.69a1.81,1.81,0,0,0,.07-2.42C20.91,15.74,18.91,14.8,18.68,16.26Z"/><path class="cls-1" d="M19.05,11.67a.79.79,0,0,1,1-.38,2.38,2.38,0,0,1,1.55,1.14c.34.7.83,1.71.23,2.13a1.9,1.9,0,0,1-2.34-.18A2.51,2.51,0,0,1,19.05,11.67Z"/><path class="cls-1" d="M21.6,10.27a.91.91,0,0,1,1-.75,2.52,2.52,0,0,1,2,1.33,2.14,2.14,0,0,1-.78,2.39C22.76,14.12,21.08,11.57,21.6,10.27Z"/><path class="cls-1" d="M28.58,14a3.13,3.13,0,0,0-2.13-2.31c-.92-.21-1,.56-1.24,1.44a1.55,1.55,0,0,0,.68,1.48,3.34,3.34,0,0,0,2.23.32A.69.69,0,0,0,28.58,14Z"/><path class="cls-1" d="M28.35,17.63a1.32,1.32,0,0,0,.3-1.62c-.35-.58-1.13-.62-2-.68a9.18,9.18,0,0,1-1.25-.43c-.87-.38-1.4-1-2.34-.42-.75.44-.48,1.55-.61,2.16A5.81,5.81,0,0,1,22,18.22c-.32.59-.65,1.18-.29,1.77a1.3,1.3,0,0,0,1.62.59S26.93,19.22,28.35,17.63Z"/><path class="cls-1" d="M26.84,115.87a3.07,3.07,0,0,0-1,1.66c-.26,1.1-.35,1.91.83,2.13s1.94-1,2.06-1.64S28.22,115,26.84,115.87Z"/><path class="cls-1" d="M30.93,113a.88.88,0,0,1,1,.57,2.63,2.63,0,0,1,.13,2.09c-.34.78-.84,1.9-1.61,1.7a2.09,2.09,0,0,1-1.5-2.08C28.91,114,30.49,113,30.93,113Z"/><path class="cls-1" d="M33.89,114.1a1,1,0,0,1,1.37.35,2.75,2.75,0,0,1,.31,2.62,2.34,2.34,0,0,1-2.55,1C31.5,117.78,32.45,114.58,33.89,114.1Z"/><path class="cls-1" d="M35.68,122.56a3.41,3.41,0,0,0,.42-3.41c-.47-.91-1.19-.48-2.08,0a1.69,1.69,0,0,0-.74,1.62,3.67,3.67,0,0,0,1.3,2.08A.75.75,0,0,0,35.68,122.56Z"/><path class="cls-1" d="M32.51,124.91a1.45,1.45,0,0,0,1.56-.89c.24-.71-.28-1.39-.84-2.15a9.68,9.68,0,0,1-.52-1.35c-.3-1-.16-1.86-1.3-2.25-.9-.3-1.63.7-2.23,1a6.38,6.38,0,0,1-1.64.74c-.72.14-1.44.29-1.68,1a1.42,1.42,0,0,0,.65,1.77S30.19,124.84,32.51,124.91Z"/><path class="cls-1" d="M45.5,617.45a3.14,3.14,0,0,0-.44,2c.11,1.18.29,2,1.53,1.83s1.59-1.63,1.49-2.32S46.58,616.16,45.5,617.45Z"/><path class="cls-1" d="M48.55,613.19a.9.9,0,0,1,1.21.21,2.71,2.71,0,0,1,.84,2c-.07.89-.19,2.16-1,2.23a2.2,2.2,0,0,1-2.19-1.56C46.92,614.93,48.12,613.33,48.55,613.19Z"/><path class="cls-1" d="M51.87,613.32a1,1,0,0,1,1.47-.12,2.86,2.86,0,0,1,1.2,2.49,2.45,2.45,0,0,1-2.18,1.88C50.74,617.76,50.6,614.28,51.87,613.32Z"/><path class="cls-1" d="M56.5,621.08a3.57,3.57,0,0,0-.74-3.51c-.77-.75-1.34-.07-2.06.68a1.75,1.75,0,0,0-.19,1.85,3.86,3.86,0,0,0,2,1.62A.8.8,0,0,0,56.5,621.08Z"/><path class="cls-1" d="M54.15,624.47a1.5,1.5,0,0,0,1.24-1.4c0-.78-.74-1.28-1.55-1.84a11.4,11.4,0,0,1-1-1.16c-.63-.88-.79-1.79-2-1.79-1,0-1.38,1.24-1.87,1.75a6.5,6.5,0,0,1-1.37,1.28c-.66.39-1.33.78-1.33,1.56a1.48,1.48,0,0,0,1.24,1.53S51.83,625.19,54.15,624.47Z"/><path class="cls-1" d="M37.91,581.34a2.76,2.76,0,0,0,.3,1.73c.49.9.91,1.51,1.84.95a1.77,1.77,0,0,0,.43-2.34C40.17,581.15,38.35,579.94,37.91,581.34Z"/><path class="cls-1" d="M39,576.91a.79.79,0,0,1,1-.23c.62.35,1.1.61,1.34,1.34s.56,1.79-.08,2.12a1.91,1.91,0,0,1-2.27-.52A2.48,2.48,0,0,1,39,576.91Z"/><path class="cls-1" d="M41.65,575.91a.9.9,0,0,1,1.14-.58s1,.08,1.78,1.6a2.12,2.12,0,0,1-1.12,2.23C42.22,579.85,41,577.1,41.65,575.91Z"/><path class="cls-1" d="M47.93,580.6A3.07,3.07,0,0,0,46.18,578c-.87-.35-1.1.38-1.43,1.22a1.55,1.55,0,0,0,.46,1.55,3.29,3.29,0,0,0,2.13.63A.68.68,0,0,0,47.93,580.6Z"/><path class="cls-1" d="M47.17,584.1a1.31,1.31,0,0,0,.53-1.54c-.26-.62-1-.77-1.85-1a9.13,9.13,0,0,1-1.16-.61c-.8-.5-1.22-1.17-2.23-.75-.8.32-.69,1.44-.92,2a6,6,0,0,1-.67,1.48c-.41.53-.81,1.06-.55,1.69a1.27,1.27,0,0,0,1.5.81S45.55,585.44,47.17,584.1Z"/><path class="cls-1" d="M30.23,448.05a3.39,3.39,0,0,0-1.14,1.8c-.3,1.2-.41,2.09.88,2.35s2.14-1.05,2.29-1.77S31.75,447.15,30.23,448.05Z"/><path class="cls-1" d="M34.75,444.91a1,1,0,0,1,1.12.63,2.84,2.84,0,0,1,.11,2.3c-.37.85-.94,2.07-1.79,1.84a2.31,2.31,0,0,1-1.61-2.31C32.52,446.06,34.28,444.89,34.75,444.91Z"/><path class="cls-1" d="M38,446.2a1.08,1.08,0,0,1,1.49.41,3,3,0,0,1,.31,2.88A2.58,2.58,0,0,1,37,450.58C35.31,450.2,36.39,446.71,38,446.2Z"/><path class="cls-1" d="M39.83,455.51a3.73,3.73,0,0,0,.51-3.73c-.5-1-1.3-.54-2.28,0a1.83,1.83,0,0,0-.84,1.76,4,4,0,0,0,1.4,2.3A.83.83,0,0,0,39.83,455.51Z"/><path class="cls-1" d="M36.31,458a1.59,1.59,0,0,0,1.73-1c.27-.77-.29-1.52-.89-2.37a11,11,0,0,1-.55-1.49c-.31-1.09-.15-2-1.4-2.48-1-.35-1.79.73-2.46,1.07a7.24,7.24,0,0,1-1.8.79c-.8.14-1.6.3-1.87,1.07a1.56,1.56,0,0,0,.69,1.95S33.77,457.93,36.31,458Z"/><path class="cls-1" d="M26.54,411.65a3.27,3.27,0,0,0-1.11,1.76c-.29,1.18-.4,2,.86,2.31s2.1-1,2.24-1.74S28,410.77,26.54,411.65Z"/><path class="cls-1" d="M31,408.57a.93.93,0,0,1,1.09.62,2.76,2.76,0,0,1,.11,2.25c-.37.84-.92,2-1.75,1.81A2.26,2.26,0,0,1,28.85,411C28.79,409.7,30.51,408.56,31,408.57Z"/><path class="cls-1" d="M34.14,409.84a1.07,1.07,0,0,1,1.47.4,3,3,0,0,1,.3,2.82,2.53,2.53,0,0,1-2.76,1.07C31.52,413.76,32.58,410.34,34.14,409.84Z"/><path class="cls-1" d="M36,419a3.63,3.63,0,0,0,.49-3.65c-.49-1-1.27-.54-2.23-.06a1.82,1.82,0,0,0-.82,1.73,3.92,3.92,0,0,0,1.37,2.25A.82.82,0,0,0,36,419Z"/><path class="cls-1" d="M32.5,421.43a1.55,1.55,0,0,0,1.69-.93c.27-.75-.28-1.49-.87-2.32a11.18,11.18,0,0,1-.54-1.45c-.3-1.07-.14-2-1.36-2.44-1-.34-1.76.72-2.41,1.06a7,7,0,0,1-1.77.76c-.78.15-1.56.3-1.83,1.05a1.52,1.52,0,0,0,.68,1.91S30,421.33,32.5,421.43Z"/><path class="cls-1" d="M49.78,403a3.25,3.25,0,0,0-1.12,1.78c-.3,1.19-.42,2.07.86,2.33s2.12-1,2.27-1.76S51.28,402.15,49.78,403Z"/><path class="cls-1" d="M54.26,399.93a.94.94,0,0,1,1.11.63,2.81,2.81,0,0,1,.1,2.27c-.37.84-.93,2.05-1.77,1.82a2.27,2.27,0,0,1-1.59-2.28C52.05,401.07,53.79,399.91,54.26,399.93Z"/><path class="cls-1" d="M57.46,401.21a1.08,1.08,0,0,1,1.48.4,3,3,0,0,1,.3,2.85,2.54,2.54,0,0,1-2.78,1.08C54.8,405.17,55.88,401.71,57.46,401.21Z"/><path class="cls-1" d="M59.28,410.42a3.7,3.7,0,0,0,.5-3.69c-.49-1-1.29-.54-2.25-.05a1.82,1.82,0,0,0-.84,1.74,4,4,0,0,0,1.39,2.28A.82.82,0,0,0,59.28,410.42Z"/><path class="cls-1" d="M55.8,412.92a1.55,1.55,0,0,0,1.71-.94c.27-.76-.29-1.51-.88-2.34a10.68,10.68,0,0,1-.55-1.47c-.31-1.09-.15-2-1.38-2.47-1-.34-1.77.74-2.43,1.07a7.22,7.22,0,0,1-1.79.78c-.79.14-1.58.29-1.85,1.05a1.55,1.55,0,0,0,.69,1.94S53.28,412.82,55.8,412.92Z"/><path class="cls-1" d="M35.61,371.28a4.4,4.4,0,0,0-1.51,2.39c-.4,1.6-.55,2.78,1.17,3.13s2.84-1.4,3-2.35S37.63,370.09,35.61,371.28Z"/><path class="cls-1" d="M41.62,367.1a1.27,1.27,0,0,1,1.49.85,3.77,3.77,0,0,1,.15,3.05c-.5,1.13-1.26,2.75-2.38,2.45a3.08,3.08,0,0,1-2.15-3.07C38.65,368.64,41,367.09,41.62,367.1Z"/><path class="cls-1" d="M45.92,368.83a1.45,1.45,0,0,1,2,.53s1.14,1.21.4,3.83a3.41,3.41,0,0,1-3.74,1.45C42.36,374.14,43.8,369.5,45.92,368.83Z"/><path class="cls-1" d="M48.37,381.19a5,5,0,0,0,.67-4.95c-.67-1.35-1.73-.72-3-.07a2.46,2.46,0,0,0-1.13,2.34,5.36,5.36,0,0,0,1.87,3.05A1.1,1.1,0,0,0,48.37,381.19Z"/><path class="cls-1" d="M43.69,384.56A2.1,2.1,0,0,0,46,383.29c.37-1-.38-2-1.17-3.15a14.49,14.49,0,0,1-.74-2c-.41-1.46-.2-2.72-1.85-3.31-1.3-.46-2.38,1-3.27,1.43a9.6,9.6,0,0,1-2.4,1c-1,.2-2.12.4-2.48,1.42a2.08,2.08,0,0,0,.92,2.6S40.31,384.41,43.69,384.56Z"/><path class="cls-1" d="M58.73,598.79a2.69,2.69,0,0,0,.12,1.72c.39.92.74,1.56,1.7,1.11a1.76,1.76,0,0,0,.64-2.25C60.94,598.83,59.28,597.48,58.73,598.79Z"/><path class="cls-1" d="M60.16,594.58a.76.76,0,0,1,1-.12,2.3,2.3,0,0,1,1.18,1.44c.16.73.37,1.79-.28,2.05a1.87,1.87,0,0,1-2.16-.72A2.42,2.42,0,0,1,60.16,594.58Z"/><path class="cls-1" d="M62.88,593.87a.89.89,0,0,1,1.17-.45s1,.17,1.58,1.72a2.08,2.08,0,0,1-1.3,2.06C63.06,597.76,62.09,595,62.88,593.87Z"/><path class="cls-1" d="M68.55,599a3,3,0,0,0-1.46-2.67c-.81-.42-1.11.27-1.51,1.06a1.49,1.49,0,0,0,.3,1.55,3.24,3.24,0,0,0,2,.82A.67.67,0,0,0,68.55,599Z"/><path class="cls-1" d="M67.47,602.37a1.28,1.28,0,0,0,.67-1.45c-.19-.63-.92-.85-1.71-1.11a9.28,9.28,0,0,1-1.08-.7c-.72-.56-1.07-1.26-2.1-1-.8.24-.81,1.34-1.08,1.88a5.88,5.88,0,0,1-.8,1.38c-.44.47-.89,1-.7,1.58a1.25,1.25,0,0,0,1.39.94S65.77,603.52,67.47,602.37Z"/><path class="cls-1" d="M27.67,780.77a4.12,4.12,0,0,0-.24,2.64c.34,1.5.71,2.56,2.29,2.12s1.79-2.38,1.55-3.26S28.86,778.91,27.67,780.77Z"/><path class="cls-1" d="M30.93,774.72a1.19,1.19,0,0,1,1.61.08A3.6,3.6,0,0,1,34,777.29c.06,1.16.11,2.83-1,3.06a2.87,2.87,0,0,1-3.09-1.66C29.1,777.26,30.4,775,30.93,774.72Z"/><path class="cls-1" d="M35.26,774.34a1.36,1.36,0,0,1,1.89-.39s1.47.53,2,3a3.21,3.21,0,0,1-2.51,2.8C34.53,780.3,33.77,775.81,35.26,774.34Z"/><path class="cls-1" d="M42.55,783.65A4.63,4.63,0,0,0,41,779.23c-1.12-.85-1.75.12-2.56,1.22a2.3,2.3,0,0,0,0,2.43,5.07,5.07,0,0,0,2.86,1.77A1,1,0,0,0,42.55,783.65Z"/><path class="cls-1" d="M40.06,788.45a2,2,0,0,0,1.39-2c-.13-1-1.18-1.53-2.32-2.13a13.86,13.86,0,0,1-1.45-1.35c-1-1-1.32-2.19-3-2-1.28.17-1.58,1.83-2.13,2.59A8.71,8.71,0,0,1,31,785.43c-.8.61-1.6,1.23-1.48,2.24a2,2,0,0,0,1.88,1.79S37.17,789.76,40.06,788.45Z"/><path class="cls-1" d="M24.49,529.44a3,3,0,0,0,.2,1.91c.46,1,.87,1.72,1.94,1.18a2,2,0,0,0,.63-2.54C27,529.4,25.07,528,24.49,529.44Z"/><path class="cls-1" d="M25.94,524.67a.87.87,0,0,1,1.16-.17,2.56,2.56,0,0,1,1.36,1.57c.21.81.48,2-.24,2.31a2.09,2.09,0,0,1-2.44-.74A2.73,2.73,0,0,1,25.94,524.67Z"/><path class="cls-1" d="M29,523.78a1,1,0,0,1,1.29-.54s1.12.16,1.82,1.87a2.32,2.32,0,0,1-1.38,2.35C29.3,528.13,28.12,525,29,523.78Z"/><path class="cls-1" d="M35.48,529.37a3.35,3.35,0,0,0-1.72-2.93c-.93-.44-1.23.34-1.65,1.23a1.67,1.67,0,0,0,.38,1.72,3.69,3.69,0,0,0,2.29.85A.74.74,0,0,0,35.48,529.37Z"/><path class="cls-1" d="M34.4,533.13a1.42,1.42,0,0,0,.69-1.64c-.23-.7-1.05-.92-2-1.19a10.1,10.1,0,0,1-1.23-.74c-.83-.61-1.25-1.37-2.38-1-.89.3-.86,1.53-1.14,2.14a6.44,6.44,0,0,1-.85,1.57c-.48.54-1,1.1-.73,1.8a1.41,1.41,0,0,0,1.59,1S32.53,534.48,34.4,533.13Z"/><path class="cls-1" d="M31.49,501.39a3.28,3.28,0,0,0,.22,2.11c.51,1.13,1,1.9,2.14,1.31s1-2.15.71-2.81S32.13,499.74,31.49,501.39Z"/><path class="cls-1" d="M33.1,496.12a1,1,0,0,1,1.27-.2,2.83,2.83,0,0,1,1.51,1.74c.23.9.54,2.21-.27,2.55a2.28,2.28,0,0,1-2.69-.81C32.06,498.4,32.72,496.4,33.1,496.12Z"/><path class="cls-1" d="M36.44,495.13a1.09,1.09,0,0,1,1.43-.6s1.24.18,2,2.07a2.58,2.58,0,0,1-1.53,2.6C36.81,499.94,35.5,496.52,36.44,495.13Z"/><path class="cls-1" d="M43.65,501.31a3.73,3.73,0,0,0-1.91-3.24c-1-.49-1.36.37-1.82,1.36a1.87,1.87,0,0,0,.42,1.91,4.09,4.09,0,0,0,2.53.94A.83.83,0,0,0,43.65,501.31Z"/><path class="cls-1" d="M42.45,505.48a1.59,1.59,0,0,0,.77-1.82c-.26-.78-1.17-1-2.17-1.31a11.54,11.54,0,0,1-1.35-.83c-.92-.67-1.38-1.52-2.63-1.09-1,.33-1,1.69-1.27,2.37a7,7,0,0,1-.94,1.73c-.53.61-1.06,1.22-.8,2a1.55,1.55,0,0,0,1.75,1.11S40.38,507,42.45,505.48Z"/><path class="cls-1" d="M18,476a3.06,3.06,0,0,0-.59,1.83c0,1.12.1,1.92,1.29,1.86s1.64-1.4,1.61-2.05S19.13,474.85,18,476Z"/><path class="cls-1" d="M21.26,472.22a.86.86,0,0,1,1.12.3,2.59,2.59,0,0,1,.61,2c-.14.83-.37,2-1.16,2a2.08,2.08,0,0,1-1.93-1.66A2.71,2.71,0,0,1,21.26,472.22Z"/><path class="cls-1" d="M24.38,472.63a1,1,0,0,1,1.39,0,2.7,2.7,0,0,1,.91,2.45,2.32,2.32,0,0,1-2.22,1.58C22.92,476.73,23.09,473.43,24.38,472.63Z"/><path class="cls-1" d="M28.05,480.37a3.36,3.36,0,0,0-.38-3.37c-.66-.78-1.26-.19-2,.45a1.66,1.66,0,0,0-.35,1.73,3.63,3.63,0,0,0,1.74,1.7A.74.74,0,0,0,28.05,480.37Z"/><path class="cls-1" d="M25.53,483.37a1.43,1.43,0,0,0,1.3-1.22c.07-.74-.58-1.27-1.3-1.88a9.56,9.56,0,0,1-.81-1.18c-.52-.88-.58-1.75-1.77-1.86-.94-.09-1.41,1-1.92,1.48a6.34,6.34,0,0,1-1.4,1.09c-.67.31-1.33.62-1.4,1.35a1.42,1.42,0,0,0,1,1.56S23.28,483.84,25.53,483.37Z"/><path class="cls-1" d="M31.48,324.32a4.57,4.57,0,0,0-.3,2.87c.36,1.64.75,2.79,2.47,2.33s2-2.56,1.72-3.52S32.79,322.32,31.48,324.32Z"/><path class="cls-1" d="M35.1,317.79a1.3,1.3,0,0,1,1.74.11,3.81,3.81,0,0,1,1.51,2.72c.06,1.26.09,3.08-1.07,3.31a3.11,3.11,0,0,1-3.34-1.83C33.08,320.53,34.51,318.06,35.1,317.79Z"/><path class="cls-1" d="M39.81,317.43a1.48,1.48,0,0,1,2.06-.4s1.59.59,2.09,3.32a3.47,3.47,0,0,1-2.76,3C38.94,323.9,38.18,319,39.81,317.43Z"/><path class="cls-1" d="M47.62,327.64A5,5,0,0,0,46,322.81c-1.21-.93-1.9.12-2.8,1.3a2.5,2.5,0,0,0,0,2.64,5.45,5.45,0,0,0,3.08,2A1.12,1.12,0,0,0,47.62,327.64Z"/><path class="cls-1" d="M44.85,332.83a2.14,2.14,0,0,0,1.53-2.2c-.12-1.1-1.26-1.68-2.49-2.34a15,15,0,0,1-1.56-1.48c-1-1.14-1.41-2.4-3.19-2.19-1.39.16-1.74,2-2.34,2.78a9.91,9.91,0,0,1-1.73,2c-.88.65-1.75,1.31-1.63,2.41a2.12,2.12,0,0,0,2,2S41.7,334.22,44.85,332.83Z"/><path class="cls-1" d="M10.47,234.57a4,4,0,0,0-.36,2.53c.26,1.47.57,2.5,2.12,2.15s1.83-2.2,1.64-3.06S11.7,232.84,10.47,234.57Z"/><path class="cls-1" d="M13.89,228.91a1.14,1.14,0,0,1,1.54.15,3.37,3.37,0,0,1,1.25,2.46c0,1.12,0,2.73-1.06,2.89a2.76,2.76,0,0,1-2.9-1.73C12,231.27,13.37,229.13,13.89,228.91Z"/><path class="cls-1" d="M18.08,228.75a1.3,1.3,0,0,1,1.83-.29s1.39.57,1.75,3A3.09,3.09,0,0,1,19.11,234C17.1,234.44,16.58,230.08,18.08,228.75Z"/><path class="cls-1" d="M24.65,238a4.46,4.46,0,0,0-1.27-4.33c-1-.86-1.69,0-2.52,1.06a2.21,2.21,0,0,0-.06,2.34,4.83,4.83,0,0,0,2.66,1.83A1,1,0,0,0,24.65,238Z"/><path class="cls-1" d="M22,242.54a1.89,1.89,0,0,0,1.42-1.89c-.07-1-1.06-1.53-2.13-2.16A12.6,12.6,0,0,1,20,237.13c-.88-1-1.17-2.17-2.75-2-1.24.1-1.6,1.69-2.17,2.39a8.66,8.66,0,0,1-1.6,1.74c-.79.55-1.59,1.11-1.52,2.08a1.88,1.88,0,0,0,1.72,1.81S19.2,243.67,22,242.54Z"/><path class="cls-1" d="M30.43,201.18a4,4,0,0,0-1.22,2.19c-.27,1.44-.35,2.49,1.18,2.72s2.46-1.38,2.58-2.23S32.17,200,30.43,201.18Z"/><path class="cls-1" d="M35.56,197.2a1.12,1.12,0,0,1,1.36.67,3.36,3.36,0,0,1,.27,2.7c-.38,1-1,2.49-2,2.28a2.71,2.71,0,0,1-2.05-2.61C33,198.7,35,197.21,35.56,197.2Z"/><path class="cls-1" d="M39.45,198.52a1.28,1.28,0,0,1,1.78.38s1.07,1,.55,3.37a3,3,0,0,1-3.24,1.46C36.55,203.4,37.6,199.22,39.45,198.52Z"/><path class="cls-1" d="M42.21,209.35a4.39,4.39,0,0,0,.36-4.41c-.66-1.17-1.57-.56-2.69.08a2.18,2.18,0,0,0-.88,2.12,4.79,4.79,0,0,0,1.8,2.62A1,1,0,0,0,42.21,209.35Z"/><path class="cls-1" d="M38.22,212.56a1.88,1.88,0,0,0,2-1.24c.27-.92-.44-1.77-1.2-2.73a12.24,12.24,0,0,1-.74-1.71c-.44-1.27-.31-2.4-1.8-2.84-1.17-.35-2.06,1-2.83,1.42a8.56,8.56,0,0,1-2.07,1c-.93.22-1.86.45-2.13,1.38a1.83,1.83,0,0,0,.94,2.25S35.23,212.59,38.22,212.56Z"/><path class="cls-1" d="M39.84,257a3.38,3.38,0,0,0,.34,2.17c.58,1.14,1.09,1.91,2.27,1.23s.95-2.26.58-2.92S40.41,255.28,39.84,257Z"/><path class="cls-1" d="M41.23,251.5a1,1,0,0,1,1.3-.26A2.88,2.88,0,0,1,44.17,253c.29.91.67,2.25-.14,2.64a2.37,2.37,0,0,1-2.82-.7C40.27,253.91,40.85,251.81,41.23,251.5Z"/><path class="cls-1" d="M44.62,250.32a1.13,1.13,0,0,1,1.44-.7s1.28.12,2.18,2a2.64,2.64,0,0,1-1.44,2.76C45.25,255.24,43.73,251.79,44.62,250.32Z"/><path class="cls-1" d="M52.36,256.31a3.83,3.83,0,0,0-2.13-3.24c-1.08-.45-1.38.45-1.81,1.5a1.9,1.9,0,0,0,.54,1.94,4.16,4.16,0,0,0,2.65.84A.86.86,0,0,0,52.36,256.31Z"/><path class="cls-1" d="M51.34,260.66a1.64,1.64,0,0,0,.69-1.91c-.3-.79-1.25-1-2.29-1.24a11.51,11.51,0,0,1-1.44-.78c-1-.64-1.5-1.49-2.77-1-1,.39-.89,1.79-1.18,2.5a7.8,7.8,0,0,1-.87,1.84c-.52.65-1,1.31-.73,2.09a1.61,1.61,0,0,0,1.86,1.05S49.29,262.3,51.34,260.66Z"/><path class="cls-1" d="M56.32,355.36A4.23,4.23,0,0,0,56,358c.31,1.55.65,2.63,2.28,2.23s1.89-2.36,1.67-3.26S57.58,353.51,56.32,355.36Z"/><path class="cls-1" d="M59.82,349.31a1.2,1.2,0,0,1,1.63.13A3.61,3.61,0,0,1,62.82,352c0,1.18,0,2.88-1.07,3.08a2.91,2.91,0,0,1-3.09-1.78C57.88,351.84,59.27,349.55,59.82,349.31Z"/><path class="cls-1" d="M64.24,349.05a1.38,1.38,0,0,1,1.93-.34s1.48.58,1.91,3.15a3.26,3.26,0,0,1-2.64,2.77C63.31,355.1,62.68,350.5,64.24,349.05Z"/><path class="cls-1" d="M71.37,358.76A4.75,4.75,0,0,0,70,354.2c-1.13-.89-1.79.08-2.65,1.17a2.32,2.32,0,0,0,0,2.47,5.15,5.15,0,0,0,2.85,1.89A1,1,0,0,0,71.37,358.76Z"/><path class="cls-1" d="M68.69,363.56a2,2,0,0,0,1.48-2c-.1-1-1.16-1.6-2.3-2.25a13.89,13.89,0,0,1-1.44-1.41c-1-1.09-1.27-2.27-2.94-2.1-1.31.12-1.67,1.81-2.25,2.56a9,9,0,0,1-1.65,1.88c-.83.59-1.67,1.2-1.57,2.23a2,2,0,0,0,1.85,1.87S65.71,364.81,68.69,363.56Z"/><path class="cls-1" d="M24.19,282.88a3.4,3.4,0,0,0,.34,2.15c.58,1.13,1.08,1.89,2.26,1.22s.94-2.25.57-2.9S24.76,281.16,24.19,282.88Z"/><path class="cls-1" d="M25.57,277.41a1,1,0,0,1,1.3-.27,3,3,0,0,1,1.63,1.7c.28.91.66,2.24-.15,2.63a2.35,2.35,0,0,1-2.79-.7C24.63,279.8,25.2,277.72,25.57,277.41Z"/><path class="cls-1" d="M28.94,276.23a1.12,1.12,0,0,1,1.43-.69s1.27.12,2.17,2a2.62,2.62,0,0,1-1.44,2.73C29.56,281.12,28.05,277.7,28.94,276.23Z"/><path class="cls-1" d="M36.62,282.18A3.82,3.82,0,0,0,34.51,279c-1.07-.44-1.37.46-1.8,1.49a1.89,1.89,0,0,0,.53,1.92,4.14,4.14,0,0,0,2.63.84A.85.85,0,0,0,36.62,282.18Z"/><path class="cls-1" d="M35.6,286.5a1.63,1.63,0,0,0,.7-1.9c-.31-.78-1.25-1-2.28-1.23a11.3,11.3,0,0,1-1.42-.78c-1-.63-1.49-1.47-2.75-1-1,.39-.89,1.78-1.18,2.49a7.22,7.22,0,0,1-.87,1.82c-.51.64-1,1.3-.72,2.07A1.6,1.6,0,0,0,28.93,289S33.57,288.12,35.6,286.5Z"/><path class="cls-1" d="M18,165.42a3.94,3.94,0,0,0-1.43,2.09c-.41,1.42-.59,2.47.94,2.84s2.59-1.15,2.8-2S19.87,164.42,18,165.42Z"/><path class="cls-1" d="M23.55,161.88a1.14,1.14,0,0,1,1.31.81,3.44,3.44,0,0,1,0,2.74c-.49,1-1.22,2.42-2.22,2.11a2.76,2.76,0,0,1-1.82-2.82C20.84,163.15,23,161.84,23.55,161.88Z"/><path class="cls-1" d="M27.35,163.57a1.29,1.29,0,0,1,1.76.55s1,1.12.23,3.44a3.06,3.06,0,0,1-3.4,1.18C24,168.21,25.43,164.1,27.35,163.57Z"/><path class="cls-1" d="M29.12,174.74a4.42,4.42,0,0,0,.77-4.41c-.55-1.23-1.52-.71-2.71-.17a2.19,2.19,0,0,0-1.08,2.05A4.8,4.8,0,0,0,27.66,175,1,1,0,0,0,29.12,174.74Z"/><path class="cls-1" d="M24.81,177.6a1.89,1.89,0,0,0,2.1-1.06c.36-.91-.27-1.83-.95-2.86a13.06,13.06,0,0,1-.59-1.8c-.32-1.31-.08-2.44-1.54-3-1.15-.46-2.18.79-3,1.17a8.66,8.66,0,0,1-2.19.85c-.95.14-1.91.28-2.27,1.19a1.86,1.86,0,0,0,.73,2.36S21.79,177.35,24.81,177.6Z"/><path class="cls-1" d="M52.25,302.13a3.6,3.6,0,0,0,.38,2.26c.62,1.18,1.16,2,2.38,1.26s1-2.37.58-3S52.83,300.32,52.25,302.13Z"/><path class="cls-1" d="M53.64,296.37a1,1,0,0,1,1.36-.29,3.11,3.11,0,0,1,1.73,1.77c.31.95.72,2.34-.12,2.76a2.49,2.49,0,0,1-3-.7C52.67,298.9,53.25,296.7,53.64,296.37Z"/><path class="cls-1" d="M57.17,295.1a1.17,1.17,0,0,1,1.49-.74s1.34.11,2.3,2.09a2.76,2.76,0,0,1-1.47,2.89C57.87,300.23,56.25,296.65,57.17,295.1Z"/><path class="cls-1" d="M65.31,301.26a4,4,0,0,0-2.26-3.35c-1.13-.46-1.44.49-1.87,1.58a2,2,0,0,0,.58,2,4.31,4.31,0,0,0,2.77.84A.9.9,0,0,0,65.31,301.26Z"/><path class="cls-1" d="M64.29,305.82a1.72,1.72,0,0,0,.7-2c-.33-.81-1.32-1-2.4-1.26a12.16,12.16,0,0,1-1.51-.81c-1-.65-1.58-1.53-2.9-1-1,.42-.91,1.88-1.21,2.63a7.72,7.72,0,0,1-.89,1.92c-.53.68-1.07,1.38-.74,2.19a1.68,1.68,0,0,0,2,1.08S62.16,307.55,64.29,305.82Z"/><path class="cls-1" d="M44.48,143.91a3.15,3.15,0,0,0-1,1.81c-.22,1.18-.28,2.05,1,2.22s2-1.15,2.11-1.85S45.9,143,44.48,143.91Z"/><path class="cls-1" d="M48.67,140.59a.93.93,0,0,1,1.12.55,2.78,2.78,0,0,1,.25,2.22c-.31.84-.79,2-1.62,1.88a2.22,2.22,0,0,1-1.7-2.13C46.58,141.84,48.21,140.61,48.67,140.59Z"/><path class="cls-1" d="M51.88,141.65a1.05,1.05,0,0,1,1.47.3,2.92,2.92,0,0,1,.47,2.77A2.5,2.5,0,0,1,51.16,146C49.53,145.68,50.37,142.24,51.88,141.65Z"/><path class="cls-1" d="M54.22,150.54a3.61,3.61,0,0,0,.27-3.63c-.55-.95-1.29-.45-2.21.08a1.81,1.81,0,0,0-.71,1.76,3.91,3.91,0,0,0,1.5,2.14A.8.8,0,0,0,54.22,150.54Z"/><path class="cls-1" d="M51,153.21a1.55,1.55,0,0,0,1.62-1c.21-.76-.37-1.46-1-2.24a10.14,10.14,0,0,1-.62-1.4c-.37-1-.27-2-1.5-2.33-1-.27-1.69.83-2.32,1.2a6.64,6.64,0,0,1-1.7.86c-.75.19-1.52.39-1.74,1.15a1.53,1.53,0,0,0,.79,1.85S48.5,153.26,51,153.21Z"/><path class="cls-1" d="M53.75,63a3,3,0,0,0,.9,1.67c.8.76,1.44,1.23,2.21.34a1.91,1.91,0,0,0-.37-2.54C56,62,53.72,61.41,53.75,63Z"/><path class="cls-1" d="M53.29,58.09a.86.86,0,0,1,1-.59,2.57,2.57,0,0,1,1.83.92c.49.66,1.19,1.64.64,2.19a2,2,0,0,1-2.49.25A2.68,2.68,0,0,1,53.29,58.09Z"/><path class="cls-1" d="M55.71,56.15a1,1,0,0,1,1-1,2.69,2.69,0,0,1,2.37,1,2.28,2.28,0,0,1-.39,2.66C57.64,60,55.41,57.61,55.71,56.15Z"/><path class="cls-1" d="M63.74,58.79a3.33,3.33,0,0,0-2.67-2c-1-.05-1,.77-1,1.74a1.67,1.67,0,0,0,1,1.43,3.59,3.59,0,0,0,2.4-.08A.74.74,0,0,0,63.74,58.79Z"/><path class="cls-1" d="M64.16,62.63a1.43,1.43,0,0,0,0-1.76c-.48-.55-1.31-.44-2.23-.34a9.54,9.54,0,0,1-1.39-.23c-1-.23-1.65-.77-2.54,0-.7.6-.21,1.71-.24,2.38a6.56,6.56,0,0,1-.18,1.74c-.24.68-.47,1.37,0,1.92a1.38,1.38,0,0,0,1.82.31S63,64.56,64.16,62.63Z"/><path class="cls-1" d="M43.47,26.47a3,3,0,0,0,.9,1.67c.8.76,1.44,1.23,2.21.34a1.91,1.91,0,0,0-.38-2.54C45.71,25.51,43.44,24.9,43.47,26.47Z"/><path class="cls-1" d="M43,21.58A.84.84,0,0,1,44,21a2.53,2.53,0,0,1,1.83.92c.5.66,1.19,1.64.65,2.19a2,2,0,0,1-2.5.25A2.69,2.69,0,0,1,43,21.58Z"/><path class="cls-1" d="M45.43,19.64a1,1,0,0,1,1-1,2.67,2.67,0,0,1,2.36,1,2.29,2.29,0,0,1-.38,2.66C47.36,23.47,45.13,21.1,45.43,19.64Z"/><path class="cls-1" d="M53.46,22.28a3.33,3.33,0,0,0-2.67-2c-1-.05-1,.77-1,1.74a1.65,1.65,0,0,0,1,1.43,3.56,3.56,0,0,0,2.4-.09A.74.74,0,0,0,53.46,22.28Z"/><path class="cls-1" d="M53.88,26.12a1.43,1.43,0,0,0,0-1.76c-.48-.55-1.31-.44-2.23-.34a9.54,9.54,0,0,1-1.39-.23c-1-.23-1.66-.77-2.54,0-.7.6-.22,1.71-.24,2.38a6.3,6.3,0,0,1-.19,1.74c-.23.68-.46,1.37,0,1.92a1.38,1.38,0,0,0,1.82.31S52.68,28.05,53.88,26.12Z"/><path class="cls-1" d="M49.64,829a1.4,1.4,0,0,0-2.34-1.52l-7.77-4.07A1.4,1.4,0,0,0,37,822.39a1.37,1.37,0,0,0-.14.88A1.36,1.36,0,0,0,36,824a1.4,1.4,0,0,0,2.35,1.5l7.87,4.13a1.4,1.4,0,0,0,2.57,1.08,1.36,1.36,0,0,0,.13-1A1.4,1.4,0,0,0,49.64,829Z"/><path class="cls-1" d="M33.29,794.79a1.4,1.4,0,0,0-.63,1.88,1.39,1.39,0,0,0,1.64.72l3.92,7.85a1.4,1.4,0,0,0,1.48,2.37,1.35,1.35,0,0,0,.62-.63,1.4,1.4,0,1,0,0-2.68l-4-7.94a1.4,1.4,0,1,0-2.12-1.68A1.43,1.43,0,0,0,33.29,794.79Z"/><path class="cls-1" d="M21.65,771.59a1.08,1.08,0,0,0-1.41,1.63l-3.93,5.51a1.1,1.1,0,0,0-1.34.36,1.08,1.08,0,0,0,.91,1.71,1.09,1.09,0,0,0,1.95.44,1.1,1.1,0,0,0-.11-1.4l4-5.58a1.08,1.08,0,1,0,.37-2A1.06,1.06,0,0,0,21.65,771.59Z"/><path class="cls-1" d="M35.43,746.23a1.33,1.33,0,0,0,.79,2.53l3.19,7.68a1.33,1.33,0,0,0,1.24,2.34,1.35,1.35,0,0,0,.64-.56A1.33,1.33,0,0,0,43,756.47a1.32,1.32,0,0,0-1.53-.78l-3.23-7.77a1.33,1.33,0,1,0-1.89-1.73A1.36,1.36,0,0,0,35.43,746.23Z"/><path class="cls-1" d="M23.31,712.66a1.42,1.42,0,0,0-1.22,1.61,1.44,1.44,0,0,0,1.35,1.23l1.22,8.86a1.43,1.43,0,0,0,.65,2.77,1.45,1.45,0,0,0,.82-.4,1.4,1.4,0,0,0,1,.26,1.43,1.43,0,0,0-.15-2.84l-1.24-9a1.42,1.42,0,0,0,1-1.56,1.43,1.43,0,0,0-2.49-.75A1.39,1.39,0,0,0,23.31,712.66Z"/><path class="cls-1" d="M48.4,632.47a1.28,1.28,0,0,0,1.4,2.13l5,6.22a1.27,1.27,0,0,0,1.77,1.82A1.25,1.25,0,0,0,57,642a1.29,1.29,0,0,0,.93-.28,1.28,1.28,0,0,0-1.42-2.11l-5.06-6.29a1.28,1.28,0,0,0-1.75-1.85,1.32,1.32,0,0,0-.46.77A1.32,1.32,0,0,0,48.4,632.47Z"/><path class="cls-1" d="M32.56,468.71a1.28,1.28,0,0,0,.82,2.41l3.28,7.27a1.29,1.29,0,0,0-.43,1.58,1.27,1.27,0,0,0,2.28.08,1.27,1.27,0,0,0,1.6-1.72,1.26,1.26,0,0,0-1.48-.71l-3.32-7.36a1.28,1.28,0,1,0-1.87-1.6A1.22,1.22,0,0,0,32.56,468.71Z"/><path class="cls-1" d="M49,423.05a1.27,1.27,0,0,0-2.13,1.37l-6.28,4.93a1.28,1.28,0,1,0-1.17,2.19,1.27,1.27,0,1,0,2.39-.47l6.35-5a1.28,1.28,0,1,0,1.11-2.2A1.21,1.21,0,0,0,49,423.05Z"/><path class="cls-1" d="M58,374.86a1.27,1.27,0,0,0,.83,2.4l3.27,7.28a1.28,1.28,0,0,0,1.26,2.21,1.24,1.24,0,0,0,.59-.56,1.26,1.26,0,0,0,1,0,1.28,1.28,0,0,0,.64-1.69,1.3,1.3,0,0,0-1.49-.71l-3.32-7.36a1.28,1.28,0,0,0-1.23-2.23,1.25,1.25,0,0,0-.63.63A1.25,1.25,0,0,0,58,374.86Z"/><path class="cls-1" d="M61.56,322.1A1.27,1.27,0,0,0,59.9,324l-4.63,6.5a1.28,1.28,0,0,0-1.28,2.2,1.33,1.33,0,0,0,.78.24,1.28,1.28,0,0,0,2.3.51,1.29,1.29,0,0,0-.14-1.64l4.69-6.58a1.27,1.27,0,0,0,1.59-.4,1.28,1.28,0,0,0-.3-1.79,1.31,1.31,0,0,0-.85-.23A1.26,1.26,0,0,0,61.56,322.1Z"/><path class="cls-1" d="M44.67,175.48A1.28,1.28,0,0,0,43,177.4l-4.63,6.5a1.28,1.28,0,0,0-1.27,2.2,1.29,1.29,0,0,0,.77.23,1.33,1.33,0,0,0,.52.82,1.29,1.29,0,0,0,1.78-.3,1.26,1.26,0,0,0-.14-1.64l4.69-6.58a1.28,1.28,0,1,0,.44-2.42A1.26,1.26,0,0,0,44.67,175.48Z"/><path class="cls-1" d="M59,72.1A1.27,1.27,0,0,0,57.35,74l-4.63,6.5a1.28,1.28,0,0,0-1.28,2.2,1.33,1.33,0,0,0,.78.24,1.28,1.28,0,1,0,2.16-1.13l4.69-6.58a1.27,1.27,0,0,0,1.29-2.19,1.32,1.32,0,0,0-.85-.23A1.26,1.26,0,0,0,59,72.1Z"/><path class="cls-1" d="M45.65,2.24a1.27,1.27,0,0,0-1.78.3A1.28,1.28,0,0,0,44,4.17l-4.63,6.49a1.28,1.28,0,0,0-1.28,2.2,1.33,1.33,0,0,0,.78.24A1.28,1.28,0,1,0,41,12l4.69-6.58A1.27,1.27,0,0,0,47,3.2,1.32,1.32,0,0,0,46.15,3,1.26,1.26,0,0,0,45.65,2.24Z"/><path class="cls-1" d="M47.25,275a1.28,1.28,0,0,0,1.69,1.9l5.86,5.42A1.27,1.27,0,0,0,55,284a1.29,1.29,0,0,0,1.8-.07,1.24,1.24,0,0,0,.33-.74,1.32,1.32,0,0,0,.88-.41,1.28,1.28,0,0,0-1.72-1.88l-5.92-5.49a1.28,1.28,0,1,0-2.34-.75A1.28,1.28,0,0,0,47.25,275Z"/><path class="cls-1" d="M40.76,225.8a1.28,1.28,0,0,0,.72,2.44l2.94,7.42a1.27,1.27,0,0,0,1.15,2.26,1.19,1.19,0,0,0,.62-.52,1.3,1.3,0,0,0,1,0,1.28,1.28,0,0,0-.74-2.44l-3-7.5a1.28,1.28,0,1,0-1.79-1.69A1.36,1.36,0,0,0,40.76,225.8Z"/><path class="cls-1" d="M48.83,119.67a1.28,1.28,0,0,0,.71,2.44l3,7.41a1.28,1.28,0,1,0,1.77,1.74,1.23,1.23,0,0,0,1,0,1.27,1.27,0,0,0-.73-2.43l-3-7.51a1.27,1.27,0,0,0-1.14-2.27,1.22,1.22,0,0,0-.65.59A1.24,1.24,0,0,0,48.83,119.67Z"/><path class="cls-1" d="M52.49,37.38a1.28,1.28,0,0,0,.71,2.44l2.95,7.42a1.28,1.28,0,0,0,1.15,2.27,1.29,1.29,0,0,0,.62-.53,1.28,1.28,0,1,0,.22-2.42l-3-7.51A1.28,1.28,0,0,0,54,36.77a1.32,1.32,0,0,0-.66.59A1.33,1.33,0,0,0,52.49,37.38Z"/><path class="cls-1" d="M53.8,697.07a1.42,1.42,0,0,0-2.42,1.45l-7.13,5.25a1.42,1.42,0,1,0-1.37,2.39,1.42,1.42,0,1,0,2.67-.44l7.22-5.31a1.42,1.42,0,0,0,2.13-1.86,1.48,1.48,0,0,0-.83-.54A1.36,1.36,0,0,0,53.8,697.07Z"/><path class="cls-1" d="M40.14,675a1.33,1.33,0,0,0,1.85.39,1.35,1.35,0,0,0,.5-1.63l7-4.57a1.33,1.33,0,0,0,2.08-1.65,1.29,1.29,0,0,0-.67-.53,1.31,1.31,0,0,0-.19-1,1.34,1.34,0,0,0-2.34,1.27L41.28,672a1.34,1.34,0,0,0-2.1,1.64,1.36,1.36,0,0,0,.75.55A1.28,1.28,0,0,0,40.14,675Z"/><path class="cls-1" d="M68.47,664.74a1.34,1.34,0,0,0-.82-2.53l-3.3-7.67a1.34,1.34,0,1,0-1.91-1.77,1.36,1.36,0,0,0-1,0,1.34,1.34,0,0,0,.85,2.53l3.34,7.76a1.34,1.34,0,1,0,1.93,1.71A1.33,1.33,0,0,0,68.47,664.74Z"/><path class="cls-1" d="M67.48,612.74A1.34,1.34,0,0,0,66,615l-4,7.35a1.34,1.34,0,0,0-1,2.45,1.32,1.32,0,0,0,.84.15,1.31,1.31,0,0,0,.64.77A1.34,1.34,0,0,0,64,623.45L68,616A1.34,1.34,0,0,0,69,613.57a1.36,1.36,0,0,0-.92-.13A1.32,1.32,0,0,0,67.48,612.74Z"/><path class="cls-1" d="M49.2,592.14a1.34,1.34,0,0,0-.62,2.59L47.41,603a1.34,1.34,0,0,0-.13,2.66,1.3,1.3,0,0,0,.83-.16,1.34,1.34,0,1,0,1.47-2.09L50.77,595a1.33,1.33,0,0,0,.15-2.65,1.35,1.35,0,0,0-.91.19A1.33,1.33,0,0,0,49.2,592.14Z"/><path class="cls-1" d="M49.34,570.5a1.34,1.34,0,0,0-.27,1.87,1.35,1.35,0,0,0,1.67.39l5,6.66A1.34,1.34,0,1,0,58,580.69a1.34,1.34,0,0,0,1.24-2.13,1.34,1.34,0,0,0-1.69-.38l-5.09-6.75a1.34,1.34,0,0,0-1.78-2,1.38,1.38,0,0,0-.5.78A1.31,1.31,0,0,0,49.34,570.5Z"/><path class="cls-1" d="M44.2,518.54a1.34,1.34,0,0,0-1.65.93,1.33,1.33,0,0,0,.7,1.55l-2.26,8a1.34,1.34,0,0,0-.48,2.62,1.37,1.37,0,0,0,.85,0,1.31,1.31,0,0,0,.79.62,1.34,1.34,0,0,0,.94-2.5l2.28-8.13a1.34,1.34,0,1,0-.42-2.54A1.32,1.32,0,0,0,44.2,518.54Z"/><path class="cls-1" d="M31.26,552a1.34,1.34,0,0,0,.83,2.53l3.32,7.66a1.34,1.34,0,0,0,1.27,2.34,1.37,1.37,0,0,0,.64-.57,1.34,1.34,0,1,0,.16-2.55l-3.36-7.75a1.34,1.34,0,0,0-1.26-2.35,1.27,1.27,0,0,0-.67.64A1.36,1.36,0,0,0,31.26,552Z"/><path class="cls-1" d="M20.42,508.72a1.34,1.34,0,0,0,1.51-2.19l4.05-7.3a1.34,1.34,0,1,0,.24-2.59,1.4,1.4,0,0,0-.63-.79,1.34,1.34,0,0,0-1.49,2.21L20,505.45a1.34,1.34,0,1,0-.18,2.57A1.32,1.32,0,0,0,20.42,508.72Z"/><path class="cls-1" d="M21.17,452.75a1.34,1.34,0,0,0-.09-2.66L20,441.81a1.34,1.34,0,0,0-.58-2.6,1.37,1.37,0,0,0-.76.37,1.39,1.39,0,0,0-1-.26,1.35,1.35,0,0,0-1.16,1.5A1.34,1.34,0,0,0,17.82,442l1.07,8.39a1.33,1.33,0,0,0,.56,2.6,1.32,1.32,0,0,0,.82-.43A1.33,1.33,0,0,0,21.17,452.75Z"/><path class="cls-1" d="M32,389.59A1.34,1.34,0,0,0,33,392l4.07,7.29a1.34,1.34,0,0,0,1.5,2.2,1.33,1.33,0,0,0,.57-.63,1.38,1.38,0,0,0,1-.13,1.33,1.33,0,0,0-1.1-2.42L35,391a1.34,1.34,0,1,0-2.09-1.51A1.33,1.33,0,0,0,32,389.59Z"/><path class="cls-1" d="M44.06,341.07a1.34,1.34,0,0,0-.91,2.5L41,351.65a1.33,1.33,0,0,0-.43,2.62,1.26,1.26,0,0,0,.84-.06,1.36,1.36,0,0,0,.81.61,1.34,1.34,0,0,0,.89-2.51l2.14-8.18a1.34,1.34,0,1,0-.47-2.53A1.28,1.28,0,0,0,44.06,341.07Z"/><path class="cls-1" d="M25,253.79a1.34,1.34,0,0,0-.91,2.5L22,264.37a1.33,1.33,0,0,0-.44,2.62,1.36,1.36,0,0,0,.85-.05,1.38,1.38,0,0,0,.81.6,1.34,1.34,0,0,0,.89-2.51l2.14-8.18a1.33,1.33,0,0,0,.45-2.62,1.38,1.38,0,0,0-.92.09A1.34,1.34,0,0,0,25,253.79Z"/><path class="cls-1" d="M28,140.54a1.33,1.33,0,0,0-1.88,1.87l-5.36,6.41A1.34,1.34,0,0,0,19.27,151a1.29,1.29,0,0,0,.8.31,1.31,1.31,0,0,0,.47.89,1.33,1.33,0,0,0,1.87-1.89l5.42-6.49a1.34,1.34,0,0,0,1.53-2.18,1.39,1.39,0,0,0-.88-.31A1.29,1.29,0,0,0,28,140.54Z"/><path class="cls-1" d="M35.19,24.69a1.33,1.33,0,0,0-1.88.17,1.32,1.32,0,0,0,0,1.7L28,33a1.34,1.34,0,0,0-1.51,2.19,1.27,1.27,0,0,0,.79.31,1.34,1.34,0,0,0,.48.89,1.33,1.33,0,0,0,1.87-1.89L35,28a1.34,1.34,0,0,0,1.7-.29,1.35,1.35,0,0,0-.17-1.89,1.39,1.39,0,0,0-.88-.31A1.29,1.29,0,0,0,35.19,24.69Z"/><path class="cls-1" d="M30.77,295.9a1.33,1.33,0,0,0,1.92,1.83l6.55,5.18a1.34,1.34,0,1,0,2.52.65,1.31,1.31,0,0,0,.88-.5,1.34,1.34,0,0,0-1.94-1.82L34.07,296a1.35,1.35,0,0,0-.35-1.69,1.34,1.34,0,0,0-2.16,1.1A1.34,1.34,0,0,0,30.77,295.9Z"/><path class="cls-1" d="M13.27,195.39a1.46,1.46,0,0,0,.67,2.84l2.9,8.7a1.49,1.49,0,0,0-.68,1.75,1.48,1.48,0,0,0,2.61.36,1.44,1.44,0,0,0,1.1.07,1.47,1.47,0,0,0-.69-2.84l-2.94-8.8a1.47,1.47,0,0,0-1.16-2.69,1.45,1.45,0,0,0-.79.64A1.49,1.49,0,0,0,13.27,195.39Z"/><path class="cls-1" d="M33.71,78.62a1.46,1.46,0,0,0,.66,2.84l2.91,8.7a1.45,1.45,0,0,0-.68,1.74,1.47,1.47,0,0,0,1.86.93,1.44,1.44,0,0,0,.74-.56,1.47,1.47,0,1,0,.42-2.77l-2.95-8.8a1.47,1.47,0,1,0-1.94-2A1.43,1.43,0,0,0,33.71,78.62Z"/></g></svg>