<svg id="Capa_1" data-name="Capa 1" xmlns="http://www.w3.org/2000/svg" viewBox="0 0 1773.88 144.55"><defs><style>.cls-1{opacity:0.6;}.cls-2{fill:#c17e4d;}</style></defs><g class="cls-1"><path class="cls-2" d="M78.21,87.35a7.09,7.09,0,0,0-3.53,2.46c-1.55,2-2.5,3.52-.42,5s4.7-.34,5.56-1.55S81.67,86.84,78.21,87.35Z"/><path class="cls-2" d="M88.91,85a1.75,1.75,0,0,1,1.46,2c-.21,1.72-.35,3-1.73,4.3s-3.43,3.08-4.74,2-1.93-3-.93-5.43S88.08,84.58,88.91,85Z"/><path class="cls-2" d="M93.58,89.74a2,2,0,0,1,2.33,1.85s.77,2.3-1.88,5.49A5.08,5.08,0,0,1,88.1,97C85.44,95.07,90.32,89.48,93.58,89.74Z"/><path class="cls-2" d="M89,108.15c4.2-2.69,4-6.45,4-6.45,0-2.23-1.85-2-4-1.79s-3,2.59-3,2.59-.76,3.22.57,5.26A1.6,1.6,0,0,0,89,108.15Z"/><path class="cls-2" d="M80.64,110.17a3.16,3.16,0,0,0,3.88-.46c1.13-1.21.77-3,.41-5a21.9,21.9,0,0,1,.27-3.13c.36-2.24,1.45-3.86-.39-5.59-1.45-1.37-3.82,0-5.3.14a14.22,14.22,0,0,1-3.87.1c-1.54-.32-3.09-.64-4.22.57a3.11,3.11,0,0,0-.41,4.09S76.2,108.08,80.64,110.17Z"/><path class="cls-2" d="M22.31,88.54a7.36,7.36,0,0,0-4,2c-1.91,1.81-3.14,3.25-1.21,5.06s4.91.39,6-.72S26,88.55,22.31,88.54Z"/><path class="cls-2" d="M33.76,87.74A1.86,1.86,0,0,1,35,90c-.49,1.73-.84,3.06-2.47,4.16s-4,2.66-5.22,1.37-1.54-3.37-.12-5.75S33,87.22,33.76,87.74Z"/><path class="cls-2" d="M37.84,93.42A2.09,2.09,0,0,1,40,95.69s.44,2.51-2.8,5.4a5.31,5.31,0,0,1-6.12-1C28.59,97.66,34.5,92.64,37.84,93.42Z"/><path class="cls-2" d="M30.25,111.75c4.77-2.12,5.19-6,5.19-6,.31-2.31-1.61-2.32-3.87-2.47s-3.49,2.21-3.49,2.21-1.29,3.2-.24,5.53A1.67,1.67,0,0,0,30.25,111.75Z"/><path class="cls-2" d="M21.25,112.53a3.3,3.3,0,0,0,4.09.13c1.36-1.07,1.26-3,1.2-5.1a22.64,22.64,0,0,1,.77-3.2c.73-2.26,2.11-3.77.47-5.85-1.28-1.64-4-.58-5.5-.68a14.67,14.67,0,0,1-4-.51c-1.54-.57-3.09-1.14-4.45-.07a3.26,3.26,0,0,0-1.07,4.17S17,109.68,21.25,112.53Z"/><path class="cls-2" d="M274.71,63.34a7.89,7.89,0,0,0-3.87-2.84c-2.65-.92-4.62-1.37-5.38,1.35s2.05,4.84,3.64,5.31S276.51,66.81,274.71,63.34Z"/><path class="cls-2" d="M281.11,73.77A2,2,0,0,1,279.54,76c-1.89.4-3.31.72-5.16-.27s-4.5-2.5-3.87-4.26,2.43-3.12,5.38-3S281.21,72.75,281.11,73.77Z"/><path class="cls-2" d="M277.76,80.43a2.24,2.24,0,0,1-1.11,3.12s-2.15,1.65-6.48,0a5.66,5.66,0,0,1-2.06-6.29C269.18,73.77,276.85,76.89,277.76,80.43Z"/><path class="cls-2" d="M256.68,82.3C261,85.76,265,84.22,265,84.22c2.33-.85,1.4-2.67.43-4.88s-3.81-2.21-3.81-2.21-3.67.36-5.35,2.5A1.8,1.8,0,0,0,256.68,82.3Z"/><path class="cls-2" d="M251.5,74.16a3.52,3.52,0,0,0,1.9,3.93c1.68.76,3.44-.27,5.42-1.38a25.39,25.39,0,0,1,3.4-.85c2.49-.42,4.6.14,5.76-2.43.92-2-1.4-4-2.06-5.54a16,16,0,0,1-1.51-4c-.21-1.74-.44-3.49-2.13-4.25a3.49,3.49,0,0,0-4.47,1S252.1,68.72,251.5,74.16Z"/><path class="cls-2" d="M95.31,20a9.5,9.5,0,0,0-5.53,1.78C87,23.67,85.16,25.28,87.28,28s6.2,1.42,7.78.21S100,20.66,95.31,20Z"/><path class="cls-2" d="M110.07,21.1a2.37,2.37,0,0,1,1.09,3.15c-1,2.13-1.64,3.75-3.93,4.85s-5.64,2.63-6.92.76-1.32-4.59.93-7.36S109.14,20.28,110.07,21.1Z"/><path class="cls-2" d="M114.2,29.11a2.72,2.72,0,0,1,2.27,3.31s.08,3.27-4.59,6.35a6.86,6.86,0,0,1-7.62-2.45C101.59,32.78,110.09,27.49,114.2,29.11Z"/><path class="cls-2" d="M101.06,51.07c6.48-1.8,7.76-6.72,7.76-6.72.82-2.89-1.63-3.27-4.47-3.9s-4.87,2.17-4.87,2.17-2.26,3.84-1.36,7A2.17,2.17,0,0,0,101.06,51.07Z"/><path class="cls-2" d="M89.42,50.36c1.4,1.27,3.25,2,5.19.94s2.18-3.57,2.5-6.29a30.44,30.44,0,0,1,1.59-3.93c1.35-2.75,3.4-4.4,1.71-7.37-1.34-2.34-4.94-1.49-6.89-1.91a19.21,19.21,0,0,1-5-1.41c-1.85-1-3.73-2-5.67-.93a4.21,4.21,0,0,0-2.15,5.12S84.52,45.91,89.42,50.36Z"/><path class="cls-2" d="M363,99.11a6.9,6.9,0,0,0-4.2-1.28c-2.57,0-4.4.3-4.22,3s3.26,3.69,4.77,3.6S365.57,101.66,363,99.11Z"/><path class="cls-2" d="M371.68,106.42A2,2,0,0,1,371,109c-1.5,1-2.63,1.76-4.52,1.47s-4.64-.77-4.64-2.57,1.13-3.63,3.72-4.47S371.44,105.47,371.68,106.42Z"/><path class="cls-2" d="M370.85,113.57a2.25,2.25,0,0,1,0,3.2s-1.34,2.21-5.57,2.17a5.3,5.3,0,0,1-3.7-5C361.42,110.4,369,110.67,370.85,113.57Z"/><path class="cls-2" d="M353.29,122.29c4.82,1.69,7.71-1,7.71-1,1.75-1.55.38-2.88-1.13-4.56s-4-.73-4-.73-3.05,1.54-3.83,4A1.71,1.71,0,0,0,353.29,122.29Z"/><path class="cls-2" d="M346.34,116.65c.33,1.47,1.16,2.8,2.84,2.93s2.88-1.4,4.24-3.06a22.45,22.45,0,0,1,2.66-1.9c2-1.22,4-1.41,4.2-4.13.17-2.14-2.44-3.18-3.48-4.32a14.89,14.89,0,0,1-2.54-3.18c-.72-1.5-1.46-3-3.14-3.13a3.21,3.21,0,0,0-3.52,2.44S345.18,111.52,346.34,116.65Z"/><path class="cls-2" d="M419.21,79.42a5.9,5.9,0,0,0-3.6-1.09c-2.19,0-3.76.26-3.61,2.58s2.79,3.17,4.08,3.08S421.44,81.6,419.21,79.42Z"/><path class="cls-2" d="M426.67,85.68a1.7,1.7,0,0,1-.57,2.21c-1.28.85-2.24,1.5-3.87,1.26s-4-.66-4-2.2,1-3.11,3.19-3.83S426.47,84.87,426.67,85.68Z"/><path class="cls-2" d="M426,91.8a1.93,1.93,0,0,1,0,2.74s-1.15,1.89-4.77,1.86A4.55,4.55,0,0,1,418,92.11C417.89,89.09,424.35,89.32,426,91.8Z"/><path class="cls-2" d="M410.94,99.26a6.6,6.6,0,0,0,6.59-.86c1.49-1.33.32-2.47-1-3.91s-3.39-.62-3.39-.62-2.6,1.32-3.27,3.46A1.46,1.46,0,0,0,410.94,99.26Z"/><path class="cls-2" d="M405,94.43a2.8,2.8,0,0,0,2.42,2.51c1.44.11,2.47-1.2,3.63-2.61a18.69,18.69,0,0,1,2.28-1.63c1.72-1,3.42-1.21,3.6-3.54.14-1.83-2.1-2.71-3-3.7a12.4,12.4,0,0,1-2.18-2.71c-.62-1.29-1.25-2.58-2.69-2.69a2.76,2.76,0,0,0-3,2.09S404,90.05,405,94.43Z"/><path class="cls-2" d="M446.07,124.94a5.94,5.94,0,0,0-3.6-1.1c-2.19,0-3.76.26-3.6,2.58s2.78,3.17,4.07,3.08S448.3,127.12,446.07,124.94Z"/><path class="cls-2" d="M453.53,131.19a1.7,1.7,0,0,1-.57,2.21c-1.28.85-2.24,1.5-3.86,1.26s-4-.66-4-2.2,1-3.11,3.18-3.82S453.33,130.38,453.53,131.19Z"/><path class="cls-2" d="M452.82,137.32a1.91,1.91,0,0,1,0,2.73s-1.15,1.89-4.77,1.86a4.55,4.55,0,0,1-3.17-4.29C444.75,134.6,451.21,134.83,452.82,137.32Z"/><path class="cls-2" d="M437.8,144.77a6.59,6.59,0,0,0,6.59-.86c1.49-1.33.32-2.47-1-3.91s-3.38-.62-3.38-.62-2.61,1.32-3.28,3.46A1.46,1.46,0,0,0,437.8,144.77Z"/><path class="cls-2" d="M431.85,140a2.8,2.8,0,0,0,2.43,2.5c1.44.11,2.46-1.19,3.62-2.61a19.7,19.7,0,0,1,2.28-1.63c1.72-1,3.42-1.21,3.6-3.53.14-1.83-2.1-2.72-3-3.7a12.88,12.88,0,0,1-2.18-2.72c-.62-1.28-1.24-2.57-2.68-2.68a2.76,2.76,0,0,0-3,2.08S430.85,135.56,431.85,140Z"/><path class="cls-2" d="M348.64,58a6.83,6.83,0,0,0-3.54-2.53c-2.43-.76-4.23-1.1-4.91,1.51s1.89,4.5,3.34,4.89S350.29,61.17,348.64,58Z"/><path class="cls-2" d="M354.53,67.57a2,2,0,0,1-1.43,2.22c-1.72.46-3,.82-4.72-.05s-4.11-2.18-3.54-3.87,2.21-3.06,4.9-3S354.61,66.6,354.53,67.57Z"/><path class="cls-2" d="M351.49,74a2.22,2.22,0,0,1-1,3s-2,1.65-5.92.28a5.24,5.24,0,0,1-1.9-5.87C343.63,68.08,350.64,70.72,351.49,74Z"/><path class="cls-2" d="M332.25,76.69c4,3.1,7.56,1.48,7.56,1.48,2.13-.9,1.26-2.59.38-4.64s-3.5-1.94-3.5-1.94-3.34.49-4.87,2.59A1.7,1.7,0,0,0,332.25,76.69Z"/><path class="cls-2" d="M327.49,69.2c-.15,1.48.21,3,1.75,3.64s3.14-.4,4.94-1.53a22.79,22.79,0,0,1,3.11-1c2.27-.51,4.19-.06,5.25-2.56.83-2-1.3-3.75-1.91-5.16a14.64,14.64,0,0,1-1.39-3.78c-.2-1.64-.42-3.29-2-3.94a3.2,3.2,0,0,0-4.08,1.18S328,64,327.49,69.2Z"/><path class="cls-2" d="M217,25a6.67,6.67,0,0,0-3.48-2.48c-2.37-.75-4.14-1.08-4.81,1.48s1.86,4.41,3.28,4.79S218.59,28.15,217,25Z"/><path class="cls-2" d="M222.75,34.44a1.92,1.92,0,0,1-1.41,2.17c-1.68.45-3,.81-4.62,0s-4-2.13-3.48-3.8,2.17-3,4.81-3S222.83,33.48,222.75,34.44Z"/><path class="cls-2" d="M219.77,40.77a2.19,2.19,0,0,1-1,2.95s-1.92,1.62-5.8.28a5.17,5.17,0,0,1-1.87-5.77C212.06,34.93,218.94,37.52,219.77,40.77Z"/><path class="cls-2" d="M200.9,43.38c3.91,3,7.41,1.45,7.41,1.45,2.09-.89,1.24-2.54.37-4.56s-3.42-1.89-3.42-1.89-3.29.47-4.78,2.54A1.66,1.66,0,0,0,200.9,43.38Z"/><path class="cls-2" d="M196.23,36c-.15,1.45.2,2.93,1.71,3.57s3.09-.4,4.85-1.5a21.92,21.92,0,0,1,3.05-.93c2.23-.5,4.11-.06,5.15-2.51.81-1.92-1.28-3.68-1.88-5.06a14.6,14.6,0,0,1-1.36-3.71c-.2-1.61-.41-3.23-1.92-3.87a3.15,3.15,0,0,0-4,1.16S196.74,30.94,196.23,36Z"/><path class="cls-2" d="M633.09,75.56a6.93,6.93,0,0,0-4.38.81c-2.28,1.24-3.81,2.32-2.38,4.68s4.65,1.8,6,1S636.62,76.63,633.09,75.56Z"/><path class="cls-2" d="M644.34,78.07A2,2,0,0,1,645,80.7c-.89,1.58-1.54,2.8-3.38,3.42S637,85.6,636.2,84s-.68-3.8,1.26-5.76S643.68,77.32,644.34,78.07Z"/><path class="cls-2" d="M646.93,84.89a2.27,2.27,0,0,1,1.49,2.87s-.18,2.62-4,4.55a5.38,5.38,0,0,1-5.67-2.78C637,86.43,643.89,83.16,646.93,84.89Z"/><path class="cls-2" d="M635.21,100.91c5.11-.73,6.45-4.5,6.45-4.5.85-2.21-1-2.77-3.14-3.58s-3.9,1.19-3.9,1.19-2,2.81-1.56,5.43A1.73,1.73,0,0,0,635.21,100.91Z"/><path class="cls-2" d="M626.32,99.08c1,1.17,2.35,2,3.92,1.31s1.94-2.6,2.39-4.72a23.26,23.26,0,0,1,1.51-3c1.23-2,2.93-3.12,1.85-5.67-.85-2-3.68-1.71-5.15-2.26a14.89,14.89,0,0,1-3.77-1.67c-1.35-1-2.71-2-4.28-1.36s-2.27,1.88-2,3.84C620.76,85.59,622.89,95,626.32,99.08Z"/><path class="cls-2" d="M1566.8,93.94a7.44,7.44,0,0,0-3.92-2.66c-2.65-.76-4.62-1.08-5.29,1.77s2.18,4.85,3.76,5.22S1568.69,97.39,1566.8,93.94Z"/><path class="cls-2" d="M1573.45,104.24a2.13,2.13,0,0,1-1.5,2.45c-1.85.54-3.25,1-5.12.07s-4.52-2.26-3.95-4.12,2.32-3.38,5.25-3.41S1573.52,103.19,1573.45,104.24Z"/><path class="cls-2" d="M1570.32,111.34a2.43,2.43,0,0,1-1,3.3s-2.09,1.85-6.42.46a5.71,5.71,0,0,1-2.22-6.34C1561.63,105.08,1569.31,107.76,1570.32,111.34Z"/><path class="cls-2" d="M1549.48,114.74c4.42,3.26,8.25,1.41,8.25,1.41,2.29-1,1.31-2.86.29-5.06s-3.84-2-3.84-2-3.63.61-5.23,2.94A1.84,1.84,0,0,0,1549.48,114.74Z"/><path class="cls-2" d="M1544.11,106.71c-.12,1.62.31,3.25,2,3.92s3.4-.52,5.33-1.8a25.77,25.77,0,0,1,3.35-1.11c2.46-.61,4.56-.18,5.64-2.91.85-2.15-1.51-4-2.21-5.56a16.11,16.11,0,0,1-1.61-4.08c-.26-1.77-.54-3.56-2.23-4.23s-3.12-.26-4.4,1.4C1550,92.34,1544.55,101.06,1544.11,106.71Z"/><path class="cls-2" d="M1662.83,47.6a6.7,6.7,0,0,0-4.08,1.36c-2,1.49-3.33,2.73-1.65,4.79s4.7,1.11,5.85.18S1666.36,48.15,1662.83,47.6Z"/><path class="cls-2" d="M1673.94,48.49a1.94,1.94,0,0,1,.93,2.44c-.63,1.63-1.09,2.88-2.77,3.73s-4.13,2-5.16.58-1.16-3.55.44-5.68S1673.21,47.86,1673.94,48.49Z"/><path class="cls-2" d="M1677.33,54.67a2.2,2.2,0,0,1,1.82,2.55s.18,2.53-3.22,4.89a5.2,5.2,0,0,1-5.8-1.9C1668,57.48,1674.19,53.42,1677.33,54.67Z"/><path class="cls-2" d="M1668.26,71.58c4.8-1.39,5.58-5.17,5.58-5.17.51-2.23-1.34-2.52-3.49-3s-3.58,1.66-3.58,1.66-1.55,3-.76,5.4A1.68,1.68,0,0,0,1668.26,71.58Z"/><path class="cls-2" d="M1659.51,71c1.1,1,2.51,1.57,3.93.72s1.5-2.74,1.65-4.83a22.33,22.33,0,0,1,1.05-3c.91-2.11,2.39-3.38,1-5.67-1.08-1.8-3.75-1.15-5.23-1.48a14.4,14.4,0,0,1-3.83-1.09c-1.42-.79-2.87-1.58-4.28-.73a3.15,3.15,0,0,0-1.43,4S1655.68,67.58,1659.51,71Z"/><path class="cls-2" d="M1736.52,27.91a5.73,5.73,0,0,0-3.49,1.16c-1.73,1.28-2.86,2.34-1.41,4.11s4,.94,5,.14S1739.54,28.38,1736.52,27.91Z"/><path class="cls-2" d="M1746,28.68a1.65,1.65,0,0,1,.8,2.08c-.54,1.4-.94,2.47-2.37,3.19s-3.54,1.73-4.42.5a4,4,0,0,1,.38-4.86C1741.77,27.77,1745.4,28.14,1746,28.68Z"/><path class="cls-2" d="M1748.92,34a1.89,1.89,0,0,1,1.56,2.19s.15,2.16-2.75,4.18a4.44,4.44,0,0,1-5-1.63C1741,36.37,1746.24,32.89,1748.92,34Z"/><path class="cls-2" d="M1741.16,48.43a6.42,6.42,0,0,0,4.77-4.43c.45-1.9-1.14-2.15-3-2.57s-3.06,1.43-3.06,1.43-1.33,2.53-.65,4.61A1.43,1.43,0,0,0,1741.16,48.43Z"/><path class="cls-2" d="M1733.68,48a2.74,2.74,0,0,0,3.36.62c1.21-.73,1.29-2.35,1.41-4.14a19.55,19.55,0,0,1,.9-2.59c.78-1.81,2-2.9.86-4.86-.92-1.54-3.21-1-4.47-1.26a12.24,12.24,0,0,1-3.28-.94c-1.22-.67-2.45-1.35-3.66-.62a2.7,2.7,0,0,0-1.22,3.38S1730.4,45,1733.68,48Z"/><path class="cls-2" d="M1530.17,44.82a6.21,6.21,0,0,0-3.42-2.09c-2.29-.54-4-.74-4.42,1.71s2,4,3.4,4.27S1531.91,47.67,1530.17,44.82Z"/><path class="cls-2" d="M1536.22,53.28a1.81,1.81,0,0,1-1.17,2.14c-1.55.53-2.72.95-4.34.26s-3.92-1.73-3.52-3.33,1.84-3,4.32-3.11S1536.23,52.38,1536.22,53.28Z"/><path class="cls-2" d="M1533.85,59.42a2.06,2.06,0,0,1-.72,2.84s-1.69,1.64-5.43.65a4.87,4.87,0,0,1-2.13-5.29C1526.24,54.46,1532.86,56.43,1533.85,59.42Z"/><path class="cls-2" d="M1516.33,63.13c3.88,2.59,7.05.87,7.05.87,1.9-1,1-2.47,0-4.3s-3.34-1.55-3.34-1.55-3,.67-4.31,2.71A1.55,1.55,0,0,0,1516.33,63.13Z"/><path class="cls-2" d="M1511.46,56.55c0,1.38.39,2.74,1.85,3.24s2.86-.58,4.44-1.73a20.84,20.84,0,0,1,2.8-1.08c2-.62,3.85-.34,4.66-2.7.63-1.85-1.44-3.37-2.1-4.62a13.42,13.42,0,0,1-1.52-3.39c-.3-1.49-.61-3-2.07-3.49a2.94,2.94,0,0,0-3.67,1.36S1511.6,51.75,1511.46,56.55Z"/><path class="cls-2" d="M491.18,83.47a6.57,6.57,0,0,0-4.09-.92c-2.44.24-4.17.61-3.79,3.19s3.37,3.28,4.8,3.08S493.86,85.7,491.18,83.47Z"/><path class="cls-2" d="M500,89.8a1.89,1.89,0,0,1-.44,2.5c-1.35,1-2.37,1.86-4.2,1.73s-4.47-.39-4.6-2.11.81-3.54,3.21-4.53S499.73,88.91,500,89.8Z"/><path class="cls-2" d="M499.75,96.67a2.15,2.15,0,0,1,.24,3s-1.12,2.2-5.15,2.47a5.07,5.07,0,0,1-3.89-4.5C490.54,94.33,497.75,94,499.75,96.67Z"/><path class="cls-2" d="M483.67,106.25c4.7,1.25,7.26-1.52,7.26-1.52,1.55-1.61.15-2.78-1.4-4.27s-3.83-.4-3.83-.4-2.79,1.68-3.35,4.13A1.62,1.62,0,0,0,483.67,106.25Z"/><path class="cls-2" d="M476.64,101.38c.42,1.37,1.3,2.58,2.91,2.58s2.64-1.54,3.81-3.21a22.37,22.37,0,0,1,2.4-2c1.83-1.31,3.7-1.63,3.7-4.24,0-2-2.56-2.85-3.63-3.86a14.34,14.34,0,0,1-2.65-2.84c-.8-1.38-1.61-2.76-3.22-2.76a3.07,3.07,0,0,0-3.17,2.58S475.15,96.58,476.64,101.38Z"/><path class="cls-2" d="M566,67.76a5.67,5.67,0,0,0-3.59.62c-1.87,1-3.13,1.87-2,3.8s3.79,1.52,4.86.88S568.88,68.66,566,67.76Z"/><path class="cls-2" d="M575.17,69.9a1.64,1.64,0,0,1,.48,2.16c-.74,1.29-1.28,2.27-2.79,2.77s-3.71,1.17-4.39-.17A3.93,3.93,0,0,1,569.55,70C571.15,68.39,574.64,69.29,575.17,69.9Z"/><path class="cls-2" d="M577.23,75.5a1.86,1.86,0,0,1,1.2,2.36s-.17,2.14-3.31,3.69a4.4,4.4,0,0,1-4.61-2.32C569.08,76.68,574.76,74.06,577.23,75.5Z"/><path class="cls-2" d="M567.51,88.5a6.37,6.37,0,0,0,5.32-3.62c.71-1.8-.8-2.28-2.54-3s-3.2.94-3.2.94-1.67,2.28-1.32,4.42A1.41,1.41,0,0,0,567.51,88.5Z"/><path class="cls-2" d="M560.27,86.93a2.7,2.7,0,0,0,3.19,1.1c1.29-.53,1.6-2.11,2-3.84a18,18,0,0,1,1.26-2.4c1-1.65,2.42-2.53,1.56-4.62-.68-1.64-3-1.44-4.19-1.9A12.34,12.34,0,0,1,561,73.88c-1.1-.84-2.2-1.68-3.5-1.15a2.67,2.67,0,0,0-1.69,3.12S557.49,83.57,560.27,86.93Z"/><path class="cls-2" d="M842.09,51.83a6.86,6.86,0,0,0-3.73-2.34c-2.49-.63-4.33-.87-4.87,1.81s2.18,4.43,3.66,4.74S844,55,842.09,51.83Z"/><path class="cls-2" d="M848.6,61.21a2,2,0,0,1-1.31,2.32c-1.71.56-3,1-4.77.23s-4.28-2-3.81-3.71,2-3.22,4.78-3.34S848.63,60.22,848.6,61.21Z"/><path class="cls-2" d="M845.91,67.91a2.26,2.26,0,0,1-.83,3.1s-1.88,1.78-6,.63a5.32,5.32,0,0,1-2.27-5.83C837.63,62.36,844.86,64.61,845.91,67.91Z"/><path class="cls-2" d="M826.63,71.72c4.22,2.9,7.72,1,7.72,1,2.1-1,1.13-2.69.12-4.71s-3.64-1.75-3.64-1.75-3.36.69-4.77,2.91A1.7,1.7,0,0,0,826.63,71.72Z"/><path class="cls-2" d="M821.39,64.43c-.06,1.51.38,3,2,3.58s3.15-.59,4.9-1.84A22.79,22.79,0,0,1,831.35,65c2.27-.65,4.24-.31,5.16-2.89.72-2-1.54-3.72-2.24-5.1a14.8,14.8,0,0,1-1.62-3.74c-.3-1.64-.62-3.3-2.21-3.86a3.22,3.22,0,0,0-4.05,1.43S821.61,59.16,821.39,64.43Z"/><path class="cls-2" d="M917.49,44.2a6.77,6.77,0,0,0-3.65-2.29c-2.44-.61-4.24-.85-4.77,1.77s2.13,4.34,3.59,4.64S919.31,47.29,917.49,44.2Z"/><path class="cls-2" d="M923.87,53.38a2,2,0,0,1-1.29,2.28c-1.68.55-2.94,1-4.66.22s-4.2-1.92-3.74-3.63,2-3.15,4.68-3.27S923.89,52.42,923.87,53.38Z"/><path class="cls-2" d="M921.24,60a2.2,2.2,0,0,1-.83,3s-1.84,1.74-5.83.62a5.22,5.22,0,0,1-2.22-5.71C913.12,54.51,920.21,56.71,921.24,60Z"/><path class="cls-2" d="M902.36,63.68c4.12,2.84,7.56,1,7.56,1,2.05-1,1.1-2.64.11-4.62s-3.57-1.71-3.57-1.71-3.28.68-4.67,2.85A1.67,1.67,0,0,0,902.36,63.68Z"/><path class="cls-2" d="M897.22,56.54c-.06,1.48.38,3,1.94,3.51s3.08-.58,4.8-1.8a21.9,21.9,0,0,1,3-1.12c2.21-.64,4.14-.31,5-2.83.71-2-1.5-3.64-2.18-5a14.37,14.37,0,0,1-1.59-3.67c-.3-1.61-.61-3.23-2.17-3.78a3.16,3.16,0,0,0-4,1.4S897.44,51.38,897.22,56.54Z"/><path class="cls-2" d="M935.33,92.33A6.84,6.84,0,0,0,931.64,90c-2.47-.62-4.29-.86-4.82,1.79s2.16,4.39,3.63,4.69S937.17,95.45,935.33,92.33Z"/><path class="cls-2" d="M941.78,101.61a2,2,0,0,1-1.31,2.3c-1.69.55-3,1-4.71.22s-4.24-1.94-3.77-3.67,2-3.18,4.73-3.31S941.8,100.63,941.78,101.61Z"/><path class="cls-2" d="M939.12,108.24a2.23,2.23,0,0,1-.83,3.06s-1.86,1.77-5.9.63a5.26,5.26,0,0,1-2.24-5.76C930.92,102.74,938.08,105,939.12,108.24Z"/><path class="cls-2" d="M920,112c4.17,2.87,7.64,1,7.64,1,2.07-1,1.11-2.66.11-4.66s-3.6-1.73-3.6-1.73-3.32.68-4.72,2.87A1.69,1.69,0,0,0,920,112Z"/><path class="cls-2" d="M914.85,104.8c-.06,1.49.38,3,2,3.54s3.12-.59,4.85-1.82a22.82,22.82,0,0,1,3.05-1.13c2.24-.64,4.19-.31,5.1-2.86.71-2-1.52-3.68-2.21-5A14.69,14.69,0,0,1,926,93.78c-.3-1.62-.61-3.26-2.19-3.82a3.19,3.19,0,0,0-4,1.42S915.07,99.59,914.85,104.8Z"/><path class="cls-2" d="M1001.12,63a9.22,9.22,0,0,0-5-3.12c-3.31-.83-5.76-1.15-6.47,2.41s2.89,5.89,4.87,6.29S1003.59,67.17,1001.12,63Z"/><path class="cls-2" d="M1009.77,75.43a2.64,2.64,0,0,1-1.75,3.09c-2.27.74-4,1.34-6.33.3s-5.69-2.6-5.06-4.92,2.72-4.28,6.34-4.45S1009.8,74.12,1009.77,75.43Z"/><path class="cls-2" d="M1006.2,84.34a3,3,0,0,1-1.12,4.11s-2.5,2.37-7.92.84a7.08,7.08,0,0,1-3-7.74C995.19,77,1004.8,80,1006.2,84.34Z"/><path class="cls-2" d="M980.58,89.4c5.6,3.85,10.26,1.4,10.26,1.4,2.79-1.38,1.5-3.58.15-6.26s-4.84-2.33-4.84-2.33-4.46.92-6.34,3.86A2.27,2.27,0,0,0,980.58,89.4Z"/><path class="cls-2" d="M973.61,79.72c-.08,2,.51,4,2.63,4.75s4.19-.79,6.51-2.44a30.72,30.72,0,0,1,4.1-1.52c3-.86,5.62-.41,6.84-3.83,1-2.7-2-4.94-3-6.78a19.89,19.89,0,0,1-2.16-5c-.4-2.18-.82-4.38-2.94-5.13s-3.86-.2-5.38,1.9C980.25,61.7,973.91,72.72,973.61,79.72Z"/><path class="cls-2" d="M529.83,110.87a5.57,5.57,0,0,0-3.55.26c-1.92.79-3.23,1.52-2.29,3.52s3.54,1.83,4.65,1.32S532.55,112,529.83,110.87Z"/><path class="cls-2" d="M538.56,113.83a1.61,1.61,0,0,1,.26,2.15c-.84,1.18-1.47,2.09-3,2.43s-3.73.78-4.26-.58a3.86,3.86,0,0,1,1.5-4.47C534.79,112,538.11,113.18,538.56,113.83Z"/><path class="cls-2" d="M540,119.48a1.83,1.83,0,0,1,.94,2.42s-.37,2.06-3.57,3.27a4.31,4.31,0,0,1-4.27-2.7C532,119.85,537.76,117.84,540,119.48Z"/><path class="cls-2" d="M529.33,131.21a6.23,6.23,0,0,0,5.52-3c.87-1.68-.56-2.29-2.19-3.12a3.07,3.07,0,0,0-3.2.61s-1.85,2.06-1.71,4.18A1.38,1.38,0,0,0,529.33,131.21Z"/><path class="cls-2" d="M522.42,129a2.67,2.67,0,0,0,3,1.38c1.3-.4,1.76-1.9,2.3-3.55a18.36,18.36,0,0,1,1.45-2.22c1.17-1.51,2.61-2.24,2-4.35-.51-1.67-2.78-1.68-3.9-2.25a12,12,0,0,1-2.85-1.65c-1-.92-2-1.84-3.29-1.45a2.61,2.61,0,0,0-1.94,2.88S520,125.46,522.42,129Z"/><path class="cls-2" d="M152.89,46.54a8.62,8.62,0,0,0-5.47-.51c-3.13.71-5.31,1.48-4.4,4.76s4.92,3.7,6.74,3.2S156.73,49,152.89,46.54Z"/><path class="cls-2" d="M165.4,53.29a2.48,2.48,0,0,1-.15,3.33c-1.59,1.59-2.77,2.81-5.17,2.94s-5.86.23-6.32-2,.47-4.74,3.42-6.41S164.88,52.19,165.4,53.29Z"/><path class="cls-2" d="M166.19,62.26a2.81,2.81,0,0,1,.81,3.92s-1.08,3-6.27,4a6.62,6.62,0,0,1-5.8-5.19C153.85,60.75,163.16,59.18,166.19,62.26Z"/><path class="cls-2" d="M146.9,77.36c6.32.84,9.18-3.18,9.18-3.18,1.75-2.34-.27-3.63-2.53-5.31s-5,.11-5,.11-3.34,2.66-3.66,5.92A2.13,2.13,0,0,0,146.9,77.36Z"/><path class="cls-2" d="M137,72.2c.77,1.71,2.12,3.14,4.21,2.87s3.17-2.43,4.42-4.8a27.56,27.56,0,0,1,2.78-3c2.15-2,4.53-2.73,4.1-6.11-.34-2.66-3.79-3.27-5.35-4.41a18.39,18.39,0,0,1-3.91-3.25c-1.27-1.66-2.55-3.32-4.64-3.05s-3.32,1.47-3.69,3.88C134.89,54.32,134.25,66.22,137,72.2Z"/><path class="cls-2" d="M673.5,39.94a6.25,6.25,0,0,0-4,.42c-2.12,1-3.56,1.81-2.44,4s4,1.93,5.25,1.31S676.59,41.14,673.5,39.94Z"/><path class="cls-2" d="M683.37,43a1.79,1.79,0,0,1,.36,2.39c-.9,1.35-1.56,2.39-3.25,2.82s-4.14,1-4.78-.5-.34-3.43,1.52-5S682.84,42.25,683.37,43Z"/><path class="cls-2" d="M685.21,49.23a2,2,0,0,1,1.14,2.67s-.34,2.31-3.88,3.78a4.83,4.83,0,0,1-4.87-2.87C676.22,49.92,682.62,47.47,685.21,49.23Z"/><path class="cls-2" d="M673.65,62.72a7,7,0,0,0,6.07-3.57c.91-1.92-.71-2.55-2.56-3.42s-3.56.8-3.56.8-2,2.36-1.77,4.73A1.55,1.55,0,0,0,673.65,62.72Z"/><path class="cls-2" d="M665.85,60.47a3,3,0,0,0,3.4,1.44c1.45-.49,1.91-2.19,2.46-4a19.88,19.88,0,0,1,1.55-2.53c1.24-1.73,2.83-2.59,2-4.94-.62-1.84-3.17-1.78-4.44-2.37a13.51,13.51,0,0,1-3.24-1.75c-1.14-1-2.28-2-3.73-1.51A2.92,2.92,0,0,0,661.81,48S663.06,56.6,665.85,60.47Z"/><path class="cls-2" d="M731.61,54.44a6.93,6.93,0,0,0-4.39.46c-2.34,1.06-3.94,2-2.7,4.44s4.45,2.14,5.81,1.46S735,55.77,731.61,54.44Z"/><path class="cls-2" d="M742.52,57.78a2,2,0,0,1,.4,2.64c-1,1.5-1.73,2.65-3.59,3.13s-4.58,1.1-5.29-.56-.38-3.8,1.68-5.58S741.93,57,742.52,57.78Z"/><path class="cls-2" d="M744.56,64.71a2.25,2.25,0,0,1,1.25,3s-.37,2.57-4.29,4.19a5.33,5.33,0,0,1-5.38-3.18C734.61,65.47,741.69,62.77,744.56,64.71Z"/><path class="cls-2" d="M731.77,79.63c5.1-.33,6.71-3.95,6.71-3.95,1-2.11-.78-2.81-2.83-3.77s-3.94.88-3.94.88-2.21,2.61-2,5.23A1.71,1.71,0,0,0,731.77,79.63Z"/><path class="cls-2" d="M723.13,77.15c.89,1.22,2.17,2.13,3.77,1.59s2.11-2.42,2.72-4.48a22.33,22.33,0,0,1,1.71-2.8c1.38-1.91,3.14-2.87,2.27-5.46-.69-2-3.51-2-4.91-2.63a14.52,14.52,0,0,1-3.59-1.94c-1.26-1.1-2.53-2.2-4.13-1.66s-2.38,1.68-2.3,3.63C718.67,63.4,720.05,72.87,723.13,77.15Z"/><path class="cls-2" d="M784.25,26.49a6.21,6.21,0,0,0-3.78-1.22c-2.32,0-4,.2-3.86,2.66s2.89,3.4,4.26,3.34S786.58,28.84,784.25,26.49Z"/><path class="cls-2" d="M792,33.25a1.79,1.79,0,0,1-.64,2.33c-1.37.87-2.4,1.54-4.11,1.25s-4.18-.76-4.16-2.39,1.08-3.28,3.44-4S791.84,32.38,792,33.25Z"/><path class="cls-2" d="M791.17,39.71a2,2,0,0,1,0,2.9s-1.25,2-5.07,1.88a4.82,4.82,0,0,1-3.28-4.6C782.68,36.69,789.52,37.06,791.17,39.71Z"/><path class="cls-2" d="M775.14,47.33a7,7,0,0,0,7-.79c1.61-1.38.39-2.61-1-4.16s-3.57-.72-3.57-.72-2.78,1.35-3.53,3.6A1.55,1.55,0,0,0,775.14,47.33Z"/><path class="cls-2" d="M768.94,42.11a3,3,0,0,0,2.52,2.7c1.52.14,2.63-1.22,3.88-2.7a20.12,20.12,0,0,1,2.45-1.68c1.83-1.07,3.63-1.22,3.86-3.68.19-1.93-2.16-2.91-3.08-4a13.32,13.32,0,0,1-2.25-2.92c-.63-1.37-1.27-2.74-2.79-2.89a2.93,2.93,0,0,0-3.23,2.16S768,37.45,768.94,42.11Z"/><path class="cls-2" d="M1098.38,54.43a9.36,9.36,0,0,0-5.93-.62c-3.41.74-5.79,1.55-4.84,5.12s5.3,4.09,7.29,3.56S1102.53,57.15,1098.38,54.43Z"/><path class="cls-2" d="M1111.91,61.92a2.7,2.7,0,0,1-.21,3.62c-1.74,1.7-3,3-5.65,3.13s-6.38.18-6.85-2.23.56-5.14,3.8-6.92S1111.35,60.71,1111.91,61.92Z"/><path class="cls-2" d="M1112.65,71.68a3.06,3.06,0,0,1,.84,4.27s-1.22,3.29-6.87,4.33a7.21,7.21,0,0,1-6.24-5.72C1099.26,69.89,1109.4,68.3,1112.65,71.68Z"/><path class="cls-2" d="M1091.5,87.86c6.86,1,10-3.35,10-3.35,1.93-2.52-.25-4-2.69-5.79s-5.47,0-5.47,0-3.66,2.84-4.06,6.39A2.32,2.32,0,0,0,1091.5,87.86Z"/><path class="cls-2" d="M1080.77,82.13c.82,1.87,2.27,3.44,4.54,3.17s3.48-2.61,4.86-5.17a31.46,31.46,0,0,1,3.06-3.23c2.37-2.15,5-2.91,4.54-6.6-.34-2.89-4.09-3.6-5.77-4.86a20.1,20.1,0,0,1-4.21-3.58c-1.36-1.81-2.73-3.63-5-3.37s-3.63,1.56-4.07,4.17C1078.72,62.66,1077.89,75.6,1080.77,82.13Z"/><path class="cls-2" d="M1284.3,10.91a8.3,8.3,0,0,0-5.24-.74c-3,.54-5.17,1.18-4.45,4.37s4.56,3.8,6.34,3.4S1287.88,13.46,1284.3,10.91Z"/><path class="cls-2" d="M1296,18a2.38,2.38,0,0,1-.31,3.19c-1.59,1.45-2.79,2.57-5.1,2.58s-5.66-.05-6-2.19.68-4.54,3.6-6S1295.58,16.91,1296,18Z"/><path class="cls-2" d="M1296.37,26.66a2.72,2.72,0,0,1,.6,3.81s-1.19,2.87-6.23,3.61a6.37,6.37,0,0,1-5.33-5.27C1284.56,24.64,1293.6,23.56,1296.37,26.66Z"/><path class="cls-2" d="M1277.1,40.29c6,1.11,9-2.63,9-2.63,1.79-2.17-.08-3.5-2.19-5.22s-4.84-.14-4.84-.14-3.34,2.4-3.81,5.53A2.05,2.05,0,0,0,1277.1,40.29Z"/><path class="cls-2" d="M1267.78,34.87c.67,1.68,1.9,3.11,3.92,3s3.17-2.19,4.48-4.41a26.6,26.6,0,0,1,2.82-2.77c2.16-1.82,4.49-2.41,4.23-5.69-.2-2.57-3.5-3.32-5-4.49a17.75,17.75,0,0,1-3.61-3.31c-1.14-1.65-2.29-3.31-4.32-3.15s-3.26,1.26-3.73,3.56C1266.62,17.56,1265.45,29,1267.78,34.87Z"/><path class="cls-2" d="M1353.46,52.26a8.13,8.13,0,0,0-4.54-2.53c-3-.57-5.15-.74-5.61,2.45s2.84,5.08,4.61,5.34S1355.85,55.85,1353.46,52.26Z"/><path class="cls-2" d="M1361.72,62.87a2.34,2.34,0,0,1-1.4,2.82c-2,.77-3.47,1.38-5.59.58s-5.16-2-4.72-4.12,2.21-3.93,5.41-4.25S1361.69,61.72,1361.72,62.87Z"/><path class="cls-2" d="M1359,70.93a2.66,2.66,0,0,1-.79,3.7s-2.1,2.22-7,1.12a6.28,6.28,0,0,1-3-6.71C1348.88,64.92,1357.54,67.12,1359,70.93Z"/><path class="cls-2" d="M1336.54,76.65c5.14,3.14,9.15.74,9.15.74,2.4-1.35,1.15-3.24-.17-5.55s-4.4-1.83-4.4-1.83-3.9,1-5.42,3.72A2,2,0,0,0,1336.54,76.65Z"/><path class="cls-2" d="M1329.9,68.4c0,1.78.64,3.52,2.56,4.09s3.67-.9,5.65-2.48a26.76,26.76,0,0,1,3.55-1.54c2.63-.91,5-.63,5.88-3.72.72-2.44-2-4.28-3-5.86a17.5,17.5,0,0,1-2.15-4.31c-.46-1.91-.93-3.83-2.84-4.4s-3.44,0-4.68,2C1334.92,52.13,1329.83,62.19,1329.9,68.4Z"/><path class="cls-2" d="M1237.82,71.74a7.14,7.14,0,0,0-4.49.7c-2.37,1.21-4,2.27-2.56,4.71s4.7,2,6.06,1.2S1241.4,72.93,1237.82,71.74Z"/><path class="cls-2" d="M1249.23,74.62a2,2,0,0,1,.55,2.7c-1,1.59-1.65,2.81-3.55,3.4s-4.66,1.38-5.47-.3-.59-3.9,1.44-5.84S1248.58,73.83,1249.23,74.62Z"/><path class="cls-2" d="M1251.68,81.65a2.33,2.33,0,0,1,1.45,3s-.26,2.66-4.21,4.52a5.49,5.49,0,0,1-5.71-3C1241.48,82.94,1248.63,79.79,1251.68,81.65Z"/><path class="cls-2" d="M1239.27,97.68c5.24-.61,6.72-4.42,6.72-4.42.93-2.23-1-2.85-3.11-3.74s-4,1.11-4,1.11-2.14,2.81-1.74,5.49A1.77,1.77,0,0,0,1239.27,97.68Z"/><path class="cls-2" d="M1230.26,95.56c1,1.21,2.34,2.08,4,1.44s2-2.59,2.57-4.75a23.43,23.43,0,0,1,1.62-3c1.32-2,3.08-3.11,2-5.74-.81-2.06-3.71-1.85-5.19-2.45a15.38,15.38,0,0,1-3.8-1.81c-1.35-1.07-2.71-2.15-4.34-1.51s-2.36,1.86-2.17,3.86C1225,81.63,1226.86,91.31,1230.26,95.56Z"/><path class="cls-2" d="M1034.09,105.87a8.76,8.76,0,0,0-5.55-.68c-3.21.63-5.45,1.34-4.62,4.71s4.89,3.92,6.76,3.47S1037.92,108.49,1034.09,105.87Z"/><path class="cls-2" d="M1046.63,113.13a2.52,2.52,0,0,1-.26,3.38c-1.67,1.57-2.91,2.78-5.35,2.83s-6,.06-6.38-2.2.62-4.81,3.68-6.42S1046.13,112,1046.63,113.13Z"/><path class="cls-2" d="M1047.15,122.28a2.87,2.87,0,0,1,.71,4s-1.2,3.06-6.51,3.94a6.75,6.75,0,0,1-5.74-5.47C1034.64,120.37,1044.16,119.06,1047.15,122.28Z"/><path class="cls-2" d="M1027.06,137.07c6.4,1.05,9.43-3,9.43-3,1.86-2.33-.15-3.7-2.41-5.48s-5.13,0-5.13,0-3.48,2.6-3.91,5.91A2.18,2.18,0,0,0,1027.06,137.07Z"/><path class="cls-2" d="M1017.1,131.52c.74,1.76,2.06,3.25,4.2,3s3.3-2.38,4.64-4.75a29.37,29.37,0,0,1,2.93-3c2.25-2,4.7-2.64,4.36-6.1-.26-2.71-3.76-3.44-5.32-4.65a18.7,18.7,0,0,1-3.88-3.43c-1.23-1.72-2.49-3.45-4.63-3.24s-3.42,1.39-3.87,3.83C1015.53,113.24,1014.51,125.34,1017.1,131.52Z"/><path class="cls-2" d="M1184.24,39.33a7.14,7.14,0,0,0-4.46.7c-2.34,1.2-3.92,2.25-2.54,4.68s4.67,1.95,6,1.19S1187.79,40.52,1184.24,39.33Z"/><path class="cls-2" d="M1195.57,42.19a2,2,0,0,1,.54,2.68c-.94,1.58-1.64,2.79-3.52,3.38s-4.62,1.36-5.43-.3-.58-3.87,1.43-5.79S1194.92,41.41,1195.57,42.19Z"/><path class="cls-2" d="M1198,49.17a2.3,2.3,0,0,1,1.43,2.95s-.25,2.64-4.17,4.5a5.46,5.46,0,0,1-5.67-3C1187.87,50.46,1195,47.33,1198,49.17Z"/><path class="cls-2" d="M1185.68,65.07c5.2-.59,6.67-4.37,6.67-4.37.92-2.22-.94-2.84-3.09-3.72s-4,1.1-4,1.1-2.13,2.79-1.73,5.45A1.75,1.75,0,0,0,1185.68,65.07Z"/><path class="cls-2" d="M1176.74,63c1,1.21,2.32,2.07,3.93,1.44s2-2.58,2.55-4.72a23,23,0,0,1,1.6-2.95c1.32-2,3.07-3.09,2-5.69-.81-2-3.68-1.84-5.15-2.44a15,15,0,0,1-3.77-1.8c-1.34-1.06-2.69-2.12-4.3-1.49s-2.35,1.84-2.16,3.83C1171.48,49.15,1173.37,58.76,1176.74,63Z"/><path class="cls-2" d="M1427.55,26.55a8.28,8.28,0,0,0-4.34-3c-2.94-.85-5.12-1.22-5.88,1.94s2.39,5.38,4.15,5.81S1429.62,30.39,1427.55,26.55Z"/><path class="cls-2" d="M1434.88,38a2.36,2.36,0,0,1-1.68,2.7c-2.06.6-3.62,1.07-5.68.06s-5-2.53-4.37-4.59,2.59-3.74,5.84-3.76S1435,36.84,1434.88,38Z"/><path class="cls-2" d="M1431.37,45.87a2.68,2.68,0,0,1-1.14,3.65s-2.32,2-7.13.48a6.35,6.35,0,0,1-2.43-7C1421.75,38.88,1430.27,41.89,1431.37,45.87Z"/><path class="cls-2" d="M1408.23,49.54c4.89,3.64,9.15,1.6,9.15,1.6,2.55-1.14,1.47-3.16.35-5.61s-4.26-2.25-4.26-2.25-4,.67-5.81,3.24A2,2,0,0,0,1408.23,49.54Z"/><path class="cls-2" d="M1402.32,40.61c-.14,1.8.32,3.61,2.19,4.36s3.79-.57,5.93-2a27.3,27.3,0,0,1,3.72-1.22c2.72-.67,5.06-.18,6.27-3.21,1-2.38-1.66-4.49-2.43-6.17a17.81,17.81,0,0,1-1.77-4.53c-.28-2-.58-4-2.45-4.7s-3.46-.31-4.89,1.52C1408.89,24.69,1402.83,34.35,1402.32,40.61Z"/><path class="cls-2" d="M1144.35,97.45a7.42,7.42,0,0,0-4.68.79c-2.45,1.28-4.1,2.4-2.62,4.94s4.93,2,6.34,1.18S1148.1,98.66,1144.35,97.45Z"/><path class="cls-2" d="M1156.28,100.33a2.14,2.14,0,0,1,.61,2.81c-1,1.67-1.69,3-3.66,3.59s-4.85,1.49-5.72-.25-.65-4.06,1.45-6.11S1155.6,99.52,1156.28,100.33Z"/><path class="cls-2" d="M1158.92,107.64a2.42,2.42,0,0,1,1.54,3.09s-.24,2.78-4.34,4.77a5.73,5.73,0,0,1-6-3.06C1148.29,109.1,1155.71,105.74,1158.92,107.64Z"/><path class="cls-2" d="M1146.15,124.5c5.46-.69,7-4.68,7-4.68.94-2.34-1-3-3.29-3.87s-4.17,1.2-4.17,1.2-2.21,2.95-1.76,5.74A1.85,1.85,0,0,0,1146.15,124.5Z"/><path class="cls-2" d="M1136.72,122.38c1,1.26,2.46,2.15,4.15,1.47s2.11-2.73,2.63-5a24.88,24.88,0,0,1,1.65-3.12c1.36-2.14,3.19-3.27,2.08-6-.87-2.15-3.89-1.9-5.44-2.51a15.82,15.82,0,0,1-4-1.84c-1.42-1.11-2.85-2.21-4.54-1.53s-2.45,2-2.23,4C1131,107.91,1133.13,118,1136.72,122.38Z"/><path class="cls-2" d="M1472.11,81.36a6.69,6.69,0,0,0-3.76-2c-2.45-.46-4.24-.58-4.6,2.05s2.38,4.16,3.83,4.36S1474.09,84.3,1472.11,81.36Z"/><path class="cls-2" d="M1479,90a1.91,1.91,0,0,1-1.13,2.32c-1.62.65-2.84,1.16-4.59.51s-4.27-1.63-3.92-3.35,1.79-3.24,4.42-3.53S1478.94,89.08,1479,90Z"/><path class="cls-2" d="M1476.78,96.68a2.19,2.19,0,0,1-.63,3s-1.71,1.84-5.72,1a5.16,5.16,0,0,1-2.55-5.5C1468.42,91.81,1475.56,93.55,1476.78,96.68Z"/><path class="cls-2" d="M1458.36,101.54c4.25,2.55,7.53.55,7.53.55,2-1.13.93-2.67-.18-4.57s-3.63-1.47-3.63-1.47-3.2.87-4.44,3.1A1.66,1.66,0,0,0,1458.36,101.54Z"/><path class="cls-2" d="M1452.84,94.8c0,1.46.56,2.9,2.13,3.35s3-.77,4.63-2.08a23.11,23.11,0,0,1,2.91-1.29c2.16-.76,4.08-.56,4.82-3.11.57-2-1.71-3.5-2.47-4.79a14.18,14.18,0,0,1-1.8-3.53c-.39-1.57-.8-3.15-2.37-3.6a3.12,3.12,0,0,0-3.83,1.63S1452.74,89.69,1452.84,94.8Z"/><path class="cls-2" d="M1639.74,100.56a6.19,6.19,0,0,0-3.45,1.87c-1.57,1.66-2.56,3-.72,4.57s4.39.25,5.28-.77S1643,100.5,1639.74,100.56Z"/><path class="cls-2" d="M1649.86,99.61a1.77,1.77,0,0,1,1.23,2c-.31,1.57-.53,2.76-1.91,3.79s-3.39,2.46-4.54,1.34-1.6-3-.51-5.17S1649.11,99.16,1649.86,99.61Z"/><path class="cls-2" d="M1653.88,104.63a2,2,0,0,1,2,2s.56,2.24-2.11,4.9a4.74,4.74,0,0,1-5.51-.79C1646,108.62,1650.86,104,1653.88,104.63Z"/><path class="cls-2" d="M1648.41,121.25a6.87,6.87,0,0,0,4.19-5.53c.12-2.08-1.59-2-3.6-2.15s-3,2.06-3,2.06-.93,2.9.16,5A1.53,1.53,0,0,0,1648.41,121.25Z"/><path class="cls-2" d="M1640.46,122.13a2.93,2.93,0,0,0,3.65,0c1.13-1,.91-2.71.71-4.61a20.61,20.61,0,0,1,.46-2.89c.49-2,1.62-3.42,0-5.26-1.26-1.44-3.56-.44-4.93-.5a13.44,13.44,0,0,1-3.62-.37c-1.4-.49-2.82-1-4,0a2.87,2.87,0,0,0-.66,3.77S1636.48,119.65,1640.46,122.13Z"/><path class="cls-2" d="M1715.37,79.26a6.19,6.19,0,0,0-3.45,1.87c-1.57,1.66-2.56,3-.72,4.57s4.39.25,5.27-.77S1718.63,79.2,1715.37,79.26Z"/><path class="cls-2" d="M1725.49,78.31a1.77,1.77,0,0,1,1.23,2c-.32,1.57-.53,2.76-1.91,3.79s-3.39,2.46-4.54,1.34-1.6-3-.51-5.17S1724.74,77.86,1725.49,78.31Z"/><path class="cls-2" d="M1729.51,83.32a2,2,0,0,1,2,2s.56,2.24-2.12,4.9a4.72,4.72,0,0,1-5.5-.79C1721.58,87.32,1726.49,82.7,1729.51,83.32Z"/><path class="cls-2" d="M1724,100a6.87,6.87,0,0,0,4.19-5.53c.12-2.08-1.59-2-3.61-2.15s-2.94,2.06-2.94,2.06-.94,2.9.16,5A1.53,1.53,0,0,0,1724,100Z"/><path class="cls-2" d="M1716.09,100.83a2.92,2.92,0,0,0,3.64,0c1.14-1,.92-2.71.72-4.61a20.61,20.61,0,0,1,.46-2.89c.49-2,1.62-3.42,0-5.26-1.26-1.44-3.56-.44-4.94-.5a13.35,13.35,0,0,1-3.61-.37c-1.4-.49-2.83-1-4,0a2.87,2.87,0,0,0-.66,3.77S1712.1,98.35,1716.09,100.83Z"/><path class="cls-2" d="M52.88,92.05A2.9,2.9,0,0,0,56,87.2l8.44-16.1a2.9,2.9,0,0,0,2.2-5.35,2.85,2.85,0,0,0-1.82-.29,2.91,2.91,0,1,0-4.53,3.21L51.78,85a2.9,2.9,0,1,0-.25,5.59A2.9,2.9,0,0,0,52.88,92.05Z"/><path class="cls-2" d="M123.84,58.17a2.91,2.91,0,0,0-5.4,2.1l-16.25,8.12a2.91,2.91,0,1,0-3.61,4.36,2.94,2.94,0,0,0,.17,2.19,2.91,2.91,0,0,0,5.38-2.15l16.45-8.22a2.91,2.91,0,0,0,5-3,2.88,2.88,0,0,0-1.48-1.38A2.88,2.88,0,0,0,123.84,58.17Z"/><path class="cls-2" d="M171.9,34.07a2.24,2.24,0,0,0-3.38-2.92L157.09,23a2.24,2.24,0,0,0-3.86-2.24,2.2,2.2,0,0,0-.41,1.36,2.25,2.25,0,1,0,2,3.8l11.56,8.24a2.24,2.24,0,0,0,3.84,2.29,2.2,2.2,0,0,0,.41-1.51A2.23,2.23,0,0,0,171.9,34.07Z"/><path class="cls-2" d="M224.43,62.62a2.75,2.75,0,0,0-5.24,1.63l-15.91,6.61a2.75,2.75,0,0,0-4.84,2.57,2.71,2.71,0,0,0,1.15,1.32,2.75,2.75,0,1,0,5.24.4l16.1-6.7a2.75,2.75,0,0,0,4.87-2.52,2.66,2.66,0,0,0-1.3-1.4A2.74,2.74,0,0,0,224.43,62.62Z"/><path class="cls-2" d="M294,37.51a3,3,0,0,0-5.89.26l-18.35,2.54a3,3,0,1,0-4.9,3,2.94,2.94,0,0,0-.56,2.17,3,3,0,0,0,5.9-.32l18.57-2.56a3,3,0,1,0,4.79-3.11A3,3,0,0,0,294,37.51Z"/><path class="cls-2" d="M460.06,89.48a2.64,2.64,0,0,0-4.39,2.9l-12.89,10.35a2.64,2.64,0,0,0-3.78,3.66,2.67,2.67,0,0,0,1.42.91,2.61,2.61,0,0,0,.57,1.91,2.64,2.64,0,0,0,4.37-2.94l13-10.48a2.64,2.64,0,1,0,2.24-4.57A2.58,2.58,0,0,0,460.06,89.48Z"/><path class="cls-2" d="M799.28,56.66a2.64,2.64,0,0,0-5,1.71l-15.07,6.79a2.64,2.64,0,0,0-4.58,2.6A2.69,2.69,0,0,0,775.8,69a2.6,2.6,0,0,0,.07,2,2.64,2.64,0,0,0,5-1.75l15.25-6.87a2.65,2.65,0,1,0,3.32-3.87A2.65,2.65,0,0,0,799.28,56.66Z"/><path class="cls-2" d="M893.88,90.66A2.64,2.64,0,0,0,891,86.24l-10.2-13a2.64,2.64,0,0,0-3.61-3.83,2.59,2.59,0,0,0-.93,1.41,2.64,2.64,0,1,0,1,5l10.33,13.17a2.64,2.64,0,1,0,4.54,2.29A2.6,2.6,0,0,0,893.88,90.66Z"/><path class="cls-2" d="M993.71,109.41a2.65,2.65,0,0,0-5,1.71l-15.07,6.79a2.64,2.64,0,0,0-4.58,2.6,2.69,2.69,0,0,0,1.15,1.23,2.64,2.64,0,1,0,5,.24l15.25-6.87a2.65,2.65,0,1,0,3.32-3.87A2.64,2.64,0,0,0,993.71,109.41Z"/><path class="cls-2" d="M1103,116.74a2.65,2.65,0,0,0-4-3.44l-13.46-9.59a2.64,2.64,0,0,0-4.55-2.65,2.61,2.61,0,0,0-.49,1.61,2.65,2.65,0,0,0-1.07,4.76,2.65,2.65,0,0,0,3.4-.28l13.63,9.71a2.64,2.64,0,0,0,4.53,2.68,2.65,2.65,0,0,0,.48-1.77A2.63,2.63,0,0,0,1103,116.74Z"/><path class="cls-2" d="M1406.71,81.74a2.64,2.64,0,0,0-4-3.44l-13.46-9.59a2.65,2.65,0,1,0-5-1,2.68,2.68,0,0,0-1.69,1.07,2.65,2.65,0,0,0,4,3.41l13.62,9.71a2.65,2.65,0,0,0,4.54,2.68,2.59,2.59,0,0,0,.47-1.77A2.56,2.56,0,0,0,1406.71,81.74Z"/><path class="cls-2" d="M1620.85,111.45a2.65,2.65,0,0,0-4-3.44l-13.46-9.59a2.64,2.64,0,1,0-5-1,2.64,2.64,0,1,0,2.33,4.47l13.63,9.71a2.64,2.64,0,1,0,5,.91A2.59,2.59,0,0,0,1620.85,111.45Z"/><path class="cls-2" d="M1765.56,83.78a2.65,2.65,0,0,0-4-3.44l-13.46-9.59a2.64,2.64,0,1,0-5-1,2.61,2.61,0,0,0-1.68,1.07,2.65,2.65,0,0,0,4,3.41L1759,83.9a2.64,2.64,0,0,0,4.53,2.68,2.6,2.6,0,0,0,.48-1.77A2.68,2.68,0,0,0,1765.56,83.78Z"/><path class="cls-2" d="M1200.51,87.09a2.64,2.64,0,0,0-3.92,3.51l-11.24,12.12a2.64,2.64,0,0,0-3.2,4.18,2.58,2.58,0,0,0,1.53.69,2.64,2.64,0,1,0,4.74-1.74l11.37-12.27a2.64,2.64,0,0,0,3.24-4.15,2.6,2.6,0,0,0-1.7-.7A2.57,2.57,0,0,0,1200.51,87.09Z"/><path class="cls-2" d="M1302.46,73.66a2.64,2.64,0,0,0-5,1.48l-15.36,6.1a2.65,2.65,0,0,0-4.7,2.38,2.72,2.72,0,0,0,1.09,1.29,2.65,2.65,0,0,0,3.42,3.48,2.66,2.66,0,0,0,1.61-3L1299,79.21a2.64,2.64,0,1,0,3.48-3.71A2.6,2.6,0,0,0,1302.46,73.66Z"/><path class="cls-2" d="M1522.32,90.37a2.65,2.65,0,0,0-5.06,1.48L1501.9,98a2.64,2.64,0,1,0-3.61,3.67,2.65,2.65,0,0,0,3.42,3.48,2.65,2.65,0,0,0,1.61-3l15.55-6.18a2.64,2.64,0,0,0,4.71-2.34,2.65,2.65,0,0,0-1.22-1.37A2.68,2.68,0,0,0,1522.32,90.37Z"/><path class="cls-2" d="M1692.76,97.94a2.64,2.64,0,0,0-5,1.49l-15.36,6.09a2.65,2.65,0,1,0-3.61,3.67,2.64,2.64,0,1,0,5,.47l15.55-6.17a2.65,2.65,0,0,0,4.72-2.35,2.61,2.61,0,0,0-1.23-1.36A2.65,2.65,0,0,0,1692.76,97.94Z"/><path class="cls-2" d="M326.27,100.67a2.94,2.94,0,0,0-3-5L312.39,80.88a2.94,2.94,0,0,0-3.89-4.37A3,3,0,0,0,307.43,78a2.93,2.93,0,0,0-2.77,4.65,2.93,2.93,0,0,0,3.68.88l11,15a2.93,2.93,0,1,0,5,2.7A3,3,0,0,0,326.27,100.67Z"/><path class="cls-2" d="M371.88,72.36a2.77,2.77,0,0,0,2.58,4.87l9.46,14.48A2.77,2.77,0,0,0,387.35,96a2.72,2.72,0,0,0,1.09-1.38,2.7,2.7,0,0,0,2.05-.4,2.77,2.77,0,0,0-2.62-4.85l-9.58-14.66a2.76,2.76,0,0,0-3.39-4.34,2.72,2.72,0,0,0-1.14,1.54A2.78,2.78,0,0,0,371.88,72.36Z"/><path class="cls-2" d="M393.22,131.06a2.77,2.77,0,0,0,5.25-1.71l15.88-6.84a2.77,2.77,0,1,0,3.66-4,2.75,2.75,0,0,0,0-2.09,2.77,2.77,0,0,0-5.23,1.75l-16.09,6.93a2.77,2.77,0,1,0-3.53,4A2.77,2.77,0,0,0,393.22,131.06Z"/><path class="cls-2" d="M500.93,129a2.77,2.77,0,0,0-4.59-3l-15.23-8.2a2.77,2.77,0,1,0-5.37-.42,2.8,2.8,0,0,0-1.61,1.33,2.77,2.77,0,0,0,4.62,3l15.42,8.3a2.77,2.77,0,1,0,5.32.3A2.74,2.74,0,0,0,500.93,129Z"/><path class="cls-2" d="M543.61,91.13a2.77,2.77,0,0,0-5.36-1.28l-17.13-2.43a2.76,2.76,0,1,0-5.18,1.46,2.77,2.77,0,1,0,4.32,3l17.34,2.46a2.76,2.76,0,0,0,5.5.32,2.72,2.72,0,0,0-.41-1.88A2.78,2.78,0,0,0,543.61,91.13Z"/><path class="cls-2" d="M588.45,91.41a2.77,2.77,0,0,0-4.69,2.9L570,104.74a2.77,2.77,0,0,0-4.07,3.71,2.69,2.69,0,0,0,1.45,1,2.73,2.73,0,0,0,.54,2,2.77,2.77,0,0,0,4.66-3l14-10.55a2.77,2.77,0,0,0,4.11-3.68,2.75,2.75,0,0,0-1.62-1A2.8,2.8,0,0,0,588.45,91.41Z"/><path class="cls-2" d="M696.07,80.78a2.77,2.77,0,0,0-5.14-2l-16.66-4.68a2.77,2.77,0,1,0-5.33.77,2.77,2.77,0,1,0,3.88,3.58l16.86,4.73a2.77,2.77,0,0,0,5.42,1,2.8,2.8,0,0,0-.16-1.92A2.72,2.72,0,0,0,696.07,80.78Z"/><path class="cls-2" d="M626.86,54a2.76,2.76,0,0,0-5.23,1.71l-15.88,6.87a2.77,2.77,0,1,0-3.65,4,2.77,2.77,0,1,0,5.27.33l16.07-7a2.77,2.77,0,1,0,3.53-4A2.72,2.72,0,0,0,626.86,54Z"/><path class="cls-2" d="M716.41,31.53A2.77,2.77,0,0,0,721,34.64L736.08,43a2.77,2.77,0,1,0,5.36.49,2.77,2.77,0,1,0-3-4.38l-15.3-8.51a2.77,2.77,0,0,0-5-2.26,2.71,2.71,0,0,0-.29,1.9A2.7,2.7,0,0,0,716.41,31.53Z"/><path class="cls-2" d="M832.35,33.08a2.77,2.77,0,0,0,5.51-.19L855,30.69a2.77,2.77,0,1,0,4.61-2.79,2.77,2.77,0,1,0-5-1.78l-17.37,2.23a2.77,2.77,0,0,0-5.39,1.15,2.7,2.7,0,0,0,.89,1.71A2.8,2.8,0,0,0,832.35,33.08Z"/><path class="cls-2" d="M963.18,55.44a2.77,2.77,0,0,0-5,2.22L943,66.09a2.77,2.77,0,1,0-3.24,4.3,2.7,2.7,0,0,0,.25,2.07,2.76,2.76,0,0,0,5-2.27l15.3-8.53a2.77,2.77,0,1,0,3.11-4.33A2.75,2.75,0,0,0,963.18,55.44Z"/><path class="cls-2" d="M1063.7,80.49a2.77,2.77,0,0,0-5.18-1.88l-16.74-4.38a2.76,2.76,0,1,0-5.31.86,2.77,2.77,0,1,0,3.94,3.51L1057.35,83a2.77,2.77,0,1,0,5.24-1A2.79,2.79,0,0,0,1063.7,80.49Z"/><path class="cls-2" d="M1244.49,41.07a2.77,2.77,0,0,0-5.18-1.88l-16.74-4.39a2.76,2.76,0,0,0-5.43-.89,2.71,2.71,0,0,0,.12,1.76,2.73,2.73,0,0,0-1.26,1.67,2.77,2.77,0,0,0,5.2,1.84l16.94,4.43a2.77,2.77,0,1,0,5.24-1A2.77,2.77,0,0,0,1244.49,41.07Z"/><path class="cls-2" d="M1479.09,47.27a2.77,2.77,0,0,0-3.89-3.91l-13.27-11.09a2.77,2.77,0,1,0-5.18-1.49,2.77,2.77,0,1,0,2.07,4.86l13.44,11.23a2.77,2.77,0,1,0,5.16,1.35A2.74,2.74,0,0,0,1479.09,47.27Z"/><path class="cls-2" d="M1719.06,62.12a2.77,2.77,0,0,0-3.88-3.91L1701.9,47.12a2.77,2.77,0,0,0-4.54-3.13,2.71,2.71,0,0,0-.63,1.64,2.77,2.77,0,1,0,2.07,4.86l13.44,11.23a2.77,2.77,0,1,0,5.15,1.35A2.72,2.72,0,0,0,1719.06,62.12Z"/><path class="cls-2" d="M1157.27,53a2.77,2.77,0,0,0-3.81,4l-10.72,13.57a2.77,2.77,0,0,0-3,4.62,2.84,2.84,0,0,0,1.66.6,2.74,2.74,0,0,0,1,1.81,2.76,2.76,0,0,0,3.77-4l10.86-13.74a2.76,2.76,0,1,0,1.22-5.19A2.82,2.82,0,0,0,1157.27,53Z"/><path class="cls-2" d="M1365.46,16.71a3,3,0,0,0-5.89,1.38l-18,6a3,3,0,1,0-4.37,4,3,3,0,1,0,5.73.86l18.24-6.1a3,3,0,1,0,4.23-4A3,3,0,0,0,1365.46,16.71Z"/><path class="cls-2" d="M1607.35,59a3,3,0,0,0-5.89,1.38l-18,6a3,3,0,1,0-4.36,4,3,3,0,0,0-.15,2.29,3,3,0,0,0,5.88-1.44L1603,65.19a3,3,0,0,0,5.56-2.4,3,3,0,0,0-1.32-1.64A3,3,0,0,0,1607.35,59Z"/></g></svg>