<svg xmlns="http://www.w3.org/2000/svg" viewBox="0 0 850.39 85.04"><defs><style>.cls-1{fill:#c17e4e;}</style></defs><g id="Capa_7" data-name="Capa 7"><path class="cls-1" d="M33.84,50.3a3.41,3.41,0,0,0-1.71,1.19c-.74.95-1.2,1.7-.2,2.39s2.27-.16,2.69-.74S35.51,50.05,33.84,50.3Z"/><path class="cls-1" d="M39,49.15a.84.84,0,0,1,.7,1,2.88,2.88,0,0,1-.83,2.07c-.67.62-1.66,1.49-2.29,1a2.14,2.14,0,0,1-.45-2.62A3,3,0,0,1,39,49.15Z"/><path class="cls-1" d="M41.26,51.45a1,1,0,0,1,1.12.9s.38,1.11-.9,2.65a2.44,2.44,0,0,1-2.86,0C37.33,54,39.69,51.33,41.26,51.45Z"/><path class="cls-1" d="M39.07,60.34a3.8,3.8,0,0,0,2-3.11c0-1.08-.9-.95-1.94-.86s-1.44,1.25-1.44,1.25a3.82,3.82,0,0,0,.27,2.54A.78.78,0,0,0,39.07,60.34Z"/><path class="cls-1" d="M35,61.32a1.52,1.52,0,0,0,1.88-.23c.54-.58.37-1.44.19-2.41a10.58,10.58,0,0,1,.13-1.51c.18-1.08.71-1.86-.19-2.7-.7-.66-1.84,0-2.55.07a6.87,6.87,0,0,1-1.87.05c-.74-.16-1.49-.31-2,.27a1.51,1.51,0,0,0-.2,2S32.87,60.31,35,61.32Z"/><path class="cls-1" d="M6.85,50.88a3.52,3.52,0,0,0-1.95,1c-.92.87-1.51,1.57-.58,2.44s2.37.19,2.89-.35S8.62,50.88,6.85,50.88Z"/><path class="cls-1" d="M12.38,50.49A.9.9,0,0,1,13,51.6a3,3,0,0,1-1.19,2c-.79.53-1.94,1.28-2.52.66a2.24,2.24,0,0,1-.06-2.78A3.15,3.15,0,0,1,12.38,50.49Z"/><path class="cls-1" d="M14.35,53.23a1,1,0,0,1,1,1.1s.21,1.21-1.35,2.6a2.55,2.55,0,0,1-2.95-.49C9.88,55.28,12.74,52.86,14.35,53.23Z"/><path class="cls-1" d="M10.69,62.08a3.94,3.94,0,0,0,2.5-2.91c.15-1.12-.78-1.12-1.86-1.2A2,2,0,0,0,9.64,59a4,4,0,0,0-.11,2.67A.8.8,0,0,0,10.69,62.08Z"/><path class="cls-1" d="M6.34,62.46a1.61,1.61,0,0,0,2,.06c.65-.52.61-1.44.58-2.46a11,11,0,0,1,.37-1.55c.35-1.09,1-1.82.23-2.82-.63-.79-1.91-.28-2.66-.33a7,7,0,0,1-1.94-.25c-.74-.27-1.49-.54-2.15,0a1.58,1.58,0,0,0-.52,2S4.28,61.08,6.34,62.46Z"/><path class="cls-1" d="M128.7,38.71a3.79,3.79,0,0,0-1.87-1.37c-1.28-.44-2.23-.66-2.6.65s1,2.34,1.76,2.57S129.57,40.38,128.7,38.71Z"/><path class="cls-1" d="M131.79,43.74a1,1,0,0,1-.76,1.1,3.18,3.18,0,0,1-2.49-.14c-.89-.48-2.17-1.2-1.87-2.05a2.4,2.4,0,0,1,2.6-1.43C130.7,41.3,131.84,43.25,131.79,43.74Z"/><path class="cls-1" d="M130.17,47a1.09,1.09,0,0,1-.53,1.51s-1,.79-3.13,0a2.73,2.73,0,0,1-1-3C126,43.75,129.73,45.25,130.17,47Z"/><path class="cls-1" d="M120,47.86a4.22,4.22,0,0,0,4,.93c1.13-.41.67-1.29.21-2.35a2.1,2.1,0,0,0-1.84-1.07,4.26,4.26,0,0,0-2.58,1.2A.86.86,0,0,0,120,47.86Z"/><path class="cls-1" d="M117.5,43.93a1.71,1.71,0,0,0,.91,1.9c.82.37,1.67-.13,2.62-.66a11.4,11.4,0,0,1,1.64-.41c1.21-.21,2.22.06,2.78-1.18.45-1-.67-1.94-1-2.67a7.59,7.59,0,0,1-.73-2c-.1-.84-.21-1.68-1-2.05a1.68,1.68,0,0,0-2.16.51S117.79,41.31,117.5,43.93Z"/><path class="cls-1" d="M42.09,17.77a4.52,4.52,0,0,0-2.66.85c-1.35.94-2.24,1.72-1.21,3s3,.69,3.76.1S44.35,18.11,42.09,17.77Z"/><path class="cls-1" d="M49.22,18.32a1.14,1.14,0,0,1,.53,1.52,3.88,3.88,0,0,1-1.9,2.34c-1.11.53-2.72,1.27-3.34.37A2.88,2.88,0,0,1,45,19C46.05,17.66,48.77,17.92,49.22,18.32Z"/><path class="cls-1" d="M51.22,22.19a1.3,1.3,0,0,1,1.09,1.59s0,1.58-2.22,3.07a3.3,3.3,0,0,1-3.67-1.19C45.13,24,49.23,21.4,51.22,22.19Z"/><path class="cls-1" d="M44.87,32.79a5.12,5.12,0,0,0,3.75-3.25c.4-1.39-.79-1.58-2.16-1.88a2.56,2.56,0,0,0-2.35,1.05,5.16,5.16,0,0,0-.66,3.38A1.05,1.05,0,0,0,44.87,32.79Z"/><path class="cls-1" d="M39.25,32.44a2.06,2.06,0,0,0,2.51.46c.93-.54,1.05-1.73,1.21-3a14.39,14.39,0,0,1,.76-1.9c.65-1.32,1.64-2.12.83-3.56-.65-1.12-2.39-.71-3.33-.92a9,9,0,0,1-2.43-.68c-.9-.49-1.8-1-2.74-.45a2,2,0,0,0-1,2.48S36.89,30.3,39.25,32.44Z"/><path class="cls-1" d="M171.3,56a3.27,3.27,0,0,0-2-.62c-1.24,0-2.13.15-2,1.46s1.57,1.78,2.3,1.73S172.57,57.21,171.3,56Z"/><path class="cls-1" d="M175.51,59.51a.94.94,0,0,1-.32,1.24,2.81,2.81,0,0,1-2.18.71c-.91-.14-2.23-.37-2.24-1.24a2.29,2.29,0,0,1,1.8-2.15C173.82,57.66,175.4,59.05,175.51,59.51Z"/><path class="cls-1" d="M175.11,63a1.09,1.09,0,0,1,0,1.55s-.64,1.06-2.68,1a2.54,2.54,0,0,1-1.79-2.42C170.56,61.43,174.21,61.56,175.11,63Z"/><path class="cls-1" d="M166.64,67.17a3.73,3.73,0,0,0,3.72-.49c.84-.75.18-1.39-.55-2.2a1.83,1.83,0,0,0-1.91-.35,4,4,0,0,0-1.85,2A.83.83,0,0,0,166.64,67.17Z"/><path class="cls-1" d="M163.28,64.45a1.58,1.58,0,0,0,1.37,1.41c.81.06,1.39-.68,2-1.47a9.83,9.83,0,0,1,1.28-.92c1-.59,1.93-.68,2-2,.08-1-1.18-1.53-1.68-2.08a7.49,7.49,0,0,1-1.23-1.54c-.34-.72-.7-1.45-1.51-1.51a1.56,1.56,0,0,0-1.7,1.18S162.72,62,163.28,64.45Z"/><path class="cls-1" d="M198.46,46.48a2.79,2.79,0,0,0-1.74-.53c-1.06,0-1.81.12-1.74,1.24s1.35,1.53,2,1.49S199.54,47.53,198.46,46.48Z"/><path class="cls-1" d="M202.06,49.5a.81.81,0,0,1-.27,1.06,2.43,2.43,0,0,1-1.87.61c-.78-.12-1.91-.32-1.92-1.06a2,2,0,0,1,1.54-1.85A2.57,2.57,0,0,1,202.06,49.5Z"/><path class="cls-1" d="M201.72,52.45a.93.93,0,0,1,0,1.32,2.59,2.59,0,0,1-2.3.9,2.18,2.18,0,0,1-1.53-2.07C197.82,51.14,200.94,51.25,201.72,52.45Z"/><path class="cls-1" d="M194.47,56.05a3.17,3.17,0,0,0,3.18-.42c.72-.64.15-1.19-.47-1.88a1.57,1.57,0,0,0-1.63-.3A3.44,3.44,0,0,0,194,55.12.71.71,0,0,0,194.47,56.05Z"/><path class="cls-1" d="M191.59,53.72a1.35,1.35,0,0,0,1.18,1.21c.69,0,1.18-.58,1.75-1.26a8.43,8.43,0,0,1,1.1-.79c.83-.5,1.65-.58,1.73-1.7.07-.89-1-1.32-1.44-1.79a6.32,6.32,0,0,1-1-1.31c-.29-.62-.6-1.24-1.29-1.3a1.34,1.34,0,0,0-1.46,1S191.11,51.6,191.59,53.72Z"/><path class="cls-1" d="M211.43,68.45a2.87,2.87,0,0,0-1.74-.53c-1.06,0-1.82.12-1.74,1.24s1.35,1.53,2,1.49S212.5,69.5,211.43,68.45Z"/><path class="cls-1" d="M215,71.47a.81.81,0,0,1-.28,1.06,2.4,2.4,0,0,1-1.86.61c-.79-.12-1.92-.32-1.92-1.06a2,2,0,0,1,1.54-1.85A2.57,2.57,0,0,1,215,71.47Z"/><path class="cls-1" d="M214.68,74.42a.93.93,0,0,1,0,1.32,2.57,2.57,0,0,1-2.31.9,2.2,2.2,0,0,1-1.53-2.07C210.79,73.11,213.91,73.22,214.68,74.42Z"/><path class="cls-1" d="M207.43,78a3.19,3.19,0,0,0,3.19-.41c.72-.64.15-1.2-.47-1.89a1.59,1.59,0,0,0-1.64-.3,3.49,3.49,0,0,0-1.58,1.67A.71.71,0,0,0,207.43,78Z"/><path class="cls-1" d="M204.56,75.69a1.35,1.35,0,0,0,1.17,1.21c.7,0,1.19-.58,1.75-1.26a10.93,10.93,0,0,1,1.1-.79c.83-.5,1.65-.58,1.74-1.7.07-.89-1-1.31-1.44-1.79a6.32,6.32,0,0,1-1-1.31c-.3-.62-.6-1.24-1.3-1.3a1.33,1.33,0,0,0-1.45,1S204.08,73.57,204.56,75.69Z"/><path class="cls-1" d="M164.39,36.11a3.25,3.25,0,0,0-1.71-1.22c-1.17-.37-2-.53-2.37.73s.92,2.17,1.61,2.36S165.19,37.66,164.39,36.11Z"/><path class="cls-1" d="M167.23,40.75a.94.94,0,0,1-.69,1.07,2.8,2.8,0,0,1-2.27,0c-.82-.42-2-1-1.71-1.87a2.26,2.26,0,0,1,2.36-1.46C166.22,38.49,167.27,40.29,167.23,40.75Z"/><path class="cls-1" d="M165.77,43.87a1.07,1.07,0,0,1-.49,1.45,3,3,0,0,1-2.85.14,2.54,2.54,0,0,1-.92-2.84C162,41,165.36,42.27,165.77,43.87Z"/><path class="cls-1" d="M156.48,45.16a3.7,3.7,0,0,0,3.65.71c1-.44.61-1.25.18-2.24a1.83,1.83,0,0,0-1.68-.94A4,4,0,0,0,156.27,44,.82.82,0,0,0,156.48,45.16Z"/><path class="cls-1" d="M154.18,41.54A1.57,1.57,0,0,0,155,43.3c.74.31,1.51-.2,2.38-.74a10.6,10.6,0,0,1,1.5-.46c1.1-.25,2,0,2.54-1.23.4-.95-.63-1.82-.93-2.5a7.34,7.34,0,0,1-.67-1.82c-.09-.79-.2-1.59-.94-1.9a1.53,1.53,0,0,0-2,.57S154.44,39,154.18,41.54Z"/><path class="cls-1" d="M100.83,20.2A3.23,3.23,0,0,0,99.15,19c-1.15-.36-2-.52-2.33.72s.9,2.13,1.59,2.31S101.61,21.72,100.83,20.2Z"/><path class="cls-1" d="M103.62,24.76a.94.94,0,0,1-.68,1,2.75,2.75,0,0,1-2.23,0c-.8-.41-1.95-1-1.68-1.83a2.22,2.22,0,0,1,2.32-1.43C102.62,22.53,103.66,24.3,103.62,24.76Z"/><path class="cls-1" d="M102.18,27.81a1.06,1.06,0,0,1-.48,1.43,2.91,2.91,0,0,1-2.8.13,2.48,2.48,0,0,1-.9-2.78C98.46,25,101.78,26.24,102.18,27.81Z"/><path class="cls-1" d="M93.07,29.07a3.61,3.61,0,0,0,3.58.7c1-.42.6-1.22.18-2.2a1.79,1.79,0,0,0-1.66-.91,3.92,3.92,0,0,0-2.31,1.23A.79.79,0,0,0,93.07,29.07Z"/><path class="cls-1" d="M90.82,25.52a1.52,1.52,0,0,0,.82,1.73c.73.31,1.49-.19,2.34-.73a11.27,11.27,0,0,1,1.47-.45c1.08-.24,2,0,2.49-1.2.39-.93-.62-1.78-.91-2.45a7,7,0,0,1-.65-1.79c-.1-.78-.2-1.56-.93-1.87a1.52,1.52,0,0,0-1.93.57S91.06,23.07,90.82,25.52Z"/><path class="cls-1" d="M301.71,44.61a3.36,3.36,0,0,0-2.11.39c-1.1.6-1.84,1.12-1.15,2.26s2.24.87,2.88.49S303.42,45.13,301.71,44.61Z"/><path class="cls-1" d="M307.14,45.82a1,1,0,0,1,.3,1.27c-.43.77-.75,1.35-1.64,1.65s-2.18.72-2.59-.07a2.31,2.31,0,0,1,.61-2.77C304.76,45,306.83,45.46,307.14,45.82Z"/><path class="cls-1" d="M308.39,49.11a1.1,1.1,0,0,1,.72,1.39s-.08,1.26-1.93,2.2a2.59,2.59,0,0,1-2.73-1.34C303.58,49.86,306.92,48.28,308.39,49.11Z"/><path class="cls-1" d="M302.73,56.85a3.76,3.76,0,0,0,3.12-2.17c.41-1.07-.48-1.34-1.52-1.73a1.86,1.86,0,0,0-1.88.57,4.05,4.05,0,0,0-.75,2.62A.83.83,0,0,0,302.73,56.85Z"/><path class="cls-1" d="M298.44,56a1.62,1.62,0,0,0,1.9.63c.76-.33.93-1.26,1.15-2.28a10.5,10.5,0,0,1,.73-1.43c.59-1,1.41-1.51.89-2.74-.41-1-1.78-.83-2.48-1.09a7,7,0,0,1-1.82-.81c-.65-.48-1.31-1-2.07-.65a1.57,1.57,0,0,0-1,1.85S296.79,54,298.44,56Z"/><path class="cls-1" d="M752.47,53.48a3.6,3.6,0,0,0-1.9-1.28c-1.28-.37-2.23-.52-2.55.85s1.05,2.34,1.81,2.53S753.37,55.15,752.47,53.48Z"/><path class="cls-1" d="M755.68,58.46a1,1,0,0,1-.73,1.18,3,3,0,0,1-2.47,0c-.9-.43-2.19-1.09-1.91-2A2.48,2.48,0,0,1,753.1,56C754.52,56,755.71,58,755.68,58.46Z"/><path class="cls-1" d="M754.16,61.88a1.18,1.18,0,0,1-.48,1.6s-1,.89-3.11.22a2.76,2.76,0,0,1-1.07-3.06C750,58.86,753.68,60.15,754.16,61.88Z"/><path class="cls-1" d="M744.1,63.52a4,4,0,0,0,4,.68c1.1-.5.63-1.37.14-2.44a2,2,0,0,0-1.86-1,4.33,4.33,0,0,0-2.52,1.42A.89.89,0,0,0,744.1,63.52Z"/><path class="cls-1" d="M741.51,59.65a1.71,1.71,0,0,0,1,1.89c.82.32,1.65-.25,2.58-.87a11,11,0,0,1,1.62-.53c1.18-.3,2.2-.09,2.72-1.41.41-1-.73-2-1.07-2.68a7.49,7.49,0,0,1-.77-2c-.13-.86-.27-1.72-1.08-2a1.67,1.67,0,0,0-2.13.67S741.72,56.92,741.51,59.65Z"/><path class="cls-1" d="M798.83,31.11a3.2,3.2,0,0,0-2,.66c-1,.72-1.62,1.32-.8,2.31a2.1,2.1,0,0,0,2.82.09C799.43,33.72,800.53,31.38,798.83,31.11Z"/><path class="cls-1" d="M804.19,31.54a1,1,0,0,1,.45,1.18,2.79,2.79,0,0,1-1.34,1.8c-.81.41-2,1-2.49.28a2.24,2.24,0,0,1,.21-2.74C801.79,31,803.84,31.24,804.19,31.54Z"/><path class="cls-1" d="M805.82,34.53a1.07,1.07,0,0,1,.88,1.23s.09,1.22-1.55,2.36a2.5,2.5,0,0,1-2.8-.92C801.32,35.88,804.31,33.92,805.82,34.53Z"/><path class="cls-1" d="M801.44,42.69a3.65,3.65,0,0,0,2.7-2.5c.25-1.07-.65-1.22-1.69-1.45a1.78,1.78,0,0,0-1.72.8,4,4,0,0,0-.37,2.61A.8.8,0,0,0,801.44,42.69Z"/><path class="cls-1" d="M797.22,42.42a1.56,1.56,0,0,0,1.9.35c.68-.41.72-1.33.79-2.34a10.48,10.48,0,0,1,.51-1.46c.44-1,1.15-1.64.49-2.74-.52-.87-1.81-.56-2.53-.71a7,7,0,0,1-1.84-.53c-.69-.38-1.39-.76-2.07-.35a1.5,1.5,0,0,0-.69,1.9S795.37,40.76,797.22,42.42Z"/><path class="cls-1" d="M834.4,21.61a2.76,2.76,0,0,0-1.69.56c-.83.62-1.38,1.13-.68,2a1.79,1.79,0,0,0,2.41.07C834.92,23.83,835.86,21.83,834.4,21.61Z"/><path class="cls-1" d="M839,22a.8.8,0,0,1,.39,1,2.34,2.34,0,0,1-1.15,1.54c-.69.35-1.7.84-2.13.24a1.93,1.93,0,0,1,.18-2.34A2.51,2.51,0,0,1,839,22Z"/><path class="cls-1" d="M840.39,24.53a.9.9,0,0,1,.75,1,2.52,2.52,0,0,1-1.33,2,2.16,2.16,0,0,1-2.4-.78C836.53,25.69,839.09,24,840.39,24.53Z"/><path class="cls-1" d="M836.64,31.51a3.1,3.1,0,0,0,2.3-2.13c.22-.92-.55-1-1.44-1.25a1.53,1.53,0,0,0-1.47.69,3.34,3.34,0,0,0-.32,2.23A.69.69,0,0,0,836.64,31.51Z"/><path class="cls-1" d="M833,31.28a1.32,1.32,0,0,0,1.62.3c.58-.35.62-1.13.68-2a9.18,9.18,0,0,1,.43-1.25c.38-.87,1-1.4.42-2.34-.45-.75-1.55-.48-2.16-.61a6.12,6.12,0,0,1-1.58-.46c-.59-.32-1.19-.65-1.77-.3a1.3,1.3,0,0,0-.59,1.63S831.44,29.86,833,31.28Z"/><path class="cls-1" d="M734.78,29.77a3,3,0,0,0-1.65-1c-1.1-.26-1.91-.36-2.13.82s1,1.94,1.64,2.07S735.62,31.14,734.78,29.77Z"/><path class="cls-1" d="M737.7,33.85a.87.87,0,0,1-.56,1A2.57,2.57,0,0,1,735,35c-.78-.33-1.89-.83-1.7-1.6a2.1,2.1,0,0,1,2.09-1.5C736.62,31.83,737.71,33.42,737.7,33.85Z"/><path class="cls-1" d="M736.56,36.82a1,1,0,0,1-.35,1.37,2.76,2.76,0,0,1-2.62.31,2.34,2.34,0,0,1-1-2.55C732.88,34.43,736.08,35.37,736.56,36.82Z"/><path class="cls-1" d="M728.1,38.61a3.39,3.39,0,0,0,3.4.42c.92-.47.48-1.19,0-2.08a1.69,1.69,0,0,0-1.61-.75,3.71,3.71,0,0,0-2.08,1.31A.75.75,0,0,0,728.1,38.61Z"/><path class="cls-1" d="M725.75,35.43a1.45,1.45,0,0,0,.89,1.57c.7.24,1.38-.28,2.15-.84a9.68,9.68,0,0,1,1.35-.52c1-.3,1.86-.16,2.25-1.3.3-.9-.7-1.63-1-2.23a6.48,6.48,0,0,1-.73-1.64c-.15-.72-.29-1.45-1-1.69a1.42,1.42,0,0,0-1.77.66S725.82,33.11,725.75,35.43Z"/><path class="cls-1" d="M233.21,48.43a3.16,3.16,0,0,0-2-.44c-1.18.11-2,.29-1.83,1.53S231,51.11,231.72,51,234.5,49.51,233.21,48.43Z"/><path class="cls-1" d="M237.47,51.48a.92.92,0,0,1-.21,1.21,2.75,2.75,0,0,1-2,.84c-.88-.07-2.16-.19-2.22-1a2.19,2.19,0,0,1,1.55-2.19C235.72,49.85,237.33,51.05,237.47,51.48Z"/><path class="cls-1" d="M237.34,54.8a1,1,0,0,1,.11,1.47A2.84,2.84,0,0,1,235,57.46a2.45,2.45,0,0,1-1.88-2.17C232.9,53.67,236.38,53.53,237.34,54.8Z"/><path class="cls-1" d="M229.58,59.43a3.54,3.54,0,0,0,3.5-.74c.75-.77.08-1.34-.68-2.06a1.75,1.75,0,0,0-1.84-.2,3.85,3.85,0,0,0-1.62,2A.79.79,0,0,0,229.58,59.43Z"/><path class="cls-1" d="M226.18,57.08a1.51,1.51,0,0,0,1.41,1.24c.78,0,1.27-.74,1.84-1.55a11.4,11.4,0,0,1,1.16-1c.88-.63,1.79-.79,1.79-2,0-1-1.24-1.37-1.76-1.86a7.09,7.09,0,0,1-1.28-1.37c-.38-.67-.77-1.33-1.55-1.33a1.48,1.48,0,0,0-1.53,1.24S225.47,54.76,226.18,57.08Z"/><path class="cls-1" d="M269.32,40.84a2.76,2.76,0,0,0-1.73.3c-.9.48-1.51.9-1,1.84a1.77,1.77,0,0,0,2.35.42C269.5,43.1,270.71,41.28,269.32,40.84Z"/><path class="cls-1" d="M273.75,41.88a.79.79,0,0,1,.23,1,2.34,2.34,0,0,1-1.35,1.34c-.73.24-1.79.56-2.11-.08a1.89,1.89,0,0,1,.52-2.27A2.48,2.48,0,0,1,273.75,41.88Z"/><path class="cls-1" d="M274.74,44.58a.89.89,0,0,1,.58,1.14s-.08,1-1.59,1.78a2.12,2.12,0,0,1-2.23-1.12C270.81,45.15,273.55,43.88,274.74,44.58Z"/><path class="cls-1" d="M270.05,50.86a3.07,3.07,0,0,0,2.57-1.75c.35-.87-.38-1.1-1.22-1.43a1.52,1.52,0,0,0-1.55.46,3.34,3.34,0,0,0-.64,2.13A.68.68,0,0,0,270.05,50.86Z"/><path class="cls-1" d="M266.56,50.1a1.3,1.3,0,0,0,1.54.53c.62-.26.77-1,1-1.85a9.86,9.86,0,0,1,.6-1.16c.5-.8,1.18-1.23.76-2.23-.33-.8-1.45-.7-2-.92a6,6,0,0,1-1.48-.67c-.53-.41-1.07-.81-1.69-.56a1.29,1.29,0,0,0-.81,1.51S265.22,48.48,266.56,50.1Z"/><path class="cls-1" d="M402.61,33.15a3.35,3.35,0,0,0-1.8-1.13c-1.21-.3-2.1-.41-2.35.88s1.05,2.14,1.76,2.28S403.51,34.68,402.61,33.15Z"/><path class="cls-1" d="M405.75,37.68a1,1,0,0,1-.63,1.12,2.84,2.84,0,0,1-2.3.11c-.85-.37-2.07-.94-1.84-1.79a2.29,2.29,0,0,1,2.3-1.61C404.6,35.45,405.76,37.21,405.75,37.68Z"/><path class="cls-1" d="M404.45,40.92a1.08,1.08,0,0,1-.4,1.49,3,3,0,0,1-2.88.31,2.57,2.57,0,0,1-1.09-2.82C400.45,38.24,404,39.32,404.45,40.92Z"/><path class="cls-1" d="M395.15,42.76a3.7,3.7,0,0,0,3.72.5c1-.5.55-1.3.06-2.27a1.85,1.85,0,0,0-1.76-.85,4,4,0,0,0-2.3,1.41A.82.82,0,0,0,395.15,42.76Z"/><path class="cls-1" d="M392.61,39.24a1.6,1.6,0,0,0,1,1.73c.77.27,1.52-.29,2.37-.89a10.52,10.52,0,0,1,1.48-.55c1.1-.32,2.05-.15,2.49-1.4.35-1-.74-1.79-1.08-2.46a7.3,7.3,0,0,1-.78-1.81c-.15-.79-.3-1.59-1.07-1.86a1.55,1.55,0,0,0-2,.69S392.72,36.69,392.61,39.24Z"/><path class="cls-1" d="M439,29.47a3.33,3.33,0,0,0-1.77-1.11c-1.18-.29-2-.41-2.3.86s1,2.1,1.73,2.24S439.89,31,439,29.47Z"/><path class="cls-1" d="M442.09,33.9a.94.94,0,0,1-.63,1.1,2.76,2.76,0,0,1-2.25.11c-.83-.37-2-.93-1.8-1.75a2.25,2.25,0,0,1,2.26-1.58C441,31.72,442.1,33.44,442.09,33.9Z"/><path class="cls-1" d="M440.81,37.07a1.07,1.07,0,0,1-.39,1.47,3,3,0,0,1-2.82.29,2.5,2.5,0,0,1-1.07-2.75C436.9,34.45,440.32,35.51,440.81,37.07Z"/><path class="cls-1" d="M431.7,38.87a3.65,3.65,0,0,0,3.65.5c1-.49.53-1.27,0-2.23a1.8,1.8,0,0,0-1.72-.82,3.92,3.92,0,0,0-2.25,1.37A.8.8,0,0,0,431.7,38.87Z"/><path class="cls-1" d="M429.22,35.43a1.55,1.55,0,0,0,.94,1.69c.75.27,1.49-.28,2.31-.87a11.7,11.7,0,0,1,1.46-.54c1.07-.31,2-.14,2.44-1.36.34-1-.73-1.76-1.06-2.41a7.45,7.45,0,0,1-.77-1.77c-.14-.78-.29-1.56-1-1.83a1.53,1.53,0,0,0-1.92.68S429.33,32.94,429.22,35.43Z"/><path class="cls-1" d="M447.62,52.71a3.29,3.29,0,0,0-1.78-1.13c-1.19-.29-2.07-.41-2.33.87s1,2.12,1.75,2.26S448.51,54.21,447.62,52.71Z"/><path class="cls-1" d="M450.73,57.18a.94.94,0,0,1-.63,1.11,2.81,2.81,0,0,1-2.27.11c-.84-.37-2.05-.93-1.82-1.77a2.28,2.28,0,0,1,2.28-1.6C449.59,55,450.74,56.71,450.73,57.18Z"/><path class="cls-1" d="M449.45,60.39a1.07,1.07,0,0,1-.4,1.47,3,3,0,0,1-2.85.31,2.55,2.55,0,0,1-1.08-2.79C445.49,57.73,448.94,58.81,449.45,60.39Z"/><path class="cls-1" d="M440.24,62.21a3.68,3.68,0,0,0,3.68.5c1-.5.54-1.29.06-2.25a1.83,1.83,0,0,0-1.74-.84A4,4,0,0,0,440,61,.82.82,0,0,0,440.24,62.21Z"/><path class="cls-1" d="M437.73,58.72a1.57,1.57,0,0,0,.95,1.71c.76.28,1.5-.28,2.34-.87a10.68,10.68,0,0,1,1.47-.55c1.08-.31,2-.15,2.46-1.38.35-1-.73-1.78-1.06-2.44a6.89,6.89,0,0,1-.78-1.78c-.14-.79-.3-1.58-1.06-1.85a1.53,1.53,0,0,0-1.93.69S437.84,56.21,437.73,58.72Z"/><path class="cls-1" d="M479.38,38.54A4.4,4.4,0,0,0,477,37c-1.6-.4-2.78-.55-3.13,1.16s1.4,2.85,2.35,3S480.57,40.56,479.38,38.54Z"/><path class="cls-1" d="M483.55,44.55a1.26,1.26,0,0,1-.84,1.49,3.77,3.77,0,0,1-3,.14c-1.13-.49-2.75-1.25-2.45-2.37a3.06,3.06,0,0,1,3.06-2.15C482,41.58,483.57,43.92,483.55,44.55Z"/><path class="cls-1" d="M481.83,48.85a1.44,1.44,0,0,1-.54,2s-1.2,1.15-3.82.41A3.41,3.41,0,0,1,476,47.5C476.52,45.28,481.16,46.73,481.83,48.85Z"/><path class="cls-1" d="M469.46,51.29a5,5,0,0,0,5,.68c1.34-.67.72-1.73.07-3a2.47,2.47,0,0,0-2.34-1.12,5.36,5.36,0,0,0-3.06,1.86A1.1,1.1,0,0,0,469.46,51.29Z"/><path class="cls-1" d="M466.1,46.62a2.1,2.1,0,0,0,1.27,2.29c1,.37,2-.38,3.14-1.18a15.12,15.12,0,0,1,2-.73c1.45-.42,2.72-.2,3.3-1.85.47-1.3-1-2.39-1.43-3.27a9.6,9.6,0,0,1-1-2.4c-.19-1.06-.39-2.12-1.42-2.48a2.06,2.06,0,0,0-2.59.92S466.24,43.24,466.1,46.62Z"/><path class="cls-1" d="M251.86,61.65a2.7,2.7,0,0,0-1.71.13c-.93.38-1.56.73-1.11,1.7a1.75,1.75,0,0,0,2.25.64C251.82,63.87,253.18,62.21,251.86,61.65Z"/><path class="cls-1" d="M256.08,63.09a.76.76,0,0,1,.12,1,2.33,2.33,0,0,1-1.44,1.18c-.73.16-1.8.37-2-.28a1.85,1.85,0,0,1,.72-2.16A2.42,2.42,0,0,1,256.08,63.09Z"/><path class="cls-1" d="M256.79,65.81a.88.88,0,0,1,.45,1.17s-.18,1-1.72,1.58a2.07,2.07,0,0,1-2.06-1.31C252.9,66,255.69,65,256.79,65.81Z"/><path class="cls-1" d="M251.62,71.47A3,3,0,0,0,254.29,70c.41-.82-.27-1.11-1.06-1.51a1.49,1.49,0,0,0-1.55.3,3.24,3.24,0,0,0-.82,2A.66.66,0,0,0,251.62,71.47Z"/><path class="cls-1" d="M248.29,70.4a1.28,1.28,0,0,0,1.45.67c.63-.19.85-.92,1.11-1.72a8.21,8.21,0,0,1,.7-1.07c.56-.73,1.26-1.08.95-2.1-.24-.8-1.34-.81-1.88-1.08a5.88,5.88,0,0,1-1.38-.8c-.48-.44-1-.89-1.59-.7a1.26,1.26,0,0,0-.94,1.39S247.14,68.7,248.29,70.4Z"/><path class="cls-1" d="M69.89,30.6a4.16,4.16,0,0,0-2.64-.25c-1.51.35-2.56.72-2.12,2.3s2.37,1.79,3.25,1.55S71.74,31.79,69.89,30.6Z"/><path class="cls-1" d="M75.93,33.86a1.2,1.2,0,0,1-.07,1.61,3.58,3.58,0,0,1-2.49,1.41c-1.16.06-2.84.12-3.06-1A2.86,2.86,0,0,1,72,32.84C73.39,32,75.68,33.33,75.93,33.86Z"/><path class="cls-1" d="M76.31,38.19a1.35,1.35,0,0,1,.39,1.89s-.52,1.47-3,2a3.2,3.2,0,0,1-2.8-2.51C70.36,37.46,74.85,36.7,76.31,38.19Z"/><path class="cls-1" d="M67,45.48a4.64,4.64,0,0,0,4.43-1.54c.85-1.13-.13-1.75-1.22-2.56a2.29,2.29,0,0,0-2.43,0A5,5,0,0,0,66,44.29,1,1,0,0,0,67,45.48Z"/><path class="cls-1" d="M62.21,43a2,2,0,0,0,2,1.38c1-.13,1.53-1.17,2.13-2.32a14.23,14.23,0,0,1,1.34-1.45c1-1,2.19-1.31,2-3-.17-1.28-1.84-1.58-2.59-2.13A9.1,9.1,0,0,1,65.22,34c-.61-.79-1.23-1.6-2.24-1.47a1.94,1.94,0,0,0-1.78,1.87S60.89,40.1,62.21,43Z"/><path class="cls-1" d="M321.22,27.42a3,3,0,0,0-1.91.2c-1,.46-1.72.87-1.18,1.94a1.94,1.94,0,0,0,2.53.63C321.25,29.89,322.71,28,321.22,27.42Z"/><path class="cls-1" d="M326,28.87a.88.88,0,0,1,.18,1.16,2.58,2.58,0,0,1-1.57,1.36c-.81.21-2,.48-2.31-.24a2.09,2.09,0,0,1,.74-2.44A2.71,2.71,0,0,1,326,28.87Z"/><path class="cls-1" d="M326.87,31.9a1,1,0,0,1,.55,1.29s-.16,1.11-1.87,1.82a2.32,2.32,0,0,1-2.35-1.38C322.53,32.23,325.62,31.05,326.87,31.9Z"/><path class="cls-1" d="M321.29,38.41a3.35,3.35,0,0,0,2.93-1.72c.44-.93-.34-1.23-1.23-1.65a1.66,1.66,0,0,0-1.72.38,3.6,3.6,0,0,0-.85,2.29A.74.74,0,0,0,321.29,38.41Z"/><path class="cls-1" d="M317.52,37.32a1.45,1.45,0,0,0,1.65.7c.7-.24.92-1.06,1.18-2a11.5,11.5,0,0,1,.75-1.22c.6-.83,1.37-1.25,1-2.38-.3-.89-1.53-.86-2.14-1.15a6.65,6.65,0,0,1-1.57-.84c-.55-.48-1.1-1-1.8-.73a1.41,1.41,0,0,0-1,1.59S316.18,35.46,317.52,37.32Z"/><path class="cls-1" d="M349.27,34.41a3.33,3.33,0,0,0-2.11.23c-1.14.51-1.91,1-1.31,2.14s2.15,1,2.8.7S350.92,35.05,349.27,34.41Z"/><path class="cls-1" d="M354.54,36a.94.94,0,0,1,.19,1.27A2.84,2.84,0,0,1,353,38.81c-.9.23-2.21.53-2.56-.27a2.3,2.3,0,0,1,.82-2.69C352.25,35,354.26,35.64,354.54,36Z"/><path class="cls-1" d="M355.52,39.37a1.09,1.09,0,0,1,.61,1.43s-.18,1.23-2.07,2a2.57,2.57,0,0,1-2.6-1.54C350.72,39.74,354.14,38.43,355.52,39.37Z"/><path class="cls-1" d="M349.35,46.58a3.73,3.73,0,0,0,3.24-1.91c.49-1-.38-1.36-1.37-1.82a1.83,1.83,0,0,0-1.9.42,4,4,0,0,0-.94,2.53A.83.83,0,0,0,349.35,46.58Z"/><path class="cls-1" d="M345.18,45.38a1.59,1.59,0,0,0,1.82.76c.77-.26,1-1.16,1.31-2.16a10.11,10.11,0,0,1,.83-1.35c.66-.92,1.51-1.38,1.09-2.64-.33-1-1.69-1-2.37-1.26a7.35,7.35,0,0,1-1.73-.94c-.61-.53-1.22-1.06-2-.8a1.55,1.55,0,0,0-1.1,1.75S343.69,43.31,345.18,45.38Z"/><path class="cls-1" d="M374.69,20.92a3.06,3.06,0,0,0-1.83-.59c-1.12,0-1.92.1-1.86,1.29s1.39,1.64,2.05,1.61S375.81,22.05,374.69,20.92Z"/><path class="cls-1" d="M378.44,24.18a.86.86,0,0,1-.31,1.13,2.56,2.56,0,0,1-2,.6c-.83-.14-2-.37-2-1.15a2.08,2.08,0,0,1,1.66-1.93A2.72,2.72,0,0,1,378.44,24.18Z"/><path class="cls-1" d="M378,27.3a1,1,0,0,1,0,1.4,2.7,2.7,0,0,1-2.45.91A2.32,2.32,0,0,1,374,27.39C373.93,25.85,377.23,26,378,27.3Z"/><path class="cls-1" d="M370.29,31a3.36,3.36,0,0,0,3.37-.38c.78-.67.19-1.26-.46-2a1.66,1.66,0,0,0-1.72-.34A3.69,3.69,0,0,0,369.77,30,.75.75,0,0,0,370.29,31Z"/><path class="cls-1" d="M367.29,28.46a1.45,1.45,0,0,0,1.22,1.3c.73.07,1.27-.59,1.87-1.3a10.59,10.59,0,0,1,1.18-.81c.89-.52,1.76-.59,1.87-1.77.09-.94-1-1.41-1.49-1.92a6.3,6.3,0,0,1-1.08-1.41c-.31-.66-.62-1.32-1.35-1.39a1.4,1.4,0,0,0-1.56,1S366.82,26.21,367.29,28.46Z"/><path class="cls-1" d="M526.33,34.41a4.53,4.53,0,0,0-2.86-.3c-1.65.35-2.79.75-2.34,2.47s2.56,2,3.52,1.72S528.34,35.72,526.33,34.41Z"/><path class="cls-1" d="M532.86,38a1.29,1.29,0,0,1-.1,1.74A3.86,3.86,0,0,1,530,41.28c-1.25,0-3.07.09-3.3-1.07a3.13,3.13,0,0,1,1.83-3.35C530.12,36,532.59,37.44,532.86,38Z"/><path class="cls-1" d="M533.22,42.74a1.47,1.47,0,0,1,.41,2.06s-.59,1.59-3.32,2.09a3.47,3.47,0,0,1-3-2.76C526.76,41.87,531.65,41.1,533.22,42.74Z"/><path class="cls-1" d="M523,50.55a5.06,5.06,0,0,0,4.84-1.62c.93-1.21-.12-1.9-1.3-2.8a2.5,2.5,0,0,0-2.64,0,5.45,5.45,0,0,0-2,3.08A1.13,1.13,0,0,0,523,50.55Z"/><path class="cls-1" d="M517.83,47.78A2.14,2.14,0,0,0,520,49.31c1.1-.13,1.68-1.26,2.35-2.49a13.91,13.91,0,0,1,1.48-1.56c1.14-1,2.39-1.41,2.19-3.19-.17-1.4-2-1.74-2.79-2.34a9.69,9.69,0,0,1-2-1.73c-.65-.88-1.32-1.76-2.42-1.63a2.11,2.11,0,0,0-2,2S516.44,44.63,517.83,47.78Z"/><path class="cls-1" d="M616.09,13.4a4,4,0,0,0-2.53-.36c-1.47.26-2.5.57-2.15,2.11s2.2,1.84,3.06,1.64S617.81,14.63,616.09,13.4Z"/><path class="cls-1" d="M621.75,16.82a1.15,1.15,0,0,1-.15,1.54,3.41,3.41,0,0,1-2.46,1.25c-1.12,0-2.73,0-2.9-1.06a2.77,2.77,0,0,1,1.74-2.9C619.39,14.94,621.53,16.29,621.75,16.82Z"/><path class="cls-1" d="M621.91,21a1.31,1.31,0,0,1,.29,1.84s-.57,1.39-3,1.75A3.09,3.09,0,0,1,616.62,22C616.21,20,620.57,19.51,621.91,21Z"/><path class="cls-1" d="M612.61,27.58A4.47,4.47,0,0,0,617,26.31c.86-1,0-1.69-1.06-2.52a2.21,2.21,0,0,0-2.34-.06,4.88,4.88,0,0,0-1.84,2.66A1,1,0,0,0,612.61,27.58Z"/><path class="cls-1" d="M608.11,25a1.91,1.91,0,0,0,1.9,1.43c1-.07,1.52-1.06,2.15-2.13a13.32,13.32,0,0,1,1.37-1.33c1-.88,2.16-1.17,2-2.75-.1-1.24-1.69-1.61-2.39-2.17a8.66,8.66,0,0,1-1.74-1.6c-.55-.8-1.11-1.6-2.09-1.52a1.88,1.88,0,0,0-1.8,1.72S607,22.12,608.11,25Z"/><path class="cls-1" d="M649.47,33.36a3.91,3.91,0,0,0-2.19-1.22c-1.43-.28-2.49-.36-2.71,1.18s1.38,2.45,2.23,2.58S650.63,35.09,649.47,33.36Z"/><path class="cls-1" d="M653.46,38.49a1.12,1.12,0,0,1-.68,1.36,3.34,3.34,0,0,1-2.69.27c-1-.39-2.5-1-2.28-2a2.7,2.7,0,0,1,2.61-2C652,35.93,653.45,37.93,653.46,38.49Z"/><path class="cls-1" d="M652.14,42.38a1.28,1.28,0,0,1-.38,1.78s-1,1.07-3.37.54a3,3,0,0,1-1.46-3.24C647.26,39.48,651.44,40.53,652.14,42.38Z"/><path class="cls-1" d="M641.3,45.13a4.38,4.38,0,0,0,4.42.36c1.16-.65.56-1.56-.08-2.68a2.18,2.18,0,0,0-2.12-.88,4.76,4.76,0,0,0-2.62,1.8A1,1,0,0,0,641.3,45.13Z"/><path class="cls-1" d="M638.1,41.15a1.88,1.88,0,0,0,1.23,2c.93.27,1.78-.44,2.73-1.2a12.72,12.72,0,0,1,1.72-.74c1.27-.44,2.39-.31,2.84-1.8.34-1.17-1-2.07-1.43-2.83a8.23,8.23,0,0,1-1-2.08c-.23-.92-.46-1.85-1.38-2.12a1.83,1.83,0,0,0-2.26.94S638.07,38.15,638.1,41.15Z"/><path class="cls-1" d="M593.65,42.76a3.46,3.46,0,0,0-2.17.34c-1.14.59-1.91,1.1-1.24,2.28s2.27.95,2.93.58S595.37,43.34,593.65,42.76Z"/><path class="cls-1" d="M599.16,44.15a1,1,0,0,1,.26,1.31c-.46.77-.8,1.36-1.71,1.64s-2.25.66-2.64-.14a2.37,2.37,0,0,1,.69-2.82C596.75,43.2,598.84,43.78,599.16,44.15Z"/><path class="cls-1" d="M600.34,47.55A1.13,1.13,0,0,1,601,49s-.13,1.28-2,2.18a2.66,2.66,0,0,1-2.76-1.44C595.41,48.17,598.86,46.65,600.34,47.55Z"/><path class="cls-1" d="M594.35,55.29a3.83,3.83,0,0,0,3.24-2.13c.45-1.08-.46-1.38-1.5-1.81a1.9,1.9,0,0,0-1.94.53,4.19,4.19,0,0,0-.84,2.65A.86.86,0,0,0,594.35,55.29Z"/><path class="cls-1" d="M590,54.26a1.62,1.62,0,0,0,1.91.7c.78-.31,1-1.25,1.24-2.29a11.51,11.51,0,0,1,.78-1.44c.64-1,1.49-1.5,1-2.77-.39-1-1.79-.89-2.51-1.18a7.39,7.39,0,0,1-1.83-.88c-.65-.51-1.31-1-2.09-.72a1.6,1.6,0,0,0-1,1.86S588.36,52.21,590,54.26Z"/><path class="cls-1" d="M495.3,59.24a4.29,4.29,0,0,0-2.69-.33c-1.54.31-2.62.65-2.23,2.28s2.37,1.89,3.27,1.67S497.15,60.51,495.3,59.24Z"/><path class="cls-1" d="M501.35,62.75a1.22,1.22,0,0,1-.13,1.63,3.61,3.61,0,0,1-2.58,1.37c-1.18,0-2.89,0-3.08-1.07a2.93,2.93,0,0,1,1.78-3.1C498.82,60.8,501.11,62.19,501.35,62.75Z"/><path class="cls-1" d="M501.6,67.17a1.36,1.36,0,0,1,.34,1.93s-.58,1.48-3.14,1.91A3.26,3.26,0,0,1,496,68.36C495.56,66.24,500.16,65.61,501.6,67.17Z"/><path class="cls-1" d="M491.9,74.3a4.74,4.74,0,0,0,4.56-1.43c.89-1.12-.08-1.78-1.17-2.64a2.32,2.32,0,0,0-2.47,0,5.05,5.05,0,0,0-1.89,2.85A1,1,0,0,0,491.9,74.3Z"/><path class="cls-1" d="M487.09,71.62a2,2,0,0,0,2,1.47c1-.1,1.6-1.15,2.24-2.29a15.25,15.25,0,0,1,1.41-1.44c1.09-1,2.27-1.27,2.11-2.94-.13-1.32-1.82-1.67-2.57-2.25a9,9,0,0,1-1.87-1.65c-.6-.84-1.2-1.67-2.23-1.57a2,2,0,0,0-1.88,1.85S485.84,68.64,487.09,71.62Z"/><path class="cls-1" d="M567.78,27.12a3.4,3.4,0,0,0-2.15.34c-1.13.58-1.89,1.08-1.23,2.25s2.26.95,2.91.58S569.5,27.69,567.78,27.12Z"/><path class="cls-1" d="M573.25,28.5a1,1,0,0,1,.26,1.29,2.88,2.88,0,0,1-1.7,1.63c-.91.29-2.23.66-2.62-.14a2.37,2.37,0,0,1,.69-2.8C570.86,27.55,572.94,28.13,573.25,28.5Z"/><path class="cls-1" d="M574.42,31.87a1.12,1.12,0,0,1,.7,1.43s-.13,1.27-2,2.17A2.64,2.64,0,0,1,570.37,34C569.53,32.49,573,31,574.42,31.87Z"/><path class="cls-1" d="M568.48,39.55a3.82,3.82,0,0,0,3.22-2.12c.44-1.06-.46-1.37-1.49-1.79a1.9,1.9,0,0,0-1.93.53,4.16,4.16,0,0,0-.83,2.63A.85.85,0,0,0,568.48,39.55Z"/><path class="cls-1" d="M564.16,38.53a1.64,1.64,0,0,0,1.9.7c.77-.31,1-1.25,1.23-2.28a10.93,10.93,0,0,1,.77-1.43c.64-1,1.48-1.49,1-2.74-.39-1-1.78-.89-2.49-1.18a7.22,7.22,0,0,1-1.82-.87c-.65-.51-1.3-1-2.08-.72a1.59,1.59,0,0,0-1,1.85S562.53,36.5,564.16,38.53Z"/><path class="cls-1" d="M685.24,21a3.94,3.94,0,0,0-2.09-1.43c-1.43-.42-2.48-.59-2.85.93s1.16,2.6,2,2.81S686.24,22.8,685.24,21Z"/><path class="cls-1" d="M688.78,26.48a1.15,1.15,0,0,1-.81,1.31,3.44,3.44,0,0,1-2.74,0c-1-.49-2.42-1.23-2.11-2.22a2.75,2.75,0,0,1,2.82-1.82C687.5,23.77,688.81,25.92,688.78,26.48Z"/><path class="cls-1" d="M687.09,30.28a1.3,1.3,0,0,1-.55,1.76s-1.12,1-3.45.23a3.06,3.06,0,0,1-1.17-3.4C682.44,26.9,686.55,28.35,687.09,30.28Z"/><path class="cls-1" d="M675.92,32.05a4.45,4.45,0,0,0,4.41.77c1.23-.55.71-1.52.17-2.71A2.2,2.2,0,0,0,678.44,29a4.79,4.79,0,0,0-2.8,1.56A1,1,0,0,0,675.92,32.05Z"/><path class="cls-1" d="M673.06,27.74a1.89,1.89,0,0,0,1.06,2.1c.9.36,1.83-.27,2.86-.95a13.2,13.2,0,0,1,1.79-.59c1.32-.32,2.45-.08,3-1.55.46-1.15-.8-2.17-1.17-3a8.52,8.52,0,0,1-.85-2.18c-.14-1-.29-1.91-1.19-2.27a1.86,1.86,0,0,0-2.36.73S673.3,24.72,673.06,27.74Z"/><path class="cls-1" d="M548.52,55.18a3.57,3.57,0,0,0-2.25.38c-1.19.62-2,1.16-1.27,2.38s2.38,1,3.06.57S550.33,55.76,548.52,55.18Z"/><path class="cls-1" d="M554.29,56.57a1,1,0,0,1,.29,1.35c-.47.81-.82,1.43-1.77,1.74s-2.34.71-2.76-.13a2.46,2.46,0,0,1,.7-2.94C551.76,55.6,554,56.18,554.29,56.57Z"/><path class="cls-1" d="M555.56,60.1a1.17,1.17,0,0,1,.74,1.49s-.11,1.34-2.09,2.3a2.75,2.75,0,0,1-2.89-1.48C550.42,60.8,554,59.18,555.56,60.1Z"/><path class="cls-1" d="M549.39,68.23A4,4,0,0,0,552.75,66c.46-1.13-.49-1.44-1.58-1.87a2,2,0,0,0-2,.58,4.35,4.35,0,0,0-.85,2.77A.89.89,0,0,0,549.39,68.23Z"/><path class="cls-1" d="M544.84,67.21a1.7,1.7,0,0,0,2,.71c.82-.33,1-1.32,1.27-2.41a12.35,12.35,0,0,1,.8-1.5c.66-1,1.54-1.58,1-2.9-.42-1-1.88-.92-2.63-1.21a7.72,7.72,0,0,1-1.92-.89c-.69-.53-1.38-1.07-2.2-.74a1.68,1.68,0,0,0-1.07,2S543.11,65.09,544.84,67.21Z"/><path class="cls-1" d="M706.75,47.41a3.25,3.25,0,0,0-1.81-1c-1.18-.22-2.05-.27-2.22,1s1.14,2,1.85,2.11S707.71,48.83,706.75,47.41Z"/><path class="cls-1" d="M710.06,51.6a.92.92,0,0,1-.54,1.12,2.78,2.78,0,0,1-2.22.25c-.84-.31-2.06-.79-1.89-1.62a2.23,2.23,0,0,1,2.13-1.7C708.81,49.51,710.05,51.14,710.06,51.6Z"/><path class="cls-1" d="M709,54.81a1.06,1.06,0,0,1-.31,1.47,2.89,2.89,0,0,1-2.76.47,2.5,2.5,0,0,1-1.23-2.66C705,52.46,708.42,53.3,709,54.81Z"/><path class="cls-1" d="M700.11,57.15a3.63,3.63,0,0,0,3.64.27c1-.55.45-1.29-.09-2.21a1.79,1.79,0,0,0-1.75-.71,3.91,3.91,0,0,0-2.14,1.5A.8.8,0,0,0,700.11,57.15Z"/><path class="cls-1" d="M697.45,53.9a1.53,1.53,0,0,0,1,1.61c.76.22,1.45-.37,2.23-1a10.64,10.64,0,0,1,1.41-.62c1-.37,2-.27,2.32-1.5.28-1-.82-1.69-1.19-2.32a7.11,7.11,0,0,1-.87-1.7c-.19-.76-.38-1.52-1.14-1.74a1.51,1.51,0,0,0-1.85.79S697.4,51.43,697.45,53.9Z"/><path class="cls-1" d="M787.68,56.68a3,3,0,0,0-1.67.9c-.76.8-1.24,1.44-.35,2.21a1.93,1.93,0,0,0,2.55-.37C788.64,58.92,789.25,56.65,787.68,56.68Z"/><path class="cls-1" d="M792.56,56.22a.84.84,0,0,1,.59,1,2.52,2.52,0,0,1-.91,1.83c-.67.5-1.64,1.19-2.2.65a2.06,2.06,0,0,1-.24-2.5A2.68,2.68,0,0,1,792.56,56.22Z"/><path class="cls-1" d="M794.5,58.64a1,1,0,0,1,1,1,2.67,2.67,0,0,1-1,2.36,2.27,2.27,0,0,1-2.66-.38C790.68,60.57,793.05,58.34,794.5,58.64Z"/><path class="cls-1" d="M791.86,66.67a3.32,3.32,0,0,0,2-2.67c.05-1-.77-1-1.75-1a1.63,1.63,0,0,0-1.42,1,3.6,3.6,0,0,0,.08,2.4A.74.74,0,0,0,791.86,66.67Z"/><path class="cls-1" d="M788,67.09a1.41,1.41,0,0,0,1.75,0c.55-.48.45-1.31.35-2.23a10.34,10.34,0,0,1,.22-1.39c.24-1,.78-1.65,0-2.54-.61-.7-1.72-.21-2.38-.24a6.36,6.36,0,0,1-1.75-.19c-.68-.23-1.36-.46-1.91,0a1.39,1.39,0,0,0-.32,1.82S786.1,65.89,788,67.09Z"/><path class="cls-1" d="M824.19,46.4a3,3,0,0,0-1.67.9c-.76.8-1.24,1.44-.35,2.2a1.92,1.92,0,0,0,2.55-.37C825.15,48.64,825.76,46.37,824.19,46.4Z"/><path class="cls-1" d="M829.07,45.94a.84.84,0,0,1,.59,1,2.52,2.52,0,0,1-.91,1.83c-.67.5-1.64,1.19-2.2.65a2.06,2.06,0,0,1-.24-2.5A2.68,2.68,0,0,1,829.07,45.94Z"/><path class="cls-1" d="M831,48.36a1,1,0,0,1,1,1,2.67,2.67,0,0,1-1,2.36,2.29,2.29,0,0,1-2.66-.38C827.19,50.29,829.56,48.05,831,48.36Z"/><path class="cls-1" d="M828.37,56.38a3.31,3.31,0,0,0,2-2.67c.05-1-.77-1-1.75-1a1.63,1.63,0,0,0-1.42,1,3.59,3.59,0,0,0,.08,2.4A.73.73,0,0,0,828.37,56.38Z"/><path class="cls-1" d="M824.54,56.81a1.4,1.4,0,0,0,1.75,0c.55-.47.45-1.3.35-2.22a10.35,10.35,0,0,1,.22-1.4c.24-1,.78-1.65,0-2.54-.61-.69-1.72-.21-2.38-.24a6.2,6.2,0,0,1-1.75-.18c-.67-.23-1.36-.46-1.91,0a1.39,1.39,0,0,0-.32,1.82S822.61,55.61,824.54,56.81Z"/><path class="cls-1" d="M21.61,52.57a1.4,1.4,0,0,0,1.52-2.34l4.08-7.77a1.41,1.41,0,0,0,1.06-2.59,1.51,1.51,0,0,0-.88-.14,1.46,1.46,0,0,0-.68-.81,1.41,1.41,0,0,0-1.51,2.36l-4.12,7.87A1.4,1.4,0,0,0,20,51.72a1.44,1.44,0,0,0,1,.13A1.38,1.38,0,0,0,21.61,52.57Z"/><path class="cls-1" d="M55.87,36.22a1.41,1.41,0,0,0-2.61,1l-7.84,3.92A1.4,1.4,0,0,0,43,42.62a1.35,1.35,0,0,0,.64.63,1.4,1.4,0,1,0,2.67,0l7.95-4a1.4,1.4,0,0,0,2.38-1.46,1.34,1.34,0,0,0-.71-.66A1.42,1.42,0,0,0,55.87,36.22Z"/><path class="cls-1" d="M79.07,24.58a1.08,1.08,0,0,0-.25-1.51,1.07,1.07,0,0,0-1.38.1l-5.52-3.93a1.08,1.08,0,0,0-1.86-1.09,1,1,0,0,0-.2.66,1.08,1.08,0,1,0,1,1.84l5.58,4a1.08,1.08,0,1,0,2.06.37A1.09,1.09,0,0,0,79.07,24.58Z"/><path class="cls-1" d="M104.43,38.36a1.33,1.33,0,0,0-2.53.79l-7.68,3.19a1.33,1.33,0,0,0-2.34,1.24,1.35,1.35,0,0,0,.56.64,1.33,1.33,0,1,0,2.53.19l7.77-3.23A1.33,1.33,0,0,0,105.09,40a1.31,1.31,0,0,0-.63-.68A1.33,1.33,0,0,0,104.43,38.36Z"/><path class="cls-1" d="M138,26.24a1.43,1.43,0,0,0-2.84.13l-8.86,1.22a1.43,1.43,0,0,0-2.78.65,1.46,1.46,0,0,0,.41.81,1.47,1.47,0,0,0-.27,1.05,1.43,1.43,0,0,0,2.85-.15l9-1.24a1.43,1.43,0,0,0,2.79-.62,1.46,1.46,0,0,0-.47-.88A1.47,1.47,0,0,0,138,26.24Z"/><path class="cls-1" d="M218.18,51.33a1.28,1.28,0,0,0-2.12,1.4l-6.22,5A1.28,1.28,0,0,0,208,59.49a1.23,1.23,0,0,0,.69.44,1.25,1.25,0,0,0,.27.92,1.28,1.28,0,0,0,2.11-1.42l6.3-5a1.3,1.3,0,0,0,1.65,0,1.28,1.28,0,0,0-.57-2.25A1.26,1.26,0,0,0,218.18,51.33Z"/><path class="cls-1" d="M381.94,35.49a1.27,1.27,0,0,0-2.4.82l-7.28,3.28a1.28,1.28,0,1,0-1.66,1.85,1.28,1.28,0,1,0,2.44.11l7.36-3.31a1.28,1.28,0,1,0,1.6-1.87A1.23,1.23,0,0,0,381.94,35.49Z"/><path class="cls-1" d="M427.61,51.9a1.27,1.27,0,0,0,.22-1.79,1.29,1.29,0,0,0-1.6-.35l-4.92-6.28a1.27,1.27,0,0,0-1.75-1.84,1.32,1.32,0,0,0-.44.68,1.28,1.28,0,1,0,.47,2.39l5,6.35a1.28,1.28,0,0,0,1.73,1.87,1.31,1.31,0,0,0,.47-.76A1.26,1.26,0,0,0,427.61,51.9Z"/><path class="cls-1" d="M475.8,61a1.27,1.27,0,0,0-2.4.83l-7.28,3.27a1.28,1.28,0,0,0-2.21,1.26,1.31,1.31,0,0,0,.55.59,1.26,1.26,0,0,0,0,1,1.28,1.28,0,0,0,2.4-.85l7.36-3.32a1.27,1.27,0,0,0,2.22-1.23,1.23,1.23,0,0,0-.62-.63A1.31,1.31,0,0,0,475.8,61Z"/><path class="cls-1" d="M528.56,64.49a1.28,1.28,0,0,0-1.93-1.66l-6.5-4.63a1.27,1.27,0,1,0-2.43-.5,1.27,1.27,0,0,0-.81.51,1.28,1.28,0,0,0,1.94,1.65l6.57,4.69a1.29,1.29,0,0,0,.41,1.59,1.27,1.27,0,0,0,1.78-.3,1.21,1.21,0,0,0,.23-.85A1.29,1.29,0,0,0,528.56,64.49Z"/><path class="cls-1" d="M675.18,47.59a1.27,1.27,0,0,0-1.92-1.66l-6.5-4.63a1.28,1.28,0,0,0-2.2-1.27,1.2,1.2,0,0,0-.23.77,1.3,1.3,0,0,0-.82.52,1.28,1.28,0,0,0,.3,1.78,1.26,1.26,0,0,0,1.64-.14L672,47.65a1.27,1.27,0,0,0,.41,1.6,1.29,1.29,0,0,0,1.78-.3,1.35,1.35,0,0,0,.23-.86A1.26,1.26,0,0,0,675.18,47.59Z"/><path class="cls-1" d="M778.56,61.94a1.28,1.28,0,0,0-1.93-1.66l-6.5-4.63a1.27,1.27,0,1,0-2.43-.5,1.23,1.23,0,0,0-.81.51,1.28,1.28,0,0,0,1.94,1.65L775.4,62a1.3,1.3,0,0,0,.41,1.6,1.27,1.27,0,0,0,1.78-.3,1.21,1.21,0,0,0,.23-.85A1.33,1.33,0,0,0,778.56,61.94Z"/><path class="cls-1" d="M848.42,48.58a1.28,1.28,0,0,0-1.93-1.66L840,42.29a1.27,1.27,0,1,0-2.43-.5,1.23,1.23,0,0,0-.81.51A1.28,1.28,0,0,0,838.69,44l6.57,4.68a1.3,1.3,0,0,0,.41,1.6,1.27,1.27,0,0,0,1.78-.3,1.23,1.23,0,0,0,.23-.86A1.27,1.27,0,0,0,848.42,48.58Z"/><path class="cls-1" d="M575.63,50.17a1.28,1.28,0,0,0-1.89,1.7l-5.42,5.85a1.28,1.28,0,0,0-1.62.22,1.27,1.27,0,0,0,.07,1.8,1.19,1.19,0,0,0,.74.33,1.3,1.3,0,0,0,.41.88,1.28,1.28,0,0,0,1.88-1.72l5.49-5.92A1.28,1.28,0,1,0,576,51,1.23,1.23,0,0,0,575.63,50.17Z"/><path class="cls-1" d="M624.85,43.69A1.27,1.27,0,0,0,623.2,43a1.29,1.29,0,0,0-.79,1.43L615,47.35a1.28,1.28,0,0,0-2.27,1.15,1.29,1.29,0,0,0,.53.62,1.25,1.25,0,0,0,0,1,1.27,1.27,0,0,0,2.43-.74l7.51-3a1.28,1.28,0,0,0,2.28-1.13,1.29,1.29,0,0,0-.6-.66A1.24,1.24,0,0,0,624.85,43.69Z"/><path class="cls-1" d="M731,51.76a1.28,1.28,0,0,0-2.44.71l-7.42,3a1.27,1.27,0,0,0-2.26,1.15,1.23,1.23,0,0,0,.52.62,1.28,1.28,0,1,0,2.43.23l7.5-3a1.29,1.29,0,0,0,1.57.52,1.28,1.28,0,0,0,.71-1.66,1.32,1.32,0,0,0-.59-.66A1.27,1.27,0,0,0,731,51.76Z"/><path class="cls-1" d="M813.27,55.42a1.28,1.28,0,0,0-2.44.71l-7.41,2.94a1.28,1.28,0,0,0-2.27,1.16,1.29,1.29,0,0,0,.53.62,1.23,1.23,0,0,0,0,1,1.28,1.28,0,0,0,1.66.72,1.29,1.29,0,0,0,.77-1.46l7.51-3A1.28,1.28,0,0,0,813.89,57a1.33,1.33,0,0,0-.6-.66A1.22,1.22,0,0,0,813.27,55.42Z"/><path class="cls-1" d="M153.59,56.73a1.42,1.42,0,0,0-1.45-2.42l-5.25-7.13A1.42,1.42,0,0,0,145,45.07a1.37,1.37,0,0,0-.52.74,1.41,1.41,0,1,0,.44,2.66l5.31,7.23a1.41,1.41,0,0,0,1.85,2.12,1.33,1.33,0,0,0,.54-.82A1.38,1.38,0,0,0,153.59,56.73Z"/><path class="cls-1" d="M175.61,43.06a1.34,1.34,0,0,0,1.25,2.36l4.56,7a1.34,1.34,0,0,0,1.66,2.08,1.39,1.39,0,0,0,.53-.67,1.31,1.31,0,0,0,1-.19,1.34,1.34,0,0,0-1.27-2.34l-4.62-7.08a1.34,1.34,0,0,0-1.64-2.1,1.28,1.28,0,0,0-.55.75A1.35,1.35,0,0,0,175.61,43.06Z"/><path class="cls-1" d="M185.92,71.4a1.33,1.33,0,0,0,1.75.7,1.35,1.35,0,0,0,.78-1.52l7.67-3.3a1.33,1.33,0,0,0,1.63.48,1.34,1.34,0,0,0,.7-1.76,1.3,1.3,0,0,0-.57-.63,1.31,1.31,0,0,0,0-1,1.33,1.33,0,0,0-2.52.84l-7.76,3.35a1.34,1.34,0,0,0-2.35,1.25,1.27,1.27,0,0,0,.64.67A1.3,1.3,0,0,0,185.92,71.4Z"/><path class="cls-1" d="M237.91,70.41a1.33,1.33,0,0,0-2.21-1.47l-7.36-4a1.32,1.32,0,0,0-.64-1.58,1.33,1.33,0,0,0-1.81.54,1.38,1.38,0,0,0-.14.84,1.36,1.36,0,0,0-.78.64,1.34,1.34,0,0,0,.55,1.81,1.32,1.32,0,0,0,1.68-.35l7.45,4a1.33,1.33,0,0,0,2.44,1.06,1.35,1.35,0,0,0,.13-.92A1.36,1.36,0,0,0,237.91,70.41Z"/><path class="cls-1" d="M258.51,52.13a1.33,1.33,0,0,0-2.58-.62l-8.27-1.17a1.34,1.34,0,0,0-2.66-.13,1.3,1.3,0,0,0,.16.83,1.33,1.33,0,1,0,2.08,1.47l8.37,1.19a1.34,1.34,0,0,0,2.66.15,1.3,1.3,0,0,0-.2-.91A1.28,1.28,0,0,0,258.51,52.13Z"/><path class="cls-1" d="M280.16,52.26a1.33,1.33,0,0,0-2.26,1.4l-6.67,5a1.33,1.33,0,0,0-2,1.79,1.35,1.35,0,0,0,.7.48,1.34,1.34,0,1,0,2.51-.45l6.75-5.09a1.34,1.34,0,0,0,2-1.78,1.38,1.38,0,0,0-.78-.5A1.34,1.34,0,0,0,280.16,52.26Z"/><path class="cls-1" d="M332.12,47.13a1.34,1.34,0,0,0-2.49-1l-8-2.25a1.33,1.33,0,0,0-2.61-.48,1.27,1.27,0,0,0,0,.84,1.36,1.36,0,0,0-.62.8,1.33,1.33,0,0,0,2.49.93L329,48.3a1.34,1.34,0,0,0,2.62.5,1.32,1.32,0,0,0-.08-.92A1.32,1.32,0,0,0,332.12,47.13Z"/><path class="cls-1" d="M298.71,34.19a1.34,1.34,0,0,0-2.53.83l-7.67,3.31a1.33,1.33,0,0,0-2.33,1.28,1.26,1.26,0,0,0,.57.63,1.36,1.36,0,0,0,0,1,1.33,1.33,0,0,0,2.52-.85l7.76-3.35a1.34,1.34,0,1,0,1.7-1.93A1.3,1.3,0,0,0,298.71,34.19Z"/><path class="cls-1" d="M341.93,23.35a1.34,1.34,0,0,0,2.2,1.5l7.3,4.06a1.34,1.34,0,0,0,.62,1.59,1.32,1.32,0,0,0,1.81-.52,1.3,1.3,0,0,0,.16-.83,1.35,1.35,0,0,0,.27-2.45,1.35,1.35,0,0,0-1.7.33l-7.38-4.11a1.34,1.34,0,1,0-2.57-.17A1.34,1.34,0,0,0,341.93,23.35Z"/><path class="cls-1" d="M397.91,24.1a1.34,1.34,0,0,0,1.49,1.16A1.35,1.35,0,0,0,400.57,24L408.85,23a1.32,1.32,0,0,0,1.44.91,1.33,1.33,0,0,0,.78-2.26,1.28,1.28,0,0,0,.26-1,1.34,1.34,0,0,0-2.66.11l-8.38,1.08a1.35,1.35,0,0,0-1.45-.94,1.34,1.34,0,0,0-.72,2.32A1.28,1.28,0,0,0,397.91,24.1Z"/><path class="cls-1" d="M461.06,34.89A1.34,1.34,0,0,0,458.63,36L451.34,40a1.34,1.34,0,0,0-2.2,1.5,1.29,1.29,0,0,0,.63.57,1.34,1.34,0,1,0,2.55-.09l7.38-4.12a1.34,1.34,0,1,0,1.5-2.09A1.3,1.3,0,0,0,461.06,34.89Z"/><path class="cls-1" d="M509.59,47a1.34,1.34,0,0,0-2.5-.91L499,44a1.34,1.34,0,0,0-2.63-.44,1.44,1.44,0,0,0,.06.85,1.38,1.38,0,0,0-.6.81,1.34,1.34,0,0,0,2.51.89l8.18,2.14a1.33,1.33,0,0,0,2.62.45,1.38,1.38,0,0,0-.09-.92A1.31,1.31,0,0,0,509.59,47Z"/><path class="cls-1" d="M596.87,28a1.33,1.33,0,0,0-1-1.63,1.32,1.32,0,0,0-1.54.72l-8.08-2.12a1.34,1.34,0,0,0-2.63-.43,1.36,1.36,0,0,0,.06.85,1.31,1.31,0,0,0-.6.81,1.33,1.33,0,0,0,2.51.88l8.17,2.15a1.34,1.34,0,0,0,2.63.45,1.32,1.32,0,0,0-.1-.92A1.36,1.36,0,0,0,596.87,28Z"/><path class="cls-1" d="M710.12,31a1.34,1.34,0,0,0-1.88-1.89l-6.4-5.35a1.35,1.35,0,0,0-.31-1.68,1.33,1.33,0,0,0-1.88.17,1.27,1.27,0,0,0-.31.79,1.35,1.35,0,0,0-.73,2.36,1.36,1.36,0,0,0,1.73,0l6.49,5.42a1.33,1.33,0,0,0,.29,1.7,1.34,1.34,0,0,0,1.88-.17,1.29,1.29,0,0,0,.31-.88A1.29,1.29,0,0,0,710.12,31Z"/><path class="cls-1" d="M826,38.12a1.34,1.34,0,0,0-1.88-1.89l-6.4-5.35a1.34,1.34,0,0,0-2.2-1.51,1.31,1.31,0,0,0-.3.79,1.39,1.39,0,0,0-.9.48,1.34,1.34,0,0,0,.17,1.88,1.36,1.36,0,0,0,1.73,0l6.48,5.42a1.34,1.34,0,0,0,2.18,1.53,1.29,1.29,0,0,0,.31-.88A1.29,1.29,0,0,0,826,38.12Z"/><path class="cls-1" d="M554.76,33.7a1.34,1.34,0,0,0-1.84,1.92l-5.17,6.55a1.34,1.34,0,0,0-1.45,2.23,1.31,1.31,0,0,0,.8.29,1.36,1.36,0,0,0,.49.88,1.34,1.34,0,0,0,1.82-2L554.65,37a1.34,1.34,0,0,0,1.47-2.22,1.36,1.36,0,0,0-.88-.28A1.32,1.32,0,0,0,554.76,33.7Z"/><path class="cls-1" d="M655.27,16.2a1.47,1.47,0,0,0-2.85.66l-8.69,2.91A1.47,1.47,0,0,0,641.05,21a1.42,1.42,0,0,0,.57.74,1.47,1.47,0,0,0,1.78,2,1.49,1.49,0,0,0,1-1.62l8.8-2.95A1.46,1.46,0,0,0,655.87,18a1.41,1.41,0,0,0-.64-.79A1.49,1.49,0,0,0,655.27,16.2Z"/><path class="cls-1" d="M772,36.64a1.46,1.46,0,0,0-2.84.66l-8.7,2.91a1.47,1.47,0,0,0-2.67,1.18,1.39,1.39,0,0,0,.56.74,1.47,1.47,0,1,0,2.77.42L770,39.6a1.47,1.47,0,0,0,2.69-1.15,1.51,1.51,0,0,0-.64-.8A1.46,1.46,0,0,0,772,36.64Z"/></g></svg>