<svg xmlns="http://www.w3.org/2000/svg" viewBox="0 0 850.39 85.04"><defs><style>.cls-1{fill:#8abb2b;}</style></defs><g id="Capa_7" data-name="Capa 7"><path class="cls-1" d="M31.43,45.84A3.37,3.37,0,0,0,29.73,47c-.75.95-1.21,1.7-.21,2.39s2.27-.16,2.69-.74S33.1,45.59,31.43,45.84Z"/><path class="cls-1" d="M36.6,44.69a.83.83,0,0,1,.7,1,2.88,2.88,0,0,1-.83,2.07c-.67.62-1.66,1.49-2.29,1a2.15,2.15,0,0,1-.45-2.62A3,3,0,0,1,36.6,44.69Z"/><path class="cls-1" d="M38.85,47a1,1,0,0,1,1.12.9s.38,1.11-.9,2.65a2.44,2.44,0,0,1-2.86,0C34.92,49.57,37.28,46.87,38.85,47Z"/><path class="cls-1" d="M36.66,55.88a3.81,3.81,0,0,0,2-3.11c0-1.08-.9-1-1.94-.87a1.9,1.9,0,0,0-1.44,1.26,3.79,3.79,0,0,0,.27,2.53A.78.78,0,0,0,36.66,55.88Z"/><path class="cls-1" d="M32.6,56.86a1.52,1.52,0,0,0,1.88-.23c.54-.58.37-1.45.19-2.41a10.58,10.58,0,0,1,.13-1.51c.18-1.08.71-1.86-.19-2.7-.7-.66-1.84,0-2.55.07a6.84,6.84,0,0,1-1.87.05c-.74-.16-1.49-.31-2,.27a1.51,1.51,0,0,0-.2,2S30.46,55.85,32.6,56.86Z"/><path class="cls-1" d="M4.44,46.42a3.52,3.52,0,0,0-1.95,1C1.57,48.25,1,49,1.91,49.82s2.37.19,2.89-.35S6.21,46.42,4.44,46.42Z"/><path class="cls-1" d="M10,46a.9.9,0,0,1,.58,1.11,3,3,0,0,1-1.19,2c-.79.53-1.94,1.28-2.52.66A2.24,2.24,0,0,1,6.78,47,3.15,3.15,0,0,1,10,46Z"/><path class="cls-1" d="M11.94,48.77a1,1,0,0,1,1,1.1s.21,1.21-1.35,2.6A2.55,2.55,0,0,1,8.66,52C7.47,50.82,10.33,48.4,11.94,48.77Z"/><path class="cls-1" d="M8.28,57.62a3.94,3.94,0,0,0,2.5-2.91c.15-1.12-.78-1.12-1.86-1.2a2,2,0,0,0-1.69,1.07,4,4,0,0,0-.11,2.67A.8.8,0,0,0,8.28,57.62Z"/><path class="cls-1" d="M3.93,58a1.62,1.62,0,0,0,2,.06c.65-.52.61-1.44.58-2.47a11,11,0,0,1,.37-1.54c.35-1.09,1-1.82.23-2.82-.62-.79-1.91-.28-2.66-.33a7,7,0,0,1-1.94-.25c-.74-.27-1.49-.55-2.15,0a1.57,1.57,0,0,0-.52,2S1.87,56.62,3.93,58Z"/><path class="cls-1" d="M126.29,34.25a3.79,3.79,0,0,0-1.87-1.37c-1.28-.45-2.23-.66-2.6.65s1,2.34,1.76,2.57S127.16,35.92,126.29,34.25Z"/><path class="cls-1" d="M129.38,39.28a1,1,0,0,1-.76,1.1,3.18,3.18,0,0,1-2.49-.14c-.89-.48-2.17-1.2-1.87-2.05a2.4,2.4,0,0,1,2.6-1.43C128.29,36.84,129.43,38.79,129.38,39.28Z"/><path class="cls-1" d="M127.76,42.5a1.08,1.08,0,0,1-.53,1.51s-1,.79-3.13,0a2.73,2.73,0,0,1-1-3C123.62,39.28,127.32,40.79,127.76,42.5Z"/><path class="cls-1" d="M117.59,43.4a4.22,4.22,0,0,0,4,.93c1.13-.41.67-1.29.21-2.35A2.1,2.1,0,0,0,120,40.91a4.26,4.26,0,0,0-2.58,1.2A.86.86,0,0,0,117.59,43.4Z"/><path class="cls-1" d="M115.09,39.47a1.71,1.71,0,0,0,.91,1.9c.82.37,1.67-.13,2.62-.66a11.4,11.4,0,0,1,1.64-.41c1.21-.21,2.22.06,2.78-1.18.45-1-.67-1.94-1-2.67a7.59,7.59,0,0,1-.73-2c-.1-.84-.21-1.68-1-2.05a1.68,1.68,0,0,0-2.16.51S115.38,36.85,115.09,39.47Z"/><path class="cls-1" d="M39.68,13.31a4.52,4.52,0,0,0-2.66.85c-1.35.94-2.24,1.72-1.21,3s3,.69,3.76.1S41.94,13.65,39.68,13.31Z"/><path class="cls-1" d="M46.81,13.86a1.14,1.14,0,0,1,.53,1.52,3.88,3.88,0,0,1-1.9,2.34c-1.11.53-2.72,1.27-3.34.37a2.88,2.88,0,0,1,.45-3.56C43.64,13.2,46.36,13.46,46.81,13.86Z"/><path class="cls-1" d="M48.81,17.73a1.3,1.3,0,0,1,1.09,1.59s0,1.58-2.22,3.07A3.3,3.3,0,0,1,44,21.2C42.72,19.49,46.82,16.94,48.81,17.73Z"/><path class="cls-1" d="M42.46,28.33a5.12,5.12,0,0,0,3.75-3.25c.4-1.39-.79-1.58-2.16-1.88a2.56,2.56,0,0,0-2.35,1.05A5.16,5.16,0,0,0,41,27.63,1.05,1.05,0,0,0,42.46,28.33Z"/><path class="cls-1" d="M36.84,28a2.06,2.06,0,0,0,2.51.46c.93-.54,1-1.73,1.21-3a14.39,14.39,0,0,1,.76-1.9c.65-1.32,1.64-2.12.83-3.56-.65-1.12-2.39-.71-3.33-.92a9,9,0,0,1-2.43-.68c-.9-.49-1.8-1-2.74-.45a2.05,2.05,0,0,0-1,2.48S34.48,25.84,36.84,28Z"/><path class="cls-1" d="M168.89,51.52a3.27,3.27,0,0,0-2-.62c-1.24,0-2.13.15-2,1.46s1.57,1.78,2.3,1.73S170.16,52.75,168.89,51.52Z"/><path class="cls-1" d="M173.1,55.05a.94.94,0,0,1-.32,1.24,2.81,2.81,0,0,1-2.18.71c-.91-.14-2.23-.37-2.24-1.24a2.31,2.31,0,0,1,1.8-2.16C171.41,53.2,173,54.59,173.1,55.05Z"/><path class="cls-1" d="M172.7,58.5a1.09,1.09,0,0,1,0,1.55s-.64,1.06-2.68,1a2.54,2.54,0,0,1-1.79-2.42C168.15,57,171.8,57.1,172.7,58.5Z"/><path class="cls-1" d="M164.23,62.71a3.73,3.73,0,0,0,3.72-.49c.84-.75.18-1.39-.55-2.2a1.83,1.83,0,0,0-1.91-.35,4,4,0,0,0-1.85,1.95A.83.83,0,0,0,164.23,62.71Z"/><path class="cls-1" d="M160.87,60a1.58,1.58,0,0,0,1.37,1.41c.81.06,1.39-.68,2-1.48a11.07,11.07,0,0,1,1.28-.92c1-.58,1.93-.67,2-2,.08-1-1.18-1.53-1.68-2.08a7.49,7.49,0,0,1-1.23-1.54c-.34-.72-.7-1.45-1.51-1.51a1.56,1.56,0,0,0-1.7,1.18S160.31,57.51,160.87,60Z"/><path class="cls-1" d="M196.05,42a2.82,2.82,0,0,0-1.74-.52c-1.06,0-1.81.12-1.74,1.24s1.35,1.53,2,1.49S197.13,43.07,196.05,42Z"/><path class="cls-1" d="M199.65,45a.81.81,0,0,1-.27,1.06,2.43,2.43,0,0,1-1.87.61c-.78-.12-1.91-.32-1.92-1.06a2,2,0,0,1,1.54-1.85A2.57,2.57,0,0,1,199.65,45Z"/><path class="cls-1" d="M199.31,48a.93.93,0,0,1,0,1.32,2.59,2.59,0,0,1-2.3.9,2.18,2.18,0,0,1-1.53-2.07C195.41,46.68,198.53,46.79,199.31,48Z"/><path class="cls-1" d="M192.06,51.59a3.17,3.17,0,0,0,3.18-.42c.72-.64.15-1.19-.47-1.88a1.55,1.55,0,0,0-1.63-.3,3.44,3.44,0,0,0-1.59,1.67A.71.71,0,0,0,192.06,51.59Z"/><path class="cls-1" d="M189.18,49.26a1.35,1.35,0,0,0,1.18,1.21c.69.05,1.18-.58,1.75-1.26a8.43,8.43,0,0,1,1.1-.79c.83-.5,1.65-.58,1.73-1.7.07-.89-1-1.32-1.44-1.79a6.32,6.32,0,0,1-1.05-1.31c-.29-.62-.6-1.24-1.29-1.3a1.34,1.34,0,0,0-1.46,1S188.7,47.14,189.18,49.26Z"/><path class="cls-1" d="M209,64a2.79,2.79,0,0,0-1.74-.53c-1.06,0-1.82.12-1.74,1.24s1.35,1.53,2,1.49S210.1,65,209,64Z"/><path class="cls-1" d="M212.62,67a.81.81,0,0,1-.28,1.06,2.4,2.4,0,0,1-1.86.61c-.79-.12-1.92-.32-1.92-1.06a2,2,0,0,1,1.54-1.85A2.57,2.57,0,0,1,212.62,67Z"/><path class="cls-1" d="M212.27,70a.93.93,0,0,1,0,1.32,2.57,2.57,0,0,1-2.31.9,2.2,2.2,0,0,1-1.53-2.07C208.38,68.65,211.5,68.76,212.27,70Z"/><path class="cls-1" d="M205,73.56a3.19,3.19,0,0,0,3.19-.41c.72-.64.15-1.2-.47-1.89a1.59,1.59,0,0,0-1.64-.3,3.44,3.44,0,0,0-1.58,1.67A.71.71,0,0,0,205,73.56Z"/><path class="cls-1" d="M202.15,71.23a1.35,1.35,0,0,0,1.17,1.21c.7,0,1.19-.58,1.75-1.26a10.93,10.93,0,0,1,1.1-.79c.83-.5,1.65-.58,1.74-1.7.07-.89-1-1.31-1.44-1.79a6.32,6.32,0,0,1-1.05-1.31c-.3-.62-.6-1.24-1.3-1.3a1.33,1.33,0,0,0-1.45,1S201.67,69.11,202.15,71.23Z"/><path class="cls-1" d="M162,31.65a3.25,3.25,0,0,0-1.71-1.22c-1.17-.37-2-.53-2.37.73s.92,2.17,1.61,2.35S162.78,33.2,162,31.65Z"/><path class="cls-1" d="M164.82,36.29a.94.94,0,0,1-.69,1.07,2.8,2.8,0,0,1-2.27,0c-.82-.42-2-1.05-1.71-1.87A2.26,2.26,0,0,1,162.51,34C163.81,34,164.86,35.83,164.82,36.29Z"/><path class="cls-1" d="M163.36,39.41a1.07,1.07,0,0,1-.49,1.45A3,3,0,0,1,160,41a2.54,2.54,0,0,1-.92-2.84C159.57,36.54,163,37.81,163.36,39.41Z"/><path class="cls-1" d="M154.07,40.7a3.7,3.7,0,0,0,3.65.71c1-.44.61-1.25.18-2.24a1.83,1.83,0,0,0-1.68-.94,4,4,0,0,0-2.36,1.25A.83.83,0,0,0,154.07,40.7Z"/><path class="cls-1" d="M151.77,37.08a1.57,1.57,0,0,0,.85,1.76c.74.31,1.51-.2,2.38-.74a10.6,10.6,0,0,1,1.5-.46c1.1-.25,2,0,2.54-1.23.4-.95-.63-1.82-.93-2.5a7.34,7.34,0,0,1-.67-1.82c-.09-.79-.2-1.59-.94-1.91a1.54,1.54,0,0,0-2,.58S152,34.57,151.77,37.08Z"/><path class="cls-1" d="M98.42,15.74a3.23,3.23,0,0,0-1.68-1.2c-1.15-.36-2-.52-2.32.72s.89,2.13,1.58,2.31S99.2,17.26,98.42,15.74Z"/><path class="cls-1" d="M101.21,20.3a.94.94,0,0,1-.68,1.05,2.79,2.79,0,0,1-2.23,0c-.8-.41-2-1-1.68-1.83a2.23,2.23,0,0,1,2.32-1.44C100.22,18.07,101.25,19.84,101.21,20.3Z"/><path class="cls-1" d="M99.77,23.35a1.06,1.06,0,0,1-.48,1.43,2.91,2.91,0,0,1-2.8.13,2.48,2.48,0,0,1-.9-2.78C96.05,20.53,99.37,21.78,99.77,23.35Z"/><path class="cls-1" d="M90.66,24.61a3.61,3.61,0,0,0,3.58.7c1-.42.6-1.22.18-2.2a1.79,1.79,0,0,0-1.66-.91,3.88,3.88,0,0,0-2.3,1.23A.79.79,0,0,0,90.66,24.61Z"/><path class="cls-1" d="M88.41,21.06a1.52,1.52,0,0,0,.82,1.73c.73.31,1.49-.19,2.34-.73A11.27,11.27,0,0,1,93,21.61c1.08-.24,2,0,2.49-1.21.39-.92-.61-1.77-.91-2.44A7,7,0,0,1,94,16.17c-.1-.78-.2-1.56-.93-1.87a1.53,1.53,0,0,0-1.93.56S88.65,18.61,88.41,21.06Z"/><path class="cls-1" d="M299.3,40.15a3.36,3.36,0,0,0-2.11.39c-1.1.6-1.84,1.12-1.15,2.26s2.24.87,2.88.49S301,40.67,299.3,40.15Z"/><path class="cls-1" d="M304.73,41.36a1,1,0,0,1,.3,1.27c-.43.76-.75,1.35-1.64,1.65s-2.18.71-2.59-.07a2.31,2.31,0,0,1,.61-2.77C302.35,40.49,304.42,41,304.73,41.36Z"/><path class="cls-1" d="M306,44.65A1.1,1.1,0,0,1,306.7,46s-.08,1.26-1.93,2.2A2.59,2.59,0,0,1,302,46.89C301.17,45.4,304.51,43.82,306,44.65Z"/><path class="cls-1" d="M300.32,52.39a3.76,3.76,0,0,0,3.12-2.17c.41-1.07-.48-1.34-1.52-1.73a1.86,1.86,0,0,0-1.88.57,4.05,4.05,0,0,0-.75,2.62A.83.83,0,0,0,300.32,52.39Z"/><path class="cls-1" d="M296,51.51a1.62,1.62,0,0,0,1.9.63c.76-.33.93-1.26,1.15-2.28a10.5,10.5,0,0,1,.73-1.43c.59-1,1.41-1.51.89-2.74-.41-1-1.78-.83-2.48-1.09a7,7,0,0,1-1.82-.81c-.65-.49-1.31-1-2.07-.65a1.57,1.57,0,0,0-1,1.85S294.38,49.54,296,51.51Z"/><path class="cls-1" d="M750.06,49a3.6,3.6,0,0,0-1.9-1.28c-1.28-.37-2.23-.52-2.55.85s1,2.34,1.81,2.52S751,50.69,750.06,49Z"/><path class="cls-1" d="M753.27,54a1,1,0,0,1-.73,1.18,3,3,0,0,1-2.47,0c-.9-.43-2.18-1.09-1.91-2a2.48,2.48,0,0,1,2.53-1.65C752.11,51.56,753.3,53.49,753.27,54Z"/><path class="cls-1" d="M751.75,57.42a1.17,1.17,0,0,1-.48,1.59s-1,.9-3.11.23a2.76,2.76,0,0,1-1.07-3.06C747.56,54.4,751.27,55.69,751.75,57.42Z"/><path class="cls-1" d="M741.69,59.06a4,4,0,0,0,4,.68c1.1-.5.63-1.37.14-2.44a2,2,0,0,0-1.86-1,4.33,4.33,0,0,0-2.52,1.42A.89.89,0,0,0,741.69,59.06Z"/><path class="cls-1" d="M739.1,55.19a1.71,1.71,0,0,0,1,1.89c.82.32,1.65-.25,2.58-.87a11.78,11.78,0,0,1,1.62-.54c1.18-.29,2.2-.08,2.72-1.4.41-1-.73-2-1.07-2.68a7.87,7.87,0,0,1-.77-2c-.13-.86-.27-1.72-1.08-2a1.69,1.69,0,0,0-2.13.68S739.31,52.46,739.1,55.19Z"/><path class="cls-1" d="M796.42,26.65a3.2,3.2,0,0,0-2,.66c-1,.72-1.62,1.32-.8,2.31a2.1,2.1,0,0,0,2.82.08C797,29.25,798.12,26.92,796.42,26.65Z"/><path class="cls-1" d="M801.78,27.08a1,1,0,0,1,.45,1.18,2.79,2.79,0,0,1-1.34,1.8c-.81.41-2,1-2.49.28a2.24,2.24,0,0,1,.21-2.74C799.38,26.57,801.43,26.78,801.78,27.08Z"/><path class="cls-1" d="M803.41,30.07a1.06,1.06,0,0,1,.88,1.23s.09,1.22-1.55,2.36a2.52,2.52,0,0,1-2.8-.92C798.91,31.42,801.9,29.46,803.41,30.07Z"/><path class="cls-1" d="M799,38.23a3.65,3.65,0,0,0,2.7-2.5c.25-1.08-.65-1.22-1.69-1.45a1.78,1.78,0,0,0-1.72.8,4,4,0,0,0-.37,2.61A.8.8,0,0,0,799,38.23Z"/><path class="cls-1" d="M794.81,38a1.55,1.55,0,0,0,1.9.36c.68-.41.72-1.33.79-2.34a10.48,10.48,0,0,1,.51-1.46c.44-1,1.15-1.64.49-2.74-.52-.87-1.81-.56-2.53-.72a6.84,6.84,0,0,1-1.84-.52c-.69-.38-1.39-.76-2.07-.35a1.5,1.5,0,0,0-.69,1.9S793,36.3,794.81,38Z"/><path class="cls-1" d="M832,17.15a2.76,2.76,0,0,0-1.69.56c-.83.61-1.38,1.13-.68,2a1.81,1.81,0,0,0,2.41.07C832.51,19.37,833.45,17.37,832,17.15Z"/><path class="cls-1" d="M836.57,17.52a.79.79,0,0,1,.39,1,2.34,2.34,0,0,1-1.15,1.54c-.69.35-1.7.84-2.13.24a1.93,1.93,0,0,1,.18-2.34A2.51,2.51,0,0,1,836.57,17.52Z"/><path class="cls-1" d="M838,20.07a.9.9,0,0,1,.75,1.05s.07,1-1.33,2a2.16,2.16,0,0,1-2.4-.78C834.12,21.23,836.68,19.55,838,20.07Z"/><path class="cls-1" d="M834.23,27.05a3.1,3.1,0,0,0,2.3-2.13c.22-.92-.55-1.05-1.44-1.25a1.53,1.53,0,0,0-1.47.69,3.34,3.34,0,0,0-.32,2.23A.69.69,0,0,0,834.23,27.05Z"/><path class="cls-1" d="M830.62,26.82a1.33,1.33,0,0,0,1.62.3c.58-.35.62-1.13.68-2a9.18,9.18,0,0,1,.43-1.25c.38-.87,1-1.4.42-2.35-.45-.74-1.55-.47-2.16-.61a6,6,0,0,1-1.58-.45c-.59-.32-1.19-.65-1.77-.3a1.3,1.3,0,0,0-.59,1.63S829,25.4,830.62,26.82Z"/><path class="cls-1" d="M732.37,25.31a3,3,0,0,0-1.65-1c-1.1-.26-1.91-.36-2.13.82s1,1.94,1.64,2.07S733.21,26.68,732.37,25.31Z"/><path class="cls-1" d="M735.29,29.39a.86.86,0,0,1-.56,1,2.61,2.61,0,0,1-2.1.13c-.78-.33-1.89-.83-1.7-1.61a2.12,2.12,0,0,1,2.09-1.5C734.21,27.37,735.3,29,735.29,29.39Z"/><path class="cls-1" d="M734.15,32.36a1,1,0,0,1-.35,1.37,2.76,2.76,0,0,1-2.62.31,2.34,2.34,0,0,1-1-2.55C730.47,30,733.67,30.91,734.15,32.36Z"/><path class="cls-1" d="M725.69,34.15a3.39,3.39,0,0,0,3.4.42c.92-.47.48-1.19,0-2.08a1.69,1.69,0,0,0-1.61-.75,3.71,3.71,0,0,0-2.08,1.31A.75.75,0,0,0,725.69,34.15Z"/><path class="cls-1" d="M723.34,31a1.45,1.45,0,0,0,.89,1.57c.7.24,1.38-.28,2.15-.84a9.68,9.68,0,0,1,1.35-.52c1-.3,1.86-.16,2.25-1.3.3-.9-.7-1.63-1-2.23a6.48,6.48,0,0,1-.73-1.64c-.15-.72-.29-1.45-1-1.69a1.41,1.41,0,0,0-1.77.66S723.41,28.65,723.34,31Z"/><path class="cls-1" d="M230.8,44a3.14,3.14,0,0,0-2-.44c-1.18.11-2,.29-1.83,1.53s1.63,1.59,2.32,1.49S232.09,45,230.8,44Z"/><path class="cls-1" d="M235.06,47a.92.92,0,0,1-.21,1.21,2.75,2.75,0,0,1-2,.84c-.88-.07-2.15-.19-2.22-1a2.19,2.19,0,0,1,1.55-2.19C233.31,45.39,234.92,46.59,235.06,47Z"/><path class="cls-1" d="M234.93,50.34a1,1,0,0,1,.11,1.47A2.84,2.84,0,0,1,232.56,53a2.45,2.45,0,0,1-1.88-2.17C230.49,49.21,234,49.07,234.93,50.34Z"/><path class="cls-1" d="M227.17,55a3.53,3.53,0,0,0,3.5-.73c.75-.77.08-1.34-.67-2.06a1.76,1.76,0,0,0-1.85-.2,3.85,3.85,0,0,0-1.62,2A.78.78,0,0,0,227.17,55Z"/><path class="cls-1" d="M223.77,52.61a1.51,1.51,0,0,0,1.41,1.25c.78,0,1.27-.74,1.84-1.55a11.4,11.4,0,0,1,1.16-1c.88-.63,1.79-.79,1.79-2.05,0-1-1.24-1.37-1.76-1.86a7.09,7.09,0,0,1-1.28-1.37c-.38-.67-.77-1.33-1.55-1.33A1.48,1.48,0,0,0,223.85,46S223.06,50.3,223.77,52.61Z"/><path class="cls-1" d="M266.91,36.38a2.76,2.76,0,0,0-1.73.3c-.9.48-1.51.9-1,1.84a1.77,1.77,0,0,0,2.35.42C267.09,38.64,268.3,36.82,266.91,36.38Z"/><path class="cls-1" d="M271.34,37.42a.79.79,0,0,1,.23,1,2.34,2.34,0,0,1-1.35,1.34c-.73.24-1.79.56-2.11-.08a1.89,1.89,0,0,1,.52-2.27A2.48,2.48,0,0,1,271.34,37.42Z"/><path class="cls-1" d="M272.33,40.12a.89.89,0,0,1,.58,1.14s-.08,1-1.59,1.78a2.12,2.12,0,0,1-2.23-1.12C268.4,40.69,271.14,39.42,272.33,40.12Z"/><path class="cls-1" d="M267.64,46.4a3.07,3.07,0,0,0,2.57-1.75c.35-.87-.38-1.1-1.22-1.43a1.52,1.52,0,0,0-1.55.46,3.31,3.31,0,0,0-.64,2.13A.69.69,0,0,0,267.64,46.4Z"/><path class="cls-1" d="M264.15,45.64a1.3,1.3,0,0,0,1.54.53c.62-.26.77-1,1-1.85a9.86,9.86,0,0,1,.6-1.16c.5-.8,1.18-1.23.76-2.23-.33-.8-1.45-.7-2-.92a6,6,0,0,1-1.48-.67c-.53-.41-1.07-.81-1.69-.56a1.29,1.29,0,0,0-.81,1.51S262.81,44,264.15,45.64Z"/><path class="cls-1" d="M400.2,28.69a3.35,3.35,0,0,0-1.8-1.13c-1.21-.3-2.09-.42-2.35.88s1.05,2.14,1.76,2.28S401.1,30.22,400.2,28.69Z"/><path class="cls-1" d="M403.34,33.22a1,1,0,0,1-.63,1.12,2.84,2.84,0,0,1-2.3.11c-.85-.37-2.07-.94-1.84-1.79a2.29,2.29,0,0,1,2.3-1.61C402.19,31,403.35,32.74,403.34,33.22Z"/><path class="cls-1" d="M402,36.46a1.08,1.08,0,0,1-.4,1.49,3,3,0,0,1-2.88.31,2.57,2.57,0,0,1-1.09-2.82C398,33.77,401.54,34.86,402,36.46Z"/><path class="cls-1" d="M392.74,38.3a3.7,3.7,0,0,0,3.72.5c1-.5.55-1.3.06-2.27a1.85,1.85,0,0,0-1.76-.85,4,4,0,0,0-2.3,1.41A.82.82,0,0,0,392.74,38.3Z"/><path class="cls-1" d="M390.2,34.78a1.6,1.6,0,0,0,1,1.73c.77.27,1.52-.29,2.37-.89a10.52,10.52,0,0,1,1.48-.55c1.1-.32,2.05-.15,2.49-1.4.35-1-.74-1.79-1.08-2.46a7.3,7.3,0,0,1-.78-1.81c-.15-.79-.3-1.59-1.07-1.86a1.55,1.55,0,0,0-1.95.69S390.31,32.23,390.2,34.78Z"/><path class="cls-1" d="M436.6,25a3.33,3.33,0,0,0-1.77-1.11c-1.17-.29-2-.41-2.3.86s1,2.1,1.73,2.24S437.48,26.5,436.6,25Z"/><path class="cls-1" d="M439.68,29.44a.94.94,0,0,1-.63,1.1,2.76,2.76,0,0,1-2.25.11c-.83-.37-2-.93-1.8-1.75a2.24,2.24,0,0,1,2.26-1.58C438.55,27.26,439.69,29,439.68,29.44Z"/><path class="cls-1" d="M438.4,32.61a1.07,1.07,0,0,1-.39,1.47,3,3,0,0,1-2.82.29,2.5,2.5,0,0,1-1.07-2.75C434.49,30,437.91,31.05,438.4,32.61Z"/><path class="cls-1" d="M429.29,34.41a3.65,3.65,0,0,0,3.65.5c1-.49.53-1.27.05-2.23a1.8,1.8,0,0,0-1.72-.82A3.92,3.92,0,0,0,429,33.23.8.8,0,0,0,429.29,34.41Z"/><path class="cls-1" d="M426.81,31a1.55,1.55,0,0,0,.94,1.69c.75.27,1.49-.28,2.31-.87a11.7,11.7,0,0,1,1.46-.54c1.07-.31,2-.15,2.44-1.36.34-1-.73-1.76-1.06-2.42a7.3,7.3,0,0,1-.77-1.76c-.14-.78-.29-1.56-1-1.83a1.53,1.53,0,0,0-1.92.68S426.92,28.48,426.81,31Z"/><path class="cls-1" d="M445.21,48.25a3.29,3.29,0,0,0-1.78-1.13c-1.19-.29-2.07-.41-2.33.87s1,2.12,1.75,2.26S446.1,49.75,445.21,48.25Z"/><path class="cls-1" d="M448.32,52.72a.94.94,0,0,1-.63,1.11,2.81,2.81,0,0,1-2.27.11c-.84-.37-2.05-.93-1.82-1.77a2.28,2.28,0,0,1,2.28-1.6C447.18,50.51,448.33,52.25,448.32,52.72Z"/><path class="cls-1" d="M447,55.92a1.08,1.08,0,0,1-.4,1.48,3,3,0,0,1-2.85.31,2.55,2.55,0,0,1-1.08-2.79C443.08,53.27,446.54,54.35,447,55.92Z"/><path class="cls-1" d="M437.83,57.75a3.68,3.68,0,0,0,3.68.5c1-.5.54-1.29.06-2.25a1.83,1.83,0,0,0-1.74-.84,4,4,0,0,0-2.28,1.39A.82.82,0,0,0,437.83,57.75Z"/><path class="cls-1" d="M435.32,54.26a1.57,1.57,0,0,0,.95,1.71c.76.28,1.5-.28,2.34-.87a10.68,10.68,0,0,1,1.47-.55c1.08-.31,2-.15,2.46-1.38.35-1-.73-1.78-1.06-2.44A7.27,7.27,0,0,1,440.7,49c-.14-.79-.3-1.58-1.06-1.85a1.53,1.53,0,0,0-1.93.69S435.43,51.75,435.32,54.26Z"/><path class="cls-1" d="M477,34.08a4.4,4.4,0,0,0-2.39-1.51c-1.6-.4-2.78-.55-3.13,1.16s1.4,2.85,2.35,3S478.16,36.1,477,34.08Z"/><path class="cls-1" d="M481.14,40.09a1.26,1.26,0,0,1-.84,1.49,3.77,3.77,0,0,1-3.05.14c-1.13-.49-2.75-1.25-2.45-2.37a3.06,3.06,0,0,1,3.06-2.15C479.61,37.12,481.16,39.46,481.14,40.09Z"/><path class="cls-1" d="M479.42,44.39a1.44,1.44,0,0,1-.54,2s-1.2,1.15-3.82.41A3.41,3.41,0,0,1,473.61,43C474.11,40.82,478.75,42.27,479.42,44.39Z"/><path class="cls-1" d="M467.05,46.83a5,5,0,0,0,5,.68c1.34-.67.72-1.73.07-3a2.47,2.47,0,0,0-2.34-1.12,5.36,5.36,0,0,0-3.06,1.86A1.1,1.1,0,0,0,467.05,46.83Z"/><path class="cls-1" d="M463.69,42.16A2.1,2.1,0,0,0,465,44.45c1,.37,2-.38,3.14-1.18a15.12,15.12,0,0,1,2-.73c1.45-.42,2.72-.2,3.3-1.85.47-1.3-1-2.39-1.43-3.27a9.6,9.6,0,0,1-1-2.4c-.19-1.06-.39-2.12-1.42-2.48a2.05,2.05,0,0,0-2.59.92S463.83,38.78,463.69,42.16Z"/><path class="cls-1" d="M249.45,57.19a2.7,2.7,0,0,0-1.71.13c-.93.38-1.56.73-1.11,1.7a1.76,1.76,0,0,0,2.25.64C249.41,59.41,250.77,57.75,249.45,57.19Z"/><path class="cls-1" d="M253.67,58.63a.76.76,0,0,1,.12,1,2.28,2.28,0,0,1-1.44,1.17c-.73.17-1.8.38-2-.28A1.84,1.84,0,0,1,251,58.4,2.42,2.42,0,0,1,253.67,58.63Z"/><path class="cls-1" d="M254.38,61.35a.88.88,0,0,1,.45,1.17s-.18,1-1.72,1.58a2.07,2.07,0,0,1-2.06-1.31C250.49,61.53,253.28,60.56,254.38,61.35Z"/><path class="cls-1" d="M249.21,67a3,3,0,0,0,2.67-1.45c.41-.82-.27-1.11-1.06-1.51a1.49,1.49,0,0,0-1.55.3,3.24,3.24,0,0,0-.82,2A.66.66,0,0,0,249.21,67Z"/><path class="cls-1" d="M245.88,65.94a1.28,1.28,0,0,0,1.45.67c.63-.19.85-.92,1.11-1.72a8.21,8.21,0,0,1,.7-1.07c.56-.73,1.26-1.08,1-2.1-.24-.8-1.34-.81-1.88-1.08a5.88,5.88,0,0,1-1.38-.8c-.47-.44-1-.89-1.59-.7a1.26,1.26,0,0,0-.94,1.39S244.73,64.24,245.88,65.94Z"/><path class="cls-1" d="M67.48,26.14a4.16,4.16,0,0,0-2.64-.25c-1.51.35-2.56.72-2.12,2.3S65.1,30,66,29.74,69.34,27.33,67.48,26.14Z"/><path class="cls-1" d="M73.52,29.4A1.2,1.2,0,0,1,73.45,31,3.58,3.58,0,0,1,71,32.42c-1.16.06-2.84.11-3.06-1a2.86,2.86,0,0,1,1.66-3.09C71,27.57,73.27,28.87,73.52,29.4Z"/><path class="cls-1" d="M73.9,33.73a1.35,1.35,0,0,1,.39,1.89s-.52,1.47-3,2a3.2,3.2,0,0,1-2.8-2.51C68,33,72.44,32.24,73.9,33.73Z"/><path class="cls-1" d="M64.59,41A4.64,4.64,0,0,0,69,39.48c.85-1.13-.13-1.75-1.22-2.56a2.29,2.29,0,0,0-2.43,0,5,5,0,0,0-1.77,2.86A1,1,0,0,0,64.59,41Z"/><path class="cls-1" d="M59.8,38.53a2,2,0,0,0,2,1.38c1-.13,1.53-1.17,2.13-2.32a14.23,14.23,0,0,1,1.34-1.45c1-1,2.19-1.31,2-3-.17-1.28-1.84-1.58-2.59-2.13a9.1,9.1,0,0,1-1.89-1.57c-.61-.79-1.23-1.6-2.23-1.47a2,2,0,0,0-1.79,1.87S58.48,35.64,59.8,38.53Z"/><path class="cls-1" d="M318.81,23a3,3,0,0,0-1.91.2c-1,.46-1.72.87-1.18,1.93a1.94,1.94,0,0,0,2.53.64C318.84,25.43,320.3,23.53,318.81,23Z"/><path class="cls-1" d="M323.57,24.41a.87.87,0,0,1,.18,1.15,2.57,2.57,0,0,1-1.57,1.37c-.81.21-2,.48-2.31-.24a2.09,2.09,0,0,1,.74-2.44A2.71,2.71,0,0,1,323.57,24.41Z"/><path class="cls-1" d="M324.46,27.44a1,1,0,0,1,.55,1.28s-.16,1.12-1.87,1.83a2.32,2.32,0,0,1-2.35-1.39C320.12,27.77,323.21,26.59,324.46,27.44Z"/><path class="cls-1" d="M318.88,34a3.37,3.37,0,0,0,2.93-1.72c.44-.93-.34-1.23-1.23-1.65a1.66,1.66,0,0,0-1.72.38,3.6,3.6,0,0,0-.85,2.29A.74.74,0,0,0,318.88,34Z"/><path class="cls-1" d="M315.11,32.86a1.45,1.45,0,0,0,1.65.7c.7-.24.92-1.06,1.18-2a11.5,11.5,0,0,1,.75-1.22c.6-.83,1.37-1.25,1-2.38-.3-.89-1.53-.86-2.14-1.15A6.65,6.65,0,0,1,316,26c-.55-.48-1.1-1-1.8-.73a1.41,1.41,0,0,0-1,1.59S313.77,31,315.11,32.86Z"/><path class="cls-1" d="M346.86,30a3.33,3.33,0,0,0-2.11.23c-1.14.51-1.91,1-1.31,2.14s2.15,1,2.8.7S348.51,30.59,346.86,30Z"/><path class="cls-1" d="M352.13,31.57a.94.94,0,0,1,.19,1.27,2.84,2.84,0,0,1-1.73,1.51c-.9.23-2.21.53-2.56-.27a2.3,2.3,0,0,1,.82-2.69C349.84,30.52,351.85,31.18,352.13,31.57Z"/><path class="cls-1" d="M353.11,34.91a1.09,1.09,0,0,1,.61,1.43s-.18,1.23-2.07,2a2.57,2.57,0,0,1-2.6-1.54C348.31,35.28,351.73,34,353.11,34.91Z"/><path class="cls-1" d="M346.94,42.12a3.73,3.73,0,0,0,3.24-1.91c.49-1-.38-1.36-1.37-1.82a1.83,1.83,0,0,0-1.9.42,4,4,0,0,0-.94,2.53A.83.83,0,0,0,346.94,42.12Z"/><path class="cls-1" d="M342.77,40.92a1.59,1.59,0,0,0,1.82.76c.77-.26,1-1.16,1.31-2.16a10.11,10.11,0,0,1,.83-1.35c.66-.92,1.51-1.38,1.09-2.64-.33-1-1.69-1-2.37-1.26a7.35,7.35,0,0,1-1.73-.94c-.61-.53-1.22-1.07-2-.8a1.55,1.55,0,0,0-1.1,1.75S341.28,38.85,342.77,40.92Z"/><path class="cls-1" d="M372.28,16.46a3.06,3.06,0,0,0-1.83-.59c-1.12,0-1.92.1-1.86,1.29s1.39,1.64,2.05,1.61S373.4,17.59,372.28,16.46Z"/><path class="cls-1" d="M376,19.72a.86.86,0,0,1-.31,1.13,2.56,2.56,0,0,1-2,.6c-.83-.14-2-.37-2-1.15a2.08,2.08,0,0,1,1.66-1.93A2.72,2.72,0,0,1,376,19.72Z"/><path class="cls-1" d="M375.61,22.84a1,1,0,0,1,0,1.4,2.7,2.7,0,0,1-2.45.91,2.32,2.32,0,0,1-1.58-2.22C371.52,21.39,374.82,21.56,375.61,22.84Z"/><path class="cls-1" d="M367.88,26.52a3.36,3.36,0,0,0,3.37-.38c.78-.67.19-1.26-.46-2a1.67,1.67,0,0,0-1.72-.35,3.73,3.73,0,0,0-1.71,1.74A.75.75,0,0,0,367.88,26.52Z"/><path class="cls-1" d="M364.88,24a1.45,1.45,0,0,0,1.22,1.3c.73.07,1.27-.59,1.87-1.3a10.59,10.59,0,0,1,1.18-.81c.89-.52,1.76-.59,1.87-1.77.09-.94-1-1.41-1.49-1.92a6.3,6.3,0,0,1-1.08-1.41c-.31-.66-.62-1.32-1.35-1.39a1.4,1.4,0,0,0-1.56,1S364.41,21.75,364.88,24Z"/><path class="cls-1" d="M523.92,30a4.45,4.45,0,0,0-2.86-.3c-1.65.35-2.79.75-2.34,2.47s2.56,2,3.52,1.72S525.93,31.26,523.92,30Z"/><path class="cls-1" d="M530.45,33.57a1.29,1.29,0,0,1-.1,1.74,3.86,3.86,0,0,1-2.73,1.51c-1.25,0-3.07.09-3.3-1.07a3.12,3.12,0,0,1,1.83-3.35C527.71,31.54,530.18,33,530.45,33.57Z"/><path class="cls-1" d="M530.81,38.28a1.47,1.47,0,0,1,.41,2.06s-.59,1.58-3.32,2.09a3.49,3.49,0,0,1-3-2.76C524.35,37.41,529.24,36.64,530.81,38.28Z"/><path class="cls-1" d="M520.6,46.09a5.06,5.06,0,0,0,4.84-1.62c.93-1.22-.12-1.91-1.3-2.8a2.5,2.5,0,0,0-2.64,0,5.45,5.45,0,0,0-2,3.08A1.13,1.13,0,0,0,520.6,46.09Z"/><path class="cls-1" d="M515.42,43.32a2.14,2.14,0,0,0,2.19,1.53c1.1-.13,1.68-1.26,2.35-2.49a13.91,13.91,0,0,1,1.48-1.56c1.14-1,2.39-1.41,2.19-3.19-.17-1.4-2-1.74-2.79-2.35a9.52,9.52,0,0,1-2-1.72c-.65-.88-1.32-1.76-2.42-1.63a2.11,2.11,0,0,0-2,2S514,40.17,515.42,43.32Z"/><path class="cls-1" d="M613.68,8.94a4,4,0,0,0-2.53-.36c-1.47.26-2.5.57-2.15,2.11s2.2,1.83,3.06,1.64S615.41,10.17,613.68,8.94Z"/><path class="cls-1" d="M619.34,12.36a1.15,1.15,0,0,1-.15,1.54,3.44,3.44,0,0,1-2.46,1.25c-1.12,0-2.73,0-2.9-1.06a2.77,2.77,0,0,1,1.74-2.9C617,10.48,619.12,11.83,619.34,12.36Z"/><path class="cls-1" d="M619.5,16.54a1.31,1.31,0,0,1,.29,1.84s-.57,1.39-3,1.75a3.09,3.09,0,0,1-2.58-2.55C613.8,15.57,618.16,15.05,619.5,16.54Z"/><path class="cls-1" d="M610.2,23.12a4.47,4.47,0,0,0,4.34-1.27c.86-1,0-1.69-1.06-2.52a2.21,2.21,0,0,0-2.34-.06,4.88,4.88,0,0,0-1.84,2.66A1,1,0,0,0,610.2,23.12Z"/><path class="cls-1" d="M605.7,20.5a1.91,1.91,0,0,0,1.9,1.43c1-.08,1.52-1.06,2.16-2.13a12.6,12.6,0,0,1,1.36-1.33c1-.88,2.16-1.17,2-2.75-.1-1.24-1.69-1.61-2.39-2.17A8.66,8.66,0,0,1,609,12c-.55-.8-1.11-1.6-2.09-1.52a1.88,1.88,0,0,0-1.8,1.72S604.58,17.66,605.7,20.5Z"/><path class="cls-1" d="M647.06,28.9a3.91,3.91,0,0,0-2.19-1.22c-1.43-.28-2.49-.36-2.71,1.18s1.38,2.45,2.23,2.58S648.22,30.63,647.06,28.9Z"/><path class="cls-1" d="M651.05,34a1.12,1.12,0,0,1-.68,1.36,3.34,3.34,0,0,1-2.69.27c-1-.39-2.5-1-2.28-2a2.7,2.7,0,0,1,2.61-2C649.55,31.47,651,33.47,651.05,34Z"/><path class="cls-1" d="M649.73,37.92a1.28,1.28,0,0,1-.38,1.78s-1,1.07-3.37.54A3,3,0,0,1,644.52,37C644.85,35,649,36.07,649.73,37.92Z"/><path class="cls-1" d="M638.89,40.67a4.38,4.38,0,0,0,4.42.36c1.16-.65.56-1.56-.08-2.68a2.16,2.16,0,0,0-2.12-.88,4.7,4.7,0,0,0-2.62,1.8A1,1,0,0,0,638.89,40.67Z"/><path class="cls-1" d="M635.69,36.69a1.88,1.88,0,0,0,1.23,2c.93.27,1.78-.44,2.73-1.2a12.72,12.72,0,0,1,1.72-.74c1.27-.44,2.39-.31,2.84-1.8.34-1.18-1-2.07-1.43-2.83a8.23,8.23,0,0,1-1-2.08c-.23-.92-.46-1.85-1.38-2.12a1.83,1.83,0,0,0-2.26.94S635.66,33.69,635.69,36.69Z"/><path class="cls-1" d="M591.24,38.3a3.46,3.46,0,0,0-2.17.34c-1.14.58-1.91,1.1-1.24,2.28s2.27.95,2.93.58S593,38.88,591.24,38.3Z"/><path class="cls-1" d="M596.75,39.69A1,1,0,0,1,597,41c-.46.77-.8,1.36-1.71,1.64s-2.25.66-2.64-.15a2.35,2.35,0,0,1,.69-2.81C594.34,38.74,596.43,39.32,596.75,39.69Z"/><path class="cls-1" d="M597.93,43.09a1.13,1.13,0,0,1,.7,1.44s-.13,1.28-2,2.18a2.66,2.66,0,0,1-2.76-1.44C593,43.71,596.45,42.19,597.93,43.09Z"/><path class="cls-1" d="M591.94,50.83a3.85,3.85,0,0,0,3.24-2.13c.45-1.08-.46-1.38-1.5-1.81a1.9,1.9,0,0,0-1.94.53,4.19,4.19,0,0,0-.84,2.65A.86.86,0,0,0,591.94,50.83Z"/><path class="cls-1" d="M587.59,49.8a1.62,1.62,0,0,0,1.91.7c.78-.31,1-1.25,1.24-2.29a11.51,11.51,0,0,1,.78-1.44c.64-1,1.49-1.5,1-2.77-.39-1-1.79-.89-2.5-1.18a7.4,7.4,0,0,1-1.84-.88c-.65-.51-1.31-1-2.09-.72A1.59,1.59,0,0,0,585,43.08S586,47.75,587.59,49.8Z"/><path class="cls-1" d="M492.89,54.78a4.27,4.27,0,0,0-2.68-.33c-1.55.31-2.63.65-2.24,2.28s2.37,1.89,3.27,1.67S494.74,56.05,492.89,54.78Z"/><path class="cls-1" d="M498.94,58.29a1.22,1.22,0,0,1-.13,1.63,3.61,3.61,0,0,1-2.58,1.37c-1.18,0-2.89,0-3.08-1.07a2.93,2.93,0,0,1,1.78-3.1C496.41,56.34,498.7,57.73,498.94,58.29Z"/><path class="cls-1" d="M499.19,62.71a1.36,1.36,0,0,1,.34,1.93s-.58,1.48-3.14,1.9a3.25,3.25,0,0,1-2.77-2.64C493.15,61.78,497.75,61.15,499.19,62.71Z"/><path class="cls-1" d="M489.49,69.84a4.74,4.74,0,0,0,4.56-1.43c.89-1.12-.08-1.78-1.17-2.64a2.32,2.32,0,0,0-2.47,0,5.05,5.05,0,0,0-1.89,2.85A1,1,0,0,0,489.49,69.84Z"/><path class="cls-1" d="M484.68,67.16a2,2,0,0,0,2,1.47c1-.1,1.6-1.15,2.24-2.29a14,14,0,0,1,1.41-1.44c1.09-1,2.27-1.27,2.11-2.94-.13-1.32-1.82-1.67-2.57-2.25A8.86,8.86,0,0,1,488,58.05c-.6-.83-1.2-1.66-2.23-1.56a2,2,0,0,0-1.88,1.85S483.44,64.18,484.68,67.16Z"/><path class="cls-1" d="M565.37,22.66a3.4,3.4,0,0,0-2.15.34c-1.13.57-1.89,1.08-1.23,2.25s2.26.95,2.91.58S567.09,23.23,565.37,22.66Z"/><path class="cls-1" d="M570.84,24a1,1,0,0,1,.26,1.29A2.88,2.88,0,0,1,569.4,27c-.9.29-2.23.66-2.62-.14a2.37,2.37,0,0,1,.69-2.8C568.45,23.09,570.53,23.66,570.84,24Z"/><path class="cls-1" d="M572,27.41a1.11,1.11,0,0,1,.7,1.42s-.13,1.28-2,2.17A2.62,2.62,0,0,1,568,29.57C567.12,28,570.55,26.52,572,27.41Z"/><path class="cls-1" d="M566.07,35.09A3.82,3.82,0,0,0,569.29,33c.44-1.07-.46-1.37-1.49-1.79a1.9,1.9,0,0,0-1.93.53,4.16,4.16,0,0,0-.83,2.63A.85.85,0,0,0,566.07,35.09Z"/><path class="cls-1" d="M561.75,34.07a1.62,1.62,0,0,0,1.9.69c.77-.3,1-1.24,1.23-2.27a10.93,10.93,0,0,1,.77-1.43c.64-1,1.48-1.49,1-2.75-.39-1-1.78-.88-2.49-1.17a7.22,7.22,0,0,1-1.82-.87c-.65-.51-1.3-1-2.08-.72a1.6,1.6,0,0,0-1,1.85S560.12,32,561.75,34.07Z"/><path class="cls-1" d="M682.83,16.49a3.94,3.94,0,0,0-2.09-1.43c-1.43-.42-2.48-.59-2.84.93s1.15,2.6,2,2.81S683.83,18.34,682.83,16.49Z"/><path class="cls-1" d="M686.37,22a1.15,1.15,0,0,1-.81,1.31,3.39,3.39,0,0,1-2.74,0c-1-.48-2.42-1.22-2.11-2.21a2.75,2.75,0,0,1,2.82-1.82C685.09,19.31,686.4,21.45,686.37,22Z"/><path class="cls-1" d="M684.68,25.82a1.3,1.3,0,0,1-.55,1.76s-1.12,1-3.45.23a3.06,3.06,0,0,1-1.17-3.4C680,22.44,684.14,23.89,684.68,25.82Z"/><path class="cls-1" d="M673.51,27.59a4.45,4.45,0,0,0,4.41.77c1.23-.55.71-1.52.17-2.71A2.2,2.2,0,0,0,676,24.57a4.79,4.79,0,0,0-2.8,1.56A1,1,0,0,0,673.51,27.59Z"/><path class="cls-1" d="M670.65,23.28a1.89,1.89,0,0,0,1.06,2.1c.9.36,1.83-.27,2.86-.95a13.06,13.06,0,0,1,1.8-.59c1.31-.32,2.44-.08,3-1.55.46-1.15-.8-2.17-1.17-3a8.49,8.49,0,0,1-.85-2.19c-.14-.95-.29-1.9-1.19-2.26a1.85,1.85,0,0,0-2.36.73S670.9,20.25,670.65,23.28Z"/><path class="cls-1" d="M546.11,50.72a3.57,3.57,0,0,0-2.25.38c-1.19.62-2,1.16-1.27,2.38s2.38,1,3.06.57S547.92,51.3,546.11,50.72Z"/><path class="cls-1" d="M551.88,52.11a1,1,0,0,1,.29,1.35c-.47.81-.82,1.43-1.77,1.74s-2.34.71-2.76-.13a2.46,2.46,0,0,1,.7-2.94C549.35,51.14,551.55,51.72,551.88,52.11Z"/><path class="cls-1" d="M553.15,55.64a1.16,1.16,0,0,1,.74,1.49s-.11,1.34-2.09,2.3A2.75,2.75,0,0,1,548.91,58C548,56.34,551.6,54.72,553.15,55.64Z"/><path class="cls-1" d="M547,63.77a4,4,0,0,0,3.36-2.25c.46-1.13-.49-1.44-1.58-1.87a2,2,0,0,0-2,.58,4.35,4.35,0,0,0-.85,2.77A.89.89,0,0,0,547,63.77Z"/><path class="cls-1" d="M542.43,62.75a1.7,1.7,0,0,0,2,.71c.82-.33,1-1.32,1.27-2.41a12.35,12.35,0,0,1,.8-1.5c.66-1,1.54-1.58,1-2.9-.42-1-1.88-.92-2.63-1.21a7.72,7.72,0,0,1-1.92-.89c-.69-.53-1.38-1.07-2.19-.74a1.67,1.67,0,0,0-1.08,2S540.7,60.63,542.43,62.75Z"/><path class="cls-1" d="M704.34,43a3.25,3.25,0,0,0-1.81-1c-1.18-.22-2-.27-2.22,1s1.14,2,1.85,2.11S705.3,44.37,704.34,43Z"/><path class="cls-1" d="M707.65,47.14a.92.92,0,0,1-.54,1.12,2.78,2.78,0,0,1-2.22.25c-.84-.31-2.06-.79-1.89-1.62a2.23,2.23,0,0,1,2.13-1.7C706.4,45.05,707.64,46.68,707.65,47.14Z"/><path class="cls-1" d="M706.6,50.35a1.06,1.06,0,0,1-.31,1.47,2.93,2.93,0,0,1-2.76.47,2.5,2.5,0,0,1-1.23-2.66C702.56,48,706,48.83,706.6,50.35Z"/><path class="cls-1" d="M697.7,52.69a3.62,3.62,0,0,0,3.64.27c.95-.55.45-1.29-.09-2.21A1.79,1.79,0,0,0,699.5,50a3.91,3.91,0,0,0-2.14,1.5A.8.8,0,0,0,697.7,52.69Z"/><path class="cls-1" d="M695,49.44a1.53,1.53,0,0,0,1,1.61c.76.22,1.45-.37,2.23-1a10.64,10.64,0,0,1,1.41-.62c1-.37,2-.27,2.32-1.5.28-1-.82-1.69-1.19-2.32a7.11,7.11,0,0,1-.87-1.7c-.19-.76-.38-1.52-1.14-1.74A1.51,1.51,0,0,0,697,43S695,47,695,49.44Z"/><path class="cls-1" d="M785.27,52.22a3,3,0,0,0-1.67.9c-.76.8-1.24,1.44-.35,2.21A1.92,1.92,0,0,0,785.8,55C786.23,54.46,786.84,52.19,785.27,52.22Z"/><path class="cls-1" d="M790.15,51.76a.84.84,0,0,1,.59,1,2.52,2.52,0,0,1-.91,1.83c-.67.5-1.64,1.19-2.2.65a2.06,2.06,0,0,1-.24-2.5A2.68,2.68,0,0,1,790.15,51.76Z"/><path class="cls-1" d="M792.09,54.18a1,1,0,0,1,1,1,2.67,2.67,0,0,1-1,2.36,2.29,2.29,0,0,1-2.66-.38C788.27,56.11,790.64,53.88,792.09,54.18Z"/><path class="cls-1" d="M789.45,62.21a3.32,3.32,0,0,0,2-2.67c0-1-.77-1-1.75-1a1.63,1.63,0,0,0-1.42,1,3.59,3.59,0,0,0,.08,2.4A.74.74,0,0,0,789.45,62.21Z"/><path class="cls-1" d="M785.62,62.63a1.41,1.41,0,0,0,1.75,0c.55-.48.45-1.31.35-2.23a10.34,10.34,0,0,1,.22-1.39c.24-1,.78-1.66,0-2.54-.61-.7-1.72-.22-2.38-.24a6.36,6.36,0,0,1-1.75-.19c-.67-.23-1.36-.46-1.91,0a1.39,1.39,0,0,0-.32,1.82S783.69,61.43,785.62,62.63Z"/><path class="cls-1" d="M821.78,41.94a2.91,2.91,0,0,0-1.67.9c-.76.8-1.24,1.44-.35,2.2a1.92,1.92,0,0,0,2.55-.37C822.74,44.18,823.35,41.9,821.78,41.94Z"/><path class="cls-1" d="M826.66,41.48a.84.84,0,0,1,.59,1,2.52,2.52,0,0,1-.91,1.83c-.67.5-1.64,1.19-2.2.65a2.06,2.06,0,0,1-.24-2.5A2.68,2.68,0,0,1,826.66,41.48Z"/><path class="cls-1" d="M828.61,43.9a1,1,0,0,1,1,1,2.67,2.67,0,0,1-1,2.36,2.29,2.29,0,0,1-2.66-.38C824.78,45.83,827.15,43.59,828.61,43.9Z"/><path class="cls-1" d="M826,51.92a3.31,3.31,0,0,0,2-2.67c0-1-.77-1-1.75-1a1.63,1.63,0,0,0-1.42,1,3.59,3.59,0,0,0,.08,2.4A.73.73,0,0,0,826,51.92Z"/><path class="cls-1" d="M822.13,52.35a1.4,1.4,0,0,0,1.75,0c.55-.47.45-1.3.35-2.22a10.35,10.35,0,0,1,.22-1.4c.24-1,.78-1.65,0-2.54-.61-.69-1.72-.21-2.38-.24a6.2,6.2,0,0,1-1.75-.18c-.67-.23-1.36-.46-1.91,0a1.39,1.39,0,0,0-.32,1.82S820.2,51.15,822.13,52.35Z"/><path class="cls-1" d="M19.2,48.11a1.41,1.41,0,0,0,1.9-.59,1.39,1.39,0,0,0-.38-1.75L24.8,38a1.41,1.41,0,0,0,1.06-2.59,1.43,1.43,0,0,0-.88-.14,1.46,1.46,0,0,0-.68-.81,1.41,1.41,0,0,0-1.51,2.36l-4.12,7.87a1.4,1.4,0,1,0-.12,2.7A1.38,1.38,0,0,0,19.2,48.11Z"/><path class="cls-1" d="M53.46,31.76a1.41,1.41,0,0,0-2.61,1L43,36.69a1.4,1.4,0,1,0-1.74,2.1,1.4,1.4,0,1,0,2.67,0l8-4a1.4,1.4,0,1,0,1.67-2.13A1.4,1.4,0,0,0,53.46,31.76Z"/><path class="cls-1" d="M76.66,20.12a1.08,1.08,0,0,0-.25-1.51,1.07,1.07,0,0,0-1.38.1l-5.52-3.93a1.08,1.08,0,0,0-1.86-1.09,1,1,0,0,0-.2.66,1.08,1.08,0,1,0,1,1.84l5.58,4a1.08,1.08,0,1,0,2.06.37A1.09,1.09,0,0,0,76.66,20.12Z"/><path class="cls-1" d="M102,33.9a1.33,1.33,0,0,0-2.53.79l-7.68,3.19a1.33,1.33,0,0,0-2.34,1.24,1.35,1.35,0,0,0,.56.64,1.33,1.33,0,1,0,2.53.19l7.77-3.23a1.33,1.33,0,0,0,2.35-1.22,1.27,1.27,0,0,0-.63-.68A1.33,1.33,0,0,0,102,33.9Z"/><path class="cls-1" d="M135.59,21.78A1.43,1.43,0,0,0,134,20.56a1.41,1.41,0,0,0-1.23,1.35l-8.86,1.22a1.43,1.43,0,0,0-2.78.65,1.46,1.46,0,0,0,.41.81,1.47,1.47,0,0,0-.27,1.05,1.43,1.43,0,0,0,2.85-.15l9-1.24a1.43,1.43,0,0,0,2.79-.62,1.46,1.46,0,0,0-.47-.88A1.47,1.47,0,0,0,135.59,21.78Z"/><path class="cls-1" d="M215.77,46.87a1.28,1.28,0,0,0-2.12,1.4l-6.22,5a1.28,1.28,0,1,0-1.14,2.21,1.25,1.25,0,0,0,.27.92A1.28,1.28,0,0,0,208.67,55l6.3-5a1.3,1.3,0,0,0,1.65,0,1.28,1.28,0,0,0-.57-2.25A1.26,1.26,0,0,0,215.77,46.87Z"/><path class="cls-1" d="M379.53,31a1.27,1.27,0,0,0-1.69-.64,1.25,1.25,0,0,0-.71,1.46l-7.28,3.28A1.28,1.28,0,1,0,368.19,37a1.28,1.28,0,1,0,2.44.11L378,33.78a1.28,1.28,0,0,0,2.22-1.24,1.27,1.27,0,0,0-.62-.63A1.23,1.23,0,0,0,379.53,31Z"/><path class="cls-1" d="M425.2,47.44a1.28,1.28,0,0,0-1.38-2.14L418.9,39a1.27,1.27,0,0,0-1.75-1.84,1.32,1.32,0,0,0-.44.68,1.28,1.28,0,1,0,.47,2.39l5,6.35a1.28,1.28,0,0,0,1.73,1.87,1.31,1.31,0,0,0,.47-.76A1.26,1.26,0,0,0,425.2,47.44Z"/><path class="cls-1" d="M473.39,56.49a1.27,1.27,0,0,0-2.4.83l-7.28,3.27a1.28,1.28,0,0,0-2.21,1.26,1.31,1.31,0,0,0,.55.59,1.23,1.23,0,0,0,0,1,1.28,1.28,0,0,0,2.4-.84l7.36-3.32A1.27,1.27,0,0,0,474.07,58a1.29,1.29,0,0,0-.62-.64A1.28,1.28,0,0,0,473.39,56.49Z"/><path class="cls-1" d="M526.15,60a1.28,1.28,0,0,0-1.93-1.66l-6.5-4.63a1.27,1.27,0,1,0-2.43-.5,1.28,1.28,0,1,0,1.13,2.16L523,60.09a1.29,1.29,0,0,0,.41,1.59,1.27,1.27,0,0,0,1.78-.3,1.21,1.21,0,0,0,.23-.85A1.29,1.29,0,0,0,526.15,60Z"/><path class="cls-1" d="M672.77,43.13a1.27,1.27,0,0,0-1.92-1.66l-6.5-4.63a1.28,1.28,0,0,0-2.2-1.28,1.25,1.25,0,0,0-.23.78,1.26,1.26,0,0,0-.82.52A1.27,1.27,0,0,0,663,38.5l6.58,4.69a1.27,1.27,0,0,0,.41,1.6,1.28,1.28,0,0,0,2-1.16A1.26,1.26,0,0,0,672.77,43.13Z"/><path class="cls-1" d="M776.15,57.48a1.28,1.28,0,0,0-1.93-1.66l-6.5-4.63a1.27,1.27,0,0,0-2.19-1.28,1.24,1.24,0,0,0-.24.78,1.23,1.23,0,0,0-.81.51,1.28,1.28,0,0,0,1.94,1.65L773,57.53a1.3,1.3,0,0,0,.41,1.6,1.28,1.28,0,0,0,1.78-.3,1.23,1.23,0,0,0,.23-.86A1.27,1.27,0,0,0,776.15,57.48Z"/><path class="cls-1" d="M846,44.12a1.28,1.28,0,0,0-1.93-1.66l-6.5-4.63a1.27,1.27,0,0,0-2.19-1.28,1.24,1.24,0,0,0-.24.78,1.23,1.23,0,0,0-.81.51,1.28,1.28,0,0,0,1.94,1.65l6.57,4.68a1.3,1.3,0,0,0,.41,1.6,1.28,1.28,0,0,0,1.78-.3,1.23,1.23,0,0,0,.23-.86A1.27,1.27,0,0,0,846,44.12Z"/><path class="cls-1" d="M573.22,45.71a1.27,1.27,0,0,0-1.8.07,1.29,1.29,0,0,0-.09,1.63l-5.42,5.85a1.29,1.29,0,0,0-1.62.21,1.28,1.28,0,0,0,.07,1.81,1.19,1.19,0,0,0,.74.33,1.28,1.28,0,1,0,2.29-.84l5.49-5.92a1.28,1.28,0,0,0,1.56-2,1.34,1.34,0,0,0-.82-.34A1.23,1.23,0,0,0,573.22,45.71Z"/><path class="cls-1" d="M622.44,39.23a1.27,1.27,0,0,0-1.65-.71A1.29,1.29,0,0,0,620,40l-7.41,2.94A1.28,1.28,0,0,0,610.32,44a1.29,1.29,0,0,0,.53.62,1.25,1.25,0,0,0,0,1,1.27,1.27,0,0,0,2.43-.74l7.51-3a1.28,1.28,0,0,0,2.28-1.13,1.22,1.22,0,0,0-.6-.66A1.24,1.24,0,0,0,622.44,39.23Z"/><path class="cls-1" d="M728.58,47.3a1.28,1.28,0,0,0-2.44.71l-7.42,3a1.27,1.27,0,0,0-2.26,1.15,1.23,1.23,0,0,0,.52.62,1.32,1.32,0,0,0,0,1,1.28,1.28,0,0,0,2.44-.74l7.5-3a1.29,1.29,0,0,0,1.57.52,1.28,1.28,0,0,0,.71-1.66,1.32,1.32,0,0,0-.59-.66A1.27,1.27,0,0,0,728.58,47.3Z"/><path class="cls-1" d="M810.86,51a1.28,1.28,0,0,0-2.44.71L801,54.61a1.28,1.28,0,0,0-2.27,1.16,1.34,1.34,0,0,0,.53.62,1.23,1.23,0,0,0,0,1,1.27,1.27,0,0,0,2.43-.74l7.51-3a1.28,1.28,0,0,0,2.28-1.13,1.29,1.29,0,0,0-.6-.66A1.22,1.22,0,0,0,810.86,51Z"/><path class="cls-1" d="M151.18,52.27a1.42,1.42,0,0,0-1.45-2.42l-5.25-7.13a1.42,1.42,0,0,0-1.87-2.11,1.37,1.37,0,0,0-.52.74,1.4,1.4,0,0,0-1,.26,1.41,1.41,0,0,0,1.48,2.4l5.31,7.23a1.41,1.41,0,0,0,1.85,2.12,1.36,1.36,0,0,0,.54-.82A1.38,1.38,0,0,0,151.18,52.27Z"/><path class="cls-1" d="M173.2,38.6A1.34,1.34,0,0,0,174.45,41L179,48A1.34,1.34,0,0,0,180.67,50a1.39,1.39,0,0,0,.53-.67,1.31,1.31,0,0,0,1-.19,1.34,1.34,0,0,0,.38-1.85,1.32,1.32,0,0,0-1.65-.49l-4.62-7.08a1.34,1.34,0,0,0-1.64-2.1,1.28,1.28,0,0,0-.55.75A1.35,1.35,0,0,0,173.2,38.6Z"/><path class="cls-1" d="M183.51,66.94a1.33,1.33,0,0,0,1.75.7,1.35,1.35,0,0,0,.78-1.52l7.67-3.31A1.33,1.33,0,0,0,196,61.54a1.3,1.3,0,0,0-.57-.63,1.31,1.31,0,0,0,0-1,1.33,1.33,0,0,0-2.52.84l-7.76,3.35a1.34,1.34,0,0,0-2.35,1.25,1.27,1.27,0,0,0,.64.67A1.3,1.3,0,0,0,183.51,66.94Z"/><path class="cls-1" d="M235.5,66a1.33,1.33,0,0,0-2.21-1.47l-7.36-4a1.32,1.32,0,0,0-.64-1.58,1.33,1.33,0,0,0-1.81.54,1.38,1.38,0,0,0-.14.84,1.36,1.36,0,0,0-.78.64,1.33,1.33,0,0,0,2.23,1.45l7.45,4a1.33,1.33,0,0,0,2.44,1.06,1.35,1.35,0,0,0,.13-.92A1.36,1.36,0,0,0,235.5,66Z"/><path class="cls-1" d="M256.1,47.67a1.33,1.33,0,0,0-2.58-.62l-8.27-1.18a1.34,1.34,0,0,0-2.66-.12,1.3,1.3,0,0,0,.16.83,1.33,1.33,0,1,0,2.08,1.47l8.37,1.19a1.34,1.34,0,0,0,2.66.15,1.3,1.3,0,0,0-.2-.91A1.3,1.3,0,0,0,256.1,47.67Z"/><path class="cls-1" d="M277.75,47.8a1.33,1.33,0,0,0-2.26,1.4l-6.67,5a1.33,1.33,0,0,0-2,1.79,1.35,1.35,0,0,0,.7.48,1.34,1.34,0,1,0,2.51-.45L276.82,51a1.34,1.34,0,0,0,2-1.78,1.38,1.38,0,0,0-.78-.5A1.34,1.34,0,0,0,277.75,47.8Z"/><path class="cls-1" d="M329.71,42.67a1.34,1.34,0,0,0-2.49-1l-8-2.26a1.33,1.33,0,0,0-2.61-.47,1.27,1.27,0,0,0,0,.84,1.36,1.36,0,0,0-.62.8,1.33,1.33,0,0,0,2.49.93l8.14,2.29a1.34,1.34,0,0,0,2.62.5,1.32,1.32,0,0,0-.08-.92A1.32,1.32,0,0,0,329.71,42.67Z"/><path class="cls-1" d="M296.3,29.73a1.34,1.34,0,0,0-2.53.83l-7.67,3.31a1.33,1.33,0,0,0-1.63-.48,1.34,1.34,0,0,0-.7,1.76,1.3,1.3,0,0,0,.57.63,1.36,1.36,0,0,0,0,1,1.33,1.33,0,0,0,2.52-.85l7.76-3.35A1.34,1.34,0,0,0,297,31.33a1.35,1.35,0,0,0-.64-.67A1.36,1.36,0,0,0,296.3,29.73Z"/><path class="cls-1" d="M339.52,18.89a1.34,1.34,0,0,0,2.2,1.5l7.3,4.06a1.34,1.34,0,0,0,.62,1.59,1.32,1.32,0,0,0,1.81-.52,1.3,1.3,0,0,0,.16-.83,1.35,1.35,0,0,0,.27-2.45,1.35,1.35,0,0,0-1.7.33l-7.38-4.11a1.34,1.34,0,1,0-2.57-.17A1.3,1.3,0,0,0,339.52,18.89Z"/><path class="cls-1" d="M395.5,19.64A1.34,1.34,0,0,0,397,20.8a1.35,1.35,0,0,0,1.17-1.25l8.28-1.06a1.32,1.32,0,0,0,1.44.91,1.33,1.33,0,0,0,.78-2.26,1.28,1.28,0,0,0,.26-1,1.34,1.34,0,0,0-2.66.11l-8.38,1.08a1.33,1.33,0,0,0-2.6.56,1.32,1.32,0,0,0,.43.82A1.27,1.27,0,0,0,395.5,19.64Z"/><path class="cls-1" d="M458.65,30.43a1.34,1.34,0,0,0-2.43,1.08l-7.29,4.07a1.34,1.34,0,1,0-1.57,2.07,1.34,1.34,0,1,0,2.55-.09l7.38-4.12a1.34,1.34,0,1,0,1.5-2.09A1.3,1.3,0,0,0,458.65,30.43Z"/><path class="cls-1" d="M507.18,42.53a1.34,1.34,0,0,0-2.5-.91l-8.08-2.11a1.33,1.33,0,0,0-2.62-.44,1.36,1.36,0,0,0,0,.85,1.38,1.38,0,0,0-.6.81,1.34,1.34,0,0,0,2.51.89l8.18,2.14a1.33,1.33,0,0,0,2.62.45,1.38,1.38,0,0,0-.09-.92A1.31,1.31,0,0,0,507.18,42.53Z"/><path class="cls-1" d="M594.46,23.5a1.33,1.33,0,0,0-1-1.63,1.32,1.32,0,0,0-1.54.72l-8.08-2.12a1.34,1.34,0,0,0-2.63-.43,1.37,1.37,0,0,0,.06.85,1.29,1.29,0,0,0-.6.81,1.33,1.33,0,0,0,2.51.88l8.17,2.14a1.34,1.34,0,0,0,2.63.46,1.32,1.32,0,0,0-.1-.92A1.36,1.36,0,0,0,594.46,23.5Z"/><path class="cls-1" d="M707.71,26.49a1.34,1.34,0,0,0-1.88-1.89l-6.4-5.35a1.34,1.34,0,0,0-2.19-1.51,1.27,1.27,0,0,0-.31.79A1.37,1.37,0,0,0,696,19a1.34,1.34,0,0,0,1.89,1.88l6.49,5.42a1.33,1.33,0,0,0,.29,1.7,1.34,1.34,0,0,0,1.88-.17,1.29,1.29,0,0,0,.31-.88A1.29,1.29,0,0,0,707.71,26.49Z"/><path class="cls-1" d="M823.56,33.66a1.34,1.34,0,0,0-1.88-1.89l-6.4-5.35a1.34,1.34,0,0,0-2.2-1.51,1.31,1.31,0,0,0-.3.79,1.42,1.42,0,0,0-.9.47,1.34,1.34,0,0,0,1.9,1.88l6.48,5.42A1.34,1.34,0,0,0,822.44,35a1.29,1.29,0,0,0,.31-.88A1.29,1.29,0,0,0,823.56,33.66Z"/><path class="cls-1" d="M552.35,29.23a1.34,1.34,0,0,0-1.84,1.93l-5.17,6.55a1.34,1.34,0,1,0-.65,2.52A1.34,1.34,0,1,0,547,39.16l5.24-6.63a1.34,1.34,0,0,0,1.47-2.22,1.36,1.36,0,0,0-.88-.28A1.37,1.37,0,0,0,552.35,29.23Z"/><path class="cls-1" d="M652.86,11.74a1.47,1.47,0,0,0-2.85.66l-8.69,2.91a1.47,1.47,0,1,0-2.11,1.92,1.47,1.47,0,0,0-.07,1.11,1.45,1.45,0,0,0,1.85.92,1.47,1.47,0,0,0,1-1.61l8.8-2.95a1.46,1.46,0,0,0,2.68-1.15,1.41,1.41,0,0,0-.64-.79A1.49,1.49,0,0,0,652.86,11.74Z"/><path class="cls-1" d="M769.63,32.17a1.47,1.47,0,0,0-1.86-.92,1.45,1.45,0,0,0-1,1.59l-8.7,2.91a1.47,1.47,0,0,0-2.67,1.18,1.44,1.44,0,0,0,.56.74,1.47,1.47,0,1,0,2.77.42l8.8-3A1.47,1.47,0,0,0,770.24,34a1.51,1.51,0,0,0-.64-.8A1.48,1.48,0,0,0,769.63,32.17Z"/></g><g id="Capa_9" data-name="Capa 9"><path d="M850.37,26.28a2,2,0,0,1,1.11.6c.51.53.82,1,.23,1.47A1.27,1.27,0,0,1,850,28.1C849.74,27.77,849.33,26.26,850.37,26.28Z"/><path d="M847.13,26a.56.56,0,0,0-.4.65,1.7,1.7,0,0,0,.61,1.22c.44.33,1.09.79,1.46.43a1.37,1.37,0,0,0,.16-1.66A1.75,1.75,0,0,0,847.13,26Z"/><path d="M845.83,27.58a.65.65,0,0,0-.65.65,1.77,1.77,0,0,0,.68,1.57,1.53,1.53,0,0,0,1.77-.25C848.38,28.87,846.8,27.38,845.83,27.58Z"/><path d="M847.59,32.92a2.19,2.19,0,0,1-1.34-1.77c0-.67.51-.66,1.15-.69a1.09,1.09,0,0,1,1,.66,2.38,2.38,0,0,1-.05,1.59A.49.49,0,0,1,847.59,32.92Z"/><path d="M850.14,33.2a.93.93,0,0,1-1.17,0c-.36-.31-.29-.87-.23-1.48a5.93,5.93,0,0,0-.15-.92c-.15-.66-.51-1.1,0-1.69s1.14-.14,1.58-.16a4.38,4.38,0,0,0,1.16-.12c.45-.16.91-.31,1.28,0a.93.93,0,0,1,.21,1.21A11.59,11.59,0,0,1,850.14,33.2Z"/></g></svg>