<svg id="Capa_1" data-name="Capa 1" xmlns="http://www.w3.org/2000/svg" viewBox="0 0 172.77 2069.78"><defs><style>.cls-1{opacity:0.6;}.cls-2{fill:#c17e4d;}</style></defs><g class="cls-1"><path class="cls-2" d="M97.82,1974.19a8.16,8.16,0,0,0,2.86,4.1c2.3,1.8,4.09,2.9,5.75.48s-.39-5.45-1.79-6.45S97.23,1970.16,97.82,1974.19Z"/><path class="cls-2" d="M95,1961.76a2,2,0,0,1,2.32-1.7c2,.24,3.5.41,5,2s3.59,4,2.37,5.5-3.44,2.25-6.29,1.09S94.6,1962.73,95,1961.76Z"/><path class="cls-2" d="M100.59,1956.33a2.35,2.35,0,0,1,2.15-2.7s2.68-.89,6.39,2.18a5.9,5.9,0,0,1-.1,6.89C106.79,1965.78,100.3,1960.12,100.59,1956.33Z"/><path class="cls-2" d="M122,1961.61c-3.12-4.88-7.49-4.69-7.49-4.69-2.59,0-2.28,2.16-2.08,4.66s3,3.46,3,3.46,3.73.89,6.11-.65A1.87,1.87,0,0,0,122,1961.61Z"/><path class="cls-2" d="M124.33,1971.36c.69-1.47.86-3.18-.54-4.5s-3.49-.9-5.8-.48a25.68,25.68,0,0,1-3.64-.31c-2.6-.42-4.48-1.69-6.5.45-1.58,1.69,0,4.44.17,6.15a16.52,16.52,0,0,1,.11,4.5c-.37,1.79-.74,3.59.66,4.9a3.64,3.64,0,0,0,4.76.48S121.9,1976.52,124.33,1971.36Z"/><path class="cls-2" d="M99.21,2039.11a8.56,8.56,0,0,0,2.31,4.69c2.1,2.22,3.77,3.65,5.88,1.4s.45-5.7-.84-7S99.22,2034.85,99.21,2039.11Z"/><path class="cls-2" d="M98.27,2025.81a2.15,2.15,0,0,1,2.67-1.39c2,.57,3.56,1,4.84,2.86s3.08,4.68,1.59,6.06-3.92,1.79-6.68.15S97.67,2026.75,98.27,2025.81Z"/><path class="cls-2" d="M104.86,2021.07a2.45,2.45,0,0,1,2.65-2.45s2.91-.51,6.27,3.25a6.17,6.17,0,0,1-1.18,7.11C109.8,2031.82,104,2025,104.86,2021.07Z"/><path class="cls-2" d="M126.16,2029.88c-2.46-5.54-7-6-7-6-2.69-.36-2.7,1.87-2.88,4.49s2.57,4.05,2.57,4.05,3.72,1.51,6.42.28A2,2,0,0,0,126.16,2029.88Z"/><path class="cls-2" d="M127.07,2040.34c.94-1.42,1.39-3.17.14-4.75s-3.46-1.47-5.92-1.4a27.11,27.11,0,0,1-3.72-.89c-2.62-.84-4.37-2.45-6.79-.55-1.9,1.5-.67,4.59-.79,6.39a16.83,16.83,0,0,1-.59,4.67c-.66,1.79-1.32,3.59-.08,5.17a3.79,3.79,0,0,0,4.85,1.24S123.75,2045.29,127.07,2040.34Z"/><path class="cls-2" d="M69.93,1746a9.07,9.07,0,0,0-3.29,4.49c-1.07,3.09-1.59,5.37,1.57,6.26s5.61-2.39,6.17-4.23S74,1743.88,69.93,1746Z"/><path class="cls-2" d="M82.05,1738.53a2.29,2.29,0,0,1,2.63,1.84c.46,2.18.83,3.84-.32,6s-2.91,5.22-5,4.49S75.79,1748,76,1744.6,80.86,1738.42,82.05,1738.53Z"/><path class="cls-2" d="M89.78,1742.43a2.61,2.61,0,0,1,3.63,1.29s1.91,2.5,0,7.53a6.56,6.56,0,0,1-7.3,2.38C82.05,1752.39,85.67,1743.49,89.78,1742.43Z"/><path class="cls-2" d="M92,1766.91c4-5.06,2.24-9.6,2.24-9.6-1-2.72-3.1-1.63-5.67-.51s-2.56,4.43-2.56,4.43.4,4.26,2.9,6.21A2.08,2.08,0,0,0,92,1766.91Z"/><path class="cls-2" d="M82.5,1772.92c1.81.2,3.68-.24,4.57-2.2s-.32-4-1.6-6.29a28.76,28.76,0,0,1-1-4c-.5-2.89.16-5.34-2.83-6.69-2.35-1.06-4.67,1.63-6.43,2.4a18.35,18.35,0,0,1-4.71,1.75c-2,.25-4.05.52-4.93,2.47a4,4,0,0,0,1.22,5.19S76.18,1772.23,82.5,1772.92Z"/><path class="cls-2" d="M19.55,1954.33a11,11,0,0,0,2.06,6.42c2.26,3.23,4.13,5.36,7.23,2.9s1.66-7.19.25-9S20.37,1948.9,19.55,1954.33Z"/><path class="cls-2" d="M20.87,1937.19a2.77,2.77,0,0,1,3.67-1.28c2.47,1.11,4.35,1.91,5.63,4.57s3,6.55.89,8-5.34,1.53-8.56-1.09S19.93,1938.27,20.87,1937.19Z"/><path class="cls-2" d="M30.18,1932.38a3.15,3.15,0,0,1,3.84-2.63s3.81-.1,7.38,5.34a7.94,7.94,0,0,1-2.85,8.84C34.44,1947,28.3,1937.16,30.18,1932.38Z"/><path class="cls-2" d="M55.69,1947.65c-2.1-7.53-7.81-9-7.81-9-3.36-1-3.8,1.88-4.52,5.18s2.51,5.66,2.51,5.66,4.46,2.63,8.14,1.58C56.66,1950.3,55.69,1947.65,55.69,1947.65Z"/><path class="cls-2" d="M54.86,1961.17c1.48-1.63,2.37-3.78,1.09-6s-4.15-2.53-7.3-2.91a35,35,0,0,1-4.57-1.84c-3.19-1.57-5.11-4-8.56-2-2.71,1.54-1.72,5.73-2.21,8a22.47,22.47,0,0,1-1.64,5.86c-1.19,2.15-2.37,4.33-1.09,6.58s3.18,3.12,6,2.5C36.53,1971.34,49.7,1966.86,54.86,1961.17Z"/><path class="cls-2" d="M111.48,1643.48a8,8,0,0,0-1.49,4.88c.06,3,.35,5.1,3.51,4.89s4.29-3.78,4.18-5.53S114.43,1640.44,111.48,1643.48Z"/><path class="cls-2" d="M120,1633.35a2.3,2.3,0,0,1,3,.77c1.15,1.74,2,3,1.7,5.25s-.89,5.38-3,5.38-4.22-1.31-5.19-4.32S118.86,1633.62,120,1633.35Z"/><path class="cls-2" d="M128.28,1634.32a2.6,2.6,0,0,1,3.71,0s2.57,1.56,2.52,6.47a6.16,6.16,0,0,1-5.82,4.3C124.59,1645.26,124.91,1636.5,128.28,1634.32Z"/><path class="cls-2" d="M138.4,1654.7c2-5.59-1.17-8.94-1.17-8.94-1.8-2-3.35-.45-5.3,1.3s-.85,4.6-.85,4.6,1.79,3.54,4.7,4.45A2,2,0,0,0,138.4,1654.7Z"/><path class="cls-2" d="M131.85,1662.78c1.7-.39,3.25-1.35,3.4-3.3s-1.62-3.34-3.55-4.92a26.23,26.23,0,0,1-2.21-3.1c-1.41-2.33-1.63-4.63-4.79-4.88-2.49-.19-3.69,2.85-5,4.05a17.43,17.43,0,0,1-3.69,2.95c-1.74.84-3.5,1.69-3.65,3.65s.72,3.29,2.84,4.09C115.18,1661.32,125.89,1664.13,131.85,1662.78Z"/><path class="cls-2" d="M88.62,1578.15a6.84,6.84,0,0,0-1.28,4.18c0,2.55.3,4.37,3,4.19s3.68-3.24,3.58-4.74S91.15,1575.56,88.62,1578.15Z"/><path class="cls-2" d="M95.88,1569.49a2,2,0,0,1,2.57.65c1,1.49,1.74,2.61,1.46,4.5s-.76,4.6-2.56,4.6-3.61-1.12-4.44-3.69S94.94,1569.72,95.88,1569.49Z"/><path class="cls-2" d="M103,1570.31a2.23,2.23,0,0,1,3.18,0s2.2,1.33,2.16,5.53a5.28,5.28,0,0,1-5,3.69C99.84,1579.68,100.11,1572.18,103,1570.31Z"/><path class="cls-2" d="M111.66,1587.76c1.67-4.79-1-7.66-1-7.66-1.54-1.74-2.87-.38-4.54,1.12s-.72,3.94-.72,3.94,1.53,3,4,3.8A1.7,1.7,0,0,0,111.66,1587.76Z"/><path class="cls-2" d="M106.05,1594.67c1.45-.33,2.78-1.15,2.91-2.82s-1.39-2.87-3-4.21A23.5,23.5,0,0,1,104,1585c-1.21-2-1.4-4-4.1-4.18-2.13-.16-3.16,2.43-4.3,3.46a14.65,14.65,0,0,1-3.16,2.53c-1.49.72-3,1.45-3.11,3.12a3.2,3.2,0,0,0,2.42,3.5S101,1595.82,106.05,1594.67Z"/><path class="cls-2" d="M141.47,1547a6.87,6.87,0,0,0-1.27,4.18c.05,2.55.3,4.37,3,4.19s3.68-3.24,3.58-4.74S144,1544.36,141.47,1547Z"/><path class="cls-2" d="M148.74,1538.29a2,2,0,0,1,2.57.66c1,1.48,1.74,2.6,1.45,4.49s-.76,4.6-2.55,4.61-3.61-1.13-4.44-3.7S147.79,1538.52,148.74,1538.29Z"/><path class="cls-2" d="M155.85,1539.12a2.23,2.23,0,0,1,3.18,0s2.19,1.34,2.16,5.54a5.27,5.27,0,0,1-5,3.68C152.7,1548.48,153,1541,155.85,1539.12Z"/><path class="cls-2" d="M164.51,1556.56c1.68-4.78-1-7.66-1-7.66-1.54-1.73-2.87-.37-4.54,1.12s-.72,3.94-.72,3.94,1.53,3,4,3.8A1.68,1.68,0,0,0,164.51,1556.56Z"/><path class="cls-2" d="M158.91,1563.47c1.45-.33,2.78-1.15,2.91-2.82s-1.39-2.86-3-4.21a22.11,22.11,0,0,1-1.89-2.65c-1.21-2-1.4-4-4.1-4.18-2.13-.16-3.16,2.43-4.3,3.46a14.61,14.61,0,0,1-3.16,2.53c-1.49.72-3,1.45-3.11,3.12a3.2,3.2,0,0,0,2.42,3.5S153.81,1564.63,158.91,1563.47Z"/><path class="cls-2" d="M63.68,1660.11a7.91,7.91,0,0,0-2.94,4.11c-.88,2.82-1.28,4.91,1.75,5.71s5.23-2.21,5.68-3.89S67.41,1658.18,63.68,1660.11Z"/><path class="cls-2" d="M74.85,1653.27a2.28,2.28,0,0,1,2.58,1.66c.53,2,.95,3.51-.06,5.47s-2.53,4.78-4.5,4.12-3.55-2.56-3.51-5.69S73.73,1653.17,74.85,1653.27Z"/><path class="cls-2" d="M82.36,1656.79a2.58,2.58,0,0,1,3.49,1.17s1.92,2.27.33,6.87a6.11,6.11,0,0,1-6.83,2.21C75.44,1665.92,78.5,1657.78,82.36,1656.79Z"/><path class="cls-2" d="M85.44,1679.14c3.6-4.63,1.72-8.77,1.72-8.77-1-2.48-3-1.48-5.39-.45s-2.25,4.06-2.25,4.06.57,3.89,3,5.66A2,2,0,0,0,85.44,1679.14Z"/><path class="cls-2" d="M76.74,1684.67c1.72.17,3.48-.24,4.23-2s-.47-3.65-1.78-5.74a26.6,26.6,0,0,1-1.1-3.61c-.6-2.64-.08-4.87-3-6.1-2.27-1-4.36,1.51-6,2.22a17.06,17.06,0,0,1-4.4,1.61c-1.9.24-3.82.49-4.57,2.28s-.37,3.32,1.37,4.74C61.53,1678,70.71,1684.06,76.74,1684.67Z"/><path class="cls-2" d="M25.4,1813a7.77,7.77,0,0,0-2.88,4c-.86,2.77-1.25,4.82,1.72,5.6s5.13-2.16,5.57-3.81S29.07,1811.14,25.4,1813Z"/><path class="cls-2" d="M36.37,1806.32a2.22,2.22,0,0,1,2.52,1.63c.52,2,.94,3.44,0,5.37s-2.49,4.68-4.42,4-3.48-2.52-3.45-5.59S35.26,1806.23,36.37,1806.32Z"/><path class="cls-2" d="M43.72,1809.78a2.54,2.54,0,0,1,3.43,1.14s1.88,2.23.32,6.74a6,6,0,0,1-6.69,2.17C36.94,1818.73,39.94,1810.74,43.72,1809.78Z"/><path class="cls-2" d="M46.75,1831.7c3.53-4.55,1.69-8.61,1.69-8.61-1-2.43-3-1.44-5.3-.43s-2.2,4-2.2,4,.56,3.82,3,5.55A1.92,1.92,0,0,0,46.75,1831.7Z"/><path class="cls-2" d="M38.21,1837.12c1.69.17,3.41-.24,4.16-2s-.47-3.59-1.75-5.63a25.84,25.84,0,0,1-1.08-3.54c-.58-2.59-.07-4.78-2.91-6-2.23-1-4.28,1.48-5.88,2.17a16.52,16.52,0,0,1-4.31,1.58c-1.87.24-3.75.48-4.49,2.24s-.36,3.26,1.35,4.64C23.3,1830.61,32.31,1836.52,38.21,1837.12Z"/><path class="cls-2" d="M84.13,1329.75a8.07,8.07,0,0,0,.94,5.09c1.44,2.64,2.69,4.42,5.43,2.76s2.1-5.41,1.18-6.93S85.37,1325.64,84.13,1329.75Z"/><path class="cls-2" d="M87,1316.68a2.33,2.33,0,0,1,3-.71c1.85,1,3.26,1.79,4,3.93s1.72,5.25-.17,6.24-4.41.78-6.68-1.47S86.17,1317.44,87,1316.68Z"/><path class="cls-2" d="M95,1313.68a2.65,2.65,0,0,1,3.34-1.74s3,.21,5.28,4.64a6.23,6.23,0,0,1-3.22,6.58C96.75,1325.24,93,1317.21,95,1313.68Z"/><path class="cls-2" d="M113.57,1327.29c-.84-5.94-5.22-7.5-5.22-7.5-2.57-1-3.22,1.16-4.16,3.65s1.38,4.53,1.38,4.53,3.26,2.35,6.3,1.81A2,2,0,0,0,113.57,1327.29Z"/><path class="cls-2" d="M111.45,1337.6c1.35-1.14,2.29-2.72,1.52-4.55s-3-2.25-5.49-2.77a26.39,26.39,0,0,1-3.43-1.75c-2.36-1.44-3.63-3.41-6.59-2.15-2.32,1-2,4.28-2.62,6a17.51,17.51,0,0,1-2,4.37c-1.17,1.57-2.35,3.16-1.57,5s2.18,2.63,4.46,2.36C95.78,1344.07,106.72,1341.6,111.45,1337.6Z"/><path class="cls-2" d="M105.47,245.33a8.61,8.61,0,0,0-3.08,4.55c-.88,3.09-1.26,5.37,2,6.15s5.63-2.53,6.07-4.37S109.48,243.14,105.47,245.33Z"/><path class="cls-2" d="M117.44,237.61a2.46,2.46,0,0,1,2.84,1.74c.63,2.15,1.13,3.78.09,5.94s-2.63,5.26-4.79,4.6-3.93-2.7-4-6.1S116.22,237.53,117.44,237.61Z"/><path class="cls-2" d="M125.69,241.24a2.8,2.8,0,0,1,3.82,1.18s2.15,2.42.54,7.46a6.65,6.65,0,0,1-7.36,2.58C118.41,251.34,121.53,242.41,125.69,241.24Z"/><path class="cls-2" d="M129.63,265.45c3.79-5.13,1.63-9.58,1.63-9.58-1.2-2.67-3.31-1.52-5.87-.34s-2.34,4.46-2.34,4.46.72,4.21,3.42,6.08A2.15,2.15,0,0,0,129.63,265.45Z"/><path class="cls-2" d="M120.31,271.68c1.87.14,3.77-.35,4.55-2.31s-.61-4-2.09-6.2a28.71,28.71,0,0,1-1.29-3.89c-.71-2.85-.21-5.29-3.38-6.55-2.5-1-4.71,1.75-6.46,2.57a18.62,18.62,0,0,1-4.74,1.87c-2.06.31-4.13.63-4.91,2.59s-.31,3.62,1.62,5.11C103.61,264.87,113.75,271.18,120.31,271.68Z"/><path class="cls-2" d="M51.65,133.8a7.8,7.8,0,0,0,1.58,4.74c1.74,2.34,3.17,3.87,5.57,1.91s1.28-5.45.2-6.78S52.29,129.7,51.65,133.8Z"/><path class="cls-2" d="M52.69,120.9a2.25,2.25,0,0,1,2.83-1.08c1.9.73,3.35,1.27,4.33,3.22s2.34,4.8.68,6-4.12,1.34-6.6-.51S52,121.75,52.69,120.9Z"/><path class="cls-2" d="M59.87,117a2.55,2.55,0,0,1,3-2.11s2.93-.21,5.68,3.73a6,6,0,0,1-2.21,6.73C63.13,127.79,58.42,120.61,59.87,117Z"/><path class="cls-2" d="M79.5,127.5c-1.6-5.57-6-6.48-6-6.48-2.59-.6-2.93,1.55-3.49,4s1.93,4.15,1.93,4.15,3.43,1.81,6.27.89A1.94,1.94,0,0,0,79.5,127.5Z"/><path class="cls-2" d="M78.85,137.66c1.14-1.28,1.83-2.92.84-4.56s-3.19-1.75-5.61-1.92A25.41,25.41,0,0,1,70.56,130c-2.46-1.06-3.94-2.77-6.6-1.17-2.09,1.25-1.33,4.36-1.71,6.07A17.19,17.19,0,0,1,61,139.31c-.92,1.65-1.83,3.33-.84,5s2.44,2.23,4.58,1.66C64.72,145.94,74.86,142.11,78.85,137.66Z"/><path class="cls-2" d="M28.79,48.22a6.64,6.64,0,0,0,1.35,4.05c1.48,2,2.71,3.32,4.76,1.64s1.1-4.66.18-5.8S29.33,44.71,28.79,48.22Z"/><path class="cls-2" d="M29.68,37.18a1.92,1.92,0,0,1,2.41-.93c1.63.64,2.87,1.1,3.71,2.76s2,4.11.58,5.13-3.52,1.15-5.64-.43S29.05,37.91,29.68,37.18Z"/><path class="cls-2" d="M35.82,33.81A2.19,2.19,0,0,1,38.35,32s2.51-.18,4.86,3.19A5.18,5.18,0,0,1,41.32,41C38.61,43.08,34.57,36.94,35.82,33.81Z"/><path class="cls-2" d="M52.62,42.83c-1.38-4.77-5.14-5.54-5.14-5.54-2.21-.52-2.5,1.32-3,3.46s1.65,3.55,1.65,3.55,2.94,1.55,5.37.76A1.66,1.66,0,0,0,52.62,42.83Z"/><path class="cls-2" d="M52.06,51.52c1-1.09,1.57-2.49.72-3.9S50.05,46.12,48,46a22.84,22.84,0,0,1-3-1c-2.1-.91-3.36-2.38-5.64-1-1.79,1.08-1.14,3.73-1.47,5.2a14.44,14.44,0,0,1-1.08,3.8c-.79,1.42-1.57,2.85-.72,4.26A3.13,3.13,0,0,0,40,58.61S48.65,55.33,52.06,51.52Z"/><path class="cls-2" d="M48.43,287.87a7.31,7.31,0,0,0-2.44,4c-.62,2.65-.85,4.6,2,5.13s4.67-2.37,5-3.94S51.73,285.86,48.43,287.87Z"/><path class="cls-2" d="M58.25,280.85a2.1,2.1,0,0,1,2.48,1.36c.62,1.8,1.11,3.16.31,5s-2,4.56-3.87,4.09-3.44-2.13-3.61-5S57.21,280.83,58.25,280.85Z"/><path class="cls-2" d="M65.39,283.6a2.38,2.38,0,0,1,3.29.84s1.91,2,.75,6.3a5.62,5.62,0,0,1-6.13,2.48C59.63,292.45,61.91,284.76,65.39,283.6Z"/><path class="cls-2" d="M69.7,304c3-4.5,1-8.19,1-8.19-1.13-2.2-2.87-1.15-5-.05s-1.8,3.88-1.8,3.88.78,3.54,3.14,5A1.82,1.82,0,0,0,69.7,304Z"/><path class="cls-2" d="M62.05,309.6c1.6,0,3.19-.45,3.76-2.14s-.67-3.33-2-5.16a24.24,24.24,0,0,1-1.25-3.25c-.72-2.39-.39-4.48-3.13-5.41-2.16-.74-3.92,1.67-5.37,2.43a15.68,15.68,0,0,1-3.94,1.77c-1.73.35-3.48.7-4.06,2.4s-.11,3.08,1.58,4.27C47.63,304.51,56.47,309.44,62.05,309.6Z"/><path class="cls-2" d="M93.31,1494.56a7.57,7.57,0,0,0-1.06,4.75c.28,2.83.71,4.84,3.7,4.41s3.81-3.92,3.57-5.58S95.91,1491.45,93.31,1494.56Z"/><path class="cls-2" d="M100.66,1484.29a2.19,2.19,0,0,1,2.91.52c1.22,1.57,2.17,2.75,2,4.87s-.46,5.19-2.45,5.35-4.12-1-5.26-3.74S99.63,1484.63,100.66,1484.29Z"/><path class="cls-2" d="M108.64,1484.61a2.5,2.5,0,0,1,3.54-.28s2.56,1.3,2.87,6a5.88,5.88,0,0,1-5.23,4.52C105.93,1495.3,105.6,1486.93,108.64,1484.61Z"/><path class="cls-2" d="M119.77,1503.28c1.46-5.46-1.77-8.43-1.77-8.43-1.86-1.8-3.22-.18-5,1.63s-.47,4.44-.47,4.44,2,3.24,4.79,3.9A1.9,1.9,0,0,0,119.77,1503.28Z"/><path class="cls-2" d="M114.12,1511.45c1.59-.49,3-1.51,3-3.39s-1.79-3.06-3.74-4.42a25.33,25.33,0,0,1-2.33-2.79c-1.52-2.12-1.9-4.3-4.92-4.3-2.38,0-3.31,3-4.49,4.22a16.53,16.53,0,0,1-3.3,3.08c-1.6.93-3.2,1.87-3.2,3.74s.92,3.08,3,3.68C98.14,1511.27,108.55,1513.17,114.12,1511.45Z"/><path class="cls-2" d="M75.06,1407.67a6.61,6.61,0,0,0,.73,4.16c1.16,2.18,2.17,3.64,4.42,2.31s1.76-4.4,1-5.65S76.11,1404.32,75.06,1407.67Z"/><path class="cls-2" d="M77.56,1397a1.89,1.89,0,0,1,2.5-.55c1.5.85,2.64,1.49,3.22,3.24s1.35,4.31-.19,5.1-3.61.6-5.45-1.26S76.84,1397.62,77.56,1397Z"/><path class="cls-2" d="M84.06,1394.62a2.16,2.16,0,0,1,2.74-1.39s2.48.19,4.28,3.84a5.09,5.09,0,0,1-2.69,5.35C85.43,1404.09,82.38,1397.49,84.06,1394.62Z"/><path class="cls-2" d="M99.16,1405.91c-.64-4.87-4.21-6.18-4.21-6.18-2.09-.83-2.64.93-3.43,3s1.09,3.72,1.09,3.72,2.65,1.94,5.13,1.53A1.64,1.64,0,0,0,99.16,1405.91Z"/><path class="cls-2" d="M97.33,1414.32c1.12-.92,1.9-2.2,1.28-3.7s-2.45-1.87-4.46-2.32a21.4,21.4,0,0,1-2.79-1.46c-1.92-1.19-2.94-2.82-5.36-1.81-1.91.78-1.67,3.48-2.2,4.86a14.49,14.49,0,0,1-1.63,3.56c-1,1.27-2,2.56-1.33,4.06a3.08,3.08,0,0,0,3.62,2S93.44,1417.55,97.33,1414.32Z"/><path class="cls-2" d="M56.57,1087a8,8,0,0,0-2.72,4.33c-.73,2.9-1,5,2.1,5.66s5.15-2.53,5.5-4.25S60.23,1084.85,56.57,1087Z"/><path class="cls-2" d="M67.46,1079.45a2.3,2.3,0,0,1,2.7,1.53c.65,2,1.17,3.48.26,5.53s-2.28,5-4.3,4.43-3.74-2.39-3.89-5.55S66.31,1079.42,67.46,1079.45Z"/><path class="cls-2" d="M75.24,1082.57a2.63,2.63,0,0,1,3.6,1s2.07,2.19.73,6.93a6.18,6.18,0,0,1-6.76,2.63C68.79,1092.19,71.41,1083.79,75.24,1082.57Z"/><path class="cls-2" d="M79.67,1105c3.37-4.89,1.22-9,1.22-9-1.2-2.44-3.13-1.31-5.47-.13s-2,4.23-2,4.23.8,3.89,3.37,5.54A2,2,0,0,0,79.67,1105Z"/><path class="cls-2" d="M71.2,1111.05c1.75.08,3.5-.44,4.16-2.29s-.69-3.66-2.13-5.7a26,26,0,0,1-1.33-3.58c-.75-2.63-.36-4.91-3.35-6-2.36-.84-4.32,1.78-5.93,2.59a17.28,17.28,0,0,1-4.35,1.89c-1.9.35-3.82.72-4.48,2.57s-.17,3.38,1.67,4.7C55.46,1105.25,65.08,1110.79,71.2,1111.05Z"/><path class="cls-2" d="M47.71,999.44a7.87,7.87,0,0,0-2.67,4.24c-.71,2.84-1,4.93,2.06,5.54s5-2.48,5.39-4.16S51.3,997.33,47.71,999.44Z"/><path class="cls-2" d="M58.37,992A2.25,2.25,0,0,1,61,993.53c.64,2,1.15,3.42.26,5.42s-2.23,4.87-4.21,4.33-3.66-2.33-3.81-5.43S57.25,992,58.37,992Z"/><path class="cls-2" d="M66,995.09a2.58,2.58,0,0,1,3.53,1s2,2.13.72,6.78a6.06,6.06,0,0,1-6.63,2.57C59.68,1004.52,62.24,996.29,66,995.09Z"/><path class="cls-2" d="M70.33,1017c3.3-4.79,1.2-8.78,1.2-8.78-1.18-2.39-3.07-1.28-5.37-.13s-2,4.14-2,4.14.78,3.82,3.3,5.43A2,2,0,0,0,70.33,1017Z"/><path class="cls-2" d="M62,1023c1.71.08,3.43-.43,4.07-2.24s-.67-3.59-2.09-5.58a26,26,0,0,1-1.3-3.51c-.74-2.57-.35-4.81-3.28-5.86-2.31-.82-4.23,1.75-5.8,2.54a16.87,16.87,0,0,1-4.26,1.85c-1.87.34-3.75.7-4.39,2.51s-.17,3.31,1.63,4.61C46.62,1017.3,56.05,1022.73,62,1023Z"/><path class="cls-2" d="M103.61,978.72a8,8,0,0,0-2.7,4.29c-.72,2.86-1,5,2.08,5.6s5.1-2.51,5.45-4.22S107.23,976.58,103.61,978.72Z"/><path class="cls-2" d="M114.38,971.24a2.28,2.28,0,0,1,2.67,1.51c.64,2,1.16,3.45.26,5.47s-2.25,4.92-4.26,4.38-3.7-2.36-3.84-5.49S113.25,971.21,114.38,971.24Z"/><path class="cls-2" d="M122.08,974.33a2.59,2.59,0,0,1,3.56,1s2,2.16.73,6.85a6.12,6.12,0,0,1-6.7,2.6C115.7,983.85,118.29,975.53,122.08,974.33Z"/><path class="cls-2" d="M126.46,996.48c3.33-4.84,1.21-8.87,1.21-8.87-1.19-2.41-3.09-1.29-5.42-.13s-2,4.19-2,4.19.8,3.85,3.34,5.48A2,2,0,0,0,126.46,996.48Z"/><path class="cls-2" d="M118.08,1002.51c1.74.07,3.47-.44,4.12-2.27s-.68-3.63-2.11-5.64a26.81,26.81,0,0,1-1.32-3.54c-.74-2.6-.35-4.87-3.32-5.92-2.32-.83-4.27,1.76-5.86,2.57a16.93,16.93,0,0,1-4.3,1.86c-1.89.35-3.79.71-4.44,2.54s-.17,3.35,1.65,4.66C102.5,996.77,112,1002.25,118.08,1002.51Z"/><path class="cls-2" d="M69.52,902.32a10.7,10.7,0,0,0-3.63,5.76c-1,3.84-1.33,6.68,2.8,7.51s6.85-3.36,7.31-5.65S74.38,899.45,69.52,902.32Z"/><path class="cls-2" d="M84,892.27a3.06,3.06,0,0,1,3.58,2c.87,2.63,1.56,4.62.36,7.34s-3,6.61-5.72,5.88-5-3.16-5.16-7.37S82.46,892.23,84,892.27Z"/><path class="cls-2" d="M94.32,896.42a3.48,3.48,0,0,1,4.78,1.29s2.75,2.9,1,9.2a8.21,8.21,0,0,1-9,3.5C85.75,909.21,89.23,898,94.32,896.42Z"/><path class="cls-2" d="M100.21,926.17c4.47-6.5,1.62-11.91,1.62-11.91-1.6-3.24-4.16-1.74-7.28-.17s-2.7,5.61-2.7,5.61,1.07,5.18,4.49,7.36A2.64,2.64,0,0,0,100.21,926.17Z"/><path class="cls-2" d="M89,934.26c2.32.1,4.65-.59,5.52-3s-.92-4.87-2.84-7.56a35.48,35.48,0,0,1-1.76-4.76c-1-3.5-.48-6.53-4.46-7.95-3.12-1.11-5.73,2.36-7.87,3.44a22.93,22.93,0,0,1-5.77,2.51c-2.53.47-5.09,1-6,3.41s-.23,4.49,2.21,6.25C68,926.55,80.83,933.92,89,934.26Z"/><path class="cls-2" d="M125.13,1449.67a6.47,6.47,0,0,0,.31,4.12c.92,2.23,1.76,3.76,4.08,2.67s2.14-4.12,1.54-5.41S126.48,1446.51,125.13,1449.67Z"/><path class="cls-2" d="M128.58,1439.53a1.86,1.86,0,0,1,2.49-.3c1.37,1,2.43,1.7,2.82,3.47s.91,4.32-.67,4.94-3.57.25-5.19-1.74S127.82,1440.06,128.58,1439.53Z"/><path class="cls-2" d="M135.14,1437.83a2.11,2.11,0,0,1,2.8-1.1s2.4.43,3.8,4.15a5,5,0,0,1-3.13,5C135.56,1447.17,133.23,1440.46,135.14,1437.83Z"/><path class="cls-2" d="M148.76,1450.25c-.16-4.79-3.51-6.41-3.51-6.41-1.95-1-2.66.65-3.62,2.54s.71,3.73.71,3.73,2.39,2.14,4.85,2A1.61,1.61,0,0,0,148.76,1450.25Z"/><path class="cls-2" d="M146.18,1458.27c1.17-.79,2.06-2,1.6-3.48s-2.21-2-4.12-2.68a21.53,21.53,0,0,1-2.58-1.69c-1.75-1.35-2.59-3-5.05-2.28-1.93.59-2,3.23-2.61,4.53a14,14,0,0,1-1.92,3.31c-1.07,1.14-2.14,2.3-1.68,3.82a3,3,0,0,0,3.34,2.26S142.08,1461,146.18,1458.27Z"/><path class="cls-2" d="M50.42,1887.46a10,10,0,0,0-.59,6.35c.83,3.63,1.72,6.16,5.53,5.1s4.3-5.71,3.72-7.83S53.28,1883,50.42,1887.46Z"/><path class="cls-2" d="M58.27,1872.92a2.87,2.87,0,0,1,3.86.18c1.84,1.84,3.26,3.22,3.41,6s.27,6.81-2.29,7.34-5.5-.54-7.45-4S57,1873.53,58.27,1872.92Z"/><path class="cls-2" d="M68.68,1872a3.27,3.27,0,0,1,4.55-1s3.53,1.26,4.71,7.28a7.71,7.71,0,0,1-6,6.74C66.93,1886.34,65.11,1875.52,68.68,1872Z"/><path class="cls-2" d="M86.22,1894.4c1-7.33-3.7-10.65-3.7-10.65-2.71-2-4.21.3-6.16,2.94s.13,5.84.13,5.84,3.08,3.88,6.87,4.26A2.48,2.48,0,0,0,86.22,1894.4Z"/><path class="cls-2" d="M80.23,1905.94c2-.9,3.64-2.46,3.33-4.89s-2.83-3.68-5.58-5.13a32.28,32.28,0,0,1-3.49-3.23c-2.32-2.5-3.17-5.27-7.1-4.76-3.09.39-3.8,4.4-5.13,6.21a21.47,21.47,0,0,1-3.77,4.55c-1.92,1.46-3.85,3-3.54,5.38s1.71,3.85,4.51,4.29C59.46,1908.36,73.28,1909.1,80.23,1905.94Z"/><path class="cls-2" d="M42.76,1282.81a7.3,7.3,0,0,0,.49,4.6c1.11,2.46,2.1,4.14,4.66,2.84s2.24-4.68,1.53-6.1S44.16,1279.23,42.76,1282.81Z"/><path class="cls-2" d="M46.27,1271.35a2.07,2.07,0,0,1,2.77-.42c1.57,1,2.78,1.82,3.28,3.78s1.17,4.8-.58,5.55-4,.4-5.86-1.77S45.44,1272,46.27,1271.35Z"/><path class="cls-2" d="M53.54,1269.21a2.38,2.38,0,0,1,3.1-1.32s2.7.4,4.4,4.51a5.59,5.59,0,0,1-3.34,5.65C54.34,1279.66,51.5,1272.23,53.54,1269.21Z"/><path class="cls-2" d="M69.21,1282.64c-.35-5.35-4.15-7.05-4.15-7.05-2.22-1.06-3,.82-4,3s.92,4.14.92,4.14,2.75,2.32,5.5,2A1.8,1.8,0,0,0,69.21,1282.64Z"/><path class="cls-2" d="M66.6,1291.7c1.29-.92,2.24-2.27,1.67-4s-2.54-2.22-4.7-2.85a23.93,23.93,0,0,1-2.94-1.8c-2-1.45-3-3.3-5.73-2.38-2.14.72-2.08,3.68-2.76,5.16a15.59,15.59,0,0,1-2,3.77c-1.16,1.31-2.32,2.65-1.75,4.33s1.76,2.5,3.81,2.41C52.17,1296.39,62.11,1294.94,66.6,1291.7Z"/><path class="cls-2" d="M59.6,1215.33a8,8,0,0,0,.54,5.09c1.22,2.72,2.32,4.57,5.15,3.14s2.49-5.18,1.69-6.75S61.14,1211.37,59.6,1215.33Z"/><path class="cls-2" d="M63.48,1202.65a2.3,2.3,0,0,1,3.06-.47c1.74,1.16,3.08,2,3.63,4.18s1.29,5.32-.64,6.15-4.41.44-6.49-2S62.56,1203.33,63.48,1202.65Z"/><path class="cls-2" d="M71.53,1200.29a2.6,2.6,0,0,1,3.42-1.46s3,.43,4.86,5a6.18,6.18,0,0,1-3.68,6.26C72.41,1211.84,69.27,1203.62,71.53,1200.29Z"/><path class="cls-2" d="M88.86,1215.14c-.38-5.92-4.59-7.8-4.59-7.8-2.45-1.17-3.27.91-4.38,3.29s1,4.58,1,4.58,3,2.56,6.08,2.26A2,2,0,0,0,88.86,1215.14Z"/><path class="cls-2" d="M86,1225.17c1.42-1,2.48-2.52,1.85-4.38s-2.81-2.45-5.2-3.15a27.8,27.8,0,0,1-3.26-2C77.14,1214,76,1212,73,1213c-2.36.8-2.29,4.07-3,5.7a17.09,17.09,0,0,1-2.25,4.17c-1.28,1.46-2.56,2.93-1.93,4.8s1.95,2.76,4.22,2.66C70,1230.35,81,1228.75,86,1225.17Z"/><path class="cls-2" d="M27.14,1154.18a7.24,7.24,0,0,0-1.42,4.4c0,2.69.24,4.63,3.1,4.48s3.94-3.36,3.87-4.94S29.87,1151.48,27.14,1154.18Z"/><path class="cls-2" d="M35,1145.15a2.08,2.08,0,0,1,2.7.74c1,1.59,1.8,2.79,1.46,4.78s-.89,4.86-2.78,4.83-3.81-1.26-4.63-4S34,1145.38,35,1145.15Z"/><path class="cls-2" d="M42.49,1146.15a2.37,2.37,0,0,1,3.37.06s2.3,1.45,2.18,5.89a5.59,5.59,0,0,1-5.34,3.81C39,1156,39.41,1148.07,42.49,1146.15Z"/><path class="cls-2" d="M51.34,1164.77c1.86-5-.92-8.12-.92-8.12-1.6-1.87-3-.45-4.82,1.1s-.84,4.15-.84,4.15,1.56,3.23,4.18,4.1A1.79,1.79,0,0,0,51.34,1164.77Z"/><path class="cls-2" d="M45.28,1172c1.55-.32,3-1.16,3.13-2.93s-1.42-3-3.13-4.51a23.26,23.26,0,0,1-2-2.83c-1.24-2.14-1.4-4.23-4.26-4.5-2.25-.21-3.39,2.52-4.61,3.59a15.66,15.66,0,0,1-3.38,2.61c-1.59.73-3.19,1.48-3.36,3.24s.6,3,2.5,3.75C30.21,1170.39,39.87,1173.1,45.28,1172Z"/><path class="cls-2" d="M59.59,789.35a10.81,10.81,0,0,0-.72,6.9c.85,4,1.79,6.72,5.94,5.61s4.75-6.16,4.14-8.46S62.74,784.54,59.59,789.35Z"/><path class="cls-2" d="M68.29,773.65a3.12,3.12,0,0,1,4.2.24c2,2,3.5,3.53,3.63,6.56s.21,7.41-2.58,8-6-.66-8-4.42S66.88,774.29,68.29,773.65Z"/><path class="cls-2" d="M79.62,772.78a3.55,3.55,0,0,1,5-1s3.82,1.41,5,8A8.37,8.37,0,0,1,83,787C77.54,788.34,75.69,776.56,79.62,772.78Z"/><path class="cls-2" d="M98.41,797.34c1.16-8-3.89-11.62-3.89-11.62-2.92-2.25-4.58.28-6.73,3.12s.06,6.35.06,6.35,3.31,4.25,7.42,4.71A2.7,2.7,0,0,0,98.41,797.34Z"/><path class="cls-2" d="M91.76,809.81c2.17-.95,4-2.63,3.68-5.28s-3-4-6-5.64a36.49,36.49,0,0,1-3.76-3.55c-2.49-2.75-3.38-5.77-7.66-5.27-3.36.39-4.18,4.75-5.64,6.7a23.37,23.37,0,0,1-4.16,4.89c-2.1,1.57-4.22,3.16-3.91,5.81s1.81,4.21,4.84,4.72C69.15,812.19,84.17,813.16,91.76,809.81Z"/><path class="cls-2" d="M9.05,573.43a9.63,9.63,0,0,0-.87,6.08c.63,3.53,1.37,6,5.08,5.17s4.41-5.3,4-7.36S12,569.27,9.05,573.43Z"/><path class="cls-2" d="M17.28,559.81a2.76,2.76,0,0,1,3.7.35c1.69,1.86,3,3.25,3,5.93s-.05,6.57-2.55,7-5.26-.78-7-4.17S16,560.33,17.28,559.81Z"/><path class="cls-2" d="M27.34,559.41a3.14,3.14,0,0,1,4.42-.69S35.1,560.1,36,566a7.4,7.4,0,0,1-6.12,6.19C25,573.12,23.73,562.63,27.34,559.41Z"/><path class="cls-2" d="M43.17,581.79c1.28-7-3.06-10.43-3.06-10.43-2.52-2.08-4.07.1-6.07,2.54s-.15,5.63-.15,5.63,2.79,3.88,6.41,4.42A2.39,2.39,0,0,0,43.17,581.79Z"/><path class="cls-2" d="M36.87,592.61c2-.77,3.61-2.2,3.43-4.55s-2.55-3.68-5.13-5.2A32.33,32.33,0,0,1,32,579.59c-2.11-2.51-2.8-5.22-6.61-4.92-3,.24-3.86,4.07-5.22,5.75a20.47,20.47,0,0,1-3.84,4.19c-1.92,1.32-3.84,2.67-3.66,5s1.47,3.79,4.13,4.34C16.76,594,30,595.32,36.87,592.61Z"/><path class="cls-2" d="M57.06,493.1a9.48,9.48,0,0,0-2.93,5.28c-.67,3.45-.86,6,2.84,6.52s5.9-3.31,6.2-5.36S61.24,490.33,57.06,493.1Z"/><path class="cls-2" d="M69.39,483.51a2.73,2.73,0,0,1,3.28,1.63c.89,2.3,1.6,4,.66,6.49s-2.36,6-4.78,5.49-4.56-2.57-4.93-6.28S68.05,483.55,69.39,483.51Z"/><path class="cls-2" d="M78.75,486.69a3.09,3.09,0,0,1,4.3.92s2.57,2.44,1.3,8.1a7.28,7.28,0,0,1-7.79,3.53C71.78,498.43,74.32,488.37,78.75,486.69Z"/><path class="cls-2" d="M85.39,512.76c3.65-6,.87-10.63.87-10.63-1.58-2.79-3.77-1.34-6.46.2s-2.12,5.1-2.12,5.1S78.87,512,82,513.74A2.34,2.34,0,0,0,85.39,512.76Z"/><path class="cls-2" d="M75.81,520.47c2.06,0,4.09-.75,4.75-3s-1-4.27-2.88-6.56a31.9,31.9,0,0,1-1.78-4.13c-1.06-3.05-.74-5.77-4.33-6.83-2.83-.84-5,2.37-6.81,3.43a20.56,20.56,0,0,1-5,2.49c-2.22.54-4.46,1.09-5.12,3.31s0,4,2.26,5.43C56.91,514.64,68.6,520.55,75.81,520.47Z"/><path class="cls-2" d="M79.69,627.42a8.27,8.27,0,0,0,.82,5.21c1.39,2.74,2.63,4.59,5.47,3s2.29-5.46,1.39-7S81.07,623.26,79.69,627.42Z"/><path class="cls-2" d="M83,614.16a2.38,2.38,0,0,1,3.14-.64c1.85,1.1,3.27,1.92,4,4.12s1.6,5.41-.35,6.36-4.52.68-6.78-1.68S82.12,614.91,83,614.16Z"/><path class="cls-2" d="M91.2,611.31a2.7,2.7,0,0,1,3.46-1.68s3.09.3,5.26,4.89a6.39,6.39,0,0,1-3.48,6.63C92.7,623.17,89.05,614.86,91.2,611.31Z"/><path class="cls-2" d="M109.81,625.72c-.7-6.08-5.12-7.79-5.12-7.79-2.59-1.08-3.32,1.1-4.35,3.6s1.29,4.67,1.29,4.67,3.26,2.48,6.37,2A2.06,2.06,0,0,0,109.81,625.72Z"/><path class="cls-2" d="M107.35,636.2c1.41-1.13,2.42-2.72,1.68-4.61s-3-2.38-5.52-3a26.52,26.52,0,0,1-3.45-1.88c-2.37-1.54-3.61-3.58-6.66-2.38-2.4.94-2.16,4.31-2.85,6a17.58,17.58,0,0,1-2.11,4.41c-1.24,1.56-2.49,3.15-1.74,5s2.15,2.75,4.48,2.53C91.18,642.35,102.42,640.14,107.35,636.2Z"/><path class="cls-2" d="M119.33,864a10.16,10.16,0,0,0-.79,6.44c.73,3.72,1.56,6.33,5.47,5.37s4.55-5.69,4-7.86S122.37,859.57,119.33,864Z"/><path class="cls-2" d="M127.76,849.46a2.93,2.93,0,0,1,3.93.31c1.82,1.93,3.22,3.37,3.29,6.21s.06,6.94-2.56,7.41-5.58-.73-7.46-4.28S126.43,850.05,127.76,849.46Z"/><path class="cls-2" d="M138.39,848.85a3.33,3.33,0,0,1,4.66-.82s3.56,1.39,4.58,7.56a7.84,7.84,0,0,1-6.35,6.67C136.17,863.39,134.65,852.32,138.39,848.85Z"/><path class="cls-2" d="M155.56,872.19c1.23-7.43-3.43-11-3.43-11-2.7-2.15-4.3.18-6.36,2.81s-.06,6-.06,6,3,4,6.87,4.55A2.53,2.53,0,0,0,155.56,872.19Z"/><path class="cls-2" d="M149.11,883.76c2-.86,3.79-2.4,3.54-4.88s-2.76-3.84-5.52-5.39a34.4,34.4,0,0,1-3.46-3.4c-2.28-2.62-3.06-5.46-7.08-5.07-3.15.31-4,4.37-5.41,6.18a21.9,21.9,0,0,1-4,4.51c-2,1.43-4,2.89-3.77,5.37s1.62,4,4.45,4.5C127.89,885.58,141.94,886.76,149.11,883.76Z"/><path class="cls-2" d="M42.06,689.64a8.21,8.21,0,0,0,.8,5.17c1.39,2.73,2.61,4.56,5.43,3s2.28-5.42,1.39-7S43.43,685.51,42.06,689.64Z"/><path class="cls-2" d="M45.37,676.49a2.36,2.36,0,0,1,3.11-.64c1.84,1.1,3.25,1.9,3.93,4.09s1.58,5.37-.35,6.31-4.49.68-6.73-1.67S44.47,677.23,45.37,676.49Z"/><path class="cls-2" d="M53.48,673.66A2.68,2.68,0,0,1,56.91,672s3.06.3,5.22,4.85a6.33,6.33,0,0,1-3.45,6.58C55,685.42,51.34,677.18,53.48,673.66Z"/><path class="cls-2" d="M72,688c-.69-6-5.09-7.74-5.09-7.74-2.57-1.07-3.29,1.1-4.31,3.58s1.28,4.63,1.28,4.63,3.23,2.47,6.32,2A2,2,0,0,0,72,688Z"/><path class="cls-2" d="M69.51,698.35c1.4-1.11,2.4-2.69,1.66-4.56s-3-2.36-5.47-3A27,27,0,0,1,62.27,689c-2.35-1.52-3.59-3.55-6.61-2.36-2.38.93-2.14,4.27-2.83,6A17.44,17.44,0,0,1,50.74,697c-1.23,1.55-2.47,3.12-1.73,5s2.14,2.73,4.45,2.51C53.46,704.46,64.61,702.27,69.51,698.35Z"/><path class="cls-2" d="M27.2,407.06a9.6,9.6,0,0,0-3.44,5c-1,3.42-1.42,5.95,2.25,6.83s6.25-2.78,6.75-4.82S31.66,404.66,27.2,407.06Z"/><path class="cls-2" d="M40.51,398.55a2.75,2.75,0,0,1,3.15,1.94c.68,2.4,1.23,4.21.06,6.6s-2.93,5.82-5.32,5.08-4.35-3-4.38-6.78S39.15,398.46,40.51,398.55Z"/><path class="cls-2" d="M49.64,402.62a3.12,3.12,0,0,1,4.24,1.32s2.37,2.7.57,8.28a7.37,7.37,0,0,1-8.18,2.83C41.53,413.79,45,403.9,49.64,402.62Z"/><path class="cls-2" d="M53.9,429.49c4.23-5.68,1.86-10.62,1.86-10.62-1.32-3-3.66-1.7-6.51-.41s-2.61,5-2.61,5,.78,4.67,3.77,6.75A2.36,2.36,0,0,0,53.9,429.49Z"/><path class="cls-2" d="M43.54,436.36c2.08.17,4.19-.37,5.06-2.55s-.66-4.39-2.29-6.87a31.41,31.41,0,0,1-1.41-4.33c-.78-3.16-.21-5.87-3.73-7.28-2.76-1.1-5.22,1.92-7.17,2.82a20.49,20.49,0,0,1-5.26,2.05c-2.29.33-4.59.68-5.46,2.86s-.36,4,1.77,5.67C25.05,428.73,36.27,435.77,43.54,436.36Z"/><path class="cls-2" d="M109.56,736a8.58,8.58,0,0,0,.9,5.43c1.49,2.85,2.8,4.76,5.74,3s2.33-5.72,1.38-7.35S111,731.62,109.56,736Z"/><path class="cls-2" d="M112.9,722.11a2.47,2.47,0,0,1,3.26-.7c1.94,1.13,3.43,2,4.17,4.25s1.73,5.63-.3,6.64-4.71.76-7.08-1.68S112,722.9,112.9,722.11Z"/><path class="cls-2" d="M121.39,719.05a2.81,2.81,0,0,1,3.58-1.79s3.23.27,5.55,5a6.64,6.64,0,0,1-3.56,7C123.09,731.4,119.18,722.77,121.39,719.05Z"/><path class="cls-2" d="M141,733.88c-.8-6.34-5.43-8.08-5.43-8.08-2.71-1.1-3.45,1.18-4.49,3.81s1.39,4.85,1.39,4.85,3.43,2.56,6.67,2A2.14,2.14,0,0,0,141,733.88Z"/><path class="cls-2" d="M138.51,744.83c1.46-1.19,2.49-2.86,1.7-4.82s-3.17-2.45-5.79-3A28.36,28.36,0,0,1,130.8,735c-2.49-1.57-3.81-3.69-7-2.41-2.49,1-2.2,4.52-2.91,6.32a18.58,18.58,0,0,1-2.14,4.62c-1.28,1.65-2.56,3.32-1.77,5.28s2.28,2.84,4.7,2.59C121.7,751.43,133.41,749,138.51,744.83Z"/><path class="cls-2" d="M90.87,355.31a7.79,7.79,0,0,0-2.38,4.36c-.52,2.84-.66,4.93,2.38,5.34s4.83-2.76,5.07-4.45S94.28,353,90.87,355.31Z"/><path class="cls-2" d="M100.94,347.34a2.22,2.22,0,0,1,2.7,1.31c.75,1.88,1.34,3.3.59,5.34s-1.9,4.95-3.89,4.54-3.76-2.08-4.1-5.13S99.83,347.38,100.94,347.34Z"/><path class="cls-2" d="M108.66,349.89a2.54,2.54,0,0,1,3.54.72s2.13,2,1.13,6.65a6,6,0,0,1-6.39,3C103,359.59,105,351.3,108.66,349.89Z"/><path class="cls-2" d="M114.3,371.28c3-4.94.64-8.75.64-8.75-1.32-2.28-3.11-1.08-5.31.21s-1.71,4.21-1.71,4.21,1,3.72,3.6,5.16A1.94,1.94,0,0,0,114.3,371.28Z"/><path class="cls-2" d="M106.48,377.68c1.69,0,3.36-.64,3.88-2.47s-.89-3.5-2.41-5.38a26.12,26.12,0,0,1-1.5-3.38c-.89-2.5-.65-4.74-3.61-5.59-2.33-.66-4.07,2-5.57,2.87a16.89,16.89,0,0,1-4.09,2.09c-1.83.45-3.66.92-4.19,2.75s0,3.28,1.9,4.45C90.89,373,100.54,377.8,106.48,377.68Z"/><path class="cls-2" d="M113.16,160.62a7.15,7.15,0,0,0,2.17,4c1.93,1.82,3.47,3,5.31.84s.29-5.11-.89-6.13S113.09,156.83,113.16,160.62Z"/><path class="cls-2" d="M112.06,148.87a2.05,2.05,0,0,1,2.37-1.43c1.82.36,3.21.62,4.4,2.21s2.86,3.94,1.55,5.28-3.48,1.86-6,.59S111.54,149.74,112.06,148.87Z"/><path class="cls-2" d="M117.88,144.19a2.33,2.33,0,0,1,2.33-2.36s2.6-.65,5.69,2.46a5.49,5.49,0,0,1-.91,6.39C122.53,153.4,117.15,147.7,117.88,144.19Z"/><path class="cls-2" d="M137.19,150.55c-2.32-4.75-6.42-4.87-6.42-4.87-2.42-.13-2.38,1.85-2.5,4.19s2.4,3.43,2.4,3.43,3.37,1.08,5.77-.2A1.77,1.77,0,0,0,137.19,150.55Z"/><path class="cls-2" d="M138.21,159.78c.82-1.32,1.19-2.91,0-4.23s-3.14-1.07-5.35-.83a24,24,0,0,1-3.36-.54c-2.37-.57-4-1.87-6.11,0-1.68,1.46-.51,4.12-.58,5.72a15.34,15.34,0,0,1-.44,4.2c-.56,1.63-1.11,3.28,0,4.6s2.54,1.62,4.37.77C126.82,169.46,135.33,164.41,138.21,159.78Z"/><path class="cls-2" d="M88.43,72.78a7.1,7.1,0,0,0,2.16,4c1.94,1.83,3.47,3,5.31.84s.29-5.1-.89-6.13S88.35,69,88.43,72.78Z"/><path class="cls-2" d="M87.32,61a2,2,0,0,1,2.37-1.42c1.82.36,3.21.61,4.4,2.21s2.86,3.94,1.55,5.27-3.48,1.86-6,.59S86.8,61.9,87.32,61Z"/><path class="cls-2" d="M93.15,56.36A2.33,2.33,0,0,1,95.47,54s2.6-.65,5.7,2.46a5.52,5.52,0,0,1-.92,6.4C97.79,65.57,92.42,59.86,93.15,56.36Z"/><path class="cls-2" d="M112.45,62.71C110.13,58,106,57.84,106,57.84c-2.42-.13-2.38,1.86-2.49,4.2s2.39,3.42,2.39,3.42,3.37,1.08,5.77-.2A1.77,1.77,0,0,0,112.45,62.71Z"/><path class="cls-2" d="M113.47,71.94c.83-1.32,1.19-2.91,0-4.23s-3.14-1.06-5.35-.83a23.12,23.12,0,0,1-3.36-.53c-2.37-.57-4-1.88-6.11,0-1.67,1.46-.5,4.13-.57,5.73a15.28,15.28,0,0,1-.44,4.19c-.56,1.64-1.12,3.29,0,4.61s2.54,1.61,4.38.76C102.09,81.62,110.6,76.58,113.47,71.94Z"/><path class="cls-2" d="M103.28,2003.6a3.38,3.38,0,0,0-5.64-3.66L79,1990.14a3.37,3.37,0,0,0-6.21-2.55,3.3,3.3,0,0,0-.34,2.12,3.37,3.37,0,1,0,3.72,5.25L95,2004.88a3.38,3.38,0,1,0,6.5.29A3.36,3.36,0,0,0,103.28,2003.6Z"/><path class="cls-2" d="M63.94,1921.19a3.38,3.38,0,0,0,2.43,6.27l9.43,18.88a3.37,3.37,0,1,0,5.06,4.18,3.38,3.38,0,1,0,0-6.44L71.37,1925a3.37,3.37,0,0,0-3.5-5.74,3.33,3.33,0,0,0-1.6,1.71A3.38,3.38,0,0,0,63.94,1921.19Z"/><path class="cls-2" d="M35.94,1865.37a2.61,2.61,0,0,0-3.39,3.93l-9.46,13.27a2.61,2.61,0,0,0-2.61,4.49,2.65,2.65,0,0,0,1.59.48,2.57,2.57,0,0,0,1.05,1.66,2.61,2.61,0,0,0,3.36-4l9.57-13.43a2.61,2.61,0,0,0,2.65-4.47,2.66,2.66,0,0,0-1.75-.47A2.59,2.59,0,0,0,35.94,1865.37Z"/><path class="cls-2" d="M69.09,1804.37a3.2,3.2,0,0,0,1.9,6.09l7.68,18.46a3.2,3.2,0,0,0,3,5.63,3.14,3.14,0,0,0,1.53-1.34,3.2,3.2,0,1,0,.47-6.09l-7.78-18.69a3.2,3.2,0,0,0-2.93-5.66,3.25,3.25,0,0,0-1.63,1.51A3.16,3.16,0,0,0,69.09,1804.37Z"/><path class="cls-2" d="M39.94,1723.6a3.44,3.44,0,0,0,.3,6.84l2.94,21.31a3.44,3.44,0,0,0,1.57,6.67,3.36,3.36,0,0,0,2-1,3.44,3.44,0,1,0,2.16-6.21l-3-21.56a3.44,3.44,0,1,0-3.61-5.56A3.41,3.41,0,0,0,39.94,1723.6Z"/><path class="cls-2" d="M100.29,1530.7a3.07,3.07,0,0,0,3.37,5.1l12,15a3.07,3.07,0,0,0,4.25,4.39,3,3,0,0,0,1.06-1.64,3.07,3.07,0,1,0-1.2-5.74l-12.16-15.15a3.07,3.07,0,0,0-4.22-4.43,3,3,0,0,0-1.1,1.83A3,3,0,0,0,100.29,1530.7Z"/><path class="cls-2" d="M62.18,1136.73a3.07,3.07,0,0,0,2,5.78L72.05,1160a3.06,3.06,0,0,0,3,5.31A3,3,0,0,0,76.5,1164a3,3,0,0,0,2.31-.08,3.07,3.07,0,0,0-2-5.77l-8-17.71a3.07,3.07,0,0,0-3-5.35,3,3,0,0,0-1.51,1.49A3,3,0,0,0,62.18,1136.73Z"/><path class="cls-2" d="M101.67,1026.86a3.07,3.07,0,0,0-5.14,3.31L81.42,1042a3.07,3.07,0,1,0-2.81,5.28,3.07,3.07,0,1,0,5.75-1.13l15.29-12a3.07,3.07,0,1,0,2.67-5.28A3.07,3.07,0,0,0,101.67,1026.86Z"/><path class="cls-2" d="M123.44,910.93a3.07,3.07,0,0,0,2,5.78l7.88,17.5a3.07,3.07,0,0,0,3,5.32,3,3,0,0,0,1.43-1.33,3.07,3.07,0,1,0,.28-5.85l-8-17.72a3.07,3.07,0,1,0-4.49-3.85A3,3,0,0,0,123.44,910.93Z"/><path class="cls-2" d="M132,784a3.07,3.07,0,0,0-4,4.63l-11.14,15.63a3.07,3.07,0,1,0-1.2,5.85,3.07,3.07,0,1,0,5.19-2.71l11.28-15.82a3.07,3.07,0,0,0,3.12-5.26,3,3,0,0,0-2.06-.56A3,3,0,0,0,132,784Z"/><path class="cls-2" d="M91.31,431.26a3.07,3.07,0,0,0-4,4.63L76.17,451.52a3.07,3.07,0,1,0-1.2,5.85,3.07,3.07,0,1,0,5.2-2.7l11.27-15.83A3.07,3.07,0,1,0,92.5,433,3,3,0,0,0,91.31,431.26Z"/><path class="cls-2" d="M125.82,182.56a3.07,3.07,0,0,0-4,4.63l-11.14,15.63a3.07,3.07,0,1,0-1.2,5.86,3.07,3.07,0,0,0,5.52,1.24,3.05,3.05,0,0,0-.33-3.95L126,190.14a3.07,3.07,0,0,0,3.12-5.26,3.1,3.1,0,0,0-2.06-.56A3.06,3.06,0,0,0,125.82,182.56Z"/><path class="cls-2" d="M93.67,14.49a3.07,3.07,0,0,0-4,4.63L78.54,34.76A3.07,3.07,0,0,0,75.47,40a3,3,0,0,0,1.87.57,3.07,3.07,0,1,0,5.19-2.71L93.81,22.08a3.07,3.07,0,0,0,3.12-5.27,3,3,0,0,0-2.06-.55A3.05,3.05,0,0,0,93.67,14.49Z"/><path class="cls-2" d="M97.51,670.75a3.07,3.07,0,0,0,4.09,4.55l14.08,13.05a3.07,3.07,0,0,0,4.85,3.72,3.11,3.11,0,0,0,.8-1.78,3.07,3.07,0,0,0,1.93-5.32,3,3,0,0,0-4-.18l-14.26-13.21a3.07,3.07,0,1,0-5.63-1.79A3.06,3.06,0,0,0,97.51,670.75Z"/><path class="cls-2" d="M81.92,552.33a3.07,3.07,0,0,0,1.72,5.87L90.72,576a3.08,3.08,0,0,0,2.77,5.46A3,3,0,0,0,95,580.23a3.07,3.07,0,1,0,.55-5.83l-7.17-18.06a3.07,3.07,0,1,0-4.31-4.05A3.07,3.07,0,0,0,81.92,552.33Z"/><path class="cls-2" d="M101.33,297a3.07,3.07,0,0,0,1.72,5.87l7.08,17.84a3.07,3.07,0,1,0,4.26,4.19,3.07,3.07,0,1,0,.55-5.84L107.77,301a3.07,3.07,0,1,0-4.31-4.05A3.07,3.07,0,0,0,101.33,297Z"/><path class="cls-2" d="M110.13,99a3.07,3.07,0,0,0,1.72,5.87l7.08,17.84a3.07,3.07,0,0,0,2.77,5.45,3,3,0,0,0,1.49-1.26,3.07,3.07,0,0,0,4-4,3.08,3.08,0,0,0-3.49-1.87L116.57,103A3.07,3.07,0,1,0,112.26,99,3.07,3.07,0,0,0,110.13,99Z"/><path class="cls-2" d="M113.29,1686.09a3.41,3.41,0,0,0-5.82,3.5l-17.16,12.62A3.41,3.41,0,1,0,87,1708a3.41,3.41,0,1,0,6.42-1.06l17.37-12.77a3.41,3.41,0,0,0,5.12-4.47,3.36,3.36,0,0,0-2-1.3A3.42,3.42,0,0,0,113.29,1686.09Z"/><path class="cls-2" d="M80.41,1633.11a3.21,3.21,0,0,0,5.66-3l16.81-11a3.22,3.22,0,1,0,3.41-5.25,3.18,3.18,0,0,0-.46-2.38,3.22,3.22,0,0,0-5.64,3l-17,11.13a3.21,3.21,0,0,0-5,3.94,3.16,3.16,0,0,0,1.79,1.32A3.23,3.23,0,0,0,80.41,1633.11Z"/><path class="cls-2" d="M148.58,1608.33a3.22,3.22,0,0,0-2-6.09l-7.94-18.45a3.22,3.22,0,1,0-4.59-4.26,3.21,3.21,0,1,0-.4,6.12l8.05,18.68a3.21,3.21,0,0,0,3,5.65,3.15,3.15,0,0,0,1.61-1.54A3.24,3.24,0,0,0,148.58,1608.33Z"/><path class="cls-2" d="M146.2,1483.23a3.21,3.21,0,0,0-3.54,5.33l-9.52,17.69a3.22,3.22,0,1,0-.49,6.24,3.21,3.21,0,1,0,5-3.49l9.64-17.91a3.21,3.21,0,1,0,.35-6.18A3.22,3.22,0,0,0,146.2,1483.23Z"/><path class="cls-2" d="M102.21,1433.67a3.21,3.21,0,0,0-1.48,6.22l-2.83,19.9a3.21,3.21,0,1,0,1.7,6,3.21,3.21,0,1,0,3.53-5l2.86-20.13a3.21,3.21,0,0,0,.36-6.39,3.16,3.16,0,0,0-2.18.47A3.17,3.17,0,0,0,102.21,1433.67Z"/><path class="cls-2" d="M102.54,1381.59a3.22,3.22,0,0,0,3.37,5.45l12.11,16a3.21,3.21,0,1,0,5.46,3,3.25,3.25,0,0,0,2.35-.62,3.22,3.22,0,0,0-3.42-5.42l-12.25-16.23a3.22,3.22,0,1,0-5.48-2.89A3.25,3.25,0,0,0,102.54,1381.59Z"/><path class="cls-2" d="M90.19,1256.6a3.21,3.21,0,0,0-2.3,6l-5.43,19.34a3.22,3.22,0,1,0,.89,6.2,3.21,3.21,0,1,0,4.15-4.51L93,1264a3.21,3.21,0,1,0-1-6.11A3.19,3.19,0,0,0,90.19,1256.6Z"/><path class="cls-2" d="M59.06,1337a3.21,3.21,0,0,0,2,6.08l8,18.44a3.21,3.21,0,1,0,4.59,4.24,3.21,3.21,0,1,0,.39-6.12L65.93,1341a3.22,3.22,0,1,0-4.64-4.1A3.19,3.19,0,0,0,59.06,1337Z"/><path class="cls-2" d="M33,1233a3.21,3.21,0,0,0,3.61-5.28l9.76-17.56a3.22,3.22,0,0,0,2.58-5.86,3.13,3.13,0,0,0-2-.37,3.28,3.28,0,0,0-1.52-1.9,3.21,3.21,0,0,0-3.57,5.32L32,1225.11a3.21,3.21,0,1,0-.43,6.17A3.22,3.22,0,0,0,33,1233Z"/><path class="cls-2" d="M34.79,1098.32a3.22,3.22,0,0,0-.22-6.4L32,1072a3.22,3.22,0,1,0-3.24-5.36,3.22,3.22,0,1,0-2.07,5.78l2.59,20.17a3.21,3.21,0,1,0,3.32,5.23A3.24,3.24,0,0,0,34.79,1098.32Z"/><path class="cls-2" d="M60.75,946.38a3.22,3.22,0,0,0,2.59,5.86l9.78,17.54a3.22,3.22,0,0,0,3.63,5.28,3.18,3.18,0,0,0,1.37-1.51,3.21,3.21,0,1,0-.23-6.13L68,949.66A3.22,3.22,0,1,0,63,946,3.2,3.2,0,0,0,60.75,946.38Z"/><path class="cls-2" d="M89.86,829.64a3.21,3.21,0,0,0-2.19,6l-5.09,19.44a3.21,3.21,0,0,0-1,6.31,3.15,3.15,0,0,0,2-.14,3.21,3.21,0,1,0,4.08-4.58L92.81,837a3.21,3.21,0,0,0,1.1-6.31,3.12,3.12,0,0,0-2.22.22A3.23,3.23,0,0,0,89.86,829.64Z"/><path class="cls-2" d="M44.07,619.67a3.21,3.21,0,0,0-2.19,6l-5.09,19.44a3.21,3.21,0,0,0-1,6.31,3.15,3.15,0,0,0,2-.14,3.21,3.21,0,1,0,4.08-4.58L47,627a3.21,3.21,0,0,0,1.1-6.31,3.12,3.12,0,0,0-2.22.22A3.2,3.2,0,0,0,44.07,619.67Z"/><path class="cls-2" d="M51.27,347.2a3.22,3.22,0,0,0-4.54,4.52L33.85,367.13a3.21,3.21,0,0,0-3.63,5.27,3.16,3.16,0,0,0,1.9.74,3.21,3.21,0,1,0,5.64-2.4l13-15.61a3.21,3.21,0,0,0,3.68-5.24,3.15,3.15,0,0,0-2.1-.75A3.24,3.24,0,0,0,51.27,347.2Z"/><path class="cls-2" d="M68.52,68.5A3.21,3.21,0,0,0,64,73L51.1,88.43a3.21,3.21,0,1,0-1.73,6A3.22,3.22,0,1,0,55,92l13-15.61a3.21,3.21,0,1,0,1.58-6A3.19,3.19,0,0,0,68.52,68.5Z"/><path class="cls-2" d="M57.87,721a3.21,3.21,0,0,0,4.63,4.41l15.76,12.46a3.22,3.22,0,0,0,5.37,3.49,3.19,3.19,0,0,0,.69-1.93,3.17,3.17,0,0,0,2.11-1.19,3.21,3.21,0,0,0-4.67-4.38l-16-12.61a3.21,3.21,0,0,0-5.34-3.54,3.19,3.19,0,0,0-.69,2.13A3.19,3.19,0,0,0,57.87,721Z"/><path class="cls-2" d="M15.77,479.17A3.53,3.53,0,0,0,17.38,486l7,20.92A3.53,3.53,0,1,0,29,512a3.58,3.58,0,0,0,2.66.17A3.53,3.53,0,0,0,30,505.35l-7.08-21.18a3.53,3.53,0,1,0-4.69-4.92A3.49,3.49,0,0,0,15.77,479.17Z"/><path class="cls-2" d="M64.94,198.24a3.53,3.53,0,0,0,1.61,6.84l7,20.92a3.53,3.53,0,1,0,4.63,5.08,3.53,3.53,0,1,0,1-6.66l-7.08-21.18a3.53,3.53,0,1,0-4.69-4.92A3.49,3.49,0,0,0,64.94,198.24Z"/></g></svg>