<svg xmlns="http://www.w3.org/2000/svg" viewBox="0 0 850.39 85.04"><g id="Capa_6" data-name="Capa 6"><path d="M.64,62.42a1.42,1.42,0,0,1,2,.37s1.22,1.09.7,3.7A3.34,3.34,0,0,1-.21,68.2C-2.41,67.89-1.37,63.25.64,62.42Z"/><path d="M4,74.29a4.84,4.84,0,0,0,.27-4.88c-.75-1.26-1.74-.57-2.95.17A2.4,2.4,0,0,0,.4,72a5.28,5.28,0,0,0,2.06,2.83A1.08,1.08,0,0,0,4,74.29Z"/><path d="M-.3,77.94a2,2,0,0,0,2.14-1.41c.28-1-.53-2-1.39-3a13.29,13.29,0,0,1-.87-1.87c-.52-1.38-.41-2.63-2.07-3.08-1.3-.35-2.25,1.15-3.08,1.65a9.11,9.11,0,0,1-2.26,1.21c-1,.27-2,.55-2.3,1.58A2,2,0,0,0-9,75.5S-3.6,78.07-.3,77.94Z"/></g><g id="Capa_7" data-name="Capa 7"><path d="M40.41,46.51a3.29,3.29,0,0,0-1.67,1.16c-.74.94-1.19,1.67-.2,2.35s2.23-.16,2.64-.73S42.06,46.26,40.41,46.51Z"/><path d="M45.49,45.37a.84.84,0,0,1,.7,1,2.79,2.79,0,0,1-.83,2c-.65.61-1.62,1.47-2.24,1a2.1,2.1,0,0,1-.45-2.57A3,3,0,0,1,45.49,45.37Z"/><path d="M47.71,47.64a1,1,0,0,1,1.1.88s.37,1.09-.89,2.6a2.4,2.4,0,0,1-2.81,0C43.85,50.17,46.16,47.52,47.71,47.64Z"/><path d="M45.55,56.37a3.74,3.74,0,0,0,1.92-3.06c0-1.05-.88-.93-1.9-.85a1.88,1.88,0,0,0-1.42,1.23,3.77,3.77,0,0,0,.27,2.5A.76.76,0,0,0,45.55,56.37Z"/><path d="M41.57,57.33a1.49,1.49,0,0,0,1.84-.22c.54-.57.36-1.42.19-2.37a10.13,10.13,0,0,1,.13-1.48c.17-1.06.69-1.83-.19-2.66-.68-.64-1.81,0-2.51.07a6.62,6.62,0,0,1-1.84,0c-.72-.16-1.46-.3-2,.27A1.47,1.47,0,0,0,37,52.93S39.46,56.34,41.57,57.33Z"/><path d="M13.89,47.07A3.49,3.49,0,0,0,12,48c-.91.85-1.49,1.54-.58,2.4s2.34.18,2.85-.35S15.63,47.08,13.89,47.07Z"/><path d="M19.32,46.69a.87.87,0,0,1,.57,1.09,3,3,0,0,1-1.17,2c-.77.52-1.91,1.26-2.47.65a2.19,2.19,0,0,1-.06-2.73A3.09,3.09,0,0,1,19.32,46.69Z"/><path d="M21.26,49.38a1,1,0,0,1,1,1.08s.21,1.19-1.32,2.56A2.53,2.53,0,0,1,18,52.54C16.87,51.4,19.68,49,21.26,49.38Z"/><path d="M17.66,58.08a3.88,3.88,0,0,0,2.46-2.86c.15-1.1-.76-1.1-1.83-1.18a2,2,0,0,0-1.66,1.05,4,4,0,0,0-.11,2.63A.79.79,0,0,0,17.66,58.08Z"/><path d="M13.39,58.45a1.56,1.56,0,0,0,1.94.06c.65-.5.6-1.41.57-2.42a10.8,10.8,0,0,1,.37-1.52c.34-1.07,1-1.78.22-2.77-.61-.78-1.88-.27-2.61-.32A7,7,0,0,1,12,51.24c-.73-.27-1.46-.54-2.11,0a1.55,1.55,0,0,0-.51,2S11.37,57.1,13.39,58.45Z"/><path d="M133.64,35.11a3.66,3.66,0,0,0-1.83-1.34c-1.26-.44-2.2-.65-2.56.64s1,2.29,1.73,2.52S134.5,36.76,133.64,35.11Z"/><path d="M136.68,40.06a.93.93,0,0,1-.75,1.08,3.1,3.1,0,0,1-2.44-.14c-.88-.47-2.14-1.18-1.84-2a2.34,2.34,0,0,1,2.55-1.4A3.31,3.31,0,0,1,136.68,40.06Z"/><path d="M135.09,43.22a1.07,1.07,0,0,1-.53,1.48s-1,.78-3.07,0a2.69,2.69,0,0,1-1-3C131,40.06,134.66,41.54,135.09,43.22Z"/><path d="M125.09,44.11A4.14,4.14,0,0,0,129,45c1.11-.4.66-1.27.21-2.31a2.07,2.07,0,0,0-1.81-1.05,4.22,4.22,0,0,0-2.54,1.18A.86.86,0,0,0,125.09,44.11Z"/><path d="M122.63,40.25a1.67,1.67,0,0,0,.9,1.86c.8.36,1.64-.13,2.57-.65a12,12,0,0,1,1.62-.4c1.18-.21,2.18.06,2.73-1.16.44-1-.66-1.91-1-2.63a7.26,7.26,0,0,1-.71-1.92c-.11-.82-.21-1.65-1-2a1.65,1.65,0,0,0-2.12.5S122.92,37.67,122.63,40.25Z"/><path d="M48.53,14.53a4.54,4.54,0,0,0-2.63.84c-1.32.92-2.19,1.69-1.18,3s2.94.67,3.69.1S50.74,14.87,48.53,14.53Z"/><path d="M55.53,15.07a1.13,1.13,0,0,1,.52,1.5,3.79,3.79,0,0,1-1.87,2.3c-1.08.52-2.67,1.25-3.28.36a2.82,2.82,0,0,1,.44-3.49C52.42,14.42,55.09,14.68,55.53,15.07Z"/><path d="M57.49,18.87a1.3,1.3,0,0,1,1.08,1.57s0,1.56-2.18,3a3.25,3.25,0,0,1-3.62-1.17C51.51,20.61,55.54,18.11,57.49,18.87Z"/><path d="M51.25,29.29a5,5,0,0,0,3.69-3.19c.39-1.37-.77-1.55-2.12-1.84a2.5,2.5,0,0,0-2.31,1,5.06,5.06,0,0,0-.65,3.33A1,1,0,0,0,51.25,29.29Z"/><path d="M45.73,29a2,2,0,0,0,2.47.44c.92-.52,1-1.69,1.18-3a14.36,14.36,0,0,1,.76-1.87c.64-1.3,1.61-2.09.81-3.5-.64-1.1-2.35-.7-3.27-.9a8.9,8.9,0,0,1-2.39-.67c-.88-.48-1.77-1-2.69-.44a2,2,0,0,0-1,2.43S43.41,26.85,45.73,29Z"/><path d="M175.51,52.08a3.25,3.25,0,0,0-2-.6c-1.22,0-2.09.14-2,1.43s1.55,1.75,2.26,1.71S176.75,53.29,175.51,52.08Z"/><path d="M179.65,55.55a.94.94,0,0,1-.31,1.23,2.79,2.79,0,0,1-2.15.69c-.9-.13-2.2-.36-2.2-1.21a2.25,2.25,0,0,1,1.76-2.12C178,53.74,179.54,55.1,179.65,55.55Z"/><path d="M179.25,59a1.07,1.07,0,0,1,0,1.52,3,3,0,0,1-2.65,1,2.49,2.49,0,0,1-1.75-2.37C174.78,57.44,178.36,57.57,179.25,59Z"/><path d="M170.93,63.08a3.64,3.64,0,0,0,3.65-.48c.83-.73.18-1.37-.53-2.16a1.8,1.8,0,0,0-1.88-.35A3.94,3.94,0,0,0,170.35,62,.81.81,0,0,0,170.93,63.08Z"/><path d="M167.63,60.41A1.57,1.57,0,0,0,169,61.8c.8.06,1.37-.67,2-1.45a10.72,10.72,0,0,1,1.27-.91c.95-.57,1.89-.66,2-2,.08-1-1.16-1.5-1.65-2a7,7,0,0,1-1.21-1.5c-.34-.72-.69-1.43-1.49-1.49a1.53,1.53,0,0,0-1.67,1.16S167.08,58,167.63,60.41Z"/><path d="M202.2,42.74a2.82,2.82,0,0,0-1.71-.52c-1,0-1.78.13-1.71,1.23s1.32,1.5,1.94,1.46S203.26,43.78,202.2,42.74Z"/><path d="M205.74,45.71a.8.8,0,0,1-.27,1,2.44,2.44,0,0,1-1.84.6c-.77-.12-1.88-.31-1.88-1a1.93,1.93,0,0,1,1.51-1.81A2.54,2.54,0,0,1,205.74,45.71Z"/><path d="M205.4,48.62a.91.91,0,0,1,0,1.3,2.53,2.53,0,0,1-2.26.88,2.16,2.16,0,0,1-1.5-2C201.57,47.33,204.64,47.44,205.4,48.62Z"/><path d="M198.27,52.16a3.13,3.13,0,0,0,3.13-.41c.71-.63.16-1.17-.46-1.86a1.53,1.53,0,0,0-1.6-.29,3.37,3.37,0,0,0-1.56,1.64A.7.7,0,0,0,198.27,52.16Z"/><path d="M195.45,49.87a1.33,1.33,0,0,0,1.15,1.18c.69.06,1.17-.56,1.72-1.23a9.33,9.33,0,0,1,1.09-.78c.81-.49,1.62-.57,1.7-1.67.07-.87-1-1.29-1.41-1.76a5.82,5.82,0,0,1-1-1.29c-.3-.61-.6-1.22-1.28-1.27A1.31,1.31,0,0,0,196,44S195,47.78,195.45,49.87Z"/><path d="M214.94,64.34a2.78,2.78,0,0,0-1.7-.52c-1.05,0-1.79.12-1.71,1.22s1.32,1.5,1.93,1.46S216,65.37,214.94,64.34Z"/><path d="M218.48,67.31a.79.79,0,0,1-.27,1,2.33,2.33,0,0,1-1.83.6c-.77-.12-1.88-.31-1.88-1A1.93,1.93,0,0,1,216,66.09,2.5,2.5,0,0,1,218.48,67.31Z"/><path d="M218.14,70.21a.92.92,0,0,1,0,1.3,2.53,2.53,0,0,1-2.27.88,2.14,2.14,0,0,1-1.5-2C214.32,68.92,217.38,69,218.14,70.21Z"/><path d="M211,73.75a3.14,3.14,0,0,0,3.13-.41c.71-.63.15-1.17-.46-1.85a1.53,1.53,0,0,0-1.61-.3,3.37,3.37,0,0,0-1.55,1.64A.7.7,0,0,0,211,73.75Z"/><path d="M208.2,71.46a1.33,1.33,0,0,0,1.15,1.19c.68,0,1.17-.57,1.72-1.24a8.7,8.7,0,0,1,1.08-.78c.82-.49,1.62-.57,1.71-1.67.06-.87-1-1.29-1.42-1.76a5.82,5.82,0,0,1-1-1.29c-.29-.6-.59-1.22-1.27-1.27a1.3,1.3,0,0,0-1.43,1S207.72,69.38,208.2,71.46Z"/><path d="M168.72,32.56a3.23,3.23,0,0,0-1.68-1.2c-1.15-.36-2-.52-2.33.71s.9,2.14,1.58,2.32S169.5,34.08,168.72,32.56Z"/><path d="M171.51,37.12a.92.92,0,0,1-.68,1.05,2.75,2.75,0,0,1-2.23,0c-.81-.41-1.95-1-1.69-1.84a2.24,2.24,0,0,1,2.33-1.43C170.52,34.89,171.55,36.66,171.51,37.12Z"/><path d="M170.07,40.19a1,1,0,0,1-.48,1.42,2.89,2.89,0,0,1-2.8.14,2.48,2.48,0,0,1-.9-2.79C166.34,37.36,169.67,38.61,170.07,40.19Z"/><path d="M160.94,41.45a3.62,3.62,0,0,0,3.59.7c1-.43.6-1.23.18-2.2a1.78,1.78,0,0,0-1.66-.92,3.9,3.9,0,0,0-2.31,1.23A.81.81,0,0,0,160.94,41.45Z"/><path d="M158.69,37.89a1.52,1.52,0,0,0,.82,1.73c.73.31,1.5-.19,2.35-.73a10.69,10.69,0,0,1,1.47-.45c1.08-.24,2,0,2.49-1.21.4-.93-.61-1.78-.9-2.45a6.84,6.84,0,0,1-.66-1.79c-.1-.78-.2-1.56-.93-1.87a1.52,1.52,0,0,0-1.94.56S158.93,35.43,158.69,37.89Z"/><path d="M106.25,16.92a3.16,3.16,0,0,0-1.65-1.17c-1.13-.36-2-.52-2.28.7s.88,2.09,1.55,2.27S107,18.42,106.25,16.92Z"/><path d="M109,21.4a.91.91,0,0,1-.67,1,2.74,2.74,0,0,1-2.19,0c-.79-.4-1.91-1-1.65-1.8a2.19,2.19,0,0,1,2.28-1.41C108,19.21,109,21,109,21.4Z"/><path d="M107.58,24.41a1,1,0,0,1-.47,1.4,2.89,2.89,0,0,1-2.75.13,2.45,2.45,0,0,1-.89-2.74C103.92,21.64,107.18,22.86,107.58,24.41Z"/><path d="M98.62,25.64a3.54,3.54,0,0,0,3.52.69c1-.42.59-1.2.18-2.16a1.76,1.76,0,0,0-1.63-.9,3.86,3.86,0,0,0-2.27,1.21A.78.78,0,0,0,98.62,25.64Z"/><path d="M96.41,22.16a1.5,1.5,0,0,0,.81,1.69c.72.3,1.46-.19,2.3-.71A9.67,9.67,0,0,1,101,22.7c1-.24,2,0,2.44-1.19.39-.91-.6-1.75-.89-2.4a6.6,6.6,0,0,1-.64-1.77c-.1-.76-.2-1.53-.92-1.83a1.48,1.48,0,0,0-1.89.55S96.65,19.74,96.41,22.16Z"/><path d="M303.67,40.91a3.3,3.3,0,0,0-2.08.38c-1.08.59-1.8,1.11-1.12,2.22s2.2.86,2.83.49S305.35,41.42,303.67,40.91Z"/><path d="M309,42.1a1,1,0,0,1,.29,1.25c-.42.75-.73,1.33-1.6,1.62s-2.15.7-2.55-.06a2.29,2.29,0,0,1,.6-2.73C306.67,41.25,308.7,41.75,309,42.1Z"/><path d="M310.24,45.34A1.08,1.08,0,0,1,311,46.7s-.09,1.24-1.9,2.16a2.56,2.56,0,0,1-2.69-1.32C305.51,46.07,308.8,44.51,310.24,45.34Z"/><path d="M304.68,52.94a3.71,3.71,0,0,0,3.06-2.13c.4-1.05-.48-1.32-1.49-1.7a1.82,1.82,0,0,0-1.85.56,4,4,0,0,0-.74,2.57A.82.82,0,0,0,304.68,52.94Z"/><path d="M300.46,52.07a1.58,1.58,0,0,0,1.86.62c.75-.31.92-1.23,1.13-2.24a10.47,10.47,0,0,1,.72-1.4c.59-1,1.39-1.48.88-2.69-.41-1-1.75-.82-2.44-1.07a7,7,0,0,1-1.79-.8c-.64-.48-1.29-1-2-.64a1.55,1.55,0,0,0-1,1.82S298.83,50.14,300.46,52.07Z"/><path d="M746.67,49.63a3.51,3.51,0,0,0-1.86-1.26c-1.26-.36-2.2-.51-2.52.84s1,2.3,1.79,2.48S747.56,51.27,746.67,49.63Z"/><path d="M749.82,54.52a1,1,0,0,1-.71,1.16,3,3,0,0,1-2.43,0c-.88-.43-2.15-1.08-1.88-2a2.43,2.43,0,0,1,2.49-1.62C748.68,52.12,749.85,54,749.82,54.52Z"/><path d="M748.33,57.89a1.14,1.14,0,0,1-.48,1.56s-1,.88-3,.22a2.71,2.71,0,0,1-1.06-3C744.21,54.92,747.86,56.19,748.33,57.89Z"/><path d="M738.45,59.5a3.92,3.92,0,0,0,3.91.67c1.09-.5.62-1.36.14-2.4a2,2,0,0,0-1.83-1,4.3,4.3,0,0,0-2.48,1.4A.88.88,0,0,0,738.45,59.5Z"/><path d="M735.9,55.69a1.67,1.67,0,0,0,1,1.86c.8.32,1.61-.25,2.53-.85a11.86,11.86,0,0,1,1.59-.53c1.16-.29,2.16-.08,2.67-1.38.4-1-.71-1.92-1-2.64a7.64,7.64,0,0,1-.76-1.93c-.13-.85-.26-1.69-1.06-2a1.64,1.64,0,0,0-2.09.66S736.11,53,735.9,55.69Z"/><path d="M792.23,27.64a3.23,3.23,0,0,0-1.94.65c-1,.71-1.58,1.3-.78,2.28a2.08,2.08,0,0,0,2.77.08C792.82,30.2,793.9,27.91,792.23,27.64Z"/><path d="M797.49,28.07a.92.92,0,0,1,.45,1.15A2.75,2.75,0,0,1,796.62,31c-.79.4-2,.95-2.45.27a2.22,2.22,0,0,1,.21-2.69A2.88,2.88,0,0,1,797.49,28.07Z"/><path d="M799.1,31a1,1,0,0,1,.86,1.21s.09,1.2-1.52,2.32a2.46,2.46,0,0,1-2.75-.9C794.68,32.33,797.61,30.41,799.1,31Z"/><path d="M794.8,39a3.56,3.56,0,0,0,2.65-2.45c.24-1.06-.64-1.2-1.66-1.43a1.76,1.76,0,0,0-1.69.79,3.89,3.89,0,0,0-.37,2.56A.79.79,0,0,0,794.8,39Z"/><path d="M790.65,38.76a1.53,1.53,0,0,0,1.86.34c.67-.4.72-1.3.79-2.29a10.09,10.09,0,0,1,.49-1.44c.44-1,1.14-1.61.48-2.7-.51-.85-1.78-.54-2.48-.7a6.65,6.65,0,0,1-1.81-.52c-.68-.37-1.36-.74-2-.34a1.49,1.49,0,0,0-.67,1.87S788.83,37.13,790.65,38.76Z"/><path d="M827.19,18.3a2.76,2.76,0,0,0-1.66.56c-.82.6-1.35,1.11-.67,1.94a1.76,1.76,0,0,0,2.37.07C827.7,20.49,828.62,18.53,827.19,18.3Z"/><path d="M831.69,18.67a.78.78,0,0,1,.38,1A2.3,2.3,0,0,1,831,21.17c-.68.34-1.68.82-2.1.24A1.9,1.9,0,0,1,829,19.1,2.46,2.46,0,0,1,831.69,18.67Z"/><path d="M833.07,21.18a.89.89,0,0,1,.74,1s.07,1-1.31,2a2.11,2.11,0,0,1-2.35-.77C829.29,22.32,831.8,20.67,833.07,21.18Z"/><path d="M829.39,28a3,3,0,0,0,2.26-2.1c.21-.9-.54-1-1.41-1.22a1.5,1.5,0,0,0-1.45.68,3.26,3.26,0,0,0-.31,2.19A.68.68,0,0,0,829.39,28Z"/><path d="M825.84,27.81a1.3,1.3,0,0,0,1.59.3c.58-.35.61-1.12.67-2a9,9,0,0,1,.43-1.23c.37-.85,1-1.37.41-2.3-.44-.73-1.53-.47-2.12-.6a5.88,5.88,0,0,1-1.56-.45c-.58-.32-1.16-.64-1.74-.29a1.28,1.28,0,0,0-.58,1.6S824.28,26.42,825.84,27.81Z"/><path d="M729.29,26.33a3,3,0,0,0-1.63-1c-1.08-.25-1.88-.34-2.1.82s1,1.9,1.62,2S730.11,27.68,729.29,26.33Z"/><path d="M732.16,30.34a.85.85,0,0,1-.56,1,2.51,2.51,0,0,1-2.06.13c-.76-.33-1.86-.82-1.67-1.58a2.07,2.07,0,0,1,2-1.47C731.1,28.36,732.16,29.92,732.16,30.34Z"/><path d="M731,33.26a1,1,0,0,1-.34,1.34,2.71,2.71,0,0,1-2.58.31,2.3,2.3,0,0,1-1-2.51C727.42,30.9,730.56,31.83,731,33.26Z"/><path d="M722.72,35a3.35,3.35,0,0,0,3.34.41c.9-.47.47-1.17,0-2a1.65,1.65,0,0,0-1.58-.74,3.62,3.62,0,0,0-2,1.29A.74.74,0,0,0,722.72,35Z"/><path d="M720.41,31.89a1.42,1.42,0,0,0,.87,1.54c.7.24,1.36-.27,2.11-.82a9.28,9.28,0,0,1,1.33-.51c1-.3,1.83-.16,2.21-1.28.3-.88-.68-1.6-1-2.2a6.32,6.32,0,0,1-.73-1.6c-.14-.71-.28-1.43-1-1.66a1.39,1.39,0,0,0-1.74.64S720.48,29.61,720.41,31.89Z"/><path d="M236.35,44.66a3.17,3.17,0,0,0-1.95-.43c-1.15.11-2,.29-1.79,1.51s1.6,1.56,2.27,1.46S237.62,45.72,236.35,44.66Z"/><path d="M240.54,47.67a.9.9,0,0,1-.21,1.19,2.66,2.66,0,0,1-2,.81c-.87-.06-2.12-.18-2.19-1a2.16,2.16,0,0,1,1.53-2.14C238.82,46.06,240.4,47.24,240.54,47.67Z"/><path d="M240.41,50.93a1,1,0,0,1,.11,1.44,2.79,2.79,0,0,1-2.44,1.17,2.4,2.4,0,0,1-1.85-2.13C236,49.82,239.46,49.68,240.41,50.93Z"/><path d="M232.78,55.47a3.49,3.49,0,0,0,3.45-.72c.73-.76.07-1.32-.67-2a1.72,1.72,0,0,0-1.81-.2,3.73,3.73,0,0,0-1.59,2A.77.77,0,0,0,232.78,55.47Z"/><path d="M229.44,53.16a1.5,1.5,0,0,0,1.39,1.23c.76,0,1.25-.73,1.81-1.53a9.83,9.83,0,0,1,1.14-1c.86-.62,1.75-.77,1.75-2,0-1-1.21-1.35-1.72-1.83a6.88,6.88,0,0,1-1.26-1.35c-.38-.65-.76-1.31-1.53-1.31a1.45,1.45,0,0,0-1.5,1.22S228.74,50.89,229.44,53.16Z"/><path d="M271.84,37.21a2.7,2.7,0,0,0-1.7.29c-.89.48-1.49.89-.94,1.81a1.75,1.75,0,0,0,2.31.42C272,39.43,273.21,37.64,271.84,37.21Z"/><path d="M276.19,38.23a.77.77,0,0,1,.23,1c-.35.61-.61,1.08-1.32,1.32s-1.76.55-2.09-.08a1.88,1.88,0,0,1,.52-2.23A2.41,2.41,0,0,1,276.19,38.23Z"/><path d="M277.17,40.88a.89.89,0,0,1,.57,1.12s-.08,1-1.57,1.75a2.09,2.09,0,0,1-2.19-1.1C273.3,41.44,276,40.2,277.17,40.88Z"/><path d="M272.56,47.05a3,3,0,0,0,2.52-1.72c.34-.85-.37-1.08-1.2-1.4a1.5,1.5,0,0,0-1.52.45,3.27,3.27,0,0,0-.62,2.09A.66.66,0,0,0,272.56,47.05Z"/><path d="M269.12,46.31a1.3,1.3,0,0,0,1.52.52c.61-.25.76-1,.94-1.82a9.64,9.64,0,0,1,.6-1.14c.49-.79,1.15-1.2.74-2.2-.32-.77-1.42-.68-2-.89a5.86,5.86,0,0,1-1.45-.67c-.52-.4-1.05-.79-1.66-.54a1.27,1.27,0,0,0-.8,1.48S267.81,44.71,269.12,46.31Z"/><path d="M402.83,29.65a3.27,3.27,0,0,0-1.77-1.11c-1.18-.3-2.05-.41-2.31.86s1,2.11,1.74,2.25S403.71,31.15,402.83,29.65Z"/><path d="M405.92,34.1a.93.93,0,0,1-.62,1.1,2.79,2.79,0,0,1-2.26.11c-.84-.37-2-.93-1.81-1.76A2.26,2.26,0,0,1,403.49,32C404.79,31.91,405.93,33.63,405.92,34.1Z"/><path d="M404.65,37.28a1.07,1.07,0,0,1-.4,1.47,2.94,2.94,0,0,1-2.83.3,2.51,2.51,0,0,1-1.07-2.76C400.71,34.65,404.15,35.72,404.65,37.28Z"/><path d="M395.5,39.09a3.64,3.64,0,0,0,3.66.5c1-.49.54-1.28,0-2.24a1.8,1.8,0,0,0-1.72-.83,4,4,0,0,0-2.27,1.38A.82.82,0,0,0,395.5,39.09Z"/><path d="M393,35.63a1.55,1.55,0,0,0,.94,1.7c.75.27,1.49-.28,2.32-.87a10,10,0,0,1,1.47-.54c1.07-.31,2-.15,2.44-1.37.34-1-.72-1.77-1.06-2.42a7.39,7.39,0,0,1-.77-1.78c-.14-.78-.29-1.56-1.05-1.83a1.53,1.53,0,0,0-1.92.68S393.12,33.13,393,35.63Z"/><path d="M438.6,26a3.19,3.19,0,0,0-1.73-1.09c-1.16-.28-2-.4-2.26.85s1,2.06,1.7,2.2S439.47,27.5,438.6,26Z"/><path d="M441.63,30.39a.92.92,0,0,1-.61,1.08,2.75,2.75,0,0,1-2.21.11c-.82-.37-2-.92-1.77-1.73a2.2,2.2,0,0,1,2.21-1.55C440.52,28.24,441.64,29.93,441.63,30.39Z"/><path d="M440.38,33.5a1,1,0,0,1-.39,1.44,2.9,2.9,0,0,1-2.77.3,2.48,2.48,0,0,1-1.05-2.71C436.53,30.92,439.89,32,440.38,33.5Z"/><path d="M431.42,35.28a3.59,3.59,0,0,0,3.59.48c1-.48.52-1.25.05-2.19a1.76,1.76,0,0,0-1.69-.81,3.85,3.85,0,0,0-2.21,1.35A.8.8,0,0,0,431.42,35.28Z"/><path d="M429,31.89a1.52,1.52,0,0,0,.92,1.66c.74.27,1.46-.27,2.27-.85a10.54,10.54,0,0,1,1.44-.53c1.05-.3,2-.15,2.39-1.35.33-.94-.71-1.72-1-2.36a7,7,0,0,1-.75-1.74c-.14-.77-.29-1.53-1-1.8a1.5,1.5,0,0,0-1.88.67S429.09,29.44,429,31.89Z"/><path d="M447.07,48.87a3.22,3.22,0,0,0-1.75-1.1c-1.17-.3-2-.41-2.29.85s1,2.08,1.72,2.22S447.94,50.35,447.07,48.87Z"/><path d="M450.13,53.27a.93.93,0,0,1-.62,1.09,2.82,2.82,0,0,1-2.24.11c-.82-.37-2-.92-1.79-1.74a2.25,2.25,0,0,1,2.25-1.57C449,51.1,450.14,52.81,450.13,53.27Z"/><path d="M448.86,56.42a1,1,0,0,1-.39,1.45,2.92,2.92,0,0,1-2.8.3,2.51,2.51,0,0,1-1.06-2.74C445,53.81,448.37,54.87,448.86,56.42Z"/><path d="M439.81,58.21a3.63,3.63,0,0,0,3.63.49c1-.49.53-1.26.05-2.21a1.79,1.79,0,0,0-1.71-.82A3.92,3.92,0,0,0,439.54,57,.81.81,0,0,0,439.81,58.21Z"/><path d="M437.35,54.78a1.53,1.53,0,0,0,.93,1.68c.75.27,1.48-.27,2.3-.86a11.18,11.18,0,0,1,1.45-.54c1.06-.3,2-.14,2.42-1.35.34-1-.72-1.75-1.05-2.4a6.89,6.89,0,0,1-.76-1.75c-.15-.77-.29-1.55-1-1.82a1.51,1.51,0,0,0-1.9.68S437.46,52.31,437.35,54.78Z"/><path d="M478.28,34.94a4.4,4.4,0,0,0-2.35-1.48c-1.57-.39-2.73-.54-3.07,1.15s1.37,2.79,2.31,3S479.45,36.93,478.28,34.94Z"/><path d="M482.38,40.85a1.25,1.25,0,0,1-.83,1.47,3.73,3.73,0,0,1-3,.14c-1.11-.49-2.7-1.24-2.4-2.34a3,3,0,0,1,3-2.11C480.88,37.94,482.4,40.23,482.38,40.85Z"/><path d="M480.69,45.08a1.42,1.42,0,0,1-.53,2s-1.18,1.12-3.76.4A3.35,3.35,0,0,1,475,43.76C475.47,41.58,480,43,480.69,45.08Z"/><path d="M468.54,47.48a4.84,4.84,0,0,0,4.86.66c1.33-.65.71-1.7.07-3a2.41,2.41,0,0,0-2.29-1.1,5.24,5.24,0,0,0-3,1.83A1.08,1.08,0,0,0,468.54,47.48Z"/><path d="M465.23,42.88a2.07,2.07,0,0,0,1.25,2.26c1,.36,2-.37,3.09-1.16a13.74,13.74,0,0,1,1.94-.72c1.43-.41,2.67-.19,3.25-1.82.45-1.28-1-2.34-1.41-3.21a9.48,9.48,0,0,1-1-2.36c-.19-1-.39-2.08-1.4-2.44a2,2,0,0,0-2.55.91S465.37,39.56,465.23,42.88Z"/><path d="M254.68,57.66a2.61,2.61,0,0,0-1.68.13c-.91.37-1.53.72-1.09,1.67a1.71,1.71,0,0,0,2.21.62C254.64,59.84,256,58.21,254.68,57.66Z"/><path d="M258.82,59.07a.76.76,0,0,1,.13,1,2.27,2.27,0,0,1-1.42,1.15c-.72.16-1.77.37-2-.27a1.83,1.83,0,0,1,.71-2.12A2.38,2.38,0,0,1,258.82,59.07Z"/><path d="M259.52,61.75A.87.87,0,0,1,260,62.9s-.18,1-1.7,1.55a2,2,0,0,1-2-1.28C255.7,61.92,258.45,61,259.52,61.75Z"/><path d="M254.44,67.31a2.94,2.94,0,0,0,2.62-1.43c.42-.8-.26-1.09-1-1.48a1.46,1.46,0,0,0-1.52.29,3.2,3.2,0,0,0-.81,2A.64.64,0,0,0,254.44,67.31Z"/><path d="M251.17,66.26a1.25,1.25,0,0,0,1.42.65c.62-.18.84-.9,1.1-1.68a8.59,8.59,0,0,1,.69-1c.55-.72,1.23-1.06.93-2.07-.24-.79-1.32-.8-1.85-1.06a5.54,5.54,0,0,1-1.35-.79c-.47-.43-.94-.87-1.57-.68a1.22,1.22,0,0,0-.92,1.36S250,64.58,251.17,66.26Z"/><path d="M75.84,27.14a4.13,4.13,0,0,0-2.59-.24c-1.48.34-2.52.7-2.08,2.26s2.33,1.76,3.19,1.52S77.67,28.31,75.84,27.14Z"/><path d="M81.78,30.35a1.17,1.17,0,0,1-.07,1.58,3.49,3.49,0,0,1-2.45,1.39c-1.14.06-2.78.11-3-.94a2.81,2.81,0,0,1,1.62-3C79.29,28.55,81.53,29.82,81.78,30.35Z"/><path d="M82.16,34.6a1.34,1.34,0,0,1,.38,1.86s-.51,1.44-3,1.93a3.15,3.15,0,0,1-2.75-2.47C76.3,33.89,80.72,33.14,82.16,34.6Z"/><path d="M73,41.76a4.55,4.55,0,0,0,4.35-1.5c.83-1.11-.13-1.73-1.2-2.52a2.25,2.25,0,0,0-2.39,0A5,5,0,0,0,72,40.6,1,1,0,0,0,73,41.76Z"/><path d="M68.29,39.32a1.94,1.94,0,0,0,2,1.36c1-.13,1.51-1.16,2.1-2.28A13.82,13.82,0,0,1,73.71,37c1-.94,2.15-1.29,1.94-2.9-.16-1.26-1.8-1.55-2.54-2.09a8.57,8.57,0,0,1-1.85-1.54c-.6-.78-1.21-1.57-2.2-1.45a1.9,1.9,0,0,0-1.75,1.84S67,36.48,68.29,39.32Z"/><path d="M322.85,24a3,3,0,0,0-1.88.2c-1,.45-1.69.86-1.16,1.91a1.92,1.92,0,0,0,2.49.62C322.88,26.45,324.31,24.58,322.85,24Z"/><path d="M327.53,25.45a.84.84,0,0,1,.17,1.13,2.56,2.56,0,0,1-1.54,1.34c-.8.2-2,.47-2.27-.24a2,2,0,0,1,.72-2.39A2.66,2.66,0,0,1,327.53,25.45Z"/><path d="M328.4,28.42a1,1,0,0,1,.54,1.26s-.16,1.1-1.84,1.8a2.3,2.3,0,0,1-2.31-1.36C324.13,28.74,327.17,27.58,328.4,28.42Z"/><path d="M322.92,34.82a3.32,3.32,0,0,0,2.88-1.7c.43-.9-.34-1.2-1.22-1.61a1.62,1.62,0,0,0-1.69.37,3.58,3.58,0,0,0-.84,2.25A.74.74,0,0,0,322.92,34.82Z"/><path d="M319.21,33.75a1.4,1.4,0,0,0,1.62.68c.69-.23.9-1,1.16-1.92a10.27,10.27,0,0,1,.74-1.2c.59-.82,1.34-1.23,1-2.34-.29-.87-1.5-.85-2.11-1.13a6.3,6.3,0,0,1-1.54-.83c-.53-.47-1.08-.94-1.77-.71a1.38,1.38,0,0,0-1,1.56S317.89,31.92,319.21,33.75Z"/><path d="M350.41,30.89a3.27,3.27,0,0,0-2.08.22c-1.11.5-1.86,1-1.28,2.11a2.13,2.13,0,0,0,2.76.69C350.45,33.59,352,31.52,350.41,30.89Z"/><path d="M355.59,32.48a.93.93,0,0,1,.19,1.25,2.8,2.8,0,0,1-1.7,1.48c-.89.23-2.18.53-2.51-.26a2.26,2.26,0,0,1,.8-2.65C353.34,31.45,355.31,32.1,355.59,32.48Z"/><path d="M356.56,35.76a1.07,1.07,0,0,1,.59,1.4s-.17,1.22-2,2a2.53,2.53,0,0,1-2.56-1.51C351.84,36.13,355.2,34.84,356.56,35.76Z"/><path d="M350.49,42.84A3.66,3.66,0,0,0,353.68,41c.47-1-.37-1.33-1.35-1.79a1.8,1.8,0,0,0-1.87.42,4,4,0,0,0-.92,2.48A.8.8,0,0,0,350.49,42.84Z"/><path d="M346.39,41.66a1.55,1.55,0,0,0,1.79.76c.76-.26,1-1.15,1.29-2.13a12.09,12.09,0,0,1,.81-1.33c.66-.9,1.49-1.35,1.08-2.58-.33-1-1.66-.94-2.33-1.25a7.4,7.4,0,0,1-1.71-.92c-.59-.52-1.19-1.05-1.95-.79a1.53,1.53,0,0,0-1.09,1.72S344.93,39.64,346.39,41.66Z"/><path d="M375.39,17.63a3,3,0,0,0-1.79-.58c-1.1,0-1.89.1-1.84,1.27s1.38,1.61,2,1.58S376.5,18.75,375.39,17.63Z"/><path d="M379.08,20.84a.84.84,0,0,1-.3,1.1,2.53,2.53,0,0,1-1.95.6c-.82-.14-2-.37-2-1.14a2.06,2.06,0,0,1,1.63-1.89A2.67,2.67,0,0,1,379.08,20.84Z"/><path d="M378.67,23.9a1,1,0,0,1,0,1.38,2.66,2.66,0,0,1-2.41.89A2.28,2.28,0,0,1,374.69,24C374.65,22.47,377.89,22.64,378.67,23.9Z"/><path d="M371.07,27.52a3.29,3.29,0,0,0,3.31-.38c.77-.65.19-1.24-.45-2a1.63,1.63,0,0,0-1.69-.34,3.61,3.61,0,0,0-1.68,1.71A.74.74,0,0,0,371.07,27.52Z"/><path d="M368.12,25a1.42,1.42,0,0,0,1.2,1.28c.72.07,1.25-.58,1.84-1.28a11.07,11.07,0,0,1,1.16-.8c.87-.51,1.73-.57,1.84-1.74.08-.92-1-1.38-1.47-1.88a6.19,6.19,0,0,1-1.06-1.38c-.3-.65-.61-1.31-1.33-1.38a1.4,1.4,0,0,0-1.53,1S367.66,22.83,368.12,25Z"/><path d="M524.43,30.89a4.4,4.4,0,0,0-2.82-.3c-1.62.35-2.74.74-2.29,2.43s2.51,1.94,3.45,1.69S526.39,32.18,524.43,30.89Z"/><path d="M530.84,34.44a1.28,1.28,0,0,1-.1,1.72,3.76,3.76,0,0,1-2.68,1.48c-1.23,0-3,.09-3.25-1a3.08,3.08,0,0,1,1.81-3.29C528.15,32.45,530.58,33.87,530.84,34.44Z"/><path d="M531.2,39.07a1.44,1.44,0,0,1,.39,2s-.57,1.57-3.25,2.06a3.41,3.41,0,0,1-3-2.71C524.84,38.22,529.65,37.47,531.2,39.07Z"/><path d="M521.16,46.75a5,5,0,0,0,4.75-1.59c.92-1.2-.11-1.87-1.27-2.75a2.46,2.46,0,0,0-2.6,0,5.39,5.39,0,0,0-1.92,3A1.1,1.1,0,0,0,521.16,46.75Z"/><path d="M516.07,44a2.1,2.1,0,0,0,2.16,1.5c1.08-.12,1.65-1.23,2.3-2.45A14.44,14.44,0,0,1,522,41.55c1.13-1,2.36-1.38,2.15-3.13-.16-1.38-1.93-1.71-2.73-2.31a9.38,9.38,0,0,1-2-1.7c-.64-.86-1.29-1.72-2.37-1.6a2.09,2.09,0,0,0-1.93,2S514.7,40.93,516.07,44Z"/><path d="M612.63,10.24a3.89,3.89,0,0,0-2.48-.35c-1.44.25-2.46.56-2.11,2.07s2.16,1.8,3,1.62S614.33,11.45,612.63,10.24Z"/><path d="M618.2,13.6a1.14,1.14,0,0,1-.15,1.52,3.31,3.31,0,0,1-2.42,1.22c-1.09,0-2.68,0-2.84-1a2.72,2.72,0,0,1,1.7-2.85C615.88,11.75,618,13.08,618.2,13.6Z"/><path d="M618.36,17.71a1.29,1.29,0,0,1,.28,1.81s-.56,1.36-2.95,1.71a3,3,0,0,1-2.53-2.5C612.76,16.75,617.05,16.24,618.36,17.71Z"/><path d="M609.22,24.18a4.42,4.42,0,0,0,4.26-1.25c.85-1,0-1.66-1-2.48a2.18,2.18,0,0,0-2.3-.06,4.76,4.76,0,0,0-1.8,2.62A1,1,0,0,0,609.22,24.18Z"/><path d="M604.8,21.61a1.88,1.88,0,0,0,1.86,1.4c1-.08,1.5-1,2.12-2.1a13.41,13.41,0,0,1,1.34-1.31c1-.86,2.13-1.14,2-2.7-.1-1.22-1.66-1.58-2.35-2.13a8.67,8.67,0,0,1-1.71-1.57c-.54-.78-1.09-1.57-2.05-1.5a1.85,1.85,0,0,0-1.78,1.69S603.69,18.81,604.8,21.61Z"/><path d="M645.45,29.86a3.83,3.83,0,0,0-2.16-1.2c-1.41-.27-2.44-.35-2.66,1.16s1.35,2.41,2.19,2.53S646.58,31.56,645.45,29.86Z"/><path d="M649.36,34.89a1.1,1.1,0,0,1-.66,1.34,3.32,3.32,0,0,1-2.65.27c-1-.38-2.45-1-2.24-2a2.66,2.66,0,0,1,2.56-2C647.89,32.38,649.35,34.34,649.36,34.89Z"/><path d="M648.07,38.72a1.25,1.25,0,0,1-.38,1.75s-1,1.05-3.31.53a3,3,0,0,1-1.44-3.18C643.27,35.87,647.38,36.91,648.07,38.72Z"/><path d="M637.42,41.43a4.3,4.3,0,0,0,4.34.35c1.14-.64.55-1.54-.08-2.63a2.14,2.14,0,0,0-2.09-.87A4.69,4.69,0,0,0,637,40,1,1,0,0,0,637.42,41.43Z"/><path d="M634.27,37.51a1.82,1.82,0,0,0,1.21,1.94c.91.27,1.74-.42,2.68-1.17a13.43,13.43,0,0,1,1.69-.73c1.24-.43,2.35-.3,2.79-1.77.34-1.15-1-2-1.4-2.78a8.18,8.18,0,0,1-1-2c-.22-.91-.44-1.82-1.35-2.09a1.8,1.8,0,0,0-2.22.92S634.24,34.57,634.27,37.51Z"/><path d="M590.58,39.1a3.37,3.37,0,0,0-2.13.33c-1.12.57-1.88,1.08-1.21,2.24s2.23.93,2.87.57S592.28,39.66,590.58,39.1Z"/><path d="M596,40.46a1,1,0,0,1,.26,1.28,2.9,2.9,0,0,1-1.69,1.62c-.9.28-2.21.65-2.59-.14a2.33,2.33,0,0,1,.68-2.77C593.63,39.53,595.69,40.09,596,40.46Z"/><path d="M597.16,43.8a1.1,1.1,0,0,1,.68,1.41s-.12,1.26-2,2.15a2.6,2.6,0,0,1-2.71-1.42C592.32,44.42,595.71,42.92,597.16,43.8Z"/><path d="M591.27,51.4a3.77,3.77,0,0,0,3.19-2.09c.44-1.06-.45-1.36-1.48-1.77a1.86,1.86,0,0,0-1.9.52,4.08,4.08,0,0,0-.83,2.61A.84.84,0,0,0,591.27,51.4Z"/><path d="M587,50.4a1.61,1.61,0,0,0,1.88.69c.77-.31,1-1.24,1.22-2.26a12.36,12.36,0,0,1,.77-1.41c.63-1,1.46-1.48,1-2.72-.38-1-1.76-.88-2.46-1.17a6.89,6.89,0,0,1-1.8-.86c-.64-.5-1.29-1-2.06-.71a1.57,1.57,0,0,0-1,1.83S585.38,48.38,587,50.4Z"/><path d="M493.92,55.29a4.14,4.14,0,0,0-2.63-.32c-1.52.3-2.58.64-2.19,2.23s2.32,1.86,3.21,1.65S495.74,56.54,493.92,55.29Z"/><path d="M499.87,58.74a1.18,1.18,0,0,1-.12,1.6,3.55,3.55,0,0,1-2.54,1.34c-1.16,0-2.84,0-3-1a2.89,2.89,0,0,1,1.75-3C497.38,56.83,499.63,58.19,499.87,58.74Z"/><path d="M500.12,63.08a1.35,1.35,0,0,1,.34,1.9s-.57,1.46-3.09,1.87a3.21,3.21,0,0,1-2.73-2.59C494.18,62.17,498.7,61.55,500.12,63.08Z"/><path d="M490.59,70.09a4.64,4.64,0,0,0,4.47-1.4c.88-1.1-.07-1.76-1.14-2.6a2.3,2.3,0,0,0-2.43,0,5,5,0,0,0-1.86,2.8A1,1,0,0,0,490.59,70.09Z"/><path d="M485.86,67.46a2,2,0,0,0,2,1.45c1-.1,1.56-1.14,2.2-2.26a12.9,12.9,0,0,1,1.39-1.41c1.06-.94,2.23-1.26,2.07-2.9-.13-1.29-1.79-1.63-2.53-2.21a8.7,8.7,0,0,1-1.84-1.62c-.58-.82-1.18-1.64-2.19-1.54a1.93,1.93,0,0,0-1.84,1.82S484.64,64.53,485.86,67.46Z"/><path d="M565.16,23.72a3.36,3.36,0,0,0-2.11.34c-1.12.56-1.86,1.06-1.21,2.21a2.17,2.17,0,0,0,2.85.57C565.33,26.48,566.85,24.29,565.16,23.72Z"/><path d="M570.53,25.08a1,1,0,0,1,.26,1.27c-.44.75-.77,1.33-1.67,1.6s-2.19.65-2.57-.14a2.31,2.31,0,0,1,.68-2.75C568.18,24.15,570.23,24.71,570.53,25.08Z"/><path d="M571.69,28.39a1.09,1.09,0,0,1,.68,1.4s-.12,1.25-2,2.14a2.59,2.59,0,0,1-2.69-1.41C566.88,29,570.25,27.52,571.69,28.39Z"/><path d="M565.85,35.94A3.77,3.77,0,0,0,569,33.86c.44-1-.45-1.35-1.46-1.76a1.86,1.86,0,0,0-1.9.52,4.1,4.1,0,0,0-.82,2.58A.85.85,0,0,0,565.85,35.94Z"/><path d="M561.6,34.94a1.6,1.6,0,0,0,1.87.68c.76-.3,1-1.22,1.21-2.24a10.89,10.89,0,0,1,.76-1.4c.62-1,1.45-1.46,1-2.7-.38-1-1.74-.87-2.44-1.15a7.25,7.25,0,0,1-1.79-.86c-.63-.5-1.28-1-2-.71a1.58,1.58,0,0,0-1,1.82S560,32.94,561.6,34.94Z"/><path d="M680.6,17.66a4,4,0,0,0-2.06-1.41c-1.4-.4-2.43-.58-2.79.92s1.13,2.55,2,2.76S681.58,19.48,680.6,17.66Z"/><path d="M684.07,23.09a1.12,1.12,0,0,1-.79,1.29,3.38,3.38,0,0,1-2.7,0c-1-.48-2.37-1.2-2.07-2.18a2.69,2.69,0,0,1,2.77-1.79C682.82,20.43,684.11,22.54,684.07,23.09Z"/><path d="M682.41,26.82a1.28,1.28,0,0,1-.54,1.74s-1.1,1-3.38.23a3,3,0,0,1-1.16-3.34C677.85,23.51,681.89,24.94,682.41,26.82Z"/><path d="M671.43,28.57a4.37,4.37,0,0,0,4.34.75c1.21-.54.7-1.49.17-2.66a2.16,2.16,0,0,0-2-1.06,4.68,4.68,0,0,0-2.76,1.54A1,1,0,0,0,671.43,28.57Z"/><path d="M668.63,24.33a1.86,1.86,0,0,0,1,2.07c.89.35,1.79-.27,2.81-.94a12.48,12.48,0,0,1,1.76-.57c1.3-.32,2.4-.09,3-1.53.45-1.13-.79-2.13-1.15-2.93a8.42,8.42,0,0,1-.84-2.15c-.14-.93-.28-1.87-1.17-2.23a1.83,1.83,0,0,0-2.32.73S668.87,21.36,668.63,24.33Z"/><path d="M546.24,51.3a3.51,3.51,0,0,0-2.22.37c-1.17.61-1.95,1.14-1.25,2.34s2.34,1,3,.57S548,51.87,546.24,51.3Z"/><path d="M551.9,52.66a1,1,0,0,1,.28,1.34c-.46.79-.8,1.4-1.73,1.7s-2.3.71-2.71-.12a2.44,2.44,0,0,1,.68-2.9C549.42,51.71,551.57,52.28,551.9,52.66Z"/><path d="M553.15,56.13a1.15,1.15,0,0,1,.73,1.47s-.11,1.32-2.06,2.26A2.71,2.71,0,0,1,549,58.41C548.1,56.83,551.63,55.23,553.15,56.13Z"/><path d="M547.09,64.13a4,4,0,0,0,3.3-2.22c.45-1.11-.48-1.41-1.56-1.84a2,2,0,0,0-2,.57,4.28,4.28,0,0,0-.83,2.73A.88.88,0,0,0,547.09,64.13Z"/><path d="M542.62,63.13a1.66,1.66,0,0,0,2,.69c.8-.32,1-1.29,1.25-2.36a11.27,11.27,0,0,1,.79-1.48c.64-1,1.51-1.56,1-2.85-.41-1-1.84-.9-2.58-1.19a7.53,7.53,0,0,1-1.89-.88c-.67-.52-1.35-1-2.15-.72a1.65,1.65,0,0,0-1.06,1.92S540.91,61,542.62,63.13Z"/><path d="M701.74,43.66a3.23,3.23,0,0,0-1.78-1c-1.17-.21-2-.27-2.19,1s1.13,2,1.82,2.07S702.68,45.06,701.74,43.66Z"/><path d="M705,47.78a.91.91,0,0,1-.53,1.1,2.73,2.73,0,0,1-2.18.25c-.83-.31-2-.78-1.86-1.6a2.21,2.21,0,0,1,2.1-1.67C703.76,45.73,705,47.33,705,47.78Z"/><path d="M704,50.93a1,1,0,0,1-.29,1.45,2.87,2.87,0,0,1-2.72.46,2.45,2.45,0,0,1-1.21-2.61C700,48.62,703.38,49.45,704,50.93Z"/><path d="M695.21,53.24a3.56,3.56,0,0,0,3.58.26c.93-.54.44-1.27-.09-2.17a1.75,1.75,0,0,0-1.72-.7,3.86,3.86,0,0,0-2.1,1.47A.79.79,0,0,0,695.21,53.24Z"/><path d="M692.6,50a1.51,1.51,0,0,0,1,1.59c.74.21,1.43-.37,2.19-1a11.13,11.13,0,0,1,1.39-.61c1-.36,1.93-.26,2.28-1.47.27-1-.81-1.67-1.17-2.28a6.73,6.73,0,0,1-.85-1.67c-.19-.75-.38-1.5-1.13-1.71a1.48,1.48,0,0,0-1.82.77S692.55,47.62,692.6,50Z"/><path d="M781.27,52.77a2.94,2.94,0,0,0-1.64.89c-.74.79-1.21,1.41-.34,2.17a1.88,1.88,0,0,0,2.5-.37C782.21,55,782.82,52.74,781.27,52.77Z"/><path d="M786.07,52.32a.84.84,0,0,1,.58,1,2.52,2.52,0,0,1-.9,1.8c-.65.48-1.61,1.17-2.16.63a2,2,0,0,1-.24-2.45A2.64,2.64,0,0,1,786.07,52.32Z"/><path d="M788,54.7a1,1,0,0,1,1,.95,2.66,2.66,0,0,1-1,2.33,2.25,2.25,0,0,1-2.61-.38C784.22,56.6,786.55,54.4,788,54.7Z"/><path d="M785.38,62.59a3.26,3.26,0,0,0,2-2.62c.06-1-.75-1-1.71-1a1.61,1.61,0,0,0-1.4,1,3.55,3.55,0,0,0,.08,2.36A.72.72,0,0,0,785.38,62.59Z"/><path d="M781.61,63a1.38,1.38,0,0,0,1.73,0c.54-.47.44-1.28.34-2.19a10.07,10.07,0,0,1,.22-1.37c.23-1,.76-1.62,0-2.49-.6-.69-1.69-.21-2.34-.24a6.41,6.41,0,0,1-1.72-.18c-.67-.23-1.34-.45-1.88,0a1.36,1.36,0,0,0-.31,1.79S779.72,61.83,781.61,63Z"/><path d="M817.15,42.67a2.88,2.88,0,0,0-1.64.88c-.74.79-1.21,1.42-.34,2.17a1.89,1.89,0,0,0,2.51-.36C818.09,44.87,818.7,42.64,817.15,42.67Z"/><path d="M822,42.22a.83.83,0,0,1,.58,1,2.45,2.45,0,0,1-.9,1.8c-.65.49-1.61,1.17-2.15.64a2,2,0,0,1-.24-2.46A2.62,2.62,0,0,1,822,42.22Z"/><path d="M823.86,44.6a1,1,0,0,1,1,.95,2.64,2.64,0,0,1-1,2.32,2.24,2.24,0,0,1-2.61-.37C820.1,46.49,822.43,44.3,823.86,44.6Z"/><path d="M821.27,52.48a3.24,3.24,0,0,0,2-2.62c.06-1-.75-1-1.71-1a1.62,1.62,0,0,0-1.4,1,3.54,3.54,0,0,0,.08,2.36A.73.73,0,0,0,821.27,52.48Z"/><path d="M817.49,52.9a1.38,1.38,0,0,0,1.73,0c.54-.46.44-1.28.34-2.18a10.07,10.07,0,0,1,.22-1.37c.23-1,.77-1.62,0-2.5-.6-.68-1.69-.21-2.34-.23a6.41,6.41,0,0,1-1.72-.18c-.66-.23-1.34-.46-1.88,0a1.36,1.36,0,0,0-.31,1.79S815.6,51.72,817.49,52.9Z"/><path d="M28.4,48.74a1.38,1.38,0,0,0,1.49-2.31l4-7.63a1.38,1.38,0,0,0,1-2.54,1.34,1.34,0,0,0-.87-.14,1.35,1.35,0,0,0-.67-.8,1.38,1.38,0,0,0-1.47,2.32l-4.05,7.73A1.38,1.38,0,1,0,27.76,48,1.36,1.36,0,0,0,28.4,48.74Z"/><path d="M62.06,32.66a1.38,1.38,0,0,0-2.56,1l-7.71,3.85a1.38,1.38,0,1,0-1.71,2.07,1.4,1.4,0,0,0,.08,1,1.38,1.38,0,0,0,1.85.61,1.36,1.36,0,0,0,.7-1.63l7.81-3.9a1.38,1.38,0,1,0,1.65-2.08A1.4,1.4,0,0,0,62.06,32.66Z"/><path d="M84.87,21.23a1.07,1.07,0,0,0-1.61-1.39L77.84,16A1.06,1.06,0,0,0,76,14.91a1.11,1.11,0,0,0-.2.65,1.07,1.07,0,0,0-.68.43,1.06,1.06,0,0,0,1.62,1.37l5.49,3.91a1.06,1.06,0,0,0,1.82,1.08,1,1,0,0,0,.19-.71A1.12,1.12,0,0,0,84.87,21.23Z"/><path d="M109.79,34.77a1.31,1.31,0,0,0-2.49.77l-7.54,3.14a1.33,1.33,0,0,0-1.6-.49,1.3,1.3,0,0,0-.7,1.71,1.34,1.34,0,0,0,.54.63,1.28,1.28,0,0,0,0,1,1.31,1.31,0,0,0,2.48-.79l7.64-3.18a1.31,1.31,0,1,0,1.69-1.86A1.36,1.36,0,0,0,109.79,34.77Z"/><path d="M142.78,22.86A1.4,1.4,0,0,0,140,23l-8.71,1.21A1.4,1.4,0,1,0,129,25.62a1.42,1.42,0,0,0-.26,1,1.41,1.41,0,0,0,1.59,1.2,1.39,1.39,0,0,0,1.21-1.35l8.81-1.21a1.4,1.4,0,0,0,2.73-.62,1.46,1.46,0,0,0-.46-.86A1.35,1.35,0,0,0,142.78,22.86Z"/><path d="M221.58,47.51a1.25,1.25,0,0,0-2.08,1.38l-6.12,4.91a1.25,1.25,0,0,0-1.79,1.74,1.32,1.32,0,0,0,.67.43,1.29,1.29,0,0,0,.27.91,1.27,1.27,0,0,0,1.77.19,1.25,1.25,0,0,0,.3-1.59l6.19-5a1.26,1.26,0,0,0,1.82-1.72,1.24,1.24,0,0,0-.75-.45A1.25,1.25,0,0,0,221.58,47.51Z"/><path d="M382.52,32a1.25,1.25,0,0,0-2.36.81L373,36a1.25,1.25,0,0,0-2.17,1.23,1.18,1.18,0,0,0,.54.58,1.25,1.25,0,1,0,2.39.12L381,34.65a1.25,1.25,0,0,0,2.18-1.22,1.31,1.31,0,0,0-.61-.62A1.23,1.23,0,0,0,382.52,32Z"/><path d="M427.4,48.08a1.26,1.26,0,0,0,.22-1.76,1.24,1.24,0,0,0-1.57-.34l-4.84-6.17A1.25,1.25,0,0,0,419.5,38a1.24,1.24,0,0,0-.44.67,1.22,1.22,0,0,0-.91.26,1.26,1.26,0,0,0-.22,1.76,1.27,1.27,0,0,0,1.59.33l4.9,6.24a1.25,1.25,0,0,0,1.7,1.83,1.21,1.21,0,0,0,.45-.74A1.21,1.21,0,0,0,427.4,48.08Z"/><path d="M474.76,57a1.25,1.25,0,0,0-2.36.81L465.25,61a1.26,1.26,0,0,0-2.17,1.24,1.27,1.27,0,0,0,.54.58,1.21,1.21,0,0,0,0,1,1.25,1.25,0,0,0,1.65.63,1.26,1.26,0,0,0,.7-1.47l7.24-3.26a1.25,1.25,0,0,0,2.18-1.21,1.23,1.23,0,0,0-.61-.62A1.25,1.25,0,0,0,474.76,57Z"/><path d="M526.61,60.45a1.25,1.25,0,0,0-1.89-1.63l-6.39-4.55A1.26,1.26,0,0,0,516.17,53a1.34,1.34,0,0,0-.23.77,1.22,1.22,0,0,0-.8.5,1.26,1.26,0,0,0,1.91,1.62l6.46,4.6a1.26,1.26,0,0,0,.4,1.57,1.25,1.25,0,0,0,1.75-.29,1.18,1.18,0,0,0,.23-.84A1.27,1.27,0,0,0,526.61,60.45Z"/><path d="M670.71,43.84a1.25,1.25,0,0,0-1.89-1.63l-6.39-4.55a1.25,1.25,0,0,0-2.16-1.25,1.33,1.33,0,0,0-.23.76,1.27,1.27,0,0,0-.8.51,1.25,1.25,0,0,0,1.91,1.61l6.46,4.61a1.27,1.27,0,0,0,.4,1.57,1.25,1.25,0,0,0,1.75-.3,1.18,1.18,0,0,0,.23-.84A1.22,1.22,0,0,0,670.71,43.84Z"/><path d="M772.31,57.94a1.25,1.25,0,0,0-.3-1.75,1.24,1.24,0,0,0-1.59.12L764,51.76a1.26,1.26,0,0,0-2.16-1.26,1.22,1.22,0,0,0-.23.77,1.25,1.25,0,0,0-.51,2.25,1.23,1.23,0,0,0,1.61-.13L769.21,58a1.25,1.25,0,0,0,2.15,1.27,1.28,1.28,0,0,0,.23-.84A1.22,1.22,0,0,0,772.31,57.94Z"/><path d="M841,44.81a1.25,1.25,0,0,0-1.89-1.63l-6.38-4.55a1.26,1.26,0,0,0-2.16-1.26,1.3,1.3,0,0,0-.24.77,1.25,1.25,0,0,0-.5,2.25,1.24,1.24,0,0,0,1.61-.13l6.47,4.61a1.23,1.23,0,0,0,.4,1.56,1.24,1.24,0,0,0,1.75-.29,1.22,1.22,0,0,0,.22-.84A1.22,1.22,0,0,0,841,44.81Z"/><path d="M572.88,46.38A1.26,1.26,0,0,0,571,48.05l-5.33,5.75a1.25,1.25,0,0,0-1.52,2,1.29,1.29,0,0,0,.73.33,1.25,1.25,0,1,0,2.24-.83l5.4-5.82a1.26,1.26,0,0,0,1.54-2,1.27,1.27,0,0,0-.81-.33A1.22,1.22,0,0,0,572.88,46.38Z"/><path d="M621.25,40a1.26,1.26,0,0,0-2.4.7l-7.28,2.9a1.26,1.26,0,0,0-2.23,1.13,1.28,1.28,0,0,0,.51.61,1.22,1.22,0,0,0,0,.94,1.25,1.25,0,0,0,1.62.71,1.26,1.26,0,0,0,.77-1.43l7.38-2.93a1.24,1.24,0,0,0,1.53.52,1.26,1.26,0,0,0,.7-1.63,1.23,1.23,0,0,0-.58-.65A1.19,1.19,0,0,0,621.25,40Z"/><path d="M725.56,47.94a1.25,1.25,0,0,0-2.4.7l-7.29,2.89a1.25,1.25,0,0,0-2.22,1.13,1.19,1.19,0,0,0,.51.61,1.3,1.3,0,0,0,0,.95,1.26,1.26,0,0,0,1.63.7,1.24,1.24,0,0,0,.76-1.42l7.38-2.93a1.26,1.26,0,0,0,1.54.51,1.24,1.24,0,0,0,.7-1.62,1.2,1.2,0,0,0-.58-.65A1.3,1.3,0,0,0,725.56,47.94Z"/><path d="M806.43,51.53a1.26,1.26,0,0,0-1.63-.7,1.24,1.24,0,0,0-.77,1.4l-7.29,2.9a1.26,1.26,0,0,0-2.23,1.13,1.3,1.3,0,0,0,.52.61,1.25,1.25,0,0,0,0,1,1.26,1.26,0,0,0,1.63.7,1.25,1.25,0,0,0,.76-1.43l7.38-2.93a1.25,1.25,0,0,0,1.53.52,1.26,1.26,0,0,0,.71-1.63,1.29,1.29,0,0,0-.59-.65A1.24,1.24,0,0,0,806.43,51.53Z"/><path d="M158.1,52.82a1.39,1.39,0,0,0-1.43-2.37l-5.15-7a1.4,1.4,0,0,0-1.84-2.08,1.36,1.36,0,0,0-.51.73,1.39,1.39,0,1,0,.43,2.62l5.22,7.1a1.39,1.39,0,0,0,1.82,2.09,1.4,1.4,0,0,0,.53-.81A1.39,1.39,0,0,0,158.1,52.82Z"/><path d="M179.75,39.39A1.31,1.31,0,0,0,181,41.7l4.49,6.87A1.31,1.31,0,1,0,187.6,50a1.28,1.28,0,0,0,1-.18,1.32,1.32,0,0,0-1.24-2.31l-4.54-6.95a1.31,1.31,0,0,0-1.61-2.06,1.26,1.26,0,0,0-.54.73A1.29,1.29,0,0,0,179.75,39.39Z"/><path d="M189.87,67.24a1.31,1.31,0,0,0,2.49-.81l7.54-3.24a1.31,1.31,0,0,0,2.29-1.26,1.35,1.35,0,0,0-.56-.62,1.26,1.26,0,0,0,0-1,1.31,1.31,0,0,0-2.48.83l-7.63,3.29a1.31,1.31,0,1,0-1.68,1.89A1.3,1.3,0,0,0,189.87,67.24Z"/><path d="M241,66.27a1.31,1.31,0,0,0-2.17-1.45l-7.23-3.89a1.31,1.31,0,0,0-2.41-1,1.32,1.32,0,0,0-.14.82,1.34,1.34,0,0,0-.76.63,1.31,1.31,0,0,0,2.19,1.43l7.31,3.94a1.31,1.31,0,0,0,2.4,1,1.29,1.29,0,0,0,.13-.9A1.28,1.28,0,0,0,241,66.27Z"/><path d="M261.22,48.3a1.31,1.31,0,0,0-2.54-.61l-8.13-1.15a1.31,1.31,0,0,0-2.61-.13,1.33,1.33,0,0,0,.15.82,1.36,1.36,0,0,0-.5.86,1.31,1.31,0,0,0,2.55.58l8.23,1.17a1.31,1.31,0,1,0,2.42-.74A1.37,1.37,0,0,0,261.22,48.3Z"/><path d="M282.49,48.43a1.31,1.31,0,0,0-2.22,1.38l-6.55,4.95A1.31,1.31,0,1,0,272.48,57a1.35,1.35,0,0,0,.25,1,1.32,1.32,0,0,0,2.22-1.4l6.63-5a1.31,1.31,0,0,0,1.94-1.74,1.26,1.26,0,0,0-.77-.49A1.29,1.29,0,0,0,282.49,48.43Z"/><path d="M333.55,43.39a1.31,1.31,0,0,0-2.44-.94l-7.9-2.22a1.31,1.31,0,1,0-2.53.36,1.37,1.37,0,0,0-.61.78,1.32,1.32,0,0,0,2.46.92l8,2.25a1.32,1.32,0,0,0,1,1.4A1.32,1.32,0,0,0,333,44.12,1.24,1.24,0,0,0,333.55,43.39Z"/><path d="M300.72,30.67a1.32,1.32,0,0,0-2.49.81l-7.53,3.26A1.31,1.31,0,0,0,288.41,36a1.35,1.35,0,0,0,.56.62,1.31,1.31,0,0,0,0,1,1.31,1.31,0,0,0,2.48-.83l7.62-3.3a1.32,1.32,0,0,0,2.31-1.24,1.35,1.35,0,0,0-.63-.66A1.3,1.3,0,0,0,300.72,30.67Z"/><path d="M343.2,20a1.31,1.31,0,0,0,2.16,1.48l7.17,4a1.34,1.34,0,0,0,.61,1.57,1.32,1.32,0,0,0,1.79-.51,1.35,1.35,0,0,0,.15-.83,1.24,1.24,0,0,0,.77-.62,1.31,1.31,0,0,0-2.17-1.45l-7.26-4A1.31,1.31,0,0,0,344,18.53a1.24,1.24,0,0,0-.13.9A1.26,1.26,0,0,0,343.2,20Z"/><path d="M398.21,20.76a1.32,1.32,0,0,0,2.62-.09L409,19.62a1.31,1.31,0,1,0,2.18-1.32,1.31,1.31,0,1,0-2.36-.84l-8.24,1.05a1.31,1.31,0,1,0-2.13,1.36A1.29,1.29,0,0,0,398.21,20.76Z"/><path d="M460.28,31.36a1.31,1.31,0,0,0-2.39,1.06l-7.17,4a1.31,1.31,0,0,0-2.16,1.48,1.34,1.34,0,0,0,.62.56,1.35,1.35,0,0,0,.12,1,1.32,1.32,0,0,0,2.39-1.08l7.25-4a1.32,1.32,0,0,0,1.67.32,1.3,1.3,0,0,0,.5-1.78,1.34,1.34,0,0,0-.69-.6A1.31,1.31,0,0,0,460.28,31.36Z"/><path d="M508,43.25a1.3,1.3,0,0,0-.94-1.6,1.32,1.32,0,0,0-1.52.71l-7.94-2.08a1.3,1.3,0,0,0-1-1.36,1.31,1.31,0,0,0-1.61.94,1.38,1.38,0,0,0,.06.83,1.32,1.32,0,0,0,.35,2.4,1.31,1.31,0,0,0,1.52-.74l8,2.11a1.31,1.31,0,0,0,2.58.45,1.34,1.34,0,0,0-.09-.91A1.27,1.27,0,0,0,508,43.25Z"/><path d="M593.75,24.55a1.32,1.32,0,0,0-2.46-.9l-7.94-2.07a1.33,1.33,0,0,0-1-1.37,1.31,1.31,0,0,0-1.6.94,1.24,1.24,0,0,0,.06.83,1.29,1.29,0,0,0-.6.8,1.31,1.31,0,0,0,2.47.87l8,2.1a1.33,1.33,0,0,0,1,1.39,1.31,1.31,0,0,0,1.6-.94,1.3,1.3,0,0,0-.09-.91A1.34,1.34,0,0,0,593.75,24.55Z"/><path d="M705.05,27.49a1.31,1.31,0,0,0-1.84-1.86l-6.3-5.26a1.32,1.32,0,0,0-2.16-1.48,1.29,1.29,0,0,0-.3.78,1.27,1.27,0,0,0-.87.46A1.31,1.31,0,0,0,695.44,22l6.37,5.33A1.31,1.31,0,0,0,704,28.8a1.34,1.34,0,0,0,.31-.86A1.3,1.3,0,0,0,705.05,27.49Z"/><path d="M818.9,34.54a1.31,1.31,0,0,0-1.84-1.86l-6.3-5.26a1.31,1.31,0,1,0-2.45-.71,1.33,1.33,0,0,0-.88.47A1.31,1.31,0,0,0,809.29,29l6.37,5.32a1.32,1.32,0,1,0,2.45.65A1.3,1.3,0,0,0,818.9,34.54Z"/><path d="M552.36,30.19a1.31,1.31,0,0,0-1.8,1.89l-5.09,6.44a1.31,1.31,0,0,0-1.42,2.19,1.35,1.35,0,0,0,.78.28,1.29,1.29,0,0,0,.49.86,1.31,1.31,0,0,0,1.79-1.91l5.15-6.51a1.31,1.31,0,1,0,.58-2.47A1.3,1.3,0,0,0,552.36,30.19Z"/><path d="M651.14,13a1.44,1.44,0,0,0-2.79.65L639.8,16.5a1.44,1.44,0,0,0-2.63,1.16,1.47,1.47,0,0,0,.56.73,1.44,1.44,0,1,0,2.72.41l8.65-2.9a1.43,1.43,0,0,0,1.73.69,1.44,1.44,0,0,0,.91-1.82,1.49,1.49,0,0,0-.63-.78A1.49,1.49,0,0,0,651.14,13Z"/><path d="M765.9,33.07a1.44,1.44,0,0,0-2.79.66l-8.55,2.86a1.44,1.44,0,0,0-2.63,1.16,1.47,1.47,0,0,0,.56.73,1.39,1.39,0,0,0-.07,1.08,1.44,1.44,0,0,0,2.79-.68L763.86,36a1.44,1.44,0,0,0,2.64-1.14,1.47,1.47,0,0,0-.63-.77A1.46,1.46,0,0,0,765.9,33.07Z"/></g><g id="Capa_8" data-name="Capa 8"><path d="M850.23,23.53a.77.77,0,0,0-.54.89,2.32,2.32,0,0,0,.84,1.66c.6.45,1.48,1.08,2,.59a1.87,1.87,0,0,0,.22-2.27A2.44,2.44,0,0,0,850.23,23.53Z"/><path d="M848.47,25.73a.87.87,0,0,0-.89.87,2.42,2.42,0,0,0,.92,2.15,2.09,2.09,0,0,0,2.42-.34C851.94,27.48,849.79,25.45,848.47,25.73Z"/><path d="M850.87,33A3,3,0,0,1,849,30.59c0-.92.7-.9,1.58-.94a1.47,1.47,0,0,1,1.29.9,3.27,3.27,0,0,1-.07,2.18A.67.67,0,0,1,850.87,33Z"/></g></svg>